<svg width="50" height="50" viewBox="0 0 50 50" fill="none" xmlns="http://www.w3.org/2000/svg">
<g clip-path="url(#clip0_1_3190)">
<path d="M26.2847 26.0742C29.0712 22.1582 35.4167 12.6563 35.4167 7.32422C35.4167 0.849609 30.7552 -4.39453 25 -4.39453C19.2448 -4.39453 14.5833 0.849609 14.5833 7.32422C14.5833 12.6563 20.9288 22.1582 23.7153 26.0742C24.3837 27.0117 25.625 27.0117 26.2847 26.0742ZM36.1111 44.7266L48.6892 39.0625C49.4792 38.7109 50 37.8418 50 36.8848V10.4492C50 8.78906 48.5156 7.65625 47.1441 8.27149L37.0747 12.8027C37.0312 12.9199 36.9878 13.0469 36.9444 13.1641C36.6927 13.8281 36.4149 14.502 36.1111 15.1758V44.7266ZM1.31076 13.8965C0.520833 14.2578 0 15.1172 0 16.0742V42.5195C0 44.1797 1.48438 45.3125 2.8559 44.6973L13.8889 39.7266V15.1758C13.5851 14.502 13.3073 13.8281 13.0556 13.1641C12.5694 11.875 12.1528 10.4883 11.9444 9.11133L1.30208 13.8965H1.31076ZM33.3333 20.5078C31.5538 23.5645 29.6615 26.3281 28.4549 28.0273C26.6753 30.5273 23.3247 30.5273 21.5451 28.0273C20.3385 26.3281 18.4462 23.5645 16.6667 20.5078V39.4922L33.3333 44.8535V20.5078Z" fill="#004CD2"/>
</g>
<defs>
<clipPath id="clip0_1_3190">
<rect width="50" height="50" fill="white"/>
</clipPath>
</defs>
</svg>
