<svg width="16" height="17" viewBox="0 0 16 17" fill="none" xmlns="http://www.w3.org/2000/svg">
<g clip-path="url(#clip0_1_3196)">
<g clip-path="url(#clip1_1_3196)">
<g clip-path="url(#clip2_1_3196)">
<path d="M8.86928 3.96324C8.86928 3.32474 9.43955 3.09537 10.0781 3.09537C10.7166 3.09537 11.3985 3.29374 11.3985 3.29374L11.8076 0.863716C11.8076 0.863716 10.9398 0.566162 8.86928 0.566162C7.59847 0.566162 6.86078 1.04969 6.32147 1.76258C5.81314 2.43827 5.79454 3.52311 5.79454 4.2236V5.81676H4.15179V8.191H5.79454V16.4357H8.86928V8.191H11.3055L11.4853 5.81676H8.86928V3.96324Z" fill="#F2F3FE"/>
</g>
</g>
</g>
<defs>
<clipPath id="clip0_1_3196">
<rect width="15.8696" height="15.8696" fill="white" transform="translate(0.043457 0.565186)"/>
</clipPath>
<clipPath id="clip1_1_3196">
<rect width="15.8696" height="15.8696" fill="white" transform="translate(0.0439453 0.56543)"/>
</clipPath>
<clipPath id="clip2_1_3196">
<rect width="15.8696" height="15.8696" fill="white" transform="translate(0.0444336 0.565674)"/>
</clipPath>
</defs>
</svg>
