<svg width="17" height="17" viewBox="0 0 17 17" fill="none" xmlns="http://www.w3.org/2000/svg">
<g clip-path="url(#clip0_1_3201)">
<g clip-path="url(#clip1_1_3201)">
<path d="M10.8581 3.0459H6.44889C5.58707 3.04656 4.76072 3.3892 4.15132 3.99861C3.54191 4.60801 3.19927 5.43436 3.19861 6.29618V10.7054C3.19913 11.5674 3.54172 12.3938 4.15115 13.0033C4.76056 13.6129 5.58698 13.9556 6.44889 13.9562H10.8581C11.72 13.9554 12.5463 13.6126 13.1557 13.0032C13.7651 12.3937 14.1077 11.5673 14.1085 10.7054V6.29618C14.1081 5.43428 13.7655 4.60778 13.156 3.99832C12.5466 3.38886 11.7201 3.0463 10.8581 3.0459ZM13.0115 10.7054C13.0113 11.2765 12.7844 11.8241 12.3807 12.228C11.9769 12.6317 11.4292 12.8586 10.8581 12.8588H6.44889C6.16615 12.8588 5.88616 12.8031 5.62494 12.6948C5.36372 12.5866 5.12637 12.428 4.92645 12.228C4.72654 12.0281 4.56798 11.7907 4.45982 11.5295C4.35166 11.2682 4.29602 10.9882 4.29609 10.7054V6.29618C4.29602 6.01345 4.35166 5.73348 4.45983 5.47226C4.56799 5.21105 4.72656 4.97369 4.92649 4.77378C5.1264 4.57385 5.36376 4.41528 5.62497 4.30712C5.88619 4.19895 6.16616 4.14331 6.44889 4.14337H10.8581C11.429 4.14351 11.9765 4.37036 12.3803 4.77406C12.784 5.17777 13.0108 5.72527 13.011 6.29618L13.0115 10.7054Z" fill="#F2F3FE"/>
<path d="M8.65403 5.68002C7.0978 5.68002 5.83319 6.94512 5.83319 8.50084C5.83319 10.0566 7.09829 11.3217 8.65403 11.3217C10.2097 11.3217 11.4748 10.0566 11.4748 8.50084C11.4748 6.94512 10.2102 5.68002 8.65403 5.68002ZM8.65403 10.2241C8.19695 10.2242 7.75858 10.0427 7.43535 9.71956C7.11212 9.39646 6.93048 8.95814 6.93042 8.5011C6.93036 8.04402 7.11186 7.60566 7.435 7.28243C7.75814 6.95919 8.19646 6.77756 8.65351 6.7775C9.1106 6.77743 9.54892 6.95893 9.87218 7.28208C10.1954 7.60521 10.377 8.04353 10.3771 8.50058C10.3771 8.95767 10.1957 9.39598 9.8725 9.71925C9.54939 10.0425 9.11107 10.2241 8.65403 10.2241ZM11.4808 5.0249C11.6144 5.025 11.745 5.06472 11.8561 5.13903C11.9672 5.21334 12.0538 5.31891 12.1049 5.44241C12.156 5.5659 12.1693 5.70176 12.1432 5.83284C12.1171 5.96391 12.0527 6.08431 11.9582 6.17881C11.8637 6.27331 11.7434 6.33768 11.6123 6.36378C11.4812 6.38988 11.3453 6.37653 11.2218 6.32543C11.0983 6.27434 10.9927 6.18778 10.9185 6.07669C10.8441 5.96561 10.8044 5.83499 10.8044 5.70134C10.8044 5.32841 11.0572 5.0249 11.4808 5.0249Z" fill="#F2F3FE"/>
</g>
</g>
<defs>
<clipPath id="clip0_1_3201">
<rect width="15.8696" height="15.8696" fill="white" transform="translate(0.717407 0.565186)"/>
</clipPath>
<clipPath id="clip1_1_3201">
<rect width="15.8696" height="15.8696" fill="white" transform="translate(0.718018 0.56543)"/>
</clipPath>
</defs>
</svg>
