<svg width="17" height="17" viewBox="0 0 17 17" fill="none" xmlns="http://www.w3.org/2000/svg">
<g clip-path="url(#clip0_1_3224)">
<g clip-path="url(#clip1_1_3224)">
<g clip-path="url(#clip2_1_3224)">
<path d="M14.5984 14.436C14.5984 14.9808 14.404 15.4483 14.0145 15.8365C13.6256 16.2259 13.1584 16.4204 12.6136 16.4204H8.68844C7.0536 16.4204 5.65614 15.84 4.49572 14.6796C3.33513 13.5191 2.75549 12.1221 2.75549 10.4869V2.56775C2.75549 2.00708 2.94862 1.5361 3.33513 1.15405C3.72161 0.773183 4.19357 0.581787 4.75093 0.581787C5.29171 0.581787 5.75667 0.776685 6.14258 1.16605C6.52984 1.55467 6.72356 2.02136 6.72356 2.56619V4.54983H12.6062C13.1533 4.54983 13.622 4.74473 14.0133 5.13409C14.4039 5.52231 14.5984 5.98944 14.5984 6.53424C14.5984 7.0783 14.4039 7.5454 14.0145 7.93479C13.6255 8.32301 13.1572 8.5179 12.6124 8.5179H6.72359V10.485C6.72359 11.0317 6.91381 11.4957 7.29586 11.8789C7.67769 12.261 8.14135 12.452 8.68674 12.452H12.6125C13.1573 12.452 13.6256 12.6472 14.0145 13.0358C14.404 13.4248 14.5984 13.8919 14.5984 14.436Z" fill="#F2F3FE"/>
</g>
</g>
</g>
<defs>
<clipPath id="clip0_1_3224">
<rect width="15.8696" height="15.8696" fill="white" transform="translate(0.739136 0.565186)"/>
</clipPath>
<clipPath id="clip1_1_3224">
<rect width="15.8696" height="15.8696" fill="white" transform="translate(0.73999 0.56543)"/>
</clipPath>
<clipPath id="clip2_1_3224">
<rect width="15.8696" height="15.8696" fill="white" transform="translate(0.740845 0.565674)"/>
</clipPath>
</defs>
</svg>
