<svg width="188" height="29" viewBox="0 0 188 29" fill="none" xmlns="http://www.w3.org/2000/svg">
<path d="M0.324 23V3.4H8.808C10.5627 3.4 12.0747 3.68933 13.344 4.268C14.6133 4.828 15.5933 5.64 16.284 6.704C16.9747 7.768 17.32 9.03733 17.32 10.512C17.32 11.968 16.9747 13.228 16.284 14.292C15.5933 15.3373 14.6133 16.14 13.344 16.7C12.0747 17.26 10.5627 17.54 8.808 17.54H2.844L4.86 15.552V23H0.324ZM12.784 23L7.884 15.888H12.728L17.684 23H12.784ZM4.86 16.056L2.844 13.928H8.556C9.956 13.928 11.0013 13.6293 11.692 13.032C12.3827 12.416 12.728 11.576 12.728 10.512C12.728 9.42933 12.3827 8.58933 11.692 7.992C11.0013 7.39467 9.956 7.096 8.556 7.096H2.844L4.86 4.94V16.056ZM28.0818 23.224C26.3645 23.224 24.8525 22.888 23.5458 22.216C22.2578 21.544 21.2592 20.6293 20.5498 19.472C19.8405 18.296 19.4858 16.9613 19.4858 15.468C19.4858 13.956 19.8312 12.6213 20.5218 11.464C21.2312 10.288 22.1925 9.37333 23.4058 8.72C24.6192 8.048 25.9912 7.712 27.5218 7.712C28.9965 7.712 30.3218 8.02933 31.4978 8.664C32.6925 9.28 33.6352 10.176 34.3258 11.352C35.0165 12.5093 35.3618 13.9 35.3618 15.524C35.3618 15.692 35.3525 15.888 35.3338 16.112C35.3152 16.3173 35.2965 16.5133 35.2778 16.7H23.0418V14.152H32.9818L31.3018 14.908C31.3018 14.124 31.1432 13.4427 30.8258 12.864C30.5085 12.2853 30.0698 11.8373 29.5098 11.52C28.9498 11.184 28.2965 11.016 27.5498 11.016C26.8032 11.016 26.1405 11.184 25.5618 11.52C25.0018 11.8373 24.5632 12.2947 24.2458 12.892C23.9285 13.4707 23.7698 14.1613 23.7698 14.964V15.636C23.7698 16.4573 23.9472 17.1853 24.3018 17.82C24.6752 18.436 25.1885 18.912 25.8418 19.248C26.5138 19.5653 27.2978 19.724 28.1938 19.724C28.9965 19.724 29.6965 19.6027 30.2938 19.36C30.9098 19.1173 31.4698 18.7533 31.9738 18.268L34.2978 20.788C33.6072 21.572 32.7392 22.1787 31.6938 22.608C30.6485 23.0187 29.4445 23.224 28.0818 23.224ZM45.3539 28.656C43.9352 28.656 42.5632 28.4787 41.2379 28.124C39.9312 27.788 38.8392 27.2747 37.9619 26.584L39.6979 23.448C40.3326 23.9707 41.1352 24.3813 42.1059 24.68C43.0952 24.9973 44.0659 25.156 45.0179 25.156C46.5672 25.156 47.6872 24.8107 48.3779 24.12C49.0872 23.4293 49.4419 22.4027 49.4419 21.04V18.772L49.7219 14.992L49.6659 11.184V7.936H53.8099V20.48C53.8099 23.28 53.0819 25.3427 51.6259 26.668C50.1699 27.9933 48.0792 28.656 45.3539 28.656ZM44.6819 22.272C43.2819 22.272 42.0126 21.9733 40.8739 21.376C39.7539 20.76 38.8486 19.9107 38.1579 18.828C37.4859 17.7267 37.1499 16.448 37.1499 14.992C37.1499 13.5173 37.4859 12.2387 38.1579 11.156C38.8486 10.0547 39.7539 9.20533 40.8739 8.608C42.0126 8.01067 43.2819 7.712 44.6819 7.712C45.9512 7.712 47.0712 7.97333 48.0419 8.496C49.0126 9 49.7686 9.79333 50.3099 10.876C50.8512 11.94 51.1219 13.312 51.1219 14.992C51.1219 16.6533 50.8512 18.0253 50.3099 19.108C49.7686 20.172 49.0126 20.9653 48.0419 21.488C47.0712 22.0107 45.9512 22.272 44.6819 22.272ZM45.5499 18.688C46.3152 18.688 46.9966 18.5387 47.5939 18.24C48.1912 17.9227 48.6579 17.484 48.9939 16.924C49.3299 16.364 49.4979 15.72 49.4979 14.992C49.4979 14.2453 49.3299 13.6013 48.9939 13.06C48.6579 12.5 48.1912 12.0707 47.5939 11.772C46.9966 11.4547 46.3152 11.296 45.5499 11.296C44.7846 11.296 44.1032 11.4547 43.5059 11.772C42.9086 12.0707 42.4326 12.5 42.0779 13.06C41.7419 13.6013 41.5739 14.2453 41.5739 14.992C41.5739 15.72 41.7419 16.364 42.0779 16.924C42.4326 17.484 42.9086 17.9227 43.5059 18.24C44.1032 18.5387 44.7846 18.688 45.5499 18.688ZM57.8754 23V7.936H62.2434V23H57.8754ZM60.0594 5.836C59.2567 5.836 58.6034 5.60267 58.0994 5.136C57.5954 4.66933 57.3434 4.09067 57.3434 3.4C57.3434 2.70933 57.5954 2.13067 58.0994 1.664C58.6034 1.19733 59.2567 0.963998 60.0594 0.963998C60.862 0.963998 61.5154 1.188 62.0194 1.636C62.5234 2.06533 62.7754 2.62533 62.7754 3.316C62.7754 4.044 62.5234 4.65067 62.0194 5.136C61.534 5.60267 60.8807 5.836 60.0594 5.836ZM71.3653 23.224C70.0773 23.224 68.8359 23.0747 67.6413 22.776C66.4653 22.4587 65.5319 22.0667 64.8413 21.6L66.2973 18.464C66.9879 18.8933 67.7999 19.248 68.7333 19.528C69.6853 19.7893 70.6186 19.92 71.5333 19.92C72.5413 19.92 73.2506 19.7987 73.6613 19.556C74.0906 19.3133 74.3053 18.9773 74.3053 18.548C74.3053 18.1933 74.1373 17.932 73.8013 17.764C73.4839 17.5773 73.0546 17.4373 72.5132 17.344C71.9719 17.2507 71.3746 17.1573 70.7213 17.064C70.0866 16.9707 69.4426 16.8493 68.7893 16.7C68.1359 16.532 67.5386 16.2893 66.9973 15.972C66.4559 15.6547 66.0173 15.2253 65.6813 14.684C65.3639 14.1427 65.2052 13.4427 65.2052 12.584C65.2052 11.632 65.4759 10.792 66.0173 10.064C66.5773 9.336 67.3799 8.76667 68.4253 8.356C69.4706 7.92667 70.7213 7.712 72.1773 7.712C73.2039 7.712 74.2493 7.824 75.3133 8.048C76.3773 8.272 77.2639 8.59867 77.9733 9.028L76.5173 12.136C75.7893 11.7067 75.0519 11.4173 74.3053 11.268C73.5773 11.1 72.8679 11.016 72.1773 11.016C71.2066 11.016 70.4973 11.1467 70.0493 11.408C69.6013 11.6693 69.3773 12.0053 69.3773 12.416C69.3773 12.7893 69.5359 13.0693 69.8533 13.256C70.1893 13.4427 70.6279 13.592 71.1693 13.704C71.7106 13.816 72.2986 13.9187 72.9333 14.012C73.5866 14.0867 74.2399 14.208 74.8933 14.376C75.5466 14.544 76.1346 14.7867 76.6573 15.104C77.1986 15.4027 77.6373 15.8227 77.9733 16.364C78.3093 16.8867 78.4773 17.5773 78.4773 18.436C78.4773 19.3693 78.1973 20.2 77.6373 20.928C77.0773 21.6373 76.2653 22.1973 75.2013 22.608C74.1559 23.0187 72.8773 23.224 71.3653 23.224ZM87.3323 23.224C85.5589 23.224 84.1776 22.776 83.1883 21.88C82.1989 20.9653 81.7043 19.612 81.7043 17.82V4.604H86.0723V17.764C86.0723 18.3987 86.2403 18.8933 86.5763 19.248C86.9123 19.584 87.3696 19.752 87.9483 19.752C88.6389 19.752 89.2269 19.5653 89.7123 19.192L90.8883 22.272C90.4403 22.5893 89.8989 22.832 89.2643 23C88.6483 23.1493 88.0043 23.224 87.3323 23.224ZM79.3803 11.632V8.272H89.8243V11.632H79.3803ZM100.351 23.224C98.634 23.224 97.122 22.888 95.8154 22.216C94.5274 21.544 93.5287 20.6293 92.8194 19.472C92.11 18.296 91.7554 16.9613 91.7554 15.468C91.7554 13.956 92.1007 12.6213 92.7914 11.464C93.5007 10.288 94.462 9.37333 95.6754 8.72C96.8887 8.048 98.2607 7.712 99.7914 7.712C101.266 7.712 102.591 8.02933 103.767 8.664C104.962 9.28 105.905 10.176 106.595 11.352C107.286 12.5093 107.631 13.9 107.631 15.524C107.631 15.692 107.622 15.888 107.603 16.112C107.585 16.3173 107.566 16.5133 107.547 16.7H95.3114V14.152H105.251L103.571 14.908C103.571 14.124 103.413 13.4427 103.095 12.864C102.778 12.2853 102.339 11.8373 101.779 11.52C101.219 11.184 100.566 11.016 99.8194 11.016C99.0727 11.016 98.41 11.184 97.8314 11.52C97.2714 11.8373 96.8327 12.2947 96.5154 12.892C96.198 13.4707 96.0394 14.1613 96.0394 14.964V15.636C96.0394 16.4573 96.2167 17.1853 96.5714 17.82C96.9447 18.436 97.458 18.912 98.1114 19.248C98.7834 19.5653 99.5674 19.724 100.463 19.724C101.266 19.724 101.966 19.6027 102.563 19.36C103.179 19.1173 103.739 18.7533 104.243 18.268L106.567 20.788C105.877 21.572 105.009 22.1787 103.963 22.608C102.918 23.0187 101.714 23.224 100.351 23.224ZM110.539 23V7.936H114.711V12.192L114.123 10.96C114.571 9.896 115.29 9.09333 116.279 8.552C117.269 7.992 118.473 7.712 119.891 7.712V11.744C119.705 11.7253 119.537 11.716 119.387 11.716C119.238 11.6973 119.079 11.688 118.911 11.688C117.717 11.688 116.746 12.0333 115.999 12.724C115.271 13.396 114.907 14.4507 114.907 15.888V23H110.539Z" fill="url(#paint0_linear_1_1922)"/>
<path d="M126.775 18.52L126.523 13.284L135.903 3.4H140.943L132.487 12.5L129.967 15.188L126.775 18.52ZM122.715 23V3.4H127.223V23H122.715ZM136.127 23L129.155 14.46L132.123 11.24L141.419 23H136.127ZM152.045 23V20.06L151.765 19.416V14.152C151.765 13.2187 151.476 12.4907 150.897 11.968C150.337 11.4453 149.469 11.184 148.293 11.184C147.49 11.184 146.697 11.3147 145.913 11.576C145.148 11.8187 144.494 12.1547 143.953 12.584L142.385 9.532C143.206 8.95333 144.196 8.50533 145.353 8.188C146.51 7.87067 147.686 7.712 148.881 7.712C151.177 7.712 152.96 8.25333 154.229 9.336C155.498 10.4187 156.133 12.108 156.133 14.404V23H152.045ZM147.453 23.224C146.277 23.224 145.269 23.028 144.429 22.636C143.589 22.2253 142.945 21.6747 142.497 20.984C142.049 20.2933 141.825 19.5187 141.825 18.66C141.825 17.764 142.04 16.98 142.469 16.308C142.917 15.636 143.617 15.1133 144.569 14.74C145.521 14.348 146.762 14.152 148.293 14.152H152.297V16.7H148.769C147.742 16.7 147.033 16.868 146.641 17.204C146.268 17.54 146.081 17.96 146.081 18.464C146.081 19.024 146.296 19.472 146.725 19.808C147.173 20.1253 147.78 20.284 148.545 20.284C149.273 20.284 149.926 20.116 150.505 19.78C151.084 19.4253 151.504 18.912 151.765 18.24L152.437 20.256C152.12 21.2267 151.541 21.964 150.701 22.468C149.861 22.972 148.778 23.224 147.453 23.224ZM160.086 23V7.936H164.258V12.192L163.67 10.96C164.118 9.896 164.837 9.09333 165.826 8.552C166.816 7.992 168.02 7.712 169.438 7.712V11.744C169.252 11.7253 169.084 11.716 168.934 11.716C168.785 11.6973 168.626 11.688 168.458 11.688C167.264 11.688 166.293 12.0333 165.546 12.724C164.818 13.396 164.454 14.4507 164.454 15.888V23H160.086ZM179.067 23.224C177.461 23.224 176.033 22.888 174.783 22.216C173.551 21.544 172.571 20.6293 171.843 19.472C171.133 18.296 170.779 16.9613 170.779 15.468C170.779 13.956 171.133 12.6213 171.843 11.464C172.571 10.288 173.551 9.37333 174.783 8.72C176.033 8.048 177.461 7.712 179.067 7.712C180.653 7.712 182.072 8.048 183.323 8.72C184.573 9.37333 185.553 10.2787 186.263 11.436C186.972 12.5933 187.327 13.9373 187.327 15.468C187.327 16.9613 186.972 18.296 186.263 19.472C185.553 20.6293 184.573 21.544 183.323 22.216C182.072 22.888 180.653 23.224 179.067 23.224ZM179.067 19.64C179.795 19.64 180.448 19.472 181.027 19.136C181.605 18.8 182.063 18.324 182.399 17.708C182.735 17.0733 182.903 16.3267 182.903 15.468C182.903 14.5907 182.735 13.844 182.399 13.228C182.063 12.612 181.605 12.136 181.027 11.8C180.448 11.464 179.795 11.296 179.067 11.296C178.339 11.296 177.685 11.464 177.107 11.8C176.528 12.136 176.061 12.612 175.707 13.228C175.371 13.844 175.203 14.5907 175.203 15.468C175.203 16.3267 175.371 17.0733 175.707 17.708C176.061 18.324 176.528 18.8 177.107 19.136C177.685 19.472 178.339 19.64 179.067 19.64Z" fill="#FFA229"/>
<defs>
<linearGradient id="paint0_linear_1_1922" x1="-2" y1="13" x2="201" y2="13" gradientUnits="userSpaceOnUse">
<stop stop-color="#004CD2"/>
<stop offset="1" stop-color="#00276C"/>
</linearGradient>
</defs>
</svg>
