<svg width="168" height="127" viewBox="0 0 168 127" fill="none" xmlns="http://www.w3.org/2000/svg">
<g clip-path="url(#clip0_1_2740)">
<path d="M168 0H0V127H168V0Z" fill="#FFFDF5"/>
<path opacity="0.12" d="M80.0129 114.9C95.0007 114.9 107.151 113.203 107.151 111.109C107.151 109.014 95.0007 107.317 80.0129 107.317C65.0251 107.317 52.8751 109.014 52.8751 111.109C52.8751 113.203 65.0251 114.9 80.0129 114.9Z" fill="black"/>
<path opacity="0.17" d="M111.005 24.107L110.97 24.0593H64.9537L65.058 24.1876H64.6365C63.3513 24.1876 62.1187 24.7675 61.2099 25.7998C60.3011 26.8321 59.7906 28.2321 59.7906 29.692V85.3302H55.7354L55.7007 85.3779C54.7328 86.6973 54.2027 88.3604 54.2027 90.0779C54.2027 91.7953 54.7328 93.4584 55.7007 94.7779L55.7354 94.8256H101.805C103.204 94.8256 104.546 94.1943 105.535 93.0707C106.524 91.9471 107.08 90.4232 107.08 88.8342V33.5596H110.97L111.005 33.5135C111.973 32.1933 112.504 30.529 112.504 28.8103C112.504 27.0915 111.973 25.4272 111.005 24.107Z" fill="black"/>
<path d="M63.446 32.1942H109.462L109.497 32.1465C110.465 30.827 110.995 29.1639 110.995 27.4465C110.995 25.729 110.465 24.0659 109.497 22.7465L109.462 22.6988H63.446L63.6749 22.9768C64.7006 24.2326 65.2549 25.8933 65.2197 27.6059C65.1845 29.3185 64.5628 30.948 63.4866 32.1481L63.446 32.1942Z" fill="#AFCAD8"/>
<path d="M100.299 93.4635H58.2844V28.3299C58.2842 27.6072 58.4094 26.8915 58.6528 26.2238C58.8962 25.5561 59.253 24.9494 59.7029 24.4384C60.1528 23.9273 60.6869 23.522 61.2748 23.2455C61.8626 22.9691 62.4927 22.8269 63.1289 22.8271H104.232C104.232 22.8271 108.499 22.5392 108.412 22.8271C105.42 22.8929 105.574 32.3225 105.574 32.3225V87.4721C105.573 89.061 105.017 90.5846 104.028 91.7081C103.039 92.8316 101.698 93.463 100.299 93.4635Z" fill="#9CB3C1"/>
<path d="M100.238 93.4635H54.222L54.1872 93.4158C53.2193 92.0963 52.6893 90.4332 52.6893 88.7158C52.6893 86.9983 53.2193 85.3352 54.1872 84.0158L54.222 83.9681H100.238L100.009 84.2461C97.8745 86.8568 97.5124 91.3101 100.238 93.4585V93.4635Z" fill="#AFCAD8"/>
<path d="M97.0924 33.3589H68.5063V36.0914H97.0924V33.3589Z" fill="#F7D77F"/>
<path d="M101.069 79.7896H88.2883V80.6795H101.069V79.7896Z" fill="#004686"/>
<path d="M101.071 41.2256H64.5279V42.3361H101.071V41.2256Z" fill="#E6E6E6"/>
<path d="M101.071 46.6741H64.5279V47.7846H101.071V46.6741Z" fill="#E6E6E6"/>
<path d="M101.071 52.1227H64.5279V53.2331H101.071V52.1227Z" fill="#E6E6E6"/>
<path d="M101.071 57.5728H64.5279V58.6832H101.071V57.5728Z" fill="#E6E6E6"/>
<path d="M101.071 63.0213H64.5279V64.1317H101.071V63.0213Z" fill="#E6E6E6"/>
<path d="M101.071 73.9199H64.5279V75.0303H101.071V73.9199Z" fill="#E6E6E6"/>
<path d="M101.071 68.4698H64.5279V69.5802H101.071V68.4698Z" fill="#E6E6E6"/>
<path opacity="0.28" d="M127.922 37.4831L127.502 37.1886L127.389 37.1113L127.186 36.9682L127.842 35.7574C127.861 35.7206 127.867 35.6768 127.858 35.6354C127.849 35.594 127.826 35.5581 127.794 35.5353L124.185 33.0151C124.153 32.9936 124.114 32.9872 124.078 32.9973C124.041 33.0074 124.01 33.0333 123.99 33.0693L123.334 34.2801L123.093 34.1156C123.067 34.0978 123.036 34.0924 123.007 34.1004C122.977 34.1084 122.952 34.1292 122.935 34.1584L122.654 34.6782C122.647 34.6928 122.641 34.709 122.639 34.7259C122.636 34.7428 122.637 34.7601 122.64 34.7768C122.644 34.7935 122.65 34.8092 122.659 34.823C122.668 34.8369 122.679 34.8486 122.692 34.8575L122.934 35.0221L117.278 45.4765C117.259 45.5132 117.254 45.5568 117.262 45.5982C117.271 45.6396 117.293 45.6756 117.325 45.6986L117.654 45.9273L105.316 68.7297L105.061 68.5504C105.039 68.535 105.014 68.5248 104.989 68.5202C104.963 68.5156 104.937 68.5168 104.912 68.5237C104.887 68.5306 104.863 68.543 104.842 68.5603C104.821 68.5776 104.803 68.5994 104.79 68.6244C104.763 68.6746 104.755 68.7348 104.767 68.7919C104.78 68.8489 104.811 68.8981 104.855 68.9288L105.145 69.1262L105.08 69.2907L104.77 69.0933C104.748 69.0779 104.723 69.0677 104.698 69.0631C104.672 69.0585 104.646 69.0597 104.621 69.0666C104.596 69.0734 104.572 69.0859 104.551 69.1031C104.53 69.1204 104.512 69.1422 104.499 69.1673C104.472 69.2176 104.464 69.2779 104.475 69.3351C104.487 69.3924 104.519 69.442 104.563 69.4733L104.91 69.7151L103.763 72.6269L102.497 75.8381L101.801 76.3316L101.168 79.3849L101.524 79.6218L103.697 77.6L103.812 76.7412L105.869 74.0943L107.736 71.6941L108.044 71.9096C108.066 71.925 108.091 71.9352 108.116 71.9398C108.142 71.9444 108.168 71.9432 108.193 71.9363C108.218 71.9295 108.242 71.917 108.263 71.8997C108.284 71.8825 108.302 71.8607 108.315 71.8356C108.329 71.8108 108.338 71.7831 108.342 71.7543C108.346 71.7255 108.345 71.696 108.339 71.6676C108.333 71.6392 108.322 71.6124 108.307 71.5887C108.292 71.565 108.273 71.5449 108.251 71.5296L108.001 71.3552L108.108 71.2171L108.334 71.3816C108.378 71.4127 108.432 71.4226 108.483 71.409C108.533 71.3954 108.577 71.3595 108.605 71.3092C108.632 71.2589 108.64 71.1986 108.628 71.1413C108.616 71.0841 108.585 71.0344 108.541 71.0032L108.353 70.8716L120.121 49.1204L120.691 48.0692L120.93 48.2337C120.962 48.2553 121 48.2619 121.037 48.2521C121.073 48.2423 121.105 48.2168 121.125 48.181L126.773 37.7282L126.879 37.8022C126.892 37.811 126.903 37.8226 126.912 37.8363C126.921 37.85 126.927 37.8656 126.931 37.8821C126.934 37.8987 126.935 37.9158 126.932 37.9326C126.93 37.9494 126.925 37.9655 126.917 37.9799L123.2 44.8497C123.193 44.8642 123.187 44.8803 123.185 44.8971C123.182 44.9138 123.183 44.931 123.187 44.9475C123.19 44.9641 123.196 44.9796 123.205 44.9934C123.214 45.0071 123.225 45.0186 123.238 45.0274L123.673 45.3318C123.685 45.3408 123.699 45.3469 123.714 45.3498C123.729 45.3526 123.744 45.3521 123.758 45.3482C123.773 45.3444 123.787 45.3374 123.799 45.3275C123.811 45.3176 123.821 45.3051 123.829 45.2906L127.946 37.6789C127.958 37.665 127.966 37.6484 127.971 37.6303C127.977 37.6122 127.978 37.5931 127.976 37.5743C127.973 37.5555 127.967 37.5375 127.958 37.5217C127.949 37.5059 127.936 37.4927 127.922 37.4831Z" fill="black"/>
<path d="M104.864 73.4824L102.745 72.0396L104.19 68.2609L117.949 42.1897L121.011 44.274L107.262 70.3271L104.864 73.4824Z" fill="#153E49"/>
<path d="M122.587 32.2309L115.996 44.721C115.955 44.7973 115.977 44.8964 116.045 44.9421L119.679 47.417C119.746 47.4627 119.834 47.4379 119.874 47.3616L126.465 34.8715C126.506 34.7951 126.484 34.6961 126.416 34.6503L122.782 32.1755C122.715 32.1297 122.627 32.1545 122.587 32.2309Z" fill="#113542"/>
<path d="M126.145 36.3085L126.032 36.2312L121.706 33.2865C121.693 33.2776 121.679 33.2717 121.664 33.2691C121.649 33.2665 121.634 33.2673 121.619 33.2715C121.605 33.2756 121.591 33.283 121.579 33.2932C121.567 33.3034 121.557 33.3163 121.549 33.331L121.274 33.8541C121.266 33.8686 121.261 33.8848 121.259 33.9017C121.257 33.9185 121.257 33.9357 121.261 33.9522C121.265 33.9688 121.271 33.9843 121.28 33.998C121.289 34.0116 121.3 34.0231 121.313 34.0318L125.539 36.9106C125.566 36.9281 125.584 36.9567 125.592 36.99C125.6 37.0233 125.595 37.0586 125.58 37.0883L121.93 43.9976C121.922 44.0122 121.917 44.0283 121.915 44.0452C121.913 44.0621 121.913 44.0793 121.917 44.0958C121.921 44.1123 121.927 44.1279 121.936 44.1415C121.945 44.1552 121.956 44.1667 121.969 44.1753L122.404 44.4747C122.43 44.4923 122.461 44.4974 122.49 44.4891C122.519 44.4808 122.545 44.4596 122.56 44.4303L126.604 36.7675C126.619 36.738 126.624 36.7028 126.617 36.6695C126.609 36.6363 126.591 36.6076 126.565 36.5899L126.145 36.3085Z" fill="#1A1A1A"/>
<path d="M102.828 76.1572L101.511 75.2623L104.19 68.2609L107.252 70.3452L102.828 76.1572Z" fill="#5D7A7F"/>
<path d="M102.828 76.1573L101.511 75.2623L100.82 75.7674L100.218 78.8289L100.568 79.0674L102.72 77.0176L102.828 76.1573Z" fill="#DAE7E8"/>
<path d="M103.735 68.0265L103.733 68.0293C103.677 68.1353 103.708 68.2727 103.801 68.3362L107.308 70.7239C107.401 70.7874 107.522 70.753 107.578 70.647L107.579 70.6442C107.635 70.5382 107.605 70.4008 107.512 70.3373L104.005 67.9496C103.912 67.8861 103.791 67.9205 103.735 68.0265Z" fill="#688689"/>
<path d="M103.449 68.5663L103.448 68.5691C103.392 68.6751 103.422 68.8125 103.515 68.876L107.022 71.2637C107.115 71.3272 107.236 71.2928 107.292 71.1868L107.294 71.184C107.35 71.078 107.319 70.9406 107.226 70.8771L103.719 68.4894C103.626 68.4259 103.505 68.4603 103.449 68.5663Z" fill="#688689"/>
<path d="M101.65 77.2561C101.621 77.3124 101.578 77.3576 101.526 77.3859C101.474 77.4142 101.416 77.4243 101.359 77.415C101.302 77.4056 101.249 77.3773 101.206 77.3335C101.164 77.2897 101.133 77.2325 101.119 77.1691C101.106 77.1058 101.109 77.0391 101.128 76.9777C101.148 76.9162 101.183 76.8628 101.229 76.8241C101.275 76.7855 101.331 76.7634 101.388 76.7606C101.446 76.7579 101.503 76.7746 101.552 76.8087C101.616 76.8537 101.663 76.9258 101.682 77.0095C101.7 77.0932 101.689 77.1818 101.65 77.2561Z" fill="#153E49"/>
<path d="M101.271 77.1782L100.353 78.918L100.472 78.9992L101.39 77.2594L101.271 77.1782Z" fill="#153E49"/>
<path opacity="0.28" d="M116.378 45.1689L119.438 47.2532L117.746 50.4611L116.378 45.1689Z" fill="black"/>
<path d="M72.5398 33.3589H68.5063V36.0914H72.5398V33.3589Z" fill="#8CAD81"/>
</g>
<defs>
<clipPath id="clip0_1_2740">
<rect width="168" height="127" fill="white"/>
</clipPath>
</defs>
</svg>
