<svg width="180" height="146" viewBox="0 0 180 146" fill="none" xmlns="http://www.w3.org/2000/svg">
<g clip-path="url(#clip0_1_2837)">
<path d="M180 0H0V146H180V0Z" fill="white"/>
<path d="M88.0061 56.2196L107.644 72.9519L110.489 66.4795L94.1613 51.5052C94.1613 51.5052 92.7474 51.7078 88.0061 56.2196Z" fill="#CEAE89"/>
<path d="M107.644 72.9519L141.985 67.2795L140.74 64.7592L110.472 66.4794L107.644 72.9519Z" fill="#CEAE89"/>
<path d="M136.363 110.791L120.857 103.948L120.873 96.2563L136.384 103.1L136.363 110.791Z" fill="#846D1B"/>
<mask id="mask0_1_2837" style="mask-type:luminance" maskUnits="userSpaceOnUse" x="116" y="95" width="16" height="8">
<path d="M131.694 102.633L116.187 95.7996L116.136 95.7687L131.656 102.602L131.694 102.633Z" fill="white"/>
</mask>
<g mask="url(#mask0_1_2837)">
<path d="M131.694 102.633L116.187 95.7996L116.136 95.7687L131.656 102.602L131.702 102.633" fill="#987E23"/>
</g>
<path d="M153.114 80.2004C152.412 78.9669 151.236 77.9513 149.762 77.3058L134.251 70.4625C135.726 71.107 136.902 72.1229 137.603 73.3571C138.532 74.8158 138.739 76.5068 138.183 78.0853C138.09 78.3909 137.976 78.6862 137.849 78.978L137.735 79.2287C137.688 79.3283 137.637 79.4279 137.587 79.524C137.536 79.6201 137.472 79.7335 137.413 79.8365C137.354 79.9395 137.299 80.0288 137.239 80.1249L137.083 80.3618C136.887 80.6497 136.674 80.9294 136.444 81.1996L136.346 81.3026C136.122 81.5598 135.882 81.8074 135.627 82.0443L135.5 82.1679C135.284 82.3637 135.076 82.5559 134.822 82.7448C134.629 82.9044 134.424 83.0546 134.208 83.1946L133.908 83.3869C133.662 83.5356 133.406 83.6732 133.142 83.7989C132.879 83.9431 132.6 84.0805 132.316 84.2144L132.037 84.338C131.833 84.4273 131.613 84.5166 131.406 84.6024L131.105 84.7192C130.724 84.8599 130.339 84.9938 129.929 85.1175C128.697 85.4881 127.42 85.7483 126.119 85.8935C125.67 85.9209 125.23 85.9278 124.794 85.9244C124.65 85.9244 124.51 85.9244 124.37 85.9244C124.087 85.9244 123.803 85.9038 123.524 85.8832C123.358 85.8832 123.202 85.8523 123.037 85.8351C122.791 85.8111 122.541 85.7802 122.3 85.7458C122.139 85.7218 121.978 85.6909 121.817 85.6634C121.504 85.605 121.191 85.5467 120.886 85.4711C120.545 85.3706 120.21 85.256 119.883 85.1278C119.714 85.066 119.548 85.0007 119.388 84.932L134.898 91.7754L135.262 91.9264L135.389 91.9711C135.718 92.0993 136.054 92.2139 136.397 92.3145C136.575 92.3579 136.757 92.3991 136.943 92.4381C137.07 92.4655 137.201 92.4827 137.333 92.5067C137.464 92.5308 137.646 92.5651 137.807 92.5891C138.052 92.6235 138.302 92.6544 138.556 92.6784C138.713 92.6956 138.869 92.7162 139.03 92.7265C139.31 92.7471 139.597 92.7574 139.877 92.7677C140.012 92.7677 140.148 92.7677 140.3 92.7677C140.723 92.7677 141.176 92.7677 141.629 92.7402C142.931 92.5946 144.208 92.3332 145.439 91.9608C145.863 91.8372 146.244 91.7033 146.62 91.559L146.764 91.511L146.917 91.4457C147.137 91.3599 147.34 91.2706 147.552 91.1813C147.645 91.1401 147.738 91.1024 147.827 91.0577C148.115 90.9238 148.39 90.7865 148.652 90.6423C148.915 90.498 149.076 90.4431 149.254 90.3367C149.313 90.3023 149.364 90.2645 149.423 90.2268L149.719 90.0379C149.795 89.9864 149.884 89.9383 149.956 89.8868C150.028 89.8353 150.214 89.6911 150.333 89.5881C150.574 89.3993 150.794 89.207 151.01 89.0113L151.065 88.9666L151.142 88.8876C151.4 88.6473 151.637 88.4001 151.857 88.1494C151.885 88.1258 151.91 88.1005 151.933 88.0739C151.94 88.0628 151.949 88.0524 151.959 88.043C152.188 87.7727 152.4 87.493 152.594 87.2051C152.615 87.1777 152.64 87.1502 152.661 87.1193C152.682 87.0884 152.721 87.0163 152.754 86.9648C152.788 86.9133 152.873 86.7759 152.928 86.6798C152.983 86.5836 153.047 86.4703 153.097 86.3673C153.148 86.2643 153.203 86.1716 153.25 86.072C153.271 86.024 153.296 85.9793 153.317 85.9312C153.339 85.8832 153.343 85.8591 153.36 85.8214C153.487 85.5295 153.605 85.2342 153.698 84.9286C154.251 83.3495 154.042 81.6592 153.114 80.2004Z" fill="#8E761F"/>
<mask id="mask1_1_2837" style="mask-type:luminance" maskUnits="userSpaceOnUse" x="133" y="46" width="19" height="10">
<path d="M151.688 55.9999L136.177 49.1566C135.801 47.9586 134.934 46.9001 133.717 46.1555L149.224 52.9988C150.443 53.7421 151.312 54.801 151.688 55.9999Z" fill="white"/>
</mask>
<g mask="url(#mask1_1_2837)">
<path d="M151.688 55.9999L136.177 49.1566C135.801 47.9586 134.934 46.9001 133.717 46.1555L149.224 52.9988C150.443 53.7421 151.312 54.801 151.688 55.9999Z" fill="#987E23"/>
</g>
<path d="M149.224 52.9988L133.717 46.1555L133.421 45.9289L148.932 52.7722L149.224 52.9988Z" fill="#947B21"/>
<mask id="mask2_1_2837" style="mask-type:luminance" maskUnits="userSpaceOnUse" x="132" y="45" width="17" height="8">
<path d="M148.932 52.7756L133.421 45.9289C133.104 45.7877 132.807 45.6184 132.536 45.4241L148.047 52.2675C148.32 52.4609 148.616 52.6312 148.932 52.7756Z" fill="white"/>
</mask>
<g mask="url(#mask2_1_2837)">
<path d="M148.932 52.7756L133.421 45.9289C133.104 45.7877 132.807 45.6184 132.536 45.4241L148.047 52.2675C148.32 52.4609 148.616 52.6312 148.932 52.7756Z" fill="#987E23"/>
</g>
<path d="M150.443 66.27C150.722 66.3009 151.002 66.3318 151.29 66.3695C151.451 66.3901 151.611 66.4176 151.768 66.4417L152.5 66.5584L153 66.6545L153.665 66.7919L154.24 66.9224L154.85 67.0734L155.405 67.228L156.001 67.4031L156.543 67.5816C156.738 67.6434 156.933 67.7121 157.123 67.7808C157.314 67.8495 157.475 67.9113 157.652 67.9765C157.923 68.0829 158.198 68.186 158.465 68.2993L142.916 61.4559L142.408 61.2465L142.099 61.1332C141.926 61.0645 141.748 60.9993 141.574 60.9375L140.994 60.7349L140.452 60.5598L139.856 60.3846L139.301 60.2301L138.683 60.079L138.12 59.9486L137.9 59.8971L137.438 59.8078L136.956 59.7185L136.206 59.5949L135.745 59.5262C135.466 59.4885 135.178 59.4541 134.898 59.4232L134.509 59.3786C134.086 59.3374 133.662 59.303 133.239 59.2756C132.253 59.2103 131.321 59.1897 130.47 59.2C129.619 59.2103 128.625 59.2515 127.507 59.3236L143.056 66.167C144.185 66.0937 145.173 66.0525 146.019 66.0433C146.866 66.0433 147.797 66.0433 148.788 66.1189C149.211 66.1464 149.635 66.1807 150.058 66.2219L150.443 66.27Z" fill="#B1922C"/>
<path d="M124.908 59.3443C124.446 59.2825 124.002 59.2275 123.574 59.1897C123.302 59.1599 123.032 59.1163 122.766 59.0593C122.601 59.0284 122.431 58.994 122.262 58.9494L122.194 58.9185L122.084 58.8739C121.932 58.8128 121.775 58.76 121.614 58.7159C121.406 58.6624 121.204 58.5923 121.013 58.5064H120.971C120.734 58.4206 120.509 58.3279 120.289 58.2318L135.8 65.0751C135.914 65.1266 136.033 65.1781 136.156 65.2262L136.473 65.3463L136.524 65.3669L136.651 65.4219C136.804 65.4822 136.963 65.5338 137.125 65.5764C137.32 65.6323 137.509 65.6989 137.692 65.7755L137.764 65.8099L138.188 65.906H138.285C138.555 65.9609 138.83 66.0022 139.106 66.0296C139.53 66.0674 139.978 66.1223 140.444 66.1842C141.296 66.263 142.157 66.2514 143.005 66.1498L127.494 59.3065C126.638 59.4111 125.768 59.4238 124.908 59.3443Z" fill="#B1922C"/>
<mask id="mask3_1_2837" style="mask-type:luminance" maskUnits="userSpaceOnUse" x="133" y="34" width="23" height="10">
<path d="M140.148 36.3489L155.659 43.1922C153.509 42.2493 151.177 41.6117 148.762 41.3071L133.252 34.4638C135.666 34.7674 137.999 35.405 140.148 36.3489Z" fill="white"/>
</mask>
<g mask="url(#mask3_1_2837)">
<path d="M148.762 41.3071L133.252 34.4638C133.971 34.5577 134.677 34.6721 135.368 34.8072L150.875 41.6505C150.177 41.5071 149.47 41.3925 148.758 41.3071" fill="#B5962D"/>
<path d="M150.866 41.6642L135.36 34.8209C136.751 35.1129 138.103 35.5179 139.394 36.0296L154.901 42.8729C153.61 42.3601 152.258 41.9551 150.866 41.6642Z" fill="#B1922C"/>
<path d="M154.901 42.8729L139.394 36.0295C139.648 36.1326 139.898 36.239 140.148 36.3489L155.659 43.1922C155.409 43.0823 155.155 42.9759 154.901 42.8729Z" fill="#AC8F2A"/>
</g>
<path d="M123.765 100.133C120.898 98.6005 118.64 96.4276 117.262 93.8768L117.161 93.6296C117.125 93.595 117.098 93.5551 117.081 93.5121C117.065 93.4691 117.059 93.4238 117.063 93.3789C116.896 93.1799 116.765 92.9626 116.674 92.7334C116.62 92.5941 116.554 92.4576 116.479 92.3248C116.407 92.105 116.344 91.9059 116.28 91.741C116.217 91.5762 116.149 91.3977 116.081 91.1573C116.013 91.025 115.981 90.8819 115.988 90.7384C115.994 90.5936 115.96 90.4495 115.891 90.3161C115.835 90.1221 115.803 89.9244 115.794 89.7255C115.727 89.6193 115.693 89.5013 115.696 89.3821V88.9529L115.599 88.7022V87.9228L100.092 81.0795V81.8589L100.19 82.1096V82.5388C100.189 82.6578 100.223 82.7752 100.287 82.8821C100.296 83.0811 100.329 83.2788 100.384 83.4727C100.454 83.6062 100.487 83.7503 100.482 83.8951C100.473 84.039 100.507 84.1825 100.579 84.314C100.643 84.5406 100.71 84.7329 100.774 84.8977C100.837 85.0625 100.905 85.2617 100.973 85.4814C101.047 85.6133 101.112 85.7486 101.167 85.8866C101.259 86.1172 101.392 86.3358 101.561 86.5356C101.555 86.5806 101.56 86.6262 101.577 86.6694C101.593 86.7126 101.621 86.7525 101.659 86.7862L101.756 87.0335C103.133 89.5843 105.392 91.7572 108.258 93.2896C108.682 93.5266 109.151 93.7532 109.63 93.9764L125.141 100.82C124.668 100.61 124.208 100.381 123.765 100.133Z" fill="#846D1B"/>
<path d="M115.599 87.9296L100.092 81.0863L114.993 79.3901L130.5 86.2334L115.599 87.9296Z" fill="#BF9E30"/>
<path d="M136.537 34.6664L121.03 27.8231L133.273 26.429L148.779 33.2689L136.537 34.6664Z" fill="#BF9E30"/>
<path d="M136.52 42.3544L121.013 35.5111L121.03 27.8231L136.537 34.6664L136.52 42.3544Z" fill="#846D1B"/>
<path d="M148.779 33.2689V41.3072C153.161 41.8555 157.222 43.5001 160.396 46.0113C161.782 47.0878 162.973 48.3177 163.935 49.6647L151.688 55.9861C151.312 54.7872 150.443 53.7284 149.224 52.9851L148.932 52.7619C148.616 52.6174 148.32 52.4471 148.047 52.2537C146.149 51.5027 144.013 51.2414 141.926 51.5052C139.936 51.7365 138.06 52.3984 136.494 53.4212C135.342 54.1005 134.354 54.9455 133.578 55.914C132.744 56.955 132.22 58.1386 132.045 59.3717V59.9761C132.099 62.4941 133.573 64.2842 136.469 65.3463C136.673 65.4405 136.888 65.5165 137.112 65.573C137.334 65.6341 137.548 65.7122 137.752 65.8065C138.184 65.919 138.63 65.9972 139.081 66.0399C139.504 66.0777 139.953 66.1327 140.419 66.1945C141.271 66.2733 142.132 66.2617 142.98 66.1601C144.109 66.0869 145.096 66.0457 145.943 66.0365C146.79 66.0365 147.721 66.0365 148.707 66.1121C152.078 66.2949 155.366 67.037 158.368 68.2924C162.465 70.0155 165.62 72.9178 167.215 76.4303C168.329 79.1237 168.527 82.011 167.787 84.7878C167.027 87.7711 165.472 90.5837 163.232 93.0287C161.446 95.0246 159.276 96.7752 156.806 98.2135C154.292 99.6868 151.531 100.859 148.606 101.695V109.387L136.363 110.784L136.384 103.093C134.889 103.082 133.401 102.932 131.948 102.646C131.896 102.658 131.842 102.659 131.79 102.65C131.738 102.641 131.689 102.622 131.647 102.595C130.163 102.401 128.709 102.08 127.308 101.637C126.064 101.243 124.877 100.743 123.765 100.143C120.896 98.608 118.638 96.4314 117.262 93.8768L117.161 93.6296C117.125 93.595 117.098 93.5551 117.081 93.5121C117.065 93.4691 117.059 93.4238 117.064 93.3789C116.896 93.1799 116.765 92.9625 116.674 92.7334C116.62 92.594 116.555 92.4576 116.479 92.3248C116.407 92.105 116.344 91.9058 116.28 91.741C116.217 91.5762 116.149 91.3977 116.081 91.1573C116.013 91.025 115.981 90.8819 115.988 90.7384C115.994 90.5936 115.96 90.4495 115.891 90.3161C115.835 90.1221 115.803 89.9244 115.794 89.7255C115.727 89.6192 115.693 89.5013 115.696 89.3821V88.9529L115.599 88.7022V87.9228L130.504 86.2265C130.579 87.6063 131.198 88.9302 132.27 90.0036C133.363 91.0623 134.793 91.8569 136.405 92.3007C138.101 92.7067 139.875 92.8557 141.638 92.7402C142.939 92.5946 144.217 92.3332 145.448 91.9608C146.58 91.6275 147.659 91.1848 148.661 90.6423C149.287 90.3611 149.857 90.0058 150.354 89.5881C152.002 88.3276 153.17 86.7107 153.72 84.9286C154.273 83.35 154.066 81.6597 153.14 80.2004C152.705 79.4411 152.09 78.759 151.329 78.1933C150.569 77.6275 149.678 77.1894 148.707 76.9041C146.901 76.2847 144.915 76.0919 142.98 76.3479C142.72 76.3204 142.457 76.3204 142.197 76.3479L141.308 76.4474L140.664 76.523C140.451 76.5526 140.234 76.5526 140.021 76.523C139.492 76.523 138.954 76.5436 138.391 76.5745C137.851 76.6091 137.307 76.5988 136.77 76.5436C136.727 76.5183 136.678 76.5007 136.626 76.4918C136.574 76.483 136.521 76.483 136.469 76.4921C136.344 76.4516 136.209 76.4374 136.075 76.4509C135.94 76.4659 135.803 76.4517 135.677 76.4097C135.5 76.3782 135.321 76.3564 135.14 76.3444C134.956 76.3314 134.773 76.3073 134.594 76.2723C134.359 76.2938 134.121 76.2616 133.908 76.1796C131.79 75.8692 129.765 75.2353 127.939 74.3117C126.174 73.4285 124.609 72.3066 123.312 70.9947C122.009 69.6772 121.005 68.182 120.349 66.579C119.652 64.8916 119.306 63.1221 119.324 61.3427C119.333 58.6806 120.044 56.0509 121.411 53.6306C122.81 51.124 124.792 48.8599 127.249 46.9624C128.687 45.9411 130.222 45.0145 131.842 44.1915C133.321 43.4489 134.894 42.8354 136.532 42.3613V34.6733L148.779 33.2689Z" fill="#E3BA3A"/>
<g style="mix-blend-mode:soft-light">
<path d="M144.296 36.4245C145.774 36.191 147.26 36.009 148.775 35.8476V33.2689L136.537 34.6802V38.8006C138.943 37.6654 141.565 36.8625 144.296 36.4245Z" fill="#FFF200"/>
<path d="M123.286 70.9879C124.584 72.2997 126.149 73.4216 127.913 74.3048C129.739 75.2285 131.765 75.8623 133.882 76.1727C134.096 76.2548 134.333 76.2869 134.568 76.2654C134.748 76.3004 134.93 76.3245 135.114 76.3375C135.295 76.3495 135.475 76.3713 135.652 76.4028C135.778 76.4448 135.915 76.459 136.05 76.444C136.183 76.4305 136.319 76.4447 136.444 76.4852C136.495 76.4762 136.549 76.4761 136.601 76.485C136.652 76.4938 136.701 76.5115 136.744 76.5367C137.282 76.5919 137.825 76.6023 138.365 76.5676C138.929 76.5367 139.466 76.5195 139.995 76.5161C140.208 76.5457 140.426 76.5457 140.639 76.5161L141.282 76.4405L142.171 76.341C142.431 76.3135 142.694 76.3135 142.954 76.341C144.892 76.0905 146.878 76.2892 148.682 76.9144C149.652 77.1997 150.543 77.6378 151.304 78.2036C152.065 78.7693 152.68 79.4514 153.114 80.2107C154.04 81.67 154.248 83.3603 153.694 84.9389C153.144 86.721 151.976 88.3379 150.329 89.5984C149.832 90.0161 149.261 90.3714 148.635 90.6525C147.634 91.1951 146.555 91.6378 145.422 91.9711C144.192 92.3435 142.914 92.6049 141.612 92.7505C139.85 92.866 138.076 92.717 136.38 92.311C134.768 91.8672 133.337 91.0726 132.244 90.0139C131.173 88.9405 130.554 87.6166 130.479 86.2368L117.779 87.6824C118.779 89.7402 120.066 91.6987 121.614 93.5197C126.571 99.1612 135.521 103.031 143.661 104.724C145.277 105.066 146.925 105.296 148.589 105.41V101.716C151.514 100.88 154.275 99.7074 156.789 98.2341C159.271 96.7991 161.452 95.0496 163.249 93.0527C164.645 91.505 165.784 89.8148 166.635 88.0258L166.597 87.9434C164.019 82.7929 158.482 78.9025 152.327 76.6843C146.299 74.5108 139.475 74.4181 133.527 72.2C122.22 67.98 121.614 55.7183 126.588 47.4775C124.419 49.2634 122.656 51.3466 121.381 53.6306C120.015 56.0509 119.303 58.6806 119.294 61.3427C119.276 63.1221 119.622 64.8916 120.319 66.579C120.978 68.1798 121.983 69.6727 123.286 70.9879Z" fill="#FFF200"/>
</g>
<path d="M119.379 60.134C119.379 59.9245 119.413 59.7185 119.443 59.5091C119.443 59.3992 119.468 59.2893 119.485 59.1657C119.515 58.9665 119.548 58.7708 119.582 58.5717L119.646 58.2523C119.692 58.0326 119.743 57.8128 119.802 57.5965C119.802 57.5175 119.841 57.4386 119.862 57.3596C119.941 57.0643 120.03 56.769 120.128 56.4737C120.15 56.4119 120.175 56.3501 120.196 56.2883C120.281 56.0548 120.365 55.8247 120.459 55.6015L120.586 55.2994C120.658 55.1346 120.73 54.9732 120.806 54.8084C120.992 54.41 121.187 54.0117 121.407 53.6169C121.627 53.222 121.877 52.8203 122.131 52.4322C122.203 52.3224 122.275 52.2091 122.351 52.0889C122.503 51.8657 122.664 51.6425 122.825 51.4262C122.91 51.3129 122.99 51.1961 123.079 51.0828C123.265 50.839 123.464 50.5987 123.663 50.3583C123.731 50.2828 123.794 50.2004 123.858 50.1248C124.125 49.8192 124.4 49.5205 124.705 49.2252C124.755 49.1703 124.81 49.1187 124.865 49.0638C125.103 48.8235 125.344 48.5865 125.598 48.353C125.767 48.1951 125.945 48.0371 126.123 47.8826C126.216 47.8036 126.301 47.7212 126.398 47.6423C126.677 47.4019 126.965 47.1684 127.245 46.9349C127.604 46.6808 127.96 46.4439 128.307 46.2139L128.587 46.0319C128.886 45.8396 129.182 45.6542 129.476 45.4756L129.632 45.3795C129.954 45.1872 130.271 45.0086 130.589 44.8301C131.012 44.5966 131.436 44.3734 131.859 44.1639C132.282 43.9545 132.638 43.7862 133.032 43.6111C133.163 43.5562 133.294 43.5047 133.425 43.4463C133.696 43.333 133.963 43.2197 134.234 43.1029C134.505 42.9862 134.738 42.9141 134.996 42.8248L135.373 42.6875C135.762 42.557 136.156 42.4334 136.549 42.3201L121.043 35.4767C120.645 35.5901 120.251 35.7137 119.866 35.8476C119.739 35.8888 119.612 35.9369 119.485 35.9815C119.261 36.0605 119.032 36.1394 118.808 36.2253L118.727 36.2596C118.456 36.3626 118.19 36.4759 117.923 36.603L117.521 36.7678C117.127 36.9464 116.738 37.1112 116.352 37.3206C115.967 37.5301 115.506 37.7533 115.082 37.9868L114.968 38.0486C114.689 38.2065 114.409 38.3679 114.121 38.5362L113.96 38.6357C113.673 38.8108 113.376 38.9791 113.08 39.1886L112.796 39.3705C112.449 39.6006 112.094 39.8375 111.734 40.0916C111.374 40.3457 111.154 40.5586 110.887 40.7955C110.786 40.8814 110.688 40.9672 110.591 41.0565C110.493 41.1457 110.303 41.3037 110.167 41.4307L110.066 41.5475C109.812 41.7844 109.562 42.0248 109.321 42.2686C109.274 42.3201 109.223 42.3681 109.173 42.4162C108.889 42.7115 108.61 43.0137 108.326 43.3193C108.315 43.3338 108.302 43.3476 108.288 43.3605L108.135 43.5528C107.932 43.7897 107.738 44.03 107.547 44.2738L107.293 44.6172C107.132 44.8335 106.976 45.0498 106.827 45.2696C106.781 45.3383 106.73 45.4001 106.683 45.4687C106.637 45.5374 106.628 45.5649 106.595 45.613C106.345 46.001 106.103 46.3924 105.879 46.7941C105.655 47.1959 105.456 47.5873 105.278 47.9856C105.253 48.0337 105.223 48.0818 105.202 48.1298C105.151 48.2466 105.104 48.3599 105.058 48.4732L104.927 48.7754C104.838 49.002 104.753 49.2321 104.673 49.4621C104.647 49.5239 104.622 49.5926 104.601 49.6578C104.499 49.9497 104.41 50.2416 104.33 50.5369L104.266 50.7875C104.215 51.0004 104.16 51.2167 104.114 51.4296C104.093 51.5395 104.076 51.6494 104.055 51.773C104.016 51.9653 103.983 52.161 103.953 52.3567C103.953 52.47 103.923 52.5799 103.906 52.7001C103.881 52.9061 103.864 53.1121 103.847 53.3181L103.822 53.61C103.801 53.9156 103.792 54.2178 103.792 54.5234C103.781 56.2984 104.13 58.0629 104.825 59.746C105.483 61.3483 106.487 62.8433 107.788 64.1617C109.089 65.4711 110.653 66.5926 112.415 67.4786C112.707 67.6263 113 67.7636 113.296 67.8941L128.807 74.7374C128.51 74.6069 128.214 74.4696 127.926 74.3219C126.162 73.4388 124.597 72.3169 123.299 71.005C121.996 69.6875 120.993 68.1923 120.336 66.5893C119.639 64.9019 119.293 63.1324 119.311 61.3529C119.311 61.0473 119.311 60.7452 119.345 60.4396C119.349 60.3263 119.379 60.2301 119.379 60.134Z" fill="#8E761F"/>
<path d="M95.2662 90.6903L116.42 110.643L111.751 114.709L87.4854 95.2125L95.2662 90.6903Z" fill="#231F20"/>
<path d="M106.95 110.849L116.42 110.643L111.683 133H106.95V110.849Z" fill="#231F20"/>
<path d="M106.95 136.492H110.261L111.107 135.582L112.331 136.492H118.956C118.956 136.492 119.307 135.562 115.146 135.009C115.146 135.009 112.331 133.694 111.336 132.3H106.95V136.492Z" fill="#231F20"/>
<path d="M69.5658 33.9934L72.6011 46.8044C79.8909 49.1462 90.9694 50.0184 96.5447 45.6404C98.8772 43.8068 98.9661 41.7363 98.0475 39.2984C97.8443 38.749 96.3542 35.954 97.0527 35.4939C97.0527 35.4939 100.528 33.1315 98.7883 30.9168C98.7883 30.9168 94.4704 27.8265 93.4078 25.495C93.4078 25.495 89.9111 17.5976 79.5861 18.4732C79.5861 18.4835 65.3114 21.3163 69.5658 33.9934Z" fill="#E3BE95"/>
<path d="M91.3335 21.8966C88.4125 23.4074 79.0273 25.629 79.0273 25.629C79.0273 25.629 75.4882 31.6654 76.7498 37.3309H75.4798L73.8076 32.6508C68.4906 35.2364 74.7178 39.3019 74.7178 39.3019L72.6011 46.8148C68.1985 44.2292 64.0964 36.0983 64.0964 36.0983C61.8062 31.5521 61.8485 24.6195 65.9506 20.7085C69.2653 17.5427 74.0489 15.74 79.0061 14.9262C81.7027 14.4833 84.4925 14.4214 87.206 14.0781C87.7521 14.0094 93.7803 12.8694 93.2427 12.3269C93.2554 12.3269 98.873 17.9925 91.3335 21.8966Z" fill="#3C2415"/>
<path d="M90.6731 28.709C90.6731 28.9289 90.5924 29.1439 90.4414 29.3265C90.2904 29.5092 90.0759 29.6513 89.825 29.7349C89.5742 29.8184 89.2984 29.8395 89.0327 29.7956C88.767 29.7517 88.5234 29.6447 88.3329 29.4882C88.1423 29.3317 88.0135 29.1328 87.9626 28.9168C87.9118 28.7007 87.9413 28.4773 88.0474 28.2749C88.1535 28.0725 88.3314 27.9003 88.5585 27.7801C88.7855 27.6599 89.0515 27.5972 89.3227 27.5999C89.6824 27.6035 90.0258 27.7219 90.2786 27.9295C90.5314 28.1371 90.6731 28.4172 90.6731 28.709Z" fill="#3C2415"/>
<path d="M92.6458 25.0933C92.0882 25.0864 91.5318 25.1384 90.9906 25.2478C89.5343 25.4848 88.0273 25.4161 86.5964 25.7492C85.8725 25.914 85.119 26.2161 85.0089 26.8205C85.7752 26.9475 86.3086 26.4771 87.0198 26.2985C88.8909 25.7904 90.9102 26.0547 92.7517 25.4024C92.9549 25.3302 92.8279 25.1036 92.6458 25.0933Z" fill="#3C2415"/>
<path d="M97.421 39.3911C97.421 39.2332 97.1119 39.1199 96.9976 39.2984C96.7309 39.7585 96.0451 39.5662 95.5244 39.5731C95.4807 39.5731 95.4387 39.5872 95.4077 39.6123C95.3767 39.6374 95.3593 39.6715 95.3593 39.707C95.3593 39.7425 95.3767 39.7766 95.4077 39.8017C95.4387 39.8268 95.4807 39.8409 95.5244 39.8409C96.0113 39.8615 97.5353 40.1465 97.421 39.3911Z" fill="#CCAC87"/>
<path d="M71.2084 88.0189H104.008C107.653 69.0753 92.8533 47.6114 92.8533 47.6114C86.2578 50.166 72.6011 46.8148 72.6011 46.8148C72.6011 46.8148 67.2502 57.9879 68.7912 80.1592C68.7912 80.1592 69.0663 83.1808 71.0136 88.0189" fill="#7AD0E2"/>
<path d="M70.9967 88.0189C72.6223 95.3876 79.3871 100.912 87.4854 100.912C95.5837 100.912 102.344 95.3876 103.995 88.0189H70.9967Z" fill="#2D2A2B"/>
<path d="M88.9332 94.3712L79.6369 114.726L70.3025 111.965L77.4059 92.3762L88.9332 94.3712Z" fill="#2D2A2B"/>
<path d="M75.2723 107.903L79.6369 114.726L52.7723 121.027L50.7022 117.573L75.2723 107.903Z" fill="#2D2A2B"/>
<path d="M46.8288 119.097L48.2766 121.501L49.6566 121.731L49.1867 123.022L52.0696 127.87C52.0696 127.87 53.2549 127.716 52.0696 124.436C52.0696 124.436 52.3025 121.81 53.42 120.484L51.4897 117.264L46.8288 119.097Z" fill="#2D2A2B"/>
<path d="M104.008 89.8044H70.9967L70.3025 86.7244H104.584L104.008 89.8044Z" fill="#231F20"/>
<path d="M104.23 86.7519L103.278 90.7361L104.796 90.9749L105.749 86.9907L104.23 86.7519Z" fill="#FBB040"/>
<path d="M72.6011 46.8148C72.6011 46.8148 86.5414 47.6114 92.8532 47.6114L90.6731 52.0305L70.9967 51.0416L72.6011 46.8148Z" fill="white"/>
<path d="M92.8533 47.6114C92.8533 47.6114 95.6938 49.3591 95.5456 52.0305L93.2724 52.4803C93.2724 52.4803 91.8627 52.3911 91.2023 50.9592L92.8533 47.6114Z" fill="#EC524F"/>
<path d="M93.2723 52.4803C93.2723 52.4803 101.045 70.5896 101.316 80.0116C101.316 80.0116 104.8 81.7971 105.549 84.4444V79.4553C105.549 79.4553 102.954 58.7228 95.516 52.0305L93.2723 52.4803Z" fill="#B53D3B"/>
<path d="M79.3956 60.5288L98.5724 76.8697L101.337 70.5483L85.4069 55.9312C85.4069 55.9312 84.0226 56.1234 79.3956 60.5288Z" fill="#E3BE95"/>
<path d="M98.5724 76.8697L132.104 71.3278L130.542 67.949L101.337 70.5483L98.5724 76.8697Z" fill="#E3BE95"/>
<path d="M80.0094 53.0366C80.0094 53.0366 71.7291 57.4695 83.3495 67.4168L94.3561 60.8585C94.3561 60.8585 88.4167 50.1317 80.0094 53.0366Z" fill="#7AD0E2"/>
<g style="mix-blend-mode:multiply">
<path d="M80.0094 53.0366C80.0094 53.0366 74.9294 55.7835 78.3372 61.7581C78.3322 61.2472 78.3718 60.7365 78.4558 60.2301C78.7902 58.2626 80.183 56.3878 82.7864 56.0616C85.627 55.7183 88.8189 56.9372 90.6011 58.733C91.4224 59.5606 91.7441 60.546 91.1642 61.5281C90.5271 62.4716 89.6532 63.2963 88.5988 63.9488C86.8175 65.0966 84.9544 66.1583 83.0193 67.1284C83.1293 67.2245 83.2352 67.3207 83.3495 67.4168L94.3561 60.8585C94.3561 60.8585 88.4167 50.1317 80.0094 53.0366Z" fill="#E6E7E8"/>
</g>
<g style="mix-blend-mode:multiply">
<path d="M81.8086 53.3868C82.9474 52.9827 84.1953 52.823 85.4323 52.9233C83.6707 52.3748 81.7128 52.4156 79.9882 53.0366C79.9882 53.0366 71.7079 57.4695 83.3283 67.4168L84.175 66.9087C74.0108 57.5656 81.8086 53.3868 81.8086 53.3868Z" fill="#D1D3D4"/>
</g>
<path d="M96.7733 37.6606C96.2864 38.1653 95.4694 38.1035 94.7328 38.1928C94.1752 38.2911 93.6091 38.3542 93.0395 38.3817C92.4952 38.3576 91.9497 38.3576 91.4054 38.3817C91.2869 38.3817 91.2361 38.543 91.3758 38.5602C91.9304 38.6392 92.4765 38.7079 93.0395 38.7559C93.7004 38.7663 94.3611 38.7249 95.0122 38.6323C96.0197 38.5671 96.6632 38.7147 97.3024 37.9971C97.5395 37.743 97.0103 37.4271 96.7733 37.6606Z" fill="#CCAC87"/>
<path d="M91.1472 37.2485C90.4276 37.2485 90.1312 38.0967 90.5461 38.495C90.558 38.5052 90.5731 38.5127 90.5898 38.5166C90.6066 38.5206 90.6243 38.5208 90.6411 38.5173C90.658 38.5138 90.6734 38.5067 90.6857 38.4967C90.698 38.4867 90.7068 38.4743 90.7112 38.4606C90.7185 38.2598 90.6943 38.059 90.6392 37.8632C90.6308 37.7336 90.6776 37.6056 90.7716 37.5006C90.8656 37.3956 91.0012 37.3199 91.1557 37.2863C91.1811 37.2829 91.1726 37.2485 91.1472 37.2485Z" fill="#CCAC87"/>
<path d="M129.145 68.0727C129.145 68.0349 130.796 67.1387 130.902 67.0254C131.307 66.621 131.623 66.1634 131.838 65.6725C132.079 65.0236 131.677 63.7943 132.845 63.5608C133.209 63.4853 133.366 63.657 133.506 63.9042C133.842 64.5352 133.973 65.2256 133.887 65.9095C133.887 66.1017 133.849 66.4691 133.603 66.5962C134.255 66.2803 134.941 65.9953 135.559 65.6451C136.123 65.2732 136.641 64.8568 137.104 64.4021C137.807 63.8115 138.928 64.7454 138.45 65.3223C137.462 66.4233 136.123 67.2852 134.577 67.8152C135.301 67.5405 136.012 67.2452 136.714 66.9396C137.256 66.6992 137.786 66.452 138.298 66.1773C138.666 65.9816 139.195 65.5318 139.648 65.573C140.563 65.6554 140.372 66.2597 139.394 66.9224C138.344 67.6091 137.083 68.4538 135.783 68.8109C136.38 68.6461 136.973 68.4676 137.557 68.2684C138.073 68.0967 138.526 67.7808 139.081 67.6915C139.784 67.5748 140.203 68.0933 139.644 68.5671C139.644 68.5671 137.104 69.8857 136.075 70.1329C136.389 70.0917 136.706 70.0745 137.024 70.0814C137.51 70.0436 138.09 69.8616 138.552 70.0814C139.013 70.3011 138.632 70.902 138.192 70.9844C137.025 71.2357 135.799 71.251 134.623 71.0291C133.957 71.2283 133.267 71.3743 132.566 71.4652C131.82 71.5626 131.065 71.6131 130.309 71.6162L129.145 68.0727Z" fill="#E3BE95"/>
<path d="M64.1769 59.643L64.1388 59.7529C64.1079 59.8625 64.0683 59.9703 64.0202 60.0757C63.8395 60.485 63.5825 60.8695 63.2582 61.2156C62.7503 61.7582 62.1453 62.2362 61.4633 62.6337C60.5867 63.151 59.6443 63.5907 58.6524 63.9454C56.193 64.8028 53.6144 65.4151 50.9732 65.7687L49.8937 65.9198L48.7803 66.0503C48.0395 66.1292 47.286 66.2082 46.524 66.2631C45.0085 66.3833 43.4591 66.4554 41.9097 66.4863C40.3603 66.5172 38.8109 66.4863 37.2827 66.4348C35.7545 66.3833 34.2601 66.2597 32.8165 66.0915C30.1788 65.8192 27.5782 65.3479 25.0484 64.6836C24.0389 64.4144 23.0495 64.098 22.0851 63.7359C21.3344 63.4712 20.6036 63.1709 19.8965 62.8363C19.4451 62.6255 19.0071 62.3963 18.5842 62.1496L18.1609 61.8818L18.6773 62.0466C19.0075 62.1599 19.524 62.2972 20.1336 62.4758C20.7432 62.6543 21.5306 62.8363 22.4196 63.0252C23.3086 63.214 24.3161 63.3926 25.4252 63.5574C27.9461 63.9204 30.4901 64.1692 33.0451 64.3025C34.4506 64.378 35.9026 64.4261 37.3801 64.4536C38.8575 64.4811 40.3434 64.4811 41.8589 64.4536C43.3744 64.4261 44.8603 64.3746 46.3335 64.3025L48.5221 64.1755L49.5889 64.0931L50.6515 64.0038C53.186 63.8017 55.6944 63.4226 58.1486 62.8707C59.1162 62.6461 60.058 62.3543 60.9638 61.9985C61.6573 61.7212 62.3057 61.3752 62.8942 60.9684C63.2766 60.6984 63.6139 60.3891 63.8975 60.0482C63.975 59.9579 64.0457 59.8639 64.1091 59.7666L64.1769 59.643Z" fill="#D1D3D4"/>
<path d="M65.1928 63.9935C65.1928 63.9935 65.1928 64.0347 65.1928 64.1137C65.1941 64.2284 65.1856 64.3432 65.1674 64.457C65.1044 64.9129 64.9619 65.3591 64.7441 65.7824C64.4063 66.4468 63.9514 67.0679 63.3937 67.6263C62.6751 68.354 61.8539 69.0109 60.9468 69.5835C59.8778 70.2599 58.7326 70.8531 57.5263 71.3553C56.1807 71.9253 54.7806 72.4065 53.3396 72.794C52.5945 72.9897 51.8241 73.1648 51.0409 73.3228C50.6176 73.4017 50.2789 73.4773 49.8768 73.546L48.683 73.7486C47.0912 74.0095 45.4656 74.2155 43.8274 74.3666C42.1891 74.5177 40.5508 74.6241 38.9337 74.6791C37.3165 74.734 35.7164 74.7272 34.1712 74.6791C31.3504 74.5927 28.5464 74.2868 25.7977 73.7657C23.8442 73.3876 21.9497 72.8312 20.1505 72.1073C19.8245 71.9802 19.5451 71.8566 19.3038 71.7433C19.0625 71.63 18.8593 71.5338 18.6985 71.4514L18.2032 71.2076L18.762 71.3484C19.1218 71.448 19.6637 71.5682 20.341 71.7124C20.6839 71.7845 21.0607 71.86 21.4755 71.9253C21.8904 71.9905 22.3222 72.0695 22.8175 72.1485C23.7784 72.2789 24.8622 72.406 26.0517 72.4918C28.7594 72.7084 31.4804 72.7967 34.2008 72.7562C35.691 72.739 37.2361 72.6944 38.8024 72.6154C40.3688 72.5365 41.9562 72.43 43.5437 72.2995L45.9144 72.0764L48.2596 71.812L49.4111 71.6643L50.5583 71.5064C51.2991 71.3965 52.0273 71.2557 52.7385 71.1149C54.1099 70.8357 55.4564 70.4812 56.7686 70.0539C57.9412 69.6708 59.0737 69.2114 60.1552 68.6804C61.0761 68.24 61.9361 67.7209 62.7206 67.1319C63.3326 66.6809 63.8679 66.166 64.3123 65.6004C64.6047 65.2335 64.8381 64.8377 65.0066 64.4227C65.0701 64.2785 65.0997 64.1617 65.1293 64.0793C65.159 63.9969 65.1928 63.9935 65.1928 63.9935Z" fill="#D1D3D4"/>
<path d="M62.5724 72.8798V73.0034C62.5665 73.1186 62.5509 73.2333 62.5259 73.3468C62.4416 73.8006 62.2777 74.2423 62.039 74.6585C61.6651 75.3095 61.179 75.9141 60.5955 76.4543C59.8388 77.153 58.9867 77.7796 58.0555 78.3222C56.9522 78.9609 55.7772 79.5138 54.5461 79.9738C53.1797 80.4876 51.7639 80.9102 50.3128 81.2374C49.5593 81.4091 48.7803 81.5567 47.9887 81.6872C47.5654 81.7524 47.2225 81.8142 46.8161 81.8692L45.6138 82.0306C44.0094 82.2366 42.3711 82.3739 40.7328 82.4804C39.0946 82.5868 37.4436 82.6246 35.8222 82.6246C34.2009 82.6246 32.6091 82.5594 31.0682 82.4495C28.2527 82.2674 25.4655 81.865 22.7455 81.2477C20.8201 80.8146 18.9612 80.2064 17.2041 79.4347C16.8866 79.2974 16.6115 79.1635 16.3575 79.0398C16.1035 78.9162 15.9342 78.8167 15.7648 78.7274L15.2822 78.4527L15.8368 78.6141C16.1882 78.7274 16.7258 78.8647 17.3946 79.033C17.7333 79.1188 18.1058 79.2047 18.5207 79.2871C18.9356 79.3695 19.3674 79.4587 19.8457 79.5549C20.7982 79.7197 21.8777 79.8811 23.0588 80.0253C25.7524 80.3374 28.4665 80.5197 31.1867 80.5713C32.6769 80.609 34.222 80.6159 35.7883 80.5919C37.3547 80.5678 38.9506 80.5163 40.5423 80.4408L42.9257 80.3L45.2836 80.118L46.4393 80.0081L47.5908 79.8914C48.3401 79.8055 49.0767 79.6922 49.7963 79.5755C51.1794 79.3442 52.5415 79.0368 53.873 78.6553C55.0686 78.317 56.2281 77.9001 57.3401 77.4088C58.2831 77.001 59.1701 76.513 59.9859 75.953C60.6181 75.5215 61.18 75.0265 61.658 74.4799C61.9675 74.1211 62.2206 73.7324 62.4116 73.3228C62.4644 73.2104 62.5097 73.0958 62.547 72.9794L62.5724 72.8798Z" fill="#D1D3D4"/>
<path d="M46.0414 108.573C46.0414 108.573 46.0414 108.6 45.9991 108.652C45.9536 108.73 45.8998 108.805 45.8382 108.875C45.6052 109.141 45.3191 109.373 44.9915 109.562C43.7824 110.215 42.4412 110.69 41.0292 110.966C40.1064 111.177 39.1711 111.35 38.2267 111.485C37.2234 111.636 36.1651 111.77 35.0602 111.862C33.9553 111.955 32.8208 112.055 31.6736 112.103C30.5263 112.151 29.3368 112.192 28.1599 112.206C26.9831 112.219 25.802 112.206 24.6421 112.161C23.4821 112.116 22.3391 112.058 21.2554 111.979C20.1717 111.9 19.088 111.787 18.0847 111.663C17.0814 111.54 16.0866 111.406 15.2399 111.251C13.8423 111.006 12.4706 110.672 11.1378 110.252C10.6552 110.101 10.2912 109.964 10.0372 109.867L9.6604 109.716L10.0837 109.795C10.3462 109.854 10.7441 109.919 11.2394 110.005C12.2427 110.173 13.6736 110.348 15.405 110.513C16.2517 110.588 17.2084 110.65 18.199 110.712C19.1896 110.774 20.2437 110.808 21.3274 110.849C22.4111 110.891 23.5372 110.894 24.6759 110.915C25.8147 110.935 26.9746 110.915 28.1345 110.915C29.2945 110.915 30.4544 110.891 31.5931 110.853C32.7319 110.815 33.8537 110.784 34.9417 110.722C36.0296 110.661 37.0583 110.602 38.0574 110.523C39.0564 110.444 39.9751 110.348 40.8302 110.242C41.6853 110.135 42.4558 110.001 43.1289 109.854C43.7107 109.73 44.2775 109.563 44.8222 109.356C45.1723 109.221 45.4961 109.045 45.7832 108.834C45.8791 108.754 45.9655 108.666 46.0414 108.573Z" fill="#D1D3D4"/>
<path d="M46.8288 110.808V110.898C46.816 110.987 46.7933 111.076 46.761 111.162C46.6294 111.492 46.4162 111.797 46.1345 112.058C45.6985 112.464 45.1956 112.82 44.6402 113.116C43.9321 113.502 43.1826 113.837 42.4007 114.115C41.4821 114.447 40.5374 114.729 39.5729 114.96C38.4982 115.22 37.4073 115.434 36.3048 115.602L35.4581 115.722L34.5861 115.832C33.9934 115.904 33.4007 115.972 32.7996 116.031C31.5974 116.141 30.3697 116.23 29.142 116.299C27.9144 116.367 26.6698 116.402 25.4421 116.402C24.2145 116.402 23.0376 116.402 21.8862 116.367C20.7347 116.333 19.6171 116.268 18.563 116.179C17.5089 116.089 16.5141 115.986 15.5997 115.856C14.1279 115.66 12.6771 115.372 11.2606 114.994C10.7483 114.857 10.3546 114.729 10.0922 114.651L9.66885 114.51L10.0922 114.575C10.3716 114.623 10.7864 114.675 11.3156 114.743C11.8448 114.812 12.4798 114.87 13.2121 114.939C13.9445 115.008 14.7784 115.052 15.6844 115.1C16.5903 115.148 17.5724 115.172 18.6096 115.193C19.6467 115.214 20.7262 115.21 21.8777 115.193C23.0292 115.176 24.1806 115.152 25.3744 115.128C26.5682 115.104 27.7705 115.035 28.9769 114.98C30.1834 114.925 31.3942 114.853 32.5752 114.76L34.3363 114.63L35.183 114.558L36.0296 114.472C37.1388 114.348 38.214 114.211 39.2173 114.029C40.2206 113.847 41.1689 113.655 42.0197 113.425C42.7939 113.222 43.5493 112.976 44.2803 112.686C44.844 112.467 45.3728 112.192 45.8551 111.869C46.1645 111.66 46.4241 111.406 46.6213 111.121C46.6701 111.042 46.7125 110.96 46.7483 110.877C46.8161 110.836 46.8288 110.808 46.8288 110.808Z" fill="#D1D3D4"/>
<path d="M44.7756 115.372V115.464C44.7567 115.553 44.7284 115.64 44.691 115.725C44.5313 116.047 44.2986 116.342 44.0052 116.594C43.5489 116.985 43.0307 117.326 42.4643 117.607C41.7385 117.976 40.9735 118.292 40.1783 118.551C39.247 118.865 38.291 119.127 37.3166 119.337C36.2316 119.574 35.1323 119.766 34.0231 119.911C32.8674 120.055 31.6863 120.168 30.4713 120.254C29.2564 120.34 28.0329 120.402 26.7968 120.447C25.5607 120.491 24.333 120.491 23.1181 120.488C21.9031 120.484 20.7093 120.436 19.5536 120.374C18.3979 120.313 17.2804 120.227 16.2305 120.113C15.1806 120 14.1816 119.88 13.2672 119.725C11.7974 119.498 10.3521 119.177 8.94498 118.764C8.43698 118.613 8.04752 118.479 7.78506 118.379L7.36172 118.228L7.78506 118.307C8.06445 118.362 8.47932 118.424 9.00425 118.503C9.52918 118.582 10.1726 118.658 10.9008 118.747C11.6289 118.836 12.4671 118.895 13.373 118.963C14.2789 119.032 15.2653 119.073 16.3025 119.118C17.3396 119.162 18.4445 119.183 19.579 119.204C20.7136 119.224 21.8904 119.204 23.0842 119.204C24.278 119.204 25.493 119.162 26.7037 119.138C27.9144 119.114 29.1294 119.063 30.3232 118.994C31.5169 118.925 32.6896 118.881 33.8072 118.781C34.9248 118.682 36.0085 118.565 37.0202 118.404C37.9739 118.262 38.9178 118.079 39.8481 117.858C40.6343 117.675 41.4027 117.446 42.1468 117.171C42.7217 116.965 43.2646 116.704 43.7639 116.395C44.0853 116.195 44.3605 115.951 44.5767 115.674C44.6317 115.598 44.6798 115.519 44.7206 115.437L44.7756 115.372Z" fill="#D1D3D4"/>
</g>
<defs>
<clipPath id="clip0_1_2837">
<rect width="180" height="146" fill="white"/>
</clipPath>
</defs>
</svg>
