<svg width="203" height="153" viewBox="0 0 203 153" fill="none" xmlns="http://www.w3.org/2000/svg">
<g clip-path="url(#clip0_1_2773)">
<path d="M203 0H0V153H203V0Z" fill="white"/>
<path d="M165.179 105.631C171.937 106.033 178.719 105.409 185.468 106.148C188.79 106.511 192.204 107.138 195.175 108.634C196.283 109.185 198.178 110.041 198.427 111.288C198.695 112.627 197.272 113.101 197.155 114.304C197.076 115.117 198.119 116.274 198.228 117.204C198.455 119.162 197.406 120.935 196.198 122.457C193.942 125.309 195.351 127.721 194.269 131.241C193.872 132.536 193.773 134.001 193.219 135.214C190.082 142.001 149.834 141.466 139.467 141.54C115.946 141.707 92.424 141.427 68.9074 140.993C61.9094 140.865 54.9059 140.647 47.9043 140.494C43.8074 140.404 39.7105 140.335 35.6136 140.32C29.4664 140.293 22.3909 141.682 16.5777 138.507C6.4277 132.961 19.4898 127.545 16.9468 121.388C15.8192 118.674 11.1687 118.347 9.09992 117.67C8.13105 117.353 7.12159 117.001 6.45907 116.089C2.91211 111.285 10.508 106.178 13.3832 105.505C19.2204 104.136 25.5761 104.801 31.489 104.698C76.0899 103.921 120.818 102.992 165.179 105.631Z" fill="#F7F7F7"/>
<path d="M144.043 65.2048L143.685 78.533L140.515 101.005H138.079L136.54 80.2696L133.653 62.6057L144.043 65.2048Z" fill="#474747"/>
<path d="M138.092 102.07L140.727 103.436L142.045 102.07L140.727 100.705H138.092V102.07Z" fill="#426362"/>
<path d="M127.883 62.3399L127.835 72.4245L130.858 102.242H133.294L135.992 82.4441L138.169 60.7716L127.883 62.3399Z" fill="#474747"/>
<path d="M133.281 103.308L130.645 104.673L129.328 103.308L130.645 101.942H133.281V103.308Z" fill="#426362"/>
<path d="M140.341 32.2869L132.17 31.3497C132.17 31.3497 128.521 31.912 125.653 42.3103C122.785 52.7085 123.503 73.8665 123.503 73.8665C123.503 73.8665 144.139 70.8065 147.385 70.1544L145.117 50.9739L140.341 32.2869Z" fill="#C8D6A1"/>
<path d="M125.986 14.3266L127.156 11.5859L128.176 12.0029L127.728 14.0473L128.311 13.9823L127.065 16.2142L125.941 15.9464L125.986 14.3266Z" fill="#B97262"/>
<path d="M132.443 31.3822L125.249 28.7487L127.7 15.5984L125.437 15.1987L118.382 30.426L129.121 39.3841L132.443 31.3822Z" fill="#C8D6A1"/>
<path d="M139.271 22.4317C137.409 21.7949 135.488 21.1962 133.55 21.3856C133.124 21.4257 132.661 21.529 132.397 21.879C132.301 22.019 132.225 22.173 132.173 22.3361C131.509 24.1377 130.627 26.8209 131.634 28.6473C131.833 28.9918 132.095 29.2926 132.406 29.5328C132.811 29.8563 133.269 30.1007 133.759 30.2538C133.613 30.704 133.427 31.1393 133.205 31.5543L136.04 31.9674L136.272 30.2787C136.531 30.2024 136.782 30.0993 137.021 29.9708C137.929 29.4576 138.644 28.6433 139.051 27.6586C139.522 26.601 140.135 25.6122 140.578 24.5297C140.738 24.1358 140.878 23.6806 140.709 23.2904C140.539 22.9003 140.066 22.6918 139.647 22.5484L139.271 22.4317Z" fill="#B97262"/>
<path d="M132.827 22.8181C133.831 22.2902 135.268 22.1697 136.148 22.3304C138.806 22.8162 139.585 24.9562 139.47 27.5209C140.304 26.6297 141.808 25.5549 142.015 24.3136C142.185 23.2981 142.187 21.8905 141.722 20.9476C141.286 20.066 140.007 19.4712 139.269 18.9089L137.178 17.3196C137.04 17.1999 136.882 17.1072 136.711 17.0461C136.503 17.0002 136.287 17.0002 136.078 17.0461L130.682 17.901C130.337 17.9565 129.944 18.0464 129.783 18.3696C129.706 18.5768 129.689 18.8027 129.734 19.0198C129.839 19.9761 130.125 20.9878 130.125 21.9536C130.178 22.5274 130.215 25.3961 131.195 25.1704C131.522 24.7267 131.62 24.1511 131.887 23.6691C132.114 23.2967 132.44 23.0009 132.827 22.8181Z" fill="#1A3151"/>
<path d="M129.355 36.9782H26.5099V105.319H129.355V36.9782Z" fill="#E0E0E0"/>
<path d="M129.355 31.6519H26.5099V35.7523H129.355V31.6519Z" fill="#145566"/>
<path d="M129.355 35.7523H26.5099V41.134H129.355V35.7523Z" fill="#9EA6AD"/>
<g opacity="0.36">
<path d="M124.622 37.7279H37.1583V40.0267H124.622V37.7279Z" fill="#F7F7F7"/>
</g>
<path d="M30.8191 33.5319C30.8191 33.6654 30.7809 33.7959 30.7093 33.9069C30.6378 34.018 30.536 34.1045 30.417 34.1556C30.2979 34.2067 30.167 34.2201 30.0406 34.194C29.9142 34.168 29.7981 34.1037 29.707 34.0092C29.6159 33.9148 29.5539 33.7945 29.5288 33.6636C29.5036 33.5326 29.5165 33.3969 29.5658 33.2735C29.6151 33.1501 29.6986 33.0447 29.8058 32.9705C29.9129 32.8963 30.0388 32.8568 30.1677 32.8568C30.3405 32.8568 30.5062 32.9279 30.6283 33.0545C30.7505 33.1811 30.8191 33.3528 30.8191 33.5319Z" fill="#EBB044"/>
<path d="M32.7218 33.5319C32.7218 33.6654 32.6836 33.7959 32.612 33.9069C32.5404 34.018 32.4387 34.1045 32.3196 34.1556C32.2006 34.2067 32.0696 34.2201 31.9432 34.194C31.8169 34.168 31.7008 34.1037 31.6097 34.0092C31.5186 33.9148 31.4565 33.7945 31.4314 33.6636C31.4063 33.5326 31.4192 33.3969 31.4685 33.2735C31.5178 33.1501 31.6013 33.0447 31.7084 32.9705C31.8155 32.8963 31.9415 32.8568 32.0703 32.8568C32.2431 32.8568 32.4088 32.9279 32.531 33.0545C32.6531 33.1811 32.7218 33.3528 32.7218 33.5319Z" fill="#EBB044"/>
<path d="M34.6281 33.5319C34.6281 33.6654 34.5899 33.7959 34.5184 33.9069C34.4468 34.018 34.345 34.1045 34.226 34.1556C34.107 34.2067 33.976 34.2201 33.8496 34.194C33.7232 34.168 33.6072 34.1037 33.5161 34.0092C33.425 33.9148 33.3629 33.7945 33.3378 33.6636C33.3126 33.5326 33.3255 33.3969 33.3748 33.2735C33.4242 33.1501 33.5076 33.0447 33.6148 32.9705C33.7219 32.8963 33.8479 32.8568 33.9767 32.8568C34.1495 32.8568 34.3152 32.9279 34.4373 33.0545C34.5595 33.1811 34.6281 33.3528 34.6281 33.5319Z" fill="#EBB044"/>
<g opacity="0.36">
<path d="M33.6058 37.7738V39.9789L34.3643 38.8773L33.6058 37.7738Z" fill="#F4F8FD"/>
<path d="M30.5349 39.9789V37.7738L29.7764 38.8773L30.5349 39.9789Z" fill="#F4F8FD"/>
</g>
<path d="M155.112 65.5643L153.784 64.8471L152.492 65.2201L152.272 64.9963L152.549 64.7247C151.643 64.8184 150.565 64.3269 150.322 63.3458C150.226 62.9633 150.283 62.0989 150.674 61.8655C151.106 61.6074 152.324 62.1371 152.841 62.2194L153.987 63.1316L155.851 64.0362L155.112 65.5643Z" fill="#B97262"/>
<path d="M154.524 63.1259L166.969 65.6581L171.934 60.1807L176.088 62.468L170.677 72.3729L153.066 65.5835L154.524 63.1259Z" fill="#145566"/>
<path d="M184.529 125.353L184.71 126.785L181.905 128.564L180.231 127.304L181.543 125.697L184.35 123.919L184.529 125.353Z" fill="#145566"/>
<path d="M183.783 81.5394L184.33 85.8942L180.655 105.457L184.629 124.873L181.739 125.783L171.886 102.793L171.232 95.7206L172.218 81.0307L183.783 81.5394Z" fill="#9EA6AD"/>
<path d="M165.314 83.2167L165.074 101.644L168.977 125.405H171.98L173.875 103.482L177.985 81.5566L165.314 83.2167Z" fill="#9EA6AD"/>
<path d="M171.963 126.531L168.717 127.975L167.093 126.531L168.717 125.087H171.963V126.531Z" fill="#145566"/>
<path d="M187.184 89.0709C187.227 91.0656 187.166 93.7527 186.446 93.8521C186.309 93.8557 186.173 93.8135 186.061 93.7316C184.806 93.0087 183.916 91.9912 182.68 91.2913C181.388 90.5588 179.897 90.1705 178.435 89.899C176.251 89.4678 174.035 89.226 171.812 89.176C170.23 89.1474 168.385 89.0842 166.829 89.4304C164.546 89.941 165.463 90.0042 164.146 91.9893L162.116 91.2109C161.791 91.0866 163.151 78.4488 163.801 76.8882C165.327 73.2201 166.938 69.6016 168.551 65.987C169.236 64.457 169.843 62.3245 170.908 61.1522C171.972 59.9798 174.106 58.3791 175.564 58.2643C176.985 58.1496 179.255 59.1804 180.537 59.9071C182.335 60.9265 182.835 62.5713 183.649 64.457C184.396 66.1782 185.407 70.8256 185.692 72.6807C186.038 74.9298 186.358 77.1847 186.614 79.4472C186.891 81.9736 187.081 84.5095 187.122 87.0513C187.129 87.3343 187.166 88.1242 187.184 89.0709Z" fill="#145566"/>
<path d="M172.212 61.4486C172.212 61.4486 168.269 67.1689 166.307 72.0726C165.299 74.578 164.039 82.6965 163.539 83.8211C163.039 84.9456 162.585 91.3888 162.585 91.3888L164.153 91.9894C164.153 91.9894 166.196 77.5882 167.084 74.729C167.971 71.8699 169.35 69.7221 169.547 67.3736C169.745 65.025 172.801 61.4448 172.801 61.4448L172.212 61.4486Z" fill="#B5D6CA"/>
<path d="M131.275 51.2856L129.868 51.0274L129.665 51.3086L129.988 51.5821L128.761 51.714L128.06 52.4542L128.29 53.8139L129.313 54.7702L130.59 54.3877L131.688 53.2077L132.159 52.8883L131.64 51.014L131.275 51.2856Z" fill="#B97262"/>
<path d="M144.673 35.1671C144.043 34.4518 140.341 32.2869 140.341 32.2869L141.31 45.7088L131.171 50.951L132.094 54.2672L146.607 48.1836L144.673 35.1671Z" fill="#BDC993"/>
<path d="M125.144 62.6153V61.6055C125.134 60.8079 124.818 60.0472 124.267 59.4906C123.716 58.934 122.974 58.6271 122.204 58.6373H91.5512C90.7816 58.6271 90.0396 58.934 89.4883 59.4906C88.937 60.0472 88.6216 60.8079 88.6114 61.6055V115.133H161.677V65.5835C161.666 64.7859 161.351 64.0252 160.8 63.4686C160.248 62.912 159.506 62.6051 158.737 62.6153H125.144Z" fill="#FFD559"/>
<path d="M159.115 66.8936H91.8538V115.676H159.115V66.8936Z" fill="white"/>
<path d="M124.101 72.9925L123.016 76.0295H91.5512C90.7816 76.0193 90.0396 76.3263 89.4883 76.8829C88.937 77.4395 88.6216 78.2002 88.6114 78.9977V116.791C88.6162 117.186 88.6961 117.576 88.8464 117.939C88.9968 118.302 89.2147 118.631 89.4877 118.907C89.7607 119.183 90.0834 119.4 90.4375 119.546C90.7915 119.693 91.17 119.766 91.5512 119.761H158.737C159.507 119.77 160.249 119.463 160.8 118.906C161.351 118.349 161.666 117.588 161.677 116.791V74.0004C161.666 73.2028 161.351 72.4421 160.8 71.8855C160.248 71.3289 159.506 71.022 158.737 71.0322H126.868C126.269 71.0277 125.683 71.2131 125.188 71.5635C124.694 71.9138 124.315 72.4125 124.101 72.9925Z" fill="#EBB044"/>
<path d="M159.049 74.7845L157.615 75.2359L156.406 74.6219L156.151 74.7979L156.375 75.1192L155.232 74.8821L154.413 75.3028L154.28 76.5058L154.965 77.5921L156.216 77.6361L157.504 76.959L159.499 76.4273L159.049 74.7845Z" fill="#B97262"/>
<path d="M157.818 74.8878L168.518 70.8907L177.64 58.4116L181.229 59.7064L182.979 62.8735L172.847 75.7752L157.995 77.7661L157.818 74.8878Z" fill="#12505E"/>
<g opacity="0.1">
<path d="M87.207 52.697L41.1223 69.6532L56.4156 76.4732L41.0282 91.5342L44.1267 94.9346L47.157 98.2585L62.5444 83.1976L68.2413 99.4098L87.207 52.697Z" fill="#2D2A27"/>
</g>
<path d="M48.1719 76.5191L50.3237 75.4348L50.8478 76.0984L52.6545 76.1672L52.6306 77.3587L49.497 78.1983L48.1719 76.5191Z" fill="#B97262"/>
<path d="M19.7205 100.481L22.6566 113.995L25.3547 130.075H28.0841L29.2006 90.9509L20.1763 91.1211L19.7205 100.481Z" fill="#1A3151"/>
<path d="M36.9977 99.6546L37.376 112.772L33.5651 130.075H31.1144L30.8652 111.83L28.1838 96.8968L27.5176 92.1289L35.0304 91.2109L36.9977 99.6546Z" fill="#1A3151"/>
<path d="M31.0553 64.3633L22.5367 65.025L17.6555 73.2029C19.0082 78.1983 18.7406 76.4866 19.5637 81.002L17.1295 93.4333L20.3074 94.3895L31.8544 94.6018L35.6523 93.9133L34.6134 82.0558L35.1522 66.2088L31.0553 64.3633Z" fill="#3ABABA"/>
<path d="M32.7347 70.8294L37.018 77.6819L41.1407 78.3054L50.5433 78.7128L49.6852 75.8249L39.7474 73.1856L35.1522 66.2108L32.7347 70.8294Z" fill="#3ABABA"/>
<path d="M30.6032 56.7516C29.3114 52.8596 24.3526 54.3189 23.3303 57.7843C22.664 60.0449 24.3489 62.9787 26.6096 63.627C26.6189 63.7169 26.6262 63.7991 26.6281 63.8699C26.6344 64.2333 26.6665 64.5957 26.724 64.9543C26.7425 65.0881 28.7208 64.6942 28.9386 64.6502C29.0176 64.6444 29.0912 64.6066 29.1434 64.545C29.2228 64.4169 29.0936 64.0382 29.0788 63.8947C29.0641 63.7513 29.0438 63.5562 29.0272 63.3879C30.1344 62.8237 30.8468 61.6227 31.0424 60.4006C31.238 59.1785 30.9926 57.922 30.6032 56.7516Z" fill="#B97262"/>
<path d="M27.0452 53.1235C26.825 53.4383 26.6969 53.8121 26.6761 54.2002C26.6308 54.4241 26.6308 54.6553 26.6761 54.8792C26.9252 55.7455 27.7649 55.6327 28.4385 55.866C29.2682 56.165 29.9912 56.717 30.5128 57.4496C31.3045 58.5569 31.0959 60.0773 30.904 61.3836C30.8376 61.8426 30.6844 62.5311 31.0516 62.9136C31.4189 63.2961 32.2143 63.1699 32.611 62.927C32.9801 62.7032 33.257 62.3226 33.663 62.2193C34.069 62.1161 34.7001 62.2614 34.8736 61.8368C34.9003 61.71 34.9361 61.5853 34.9806 61.4639C35.1947 61.0814 35.8277 61.4639 36.1488 61.1789C36.3462 61.0087 36.3204 60.6779 36.2318 60.4139C36.1432 60.15 36.003 59.9014 36.0325 59.6317C36.0584 59.3984 36.2041 59.2052 36.2872 58.9891C36.366 58.7722 36.3836 58.5364 36.3379 58.3095C36.2921 58.0826 36.1849 57.8738 36.0288 57.7078C35.4438 57.1053 34.4122 57.31 33.7903 56.7515C33.4655 56.4589 33.316 56.0133 33.1721 55.5887C33.0281 55.1641 32.8602 54.7223 32.5188 54.4546C32.0943 54.1237 31.5259 54.2308 31.1033 53.833C30.856 53.5997 30.677 53.2841 30.4039 53.0852C30.0348 52.8232 29.3612 52.653 28.9275 52.5383C28.5923 52.4444 28.2384 52.4495 27.9059 52.5529C27.5733 52.6563 27.2752 52.8539 27.0452 53.1235Z" fill="#1A3151"/>
<path d="M24.3711 59.5648C24.4431 60.8443 25.1573 62.1754 24.6719 63.3458C24.1865 64.5163 22.7674 64.8433 21.5549 64.9982C21.3556 65.0231 18.8034 65.4553 18.7867 65.4056C18.5284 64.5316 18.2626 63.6403 17.757 62.8945C17.2513 62.1486 16.4522 61.5557 15.5904 61.5729C15.834 61.5079 15.9355 61.1904 15.8875 60.9208C15.8127 60.6649 15.7145 60.4171 15.5941 60.1806C15.4805 59.8742 15.4501 59.5413 15.5064 59.2183C15.5627 58.8952 15.7035 58.5943 15.9134 58.3485C16.7567 57.3922 18.4324 57.6332 19.1374 56.5641C19.5748 55.9005 19.4511 54.9978 19.6467 54.2136C20.0287 52.7009 21.566 52.2686 22.6825 51.5094C23.8599 50.708 24.9912 50.2318 26.4288 50.3619C28.2115 50.5263 29.6565 52.2744 29.1065 54.0817C28.3997 56.392 24.9044 56.4742 24.4191 58.8017C24.3704 59.0527 24.3543 59.3094 24.3711 59.5648Z" fill="#1A3151"/>
<path d="M25.3547 64.8089L27.8664 68.4866L29.0456 68.3852L30.6493 64.3939L25.3547 64.8089Z" fill="#1A3151"/>
<path d="M28.0842 130.075L29.5384 132.012L28.1838 133.548L26.2848 131.811L25.3547 130.075H28.0842Z" fill="#145566"/>
<path d="M33.7571 130.075L35.2113 132.012L33.8567 133.548L31.9578 131.811L31.0276 130.075H33.7571Z" fill="#145566"/>
<path d="M66.691 95.5122L85.6568 48.7974L39.5721 65.7556L54.8654 72.5736L39.478 87.6346L45.6067 94.3608L60.9941 79.2999L66.691 95.5122Z" fill="#145566"/>
<g opacity="0.1">
<path d="M42.5784 91.035L45.6068 94.3608L60.9942 79.2999L66.6911 95.5122L85.6568 48.7974L42.5784 91.035Z" fill="#2D2A27"/>
</g>
<path d="M42.4067 86.3284L44.7855 86.6019L44.887 87.4529L46.38 88.5105L45.747 89.5031L42.6633 88.4818L42.4067 86.3284Z" fill="#B97262"/>
<path d="M17.6555 73.2009L26.2663 82.5951L30.1639 84.1213L42.8496 88.8318L42.6078 85.8215L29.8631 78.8103L22.5367 64.981L19.1724 66.8993L17.6555 73.2009Z" fill="#37AFAC"/>
<path d="M175.278 59.1593C175.979 59.1134 177.638 58.7137 177.64 58.7768C177.623 58.119 177.557 57.4635 177.44 56.8165C178.092 56.5526 178.841 56.1625 178.93 55.4434C178.947 55.215 178.925 54.9853 178.867 54.7644C178.679 53.8426 178.491 52.9195 178.304 51.9951C178.258 51.6714 178.152 51.3602 177.99 51.079C177.679 50.6066 177.095 50.4173 176.549 50.3408C174.519 50.0539 172.674 51.5285 170.889 52.3222C170.736 52.3774 170.598 52.4684 170.485 52.588C170.3 52.8079 170.323 53.1331 170.361 53.4199C170.561 54.9098 170.959 57.0881 172.629 57.5012C172.998 57.5911 173.377 57.5834 173.737 57.681C174.613 57.9162 174.353 58.7864 174.992 59.1345C175.084 59.1627 175.182 59.1711 175.278 59.1593Z" fill="#B97262"/>
<path d="M166.942 50.1534C166.744 49.4787 166.671 48.7715 166.726 48.0688C166.881 46.6784 167.798 44.2763 169.54 45.2574C170.498 45.7986 171.225 46.3399 172.397 46.1352C173.735 45.9019 174.467 45.5749 175.842 46.0243C177.044 46.4183 178.642 46.4604 179.738 47.0398C180.191 47.2948 180.577 47.6613 180.862 48.107C181.364 48.8726 181.649 49.7688 181.684 50.6938C181.719 51.6187 181.504 52.5354 181.061 53.3396C180.854 53.6939 180.617 54.0286 180.353 54.3399C179.816 54.9901 179.173 55.7934 178.411 56.0611C178.369 55.3477 178.915 53.0719 178.365 52.5077C177.492 51.6107 175.597 52.0066 174.573 52.2763C173.445 52.5689 172.461 53.441 171.341 53.6628C170.535 53.8216 169.487 53.4486 168.782 53.0413C167.912 52.5325 167.267 51.3487 166.942 50.1534Z" fill="#1A3151"/>
</g>
<defs>
<clipPath id="clip0_1_2773">
<rect width="203" height="153" fill="white"/>
</clipPath>
</defs>
</svg>
