<svg width="122" height="94" viewBox="0 0 122 94" fill="none" xmlns="http://www.w3.org/2000/svg">
<path d="M40.1963 42.5097C40.1963 42.5097 38.4174 32.0482 36.6959 31.5906C34.9744 31.1329 37.3845 38.5867 36.6959 38.9136C36.0073 39.2405 32.7938 27.2752 31.8757 27.6675C30.9575 28.0598 33.7693 35.8508 33.3676 35.9437C32.9659 36.0367 28.49 23.7445 26.6537 25.6406C24.8175 27.5368 33.7119 39.0408 33.0807 39.9252C32.4495 40.8098 30.1465 34.9947 28.7769 36.9521C27.4073 38.9094 34.6301 43.3597 34.1136 44.4712C33.5971 45.5828 29.5803 41.3982 30.1541 44.4712C30.728 47.5443 35.2613 46.5636 37.155 49.3751C39.0486 52.1866 39.6798 58.3327 41.4587 56.5673C43.2377 54.802 40.1963 42.5097 40.1963 42.5097Z" fill="#8DD3AD"/>
<path d="M27.3001 44.0581C27.5615 44.0284 27.8145 44.0536 28.0596 44.1263C32.7235 45.5106 33.8138 59.8048 35.5618 60.7041C37.2438 61.5695 35.5935 49.8129 39.3925 52.6496C43.1915 55.4864 38.7807 68.0618 41.9612 67.3691C45.1416 66.6764 41.717 60.3353 47.5071 62.658C51.6266 64.3104 49.743 77.2534 48.4122 84.178C47.9247 86.7144 45.937 88.5373 43.6183 88.568C40.1542 88.6139 35.591 88.6733 35.3846 88.671C31.2444 88.6237 17.3082 75.6554 18.4697 69.4838C19.725 62.8137 25.5896 74.4705 27.6438 73.1992C29.698 71.928 17.6025 56.3634 22.0496 55.05C26.4968 53.7366 28.1876 64.2569 30.6415 63.3503C33.0953 62.4437 22.0656 44.6516 27.3001 44.0581Z" fill="#38A06C"/>
<path d="M39.5337 84.5578C39.5457 84.5578 39.5579 84.5557 39.5699 84.5513C39.6318 84.529 39.6659 84.4548 39.6459 84.3854L30.2733 51.853C30.2534 51.7837 30.1869 51.7457 30.125 51.768C30.0631 51.7903 30.0291 51.8646 30.049 51.9339L39.4216 84.4663C39.4377 84.5222 39.484 84.5578 39.5337 84.5578Z" fill="#78CEA2"/>
<path d="M36.0778 72.4353L39.1227 59.0862C39.1387 59.0157 39.1007 58.9439 39.0376 58.9259C38.9744 58.9079 38.9104 58.9505 38.8943 59.021L35.9433 71.9584L26.8028 63.1713C26.779 63.1485 26.7482 63.1372 26.7172 63.1398C26.6861 63.1425 26.6572 63.1588 26.6366 63.1854C26.6265 63.1984 26.6189 63.2137 26.614 63.2301C26.6092 63.2466 26.6073 63.264 26.6085 63.2814C26.6097 63.2987 26.6139 63.3156 26.6209 63.331C26.6279 63.3465 26.6375 63.3602 26.6492 63.3713L36.0778 72.4353ZM38.3931 80.9225L38.4454 80.8586L47.0579 70.3485C47.0684 70.3358 47.0765 70.3209 47.0818 70.3046C47.0871 70.2883 47.0895 70.271 47.0888 70.2536C47.0881 70.2363 47.0844 70.2192 47.0779 70.2035C47.0713 70.1879 47.0621 70.1738 47.0507 70.1623C47.0275 70.1386 46.9971 70.1262 46.966 70.1277C46.9349 70.1292 46.9056 70.1445 46.8842 70.1703L38.324 80.6166L25.2601 75.546C25.1985 75.5221 25.1315 75.5586 25.1101 75.6273C25.0888 75.6961 25.1213 75.7712 25.1828 75.7951L38.3931 80.9225Z" fill="#78CEA2"/>
<path d="M78.2441 70.9351C78.2441 70.9351 74.8081 50.2066 81.6022 42.3234C88.3964 34.4402 93.5386 42.8028 92.6758 50.623C91.9244 57.4342 85.8836 66.7029 84.3374 68.9811C84.1093 69.3171 83.7848 69.551 83.4207 69.6419L78.2441 70.9351Z" fill="#8DD3AD"/>
<path d="M80.9634 67.6167C81.047 66.5572 81.1585 65.5008 81.2978 64.4489L78.3264 56.652C78.2673 56.4969 78.2955 56.305 78.3893 56.2234C78.4833 56.1416 78.6073 56.2011 78.6663 56.3563L81.4194 63.5798C81.7208 61.5289 82.14 59.3855 82.7115 56.9505L80.0213 48.1296C79.9718 47.9672 80.0121 47.7821 80.1114 47.7162C80.2108 47.6499 80.3313 47.7284 80.3808 47.8908L82.9011 56.1547C82.9347 56.0156 82.9688 55.8756 83.0034 55.7345C83.3801 54.1989 84.0158 52.1015 84.7032 49.9669L83.0672 44.7423C83.0166 44.5806 83.0556 44.3947 83.1543 44.3269C83.2529 44.2592 83.3741 44.3353 83.4247 44.497L84.9241 49.2853C85.4596 47.6416 86.0127 46.0091 86.4892 44.6264L85.7147 41.3805C85.6747 41.2127 85.7261 41.0357 85.8295 40.9852C85.933 40.9347 86.0493 41.0298 86.0894 41.1976L86.7367 43.9106C87.3514 42.1387 87.7885 40.9226 87.801 40.8878C87.854 40.7407 87.9759 40.6987 88.0734 40.794C88.1709 40.8893 88.207 41.0858 88.1541 41.2329C88.1414 41.2679 87.6961 42.5071 87.0728 44.3045L89.1286 44.0436C89.2381 44.0297 89.341 44.1601 89.3583 44.3348C89.3733 44.4865 89.3189 44.6218 89.2326 44.6639C89.2194 44.6703 89.2055 44.6745 89.1912 44.6763L86.8411 44.9746C86.3738 46.3307 85.8331 47.9261 85.3085 49.5341L89.1617 48.0214C89.2672 47.9799 89.3806 48.0845 89.415 48.2548C89.4483 48.4194 89.3956 48.5853 89.2967 48.6336C89.2933 48.6352 89.2899 48.6367 89.2864 48.6381L85.0613 50.2969C84.3803 52.4116 83.7517 54.486 83.3796 56.0026C83.3336 56.1903 83.288 56.3782 83.2428 56.5663L88.8883 55.3545C88.9969 55.3313 89.1036 55.4532 89.1268 55.6269C89.1477 55.7836 89.0935 55.9288 89.0031 55.9729C88.9932 55.9778 88.9829 55.9814 88.9723 55.9836L83.0808 57.2481C82.501 59.7223 82.0805 61.8905 81.7822 63.967L87.148 61.7042C87.2528 61.66 87.3672 61.7616 87.4034 61.9312C87.4387 62.0969 87.3863 62.2662 87.2861 62.3152C87.2837 62.3163 87.2814 62.3174 87.279 62.3184L81.6844 64.6777C81.5505 65.6956 81.4431 66.7177 81.3623 67.7427C81.3529 67.8614 81.3021 67.9511 81.2353 67.9838C81.2047 67.9988 81.1704 68.0013 81.1383 67.9908C81.0281 67.956 80.9499 67.7885 80.9634 67.6167Z" fill="white"/>
<path d="M100.122 56.2154C93.5837 53.4004 84.5698 61.3196 79.7401 74.126C77.3741 80.4001 77.7336 84.941 78.7633 87.98H90.0154C94.2876 80.857 105.868 58.6895 100.122 56.2154Z" fill="#388C60"/>
<path d="M84.0719 85.1374L90.9713 80.0869C91.0542 80.0263 91.0892 79.9101 91.0494 79.8275C91.0096 79.7449 90.9101 79.7272 90.8272 79.7877L84.1469 84.6778C84.2762 83.8953 84.4201 83.079 84.5802 82.2461C84.5834 82.2343 84.5857 82.2224 84.587 82.2105C84.9549 80.3009 85.4082 78.3064 85.9648 76.4367L93.2028 73.0981C93.2924 73.0567 93.348 72.9472 93.3271 72.8534C93.3062 72.7595 93.2156 72.7176 93.1272 72.7583L86.0968 76.0012C86.2923 75.3702 86.5002 74.7561 86.7209 74.1665L86.7216 74.1648C86.9851 73.4608 87.2669 72.7918 87.5686 72.1729C88.1092 71.0638 88.6434 70.0441 89.1641 69.1088L95.9406 65.9992C96.0302 65.9581 96.086 65.8486 96.0653 65.7548C96.0446 65.6608 95.9552 65.6184 95.8656 65.6592L89.449 68.6037C91.2005 65.5303 92.7814 63.4207 93.9147 62.0884C95.5691 60.1435 96.6521 59.3892 96.6628 59.3818C96.7469 59.324 96.7853 59.2087 96.7485 59.124C96.7116 59.0394 96.6133 59.0176 96.5292 59.0751C96.4838 59.1062 95.4005 59.858 93.7114 61.8401C92.7302 62.9915 91.4188 64.7162 89.9529 67.1301C89.8623 65.7294 89.6048 61.7634 89.5806 61.5309C89.5704 61.4329 89.488 61.3777 89.3966 61.4077C89.3053 61.4377 89.2395 61.5415 89.2497 61.6395C89.2762 61.8937 89.6074 67.017 89.6476 67.6393C89.4058 68.0475 89.1689 68.4593 88.9368 68.8747C88.9293 68.8857 88.9227 68.8974 88.9171 68.9097C88.3836 69.8659 87.8361 70.9093 87.2822 72.0456C87.0252 72.5729 86.7826 73.1355 86.5532 73.7241L83.7604 69.0367C83.7141 68.9591 83.6122 68.9504 83.5327 69.0175C83.4533 69.0845 83.4263 69.2018 83.4725 69.2793L86.3846 74.1669C85.5127 76.5203 84.844 79.2467 84.3324 81.8387L80.2127 77.2715C80.1539 77.2063 80.0489 77.2173 79.9782 77.2965C79.9076 77.3755 79.8981 77.4925 79.957 77.5578L84.2414 82.3074C83.8412 84.398 83.5428 86.3794 83.3217 87.98H83.6492C83.7669 87.127 83.9065 86.1661 84.0719 85.1374Z" fill="#78CEA2"/>
<path d="M65.8062 89.5951C91.0834 89.5951 111.575 89.1571 111.575 88.6167C111.575 88.0764 91.0834 87.6383 65.8062 87.6383C40.5291 87.6383 20.0379 88.0764 20.0379 88.6167C20.0379 89.1571 40.5291 89.5951 65.8062 89.5951Z" fill="#5CBEC6"/>
<path d="M49.1401 14.0175L45.5727 16.4953L39.2082 24.0009L38.1789 26.5069V88.6167H82.4188V14.0175H49.1401Z" fill="#FFD45C"/>
<path d="M66.2803 73.0822H73.8997V74.6267H66.2803V73.0822Z" fill="#F4B442"/>
<path d="M44.5279 34.5382V36.6764H43.7443V31.6618H45.0919C45.8918 31.6618 46.3454 32.137 46.3454 33.0318C46.3454 33.7569 46.0045 34.07 45.7748 34.1738C46.1156 34.3555 46.2769 34.6854 46.2769 35.426V35.6261C46.2769 36.196 46.3006 36.4088 46.3362 36.6765H45.574C45.5097 36.4468 45.4982 36.0498 45.4982 35.6179V35.4352C45.4982 34.765 45.3632 34.5382 44.8658 34.5382H44.5279V34.5382ZM44.5279 33.8111H44.8975C45.3734 33.8111 45.5594 33.5779 45.5594 33.071C45.5594 32.6391 45.3783 32.3889 44.9751 32.3889H44.5279L44.5279 33.8111ZM49.133 34.4475H47.7204V35.9037H49.3063L49.2092 36.6765H46.9426V31.6618H49.1996V32.4476H47.7204V33.6682H49.133V34.4475ZM52.4428 36.6765H51.8422C51.8235 36.5235 51.8104 36.4109 51.8047 36.2496C51.6083 36.6467 51.3025 36.7627 50.9307 36.7627C50.0115 36.7627 49.6789 35.8299 49.6789 34.2004C49.6789 32.3697 50.2212 31.582 51.1665 31.582C52.359 31.582 52.4249 32.7466 52.4379 33.044H51.6592C51.6462 32.8418 51.6079 32.3418 51.1428 32.3418C50.635 32.3418 50.4935 33.1128 50.4935 34.1986C50.4935 35.3678 50.6142 36.0095 51.1163 36.0095C51.534 36.0095 51.66 35.6447 51.66 34.9058V34.6247H51.0674V33.8585H52.4428V36.6765ZM53.9166 31.6618V36.6765H53.1272V31.6618H53.9166ZM55.2182 35.2721C55.2564 35.688 55.4029 36.0543 55.8054 36.0543C56.1932 36.0543 56.3371 35.7774 56.3371 35.4043C56.3371 34.9923 56.1591 34.7528 55.6026 34.4501C54.849 34.0422 54.554 33.6817 54.554 32.9367C54.554 32.1323 55.0076 31.5829 55.8035 31.5829C56.7936 31.5829 57.0377 32.3461 57.0507 32.9989H56.2786C56.2533 32.7123 56.1883 32.2905 55.7898 32.2905C55.4779 32.2905 55.3384 32.521 55.3384 32.8613C55.3384 33.2223 55.4794 33.3913 55.9953 33.6643C56.785 34.0803 57.1395 34.484 57.1395 35.3234C57.1395 36.1108 56.7114 36.7619 55.7817 36.7619C54.7698 36.7619 54.4614 36.0237 54.4338 35.2721L55.2182 35.2721ZM58.3042 32.4476H57.3639V31.6618H60.0338V32.4476H59.0935V36.6765H58.3042L58.3042 32.4476ZM61.2425 34.5382V36.6764H60.4588V31.6618H61.8065C62.6064 31.6618 63.0599 32.137 63.0599 33.0318C63.0599 33.7569 62.7191 34.07 62.4894 34.1738C62.8302 34.3555 62.9915 34.6854 62.9915 35.426V35.6261C62.9915 36.196 63.0152 36.4088 63.0508 36.6765H62.2886C62.2243 36.4468 62.2128 36.0498 62.2128 35.6179V35.4352C62.2128 34.765 62.0778 34.5382 61.5803 34.5382H61.2425V34.5382ZM61.2425 33.8111H61.6121C62.0879 33.8111 62.274 33.5779 62.274 33.071C62.274 32.6391 62.0929 32.3889 61.6897 32.3889H61.2425L61.2425 33.8111ZM64.3798 35.4143L64.1613 36.6764H63.3719L64.3911 31.6618H65.4139L66.4442 36.6764H65.6174L65.3981 35.4143H64.3798ZM65.2578 34.6351C65.0937 33.6753 64.9623 32.9739 64.8931 32.4951H64.8744C64.8208 32.9567 64.6813 33.7102 64.5193 34.6351H65.2578ZM67.0952 32.4476H66.1549V31.6618H68.8248V32.4476H67.8846V36.6765H67.0952V32.4476H67.0952ZM70.0392 31.6618V36.6765H69.2499V31.6618H70.0392ZM73.5308 34.1308C73.5308 35.9645 73.0933 36.7627 72.0788 36.7627C71.1311 36.7627 70.6693 35.9763 70.6693 34.1204C70.6693 32.3111 71.2069 31.5821 72.1147 31.5821C73.0739 31.582 73.5308 32.3896 73.5308 34.1308ZM71.4774 34.112C71.4774 35.3019 71.6358 36.0095 72.0975 36.0095C72.5838 36.0095 72.7227 35.3541 72.7227 34.1138C72.7227 32.9486 72.575 32.3418 72.0968 32.3418C71.6259 32.3418 71.4774 32.9946 71.4774 34.112ZM74.1493 36.6765V31.6618H75.0443C75.9543 34.433 76.1291 34.9616 76.1819 35.2074H76.1884C76.1509 34.6051 76.1494 33.8669 76.1494 33.0451V31.6618H76.8536V36.6765H75.9954C75.0555 33.7217 74.8887 33.1893 74.8317 32.9592H74.8252C74.8577 33.5771 74.8585 34.3155 74.8585 35.214V36.6765H74.1493Z" fill="white"/>
<path d="M45.1378 42.6361H65.5796V44.4102H45.1378V42.6361ZM66.6814 42.6361H74.6552V44.4102H66.6814V42.6361ZM45.1378 49.6008H69.2331V51.375H45.1378V49.6008ZM70.3639 49.6008H74.6552V51.375H70.3639V49.6008ZM45.1378 46.1051H60.2989V47.8792H45.1378V46.1051ZM61.6652 46.1051H74.6552V47.8792H61.6652V46.1051Z" fill="#F4B442"/>
<path d="M70.09 68.4691C67.153 68.4691 64.7636 65.7465 64.7636 62.4001C64.7636 59.0537 67.153 56.3312 70.09 56.3312C73.027 56.3312 75.4163 59.0537 75.4163 62.4001C75.4163 65.7465 73.027 68.4691 70.09 68.4691Z" fill="#54678C"/>
<path d="M70.0899 70.7109C70.0498 70.7109 70.0103 70.6988 69.9756 70.6758L68.7825 69.8876L67.4157 70.0976C67.3757 70.1037 67.3351 70.0976 67.2979 70.0801C67.2607 70.0625 67.2283 70.034 67.2038 69.9975L66.368 68.7474L65.035 68.3441C64.9962 68.3323 64.9608 68.3091 64.9323 68.2767C64.9039 68.2443 64.8835 68.2039 64.8732 68.1597L64.5192 66.6409L63.4221 65.6885C63.3901 65.6607 63.3651 65.6237 63.3496 65.5813C63.3342 65.539 63.3289 65.4927 63.3343 65.4472L63.5185 63.8897L62.8268 62.5304C62.8066 62.4908 62.796 62.4458 62.796 62.4C62.796 62.3543 62.8066 62.3093 62.8268 62.2697L63.5185 60.9103L63.3343 59.3529C63.3289 59.3074 63.3342 59.2611 63.3496 59.2187C63.3651 59.1763 63.3901 59.1393 63.4221 59.1115L64.5192 58.1592L64.8732 56.6403C64.8835 56.5961 64.9039 56.5557 64.9324 56.5233C64.9608 56.4909 64.9962 56.4677 65.0351 56.4559L66.3681 56.0526L67.2039 54.8025C67.2283 54.766 67.2608 54.7376 67.298 54.72C67.3352 54.7024 67.3758 54.6964 67.4157 54.7025L68.7826 54.9124L69.9756 54.1242C70.0104 54.1012 70.0498 54.0891 70.09 54.0891C70.1301 54.0891 70.1696 54.1012 70.2043 54.1242L71.3974 54.9124L72.7643 54.7025C72.8455 54.6901 72.9264 54.7282 72.9761 54.8025L73.8119 56.0526L75.1449 56.456C75.1837 56.4677 75.2192 56.491 75.2476 56.5233C75.276 56.5557 75.2964 56.5961 75.3067 56.6404L75.6607 58.1592L76.7578 59.1115C76.7899 59.1394 76.8149 59.1763 76.8303 59.2187C76.8457 59.2611 76.851 59.3074 76.8456 59.3529L76.6614 60.9103L77.3531 62.2697C77.3733 62.3093 77.3839 62.3543 77.3839 62.4C77.3839 62.4458 77.3733 62.4908 77.3531 62.5304L76.6614 63.8897L76.8456 65.4472C76.851 65.4927 76.8457 65.539 76.8303 65.5814C76.8148 65.6238 76.7898 65.6608 76.7578 65.6886L75.6607 66.641L75.3067 68.1598C75.2964 68.204 75.276 68.2444 75.2475 68.2768C75.2191 68.3092 75.1837 68.3324 75.1448 68.3442L73.8119 68.7475L72.9761 69.9976C72.9517 70.0341 72.9192 70.0626 72.882 70.0802C72.8448 70.0977 72.8042 70.1038 72.7642 70.0976L71.3974 69.8877L70.2043 70.6759C70.1696 70.6988 70.1301 70.7109 70.0899 70.7109ZM68.8294 69.3585C68.8694 69.3585 68.9089 69.3705 68.9438 69.3936L70.0899 70.1508L71.2361 69.3936C71.2799 69.3647 71.3308 69.3532 71.381 69.3608L72.6937 69.5624L73.4965 68.3617C73.5272 68.3158 73.5704 68.2829 73.6193 68.2681L74.8999 67.8806L75.24 66.4215C75.253 66.3657 75.2819 66.3165 75.3222 66.2815L76.376 65.3668L76.1991 63.871C76.1923 63.8139 76.2024 63.7559 76.2278 63.706L76.8924 62.4L76.2278 61.0941C76.2024 61.0442 76.1923 60.9862 76.1991 60.9291L76.376 59.4333L75.3222 58.5186C75.282 58.4837 75.253 58.4344 75.2401 58.3786L74.9 56.9195L73.6194 56.532C73.5705 56.5172 73.5272 56.4843 73.4966 56.4383L72.6938 55.2376L71.381 55.4392C71.3309 55.447 71.2799 55.4354 71.2362 55.4065L70.09 54.6493L68.9438 55.4065C68.9001 55.4355 68.8491 55.447 68.799 55.4392L67.4863 55.2376L66.6835 56.4383C66.6528 56.4842 66.6096 56.5172 66.5606 56.532L65.28 56.9195L64.9399 58.3786C64.927 58.4344 64.8981 58.4836 64.8578 58.5186L63.804 59.4333L63.9809 60.929C63.9877 60.9861 63.9776 61.0442 63.9522 61.094L63.2876 62.4L63.9522 63.706C63.9775 63.7558 63.9876 63.8139 63.9809 63.871L63.804 65.3667L64.8578 66.2814C64.8981 66.3164 64.927 66.3656 64.9399 66.4214L65.28 67.8805L66.5606 68.268C66.6095 68.2828 66.6528 68.3158 66.6834 68.3617L67.4862 69.5624L68.799 69.3608C68.8091 69.3593 68.8193 69.3585 68.8294 69.3585Z" fill="#54678C"/>
<path d="M69.7726 66.3305C69.7439 66.3275 69.7175 66.3117 69.6991 66.2865C69.6806 66.2614 69.6717 66.2289 69.6743 66.1962C69.6756 66.1801 69.6797 66.1644 69.6863 66.15C69.6929 66.1357 69.7019 66.1229 69.7129 66.1125C69.7238 66.1022 69.7365 66.0943 69.7501 66.0895C69.7637 66.0847 69.778 66.083 69.7921 66.0845C69.8063 66.0859 69.8201 66.0905 69.8327 66.0981C69.8453 66.1056 69.8565 66.1158 69.8656 66.1283C69.8748 66.1407 69.8816 66.1551 69.8859 66.1706C69.8902 66.186 69.8917 66.2023 69.8904 66.2185C69.888 66.2492 69.8756 66.2777 69.8556 66.2986C69.8356 66.3194 69.8096 66.331 69.7825 66.331C69.7793 66.331 69.7759 66.3307 69.7726 66.3305ZM70.2935 66.2185C70.2921 66.2023 70.2936 66.186 70.2978 66.1705C70.3021 66.1549 70.3089 66.1405 70.318 66.128C70.3271 66.1155 70.3383 66.1052 70.3509 66.0977C70.3636 66.0901 70.3773 66.0854 70.3915 66.084C70.4202 66.081 70.4486 66.0911 70.4707 66.112C70.4928 66.133 70.5067 66.1631 70.5094 66.1957C70.512 66.2283 70.5031 66.2607 70.4847 66.2859C70.4663 66.3111 70.4399 66.3269 70.4113 66.3299C70.4079 66.3304 70.4045 66.3304 70.4014 66.3304C70.3744 66.3305 70.3484 66.319 70.3284 66.2983C70.3084 66.2776 70.296 66.2491 70.2935 66.2185ZM69.1442 66.1979C69.1305 66.1935 69.1177 66.186 69.1066 66.1759C69.0954 66.1659 69.0861 66.1534 69.0791 66.1392C69.0722 66.125 69.0678 66.1094 69.0661 66.0933C69.0645 66.0772 69.0657 66.0609 69.0695 66.0453C69.0734 66.0297 69.0799 66.0151 69.0887 66.0023C69.0976 65.9896 69.1085 65.979 69.1209 65.9711C69.1333 65.9632 69.147 65.9582 69.1611 65.9563C69.1753 65.9544 69.1896 65.9557 69.2033 65.9602C69.2169 65.9646 69.2297 65.972 69.2409 65.9821C69.2521 65.9921 69.2614 66.0046 69.2683 66.0187C69.2753 66.0329 69.2797 66.0484 69.2813 66.0645C69.283 66.0806 69.2818 66.097 69.2779 66.1125C69.2716 66.1385 69.2579 66.1613 69.2391 66.1776C69.2202 66.1938 69.1973 66.2026 69.1736 66.2026C69.1637 66.2026 69.1538 66.201 69.1442 66.1979ZM70.9057 66.1117C70.9018 66.0961 70.9006 66.0798 70.9022 66.0637C70.9039 66.0476 70.9083 66.032 70.9152 66.0178C70.9221 66.0036 70.9314 65.9911 70.9425 65.9811C70.9537 65.971 70.9664 65.9635 70.9801 65.959C70.9938 65.9546 71.0082 65.9532 71.0223 65.9551C71.0365 65.957 71.0502 65.962 71.0626 65.9699C71.0751 65.9778 71.086 65.9884 71.0949 66.0012C71.1037 66.0139 71.1102 66.0285 71.1141 66.0441C71.118 66.0597 71.1192 66.076 71.1175 66.0921C71.1159 66.1082 71.1115 66.1237 71.1046 66.1379C71.0977 66.152 71.0884 66.1645 71.0772 66.1746C71.0661 66.1846 71.0533 66.1921 71.0397 66.1965C71.0298 66.1998 71.0197 66.2014 71.0098 66.2014C70.9862 66.2014 70.9633 66.1926 70.9446 66.1764C70.9258 66.1602 70.9121 66.1375 70.9057 66.1117ZM68.5479 65.9352C68.5352 65.9279 68.5238 65.9179 68.5144 65.9057C68.5051 65.8934 68.4979 65.8792 68.4934 65.8638C68.4889 65.8484 68.4871 65.8321 68.4881 65.8159C68.4891 65.7997 68.4929 65.7839 68.4993 65.7694C68.5056 65.7548 68.5145 65.7419 68.5252 65.7313C68.5359 65.7206 68.5484 65.7125 68.5619 65.7074C68.5754 65.7023 68.5897 65.7002 68.6039 65.7013C68.6181 65.7025 68.6319 65.7068 68.6447 65.714C68.6574 65.7213 68.6688 65.7313 68.6781 65.7436C68.6874 65.7558 68.6945 65.77 68.6991 65.7854C68.7036 65.8008 68.7054 65.817 68.7044 65.8332C68.7034 65.8494 68.6996 65.8652 68.6932 65.8797C68.6842 65.9003 68.6704 65.9176 68.6532 65.9297C68.6361 65.9417 68.6163 65.9481 68.5961 65.9481C68.58 65.9481 68.5634 65.944 68.5479 65.9352ZM71.4899 65.8778C71.4836 65.8633 71.4798 65.8475 71.4788 65.8313C71.4778 65.8151 71.4796 65.7988 71.4841 65.7834C71.4886 65.768 71.4958 65.7538 71.5051 65.7415C71.5145 65.7293 71.5259 65.7193 71.5386 65.712C71.5514 65.7045 71.5653 65.6999 71.5796 65.6986C71.5939 65.6972 71.6084 65.6992 71.622 65.7042C71.6357 65.7093 71.6483 65.7174 71.6592 65.7281C71.6701 65.7388 71.679 65.7518 71.6854 65.7665C71.6919 65.7811 71.6957 65.7971 71.6966 65.8134C71.6976 65.8298 71.6957 65.8462 71.691 65.8616C71.6864 65.8771 71.6791 65.8914 71.6695 65.9037C71.66 65.9159 71.6484 65.9259 71.6355 65.933C71.6227 65.9402 71.6089 65.9446 71.5947 65.9458C71.5805 65.9469 71.5662 65.9449 71.5527 65.9397C71.5392 65.9346 71.5267 65.9265 71.5159 65.9159C71.5051 65.9052 71.4963 65.8923 71.4899 65.8778ZM68.0046 65.5517C67.9933 65.5419 67.9837 65.5297 67.9765 65.5157C67.9692 65.5017 67.9645 65.4863 67.9625 65.4702C67.9606 65.4541 67.9614 65.4378 67.965 65.4221C67.9686 65.4064 67.9748 65.3917 67.9834 65.3787C67.992 65.3657 68.0027 65.3548 68.015 65.3466C68.0272 65.3383 68.0408 65.3329 68.0549 65.3307C68.069 65.3285 68.0834 65.3294 68.0972 65.3335C68.1109 65.3376 68.1239 65.3448 68.1352 65.3546C68.1466 65.3643 68.1561 65.3766 68.1633 65.3905C68.1706 65.4045 68.1753 65.42 68.1773 65.436C68.1792 65.4521 68.1784 65.4684 68.1748 65.4841C68.1712 65.4998 68.165 65.5146 68.1564 65.5275C68.1463 65.5428 68.1332 65.5552 68.1181 65.5637C68.1031 65.5722 68.0865 65.5767 68.0697 65.5766C68.0462 65.5766 68.0234 65.5678 68.0046 65.5517ZM72.0265 65.525C72.0179 65.5121 72.0116 65.4974 72.008 65.4817C72.0044 65.466 72.0036 65.4497 72.0055 65.4336C72.0075 65.4175 72.0122 65.4021 72.0194 65.3881C72.0266 65.3741 72.0361 65.3619 72.0474 65.3521C72.0704 65.3323 72.0993 65.3237 72.1278 65.3282C72.1563 65.3327 72.1821 65.3499 72.1995 65.376C72.2081 65.3889 72.2144 65.4036 72.218 65.4193C72.2216 65.435 72.2224 65.4513 72.2205 65.4674C72.2185 65.4835 72.2138 65.4989 72.2066 65.5129C72.1994 65.5269 72.1899 65.5391 72.1785 65.5489L72.1783 65.5492C72.1669 65.559 72.154 65.5661 72.1402 65.5702C72.1264 65.5743 72.1121 65.5752 72.098 65.573C72.0839 65.5708 72.0703 65.5654 72.058 65.5571C72.0458 65.5489 72.0351 65.538 72.0265 65.525ZM67.5322 65.0614H67.5319C67.5125 65.0372 67.5024 65.0052 67.5037 64.9724C67.505 64.9397 67.5177 64.9089 67.5389 64.8868C67.5601 64.8647 67.5882 64.8531 67.617 64.8546C67.6457 64.8561 67.6727 64.8706 67.6921 64.8947C67.7114 64.919 67.7215 64.951 67.7202 64.9837C67.7189 65.0164 67.7063 65.0472 67.6851 65.0693C67.6652 65.0902 67.6392 65.1017 67.6121 65.1017C67.5971 65.1017 67.5822 65.0981 67.5684 65.0912C67.5546 65.0842 67.5423 65.0741 67.5322 65.0614ZM72.4973 65.0663C72.476 65.0442 72.4633 65.0135 72.462 64.9807C72.4606 64.948 72.4707 64.916 72.4901 64.8917H72.4903C72.4999 64.8797 72.5114 64.87 72.5243 64.8631C72.5372 64.8563 72.5511 64.8523 72.5654 64.8516C72.5796 64.8509 72.5938 64.8533 72.6071 64.8588C72.6205 64.8644 72.6328 64.8728 72.6433 64.8838C72.6646 64.9058 72.6773 64.9366 72.6786 64.9693C72.68 65.0021 72.6699 65.0341 72.6505 65.0584C72.6403 65.071 72.6279 65.0811 72.6141 65.088C72.6003 65.0949 72.5854 65.0985 72.5703 65.0984C72.5433 65.0984 72.5173 65.087 72.4973 65.0663ZM67.1462 64.481C67.1387 64.4673 67.1336 64.4519 67.1312 64.4359C67.1289 64.4199 67.1293 64.4035 67.1326 64.3877C67.1358 64.3719 67.1417 64.357 67.15 64.3438C67.1583 64.3306 67.1688 64.3194 67.1809 64.3109C67.2053 64.2936 67.2348 64.2881 67.2628 64.2955C67.2908 64.303 67.3151 64.3228 67.3303 64.3506C67.3378 64.3644 67.3428 64.3797 67.3451 64.3957C67.3474 64.4117 67.3469 64.4281 67.3437 64.4439C67.3404 64.4596 67.3345 64.4745 67.3262 64.4877C67.3179 64.5009 67.3074 64.512 67.2953 64.5206C67.2833 64.5292 67.2698 64.535 67.2558 64.5376C67.2418 64.5403 67.2274 64.5398 67.2136 64.5361C67.1997 64.5324 67.1866 64.5257 67.1751 64.5162C67.1635 64.5068 67.1537 64.4948 67.1462 64.481ZM72.8864 64.5173C72.862 64.5 72.8446 64.4723 72.838 64.4404C72.8315 64.4085 72.8363 64.3749 72.8514 64.3471C72.8666 64.3193 72.8909 64.2994 72.9189 64.292C72.9469 64.2845 72.9764 64.29 73.0008 64.3073C73.0252 64.3245 73.0426 64.3521 73.0492 64.384C73.0557 64.4159 73.0509 64.4494 73.0358 64.4772V64.4775C73.026 64.4953 73.0124 64.5101 72.9963 64.5202C72.9801 64.5304 72.962 64.5357 72.9435 64.5357C72.9233 64.5358 72.9035 64.5294 72.8864 64.5173ZM66.8605 63.8299C66.8553 63.8147 66.8527 63.7986 66.853 63.7824C66.8533 63.7661 66.8564 63.7501 66.8621 63.7352C66.8678 63.7204 66.8761 63.7069 66.8864 63.6957C66.8967 63.6845 66.9088 63.6757 66.9221 63.6698C66.9489 63.658 66.9787 63.6587 67.005 63.6719C67.0313 63.6851 67.0519 63.7096 67.0623 63.7401H67.0626C67.0678 63.7552 67.0702 63.7714 67.0699 63.7876C67.0696 63.8038 67.0665 63.8199 67.0607 63.8347C67.055 63.8496 67.0467 63.863 67.0364 63.8742C67.0261 63.8854 67.014 63.8943 67.0007 63.9001C66.9874 63.906 66.9733 63.9089 66.959 63.9085C66.9448 63.9082 66.9308 63.9047 66.9178 63.8981C66.9047 63.8916 66.893 63.8822 66.8831 63.8705C66.8733 63.8588 66.8656 63.845 66.8605 63.8299ZM73.1808 63.896C73.1675 63.8902 73.1554 63.8814 73.1451 63.8702C73.1348 63.859 73.1265 63.8456 73.1207 63.8308C73.115 63.8159 73.1119 63.7999 73.1115 63.7837C73.1112 63.7675 73.1137 63.7514 73.1189 63.7363C73.124 63.7211 73.1317 63.7073 73.1415 63.6955C73.1513 63.6838 73.1631 63.6744 73.1761 63.6678C73.1891 63.6613 73.2032 63.6577 73.2174 63.6574C73.2316 63.657 73.2458 63.6599 73.2591 63.6657C73.2859 63.6776 73.3074 63.7011 73.319 63.731C73.3307 63.761 73.3314 63.795 73.321 63.8255C73.3131 63.8488 73.2992 63.8687 73.2811 63.8828C73.2631 63.8969 73.2417 63.9045 73.2198 63.9046C73.2064 63.9045 73.1932 63.9016 73.1808 63.896ZM66.6851 63.1293C66.6799 63.0971 66.6861 63.0639 66.7023 63.0369C66.7186 63.0099 66.7436 62.9913 66.7718 62.9852C66.8001 62.9793 66.8292 62.9863 66.8529 63.0049C66.8766 63.0234 66.8929 63.0518 66.8983 63.084C66.9009 63.1 66.9007 63.1164 66.8978 63.1322C66.8949 63.1481 66.8892 63.1632 66.8811 63.1766C66.8731 63.1899 66.8628 63.2014 66.8508 63.2102C66.8389 63.2191 66.8256 63.2252 66.8115 63.2281C66.8049 63.2295 66.7983 63.2302 66.7915 63.2303C66.7405 63.2303 66.6949 63.1889 66.6851 63.1293ZM73.3692 63.2237C73.3552 63.2208 73.3418 63.2147 73.3299 63.2059C73.3179 63.1971 73.3076 63.1857 73.2995 63.1723C73.2914 63.159 73.2858 63.1439 73.2828 63.1281C73.2798 63.1122 73.2796 63.0958 73.2822 63.0799C73.2875 63.0476 73.3038 63.0191 73.3275 63.0005C73.3512 62.982 73.3804 62.9749 73.4087 62.9808C73.4369 62.9868 73.4619 63.0054 73.4782 63.0324C73.4945 63.0594 73.5007 63.0927 73.4954 63.1249C73.4908 63.1532 73.4777 63.1788 73.4583 63.1972C73.4389 63.2157 73.4144 63.2258 73.3891 63.2259C73.3825 63.2259 73.3759 63.2251 73.3692 63.2237ZM66.6261 62.4045C66.6258 62.3881 66.6284 62.3718 66.6337 62.3566C66.639 62.3413 66.6469 62.3274 66.657 62.3157C66.6671 62.304 66.6791 62.2946 66.6924 62.2883C66.7057 62.2819 66.72 62.2786 66.7344 62.2786C66.7488 62.2786 66.763 62.2818 66.7763 62.2882C66.7896 62.2945 66.8017 62.3038 66.8118 62.3155C66.8219 62.3272 66.8298 62.3411 66.8352 62.3563C66.8405 62.3716 66.8431 62.3879 66.8429 62.4043C66.8429 62.437 66.8315 62.4684 66.8112 62.4916C66.7909 62.5147 66.7634 62.5278 66.7347 62.5278C66.7205 62.5279 66.7064 62.5247 66.6932 62.5186C66.68 62.5124 66.668 62.5033 66.6579 62.4919C66.6478 62.4804 66.6398 62.4668 66.6344 62.4518C66.6289 62.4368 66.6261 62.4208 66.6261 62.4045ZM73.3369 62.3999C73.3369 62.3985 73.3372 62.3972 73.3372 62.3958C73.3372 62.3944 73.3369 62.393 73.3369 62.3917C73.3369 62.3589 73.3483 62.3274 73.3685 62.3042C73.3888 62.2809 73.4163 62.2678 73.4451 62.2676C73.4594 62.2675 73.4735 62.2707 73.4867 62.2769C73.4998 62.2831 73.5118 62.2922 73.5219 62.3037C73.532 62.3151 73.54 62.3288 73.5455 62.3438C73.5509 62.3588 73.5538 62.3748 73.5538 62.3911V62.3999C73.5538 62.4161 73.551 62.4322 73.5455 62.4472C73.5401 62.4622 73.5321 62.4758 73.522 62.4873C73.512 62.4988 73.5 62.5079 73.4868 62.5141C73.4737 62.5203 73.4596 62.5234 73.4453 62.5234C73.4311 62.5234 73.417 62.5202 73.4038 62.514C73.3907 62.5078 73.3787 62.4987 73.3687 62.4873C73.3586 62.4758 73.3506 62.4622 73.3452 62.4472C73.3397 62.4322 73.3369 62.4161 73.3369 62.3999ZM66.7706 61.8234C66.7423 61.8174 66.7173 61.7989 66.701 61.772C66.6847 61.745 66.6784 61.7118 66.6836 61.6795C66.6889 61.6473 66.7051 61.6188 66.7288 61.6003C66.7524 61.5817 66.7816 61.5746 66.8099 61.5805C66.8364 61.5861 66.8602 61.6028 66.8765 61.6273C66.8929 61.6519 66.9006 61.6825 66.8981 61.7132C66.8957 61.7438 66.8833 61.7723 66.8634 61.7931C66.8434 61.8139 66.8174 61.8255 66.7904 61.8256C66.7838 61.8256 66.7773 61.8248 66.7706 61.8234ZM73.281 61.7119C73.2757 61.6798 73.2818 61.6465 73.298 61.6194C73.3142 61.5924 73.3392 61.5737 73.3674 61.5677C73.3956 61.5616 73.4249 61.5686 73.4486 61.587C73.4723 61.6055 73.4887 61.6339 73.494 61.6661C73.4994 61.6983 73.4932 61.7317 73.477 61.7587C73.4608 61.7858 73.4358 61.8045 73.4075 61.8106C73.3935 61.8135 73.3792 61.8134 73.3652 61.81C73.3513 61.8067 73.3381 61.8003 73.3263 61.7911C73.3146 61.782 73.3045 61.7702 73.2968 61.7567C73.289 61.7431 73.2836 61.7279 73.281 61.7119ZM66.9195 61.1385C66.8926 61.1266 66.871 61.1031 66.8594 61.0732C66.8478 61.0432 66.8471 61.0091 66.8574 60.9786C66.8678 60.948 66.8884 60.9234 66.9148 60.9101C66.9411 60.8969 66.9709 60.8961 66.9978 60.9079C67.0246 60.9197 67.0461 60.9432 67.0577 60.9732C67.0693 61.0031 67.0701 61.0371 67.0597 61.0676C67.0518 61.0909 67.0379 61.111 67.0199 61.1251C67.0018 61.1392 66.9804 61.1467 66.9585 61.1467C66.9455 61.1467 66.9325 61.1442 66.9195 61.1385ZM73.116 61.0558C73.1056 61.0253 73.1063 60.9913 73.1178 60.9613C73.1294 60.9313 73.1509 60.9078 73.1777 60.8958C73.1909 60.8899 73.2051 60.887 73.2193 60.8873C73.2336 60.8877 73.2476 60.8912 73.2607 60.8977C73.2737 60.9043 73.2855 60.9137 73.2954 60.9254C73.3052 60.9371 73.313 60.9509 73.3181 60.9661C73.3286 60.9966 73.3279 61.0306 73.3164 61.0606C73.3048 61.0906 73.2833 61.1142 73.2565 61.1261C73.2439 61.1316 73.2306 61.1344 73.2172 61.1344C73.1953 61.1344 73.174 61.1269 73.156 61.1129C73.1379 61.0989 73.124 61.079 73.116 61.0558ZM67.1773 60.4967C67.1652 60.4881 67.1546 60.477 67.1463 60.4638C67.1379 60.4506 67.132 60.4357 67.1287 60.4199C67.1254 60.4041 67.1249 60.3877 67.1273 60.3716C67.1296 60.3556 67.1346 60.3402 67.1421 60.3264C67.1573 60.2987 67.1815 60.2788 67.2094 60.2713C67.2374 60.2638 67.2668 60.2692 67.2913 60.2864C67.3114 60.3005 67.3269 60.3217 67.3354 60.3468C67.344 60.3719 67.3451 60.3995 67.3387 60.4254C67.3322 60.4512 67.3185 60.474 67.2996 60.4902C67.2807 60.5064 67.2577 60.5151 67.2341 60.5151C67.2141 60.515 67.1944 60.5086 67.1773 60.4967ZM72.8476 60.4459C72.8324 60.418 72.8275 60.3845 72.834 60.3526C72.8405 60.3207 72.8579 60.293 72.8823 60.2756C72.9067 60.2584 72.9361 60.2528 72.9641 60.2602C72.9921 60.2676 73.0164 60.2874 73.0317 60.3152C73.0468 60.343 73.0517 60.3765 73.0452 60.4085C73.0387 60.4404 73.0214 60.468 72.997 60.4854C72.9849 60.494 72.9714 60.4998 72.9574 60.5024C72.9433 60.5051 72.929 60.5045 72.9151 60.5009C72.9012 60.4972 72.8881 60.4905 72.8765 60.481C72.8649 60.4716 72.8551 60.4596 72.8476 60.4459ZM67.5341 59.9196C67.5128 59.8975 67.5001 59.8668 67.4988 59.834C67.4974 59.8013 67.5075 59.7693 67.5269 59.745C67.5462 59.7208 67.5732 59.7063 67.602 59.7048C67.6307 59.7032 67.6588 59.7147 67.6801 59.7368C67.7013 59.7589 67.714 59.7897 67.7153 59.8224C67.7166 59.8551 67.7065 59.8871 67.6871 59.9113H67.6873C67.6659 59.9383 67.6365 59.9517 67.6071 59.9517C67.5801 59.9517 67.5541 59.9403 67.5341 59.9196ZM72.4852 59.902C72.4756 59.8901 72.4682 59.8761 72.4633 59.8609C72.4584 59.8457 72.4562 59.8295 72.4569 59.8133C72.4575 59.7971 72.4609 59.7812 72.4669 59.7665C72.473 59.7519 72.4815 59.7387 72.4919 59.7277C72.5024 59.7167 72.5147 59.7082 72.5281 59.7027C72.5415 59.6971 72.5557 59.6946 72.57 59.6953C72.5842 59.696 72.5982 59.6999 72.6111 59.7068C72.624 59.7137 72.6356 59.7234 72.6452 59.7354C72.6548 59.7474 72.6622 59.7613 72.6671 59.7766C72.672 59.7918 72.6741 59.808 72.6735 59.8242C72.6729 59.8404 72.6695 59.8562 72.6635 59.8709C72.6574 59.8856 72.6489 59.8988 72.6385 59.9098C72.6185 59.9306 72.5923 59.9422 72.5652 59.9422C72.5502 59.9422 72.5353 59.9386 72.5215 59.9317C72.5077 59.9248 72.4954 59.9147 72.4852 59.902ZM67.9774 59.4268C67.9601 59.4007 67.9525 59.3678 67.9565 59.3353C67.9604 59.3028 67.9755 59.2734 67.9984 59.2536C68.0098 59.2438 68.0227 59.2367 68.0365 59.2326C68.0502 59.2285 68.0646 59.2275 68.0787 59.2297C68.0928 59.232 68.1063 59.2373 68.1186 59.2455C68.1309 59.2537 68.1416 59.2646 68.1502 59.2775C68.1588 59.2904 68.1652 59.3051 68.1688 59.3208C68.1724 59.3365 68.1733 59.3528 68.1714 59.3689C68.1694 59.385 68.1648 59.4004 68.1576 59.4144C68.1504 59.4284 68.1408 59.4407 68.1295 59.4505C68.1107 59.4668 68.0876 59.4757 68.0639 59.4757C68.0311 59.4757 67.9989 59.4587 67.9774 59.4268ZM72.0417 59.443C72.0303 59.4333 72.0207 59.421 72.0135 59.4071C72.0062 59.3931 72.0015 59.3776 71.9995 59.3615C71.9976 59.3455 71.9984 59.3291 72.0019 59.3134C72.0055 59.2977 72.0118 59.2829 72.0203 59.27C72.0289 59.257 72.0396 59.2461 72.0519 59.2378C72.0642 59.2296 72.0778 59.2242 72.0919 59.222C72.106 59.2197 72.1203 59.2206 72.1341 59.2247C72.1479 59.2288 72.1609 59.2359 72.1722 59.2457C72.1836 59.2554 72.1932 59.2676 72.2004 59.2816C72.2076 59.2956 72.2123 59.3111 72.2143 59.3271C72.2163 59.3432 72.2154 59.3596 72.2119 59.3753C72.2083 59.391 72.202 59.4057 72.1934 59.4186C72.1833 59.4339 72.1703 59.4463 72.1553 59.4548C72.1403 59.4633 72.1237 59.4678 72.1069 59.4677C72.0834 59.4678 72.0605 59.4592 72.0417 59.443ZM68.4925 59.0346C68.4797 59.0053 68.4776 58.9714 68.4867 58.9404C68.4957 58.9093 68.5153 58.8837 68.541 58.869C68.5537 58.8617 68.5675 58.8574 68.5817 58.8562C68.5959 58.855 68.6102 58.857 68.6237 58.8621C68.6372 58.8672 68.6497 58.8753 68.6605 58.8859C68.6713 58.8965 68.6801 58.9094 68.6865 58.9239C68.6994 58.9532 68.7015 58.9872 68.6924 59.0183C68.6833 59.0493 68.6638 59.0751 68.6381 59.0897C68.6253 59.097 68.6115 59.1014 68.5972 59.1025C68.583 59.1037 68.5688 59.1016 68.5553 59.0965C68.5417 59.0914 68.5292 59.0833 68.5185 59.0726C68.5077 59.062 68.4989 59.0491 68.4925 59.0346ZM71.5321 59.0842C71.5193 59.077 71.5079 59.0671 71.4986 59.0548C71.4892 59.0426 71.482 59.0284 71.4775 59.013C71.4729 58.9977 71.4711 58.9814 71.4721 58.9652C71.4731 58.949 71.4768 58.9332 71.4832 58.9187C71.4895 58.9041 71.4983 58.8912 71.509 58.8805C71.5197 58.8698 71.5322 58.8616 71.5457 58.8565C71.5592 58.8513 71.5734 58.8492 71.5876 58.8503C71.6018 58.8515 71.6157 58.8558 71.6285 58.863C71.6542 58.8776 71.6738 58.9032 71.6829 58.9343C71.6921 58.9653 71.6901 58.9992 71.6774 59.0285C71.6683 59.0492 71.6545 59.0665 71.6373 59.0786C71.6201 59.0908 71.6002 59.0972 71.58 59.0972C71.5634 59.0971 71.547 59.0927 71.5321 59.0842ZM69.0621 58.7573C69.0582 58.7417 69.057 58.7254 69.0586 58.7093C69.0602 58.6931 69.0646 58.6775 69.0715 58.6634C69.0784 58.6492 69.0877 58.6367 69.0989 58.6266C69.11 58.6166 69.1228 58.6091 69.1365 58.6047C69.1642 58.5957 69.1938 58.5996 69.2189 58.6155C69.2441 58.6314 69.2626 58.658 69.2705 58.6895C69.2784 58.721 69.275 58.7548 69.261 58.7834C69.2471 58.812 69.2237 58.8331 69.1961 58.8421C69.1862 58.8454 69.1761 58.8471 69.1662 58.8471C69.1426 58.847 69.1197 58.8382 69.1009 58.822C69.0822 58.8058 69.0685 58.7831 69.0621 58.7573ZM70.9731 58.8388C70.9594 58.8344 70.9466 58.827 70.9354 58.8169C70.9242 58.8069 70.9148 58.7944 70.9079 58.7802C70.9009 58.766 70.8965 58.7504 70.8948 58.7343C70.8932 58.7182 70.8943 58.7018 70.8982 58.6862C70.9061 58.6547 70.9245 58.628 70.9496 58.612C70.9747 58.596 71.0043 58.592 71.0319 58.6008C71.0596 58.6098 71.083 58.6309 71.0971 58.6595C71.1111 58.6881 71.1146 58.7219 71.1069 58.7534C71.1004 58.7793 71.0868 58.802 71.0679 58.8182C71.0491 58.8344 71.0262 58.8432 71.0026 58.8432C70.9929 58.8432 70.9828 58.8418 70.9731 58.8388ZM69.6668 58.6049C69.6655 58.5888 69.667 58.5725 69.6712 58.557C69.6754 58.5415 69.6822 58.5271 69.6913 58.5146C69.7004 58.5021 69.7115 58.4918 69.7241 58.4842C69.7367 58.4766 69.7505 58.4719 69.7646 58.4704C69.7933 58.4674 69.8218 58.4775 69.8439 58.4983C69.866 58.5192 69.88 58.5493 69.8827 58.5819C69.884 58.5981 69.8825 58.6144 69.8783 58.6299C69.8741 58.6454 69.8672 58.6598 69.8581 58.6723C69.849 58.6848 69.8378 58.6951 69.8252 58.7027C69.8126 58.7103 69.7988 58.7149 69.7846 58.7164C69.7812 58.7167 69.7779 58.717 69.7745 58.717C69.7475 58.7169 69.7215 58.7055 69.7016 58.6847C69.6817 58.664 69.6693 58.6355 69.6668 58.6049ZM70.3841 58.7153C70.3559 58.7117 70.33 58.6957 70.3121 58.6707C70.2941 58.6456 70.2855 58.6136 70.288 58.5814C70.2905 58.5492 70.304 58.5194 70.3256 58.4984C70.3471 58.4774 70.3751 58.4669 70.4034 58.469C70.432 58.472 70.4585 58.4878 70.4769 58.513C70.4953 58.5382 70.5042 58.5706 70.5017 58.6033C70.4993 58.634 70.4868 58.6626 70.4669 58.6834C70.4469 58.7042 70.4208 58.7158 70.3937 58.7158C70.3906 58.7158 70.3872 58.7156 70.3841 58.7153Z" fill="#FFD45C"/>
<path d="M38.1789 26.5069C38.1789 26.5069 39.7446 24.546 43.1371 23.5878C44.0886 23.3191 45.7177 23.2905 47.0515 23.3235C47.0515 23.3235 47.0534 15.4487 49.1401 14.0175C49.1401 14.0175 46.1826 15.9891 43.6595 18.0375C41.1364 20.0858 38.3818 24.9989 38.1789 26.5069Z" fill="#F4B442"/>
<path d="M53.2381 62.3784C53.0518 62.6999 52.864 63.0203 52.6747 63.3395C52.7499 63.7912 52.7859 64.017 52.8547 64.4688C52.5689 64.6838 52.2827 64.8982 51.9963 65.1121C51.903 65.5645 51.8547 65.7907 51.7544 66.2431L50.7518 66.473C50.5482 66.7949 50.3429 67.1152 50.1359 67.4342C49.7449 67.3459 49.5494 67.3018 49.1581 67.2135C48.8641 67.4284 48.5697 67.6427 48.275 67.8564C48.0089 67.6439 47.7424 67.432 47.4755 67.2208L46.4697 67.4502C46.2697 67.0677 46.1683 66.8764 45.9629 66.4939C45.636 66.4201 45.3091 66.3464 44.9821 66.2726C44.9241 65.8209 44.8932 65.595 44.8282 65.1433C44.5538 64.9307 44.2792 64.7187 44.0042 64.5073C44.0934 64.0549 44.1363 63.8287 44.2191 63.3763C44.0345 63.0564 43.8484 62.7377 43.6607 62.4202C43.8464 62.1009 44.0306 61.7805 44.2134 61.4591C44.1426 61.0821 44.0692 60.7057 43.9932 60.33C44.323 60.0727 44.4875 59.9441 44.8157 59.6868C44.8697 59.3103 44.9214 58.9334 44.9707 58.5562L45.9524 58.3264C46.1249 58.0069 46.2962 57.6867 46.4663 57.3656L47.4699 57.5862C47.7932 57.3292 47.9545 57.2007 48.2765 56.9436C48.6276 57.1977 48.8028 57.3248 49.1526 57.5789L50.1325 57.3497C50.3365 57.6674 50.5394 57.986 50.7413 58.3055L51.743 58.5267C51.8256 58.9024 51.9058 59.2787 51.9838 59.6556C52.3286 59.91 52.5006 60.0372 52.8437 60.2915C52.7881 60.669 52.7299 61.0459 52.669 61.4223C52.8601 61.7399 53.0498 62.0586 53.2381 62.3784Z" fill="#FF5F4A"/>
<path d="M47.3638 76.8023C47.3341 76.8023 47.3034 76.8008 47.2716 76.7977C47.0341 76.7741 46.8541 76.597 46.7648 76.2989C46.7116 76.1212 46.69 75.9007 46.6951 75.6536C45.6468 76.4714 45.1069 76.2059 45.039 76.1663L45.2165 75.7703L45.2106 75.7671C45.216 75.7696 45.7088 75.9907 46.7508 75.0548C46.9127 74.008 47.404 72.7562 47.9739 72.1581C48.2394 71.8796 48.4417 71.7782 48.6109 71.8389C48.7197 71.8781 48.7979 71.983 48.8255 72.1266C48.9321 72.6825 48.3285 74.0499 47.3611 75.0478C47.2795 75.1321 47.1963 75.2143 47.1114 75.2943C47.0689 75.6456 47.0727 75.9501 47.1341 76.1553C47.1904 76.3432 47.271 76.3512 47.3054 76.3546C47.6022 76.3843 47.7187 76.1814 47.8995 75.8208C48.0837 75.4536 48.3127 74.9959 48.8888 75.0522C49.3559 75.0973 49.6998 75.3768 50.0032 75.6234C50.3352 75.8933 50.5974 76.1063 50.9526 76.0123C50.9766 76.0059 51.1124 75.943 51.4371 75.3268C51.6686 74.8875 51.9339 74.291 52.2146 73.6594C53.0916 71.6868 54.0856 69.451 55.1292 69.3647C55.4373 69.3389 55.6068 69.489 55.6942 69.6192C56.0825 70.1971 55.7128 71.54 55.1044 73.5229C54.788 74.5542 54.4608 75.6205 54.5183 76.0191C54.5207 76.0362 54.5232 76.0515 54.5257 76.0652C54.6158 75.9581 54.7456 75.757 54.8473 75.5994C55.2392 74.9921 55.727 74.236 56.3022 74.4074C57.2221 74.6809 57.9209 75.5201 57.9502 75.5557C57.9681 75.5769 57.9822 75.602 57.9916 75.6295C58.001 75.6569 58.0055 75.6862 58.0048 75.7157C58.0042 75.7451 57.9984 75.7741 57.9878 75.801C57.9773 75.8279 57.9621 75.8522 57.9433 75.8723C57.9244 75.8925 57.9022 75.9082 57.878 75.9184C57.8537 75.9287 57.828 75.9335 57.8021 75.9323C57.7763 75.9311 57.7509 75.9242 57.7275 75.9117C57.704 75.8993 57.683 75.8817 57.6655 75.8599C57.6592 75.8522 57.0125 75.0781 56.2037 74.8376C55.8847 74.7432 55.4495 75.4168 55.1617 75.8628C54.8614 76.3283 54.6629 76.6362 54.4113 76.5669C54.1932 76.5073 54.1496 76.205 54.1332 76.0912C54.0597 75.5808 54.3731 74.5591 54.7361 73.3762C55.1318 72.0865 55.6738 70.3201 55.3844 69.8895C55.367 69.8636 55.3207 69.7948 55.1575 69.8083C54.334 69.8763 53.3103 72.179 52.5628 73.8604C51.8404 75.4853 51.4446 76.3382 51.0412 76.4453C50.5144 76.585 50.1393 76.2802 49.7766 75.9855C49.4885 75.7513 49.2163 75.5301 48.8558 75.4952C48.5435 75.4659 48.4234 75.6724 48.2384 76.0415C48.0674 76.3826 47.8568 76.8023 47.3638 76.8023ZM48.4494 72.2992C48.4049 72.3281 48.3361 72.3826 48.2383 72.4852C47.812 72.9326 47.4532 73.7664 47.2534 74.5525C48.073 73.6353 48.432 72.6288 48.4494 72.2992Z" fill="black"/>
<path d="M49.1402 14.0175C49.1402 14.0175 45.5728 16.9968 46.2252 21.8534C46.2252 21.8534 40.6146 21.3977 38.179 26.5069C38.179 26.5069 38.7218 21.5576 42.4123 17.8723C46.2831 14.0069 49.1402 14.0175 49.1402 14.0175Z" fill="#FFF385"/>
<path d="M23.9513 88.9356C31.4215 88.9356 37.4772 88.7458 37.4772 88.5117C37.4772 88.2776 31.4215 88.0878 23.9513 88.0878C16.4812 88.0878 10.4255 88.2776 10.4255 88.5117C10.4255 88.7458 16.4812 88.9356 23.9513 88.9356Z" fill="#5CBEC6"/>
<path d="M90.8442 51.5355C90.8442 51.5355 86.1501 55.9232 85.082 56.3076C84.0138 56.6919 78.9841 54.9588 78.7295 55.3259C78.4749 55.693 77.8969 57.5159 78.3413 57.6804C78.7857 57.8449 83.1706 59.7309 86.3469 58.948C89.5231 58.1651 92.2257 54.0183 92.2257 54.0183L90.8442 51.5355Z" fill="#CE4949"/>
<path d="M57.3657 71.9094C59.201 69.4776 59.3055 68.0166 59.3055 68.0166L62.5874 66.3328L63.2 67.3508L63.8127 68.3688L61.2517 71.2503C61.2517 71.2503 60.0178 70.835 57.3657 71.9094Z" fill="white"/>
<path d="M64.5181 68.7875C64.3338 68.907 64.1001 68.8462 63.9801 68.647L63.2 67.3508L62.4199 66.0546C62.3 65.8554 62.3345 65.585 62.4987 65.4322C68.7579 59.6057 81.6793 50.4902 81.6793 50.4902L83.662 53.7846C83.662 53.7846 71.5435 64.2341 64.5181 68.7875Z" fill="#434A59"/>
<path d="M81.5267 55.9909L79.1036 51.9647L80.2157 51.1479L82.6035 55.1154L81.5267 55.9909Z" fill="#FFE67B"/>
<path d="M80.2158 51.148L87.5823 45.7374C88.1214 45.3414 88.8392 45.506 89.2019 46.1087L90.0154 47.4603C90.3807 48.0673 90.2522 48.8958 89.7264 49.3234L82.6035 55.1154L80.2158 51.148Z" fill="#434A59"/>
<path d="M88.9837 47.4705C88.9473 47.4101 88.8955 47.3637 88.8354 47.3376C88.7753 47.3115 88.7096 47.307 88.6471 47.3247C88.5846 47.3423 88.5284 47.3813 88.4859 47.4363C88.4434 47.4914 88.4167 47.5599 88.4093 47.6328L88.4019 47.7065C88.3793 47.9297 88.315 48.1448 88.2133 48.3373C88.1115 48.5298 87.9747 48.6951 87.812 48.8221L78.2383 56.3025C78.1698 56.3568 78.123 56.4397 78.108 56.5332C78.0929 56.6267 78.111 56.7232 78.1581 56.8016C78.2053 56.88 78.2778 56.9339 78.3597 56.9516C78.4417 56.9693 78.5265 56.9494 78.5956 56.8962L88.1693 49.4158C88.4065 49.2305 88.606 48.9894 88.7544 48.7087C88.9028 48.428 88.9966 48.1143 89.0294 47.7888L89.0368 47.715C89.0457 47.6289 89.0268 47.542 88.9837 47.4705Z" fill="#FFE67B"/>
<path d="M59.5562 70.6387C59.6273 70.4432 59.5457 70.219 59.3741 70.1381C59.2025 70.0571 59.0058 70.15 58.9348 70.3455C58.8637 70.5411 58.9453 70.7652 59.1169 70.8462C59.2885 70.9271 59.4852 70.8342 59.5562 70.6387Z" fill="#434A59"/>
<path d="M57.5131 71.7111L59.2013 70.4579C59.2117 70.4509 59.2241 70.4487 59.236 70.4519C59.2478 70.455 59.2581 70.4632 59.2647 70.4748C59.2713 70.4864 59.2738 70.5005 59.2715 70.5141C59.2693 70.5277 59.2625 70.5398 59.2526 70.5478L57.4779 71.8653C57.4405 71.8801 57.4038 71.8941 57.3657 71.9096C57.4153 71.8438 57.4644 71.7777 57.5131 71.7111Z" fill="#434A59"/>
<path d="M68.9714 60.6815C68.9601 60.6636 68.9521 60.6434 68.9477 60.622C68.9434 60.6007 68.9427 60.5785 68.9459 60.5569C68.949 60.5352 68.9559 60.5145 68.9661 60.4958C68.9763 60.4772 68.9896 60.461 69.0053 60.4483C71.3467 58.5426 74.7044 55.905 77.4036 54.1616C77.4204 54.1508 77.4388 54.1438 77.4579 54.141C77.477 54.1383 77.4964 54.14 77.515 54.1458C77.5335 54.1516 77.5509 54.1616 77.5661 54.1751C77.5813 54.1886 77.5939 54.2054 77.6034 54.2246C77.6226 54.2631 77.6275 54.3087 77.6171 54.3514C77.6068 54.3941 77.582 54.4303 77.5482 54.4522C74.86 56.1885 71.5114 58.819 69.1757 60.7201C69.1441 60.7458 69.1048 60.7562 69.0665 60.7489C69.0282 60.7417 68.994 60.7174 68.9714 60.6815Z" fill="white"/>
<path d="M106.139 87.8779C106.31 87.4697 106.252 87.189 106.193 86.8371C106.188 86.8133 105.633 85.7512 105.614 85.7219C105.53 85.5951 105.585 84.8117 105.911 84.9426C106.553 85.2006 106.397 84.2927 106.506 84.536C107.113 85.8987 108.025 86.535 107.965 86.8414C107.888 87.2274 107.924 87.4697 106.837 88.4863C106.378 88.9159 105.499 88.8442 105.41 88.7533C105.588 88.1473 105.838 88.5058 106.139 87.8779ZM91.987 88.0353C92.3721 87.8456 92.4226 87.456 92.5877 87.0871C92.5988 87.0622 92.6643 86.5313 92.6649 86.489C92.6676 86.3057 93.1344 85.8216 93.3494 86.2044C93.7731 86.9589 94.313 85.8076 94.287 86.1215C94.2094 87.0556 94.5124 88.5429 94.2064 88.6434C93.5547 88.8577 90.516 89.0944 90.46 88.7306C90.4263 88.5122 91.3209 88.3633 91.987 88.0353Z" fill="#404859"/>
<path d="M89.9406 72.8337C89.649 76.0406 91.3221 83.3971 91.6312 86.7716C91.6312 86.7716 92.4745 87.2885 93.655 87.2885C94.3858 87.2885 94.6669 86.7716 94.6669 86.7716C94.6669 85.9629 93.5411 72.9963 93.5411 72.9963C93.5411 72.9963 96.1888 65.8504 96.6076 65.5916C97.0144 65.3404 104.506 84.7516 105.41 86.6583C105.41 86.6583 106.004 86.3349 106.689 85.6624C106.952 85.4044 107.086 84.9444 107.064 84.7447C106.815 82.4723 101.597 66.1622 101.488 63.32C101.441 62.077 101.218 60.7007 100.135 57.4991C97.3274 58.705 96.0729 58.1425 95.3385 57.8387C95.0668 58.3302 94.0239 59.88 93.599 61.0205C92.4473 64.1097 90.2238 69.7186 89.9406 72.8337Z" fill="#54678C"/>
<path d="M101.488 63.3201C101.459 62.5464 101.361 61.7209 101.03 60.4359C99.4814 60.6693 96.2679 61.1549 95.7802 61.2394C95.1337 61.3515 93.158 63.0404 93.158 63.0404C93.158 63.0404 95.0213 64.0739 97.5089 64.1379C98.9886 64.176 100.508 63.7804 101.497 63.4536C101.493 63.4092 101.49 63.3646 101.488 63.3201Z" fill="#303847"/>
<path d="M93.0656 63.0111C93.8302 63.2596 94.6173 63.3944 95.3916 63.4492C95.5272 63.4588 95.2942 61.5707 95.4288 61.5756C95.6919 61.5852 96.321 63.4814 96.5782 63.4749C99.4465 63.4036 101.863 62.4248 101.863 62.4248C101.863 62.4248 101.041 56.2907 97.315 51.0487C96.4312 49.8053 94.6516 49.5271 93.7389 49.854C92.6594 50.2408 91.4686 50.4645 90.8442 51.5356C90.4295 52.0438 91.3826 54.7413 91.4076 54.87C91.4863 55.2747 92.4941 57.5143 93.0237 59.4925C93.3151 60.5807 92.7275 62.9011 93.0656 63.0111Z" fill="#FF5F4A"/>
<path d="M92.8156 50.7665C92.8044 51.0627 94.9229 58.6932 94.9229 58.6932C94.9229 58.6932 95.3952 57.4237 94.8892 53.8194C94.8253 53.3643 94.3973 49.9817 93.7389 49.9538C93.0064 49.9228 92.8268 50.4702 92.8156 50.7665Z" fill="white"/>
<path d="M92.5094 57.8501C93.9569 56.8023 96.0132 52.9559 96.0132 52.9559L91.8765 56.1501C92.0672 56.6416 92.2929 57.2302 92.5094 57.8501Z" fill="#CE4949"/>
<path d="M92.8936 50.8679C92.8936 50.8679 92.9391 51.0049 93.0214 51.0654L93.1036 51.1259C93.1036 51.1259 93.1191 53.8064 93.021 54.9974C92.9687 55.6319 92.0553 60.1724 92.0553 60.1724L92.6314 61.0601L93.4956 60.2511C93.4956 60.2511 94.0067 57.3763 93.9165 54.911C93.8452 52.9622 93.2999 51.0035 93.2999 51.0035C93.2999 51.0035 93.4226 50.7591 93.3484 50.6419C93.2742 50.5247 93.1417 50.5545 93.064 50.6117C92.9863 50.6689 92.8844 50.8437 92.8936 50.8679Z" fill="#343A44"/>
<path d="M95.9167 63.748C95.8647 63.5961 96.0669 63.4783 96.1194 63.6318C96.5779 64.9717 96.6712 65.1472 97.2997 66.3961C97.3718 66.5393 97.1689 66.6551 97.097 66.5123C96.4685 65.2634 96.3752 65.0879 95.9167 63.748Z" fill="#303847"/>
<path d="M95.5131 64.4698C95.7799 64.5674 96.0519 64.6403 96.3297 64.6858C96.4731 64.7094 96.461 64.965 96.3159 64.9412C96.0191 64.8925 95.7275 64.8173 95.4423 64.7131C95.3031 64.6623 95.3739 64.419 95.5131 64.4698Z" fill="#303847"/>
<path d="M82.379 54.2374C82.2591 53.8067 82.3291 53.2073 82.0931 53.4429C81.8571 53.6785 82.0079 54.1142 81.8575 54.2976C81.7071 54.481 80.6204 53.5779 80.5329 53.8397C80.4747 54.0136 81.1604 54.3565 81.1257 54.3958C81.0911 54.4351 80.4459 54.0191 80.3819 54.2398C80.3034 54.5105 80.3841 54.8392 80.6165 55.0808C80.5204 55.0587 80.4372 55.0593 80.4161 55.1171C80.3593 55.2727 82.5123 56.6009 82.6185 55.2545C82.6415 54.9633 82.5636 54.9004 82.379 54.2374Z" fill="#FF867A"/>
<path d="M94.6317 50.4731C94.6317 50.4731 90.5119 54.5318 89.4438 54.9161C88.3757 55.3004 82.7715 53.8964 82.517 54.2635C82.2624 54.6306 81.6844 56.4535 82.1288 56.618C82.5732 56.7825 86.9581 58.6685 90.1343 57.8856C93.3106 57.1027 96.0132 52.9559 96.0132 52.9559L94.6317 50.4731Z" fill="#FF5F4A"/>
<path d="M92.9131 73.8797C92.8851 73.8797 92.8578 73.8705 92.8343 73.8532C92.8108 73.836 92.7922 73.8114 92.7807 73.7824C92.7692 73.7534 92.7652 73.7212 92.7693 73.6898C92.7733 73.6583 92.7853 73.6288 92.8036 73.6048C93.1252 73.1861 93.4808 72.7053 93.5232 72.6205C93.5395 72.5816 93.5686 72.5515 93.6041 72.5366C93.6396 72.5217 93.6788 72.5231 93.7134 72.5406C93.7481 72.5582 93.7753 72.5903 93.7894 72.6304C93.8035 72.6704 93.8034 72.7151 93.789 72.7551C93.7468 72.8679 93.3489 73.3981 93.0226 73.823C93.009 73.8409 92.9921 73.8551 92.9732 73.8649C92.9543 73.8747 92.9338 73.8797 92.9131 73.8797ZM93.5225 72.6223C93.522 72.6233 93.5217 72.6243 93.5214 72.6251L93.5225 72.6223Z" fill="#303847"/>
<path d="M95.4289 61.7134C95.4061 61.7134 95.3838 61.7061 95.3645 61.6923C95.3452 61.6784 95.3297 61.6587 95.3199 61.6353C95.1479 61.2268 94.8631 58.7661 94.8312 58.4868C94.8292 58.4689 94.8302 58.4507 94.8344 58.4333C94.8385 58.4158 94.8456 58.3994 94.8553 58.3851C94.8649 58.3708 94.877 58.3588 94.8907 58.3498C94.9045 58.3407 94.9197 58.3349 94.9354 58.3326C94.9511 58.3302 94.9671 58.3314 94.9824 58.3361C94.9978 58.3408 95.0121 58.3489 95.0247 58.36C95.0373 58.371 95.0478 58.3847 95.0558 58.4004C95.0637 58.4161 95.0688 58.4334 95.0708 58.4513C95.1941 59.5304 95.4202 61.2371 95.5378 61.5162C95.5466 61.5371 95.5506 61.5603 95.5494 61.5836C95.5483 61.6068 95.542 61.6293 95.5311 61.649C95.5202 61.6687 95.5051 61.6849 95.4873 61.6962C95.4694 61.7075 95.4493 61.7134 95.4289 61.7134ZM88.5767 55.2752C88.5156 55.2752 88.4822 55.2698 88.4774 55.269C88.4457 55.2635 88.4172 55.244 88.3982 55.2146C88.3792 55.1852 88.3712 55.1484 88.376 55.1123C88.3808 55.0764 88.3979 55.0441 88.4235 55.0225C88.4491 55.0008 88.4811 54.9915 88.5127 54.9967C88.5205 54.9977 88.9153 55.0505 89.6411 54.6699C89.6556 54.6624 89.6711 54.6581 89.687 54.6575C89.7028 54.6568 89.7187 54.6596 89.7335 54.6659C89.7484 54.6722 89.7621 54.6817 89.7737 54.694C89.7853 54.7063 89.7948 54.721 89.8014 54.7375C89.808 54.7539 89.8117 54.7716 89.8123 54.7897C89.813 54.8078 89.8104 54.8258 89.8049 54.8427C89.7994 54.8597 89.7911 54.8752 89.7803 54.8885C89.7695 54.9018 89.7565 54.9125 89.7421 54.92C89.1471 55.2321 88.7503 55.2752 88.5767 55.2752Z" fill="#CE4949"/>
<path d="M91.567 47.6733C91.567 47.6733 91.3888 47.2456 91.4492 47.0339C91.5096 46.8222 91.5861 46.7884 91.5861 46.7884C91.5861 46.7884 91.5432 46.2253 92.1074 46.1401C92.6717 46.0549 92.9686 46.4632 93.0296 46.602C93.0906 46.7407 93.2463 46.7188 93.2751 46.8239C93.3038 46.929 93.1446 46.9975 93.1446 46.9975C93.1446 46.9975 93.2037 47.4907 93.1873 47.7554C93.1709 48.0202 93.0189 48.5408 92.73 48.5916C92.4412 48.6424 91.6683 48.2553 91.567 47.6733Z" fill="#77443C"/>
<path d="M92.8203 47.9623C92.8203 47.9623 93.5739 49.3279 93.7809 49.8156C93.8692 50.0235 93.4856 50.5379 93.093 50.6732C92.7444 50.7933 92.6846 50.1443 92.6316 49.8914C92.5125 49.3237 92.3965 48.6814 92.3965 48.6814L92.8203 47.9623Z" fill="#FF867A"/>
<path d="M92.5372 47.2895L92.8981 48.159C92.9969 48.4561 92.871 48.7896 92.613 48.9101C92.4069 49.0065 92.1962 49.0959 91.9266 49.0222C91.6769 48.9539 91.6388 48.6904 91.6013 48.3507C91.5526 47.9099 91.5951 47.5951 91.641 47.3716C91.7457 46.8623 92.2656 46.7424 92.5372 47.2895Z" fill="#FF867A"/>
<path d="M91.6162 47.3513C91.6514 47.3321 91.688 47.3165 91.7247 47.3012C91.7528 47.2895 91.7709 47.3369 91.7427 47.3487C91.706 47.364 91.6694 47.3796 91.6342 47.3988C91.6074 47.4134 91.5895 47.3659 91.6162 47.3513Z" fill="#77443C"/>
<path d="M92.1335 48.0187C92.1335 48.0187 91.9511 48.0986 91.681 48.0994C91.681 48.0994 91.6894 48.2876 91.8021 48.3411C91.9148 48.3946 92.0967 48.2634 92.1335 48.0187Z" fill="white"/>
<path d="M92.0181 47.1953C92.081 47.1931 92.1501 47.2017 92.2103 47.226C92.239 47.2376 92.2229 47.2851 92.1943 47.2736C92.1426 47.2527 92.0799 47.2444 92.0258 47.2463C91.9961 47.2473 91.988 47.1964 92.0181 47.1953Z" fill="#77443C"/>
<path d="M91.5114 47.9689C91.4957 47.9727 91.4797 47.975 91.4636 47.976C91.4308 47.983 91.3992 47.9746 91.3745 47.9523C91.349 47.9291 91.3344 47.8943 91.3334 47.8541L91.3271 47.5875C91.3252 47.509 91.3779 47.4326 91.4446 47.4172L91.6219 47.3763C91.6554 47.3685 91.6877 47.3768 91.7128 47.3995C91.7384 47.4227 91.753 47.4575 91.7539 47.4977L91.7567 47.6127C91.7577 47.655 91.7544 47.692 91.7466 47.7259C91.7067 47.8993 91.5821 47.9526 91.5114 47.9689ZM91.4533 47.4664C91.4074 47.477 91.3697 47.5318 91.371 47.5862L91.3774 47.8528C91.378 47.8779 91.3867 47.8993 91.4019 47.9131C91.4167 47.9265 91.4362 47.9313 91.4568 47.9265L91.4609 47.926C91.4689 47.9259 91.6562 47.9213 91.7041 47.7132C91.7108 47.6841 91.7136 47.6517 91.7127 47.6141L91.71 47.4991C91.7094 47.474 91.7007 47.4526 91.6855 47.4389C91.6707 47.4255 91.6512 47.4207 91.6306 47.4254L91.4533 47.4664ZM92.2426 47.8012C92.1377 47.8255 91.9935 47.8184 91.9436 47.6737C91.9332 47.6436 91.927 47.6084 91.9247 47.5661L91.9186 47.4518C91.9144 47.3734 91.9656 47.297 92.0326 47.2815L92.2673 47.2273C92.3008 47.2196 92.3334 47.2278 92.3592 47.2503C92.3852 47.2731 92.4008 47.3075 92.4029 47.3471L92.4172 47.6119C92.4213 47.6897 92.3711 47.7655 92.3049 47.7818C92.2869 47.7891 92.2657 47.7959 92.2426 47.8012ZM92.0413 47.3306C91.9957 47.3412 91.9597 47.3953 91.9625 47.4488L91.9687 47.563C91.9707 47.6 91.9758 47.6302 91.9845 47.6553C92.0454 47.8319 92.2888 47.7351 92.2914 47.734L92.2945 47.7331C92.3401 47.7226 92.3761 47.6685 92.3733 47.615L92.359 47.3501C92.3577 47.3252 92.3483 47.3039 92.3324 47.29C92.3169 47.2764 92.2969 47.2716 92.2761 47.2764L92.0413 47.3306Z" fill="#343A44"/>
<path d="M91.9484 47.5621C91.9438 47.5632 91.939 47.5625 91.9348 47.5602C91.8284 47.5033 91.7537 47.5984 91.7506 47.6025C91.7467 47.6072 91.7413 47.6101 91.7356 47.6105C91.7299 47.6108 91.7243 47.6087 91.72 47.6044C91.7157 47.6001 91.713 47.5941 91.7125 47.5876C91.712 47.5811 91.7137 47.5747 91.7173 47.5696C91.7511 47.5251 91.8438 47.4562 91.9535 47.5148C91.9576 47.5171 91.9611 47.5208 91.9633 47.5254C91.9655 47.53 91.9664 47.5353 91.9659 47.5405C91.9653 47.5458 91.9633 47.5507 91.9602 47.5545C91.9571 47.5584 91.953 47.561 91.9484 47.5621ZM92.8666 47.4419C92.8349 47.4257 92.5475 47.3687 92.3621 47.3343L92.3685 47.2894C92.4162 47.2983 92.8364 47.3767 92.8828 47.4004L92.8666 47.4419Z" fill="#343A44"/>
<path d="M92.7343 47.6733C92.7457 47.6151 92.7684 47.5611 92.7787 47.5026C92.7982 47.3915 92.8498 47.2316 92.9802 47.3456C93.1699 47.5115 92.994 48.0772 92.8294 48.0423C92.7376 48.0229 92.6943 47.8787 92.7343 47.6733Z" fill="#FF867A"/>
<path d="M92.6417 50.1593C92.6417 50.1593 92.891 50.3442 92.9836 50.311C93.0762 50.2779 93.606 49.4595 93.691 49.5235C93.7759 49.5874 93.9111 49.8081 93.935 49.9019C93.9589 49.9956 93.6602 50.7119 93.5265 50.7781C93.3928 50.8444 93.0942 50.6483 93.0542 50.6954C93.0142 50.7425 92.8563 51.0762 92.7775 50.9941C92.6988 50.9121 92.4451 50.4275 92.6417 50.1593Z" fill="#E7F2F2"/>
<path d="M92.9284 48.4338C92.7499 48.6483 92.6164 48.7487 92.2317 48.8934C91.9725 48.991 91.7941 48.9028 91.7051 48.8349C91.751 48.9271 91.8191 48.9928 91.9266 49.0222C92.1268 49.0769 92.2944 49.0416 92.4519 48.9804C92.4644 49.0468 92.4785 49.1216 92.4939 49.2018C92.5006 49.2368 92.678 49.1019 92.7716 48.9279C92.8896 48.7085 92.9284 48.4338 92.9284 48.4338Z" fill="#C66C67"/>
<path d="M92.0551 47.5245C92.0551 47.5524 92.0426 47.5751 92.0271 47.5751C92.0117 47.5751 91.9991 47.5524 91.9991 47.5245C91.9991 47.4965 92.0117 47.4739 92.0271 47.4739C92.0426 47.4739 92.0551 47.4965 92.0551 47.5245ZM91.6799 47.6029C91.6799 47.6308 91.6674 47.6534 91.6519 47.6534C91.6364 47.6534 91.6239 47.6308 91.6239 47.6029C91.6239 47.5749 91.6364 47.5523 91.6519 47.5523C91.6674 47.5523 91.6799 47.5749 91.6799 47.6029Z" fill="#343A44"/>
<path d="M91.9051 47.8612C91.8503 47.8634 91.7959 47.8501 91.7467 47.8226C91.7085 47.8015 91.6871 47.8727 91.7249 47.8935C91.7794 47.9236 91.8395 47.9382 91.9 47.9362C91.9421 47.9349 91.9475 47.8599 91.9051 47.8612Z" fill="#C66C67"/>
</svg>
