<svg width="125" height="116" viewBox="0 0 125 116" fill="none" xmlns="http://www.w3.org/2000/svg">
<path d="M91.8796 19.1172L91.6971 17.0818L30.9154 20.0525L28.8358 20.114L31.0237 97.4752H33.6116L93.2508 96.0917H96.1641L93.1137 29.9957L91.8796 19.1172Z" fill="#E0E2E8"/>
<path d="M32.9946 98.9183L30.8696 18.3114L93.8679 18.4173V97.4485C74.0196 97.1906 53.7096 97.7118 32.9946 98.9183Z" fill="#ECEFF0"/>
<path d="M78.4438 31.2395H77.8038C77.745 31.2395 77.6971 31.1951 77.6971 31.1405C77.6971 31.086 77.745 31.0416 77.8038 31.0416H78.3371V30.5466C78.3371 30.4921 78.385 30.4476 78.4438 30.4476C78.5025 30.4476 78.5504 30.4921 78.5504 30.5466V31.1405C78.5504 31.1951 78.5025 31.2395 78.4438 31.2395Z" fill="#5BB3E4"/>
<path d="M76.5746 31.2396H75.3454C75.2867 31.2396 75.2387 31.1951 75.2387 31.1406C75.2387 31.0861 75.2867 31.0416 75.3454 31.0416H76.5746C76.6333 31.0416 76.6812 31.0861 76.6812 31.1406C76.6812 31.1951 76.6333 31.2396 76.5746 31.2396ZM74.1158 31.2396H72.8867C72.8279 31.2396 72.78 31.1951 72.78 31.1406C72.78 31.0861 72.8279 31.0416 72.8867 31.0416H74.1158C74.1746 31.0416 74.2225 31.0861 74.2225 31.1406C74.2225 31.1951 74.175 31.2396 74.1158 31.2396ZM71.6571 31.2396H70.4279C70.3692 31.2396 70.3212 31.1951 70.3212 31.1406C70.3212 31.0861 70.3692 31.0416 70.4279 31.0416H71.6571C71.7158 31.0416 71.7637 31.0861 71.7637 31.1406C71.7637 31.1951 71.7162 31.2396 71.6571 31.2396ZM69.1987 31.2396H67.9696C67.9108 31.2396 67.8629 31.1951 67.8629 31.1406C67.8629 31.0861 67.9108 31.0416 67.9696 31.0416H69.1987C69.2575 31.0416 69.3054 31.0861 69.3054 31.1406C69.305 31.1951 69.2575 31.2396 69.1987 31.2396ZM66.74 31.2396H65.5108C65.4521 31.2396 65.4042 31.1951 65.4042 31.1406C65.4042 31.0861 65.4521 31.0416 65.5108 31.0416H66.74C66.7987 31.0416 66.8467 31.0861 66.8467 31.1406C66.8467 31.1951 66.7987 31.2396 66.74 31.2396ZM64.2812 31.2396H63.0521C62.9933 31.2396 62.9454 31.1951 62.9454 31.1406C62.9454 31.0861 62.9933 31.0416 63.0521 31.0416H64.2812C64.34 31.0416 64.3879 31.0861 64.3879 31.1406C64.3879 31.1951 64.34 31.2396 64.2812 31.2396ZM61.8225 31.2396H60.5933C60.5346 31.2396 60.4867 31.1951 60.4867 31.1406C60.4867 31.0861 60.5346 31.0416 60.5933 31.0416H61.8225C61.8812 31.0416 61.9292 31.0861 61.9292 31.1406C61.9292 31.1951 61.8812 31.2396 61.8225 31.2396ZM59.3637 31.2396H58.1346C58.0758 31.2396 58.0279 31.1951 58.0279 31.1406C58.0279 31.0861 58.0758 31.0416 58.1346 31.0416H59.3637C59.4225 31.0416 59.4704 31.0861 59.4704 31.1406C59.4704 31.1951 59.4229 31.2396 59.3637 31.2396ZM56.905 31.2396H55.6758C55.6171 31.2396 55.5692 31.1951 55.5692 31.1406C55.5692 31.0861 55.6171 31.0416 55.6758 31.0416H56.905C56.9637 31.0416 57.0117 31.0861 57.0117 31.1406C57.0117 31.1951 56.9642 31.2396 56.905 31.2396ZM54.4462 31.2396H53.2171C53.1583 31.2396 53.1104 31.1951 53.1104 31.1406C53.1104 31.0861 53.1583 31.0416 53.2171 31.0416H54.4462C54.505 31.0416 54.5529 31.0861 54.5529 31.1406C54.5529 31.1951 54.5054 31.2396 54.4462 31.2396ZM51.9879 31.2396H50.7587C50.7 31.2396 50.6521 31.1951 50.6521 31.1406C50.6521 31.0861 50.7 31.0416 50.7587 31.0416H51.9879C52.0467 31.0416 52.0946 31.0861 52.0946 31.1406C52.0946 31.1951 52.0467 31.2396 51.9879 31.2396ZM49.5292 31.2396H48.3C48.2412 31.2396 48.1933 31.1951 48.1933 31.1406C48.1933 31.0861 48.2412 31.0416 48.3 31.0416H49.5292C49.5879 31.0416 49.6358 31.0861 49.6358 31.1406C49.6358 31.1951 49.5879 31.2396 49.5292 31.2396Z" fill="#5BB3E4"/>
<path d="M47.0704 31.2395H46.4304C46.3717 31.2395 46.3238 31.1951 46.3238 31.1405V30.5466C46.3238 30.4921 46.3717 30.4476 46.4304 30.4476C46.4892 30.4476 46.5371 30.4921 46.5371 30.5466V31.0416H47.0704C47.1292 31.0416 47.1771 31.086 47.1771 31.1405C47.1771 31.1951 47.1292 31.2395 47.0704 31.2395Z" fill="#5BB3E4"/>
<path d="M46.4304 29.3821C46.3717 29.3821 46.3238 29.3376 46.3238 29.2831V28.0191C46.3238 27.9645 46.3717 27.9201 46.4304 27.9201C46.4892 27.9201 46.5371 27.9645 46.5371 28.0191V29.2831C46.5371 29.3376 46.4896 29.3821 46.4304 29.3821ZM46.4304 26.8544C46.3717 26.8544 46.3238 26.81 46.3238 26.7554V25.4918C46.3238 25.4373 46.3717 25.3928 46.4304 25.3928C46.4892 25.3928 46.5371 25.4373 46.5371 25.4918V26.7554C46.5371 26.81 46.4896 26.8544 46.4304 26.8544Z" fill="#5BB3E4"/>
<path d="M46.4304 24.3268C46.3717 24.3268 46.3238 24.2823 46.3238 24.2278V23.6339C46.3238 23.5794 46.3717 23.5349 46.4304 23.5349H47.0704C47.1292 23.5349 47.1771 23.5794 47.1771 23.6339C47.1771 23.6884 47.1292 23.7329 47.0704 23.7329H46.5371V24.2278C46.5371 24.2823 46.4896 24.3268 46.4304 24.3268Z" fill="#5BB3E4"/>
<path d="M76.5746 23.7329H75.3454C75.2867 23.7329 75.2387 23.6884 75.2387 23.6339C75.2387 23.5794 75.2867 23.5349 75.3454 23.5349H76.5746C76.6333 23.5349 76.6812 23.5794 76.6812 23.6339C76.6812 23.6884 76.6333 23.7329 76.5746 23.7329ZM74.1158 23.7329H72.8867C72.8279 23.7329 72.78 23.6884 72.78 23.6339C72.78 23.5794 72.8279 23.5349 72.8867 23.5349H74.1158C74.1746 23.5349 74.2225 23.5794 74.2225 23.6339C74.2225 23.6884 74.175 23.7329 74.1158 23.7329ZM71.6571 23.7329H70.4279C70.3692 23.7329 70.3212 23.6884 70.3212 23.6339C70.3212 23.5794 70.3692 23.5349 70.4279 23.5349H71.6571C71.7158 23.5349 71.7637 23.5794 71.7637 23.6339C71.7637 23.6884 71.7162 23.7329 71.6571 23.7329ZM69.1987 23.7329H67.9696C67.9108 23.7329 67.8629 23.6884 67.8629 23.6339C67.8629 23.5794 67.9108 23.5349 67.9696 23.5349H69.1987C69.2575 23.5349 69.3054 23.5794 69.3054 23.6339C69.3054 23.6884 69.2575 23.7329 69.1987 23.7329ZM66.74 23.7329H65.5108C65.4521 23.7329 65.4042 23.6884 65.4042 23.6339C65.4042 23.5794 65.4521 23.5349 65.5108 23.5349H66.74C66.7987 23.5349 66.8467 23.5794 66.8467 23.6339C66.8467 23.6884 66.7987 23.7329 66.74 23.7329ZM64.2812 23.7329H63.0521C62.9933 23.7329 62.9454 23.6884 62.9454 23.6339C62.9454 23.5794 62.9933 23.5349 63.0521 23.5349H64.2812C64.34 23.5349 64.3879 23.5794 64.3879 23.6339C64.3879 23.6884 64.34 23.7329 64.2812 23.7329ZM61.8225 23.7329H60.5933C60.5346 23.7329 60.4867 23.6884 60.4867 23.6339C60.4867 23.5794 60.5346 23.5349 60.5933 23.5349H61.8225C61.8812 23.5349 61.9292 23.5794 61.9292 23.6339C61.9292 23.6884 61.8812 23.7329 61.8225 23.7329ZM59.3637 23.7329H58.1346C58.0758 23.7329 58.0279 23.6884 58.0279 23.6339C58.0279 23.5794 58.0758 23.5349 58.1346 23.5349H59.3637C59.4225 23.5349 59.4704 23.5794 59.4704 23.6339C59.4704 23.6884 59.4229 23.7329 59.3637 23.7329ZM56.905 23.7329H55.6758C55.6171 23.7329 55.5692 23.6884 55.5692 23.6339C55.5692 23.5794 55.6171 23.5349 55.6758 23.5349H56.905C56.9637 23.5349 57.0117 23.5794 57.0117 23.6339C57.0117 23.6884 56.9642 23.7329 56.905 23.7329ZM54.4462 23.7329H53.2171C53.1583 23.7329 53.1104 23.6884 53.1104 23.6339C53.1104 23.5794 53.1583 23.5349 53.2171 23.5349H54.4462C54.505 23.5349 54.5529 23.5794 54.5529 23.6339C54.5529 23.6884 54.5054 23.7329 54.4462 23.7329ZM51.9879 23.7329H50.7587C50.7 23.7329 50.6521 23.6884 50.6521 23.6339C50.6521 23.5794 50.7 23.5349 50.7587 23.5349H51.9879C52.0467 23.5349 52.0946 23.5794 52.0946 23.6339C52.0946 23.6884 52.0467 23.7329 51.9879 23.7329ZM49.5292 23.7329H48.3C48.2412 23.7329 48.1933 23.6884 48.1933 23.6339C48.1933 23.5794 48.2412 23.5349 48.3 23.5349H49.5292C49.5879 23.5349 49.6358 23.5794 49.6358 23.6339C49.6358 23.6884 49.5879 23.7329 49.5292 23.7329Z" fill="#5BB3E4"/>
<path d="M78.4438 24.3268C78.385 24.3268 78.3371 24.2823 78.3371 24.2278V23.7329H77.8038C77.745 23.7329 77.6971 23.6884 77.6971 23.6339C77.6971 23.5794 77.745 23.5349 77.8038 23.5349H78.4438C78.5025 23.5349 78.5504 23.5794 78.5504 23.6339V24.2278C78.5504 24.2823 78.5025 24.3268 78.4438 24.3268Z" fill="#5BB3E4"/>
<path d="M78.4438 29.3821C78.385 29.3821 78.3371 29.3376 78.3371 29.2831V28.0191C78.3371 27.9645 78.385 27.9201 78.4438 27.9201C78.5025 27.9201 78.5504 27.9645 78.5504 28.0191V29.2831C78.5504 29.3376 78.5025 29.3821 78.4438 29.3821ZM78.4438 26.8544C78.385 26.8544 78.3371 26.81 78.3371 26.7554V25.4918C78.3371 25.4373 78.385 25.3928 78.4438 25.3928C78.5025 25.3928 78.5504 25.4373 78.5504 25.4918V26.7554C78.5504 26.81 78.5025 26.8544 78.4438 26.8544Z" fill="#5BB3E4"/>
<path d="M52.0754 28.577C52.0754 28.621 52.0742 28.6582 52.0712 28.6891C52.0683 28.72 52.0642 28.7463 52.0583 28.7684C52.0525 28.7904 52.045 28.8093 52.0354 28.8252C52.0258 28.841 52.0108 28.8592 51.99 28.8793C51.9692 28.8994 51.9287 28.9253 51.8692 28.957C51.8096 28.9888 51.7367 29.0189 51.6504 29.0479C51.5642 29.0769 51.4658 29.1013 51.3546 29.1206C51.2438 29.1399 51.1238 29.1496 50.995 29.1496C50.7429 29.1496 50.5154 29.1136 50.3129 29.0413C50.11 28.9694 49.9375 28.8615 49.7954 28.7181C49.6533 28.5746 49.5442 28.396 49.4683 28.1814C49.3925 27.9668 49.3546 27.717 49.3546 27.432C49.3546 27.142 49.3963 26.8841 49.4796 26.6591C49.5629 26.434 49.6796 26.245 49.8292 26.0918C49.9788 25.9387 50.1583 25.8227 50.3679 25.7435C50.5775 25.6642 50.8079 25.6248 51.06 25.6248C51.1625 25.6248 51.2608 25.6329 51.3558 25.6483C51.4504 25.6642 51.5383 25.6847 51.6187 25.7102C51.6992 25.7357 51.7717 25.7651 51.8362 25.7988C51.9008 25.832 51.9458 25.8606 51.9713 25.8846C51.9967 25.9082 52.0142 25.9283 52.0237 25.9438C52.0333 25.9596 52.0408 25.9797 52.0467 26.0045C52.0525 26.0292 52.0567 26.0582 52.0596 26.0915C52.0625 26.1247 52.0638 26.1661 52.0638 26.2156C52.0638 26.2682 52.0617 26.313 52.0579 26.3501C52.0542 26.3869 52.0475 26.417 52.0379 26.4398C52.0283 26.4627 52.0171 26.4793 52.0037 26.4901C51.9904 26.5006 51.9754 26.506 51.9583 26.506C51.93 26.506 51.8938 26.4905 51.8504 26.46C51.8067 26.429 51.7504 26.395 51.6812 26.3571C51.6121 26.3192 51.5296 26.2852 51.4338 26.2542C51.3379 26.2233 51.2237 26.2082 51.0912 26.2082C50.9454 26.2082 50.815 26.2361 50.7004 26.2914C50.5858 26.3467 50.4883 26.4259 50.4075 26.5288C50.3271 26.6316 50.2658 26.7561 50.2242 26.9019C50.1825 27.0481 50.1617 27.2124 50.1617 27.3953C50.1617 27.5956 50.1837 27.7696 50.2283 27.9161C50.2729 28.0631 50.3363 28.1837 50.4188 28.2788C50.5013 28.374 50.6008 28.4447 50.7171 28.4911C50.8337 28.5379 50.965 28.5611 51.1108 28.5611C51.2433 28.5611 51.3583 28.5464 51.455 28.5174C51.5517 28.4884 51.6346 28.4563 51.7038 28.4211C51.7729 28.3859 51.8296 28.3542 51.8742 28.326C51.9187 28.2978 51.9533 28.2839 51.9779 28.2839C51.9967 28.2839 52.0121 28.2873 52.0233 28.2943C52.0346 28.3013 52.0442 28.3156 52.0517 28.3364C52.0592 28.3577 52.065 28.3871 52.0688 28.425C52.0738 28.4633 52.0754 28.5135 52.0754 28.577Z" fill="#5BB3E4"/>
<path d="M55.8792 27.3477C55.8792 27.6308 55.8412 27.884 55.7654 28.1075C55.6896 28.331 55.5767 28.5205 55.4271 28.6759C55.2775 28.8314 55.0921 28.9505 54.8712 29.0321C54.6504 29.1137 54.395 29.1546 54.105 29.1546C53.8187 29.1546 53.5692 29.1198 53.3558 29.0506C53.1425 28.981 52.965 28.8751 52.8229 28.7328C52.6808 28.5905 52.5742 28.4091 52.5029 28.1895C52.4317 27.9699 52.3962 27.7093 52.3962 27.4088C52.3962 27.1328 52.4342 26.8841 52.51 26.6637C52.5858 26.4429 52.6987 26.2554 52.8483 26.1004C52.9979 25.9453 53.1833 25.827 53.4042 25.7442C53.625 25.6615 53.8812 25.6201 54.1729 25.6201C54.4517 25.6201 54.6975 25.6545 54.9104 25.723C55.1237 25.7914 55.3017 25.897 55.445 26.0396C55.5879 26.1819 55.6962 26.3617 55.7692 26.5791C55.8425 26.796 55.8792 27.0523 55.8792 27.3477ZM55.0946 27.3845C55.0946 27.2051 55.0796 27.0419 55.0492 26.895C55.0187 26.748 54.9671 26.6224 54.8942 26.5176C54.8212 26.4128 54.7242 26.332 54.6029 26.2747C54.4817 26.2175 54.33 26.1889 54.1479 26.1889C53.9642 26.1889 53.8104 26.221 53.6875 26.2852C53.5642 26.3494 53.465 26.4352 53.3892 26.5423C53.3133 26.6494 53.26 26.7747 53.2287 26.9182C53.1975 27.0616 53.1817 27.2132 53.1817 27.3733C53.1817 27.5596 53.1967 27.7271 53.2271 27.8759C53.2575 28.0244 53.3087 28.1516 53.3804 28.2572C53.4525 28.3627 53.5492 28.4432 53.6704 28.4985C53.7917 28.5538 53.9442 28.5816 54.1279 28.5816C54.3117 28.5816 54.4654 28.5499 54.5883 28.4865C54.7117 28.4231 54.8108 28.3368 54.8867 28.2278C54.9625 28.1188 55.0158 27.9915 55.0471 27.8465C55.0787 27.7027 55.0946 27.548 55.0946 27.3845Z" fill="#5BB3E4"/>
<path d="M59.5404 28.8515C59.5404 28.8921 59.5329 28.9281 59.5175 28.9598C59.5025 28.9915 59.4821 29.0178 59.4563 29.0391C59.4308 29.0603 59.4004 29.0754 59.3654 29.0851C59.3304 29.0948 59.295 29.0998 59.2588 29.0998H58.9404C58.8742 29.0998 58.8167 29.0936 58.7683 29.0812C58.72 29.0688 58.6754 29.0464 58.6346 29.0139C58.5938 28.9815 58.5546 28.9374 58.5167 28.8821C58.4788 28.8268 58.4363 28.7549 58.3888 28.6671L57.4733 27.0709C57.4204 26.9758 57.3663 26.8733 57.3113 26.7635C57.2563 26.6537 57.2071 26.5466 57.1633 26.443H57.1575C57.165 26.5694 57.1708 26.6959 57.1746 26.8215C57.1783 26.9472 57.1804 27.0771 57.1804 27.2105V28.9965C57.1804 29.0143 57.1754 29.0298 57.165 29.0441C57.1546 29.058 57.1367 29.07 57.1108 29.0797C57.0854 29.0893 57.0508 29.0967 57.0071 29.1021C56.9633 29.1075 56.9075 29.1102 56.8392 29.1102C56.7729 29.1102 56.7179 29.1075 56.6742 29.1021C56.6304 29.0967 56.5967 29.0893 56.5717 29.0797C56.5471 29.07 56.53 29.058 56.5204 29.0441C56.5108 29.0302 56.5063 29.0143 56.5063 28.9965V25.9283C56.5063 25.8456 56.5325 25.7837 56.5846 25.7424C56.6367 25.701 56.7008 25.6805 56.7767 25.6805H57.1775C57.2496 25.6805 57.31 25.6863 57.3596 25.6975C57.4088 25.7091 57.4529 25.7277 57.4917 25.7543C57.5304 25.7806 57.5671 25.8174 57.6013 25.8638C57.6354 25.9102 57.6704 25.9678 57.7063 26.0366L58.4225 27.2844C58.4642 27.3602 58.5054 27.4344 58.5463 27.5071C58.5871 27.5802 58.6263 27.6529 58.6642 27.726C58.7021 27.799 58.7392 27.8706 58.775 27.9409C58.8108 28.0113 58.8463 28.0817 58.88 28.1521H58.8829C58.8771 28.0291 58.8729 27.9007 58.87 27.7669C58.8671 27.6331 58.8658 27.5059 58.8658 27.3845V25.7833C58.8658 25.7659 58.8717 25.7501 58.8829 25.7358C58.8942 25.7219 58.9133 25.7095 58.9396 25.699C58.9663 25.6886 59.0013 25.6809 59.0446 25.6766C59.0883 25.6724 59.1442 25.67 59.2125 25.67C59.2771 25.67 59.3308 25.6724 59.3746 25.6766C59.4183 25.6809 59.4517 25.6886 59.4754 25.699C59.4992 25.7095 59.5158 25.7219 59.525 25.7358C59.5346 25.7497 59.5392 25.7656 59.5392 25.7833V28.8515H59.5404Z" fill="#5BB3E4"/>
<path d="M62.7896 25.9654C62.7896 26.0165 62.7871 26.0598 62.7825 26.0961C62.7779 26.1321 62.7708 26.1611 62.7613 26.1831C62.7517 26.2051 62.74 26.2214 62.7258 26.2318C62.7117 26.2423 62.6958 26.2477 62.6788 26.2477H61.7579V28.9992C61.7579 29.017 61.7517 29.0325 61.7396 29.0468C61.7271 29.0607 61.7071 29.0723 61.6783 29.0812C61.65 29.0901 61.6117 29.097 61.5633 29.1024C61.515 29.1079 61.455 29.1106 61.3829 29.1106C61.3108 29.1106 61.2508 29.1079 61.2025 29.1024C61.1542 29.097 61.1158 29.0901 61.0875 29.0812C61.0592 29.0723 61.0388 29.0611 61.0263 29.0468C61.0138 29.0328 61.0079 29.017 61.0079 28.9992V26.2477H60.0871C60.0679 26.2477 60.0521 26.2423 60.0388 26.2318C60.0254 26.2214 60.0142 26.2051 60.0046 26.1831C59.995 26.1611 59.9879 26.1321 59.9833 26.0961C59.9788 26.0601 59.9763 26.0165 59.9763 25.9654C59.9763 25.9124 59.9788 25.868 59.9833 25.8309C59.9879 25.7941 59.995 25.7643 60.0046 25.7423C60.0142 25.7203 60.0254 25.7044 60.0388 25.6947C60.0521 25.6851 60.0679 25.6801 60.0871 25.6801H62.6796C62.6967 25.6801 62.7121 25.6851 62.7267 25.6947C62.7408 25.7044 62.7529 25.7203 62.7621 25.7423C62.7717 25.7643 62.7788 25.7937 62.7833 25.8309C62.7871 25.868 62.7896 25.9124 62.7896 25.9654Z" fill="#5BB3E4"/>
<path d="M65.9537 29.0042C65.9537 29.0235 65.95 29.0398 65.9425 29.0529C65.935 29.0661 65.9171 29.0773 65.8883 29.0858C65.86 29.0947 65.8183 29.1009 65.7633 29.1044C65.7083 29.1078 65.6333 29.1098 65.5387 29.1098C65.4592 29.1098 65.3958 29.1078 65.3483 29.1044C65.3008 29.1009 65.2633 29.0943 65.2362 29.0846C65.2087 29.075 65.1892 29.0626 65.1779 29.0479C65.1667 29.0328 65.1571 29.015 65.1496 28.9938L64.82 28.2313C64.7804 28.145 64.7412 28.0685 64.7033 28.0016C64.6654 27.9347 64.6233 27.879 64.5767 27.8342C64.5304 27.7893 64.4767 27.7553 64.4162 27.7325C64.3554 27.7096 64.2854 27.698 64.2058 27.698H63.9729V28.9988C63.9729 29.0166 63.9667 29.032 63.9546 29.0464C63.9421 29.0603 63.9221 29.0719 63.8933 29.0808C63.865 29.0897 63.8271 29.0966 63.7796 29.102C63.7321 29.1074 63.6717 29.1102 63.5975 29.1102C63.5254 29.1102 63.4654 29.1074 63.4171 29.102C63.3687 29.0966 63.3304 29.0897 63.3021 29.0808C63.2737 29.0719 63.2537 29.0607 63.2425 29.0464C63.2312 29.0324 63.2254 29.0166 63.2254 28.9988V25.8993C63.2254 25.8219 63.2466 25.7663 63.2891 25.7318C63.3316 25.6974 63.3846 25.6804 63.4471 25.6804H64.3996C64.4962 25.6804 64.5758 25.6824 64.6383 25.6858C64.7008 25.6893 64.7575 25.6936 64.8087 25.699C64.9567 25.7183 65.0896 25.7516 65.2083 25.7991C65.3267 25.8467 65.4271 25.9086 65.5096 25.9851C65.5921 26.0617 65.655 26.1522 65.6987 26.2569C65.7425 26.3617 65.7642 26.4816 65.7642 26.6169C65.7642 26.7314 65.7483 26.8354 65.7171 26.9294C65.6858 27.0233 65.64 27.1072 65.5792 27.1815C65.5183 27.2553 65.4437 27.3195 65.3546 27.374C65.2654 27.4285 65.1641 27.4726 65.0504 27.5059C65.1054 27.5306 65.1571 27.5604 65.2054 27.5956C65.2537 27.6308 65.2991 27.6733 65.3416 27.7236C65.3841 27.7738 65.4246 27.8307 65.4625 27.8949C65.5004 27.959 65.5375 28.0317 65.5733 28.1126L65.8833 28.7854C65.9116 28.8522 65.9308 28.901 65.94 28.9319C65.9487 28.9624 65.9537 28.9868 65.9537 29.0042ZM64.99 26.6881C64.99 26.5756 64.9625 26.4804 64.9075 26.4031C64.8525 26.3258 64.7625 26.2712 64.6375 26.2395C64.5996 26.2306 64.5566 26.2237 64.5083 26.2183C64.46 26.2129 64.3933 26.2105 64.3079 26.2105H63.9725V27.1788H64.3533C64.4596 27.1788 64.5525 27.1668 64.6321 27.1432C64.7117 27.1196 64.7779 27.086 64.8312 27.043C64.8841 27.0001 64.9241 26.9487 64.9508 26.8888C64.9766 26.8288 64.99 26.7619 64.99 26.6881Z" fill="#5BB3E4"/>
<path d="M69.5154 28.8357C69.5383 28.8991 69.5525 28.949 69.5579 28.9861C69.5638 29.0229 69.5558 29.0507 69.535 29.0693C69.5142 29.0878 69.4771 29.099 69.4242 29.1037C69.3713 29.1079 69.2983 29.1103 69.2054 29.1103C69.1088 29.1103 69.0333 29.1091 68.9796 29.1064C68.9254 29.1037 68.8842 29.0983 68.8558 29.0905C68.8275 29.0824 68.8075 29.0716 68.7963 29.0577C68.785 29.0438 68.7754 29.0252 68.7679 29.0024L68.5204 28.3164H67.1388L66.9058 28.9838C66.8983 29.0086 66.8883 29.0291 66.8758 29.0457C66.8633 29.0623 66.8438 29.0755 66.8163 29.0851C66.7888 29.0948 66.75 29.1014 66.6996 29.1048C66.6492 29.1083 66.5833 29.1103 66.5021 29.1103C66.415 29.1103 66.3467 29.1076 66.2975 29.1021C66.2483 29.0967 66.2142 29.084 66.195 29.0639C66.1763 29.0438 66.1696 29.0151 66.175 28.978C66.1808 28.9413 66.195 28.8918 66.2175 28.8303L67.3517 25.8019C67.3629 25.7722 67.3763 25.7478 67.3913 25.7292C67.4063 25.7107 67.4304 25.6968 67.4638 25.6871C67.4971 25.6774 67.5429 25.6712 67.6017 25.6685C67.6604 25.6658 67.7379 25.6647 67.8346 25.6647C67.9463 25.6647 68.0354 25.6658 68.1017 25.6685C68.1679 25.6712 68.2196 25.6774 68.2567 25.6871C68.2938 25.6968 68.32 25.7115 68.3363 25.7308C68.3525 25.7501 68.3663 25.7764 68.3775 25.8101L69.5154 28.8357ZM67.8271 26.3321H67.8242L67.3038 27.7828H68.3471L67.8271 26.3321Z" fill="#5BB3E4"/>
<path d="M72.5058 28.577C72.5058 28.621 72.5046 28.6582 72.5017 28.6891C72.4988 28.72 72.4946 28.7463 72.4888 28.7684C72.4829 28.7904 72.4754 28.8093 72.4658 28.8252C72.4563 28.841 72.4413 28.8592 72.4204 28.8793C72.3996 28.8994 72.3592 28.9253 72.2996 28.957C72.24 28.9888 72.1671 29.0189 72.0808 29.0479C71.9946 29.0769 71.8963 29.1013 71.785 29.1206C71.6742 29.1399 71.5542 29.1496 71.4254 29.1496C71.1733 29.1496 70.9458 29.1136 70.7433 29.0413C70.5404 28.9694 70.3679 28.8615 70.2258 28.7181C70.0838 28.5746 69.9746 28.396 69.8988 28.1814C69.8229 27.9668 69.785 27.717 69.785 27.432C69.785 27.142 69.8267 26.8841 69.91 26.6591C69.9933 26.434 70.11 26.245 70.2596 26.0918C70.4092 25.9387 70.5888 25.8227 70.7983 25.7435C71.0079 25.6642 71.2383 25.6248 71.4904 25.6248C71.5929 25.6248 71.6913 25.6329 71.7863 25.6483C71.8808 25.6642 71.9688 25.6847 72.0492 25.7102C72.1296 25.7357 72.2021 25.7651 72.2667 25.7988C72.3313 25.832 72.3763 25.8606 72.4017 25.8846C72.4271 25.9082 72.4446 25.9283 72.4542 25.9438C72.4638 25.9596 72.4713 25.9797 72.4771 26.0045C72.4829 26.0292 72.4871 26.0582 72.49 26.0915C72.4929 26.1247 72.4942 26.1661 72.4942 26.2156C72.4942 26.2682 72.4921 26.313 72.4883 26.3501C72.4846 26.3869 72.4779 26.417 72.4683 26.4398C72.4588 26.4627 72.4475 26.4793 72.4342 26.4901C72.4208 26.5006 72.4058 26.506 72.3888 26.506C72.3604 26.506 72.3242 26.4905 72.2808 26.46C72.2371 26.429 72.1808 26.395 72.1117 26.3571C72.0425 26.3192 71.96 26.2852 71.8642 26.2542C71.7683 26.2233 71.6542 26.2082 71.5217 26.2082C71.3758 26.2082 71.2454 26.2361 71.1308 26.2914C71.0163 26.3467 70.9188 26.4259 70.8379 26.5288C70.7575 26.6316 70.6963 26.7561 70.6546 26.9019C70.6129 27.0481 70.5921 27.2124 70.5921 27.3953C70.5921 27.5956 70.6142 27.7696 70.6588 27.9161C70.7033 28.0631 70.7667 28.1837 70.8492 28.2788C70.9317 28.374 71.0313 28.4447 71.1475 28.4911C71.2642 28.5379 71.3954 28.5611 71.5413 28.5611C71.6738 28.5611 71.7888 28.5464 71.8854 28.5174C71.9821 28.4884 72.065 28.4563 72.1342 28.4211C72.2033 28.3859 72.26 28.3542 72.3046 28.326C72.3492 28.2978 72.3838 28.2839 72.4083 28.2839C72.4271 28.2839 72.4425 28.2873 72.4538 28.2943C72.465 28.3013 72.4746 28.3156 72.4821 28.3364C72.4896 28.3577 72.4954 28.3871 72.4992 28.425C72.5042 28.4633 72.5058 28.5135 72.5058 28.577Z" fill="#5BB3E4"/>
<path d="M75.5191 25.9654C75.5191 26.0165 75.5166 26.0598 75.5121 26.0961C75.5075 26.1321 75.5004 26.1611 75.4908 26.1831C75.4812 26.2051 75.4696 26.2214 75.4554 26.2318C75.4412 26.2423 75.4254 26.2477 75.4083 26.2477H74.4875V28.9992C74.4875 29.017 74.4812 29.0325 74.4691 29.0468C74.4566 29.0607 74.4366 29.0723 74.4079 29.0812C74.3796 29.0901 74.3412 29.097 74.2929 29.1024C74.2446 29.1079 74.1846 29.1106 74.1125 29.1106C74.0404 29.1106 73.9804 29.1079 73.9321 29.1024C73.8837 29.097 73.8454 29.0901 73.8171 29.0812C73.7887 29.0723 73.7683 29.0611 73.7558 29.0468C73.7433 29.0328 73.7375 29.017 73.7375 28.9992V26.2477H72.8166C72.7979 26.2477 72.7816 26.2423 72.7683 26.2318C72.755 26.2214 72.7437 26.2051 72.7341 26.1831C72.7246 26.1611 72.7175 26.1321 72.7129 26.0961C72.7083 26.0601 72.7058 26.0165 72.7058 25.9654C72.7058 25.9124 72.7083 25.868 72.7129 25.8309C72.7175 25.7941 72.7246 25.7643 72.7341 25.7423C72.7437 25.7203 72.755 25.7044 72.7683 25.6947C72.7816 25.6851 72.7975 25.6801 72.8166 25.6801H75.4091C75.4262 25.6801 75.4416 25.6851 75.4562 25.6947C75.4704 25.7044 75.4825 25.7203 75.4916 25.7423C75.5012 25.7643 75.5083 25.7937 75.5129 25.8309C75.5166 25.868 75.5191 25.9124 75.5191 25.9654Z" fill="#5BB3E4"/>
<path d="M36.8333 38.2653C53.7413 38.4512 72.3546 38.3987 89.3204 38.4563C71.875 38.5908 54.2633 38.6577 36.8333 38.2653Z" fill="black"/>
<path d="M36.8333 36.2577C48.3667 36.3845 61.0629 36.3486 72.6354 36.388C60.7358 36.4796 48.7225 36.5253 36.8333 36.2577Z" fill="black"/>
<path d="M36.8333 41.4778C53.7413 41.6638 72.3546 41.6112 89.3204 41.6688C71.875 41.8034 54.2633 41.8702 36.8333 41.4778Z" fill="black"/>
<path d="M36.8333 44.6902C53.7413 44.8762 72.3546 44.8236 89.3204 44.8812C71.875 45.0158 54.2633 45.0827 36.8333 44.6902Z" fill="black"/>
<path d="M36.8333 47.9026C53.7413 48.0886 72.3546 48.036 89.3204 48.0936C71.875 48.2282 54.2633 48.2951 36.8333 47.9026Z" fill="black"/>
<path d="M36.8333 51.115C53.7413 51.301 72.3546 51.2484 89.3204 51.306C71.875 51.4406 54.2633 51.5075 36.8333 51.115Z" fill="black"/>
<path d="M36.8333 54.3274C53.7413 54.5134 72.3546 54.4608 89.3204 54.5184C71.875 54.653 54.2633 54.7199 36.8333 54.3274Z" fill="black"/>
<path d="M36.8333 57.5399C53.7413 57.7259 72.3546 57.6733 89.3204 57.7309C71.875 57.8655 54.2633 57.932 36.8333 57.5399Z" fill="black"/>
<path d="M36.8333 60.7523C53.7413 60.9383 72.3546 60.8857 89.3204 60.9433C71.875 61.0775 54.2633 61.1444 36.8333 60.7523Z" fill="black"/>
<path d="M36.8333 63.9647C53.7413 64.1507 72.3546 64.0981 89.3204 64.1557C71.875 64.2899 54.2633 64.3568 36.8333 63.9647Z" fill="black"/>
<path d="M36.8333 67.1771C53.7413 67.3631 72.3546 67.3105 89.3204 67.3681C71.875 67.5023 54.2633 67.5692 36.8333 67.1771Z" fill="black"/>
<path d="M79.8833 89.2357C83.663 89.2357 86.7271 86.3923 86.7271 82.8847C86.7271 79.3771 83.663 76.5337 79.8833 76.5337C76.1036 76.5337 73.0396 79.3771 73.0396 82.8847C73.0396 86.3923 76.1036 89.2357 79.8833 89.2357Z" fill="#F9FCF8"/>
<path d="M79.8833 88.4829C83.215 88.4829 85.9158 85.9766 85.9158 82.8848C85.9158 79.793 83.215 77.2866 79.8833 77.2866C76.5517 77.2866 73.8508 79.793 73.8508 82.8848C73.8508 85.9766 76.5517 88.4829 79.8833 88.4829Z" fill="#5893CE"/>
<path d="M79.8833 87.7018C82.7502 87.7018 85.0742 85.5451 85.0742 82.8847C85.0742 80.2243 82.7502 78.0676 79.8833 78.0676C77.0165 78.0676 74.6925 80.2243 74.6925 82.8847C74.6925 85.5451 77.0165 87.7018 79.8833 87.7018Z" fill="#F9FCF8"/>
<path d="M84.1833 82.8851C84.1833 83.8448 83.8188 84.7256 83.2088 85.4143L82.5638 84.9394C83.0617 84.3815 83.3604 83.6658 83.3604 82.8851C83.3604 81.1029 81.8046 79.658 79.8842 79.658C79.3992 79.658 78.9371 79.75 78.5183 79.9162L78.1375 79.2365C78.6717 79.0169 79.2625 78.8943 79.8842 78.8943C82.2588 78.8939 84.1833 80.6811 84.1833 82.8851Z" fill="#558BC9"/>
<path d="M75.3704 83.3653C75.3125 82.4067 75.6238 81.5085 76.1913 80.7893L76.8642 81.2301C76.4004 81.8132 76.1454 82.5428 76.1925 83.3227C76.3 85.1022 77.9404 86.464 79.8579 86.3643C80.3425 86.3391 80.7979 86.2231 81.2063 86.0356L81.6275 86.6945C81.1075 86.9416 80.525 87.0947 79.9042 87.1268C77.5329 87.2501 75.5033 85.5654 75.3704 83.3653Z" fill="#558BC9"/>
<path d="M74.8246 70.7434L75.0496 70.9495C76.0175 71.8357 76.0808 73.2664 75.1946 74.2234C74.3633 75.1208 72.9512 75.3223 71.8679 74.6978L64.3962 70.3923L65.7287 65.9866L68.7712 65.5153L75.1329 68.3855L74.8246 70.7434Z" fill="#F7CFB4"/>
<path d="M63.2833 74.8026L68.7179 77.6787C69.6171 78.1546 70.7529 77.9806 71.4396 77.2614C72.3192 76.3408 72.1212 74.9117 71.0196 74.2269L70.6171 73.9767L69.35 71.7453L67.3633 70.0652L65.1254 71.862L63.2833 74.8026Z" fill="#F7CFB4"/>
<path d="M67.5546 77.0631C68.3563 79.2655 64.3963 80.1406 62.2838 78.9156L46.5021 70.8942L43.8771 67.7324C42.8746 66.4247 41.5808 65.223 40.03 64.1156L46.5425 52.6346L48.7617 53.1713L67.6396 59.1685L78.615 66.6138C79.7317 67.3713 80.1121 68.7579 79.5213 69.919C78.7979 71.34 76.9175 71.8802 75.4558 71.0868L67.5137 66.7758" fill="#F7CFB4"/>
<path d="M50.2013 76.8256C49.1604 76.1926 48.8696 74.8965 49.5517 73.9306L51.6688 70.9324C52.3508 69.9665 53.7475 69.6966 54.7883 70.3296C55.8292 70.9626 56.12 72.2587 55.4379 73.2246L53.3208 76.2228C52.6383 77.1887 51.2421 77.4586 50.2013 76.8256Z" fill="#ECC5AB"/>
<path d="M54.1325 79.0242C53.0917 78.3913 52.8008 77.0951 53.4829 76.1293L55.6 73.131C56.2821 72.1651 57.6788 71.8953 58.7196 72.5282C59.7604 73.1612 60.0512 74.4573 59.3692 75.4232L57.2521 78.4214C56.57 79.3873 55.1733 79.6572 54.1325 79.0242Z" fill="#ECC5AB"/>
<path d="M58.795 80.8931C57.7487 80.3324 57.3904 79.0912 57.9946 78.1203L59.1254 76.3022C59.7296 75.3313 61.0671 74.9987 62.1133 75.5594C63.1596 76.1201 63.5179 77.3613 62.9137 78.3322L61.7829 80.1503C61.1787 81.1208 59.8412 81.4537 58.795 80.8931Z" fill="#ECC5AB"/>
<path d="M46.7366 74.0343C45.7262 73.4199 45.4441 72.1617 46.1062 71.224L47.3462 69.4681C48.0083 68.5305 49.3641 68.2687 50.3746 68.8831C51.385 69.4975 51.6671 70.7557 51.005 71.6934L49.765 73.4493C49.1029 74.3869 47.7471 74.6487 46.7366 74.0343Z" fill="#ECC5AB"/>
<path d="M76.9821 53.0228C76.1233 53.2657 74.8937 53.1632 73.6342 52.9613C70.9925 52.5376 68.3258 52.2599 65.6458 52.1969L61.845 52.1072C59.2283 51.9827 56.7042 53.0232 55.0492 54.9078L51.2696 59.3309C50.5217 60.2063 50.6392 61.4707 51.5375 62.2143C52.3354 62.8743 53.5212 62.9292 54.3854 62.3457L60.5483 58.1864C62.7892 59.7497 65.165 60.1839 67.6896 59.3765L79.5833 67.7537L84.4867 64.9302L78.2254 52.7494L76.9821 53.0228Z" fill="#ECC5AB"/>
<path d="M81.7438 50.1503L76.4821 51.9378L83.3221 66.7796L88.2192 64.9789L81.7438 50.1503Z" fill="#ECEFF0"/>
<path d="M83.555 64.0866C83.6304 64.5645 84.1087 64.8951 84.6237 64.8251C85.1387 64.7551 85.495 64.3112 85.4196 63.8333C85.3442 63.3554 84.8658 63.0248 84.3508 63.0948C83.8358 63.1644 83.4796 63.6087 83.555 64.0866Z" fill="#2A90CB"/>
<path d="M80.0983 48.4803L87.0179 63.819L88.7312 67.6188L123.958 55.9167L120.635 34.8348L80.0983 48.4803Z" fill="#5BB3E4"/>
<path d="M87.0179 63.8189L88.7313 67.6187L123.958 55.9166L123.233 51.3134L87.0179 63.8189Z" fill="#2A90CB"/>
<path d="M43.2562 50.1503L48.5179 51.9378L41.6779 66.7796L36.7808 64.9789L43.2562 50.1503Z" fill="#ECEFF0"/>
<path d="M41.445 64.0866C41.3696 64.5645 40.8912 64.8951 40.3762 64.8251C39.8612 64.7551 39.505 64.3112 39.5804 63.8333C39.6558 63.3554 40.1342 63.0248 40.6492 63.0948C41.1642 63.1644 41.5204 63.6087 41.445 64.0866Z" fill="#67747F"/>
<path d="M44.9017 48.4803L37.9821 63.819L36.2687 67.6188L1.04166 55.9167L4.36457 34.8348L44.9017 48.4803Z" fill="#37424C"/>
<path d="M37.9821 63.8189L36.2687 67.6187L1.04166 55.9166L1.76707 51.3134L37.9821 63.8189Z" fill="#67747F"/>
<path d="M37.3592 87.5564C43.665 87.457 50.3587 87.4585 56.6704 87.5564C50.3567 87.6542 43.6667 87.6557 37.3592 87.5564Z" fill="black"/>
<path d="M37.3592 89.9737C40.9779 89.8744 44.64 89.8736 48.2587 89.9737C44.6396 90.0735 40.9779 90.0727 37.3592 89.9737Z" fill="black"/>
<path d="M43.58 80.4977C43.5896 82.0471 43.5987 83.5961 43.6083 85.1455C43.6087 85.2363 43.7608 85.2363 43.7604 85.1455C43.7508 83.5961 43.7417 82.0471 43.7321 80.4977C43.7317 80.4069 43.5796 80.4065 43.58 80.4977Z" fill="black"/>
<path d="M46.0083 80.3845C46.0804 80.9981 45.9663 81.6156 45.9283 82.2285C45.89 82.8491 45.8875 83.4712 45.9183 84.0922C45.9229 84.1827 46.075 84.1831 46.0704 84.0922C46.0396 83.4712 46.0421 82.8491 46.0808 82.2285C46.1187 81.616 46.2329 80.9981 46.1608 80.3845C46.15 80.2948 45.9975 80.294 46.0083 80.3845Z" fill="black"/>
<path d="M43.1492 83.7221C43.5337 83.0814 44.1442 82.5803 44.8633 82.2802C45.2237 82.1298 45.6137 82.0308 46.0075 81.9953C46.2004 81.9779 46.3946 81.9748 46.5879 81.9875C46.6842 81.9937 46.7846 81.9991 46.8775 82.0258C47.0254 82.0687 47.0804 82.1809 47.1283 82.3069C47.3167 82.8038 47.4079 83.3269 47.4087 83.8532C47.4087 83.9352 47.5312 83.946 47.5583 83.8721C47.8012 83.2071 48.2325 82.6186 48.8062 82.1611C48.7662 82.1565 48.7267 82.1515 48.6867 82.1468C48.8104 82.3626 48.9337 82.5784 49.0575 82.7941C49.0783 82.8305 49.1254 82.8347 49.1617 82.8196C49.6592 82.612 50.0942 82.2984 50.4342 81.9025C50.4033 81.9063 50.3729 81.9098 50.3421 81.9137C50.4662 81.9887 50.4308 82.1816 50.465 82.3C50.4946 82.4024 50.5604 82.4879 50.6575 82.5451C50.8896 82.6816 51.1967 82.646 51.4533 82.612C52.1571 82.5188 52.8283 82.2605 53.4012 81.8719C53.3667 81.8398 53.3317 81.8073 53.2971 81.7752C53.1608 81.9926 53.2729 82.235 53.4746 82.3788C53.7287 82.5602 54.0425 82.5219 54.3083 82.3808C54.4529 82.3042 54.5808 82.2014 54.7017 82.0958C54.8421 81.9728 55.0021 81.8491 55.1204 81.7072C55.325 81.4621 55.0717 81.2478 54.8237 81.1651C54.2496 80.9737 53.5858 80.9547 52.9871 81.0298C52.3646 81.1079 51.76 81.3031 51.2171 81.5962C50.6817 81.8855 50.2071 82.2706 49.8375 82.7322C49.6467 82.9704 49.4887 83.228 49.3617 83.5006C49.2896 83.6552 49.2237 83.8192 49.1083 83.9518C48.9837 84.0945 48.8062 84.1737 48.6183 84.2217C48.2058 84.3272 47.7592 84.3562 47.3362 84.405C46.8933 84.456 46.4496 84.4997 46.005 84.5368C45.0962 84.6122 44.1846 84.6579 43.2725 84.6741C42.3604 84.6903 41.4475 84.6764 40.5367 84.6335C39.6283 84.5906 38.7121 84.5333 37.8112 84.4123C37.0721 84.3129 36.1546 84.0345 35.9692 83.2628C35.9462 83.1665 35.9429 83.1413 36.0183 83.0802C36.0892 83.023 36.1692 82.9758 36.2529 82.9368C36.4246 82.8571 36.6162 82.8154 36.8058 82.7945C37.1771 82.7539 37.5533 82.7875 37.9237 82.8181C39.7325 82.9677 41.5296 83.2295 43.3346 83.4116C45.1696 83.5968 47.0092 83.7465 48.8508 83.8613C52.5246 84.0902 56.2083 84.1784 59.8896 84.1262C60.3408 84.1196 60.7925 84.1111 61.2437 84.1007C61.3417 84.0983 61.3421 83.9572 61.2437 83.9595C57.6329 84.0438 54.0192 83.9943 50.4129 83.8091C48.61 83.7163 46.8087 83.5899 45.0112 83.4298C43.2171 83.2701 41.43 83.0632 39.6417 82.8541C39.1883 82.8011 38.7346 82.7508 38.2796 82.7083C37.8971 82.6727 37.5104 82.6309 37.125 82.6356C36.8017 82.6394 36.4679 82.6785 36.1758 82.815C36.0521 82.8726 35.9204 82.9515 35.8312 83.0512C35.75 83.1425 35.82 83.3177 35.8587 83.4201C36.0971 84.0519 36.7883 84.3717 37.4517 84.4982C37.8608 84.5763 38.2812 84.6091 38.6967 84.6474C39.1308 84.6872 39.5658 84.7201 40.0012 84.7464C41.7825 84.8535 43.5717 84.8473 45.3521 84.7278C46.2292 84.6691 47.1042 84.5821 47.975 84.4688C48.3212 84.4235 48.7096 84.4007 49.0108 84.2194C49.3042 84.0431 49.4054 83.7422 49.545 83.4623C50.0796 82.3912 51.1658 81.6098 52.3787 81.2915C52.9871 81.1322 53.635 81.0862 54.2596 81.1848C54.4658 81.2173 55.2762 81.3414 54.9692 81.6538C54.8408 81.7845 54.6975 81.9079 54.5575 82.0277C54.4062 82.1569 54.2371 82.2841 54.0362 82.339C53.8558 82.3885 53.6796 82.363 53.5358 82.2454C53.4112 82.1437 53.3379 81.9902 53.4275 81.8476C53.4633 81.7903 53.3875 81.7076 53.3233 81.7509C52.7871 82.1144 52.1687 82.3607 51.5129 82.4624C51.2712 82.4999 50.8725 82.5729 50.6787 82.3827C50.5075 82.2145 50.6512 81.9342 50.4175 81.793C50.3921 81.7776 50.3454 81.7807 50.3254 81.8042C49.9921 82.1925 49.5717 82.4956 49.0837 82.6994C49.1183 82.7079 49.1533 82.7164 49.1879 82.7245C49.0642 82.5088 48.9408 82.293 48.8171 82.0772C48.7925 82.0343 48.7329 82.0347 48.6975 82.0629C48.1042 82.5362 47.6617 83.1491 47.4104 83.8366C47.4604 83.8428 47.51 83.8489 47.56 83.8555C47.5592 83.3521 47.4779 82.8502 47.31 82.3707C47.2446 82.1843 47.1792 81.9891 46.9679 81.9087C46.7858 81.8394 46.5575 81.8418 46.3637 81.841C45.4987 81.8375 44.6454 82.1279 43.9675 82.6217C43.5804 82.9035 43.2562 83.2542 43.0171 83.6533C42.9704 83.7302 43.1017 83.8018 43.1492 83.7221Z" fill="black"/>
</svg>
