<svg width="13" height="14" viewBox="0 0 13 14" fill="none" xmlns="http://www.w3.org/2000/svg">
<g clip-path="url(#clip0_387_71)">
<path d="M11.9108 10.4207L10.4711 9.03029C10.3235 8.87443 10.143 8.7965 9.92971 8.7965C9.71643 8.7965 9.53186 8.87443 9.376 9.03029L8.29318 10.1131C8.17014 10.2362 8.02043 10.2977 7.84406 10.2977C7.6677 10.2977 7.51799 10.2362 7.39494 10.1131L3.40822 5.97873C3.29338 5.86388 3.23391 5.72443 3.22981 5.56037C3.2257 5.39631 3.28108 5.25275 3.39592 5.12971L4.38029 4.02228C4.52795 3.87463 4.60178 3.69416 4.60178 3.48088C4.60178 3.2676 4.52795 3.08713 4.38029 2.93947L3.00217 1.48752C2.85451 1.33986 2.67404 1.26603 2.46076 1.26603C2.24748 1.26603 2.06291 1.33986 1.90705 1.48752L0.701192 2.69338C0.520723 2.87385 0.383321 3.08097 0.288985 3.31476C0.194649 3.54855 0.159786 3.78849 0.184395 4.03459C0.291036 5.10099 0.610958 6.1674 1.14416 7.23381C1.67736 8.30021 2.36438 9.26613 3.2052 10.1316C4.04602 10.997 5.01604 11.7127 6.11525 12.2787C7.21447 12.8447 8.38342 13.1688 9.62209 13.2508C9.79436 13.259 9.95637 13.2303 10.1081 13.1647C10.2599 13.099 10.3973 13.0088 10.5203 12.894L11.9108 11.5035C12.0584 11.3559 12.1322 11.1754 12.1322 10.9621C12.1322 10.7488 12.0584 10.5684 11.9108 10.4207Z" fill="#393939"/>
</g>
<defs>
<clipPath id="clip0_387_71">
<rect width="12.6" height="12.6" fill="white" transform="matrix(1 0 0 -1 0 13.3)"/>
</clipPath>
</defs>
</svg>
