<svg width="12" height="14" viewBox="0 0 12 14" fill="none" xmlns="http://www.w3.org/2000/svg">
<g clip-path="url(#clip0_387_73)">
<path d="M11.0291 12.0942C11.0127 11.684 10.8814 11.321 10.6354 11.0052C10.3893 10.6894 10.0693 10.474 9.67559 10.3592L8.1498 9.91623C7.74785 9.79318 7.3377 9.70295 6.91934 9.64553C6.50918 9.5881 6.09492 9.55939 5.67656 9.55939C5.2582 9.55939 4.83984 9.5881 4.42148 9.64553C4.01133 9.70295 3.60527 9.79318 3.20332 9.91623L1.66523 10.3592C1.27969 10.474 0.961816 10.6894 0.711621 11.0052C0.461426 11.321 0.328125 11.6799 0.311719 12.0819C0.303516 12.3279 0.297363 12.5699 0.293262 12.8078C0.28916 13.0457 0.287109 13.2508 0.287109 13.4231H11.066C11.066 13.2672 11.0619 13.0683 11.0537 12.8263C11.0455 12.5843 11.0373 12.3403 11.0291 12.0942ZM5.67656 7.65217C6.06211 7.65217 6.43945 7.56193 6.80859 7.38146C7.17773 7.20099 7.50586 6.95285 7.79297 6.63703C8.08008 6.32121 8.31387 5.95412 8.49434 5.53576C8.6666 5.1174 8.75273 4.66623 8.75273 4.18224C8.75273 3.69826 8.6666 3.2676 8.49434 2.89025C8.31387 2.50471 8.08008 2.18068 7.79297 1.91818C7.50586 1.65568 7.17773 1.45471 6.80859 1.31525C6.43945 1.1758 6.06211 1.10607 5.67656 1.10607C5.29102 1.10607 4.91367 1.1758 4.54453 1.31525C4.17539 1.45471 3.84727 1.65568 3.56016 1.91818C3.27305 2.18068 3.03926 2.50471 2.85879 2.89025C2.67832 3.2676 2.58809 3.69826 2.58809 4.18224C2.58809 4.66623 2.67832 5.1174 2.85879 5.53576C3.03926 5.95412 3.27305 6.32121 3.56016 6.63703C3.84727 6.95285 4.17539 7.20099 4.54453 7.38146C4.91367 7.56193 5.29102 7.65217 5.67656 7.65217Z" fill="#393939"/>
</g>
<defs>
<clipPath id="clip0_387_73">
<rect width="11.354" height="12.6" fill="white" transform="matrix(1 0 0 -1 0 13.3)"/>
</clipPath>
</defs>
</svg>
