<svg width="18" height="17" viewBox="0 0 18 17" fill="none" xmlns="http://www.w3.org/2000/svg">
<path d="M7.04347 4.13379C6.52357 4.13379 6.03687 4.2334 5.58334 4.43262C5.11876 4.63184 4.71502 4.90023 4.37211 5.23779C4.0292 5.57536 3.76372 5.97656 3.57568 6.44141C3.37657 6.89518 3.27702 7.38216 3.27702 7.90234C3.27702 8.43359 3.37657 8.92611 3.57568 9.37988C3.76372 9.83366 4.0292 10.2321 4.37211 10.5752C4.71502 10.9183 5.11876 11.1895 5.58334 11.3887C6.03687 11.5879 6.52357 11.6875 7.04347 11.6875C7.56336 11.6875 8.05559 11.5879 8.52018 11.3887C8.9737 11.1895 9.37191 10.9183 9.71482 10.5752C10.0577 10.2321 10.3287 9.83366 10.5278 9.37988C10.727 8.92611 10.8265 8.43359 10.8265 7.90234C10.8265 7.38216 10.727 6.89518 10.5278 6.44141C10.3287 5.97656 10.0577 5.57536 9.71482 5.23779C9.37191 4.90023 8.9737 4.63184 8.52018 4.43262C8.05559 4.2334 7.56336 4.13379 7.04347 4.13379ZM1.3855 7.90234C1.3855 7.1276 1.53483 6.39714 1.83349 5.71094C2.13215 5.01367 2.5359 4.41048 3.04473 3.90137C3.55356 3.39225 4.15088 2.98828 4.83669 2.68945C5.53357 2.39062 6.26916 2.24121 7.04347 2.24121C7.82883 2.24121 8.56442 2.39062 9.25024 2.68945C9.93605 2.98828 10.5361 3.39225 11.0505 3.90137C11.5649 4.41048 11.9714 5.01367 12.27 5.71094C12.5687 6.39714 12.718 7.1276 12.718 7.90234C12.718 8.68815 12.5687 9.42415 12.27 10.1104C11.9714 10.7965 11.5649 11.397 11.0505 11.9116C10.5361 12.4263 9.93605 12.833 9.25024 13.1318C8.56442 13.4307 7.82883 13.5801 7.04347 13.5801C6.26916 13.5801 5.53357 13.4307 4.83669 13.1318C4.15088 12.833 3.55356 12.4263 3.04473 11.9116C2.5359 11.397 2.13215 10.7965 1.83349 10.1104C1.53483 9.42415 1.3855 8.68815 1.3855 7.90234ZM13.9293 16.1367L12.0377 14.2441C11.8608 14.056 11.7723 13.8319 11.7723 13.5718C11.7723 13.3117 11.8608 13.0931 12.0377 12.916C12.2258 12.7279 12.4498 12.6338 12.7097 12.6338C12.9697 12.6338 13.1937 12.7279 13.3817 12.916L15.2732 14.792C15.4502 14.9801 15.5387 15.2043 15.5387 15.4644C15.5387 15.7244 15.4502 15.9486 15.2732 16.1367C15.0852 16.3138 14.8612 16.4023 14.6012 16.4023C14.3413 16.4023 14.1173 16.3138 13.9293 16.1367Z" fill="#393939"/>
</svg>
