<svg width="50" height="51" viewBox="0 0 50 51" fill="none" xmlns="http://www.w3.org/2000/svg">
<path fill-rule="evenodd" clip-rule="evenodd" d="M10.1647 6.44533C11.3368 5.27323 12.9265 4.61475 14.5841 4.61475H35.4175C37.0751 4.61475 38.6648 5.27323 39.8369 6.44533C41.009 7.61743 41.6675 9.20714 41.6675 10.8647V42.1147H43.7508C44.9014 42.1147 45.8341 43.0475 45.8341 44.1981C45.8341 45.3487 44.9014 46.2814 43.7508 46.2814H6.25081C5.10022 46.2814 4.16748 45.3487 4.16748 44.1981C4.16748 43.0475 5.10022 42.1147 6.25081 42.1147H8.33415V10.8647C8.33415 9.20714 8.99263 7.61743 10.1647 6.44533ZM12.5008 42.1147H18.7508V33.7814C18.7508 32.6763 19.1898 31.6165 19.9712 30.8351C20.7526 30.0537 21.8124 29.6147 22.9175 29.6147H27.0841C28.1892 29.6147 29.249 30.0537 30.0304 30.8351C30.8118 31.6165 31.2508 32.6763 31.2508 33.7814V42.1147H37.5008V10.8647C37.5008 10.3122 37.2813 9.78231 36.8906 9.39161C36.4999 9.00091 35.97 8.78141 35.4175 8.78141H14.5841C14.0316 8.78141 13.5017 9.00091 13.111 9.39161C12.7203 9.78231 12.5008 10.3122 12.5008 10.8647V42.1147ZM27.0841 42.1147V33.7814H22.9175V42.1147H27.0841ZM16.6675 15.0314C16.6675 13.8808 17.6002 12.9481 18.7508 12.9481H20.8341C21.9847 12.9481 22.9175 13.8808 22.9175 15.0314C22.9175 16.182 21.9847 17.1147 20.8341 17.1147H18.7508C17.6002 17.1147 16.6675 16.182 16.6675 15.0314ZM27.0841 15.0314C27.0841 13.8808 28.0169 12.9481 29.1675 12.9481H31.2508C32.4014 12.9481 33.3341 13.8808 33.3341 15.0314C33.3341 16.182 32.4014 17.1147 31.2508 17.1147H29.1675C28.0169 17.1147 27.0841 16.182 27.0841 15.0314ZM16.6675 23.3647C16.6675 22.2142 17.6002 21.2814 18.7508 21.2814H20.8341C21.9847 21.2814 22.9175 22.2142 22.9175 23.3647C22.9175 24.5153 21.9847 25.4481 20.8341 25.4481H18.7508C17.6002 25.4481 16.6675 24.5153 16.6675 23.3647ZM27.0841 23.3647C27.0841 22.2142 28.0169 21.2814 29.1675 21.2814H31.2508C32.4014 21.2814 33.3341 22.2142 33.3341 23.3647C33.3341 24.5153 32.4014 25.4481 31.2508 25.4481H29.1675C28.0169 25.4481 27.0841 24.5153 27.0841 23.3647Z" fill="#6665B7"/>
</svg>
