<svg width="50" height="51" viewBox="0 0 50 51" fill="none" xmlns="http://www.w3.org/2000/svg">
<path d="M41.6675 15.0316H33.3341V10.8649L29.1675 6.69824H20.8341L16.6675 10.8649V15.0316H8.33415C6.04248 15.0316 4.16748 16.9066 4.16748 19.1982V29.6149C4.16748 31.1774 5.00081 32.4899 6.25081 33.2191V40.0316C6.25081 42.3441 8.10498 44.1982 10.4175 44.1982H39.5841C41.8966 44.1982 43.7508 42.3441 43.7508 40.0316V33.1982C44.98 32.4691 45.8341 31.1357 45.8341 29.6149V19.1982C45.8341 16.9066 43.9591 15.0316 41.6675 15.0316ZM20.8341 10.8649H29.1675V15.0316H20.8341V10.8649ZM8.33415 19.1982H41.6675V29.6149H31.2508V23.3649H18.7508V29.6149H8.33415V19.1982ZM27.0841 31.6982H22.9175V27.5316H27.0841V31.6982ZM39.5841 40.0316H10.4175V33.7816H18.7508V35.8649H31.2508V33.7816H39.5841V40.0316Z" fill="#6665B7"/>
</svg>
