<svg width="50" height="51" viewBox="0 0 50 51" fill="none" xmlns="http://www.w3.org/2000/svg">
<path d="M35.4167 31.6982H39.5833V35.8648H35.4167V31.6982ZM35.4167 23.3648H39.5833V27.5315H35.4167V23.3648ZM35.4167 15.0315H39.5833V19.1982H35.4167V15.0315ZM28.625 15.0315L31.25 16.7815V15.0315H28.625Z" fill="#6665B7"/>
<path d="M20.834 6.69824V9.84408L25.0007 12.6149V10.8649H43.7506V40.0316H35.4173V44.1982H47.9173V6.69824H20.834Z" fill="#6665B7"/>
<path d="M17.0205 12.3232L31.2497 21.8024V44.1982H2.08301V22.2816L17.0205 12.3232ZM20.833 40.0316H27.083V23.6982L17.0205 17.3024L6.24967 24.1566V40.0316H12.4997V27.5316H20.833V40.0316Z" fill="#6665B7"/>
</svg>
