<svg width="64" height="65" viewBox="0 0 64 65" fill="none" xmlns="http://www.w3.org/2000/svg">
<g clip-path="url(#clip0_1_2174)">
<path d="M32 13.1667C36.72 13.1667 40.9467 14.7933 44.28 17.9667L53.4133 8.83333C47.8667 3.67333 40.6267 0.5 32 0.5C19.4933 0.5 8.68 7.67333 3.41333 18.1267L14.0533 26.38C16.5733 18.7933 23.6533 13.1667 32 13.1667Z" fill="#EA4335"/>
<path d="M62.64 33.2334C62.64 31.1401 62.44 29.1134 62.1333 27.1667H32V39.1934H49.2533C48.48 43.1401 46.24 46.5001 42.88 48.7668L53.1867 56.7668C59.2 51.1934 62.64 42.9534 62.64 33.2334Z" fill="#4285F4"/>
<path d="M14.04 38.62C13.4 36.6867 13.0267 34.6334 13.0267 32.5C13.0267 30.3667 13.3867 28.3134 14.04 26.38L3.4 18.1267C1.22667 22.4467 0 27.3267 0 32.5C0 37.6734 1.22667 42.5534 3.41333 46.8734L14.04 38.62Z" fill="#FBBC05"/>
<path d="M32 64.5C40.64 64.5 47.9067 61.66 53.1867 56.7534L42.88 48.7534C40.0134 50.6867 36.32 51.82 32 51.82C23.6534 51.82 16.5734 46.1934 14.04 38.6067L3.40002 46.86C8.68002 57.3267 19.4934 64.5 32 64.5Z" fill="#34A853"/>
</g>
<defs>
<clipPath id="clip0_1_2174">
<rect width="64" height="64" fill="white" transform="translate(0 0.5)"/>
</clipPath>
</defs>
</svg>
