<svg width="33" height="33" viewBox="0 0 33 33" fill="none" xmlns="http://www.w3.org/2000/svg">
<rect x="16.5986" y="-1.61401" width="25.7193" height="25.7193" rx="4.53869" transform="rotate(45 16.5986 -1.61401)" fill="#B2EBF2"/>
<path fill-rule="evenodd" clip-rule="evenodd" d="M16.5662 13.2988C14.783 13.2988 13.3242 14.7577 13.3242 16.5408C13.3242 18.324 14.783 19.7827 16.5662 19.7827C18.3494 19.7827 19.8081 18.324 19.8081 16.5408C19.8081 14.7577 18.3494 13.2988 16.5662 13.2988ZM24.3042 15.6763C23.915 12.0886 21.0188 9.19242 17.4311 8.80343V7.46338H15.7021V8.80339C12.1145 9.19238 9.2183 12.0886 8.8291 15.6762H7.48926V17.4053H8.82906C9.21826 20.9929 12.1144 23.8891 15.7021 24.2783V25.6182H17.4311V24.2784C21.0187 23.8892 23.915 20.9929 24.3042 17.4053H25.644V15.6763H24.3042ZM16.5672 22.5923C13.2387 22.5923 10.5156 19.8692 10.5156 16.5407C10.5156 13.2122 13.2387 10.4891 16.5672 10.4891C19.8957 10.4891 22.6188 13.2123 22.6188 16.5407C22.6188 19.8692 19.8957 22.5923 16.5672 22.5923Z" fill="#00BCD4"/>
</svg>
