<svg width="33" height="33" viewBox="0 0 33 33" fill="none" xmlns="http://www.w3.org/2000/svg">
<rect x="16.5986" y="-1.65479" width="25.7193" height="25.7193" rx="4.53869" transform="rotate(45 16.5986 -1.65479)" fill="#FBEABB"/>
<path fill-rule="evenodd" clip-rule="evenodd" d="M16.5669 13.5664C17.6002 13.5664 18.5755 13.9726 19.3132 14.7103C20.0509 15.448 20.4572 16.4234 20.4572 17.4567C20.4572 18.1708 20.278 18.8358 19.9245 19.4332C19.5866 20.0045 19.0963 20.4883 18.5068 20.8323L17.8636 21.2076V21.9523V24.8266H15.2701V21.9523V21.2076L14.6269 20.8323C13.4239 20.1303 12.6765 18.8368 12.6765 17.4567C12.6765 16.4234 13.0828 15.448 13.8205 14.7103C14.5582 13.9726 15.5335 13.5664 16.5669 13.5664ZM17.431 7.96851C17.1718 7.96851 15.702 7.96851 15.702 7.96851V10.562H17.431V7.96851ZM22.6613 10.1513L21.1053 11.7077L22.3156 12.9179L23.8719 11.362L22.6613 10.1513ZM10.4721 10.1513L9.26145 11.3619L10.8178 12.9179L12.0281 11.7077L10.4721 10.1513ZM16.5668 12.2695C13.7141 12.2695 11.3798 14.6039 11.3798 17.4566C11.3798 19.3587 12.4173 21.0442 13.9733 21.9523V26.1232H19.1604V21.9522C20.7163 21.0442 21.7539 19.4017 21.7539 17.4566C21.7539 14.6038 19.4196 12.2695 16.5668 12.2695ZM25.6442 16.5922H23.0507V18.3212H25.6442V16.5922ZM10.0828 16.5922H7.48926V18.3212H10.0828V16.5922Z" fill="#F38D21"/>
</svg>
