<svg width="33" height="33" viewBox="0 0 33 33" fill="none" xmlns="http://www.w3.org/2000/svg">
<rect x="16.5527" y="-1.61401" width="25.7193" height="25.7193" rx="4.53869" transform="rotate(45 16.5527 -1.61401)" fill="#BBDEFB"/>
<path fill-rule="evenodd" clip-rule="evenodd" d="M13.0141 15.0312L11.7434 16.302L15.8282 20.3868L24.9056 11.3094L23.6348 10.0387L15.8282 17.7997L13.0141 15.0312ZM23.9975 16.7559C23.9975 20.7498 20.7295 24.0178 16.7356 24.0178C12.7417 24.0178 9.47368 20.7498 9.47368 16.7559C9.47368 12.7619 12.7416 9.49394 16.7356 9.49394C17.4164 9.49394 18.0972 9.58481 18.7328 9.76631L20.1396 8.35927C19.0958 7.9054 17.9611 7.67847 16.7356 7.67847C11.743 7.67847 7.6582 11.7633 7.6582 16.7559C7.6582 21.7484 11.743 25.8332 16.7356 25.8332C21.7282 25.8332 25.813 21.7484 25.813 16.7559H23.9975Z" fill="#2196F3"/>
</svg>
