<svg width="33" height="33" viewBox="0 0 33 33" fill="none" xmlns="http://www.w3.org/2000/svg">
<rect x="16.5527" y="-1.65479" width="25.7193" height="25.7193" rx="4.53869" transform="rotate(45 16.5527 -1.65479)" fill="#EDE7F6"/>
<path fill-rule="evenodd" clip-rule="evenodd" d="M20.271 14.438L16.8584 17.0338C16.8099 17.0298 16.7613 17.0258 16.7128 17.0258C15.9971 17.0258 15.4189 17.604 15.4189 18.3196C15.4189 19.0353 15.9971 19.6135 16.7128 19.6135C17.4285 19.6135 18.0067 19.0353 18.0067 18.3196C18.0067 18.2711 18.0027 18.2226 17.9986 18.1741L20.5945 14.7615L20.271 14.438Z" fill="#651FFF"/>
<path fill-rule="evenodd" clip-rule="evenodd" d="M16.7124 7.96851C11.7108 7.96851 7.65527 12.024 7.65527 17.0257C7.65527 18.4166 7.97066 19.7307 8.52864 20.9073H9.9883C9.36562 19.8318 9.00981 18.6188 8.95724 17.3491H10.243V16.7022H8.95724C9.00576 15.5377 9.30902 14.4177 9.8387 13.4109L10.9506 14.0538L11.2741 13.4918L10.1622 12.8529C10.4614 12.3839 10.8172 11.9391 11.2215 11.5348C11.634 11.1264 12.0828 10.7665 12.5599 10.4633L13.1987 11.5671L13.7608 11.2436L13.1219 10.1398C14.1247 9.61416 15.2326 9.319 16.389 9.27047V10.5563H17.0359V9.27047C18.1923 9.319 19.3002 9.61821 20.303 10.1398L19.6682 11.2436L20.2302 11.5671L20.869 10.4633C21.3462 10.7665 21.795 11.1264 22.2074 11.5348C22.6117 11.9391 22.9635 12.3798 23.2668 12.8529L22.1589 13.4918L22.4824 14.0538L23.5943 13.4109C24.124 14.4177 24.4272 15.5377 24.4757 16.7022H23.1819V17.3491H24.4677C24.4151 18.6188 24.0593 19.8318 23.4366 20.9073H24.8963C25.4542 19.7307 25.7696 18.4166 25.7696 17.0257C25.7696 12.024 21.7141 7.96851 16.7124 7.96851Z" fill="#651FFF"/>
</svg>
