<svg width="215" height="61" viewBox="0 0 215 61" fill="none" xmlns="http://www.w3.org/2000/svg">
<path d="M214.808 13.2905V54.616L207.779 60.1835V19.7712L214.808 13.2905Z" fill="#E79224"/>
<path d="M207.893 19.7714H161.348V60.2335H207.893V19.7714Z" fill="url(#paint0_linear_0_1)"/>
<path d="M168.637 13.3188L161.347 19.7724H207.891L214.806 13.2917L168.635 13.3188" fill="#FEF26F"/>
<path d="M110.991 15.0911L156.774 9.92438L152.943 18.8364L109.57 24.4207L109.755 18.05L110.991 15.0911Z" fill="#91C9ED"/>
<path d="M152.944 18.8348L159.287 55.0846L114.142 60.2343L108.046 25.1894L110.682 23.5171L152.946 18.8358" fill="url(#paint1_linear_0_1)"/>
<path d="M156.775 9.92316L156.811 10.1418L162.748 47.26L159.287 55.0846L152.945 18.8352" fill="#0B9AD6"/>
<mask id="mask0_0_1" style="mask-type:luminance" maskUnits="userSpaceOnUse" x="54" y="11" width="59" height="50">
<path d="M72.3221 11.9986L112.855 26.8461L94.5658 60.5519L54.0328 45.7054L72.3221 11.9972" fill="white"/>
</mask>
<g mask="url(#mask0_0_1)">
<path d="M0.192993 0.460545H214.809V60.5395H0.192993V0.460545Z" fill="url(#paint2_linear_0_1)"/>
</g>
<path d="M68.113 0.460815L72.3201 11.9983L112.852 26.8454L109.445 15.821L68.113 0.460815Z" fill="#98D0A0"/>
<path d="M68.113 0.460815L51.7988 31.8932L54.0308 45.7058L72.3201 11.9983L68.113 0.460815Z" fill="#68BF6B"/>
<path d="M45.5002 18.7831L52.1809 54.4539L7.38684 60.1559L0.1922 24.4168L45.4993 18.785" fill="url(#paint3_linear_0_1)"/>
<path d="M0.193054 24.4141L3.33821 11.6793L48.5664 5.7934L45.5011 18.7823L0.193054 24.4153" fill="#EF463D"/>
<path d="M48.5671 5.7934L55.1978 41.808L52.1822 54.452L45.5011 18.7823L48.5671 5.7934Z" fill="#761116"/>
<path d="M145.265 25.782C145.061 24.6562 144.587 23.797 143.82 23.2347C143.21 22.7847 142.442 22.5576 141.567 22.5588C141.336 22.5597 141.105 22.5741 140.876 22.6021C139.703 22.7385 138.806 23.1788 138.256 23.907C137.856 24.4327 137.662 25.0665 137.662 25.7964C137.662 26.0758 137.69 26.3702 137.746 26.679L139.393 36.1113L126.412 37.6613L124.766 28.2278C124.567 27.1314 124.1 26.2813 123.343 25.7027C122.731 25.2341 121.969 24.995 121.109 24.9962C120.907 24.9962 120.698 25.0094 120.485 25.0353C119.264 25.1776 118.333 25.6102 117.768 26.3269C117.358 26.8436 117.16 27.4804 117.16 28.2218C117.16 28.5066 117.19 28.807 117.246 29.1242L121.688 53.6542C121.892 54.7824 122.378 55.6398 123.176 56.1937C123.799 56.6262 124.58 56.8437 125.475 56.8425C125.719 56.8425 125.974 56.8269 126.236 56.7957C127.353 56.6641 128.217 56.2249 128.737 55.4986C129.11 54.9819 129.292 54.3613 129.292 53.6512C129.292 53.367 129.262 53.069 129.206 52.7572L127.391 43.0654L140.372 41.5165L142.187 51.2084C142.387 52.321 142.868 53.1729 143.655 53.7347C144.281 54.1811 145.054 54.4057 145.931 54.4045C146.157 54.4045 146.387 54.3907 146.625 54.3625C147.793 54.2243 148.687 53.7905 149.221 53.0684C149.606 52.5535 149.791 51.9293 149.791 51.2096C149.791 50.9248 149.763 50.6256 149.707 50.3108L145.265 25.782ZM92.4735 39.3495C90.9461 42.2693 88.9302 44.2735 86.4348 45.3832C85.0983 45.978 83.7285 46.2723 82.3113 46.2723C81.0799 46.2723 79.8107 46.0495 78.5001 45.5989C75.6636 44.6172 73.8964 43.0395 73.1312 40.8136C72.8716 40.0461 72.7421 39.2533 72.7463 38.4574C72.7463 36.8238 73.2518 35.0323 74.2708 33.0821C75.8323 30.0926 77.8711 28.0536 80.3673 26.9361C81.7008 26.3396 83.0721 26.0434 84.4937 26.0434C85.7384 26.0434 87.0246 26.2699 88.3574 26.7283C91.1762 27.7021 92.9257 29.284 93.6768 31.5195C93.9249 32.2729 94.0483 33.0497 94.0439 33.8295C94.0439 35.4973 93.5244 37.3381 92.4735 39.3495ZM96.9138 24.6664C95.3212 23.3026 93.3867 22.2308 91.1185 21.4498C88.8666 20.673 86.5895 20.2855 84.2954 20.2855L84.1896 20.2861C81.8599 20.2981 79.5577 20.7192 77.288 21.5459C74.9124 22.3852 72.8425 23.5591 71.0864 25.0677C69.3296 26.5751 67.8991 28.3882 66.7942 30.5006C65.7056 32.5883 65.101 34.6772 64.9885 36.7661C64.8753 38.8483 65.2655 40.9283 66.1371 42.8887C66.9622 44.7512 68.1796 46.3643 69.7847 47.7232C71.3891 49.0828 73.3628 50.1642 75.6976 50.9669C77.9318 51.7371 80.2 52.1222 82.4978 52.121H82.557C84.8733 52.1126 87.1719 51.7094 89.4438 50.917L89.446 50.9164L89.4475 50.9158C91.7981 50.0712 93.9221 48.8609 95.6994 47.3532C97.4755 45.8452 98.9119 44.0368 100.01 41.9365C101.108 39.8362 101.706 37.7454 101.804 35.6655C101.9 33.5889 101.49 31.5173 100.596 29.57C99.734 27.6655 98.5056 26.0296 96.9138 24.6664ZM40.6872 48.774C40.3342 48.4316 39.8591 48.1786 39.2796 48.014C38.6839 47.8452 37.9646 47.7641 37.1165 47.7641C36.3172 47.7641 35.4048 47.8362 34.3746 47.9798L22.5518 49.6199C22.6761 48.8803 23.129 47.9077 23.9268 46.7241C24.8178 45.3964 26.1314 43.8025 27.866 41.9467L27.8668 41.9455L29.2321 40.4652C29.4578 40.2381 29.7724 39.904 30.1794 39.4631C32.8842 36.5823 34.5582 34.2375 35.2005 32.3967C35.5676 31.3531 35.7911 30.3011 35.8717 29.2425C35.8939 28.9524 35.9043 28.664 35.9043 28.3786C35.9052 27.6275 35.8277 26.8776 35.6727 26.1371C35.5321 25.4666 35.3286 24.9091 35.0562 24.4621C34.7839 24.0157 34.4375 23.6757 34.0105 23.4618C33.5295 23.2239 32.8516 23.123 31.9658 23.1218C31.2339 23.1218 30.357 23.1939 29.3298 23.3356L15.6665 25.2341C14.0125 25.4636 12.7907 25.8589 12.0107 26.4549C11.3913 26.9271 11.0709 27.5381 11.0746 28.2392C11.0746 28.4225 11.0953 28.6117 11.1367 28.8082C11.3291 29.7508 11.9337 30.4417 12.9098 30.7932C13.4849 31.004 14.1812 31.105 14.9931 31.105C15.5459 31.105 16.1534 31.0581 16.8172 30.9668L28.2531 29.4005C28.2723 29.5646 28.2856 29.7286 28.2856 29.8908C28.2853 30.4722 28.1595 31.049 27.9141 31.5952C27.5744 32.3636 26.7264 33.4618 25.375 34.8581C24.9917 35.2396 24.4056 35.8337 23.6145 36.6382C20.5308 39.6709 18.3217 42.2567 16.9852 44.4075L16.9845 44.4099C16.0358 45.8902 15.3771 47.3495 15.016 48.7848C14.8106 49.5784 14.7042 50.3867 14.6985 51.1976C14.6985 51.7497 14.7533 52.2844 14.8628 52.8017C15.019 53.5442 15.2447 54.157 15.5488 54.6419C15.853 55.1249 16.2408 55.4866 16.7196 55.6998C17.1658 55.8963 17.8207 55.9744 18.7228 55.9762C19.8669 55.9762 21.4084 55.8392 23.3584 55.5695L35.7563 53.8482C37.9512 53.5418 39.4787 53.1165 40.3653 52.5253C41.0742 52.0525 41.442 51.403 41.4383 50.6388C41.4383 50.4454 41.4161 50.2453 41.3717 50.0381C41.2681 49.5412 41.0409 49.1158 40.6872 48.774ZM191.22 47.6614C189.437 49.4108 187.036 50.2796 183.936 50.282C180.815 50.2796 178.404 49.4138 176.61 47.6734C174.823 45.9311 173.918 43.5358 173.916 40.4616C173.918 37.3285 174.819 34.8983 176.597 33.1422C178.38 31.3867 180.799 30.5156 183.936 30.512C187.036 30.5156 189.436 31.3861 191.22 33.1422C193 34.8977 193.903 37.3285 193.903 40.4616C193.903 43.5214 193.002 45.9143 191.22 47.6614ZM200.787 34.3276C199.866 32.4489 198.502 30.7649 196.699 29.278C194.973 27.8493 193.033 26.7715 190.891 26.0476C188.747 25.3236 186.429 24.962 183.939 24.9626C181.433 24.9626 179.092 25.323 176.931 26.047C174.772 26.7709 172.833 27.8499 171.123 29.2792C169.323 30.7505 167.965 32.4291 167.063 34.3071C166.162 36.1876 165.711 38.2375 165.711 40.4556C165.711 42.6448 166.163 44.6881 167.077 46.5805C167.988 48.473 169.339 50.172 171.123 51.6722C172.796 53.075 174.715 54.1366 176.865 54.8527C179.017 55.5677 181.378 55.9263 183.94 55.9263C186.409 55.9263 188.724 55.5683 190.875 54.8527C193.027 54.1372 194.971 53.0762 196.697 51.674C198.502 50.172 199.865 48.4784 200.787 46.5914C201.708 44.7073 202.169 42.6592 202.169 40.4556C202.169 38.2513 201.708 36.2074 200.787 34.3276Z" fill="white"/>
<defs>
<linearGradient id="paint0_linear_0_1" x1="184.622" y1="20.3315" x2="184.622" y2="58.9957" gradientUnits="userSpaceOnUse">
<stop stop-color="#FFE500"/>
<stop offset="1" stop-color="#FCB822"/>
</linearGradient>
<linearGradient id="paint1_linear_0_1" x1="110.37" y1="24.4241" x2="149.189" y2="62.825" gradientUnits="userSpaceOnUse">
<stop stop-color="#168CCC"/>
<stop offset="1" stop-color="#00649E"/>
</linearGradient>
<linearGradient id="paint2_linear_0_1" x1="83.4416" y1="25.4852" x2="83.4416" y2="59.3581" gradientUnits="userSpaceOnUse">
<stop stop-color="#25A149"/>
<stop offset="1" stop-color="#008A52"/>
</linearGradient>
<linearGradient id="paint3_linear_0_1" x1="22.915" y1="22.1694" x2="27.6876" y2="57.6598" gradientUnits="userSpaceOnUse">
<stop stop-color="#D92231"/>
<stop offset="1" stop-color="#BA2234"/>
</linearGradient>
</defs>
</svg>
