<svg width="109" height="136" viewBox="0 0 109 136" fill="none" xmlns="http://www.w3.org/2000/svg">
<g opacity="0.3">
<path opacity="0.01" d="M60.3885 135.185C73.3881 135.047 83.9112 131.503 83.8924 127.269C83.8737 123.035 73.3202 119.715 60.3206 119.853C47.3209 119.991 36.7979 123.535 36.8166 127.769C36.8353 132.003 47.3888 135.323 60.3885 135.185Z" fill="#4C0000"/>
<path opacity="0.015" d="M60.4757 135.135C73.4125 134.998 83.8847 131.471 83.866 127.257C83.8474 123.043 73.3449 119.739 60.4081 119.876C47.4713 120.014 36.9991 123.541 37.0178 127.755C37.0364 131.969 47.5389 135.273 60.4757 135.135Z" fill="#4B0000"/>
<path opacity="0.023" d="M60.5625 135.085C73.4367 134.948 83.8582 131.438 83.8396 127.245C83.821 123.052 73.3694 119.764 60.4953 119.9C47.6211 120.037 37.1996 123.547 37.2182 127.74C37.2368 131.933 47.6884 135.222 60.5625 135.085Z" fill="#4B0101"/>
<path opacity="0.03" d="M60.6489 135.036C73.4602 134.899 83.8309 131.406 83.8124 127.233C83.7939 123.061 73.3933 119.788 60.582 119.924C47.7707 120.061 37.4001 123.554 37.4186 127.727C37.4371 131.899 47.8376 135.172 60.6489 135.036Z" fill="#4A0101"/>
<path opacity="0.038" d="M60.7366 134.985C73.4853 134.849 83.8052 131.374 83.7868 127.221C83.7684 123.069 73.4187 119.813 60.67 119.948C47.9214 120.084 37.6015 123.56 37.6198 127.712C37.6382 131.864 47.988 135.12 60.7366 134.985Z" fill="#4A0101"/>
<path opacity="0.046" d="M60.8231 134.935C73.5089 134.8 83.7779 131.341 83.7596 127.209C83.7413 123.077 73.4426 119.837 60.7568 119.972C48.071 120.107 37.8019 123.566 37.8202 127.698C37.8385 131.83 48.1372 135.07 60.8231 134.935Z" fill="#4A0101"/>
<path opacity="0.053" d="M60.9099 134.885C73.5331 134.75 83.7514 131.309 83.7332 127.197C83.715 123.086 73.4671 119.862 60.844 119.996C48.2208 120.13 38.0024 123.572 38.0206 127.683C38.0388 131.794 48.2867 135.019 60.9099 134.885Z" fill="#490101"/>
<path opacity="0.061" d="M60.9971 134.835C73.5574 134.702 83.7249 131.277 83.7068 127.186C83.6887 123.095 73.4918 119.886 60.9315 120.02C48.3712 120.153 38.2037 123.578 38.2218 127.669C38.2399 131.76 48.4368 134.969 60.9971 134.835Z" fill="#490101"/>
<path opacity="0.069" d="M61.0839 134.785C73.5816 134.652 83.6984 131.244 83.6804 127.174C83.6623 123.103 73.5164 119.911 61.0187 120.044C48.521 120.177 38.4042 123.584 38.4222 127.655C38.4402 131.725 48.5862 134.918 61.0839 134.785Z" fill="#480202"/>
<path opacity="0.076" d="M61.1711 134.734C73.606 134.602 83.6719 131.212 83.6539 127.162C83.636 123.112 73.541 119.936 61.1062 120.068C48.6714 120.2 38.6055 123.59 38.6234 127.64C38.6413 131.69 48.7363 134.866 61.1711 134.734Z" fill="#480202"/>
<path opacity="0.084" d="M61.258 134.684C73.6302 134.553 83.6454 131.179 83.6275 127.15C83.6097 123.12 73.5656 119.96 61.1934 120.091C48.8212 120.223 38.806 123.596 38.8238 127.626C38.8417 131.655 48.8858 134.816 61.258 134.684Z" fill="#480202"/>
<path opacity="0.092" d="M61.3444 134.634C73.6537 134.503 83.6181 131.147 83.6003 127.138C83.5826 123.129 73.5895 119.985 61.2801 120.116C48.9708 120.247 39.0065 123.603 39.0242 127.612C39.042 131.621 49.035 134.765 61.3444 134.634Z" fill="#470202"/>
<path opacity="0.099" d="M61.4312 134.584C73.6779 134.454 83.5916 131.115 83.5739 127.126C83.5562 123.137 73.614 120.009 61.3673 120.139C49.1206 120.269 39.2069 123.609 39.2246 127.597C39.2423 131.586 49.1845 134.714 61.4312 134.584Z" fill="#470202"/>
<path opacity="0.107" d="M61.5185 134.534C73.7024 134.404 83.5651 131.082 83.5475 127.114C83.53 123.146 73.6387 120.034 61.4549 120.163C49.271 120.293 39.4083 123.615 39.4259 127.583C39.4434 131.551 49.3346 134.663 61.5185 134.534Z" fill="#470303"/>
<path opacity="0.115" d="M61.6053 134.484C73.7266 134.355 83.5386 131.05 83.5211 127.102C83.5036 123.154 73.6633 120.058 61.542 120.187C49.4208 120.316 39.6088 123.621 39.6263 127.569C39.6437 131.517 49.4841 134.613 61.6053 134.484Z" fill="#460303"/>
<path opacity="0.122" d="M61.6918 134.434C73.7501 134.306 83.5113 131.018 83.4939 127.091C83.4765 123.163 73.6872 120.083 61.6288 120.211C49.5704 120.339 39.8093 123.627 39.8267 127.555C39.844 131.482 49.6334 134.562 61.6918 134.434Z" fill="#460303"/>
<path opacity="0.13" d="M61.7794 134.384C73.7751 134.256 83.4856 130.986 83.4683 127.078C83.451 123.171 73.7125 120.107 61.7167 120.235C49.721 120.362 40.0105 123.633 40.0278 127.54C40.0451 131.447 49.7836 134.511 61.7794 134.384Z" fill="#450303"/>
<path opacity="0.137" d="M61.8658 134.333C73.7987 134.207 83.4583 130.953 83.4411 127.066C83.4239 123.18 73.7364 120.132 61.8035 120.259C49.8706 120.386 40.211 123.639 40.2282 127.526C40.2455 131.412 49.9329 134.46 61.8658 134.333Z" fill="#450303"/>
<path opacity="0.145" d="M61.9534 134.283C73.8237 134.157 83.4326 130.92 83.4154 127.054C83.3983 123.188 73.7617 120.157 61.8914 120.283C50.0212 120.409 40.4123 123.645 40.4294 127.511C40.4465 131.377 50.0832 134.409 61.9534 134.283Z" fill="#450303"/>
<path opacity="0.153" d="M62.0399 134.233C73.8473 134.108 83.4053 130.889 83.3882 127.043C83.3712 123.197 73.7856 120.181 61.9782 120.307C50.1708 120.432 40.6128 123.652 40.6298 127.497C40.6469 131.343 50.2325 134.359 62.0399 134.233Z" fill="#440404"/>
<path opacity="0.16" d="M62.1267 134.183C73.8715 134.058 83.3788 130.856 83.3618 127.031C83.3449 123.206 73.8101 120.206 62.0654 120.331C50.3206 120.456 40.8133 123.658 40.8302 127.483C40.8472 131.308 50.3819 134.308 62.1267 134.183Z" fill="#440404"/>
<path opacity="0.168" d="M62.2139 134.133C73.8958 134.009 83.3522 130.824 83.3354 127.019C83.3185 123.214 73.8348 120.23 62.1529 120.354C50.471 120.478 41.0146 123.664 41.0314 127.469C41.0483 131.273 50.532 134.257 62.2139 134.133Z" fill="#430404"/>
<path opacity="0.176" d="M62.3007 134.083C73.92 133.96 83.3257 130.792 83.309 127.007C83.2922 123.223 73.8593 120.255 62.2401 120.379C50.6208 120.502 41.2151 123.67 41.2318 127.455C41.2486 131.239 50.6815 134.207 62.3007 134.083Z" fill="#430404"/>
<path opacity="0.183" d="M62.3872 134.033C73.9437 133.91 83.2985 130.759 83.2818 126.995C83.2652 123.231 73.8833 120.279 62.3269 120.402C50.7704 120.525 41.4156 123.676 41.4323 127.44C41.4489 131.204 50.8308 134.156 62.3872 134.033Z" fill="#430404"/>
<path opacity="0.191" d="M62.4741 133.983C73.9679 133.861 83.272 130.727 83.2554 126.983C83.2388 123.24 73.9078 120.304 62.414 120.426C50.9202 120.548 41.6161 123.682 41.6327 127.426C41.6492 131.169 50.9803 134.105 62.4741 133.983Z" fill="#420505"/>
<path opacity="0.199" d="M62.5613 133.933C73.9922 133.811 83.2455 130.694 83.229 126.971C83.2125 123.248 73.9325 120.328 62.5016 120.45C51.0706 120.571 41.8174 123.688 41.8339 127.411C41.8504 131.134 51.1303 134.054 62.5613 133.933Z" fill="#420505"/>
<path opacity="0.206" d="M62.6481 133.883C74.0164 133.762 83.219 130.662 83.2026 126.96C83.1862 123.257 73.9571 120.353 62.5887 120.474C51.2204 120.595 42.0179 123.695 42.0343 127.397C42.0507 131.1 51.2798 134.004 62.6481 133.883Z" fill="#410505"/>
<path opacity="0.214" d="M62.7353 133.833C74.0408 133.713 83.1925 130.63 83.1761 126.948C83.1598 123.265 73.9817 120.377 62.6763 120.498C51.3708 120.618 42.2192 123.7 42.2355 127.383C42.2518 131.065 51.4299 133.953 62.7353 133.833Z" fill="#410505"/>
<path opacity="0.221" d="M62.8222 133.782C74.065 133.663 83.166 130.597 83.1497 126.936C83.1335 123.274 74.0063 120.402 62.7634 120.522C51.5206 120.641 42.4196 123.707 42.4359 127.368C42.4521 131.03 51.5793 133.902 62.8222 133.782Z" fill="#410505"/>
<path opacity="0.229" d="M62.9094 133.732C74.0893 133.613 83.1394 130.565 83.1233 126.924C83.1072 123.282 74.031 120.427 62.851 120.546C51.671 120.665 42.6209 123.713 42.637 127.354C42.6532 130.995 51.7294 133.851 62.9094 133.732Z" fill="#400505"/>
<path opacity="0.237" d="M62.9962 133.682C74.1135 133.564 83.1129 130.533 83.0969 126.912C83.0809 123.291 74.0555 120.452 62.9381 120.57C51.8208 120.688 42.8214 123.719 42.8374 127.34C42.8535 130.961 51.8789 133.801 62.9962 133.682Z" fill="#400606"/>
<path opacity="0.244" d="M63.0826 133.632C74.1371 133.514 83.0856 130.501 83.0697 126.9C83.0538 123.3 74.0794 120.476 63.0249 120.594C51.9704 120.711 43.0219 123.725 43.0378 127.326C43.0538 130.926 52.0281 133.749 63.0826 133.632Z" fill="#400606"/>
<path opacity="0.252" d="M63.1695 133.582C74.1613 133.465 83.0591 130.468 83.0433 126.888C83.0274 123.308 74.1039 120.5 63.1121 120.617C52.1202 120.734 43.2224 123.731 43.2382 127.311C43.2541 130.891 52.1776 133.699 63.1695 133.582Z" fill="#3F0606"/>
<path opacity="0.26" d="M63.2567 133.531C74.1857 133.415 83.0327 130.435 83.0169 126.876C83.0011 123.316 74.1287 120.525 63.1997 120.641C52.2707 120.757 43.4237 123.737 43.4395 127.297C43.4552 130.856 52.3277 133.648 63.2567 133.531Z" fill="#3F0606"/>
<path opacity="0.267" d="M63.3436 133.482C74.2099 133.367 83.0062 130.404 82.9905 126.865C82.9748 123.325 74.1532 120.55 63.2868 120.665C52.4204 120.781 43.6242 123.743 43.6399 127.283C43.6556 130.822 52.4772 133.598 63.3436 133.482Z" fill="#3E0606"/>
<path opacity="0.275" d="M63.43 133.432C74.2335 133.317 82.9789 130.371 82.9633 126.852C82.9477 123.334 74.1771 120.574 63.3736 120.689C52.5701 120.804 43.8247 123.75 43.8403 127.268C43.8559 130.787 52.6265 133.546 63.43 133.432Z" fill="#3E0707"/>
<path opacity="0.282" d="M63.5176 133.382C74.2585 133.267 82.9532 130.339 82.9377 126.84C82.9222 123.342 74.2024 120.598 63.4615 120.712C52.7206 120.827 44.026 123.755 44.0415 127.254C44.057 130.752 52.7767 133.496 63.5176 133.382Z" fill="#3E0707"/>
<path opacity="0.29" d="M63.604 133.331C74.2821 133.218 82.9258 130.306 82.9104 126.828C82.895 123.35 74.2263 120.623 63.5483 120.737C52.8702 120.85 44.2265 123.761 44.2419 127.239C44.2573 130.717 52.926 133.445 63.604 133.331Z" fill="#3D0707"/>
<path opacity="0.298" d="M63.6909 133.282C74.3063 133.169 82.8993 130.274 82.884 126.817C82.8687 123.359 74.2508 120.648 63.6354 120.761C53.02 120.873 44.427 123.768 44.4423 127.225C44.4576 130.683 53.0755 133.395 63.6909 133.282Z" fill="#3D0707"/>
<path opacity="0.305" d="M63.7781 133.231C74.3306 133.119 82.8728 130.242 82.8576 126.805C82.8424 123.368 74.2755 120.672 63.723 120.785C53.1704 120.897 44.6282 123.774 44.6435 127.211C44.6587 130.648 53.2255 133.343 63.7781 133.231Z" fill="#3C0707"/>
<path opacity="0.313" d="M63.8649 133.181C74.3548 133.069 82.8463 130.209 82.8312 126.793C82.8161 123.376 74.3001 120.697 63.8101 120.809C53.3202 120.92 44.8287 123.78 44.8439 127.196C44.859 130.613 53.375 133.292 63.8649 133.181Z" fill="#3C0808"/>
<path opacity="0.321" d="M63.9521 133.131C74.3792 133.02 82.8198 130.177 82.8048 126.781C82.7897 123.384 74.3247 120.721 63.8977 120.832C53.4706 120.943 45.03 123.786 45.0451 127.182C45.0601 130.578 53.5251 133.241 63.9521 133.131Z" fill="#3C0808"/>
<path opacity="0.328" d="M64.0382 133.081C74.4027 132.971 82.7926 130.145 82.7776 126.769C82.7627 123.394 74.3485 120.747 63.9841 120.857C53.6197 120.967 45.2298 123.793 45.2447 127.168C45.2597 130.544 53.6738 133.191 64.0382 133.081Z" fill="#3B0808"/>
<path opacity="0.336" d="M64.1255 133.031C74.427 132.921 82.7661 130.113 82.7512 126.757C82.7363 123.402 74.3732 120.771 64.0717 120.88C53.7701 120.989 45.4311 123.798 45.4459 127.154C45.4608 130.509 53.8239 133.14 64.1255 133.031Z" fill="#3B0808"/>
<path opacity="0.344" d="M64.2123 132.98C74.4512 132.871 82.7396 130.08 82.7248 126.745C82.71 123.41 74.3978 120.795 64.1588 120.904C53.9199 121.013 45.6315 123.804 45.6463 127.139C45.6611 130.474 53.9733 133.089 64.2123 132.98Z" fill="#3A0808"/>
<path opacity="0.351" d="M64.2995 132.93C74.4756 132.822 82.713 130.047 82.6984 126.733C82.6837 123.418 74.4224 120.819 64.2464 120.927C54.0703 121.035 45.8328 123.81 45.8475 127.125C45.8622 130.439 54.1234 133.038 64.2995 132.93Z" fill="#3A0808"/>
<path opacity="0.359" d="M64.3863 132.88C74.4998 132.773 82.6865 130.015 82.672 126.722C82.6574 123.428 74.447 120.844 64.3335 120.952C54.2201 121.059 46.0333 123.817 46.0479 127.111C46.0625 130.405 54.2729 132.988 64.3863 132.88Z" fill="#3A0909"/>
<path opacity="0.366" d="M64.4736 132.831C74.5242 132.724 82.66 129.983 82.6455 126.71C82.631 123.436 74.4717 120.869 64.4211 120.976C54.3705 121.082 46.2346 123.823 46.2491 127.096C46.2636 130.37 54.423 132.937 64.4736 132.831Z" fill="#390909"/>
<path opacity="0.374" d="M64.5604 132.78C74.5484 132.674 82.6335 129.951 82.6191 126.697C82.6047 123.444 74.4962 120.893 64.5082 120.999C54.5202 121.106 46.4351 123.829 46.4495 127.082C46.4639 130.335 54.5724 132.886 64.5604 132.78Z" fill="#390909"/>
<path opacity="0.382" d="M64.6476 132.729C74.5727 132.624 82.607 129.918 82.5927 126.685C82.5784 123.453 74.5209 120.918 64.5958 121.023C54.6706 121.129 46.6364 123.835 46.6507 127.067C46.665 130.3 54.7225 132.835 64.6476 132.729Z" fill="#390909"/>
<path opacity="0.389" d="M64.7336 132.68C74.5961 132.575 82.5797 129.886 82.5655 126.674C82.5513 123.462 74.5446 120.943 64.6821 121.048C54.8196 121.152 46.8361 123.841 46.8503 127.054C46.8645 130.266 54.8712 132.785 64.7336 132.68Z" fill="#380909"/>
<path opacity="0.397" d="M64.8209 132.629C74.6205 132.525 82.5532 129.853 82.5391 126.662C82.5249 123.47 74.5693 120.967 64.7697 121.071C54.97 121.176 47.0373 123.847 47.0515 127.039C47.0656 130.231 55.0212 132.734 64.8209 132.629Z" fill="#380A0A"/>
<path opacity="0.405" d="M64.9077 132.58C74.6447 132.476 82.5268 129.821 82.5127 126.65C82.4987 123.478 74.5939 120.991 64.8569 121.095C55.1199 121.198 47.2379 123.853 47.2519 127.025C47.266 130.196 55.1707 132.683 64.9077 132.58Z" fill="#370A0A"/>
<path opacity="0.412" d="M64.995 132.53C74.6691 132.427 82.5002 129.789 82.4863 126.639C82.4723 123.488 74.6186 121.017 64.9444 121.12C55.2703 121.222 47.4392 123.86 47.4531 127.011C47.4671 130.162 55.3208 132.633 64.995 132.53Z" fill="#370A0A"/>
<path opacity="0.42" d="M65.0818 132.48C74.6933 132.378 82.4737 129.757 82.4599 126.626C82.446 123.496 74.6431 121.041 65.0316 121.143C55.4201 121.245 47.6397 123.866 47.6535 126.996C47.6674 130.127 55.4703 132.582 65.0818 132.48Z" fill="#370A0A"/>
<path opacity="0.427" d="M65.1682 132.429C74.7169 132.328 82.4464 129.724 82.4327 126.614C82.4189 123.504 74.667 121.065 65.1183 121.167C55.5697 121.268 47.8401 123.872 47.8539 126.982C47.8677 130.092 55.6196 132.531 65.1682 132.429Z" fill="#360A0A"/>
<path opacity="0.435" d="M65.2558 132.379C74.7419 132.278 82.4207 129.692 82.4071 126.602C82.3934 123.513 74.6923 121.09 65.2063 121.19C55.7203 121.291 48.0414 123.878 48.0551 126.967C48.0688 130.057 55.7698 132.48 65.2558 132.379Z" fill="#360A0A"/>
<path opacity="0.443" d="M65.3423 132.329C74.7654 132.229 82.3934 129.66 82.3798 126.591C82.3662 123.522 74.7162 121.115 65.2931 121.215C55.8699 121.315 48.2419 123.884 48.2555 126.954C48.2691 130.023 55.9191 132.43 65.3423 132.329Z" fill="#350B0B"/>
<path opacity="0.45" d="M65.4291 132.279C74.7896 132.18 82.3669 129.628 82.3534 126.579C82.3399 123.53 74.7408 121.139 65.3802 121.238C56.0197 121.338 48.4424 123.89 48.4559 126.939C48.4694 129.988 56.0686 132.379 65.4291 132.279Z" fill="#350B0B"/>
<path opacity="0.458" d="M65.5163 132.229C74.814 132.13 82.3404 129.595 82.327 126.567C82.3136 123.538 74.7654 121.164 65.4678 121.262C56.1701 121.361 48.6437 123.896 48.6571 126.925C48.6705 129.953 56.2186 132.328 65.5163 132.229Z" fill="#350B0B"/>
<path opacity="0.466" d="M65.6031 132.178C74.8382 132.08 82.3139 129.562 82.3006 126.555C82.2873 123.547 74.79 121.188 65.5549 121.286C56.3199 121.385 48.8442 123.902 48.8575 126.91C48.8708 129.918 56.3681 132.276 65.6031 132.178Z" fill="#340B0B"/>
<path opacity="0.473" d="M65.6904 132.129C74.8626 132.032 82.2874 129.531 82.2741 126.543C82.2609 123.556 74.8147 121.213 65.6425 121.31C56.4703 121.408 49.0455 123.909 49.0587 126.896C49.0719 129.884 56.5182 132.226 65.6904 132.129Z" fill="#340B0B"/>
<path opacity="0.481" d="M65.7765 132.078C74.886 131.982 82.2601 129.498 82.247 126.531C82.2339 123.564 74.8385 121.238 65.7289 121.334C56.6193 121.431 49.2452 123.915 49.2583 126.882C49.2715 129.849 56.6669 132.175 65.7765 132.078Z" fill="#330C0C"/>
<path opacity="0.488" d="M65.8637 132.028C74.9104 131.932 82.2336 129.466 82.2206 126.519C82.2075 123.572 74.8631 121.262 65.8164 121.358C56.7697 121.454 49.4465 123.921 49.4595 126.867C49.4726 129.814 56.817 132.125 65.8637 132.028Z" fill="#330C0C"/>
<path opacity="0.496" d="M65.9505 131.978C74.9346 131.882 82.2071 129.433 82.1942 126.507C82.1812 123.581 74.8877 121.286 65.9036 121.382C56.9195 121.477 49.647 123.927 49.6599 126.853C49.6729 129.779 56.9664 132.073 65.9505 131.978Z" fill="#330C0C"/>
<path opacity="0.504" d="M66.0377 131.929C74.959 131.834 82.1806 129.401 82.1677 126.496C82.1549 123.59 74.9124 121.311 65.9911 121.406C57.0699 121.501 49.8483 123.933 49.8611 126.839C49.874 129.745 57.1165 132.023 66.0377 131.929Z" fill="#320C0C"/>
<path opacity="0.511" d="M66.1246 131.878C74.9832 131.784 82.1541 129.369 82.1413 126.484C82.1286 123.598 74.9369 121.336 66.0783 121.43C57.2197 121.524 50.0487 123.939 50.0615 126.824C50.0743 129.71 57.266 131.972 66.1246 131.878Z" fill="#320C0C"/>
<path opacity="0.519" d="M66.2118 131.828C75.0075 131.735 82.1276 129.336 82.1149 126.471C82.1022 123.607 74.9616 121.36 66.1658 121.453C57.3701 121.547 50.25 123.945 50.2627 126.81C50.2754 129.675 57.416 131.922 66.2118 131.828Z" fill="#320C0C"/>
<path opacity="0.527" d="M66.2986 131.778C75.0317 131.685 82.1011 129.304 82.0885 126.459C82.0759 123.615 74.9861 121.384 66.253 121.477C57.5199 121.57 50.4505 123.951 50.4631 126.795C50.4757 129.64 57.5655 131.87 66.2986 131.778Z" fill="#310D0D"/>
<path opacity="0.534" d="M66.3858 131.728C75.0561 131.636 82.0746 129.272 82.0621 126.448C82.0496 123.624 75.0108 121.409 66.3405 121.501C57.6703 121.593 50.6518 123.957 50.6643 126.782C50.6768 129.606 57.7156 131.82 66.3858 131.728Z" fill="#310D0D"/>
<path opacity="0.542" d="M66.4719 131.678C75.0795 131.586 82.0473 129.239 82.0349 126.436C82.0225 123.632 75.0345 121.434 66.4269 121.525C57.8193 121.617 50.8515 123.964 50.8639 126.767C50.8763 129.571 57.8642 131.769 66.4719 131.678Z" fill="#300D0D"/>
<path opacity="0.55" d="M66.5591 131.627C75.1039 131.536 82.0208 129.207 82.0085 126.424C81.9962 123.641 75.0593 121.458 66.5145 121.549C57.9698 121.64 51.0528 123.97 51.0652 126.753C51.0775 129.536 58.0144 131.718 66.5591 131.627Z" fill="#300D0D"/>
<path opacity="0.557" d="M66.646 131.577C75.1281 131.487 81.9943 129.174 81.9821 126.412C81.9699 123.649 75.0838 121.483 66.6017 121.573C58.1195 121.663 51.2533 123.976 51.2656 126.738C51.2778 129.501 58.1638 131.667 66.646 131.577Z" fill="#300D0D"/>
<path opacity="0.565" d="M66.7332 131.527C75.1525 131.438 81.9678 129.142 81.9557 126.4C81.9435 123.658 75.1085 121.508 66.6892 121.597C58.2699 121.687 51.4546 123.982 51.4667 126.724C51.4789 129.466 58.3139 131.617 66.7332 131.527Z" fill="#2F0E0E"/>
<path opacity="0.573" d="M66.82 131.477C75.1767 131.389 81.9413 129.11 81.9293 126.388C81.9172 123.666 75.133 121.532 66.7764 121.621C58.4197 121.709 51.6551 123.988 51.6671 126.71C51.6792 129.432 58.4634 131.566 66.82 131.477Z" fill="#2F0E0E"/>
<path opacity="0.58" d="M66.9064 131.427C75.2002 131.339 81.914 129.077 81.902 126.376C81.8901 123.675 75.1569 121.557 66.8631 121.645C58.5693 121.733 51.8556 123.994 51.8675 126.695C51.8795 129.397 58.6126 131.515 66.9064 131.427Z" fill="#2E0E0E"/>
<path opacity="0.588" d="M66.9941 131.377C75.2252 131.289 81.8883 129.045 81.8764 126.364C81.8646 123.683 75.1822 121.581 66.9511 121.668C58.7199 121.756 52.0569 124 52.0687 126.681C52.0806 129.362 58.7629 131.464 66.9941 131.377Z" fill="#2E0E0E"/>
<path opacity="0.595" d="M67.0805 131.327C75.2488 131.24 81.861 129.013 81.8492 126.353C81.8374 123.692 75.2061 121.606 67.0378 121.693C58.8695 121.78 52.2574 124.007 52.2691 126.667C52.2809 129.327 58.9122 131.414 67.0805 131.327Z" fill="#2E0E0E"/>
<path opacity="0.603" d="M67.1673 131.277C75.273 131.191 81.8345 128.981 81.8228 126.341C81.8111 123.7 75.2307 121.63 67.125 121.716C59.0193 121.802 52.4578 124.012 52.4695 126.653C52.4812 129.293 59.0617 131.363 67.1673 131.277Z" fill="#2D0E0E"/>
<path opacity="0.611" d="M67.2545 131.226C75.2974 131.141 81.808 128.948 81.7964 126.328C81.7848 123.709 75.2554 121.655 67.2125 121.74C59.1697 121.826 52.6591 124.018 52.6707 126.638C52.6823 129.258 59.2117 131.312 67.2545 131.226Z" fill="#2D0F0F"/>
<path opacity="0.618" d="M67.3414 131.176C75.3216 131.091 81.7815 128.915 81.77 126.316C81.7584 123.717 75.2799 121.679 67.2997 121.764C59.3195 121.849 52.8596 124.025 52.8711 126.624C52.8826 129.223 59.3612 131.261 67.3414 131.176Z" fill="#2C0F0F"/>
<path opacity="0.626" d="M67.4287 131.127C75.346 131.042 81.755 128.884 81.7436 126.305C81.7322 123.726 75.3046 121.704 67.3873 121.788C59.47 121.872 53.061 124.031 53.0724 126.61C53.0838 129.189 59.5113 131.211 67.4287 131.127Z" fill="#2C0F0F"/>
<path opacity="0.634" d="M67.5147 131.076C75.3694 130.993 81.7277 128.851 81.7164 126.293C81.7051 123.735 75.3284 121.729 67.4737 121.812C59.619 121.896 53.2606 124.037 53.272 126.595C53.2833 129.153 59.66 131.16 67.5147 131.076Z" fill="#2C0F0F"/>
<path opacity="0.641" d="M67.6019 131.026C75.3938 130.943 81.7012 128.819 81.69 126.281C81.6787 123.743 75.3531 121.753 67.5612 121.836C59.7694 121.918 53.4619 124.043 53.4732 126.581C53.4844 129.119 59.8101 131.109 67.6019 131.026Z" fill="#2B0F0F"/>
<path opacity="0.649" d="M67.6887 130.976C75.418 130.894 81.6747 128.787 81.6636 126.27C81.6524 123.752 75.3776 121.778 67.6484 121.86C59.9192 121.942 53.6624 124.05 53.6736 126.567C53.6847 129.084 59.9595 131.058 67.6887 130.976Z" fill="#2B1010"/>
<path opacity="0.656" d="M67.776 130.926C75.4423 130.845 81.6482 128.754 81.6371 126.257C81.6261 123.76 75.4023 121.802 67.7359 121.884C60.0696 121.965 53.8637 124.055 53.8748 126.552C53.8858 129.05 60.1096 131.008 67.776 130.926Z" fill="#2B1010"/>
<path opacity="0.664" d="M67.8628 130.876C75.4665 130.795 81.6217 128.722 81.6107 126.245C81.5997 123.769 75.4268 121.827 67.8231 121.908C60.2193 121.988 54.0642 124.062 54.0752 126.538C54.0861 129.014 60.2591 130.957 67.8628 130.876Z" fill="#2A1010"/>
<path opacity="0.672" d="M67.95 130.826C75.4909 130.746 81.5952 128.69 81.5843 126.233C81.5734 123.777 75.4515 121.851 67.9106 121.931C60.3697 122.011 54.2655 124.067 54.2763 126.524C54.2872 128.98 60.4091 130.906 67.95 130.826Z" fill="#2A1010"/>
<path opacity="0.679" d="M68.0368 130.776C75.5151 130.696 81.5687 128.658 81.5579 126.222C81.5471 123.786 75.476 121.876 67.9978 121.956C60.5195 122.035 54.466 124.074 54.4767 126.51C54.4875 128.945 60.5586 130.855 68.0368 130.776Z" fill="#291010"/>
<path opacity="0.687" d="M68.1233 130.726C75.5387 130.647 81.5414 128.625 81.5307 126.21C81.52 123.794 75.4999 121.9 68.0845 121.979C60.6691 122.058 54.6664 124.08 54.6771 126.495C54.6878 128.911 60.7079 130.805 68.1233 130.726Z" fill="#291010"/>
<path opacity="0.695" d="M68.2105 130.675C75.563 130.597 81.5148 128.593 81.5042 126.198C81.4936 123.803 75.5246 121.925 68.1721 122.003C60.8195 122.081 54.8677 124.086 54.8783 126.481C54.8889 128.876 60.8579 130.754 68.2105 130.675Z" fill="#291111"/>
<path opacity="0.702" d="M68.2974 130.625C75.5873 130.547 81.4884 128.56 81.4779 126.186C81.4674 123.811 75.5492 121.95 68.2593 122.027C60.9694 122.105 55.0683 124.092 55.0788 126.466C55.0893 128.84 61.0075 130.702 68.2974 130.625Z" fill="#281111"/>
<path opacity="0.71" d="M68.3846 130.576C75.6116 130.499 81.4619 128.528 81.4514 126.174C81.441 123.82 75.5739 121.974 68.3468 122.051C61.1198 122.128 55.2696 124.098 55.28 126.452C55.2904 128.806 61.1575 130.652 68.3846 130.576Z" fill="#281111"/>
<path opacity="0.718" d="M68.4706 130.525C75.635 130.449 81.4346 128.496 81.4242 126.162C81.4139 123.829 75.5976 121.999 68.4332 122.075C61.2688 122.151 55.4693 124.105 55.4796 126.438C55.4899 128.771 61.3062 130.601 68.4706 130.525Z" fill="#271111"/>
<path opacity="0.725" d="M68.5578 130.475C75.6594 130.4 81.4081 128.463 81.3978 126.15C81.3876 123.837 75.6223 122.023 68.5208 122.099C61.4192 122.174 55.6705 124.11 55.6808 126.423C55.691 128.737 61.4563 130.551 68.5578 130.475Z" fill="#271111"/>
<path opacity="0.733" d="M68.6447 130.425C75.6836 130.35 81.3816 128.431 81.3714 126.138C81.3613 123.846 75.6469 122.048 68.6079 122.123C61.569 122.197 55.871 124.117 55.8812 126.409C55.8913 128.702 61.6057 130.499 68.6447 130.425Z" fill="#271212"/>
<path opacity="0.741" d="M68.7319 130.375C75.708 130.301 81.355 128.399 81.345 126.127C81.3349 123.854 75.6715 122.072 68.6955 122.147C61.7194 122.221 56.0723 124.123 56.0824 126.395C56.0924 128.667 61.7558 130.449 68.7319 130.375Z" fill="#261212"/>
<path opacity="0.748" d="M68.8187 130.325C75.7322 130.251 81.3285 128.366 81.3186 126.115C81.3086 123.863 75.6961 122.097 68.7826 122.171C61.8692 122.244 56.2728 124.129 56.2828 126.381C56.2927 128.632 61.9053 130.398 68.8187 130.325Z" fill="#261212"/>
<path opacity="0.756" d="M68.9052 130.275C75.7557 130.202 81.3012 128.334 81.2914 126.103C81.2815 123.871 75.72 122.121 68.8694 122.194C62.0188 122.267 56.4733 124.135 56.4832 126.366C56.493 128.598 62.0546 130.348 68.9052 130.275Z" fill="#251212"/>
<path opacity="0.763" d="M68.9928 130.224C75.7807 130.152 81.2755 128.301 81.2657 126.09C81.256 123.88 75.7453 122.146 68.9573 122.218C62.1694 122.29 56.6746 124.141 56.6844 126.352C56.6941 128.562 62.2048 130.296 68.9928 130.224Z" fill="#251212"/>
<path opacity="0.771" d="M69.0792 130.175C75.8043 130.103 81.2482 128.27 81.2385 126.079C81.2288 123.888 75.7692 122.171 69.0441 122.242C62.319 122.314 56.8751 124.147 56.8847 126.338C56.8944 128.528 62.3541 130.246 69.0792 130.175Z" fill="#251313"/>
<path opacity="0.779" d="M69.1661 130.124C75.8286 130.053 81.2218 128.237 81.2122 126.067C81.2026 123.897 75.7938 122.195 69.1313 122.266C62.4688 122.337 57.0756 124.153 57.0852 126.323C57.0948 128.493 62.5036 130.195 69.1661 130.124Z" fill="#241313"/>
<path opacity="0.786" d="M69.2533 130.074C75.8529 130.004 81.1953 128.204 81.1857 126.055C81.1762 123.905 75.8185 122.22 69.2188 122.29C62.6192 122.36 57.2769 124.159 57.2864 126.309C57.2959 128.458 62.6537 130.144 69.2533 130.074Z" fill="#241313"/>
<path opacity="0.794" d="M69.3401 130.024C75.8771 129.954 81.1688 128.172 81.1593 126.043C81.1499 123.914 75.843 122.244 69.306 122.313C62.769 122.383 57.4774 124.165 57.4868 126.294C57.4962 128.424 62.8031 130.093 69.3401 130.024Z" fill="#241313"/>
<path opacity="0.801" d="M69.4273 129.974C75.9015 129.905 81.1422 128.14 81.1329 126.031C81.1236 123.923 75.8677 122.269 69.3935 122.338C62.9194 122.407 57.6787 124.172 57.688 126.281C57.6973 128.389 62.9532 130.043 69.4273 129.974Z" fill="#231313"/>
<path opacity="0.809" d="M69.5142 129.924C75.9257 129.856 81.1157 128.108 81.1065 126.019C81.0972 123.931 75.8922 122.293 69.4807 122.361C63.0692 122.43 57.8791 124.178 57.8884 126.266C57.8976 128.354 63.1027 129.992 69.5142 129.924Z" fill="#231313"/>
<path opacity="0.817" d="M69.6006 129.873C75.9493 129.806 81.0884 128.075 81.0793 126.007C81.0701 123.939 75.9161 122.318 69.5675 122.385C63.2188 122.453 58.0796 124.184 58.0888 126.252C58.0979 128.319 63.252 129.941 69.6006 129.873Z" fill="#221414"/>
<path opacity="0.824" d="M69.6874 129.823C75.9735 129.757 81.0619 128.043 81.0529 125.995C81.0438 123.948 75.9406 122.342 69.6546 122.409C63.3686 122.476 58.2801 124.19 58.2892 126.237C58.2982 128.285 63.4014 129.89 69.6874 129.823Z" fill="#221414"/>
<path opacity="0.832" d="M69.7747 129.774C75.9978 129.707 81.0354 128.011 81.0264 125.984C81.0175 123.957 75.9653 122.367 69.7422 122.433C63.519 122.5 58.4814 124.196 58.4904 126.223C58.4993 128.25 63.5515 129.84 69.7747 129.774Z" fill="#221414"/>
<path opacity="0.84" d="M69.8615 129.724C76.022 129.658 81.0089 127.978 81 125.972C80.9912 123.965 75.9898 122.391 69.8293 122.457C63.6688 122.522 58.6819 124.202 58.6908 126.209C58.6997 128.215 63.701 129.789 69.8615 129.724Z" fill="#211414"/>
<path opacity="0.847" d="M69.9488 129.673C76.0464 129.608 80.9825 127.946 80.9737 125.96C80.9649 123.973 76.0146 122.416 69.9169 122.481C63.8192 122.546 58.8832 124.208 58.892 126.194C58.9008 128.18 63.8511 129.738 69.9488 129.673Z" fill="#211414"/>
<path opacity="0.855" d="M70.0356 129.623C76.0706 129.558 80.956 127.913 80.9473 125.948C80.9386 123.982 76.0391 122.441 70.0041 122.505C63.969 122.569 59.0837 124.214 59.0924 126.18C59.1011 128.145 64.0005 129.687 70.0356 129.623Z" fill="#201515"/>
<path opacity="0.863" d="M70.1228 129.573C76.095 129.51 80.9294 127.881 80.9208 125.936C80.9122 123.991 76.0638 122.465 70.0916 122.529C64.1194 122.592 59.285 124.221 59.2936 126.166C59.3022 128.111 64.1506 129.637 70.1228 129.573Z" fill="#201515"/>
<path opacity="0.87" d="M70.2089 129.523C76.1184 129.46 80.9021 127.849 80.8936 125.924C80.8851 123.999 76.0876 122.49 70.178 122.553C64.2684 122.616 59.4847 124.227 59.4932 126.151C59.5017 128.076 64.2993 129.585 70.2089 129.523Z" fill="#201515"/>
<path opacity="0.878" d="M70.2961 129.473C76.1428 129.411 80.8756 127.816 80.8672 125.912C80.8588 124.008 76.1122 122.514 70.2655 122.576C64.4188 122.638 59.686 124.233 59.6944 126.137C59.7028 128.041 64.4494 129.535 70.2961 129.473Z" fill="#1F1515"/>
<path opacity="0.885" d="M70.3829 129.423C76.167 129.361 80.8491 127.784 80.8408 125.9C80.8324 124.017 76.1368 122.539 70.3527 122.601C64.5686 122.662 59.8865 124.239 59.8948 126.123C59.9031 128.007 64.5988 129.484 70.3829 129.423Z" fill="#1F1515"/>
<path opacity="0.893" d="M70.4701 129.373C76.1913 129.312 80.8226 127.752 80.8144 125.888C80.8061 124.025 76.1615 122.563 70.4402 122.624C64.719 122.685 60.0877 124.245 60.096 126.109C60.1042 127.972 64.7489 129.434 70.4701 129.373Z" fill="#1E1515"/>
<path opacity="0.901" d="M70.5569 129.322C76.2155 129.262 80.7961 127.719 80.7879 125.876C80.7798 124.034 76.186 122.588 70.5274 122.648C64.8688 122.709 60.2882 124.251 60.2964 126.094C60.3046 127.937 64.8984 129.382 70.5569 129.322Z" fill="#1E1616"/>
<path opacity="0.908" d="M70.6434 129.272C76.2391 129.213 80.7688 127.687 80.7607 125.864C80.7527 124.042 76.2099 122.612 70.6141 122.672C65.0184 122.731 60.4887 124.257 60.4968 126.08C60.5049 127.902 65.0476 129.332 70.6434 129.272Z" fill="#1E1616"/>
<path opacity="0.916" d="M70.731 129.222C76.2641 129.164 80.7431 127.655 80.7351 125.853C80.7271 124.051 76.2352 122.638 70.7021 122.696C65.169 122.755 60.69 124.264 60.698 126.066C60.706 127.868 65.1979 129.281 70.731 129.222Z" fill="#1D1616"/>
<path opacity="0.924" d="M70.8175 129.173C76.2877 129.114 80.7158 127.623 80.708 125.841C80.7001 124.059 76.2592 122.662 70.7889 122.72C65.3187 122.778 60.8906 124.27 60.8984 126.051C60.9063 127.833 65.3472 129.231 70.8175 129.173Z" fill="#1D1616"/>
<path opacity="0.931" d="M70.9043 129.122C76.3119 129.064 80.6893 127.59 80.6815 125.829C80.6738 124.067 76.2837 122.686 70.8761 122.744C65.4685 122.801 61.091 124.276 61.0988 126.037C61.1066 127.798 65.4967 129.179 70.9043 129.122Z" fill="#1D1616"/>
<path opacity="0.939" d="M70.9915 129.071C76.3363 129.015 80.6628 127.557 80.6551 125.817C80.6474 124.076 76.3084 122.711 70.9636 122.768C65.6189 122.825 61.2923 124.282 61.3 126.022C61.3077 127.763 65.6468 129.128 70.9915 129.071Z" fill="#1C1717"/>
<path opacity="0.947" d="M71.0784 129.022C76.3605 128.966 80.6363 127.526 80.6287 125.805C80.6211 124.085 76.3329 122.736 71.0508 122.792C65.7686 122.848 61.4928 124.288 61.5004 126.009C61.508 127.729 65.7962 129.078 71.0784 129.022Z" fill="#1C1717"/>
<path opacity="0.954" d="M71.1656 128.972C76.3849 128.916 80.6098 127.493 80.6023 125.793C80.5948 124.093 76.3576 122.76 71.1383 122.816C65.919 122.871 61.6941 124.294 61.7016 125.994C61.7091 127.694 65.9463 129.027 71.1656 128.972Z" fill="#1B1717"/>
<path opacity="0.962" d="M71.2516 128.922C76.4083 128.867 80.5825 127.461 80.5751 125.781C80.5676 124.102 76.3813 122.784 71.2247 122.839C66.068 122.894 61.8938 124.3 61.9012 125.98C61.9087 127.659 66.095 128.976 71.2516 128.922Z" fill="#1B1717"/>
<path opacity="0.97" d="M71.3388 128.871C76.4326 128.817 80.556 127.428 80.5487 125.769C80.5413 124.11 76.406 122.809 71.3122 122.863C66.2184 122.917 62.0951 124.306 62.1024 125.965C62.1098 127.624 66.245 128.925 71.3388 128.871Z" fill="#1B1717"/>
<path opacity="0.977" d="M71.4257 128.822C76.4568 128.768 80.5295 127.396 80.5222 125.758C80.515 124.119 76.4306 122.834 71.3994 122.887C66.3682 122.941 62.2956 124.312 62.3028 125.951C62.3101 127.59 66.3945 128.875 71.4257 128.822Z" fill="#1A1717"/>
<path opacity="0.985" d="M71.5129 128.771C76.4812 128.718 80.503 127.364 80.4958 125.746C80.4886 124.127 76.4552 122.858 71.4869 122.911C66.5186 122.964 62.4968 124.319 62.504 125.937C62.5112 127.555 66.5446 128.824 71.5129 128.771Z" fill="#1A1818"/>
<path opacity="0.992" d="M71.5998 128.721C76.5054 128.669 80.4766 127.331 80.4695 125.734C80.4624 124.136 76.4798 122.883 71.5742 122.935C66.6685 122.987 62.6974 124.324 62.7045 125.922C62.7115 127.52 66.6941 128.773 71.5998 128.721Z" fill="#191818"/>
<path d="M71.687 128.671C76.5298 128.619 80.45 127.299 80.443 125.722C80.4361 124.144 76.5045 122.907 71.6617 122.959C66.8189 123.01 62.8987 124.331 62.9057 125.908C62.9126 127.485 66.8442 128.722 71.687 128.671Z" fill="#191818"/>
</g>
<g opacity="0.3">
<path opacity="0.01" d="M108.061 126.622C108.083 122.388 96.0873 118.844 81.2687 118.706C66.4501 118.567 54.42 121.888 54.3986 126.122C54.3772 130.355 66.3728 133.9 81.1913 134.038C96.0099 134.176 108.04 130.856 108.061 126.622Z" fill="#4C0000"/>
<path opacity="0.015" d="M107.833 126.608C107.854 122.394 95.9163 118.867 81.1694 118.729C66.4225 118.592 54.4505 121.896 54.4292 126.11C54.4079 130.324 66.3454 133.851 81.0924 133.988C95.8393 134.126 107.811 130.822 107.833 126.608Z" fill="#4B0000"/>
<path opacity="0.023" d="M107.604 126.593C107.625 122.4 95.7451 118.89 81.0695 118.753C66.394 118.616 54.48 121.905 54.4588 126.098C54.4376 130.291 66.3173 133.801 80.9929 133.938C95.6684 134.075 107.582 130.786 107.604 126.593Z" fill="#4B0101"/>
<path opacity="0.03" d="M107.375 126.579C107.396 122.407 95.5741 118.913 80.9702 118.777C66.3663 118.641 54.5104 121.913 54.4894 126.086C54.4683 130.259 66.29 133.752 80.8939 133.888C95.4978 134.025 107.354 130.752 107.375 126.579Z" fill="#4A0101"/>
<path opacity="0.038" d="M107.147 126.565C107.168 122.413 95.4037 118.937 80.8712 118.801C66.3387 118.666 54.5408 121.922 54.5199 126.074C54.4989 130.226 66.2628 133.702 80.7953 133.838C95.3278 133.973 107.126 130.717 107.147 126.565Z" fill="#4A0101"/>
<path opacity="0.046" d="M106.917 126.551C106.938 122.419 95.2318 118.96 80.771 118.825C66.3101 118.69 54.5704 121.93 54.5495 126.062C54.5287 130.194 66.2346 133.653 80.6954 133.788C95.1563 133.923 106.896 130.683 106.917 126.551Z" fill="#4A0101"/>
<path opacity="0.053" d="M106.689 126.536C106.71 122.425 95.0615 118.983 80.672 118.849C66.2826 118.715 54.6008 121.939 54.5801 126.05C54.5593 130.162 66.2074 133.604 80.5969 133.738C94.9863 133.872 106.668 130.648 106.689 126.536Z" fill="#490101"/>
<path opacity="0.061" d="M106.46 126.522C106.481 122.431 94.8905 119.006 80.5727 118.873C66.2549 118.739 54.6313 121.948 54.6106 126.039C54.59 130.13 66.1801 133.555 80.4979 133.688C94.8157 133.822 106.439 130.613 106.46 126.522Z" fill="#490101"/>
<path opacity="0.069" d="M106.231 126.508C106.252 122.437 94.7192 119.03 80.4728 118.897C66.2264 118.764 54.6608 121.956 54.6402 126.027C54.6197 130.097 66.152 133.505 80.3984 133.637C94.6448 133.77 106.21 130.578 106.231 126.508Z" fill="#480202"/>
<path opacity="0.076" d="M106.002 126.493C106.023 122.443 94.5482 119.053 80.3735 118.921C66.1987 118.788 54.6912 121.964 54.6708 126.014C54.6504 130.064 66.1247 133.455 80.2994 133.587C94.4742 133.719 105.982 130.543 106.002 126.493Z" fill="#480202"/>
<path opacity="0.084" d="M105.773 126.479C105.794 122.449 94.377 119.076 80.2736 118.945C66.1703 118.813 54.7207 121.973 54.7004 126.003C54.6801 130.033 66.0966 133.406 80.2 133.538C94.3033 133.669 105.753 130.509 105.773 126.479Z" fill="#480202"/>
<path opacity="0.092" d="M105.545 126.464C105.565 122.455 94.2068 119.099 80.1751 118.968C66.1434 118.838 54.7521 121.982 54.7318 125.991C54.7116 130 66.0701 133.356 80.1018 133.487C94.1335 133.618 105.525 130.474 105.545 126.464Z" fill="#470202"/>
<path opacity="0.099" d="M105.316 126.451C105.336 122.462 94.0356 119.123 80.0753 118.992C66.115 118.862 54.7816 121.99 54.7615 125.979C54.7414 129.968 66.0421 133.307 80.0024 133.437C93.9627 133.568 105.296 130.439 105.316 126.451Z" fill="#470202"/>
<path opacity="0.107" d="M105.087 126.436C105.107 122.468 93.8646 119.146 79.9759 119.016C66.0873 118.887 54.812 121.999 54.792 125.967C54.772 129.935 66.0147 133.257 79.9034 133.387C93.7921 133.516 105.067 130.404 105.087 126.436Z" fill="#470303"/>
<path opacity="0.115" d="M104.858 126.422C104.878 122.474 93.6934 119.169 79.8761 119.04C66.0589 118.911 54.8416 122.007 54.8217 125.955C54.8017 129.903 65.9867 133.208 79.804 133.337C93.6212 133.466 104.838 130.37 104.858 126.422Z" fill="#460303"/>
<path opacity="0.122" d="M104.629 126.407C104.649 122.48 93.5223 119.192 79.7767 119.064C66.0311 118.936 54.872 122.016 54.8522 125.943C54.8324 129.871 65.9593 133.158 79.7049 133.287C93.4505 133.415 104.61 130.335 104.629 126.407Z" fill="#460303"/>
<path opacity="0.13" d="M104.401 126.393C104.421 122.486 93.3521 119.215 79.6778 119.088C66.0036 118.96 54.9025 122.025 54.8828 125.932C54.863 129.839 65.9322 133.11 79.6064 133.237C93.2806 133.365 104.382 130.301 104.401 126.393Z" fill="#450303"/>
<path opacity="0.137" d="M104.172 126.379C104.191 122.492 93.1801 119.239 79.5775 119.112C65.9749 118.985 54.932 122.033 54.9124 125.919C54.8927 129.806 65.9039 133.06 79.5065 133.186C93.109 133.313 104.152 130.265 104.172 126.379Z" fill="#450303"/>
<path opacity="0.145" d="M103.944 126.364C103.963 122.498 93.0098 119.262 79.4786 119.136C65.9474 119.01 54.9624 122.041 54.9429 125.907C54.9234 129.773 65.8768 133.01 79.408 133.136C92.9391 133.262 103.924 130.23 103.944 126.364Z" fill="#450303"/>
<path opacity="0.153" d="M103.715 126.35C103.734 122.505 92.8388 119.285 79.3792 119.16C65.9197 119.034 54.9929 122.05 54.9734 125.896C54.954 129.742 65.8494 132.961 79.3089 133.086C92.7685 133.212 103.695 130.196 103.715 126.35Z" fill="#440404"/>
<path opacity="0.16" d="M103.486 126.336C103.505 122.51 92.6676 119.308 79.2794 119.184C65.8913 119.059 55.0224 122.058 55.0031 125.884C54.9838 129.709 65.8214 132.911 79.2095 133.036C92.5976 133.161 103.467 130.161 103.486 126.336Z" fill="#440404"/>
<path opacity="0.168" d="M103.257 126.322C103.276 122.517 92.4965 119.332 79.18 119.207C65.8635 119.083 55.0528 122.067 55.0336 125.872C55.0144 129.677 65.794 132.862 79.1105 132.986C92.4269 133.11 103.238 130.127 103.257 126.322Z" fill="#430404"/>
<path opacity="0.176" d="M103.028 126.307C103.047 122.523 92.3253 119.355 79.0802 119.231C65.8351 119.108 55.0824 122.076 55.0633 125.86C55.0442 129.644 65.766 132.812 79.011 132.936C92.2561 133.059 103.009 130.091 103.028 126.307Z" fill="#430404"/>
<path opacity="0.183" d="M102.8 126.293C102.819 122.529 92.1552 119.378 78.9817 119.255C65.8083 119.132 55.1137 122.084 55.0947 125.848C55.0757 129.612 65.7395 132.763 78.9129 132.886C92.0864 133.009 102.781 130.057 102.8 126.293Z" fill="#430404"/>
<path opacity="0.191" d="M102.571 126.279C102.59 122.535 91.984 119.401 78.8819 119.279C65.7799 119.157 55.1433 122.093 55.1244 125.836C55.1055 129.58 65.7115 132.713 78.8135 132.836C91.9156 132.958 102.552 130.022 102.571 126.279Z" fill="#420505"/>
<path opacity="0.199" d="M102.342 126.265C102.361 122.541 91.8129 119.425 78.7825 119.303C65.7521 119.182 55.1737 122.101 55.1549 125.825C55.1361 129.548 65.6841 132.665 78.7145 132.786C91.7449 132.908 102.323 129.988 102.342 126.265Z" fill="#420505"/>
<path opacity="0.206" d="M102.113 126.25C102.132 122.547 91.6417 119.448 78.6827 119.327C65.7237 119.206 55.2032 122.11 55.1845 125.812C55.1658 129.515 65.656 132.615 78.615 132.735C91.5741 132.856 102.095 129.953 102.113 126.25Z" fill="#410505"/>
<path opacity="0.214" d="M101.884 126.235C101.903 122.553 91.4707 119.47 78.5833 119.35C65.696 119.23 55.2336 122.118 55.215 125.8C55.1965 129.483 65.6287 132.565 78.516 132.685C91.4034 132.806 101.866 129.918 101.884 126.235Z" fill="#410505"/>
<path opacity="0.221" d="M101.656 126.221C101.675 122.56 91.3003 119.494 78.4844 119.375C65.6684 119.255 55.264 122.127 55.2456 125.789C55.2271 129.451 65.6015 132.516 78.4174 132.635C91.2334 132.755 101.638 129.883 101.656 126.221Z" fill="#410505"/>
<path opacity="0.229" d="M101.427 126.207C101.446 122.566 91.1293 119.517 78.385 119.399C65.6407 119.28 55.2945 122.135 55.2761 125.776C55.2578 129.418 65.5742 132.466 78.3185 132.585C91.0628 132.703 101.409 129.848 101.427 126.207Z" fill="#400505"/>
<path opacity="0.237" d="M101.198 126.193C101.217 122.572 90.9581 119.541 78.2852 119.423C65.6123 119.304 55.324 122.144 55.3057 125.765C55.2875 129.386 65.5461 132.417 78.219 132.535C90.8919 132.654 101.18 129.814 101.198 126.193Z" fill="#400606"/>
<path opacity="0.244" d="M100.97 126.178C100.988 122.578 90.7871 119.564 78.1858 119.446C65.5846 119.329 55.3545 122.152 55.3363 125.753C55.3181 129.353 65.5187 132.367 78.12 132.485C90.7213 132.602 100.951 129.779 100.97 126.178Z" fill="#400606"/>
<path opacity="0.252" d="M100.741 126.164C100.759 122.584 90.6158 119.587 78.086 119.47C65.5561 119.353 55.384 122.161 55.3659 125.741C55.3478 129.321 65.4907 132.318 78.0205 132.435C90.5504 132.552 100.723 129.744 100.741 126.164Z" fill="#3F0606"/>
<path opacity="0.26" d="M100.512 126.15C100.53 122.59 90.4448 119.61 77.9866 119.494C65.5284 119.378 55.4144 122.17 55.3965 125.729C55.3785 129.289 65.4633 132.268 77.9215 132.385C90.3798 132.501 100.494 129.709 100.512 126.15Z" fill="#3F0606"/>
<path opacity="0.267" d="M100.284 126.136C100.302 122.597 90.2745 119.634 77.8877 119.518C65.5008 119.403 55.4449 122.178 55.427 125.718C55.4091 129.257 65.4362 132.22 77.823 132.335C90.2098 132.451 100.266 129.675 100.284 126.136Z" fill="#3E0606"/>
<path opacity="0.275" d="M100.055 126.121C100.073 122.602 90.1035 119.657 77.7883 119.542C65.4732 119.427 55.4753 122.187 55.4576 125.705C55.4398 129.224 65.4088 132.17 77.724 132.284C90.0392 132.399 100.037 129.64 100.055 126.121Z" fill="#3E0707"/>
<path opacity="0.282" d="M99.8258 126.107C99.8435 122.609 89.9322 119.68 77.6885 119.566C65.4447 119.452 55.5048 122.195 55.4872 125.694C55.4695 129.192 65.3807 132.121 77.6245 132.235C89.8683 132.349 99.8082 129.606 99.8258 126.107Z" fill="#3E0707"/>
<path opacity="0.29" d="M99.5969 126.093C99.6145 122.615 89.7613 119.703 77.5891 119.59C65.417 119.476 55.5353 122.204 55.5177 125.682C55.5002 129.16 65.3534 132.071 77.5256 132.184C89.6977 132.298 99.5794 129.57 99.5969 126.093Z" fill="#3D0707"/>
<path opacity="0.298" d="M99.3689 126.078C99.3864 122.62 89.5909 119.726 77.4902 119.613C65.3894 119.5 55.5657 122.212 55.5483 125.669C55.5308 129.127 65.3262 132.022 77.427 132.134C89.5277 132.247 99.3515 129.536 99.3689 126.078Z" fill="#3D0707"/>
<path opacity="0.305" d="M99.1399 126.064C99.1573 122.627 89.4198 119.75 77.3908 119.638C65.3617 119.526 55.5961 122.221 55.5788 125.658C55.5614 129.095 65.2989 131.972 77.3279 132.084C89.357 132.196 99.1226 129.501 99.1399 126.064Z" fill="#3C0707"/>
<path opacity="0.313" d="M98.9111 126.049C98.9283 122.633 89.2487 119.773 77.291 119.662C65.3333 119.55 55.6257 122.229 55.6084 125.646C55.5912 129.062 65.2708 131.922 77.2285 132.034C89.1862 132.145 98.8938 129.466 98.9111 126.049Z" fill="#3C0808"/>
<path opacity="0.321" d="M98.6821 126.035C98.6993 122.639 89.0776 119.796 77.1916 119.685C65.3055 119.575 55.6561 122.238 55.6389 125.634C55.6218 129.03 65.2434 131.873 77.1295 131.984C89.0155 132.095 98.665 129.432 98.6821 126.035Z" fill="#3C0808"/>
<path opacity="0.328" d="M98.4532 126.021C98.4703 122.645 88.9064 119.819 77.0918 119.709C65.2771 119.599 55.6856 122.246 55.6686 125.622C55.6516 128.998 65.2154 131.823 77.0301 131.933C88.8447 132.044 98.4362 129.396 98.4532 126.021Z" fill="#3B0808"/>
<path opacity="0.336" d="M98.2243 126.007C98.2412 122.652 88.7354 119.843 76.9924 119.733C65.2494 119.624 55.7161 122.255 55.6991 125.61C55.6822 128.966 65.188 131.775 76.931 131.884C88.674 131.994 98.2073 129.362 98.2243 126.007Z" fill="#3B0808"/>
<path opacity="0.344" d="M97.9963 125.992C98.0131 122.658 88.5651 119.866 76.8935 119.757C65.2219 119.648 55.7465 122.263 55.7297 125.598C55.7129 128.933 65.1609 131.725 76.8325 131.833C88.5041 131.942 97.9795 129.327 97.9963 125.992Z" fill="#3A0808"/>
<path opacity="0.351" d="M97.7664 125.978C97.7832 122.664 88.3931 119.889 76.7932 119.781C65.1932 119.673 55.776 122.272 55.7593 125.587C55.7426 128.901 65.1326 131.676 76.7326 131.784C88.3325 131.892 97.7497 129.293 97.7664 125.978Z" fill="#3A0808"/>
<path opacity="0.359" d="M97.5385 125.964C97.5551 122.67 88.2228 119.912 76.6943 119.805C65.1657 119.697 55.8065 122.281 55.7899 125.575C55.7732 128.868 65.1055 131.626 76.6341 131.733C88.1626 131.841 97.5218 129.258 97.5385 125.964Z" fill="#3A0909"/>
<path opacity="0.366" d="M97.3095 125.949C97.326 122.675 88.0518 119.935 76.5949 119.828C65.138 119.721 55.8369 122.289 55.8204 125.562C55.8039 128.836 65.0781 131.576 76.535 131.683C87.9919 131.79 97.293 129.223 97.3095 125.949Z" fill="#390909"/>
<path opacity="0.374" d="M97.0806 125.935C97.0971 122.682 87.8806 119.959 76.4951 119.853C65.1096 119.747 55.8665 122.298 55.85 125.551C55.8336 128.804 65.0501 131.527 76.4356 131.633C87.8211 131.739 97.0642 129.188 97.0806 125.935Z" fill="#390909"/>
<path opacity="0.382" d="M96.8517 125.921C96.868 122.688 87.7095 119.982 76.3957 119.877C65.0818 119.771 55.8969 122.306 55.8806 125.539C55.8642 128.771 65.0227 131.477 76.3366 131.583C87.6504 131.688 96.8354 129.153 96.8517 125.921Z" fill="#390909"/>
<path opacity="0.389" d="M96.6237 125.907C96.6399 122.694 87.5392 120.005 76.2968 119.901C65.0543 119.796 55.9273 122.315 55.9111 125.527C55.8949 128.739 64.9956 131.428 76.2381 131.533C87.4805 131.638 96.6075 129.119 96.6237 125.907Z" fill="#380909"/>
<path opacity="0.397" d="M96.3948 125.892C96.4109 122.7 87.3682 120.029 76.1974 119.925C65.0265 119.82 55.9578 122.323 55.9416 125.515C55.9255 128.707 64.9682 131.378 76.139 131.483C87.3098 131.587 96.3786 129.084 96.3948 125.892Z" fill="#380A0A"/>
<path opacity="0.405" d="M96.1659 125.878C96.1819 122.707 87.197 120.052 76.0976 119.948C64.9981 119.845 55.9873 122.332 55.9713 125.503C55.9553 128.675 64.9402 131.33 76.0396 131.433C87.139 131.537 96.1499 129.05 96.1659 125.878Z" fill="#370A0A"/>
<path opacity="0.412" d="M95.9369 125.864C95.9528 122.713 87.0259 120.075 75.9982 119.972C64.9704 119.87 56.0177 122.34 56.0018 125.491C55.9859 128.642 64.9128 131.28 75.9406 131.382C86.9683 131.485 95.921 129.014 95.9369 125.864Z" fill="#370A0A"/>
<path opacity="0.42" d="M95.7089 125.849C95.7247 122.719 86.8556 120.098 75.8992 119.996C64.9429 119.894 56.0481 122.349 56.0323 125.48C56.0165 128.61 64.8856 131.231 75.842 131.333C86.7984 131.435 95.6931 128.98 95.7089 125.849Z" fill="#370A0A"/>
<path opacity="0.427" d="M95.4791 125.835C95.4948 122.725 86.6837 120.122 75.799 120.02C64.9142 119.919 56.0777 122.357 56.062 125.467C56.0463 128.577 64.8574 131.181 75.7421 131.282C86.6268 131.384 95.4634 128.945 95.4791 125.835Z" fill="#360A0A"/>
<path opacity="0.435" d="M95.2511 125.82C95.2667 122.731 86.5134 120.144 75.7 120.043C64.8867 119.942 56.1081 122.365 56.0925 125.455C56.0769 128.545 64.8302 131.131 75.6435 131.232C86.4569 131.333 95.2355 128.91 95.2511 125.82Z" fill="#360A0A"/>
<path opacity="0.443" d="M95.0222 125.806C95.0377 122.737 86.3424 120.168 75.6007 120.068C64.859 119.968 56.1386 122.375 56.1231 125.444C56.1076 128.513 64.8029 131.082 75.5446 131.182C86.2863 131.282 95.0067 128.876 95.0222 125.806Z" fill="#350B0B"/>
<path opacity="0.45" d="M94.7932 125.792C94.8086 122.743 86.1711 120.191 75.5008 120.091C64.8305 119.992 56.1681 122.383 56.1527 125.432C56.1373 128.48 64.7748 131.033 75.4451 131.132C86.1154 131.232 94.7778 128.841 94.7932 125.792Z" fill="#350B0B"/>
<path opacity="0.458" d="M94.5643 125.778C94.5796 122.75 86.0001 120.214 75.4015 120.116C64.8028 120.017 56.1985 122.392 56.1833 125.42C56.168 128.448 64.7475 130.983 75.3461 131.082C85.9448 131.181 94.549 128.806 94.5643 125.778Z" fill="#350B0B"/>
<path opacity="0.466" d="M94.3354 125.763C94.3506 122.756 85.8289 120.238 75.3016 120.14C64.7744 120.041 56.228 122.4 56.2129 125.408C56.1977 128.416 64.7194 130.933 75.2466 131.031C85.7739 131.13 94.3202 128.771 94.3354 125.763Z" fill="#340B0B"/>
<path opacity="0.473" d="M94.1065 125.749C94.1216 122.762 85.6579 120.261 75.2023 120.163C64.7467 120.066 56.2585 122.409 56.2434 125.396C56.2283 128.384 64.6921 130.885 75.1477 130.982C85.6033 131.08 94.0914 128.737 94.1065 125.749Z" fill="#340B0B"/>
<path opacity="0.481" d="M93.8785 125.735C93.8934 122.768 85.4875 120.284 75.1033 120.187C64.7191 120.091 56.2889 122.417 56.2739 125.384C56.259 128.351 64.6649 130.835 75.0491 130.931C85.4333 131.028 93.8635 128.702 93.8785 125.735Z" fill="#330C0C"/>
<path opacity="0.488" d="M93.6496 125.721C93.6644 122.774 85.3165 120.307 75.004 120.211C64.6914 120.115 56.3194 122.426 56.3045 125.373C56.2896 128.319 64.6376 130.786 74.9501 130.882C85.2627 130.978 93.6347 128.667 93.6496 125.721Z" fill="#330C0C"/>
<path opacity="0.496" d="M93.4206 125.706C93.4354 122.78 85.1453 120.331 74.9041 120.235C64.663 120.14 56.3489 122.434 56.3341 125.36C56.3193 128.286 64.6095 130.736 74.8506 130.831C85.0918 130.927 93.4059 128.632 93.4206 125.706Z" fill="#330C0C"/>
<path opacity="0.504" d="M93.1917 125.692C93.2064 122.786 84.9743 120.353 74.8048 120.259C64.6353 120.164 56.3794 122.442 56.3647 125.348C56.35 128.254 64.5821 130.686 74.7517 130.781C84.9212 130.876 93.1771 128.597 93.1917 125.692Z" fill="#320C0C"/>
<path opacity="0.511" d="M92.9637 125.678C92.9783 122.792 84.8039 120.377 74.7058 120.283C64.6077 120.189 56.4098 122.451 56.3952 125.337C56.3806 128.222 64.555 130.637 74.6531 130.731C84.7512 130.825 92.9491 128.563 92.9637 125.678Z" fill="#320C0C"/>
<path opacity="0.519" d="M92.7348 125.663C92.7492 122.798 84.6329 120.4 74.6064 120.306C64.58 120.213 56.4402 122.459 56.4257 125.324C56.4113 128.189 64.5276 130.588 74.5541 130.681C84.5805 130.775 92.7203 128.528 92.7348 125.663Z" fill="#320C0C"/>
<path opacity="0.527" d="M92.5059 125.649C92.5202 122.805 84.4617 120.424 74.5066 120.331C64.5515 120.238 56.4697 122.468 56.4554 125.313C56.441 128.157 64.4996 130.538 74.4546 130.631C84.4097 130.724 92.4915 128.493 92.5059 125.649Z" fill="#310D0D"/>
<path opacity="0.534" d="M92.2769 125.634C92.2912 122.81 84.2906 120.446 74.4072 120.354C64.5238 120.262 56.5001 122.477 56.4859 125.301C56.4716 128.125 64.4722 130.489 74.3556 130.581C84.239 130.673 92.2627 128.458 92.2769 125.634Z" fill="#310D0D"/>
<path opacity="0.542" d="M92.048 125.62C92.0622 122.817 84.1194 120.47 74.3074 120.379C64.4954 120.287 56.5297 122.486 56.5156 125.289C56.5014 128.093 64.4441 130.44 74.2562 130.531C84.0682 130.622 92.0339 128.424 92.048 125.62Z" fill="#300D0D"/>
<path opacity="0.55" d="M91.8191 125.606C91.8331 122.823 83.9484 120.493 74.208 120.402C64.4676 120.312 56.5601 122.494 56.5461 125.277C56.532 128.06 64.4168 130.39 74.1571 130.48C83.8975 130.571 91.805 128.389 91.8191 125.606Z" fill="#300D0D"/>
<path opacity="0.557" d="M91.5911 125.592C91.6051 122.829 83.7781 120.517 74.1091 120.426C64.4402 120.336 56.5906 122.503 56.5766 125.265C56.5627 128.028 64.3897 130.341 74.0586 130.431C83.7276 130.521 91.5772 128.355 91.5911 125.592Z" fill="#300D0D"/>
<path opacity="0.565" d="M91.3622 125.577C91.376 122.835 83.607 120.54 74.0097 120.45C64.4124 120.361 56.621 122.511 56.6072 125.253C56.5933 127.995 64.3623 130.291 73.9596 130.38C83.5569 130.47 91.3483 128.319 91.3622 125.577Z" fill="#2F0E0E"/>
<path opacity="0.573" d="M91.1333 125.563C91.147 122.841 83.4359 120.562 73.9099 120.474C64.384 120.385 56.6506 122.519 56.6368 125.241C56.6231 127.963 64.3342 130.241 73.8602 130.33C83.3861 130.419 91.1195 128.285 91.1333 125.563Z" fill="#2F0E0E"/>
<path opacity="0.58" d="M90.9043 125.549C90.918 122.848 83.2648 120.586 73.8105 120.498C64.3562 120.41 56.681 122.528 56.6673 125.23C56.6537 127.931 64.3069 130.192 73.7611 130.28C83.2154 130.368 90.8907 128.25 90.9043 125.549Z" fill="#2E0E0E"/>
<path opacity="0.588" d="M90.6754 125.534C90.689 122.853 83.0936 120.609 73.7107 120.521C64.3278 120.434 56.7105 122.536 56.697 125.217C56.6835 127.898 64.2788 130.143 73.6617 130.23C83.0446 130.318 90.6619 128.215 90.6754 125.534Z" fill="#2E0E0E"/>
<path opacity="0.595" d="M90.4474 125.52C90.4608 122.86 82.9235 120.633 73.6122 120.546C64.301 120.459 56.7418 122.545 56.7284 125.206C56.715 127.866 64.2524 130.093 73.5636 130.18C82.8748 130.267 90.434 128.181 90.4474 125.52Z" fill="#2E0E0E"/>
<path opacity="0.603" d="M90.2185 125.506C90.2318 122.865 82.7523 120.655 73.5124 120.569C64.2726 120.483 56.7714 122.553 56.7581 125.194C56.7448 127.834 64.2243 130.044 73.4642 130.13C82.704 130.216 90.2052 128.146 90.2185 125.506Z" fill="#2D0E0E"/>
<path opacity="0.611" d="M89.9896 125.492C90.0028 122.872 82.5812 120.679 73.413 120.594C64.2448 120.508 56.8018 122.562 56.7886 125.182C56.7754 127.802 64.1969 129.994 73.3651 130.08C82.5333 130.165 89.9763 128.111 89.9896 125.492Z" fill="#2D0F0F"/>
<path opacity="0.618" d="M89.7607 125.477C89.7738 122.878 82.41 120.702 73.3132 120.618C64.2164 120.533 56.8314 122.571 56.8182 125.17C56.8051 127.769 64.1689 129.944 73.2657 130.029C82.3625 130.114 89.7476 128.076 89.7607 125.477Z" fill="#2C0F0F"/>
<path opacity="0.626" d="M89.5317 125.463C89.5447 122.884 82.239 120.726 73.2138 120.641C64.1887 120.557 56.8618 122.58 56.8488 125.158C56.8357 127.737 64.1415 129.896 73.1667 129.98C82.1918 130.064 89.5187 128.042 89.5317 125.463Z" fill="#2C0F0F"/>
<path opacity="0.634" d="M89.3037 125.448C89.3166 122.89 82.0686 120.749 73.1149 120.665C64.1611 120.582 56.8922 122.588 56.8793 125.146C56.8664 127.704 64.1144 129.846 73.0681 129.929C82.0219 130.013 89.2908 128.007 89.3037 125.448Z" fill="#2C0F0F"/>
<path opacity="0.641" d="M89.0739 125.434C89.0867 122.896 81.8967 120.771 73.0146 120.689C64.1325 120.606 56.9217 122.596 56.9089 125.134C56.8961 127.672 64.0861 129.796 72.9682 129.879C81.8503 129.962 89.0611 127.972 89.0739 125.434Z" fill="#2B0F0F"/>
<path opacity="0.649" d="M88.8459 125.42C88.8586 122.903 81.7264 120.795 72.9157 120.713C64.105 120.631 56.9522 122.605 56.9394 125.122C56.9267 127.64 64.0589 129.747 72.8697 129.829C81.6804 129.911 88.8332 127.937 88.8459 125.42Z" fill="#2B1010"/>
<path opacity="0.656" d="M88.617 125.405C88.6296 122.908 81.5554 120.818 72.8163 120.736C64.0773 120.655 56.9826 122.613 56.97 125.11C56.9574 127.607 64.0316 129.698 72.7707 129.779C81.5097 129.861 88.6044 127.902 88.617 125.405Z" fill="#2B1010"/>
<path opacity="0.664" d="M88.388 125.391C88.4005 122.915 81.3841 120.842 72.7165 120.761C64.0488 120.68 57.0121 122.622 56.9996 125.099C56.9871 127.575 64.0035 129.648 72.6712 129.729C81.3389 129.81 88.3755 127.868 88.388 125.391Z" fill="#2A1010"/>
<path opacity="0.672" d="M88.1591 125.377C88.1715 122.921 81.2131 120.864 72.6171 120.784C64.0211 120.704 57.0426 122.63 57.0302 125.087C57.0178 127.543 63.9762 129.599 72.5722 129.679C81.1682 129.759 88.1467 127.833 88.1591 125.377Z" fill="#2A1010"/>
<path opacity="0.679" d="M87.9302 125.363C87.9425 122.927 81.0419 120.888 72.5173 120.809C63.9926 120.729 57.0721 122.639 57.0598 125.075C57.0475 127.511 63.9481 129.549 72.4727 129.629C80.9974 129.708 87.9179 127.798 87.9302 125.363Z" fill="#291010"/>
<path opacity="0.687" d="M87.7022 125.348C87.7144 122.933 80.8718 120.911 72.4188 120.832C63.9659 120.753 57.1035 122.647 57.0913 125.063C57.0791 127.478 63.9217 129.5 72.3747 129.579C80.8277 129.658 87.69 127.764 87.7022 125.348Z" fill="#291010"/>
<path opacity="0.695" d="M87.4723 125.334C87.4844 122.939 80.6998 120.935 72.3185 120.857C63.9372 120.778 57.133 122.657 57.1209 125.051C57.1088 127.446 63.8934 129.451 72.2747 129.529C80.6561 129.607 87.4603 127.729 87.4723 125.334Z" fill="#291111"/>
<path opacity="0.702" d="M87.2444 125.32C87.2564 122.945 80.5295 120.958 72.2196 120.88C63.9097 120.803 57.1634 122.665 57.1515 125.039C57.1395 127.413 63.8663 129.401 72.1762 129.478C80.4861 129.556 87.2324 127.694 87.2444 125.32Z" fill="#281111"/>
<path opacity="0.71" d="M87.0154 125.305C87.0273 122.951 80.3585 120.981 72.1202 120.904C63.8819 120.827 57.1939 122.673 57.182 125.027C57.1701 127.381 63.8389 129.351 72.0772 129.428C80.3155 129.505 87.0035 127.659 87.0154 125.305Z" fill="#281111"/>
<path opacity="0.718" d="M86.7865 125.291C86.7983 122.958 80.1873 121.004 72.0204 120.928C63.8535 120.852 57.2234 122.682 57.2116 125.015C57.1999 127.349 63.8109 129.302 71.9778 129.378C80.1447 129.454 86.7748 127.624 86.7865 125.291Z" fill="#271111"/>
<path opacity="0.725" d="M86.5576 125.276C86.5693 122.963 80.0162 121.027 71.921 120.952C63.8258 120.876 57.2538 122.69 57.2421 125.003C57.2305 127.316 63.7835 129.253 71.8787 129.328C79.974 129.404 86.5459 127.59 86.5576 125.276Z" fill="#271111"/>
<path opacity="0.733" d="M86.3287 125.263C86.3403 122.97 79.8451 121.051 71.8212 120.976C63.7974 120.901 57.2834 122.699 57.2718 124.992C57.2602 127.284 63.7555 129.203 71.7793 129.278C79.8031 129.353 86.3171 127.555 86.3287 125.263Z" fill="#271212"/>
<path opacity="0.741" d="M86.0998 125.248C86.1112 122.976 79.674 121.074 71.7218 120.999C63.7696 120.925 57.3138 122.707 57.3023 124.979C57.2909 127.252 63.7281 129.154 71.6803 129.228C79.6325 129.302 86.0883 127.52 86.0998 125.248Z" fill="#261212"/>
<path opacity="0.748" d="M85.8717 125.234C85.8831 122.982 79.5036 121.097 71.6229 121.024C63.7421 120.95 57.3442 122.716 57.3328 124.968C57.3215 127.22 63.7009 129.104 71.5817 129.178C79.4625 129.251 85.8604 127.486 85.8717 125.234Z" fill="#261212"/>
<path opacity="0.756" d="M85.6428 125.219C85.6541 122.988 79.3327 121.12 71.5235 121.047C63.7144 120.974 57.3747 122.724 57.3634 124.956C57.3521 127.187 63.6736 129.055 71.4827 129.128C79.2919 129.201 85.6316 127.451 85.6428 125.219Z" fill="#251212"/>
<path opacity="0.763" d="M85.4139 125.205C85.425 122.995 79.1614 121.144 71.4236 121.072C63.6859 121 57.4042 122.733 57.393 124.944C57.3818 127.155 63.6455 129.006 71.3832 129.078C79.121 129.15 85.4027 127.416 85.4139 125.205Z" fill="#251212"/>
<path opacity="0.771" d="M85.1859 125.191C85.197 123 78.9913 121.166 71.3252 121.095C63.6591 121.024 57.4356 122.741 57.4245 124.932C57.4134 127.123 63.6191 128.956 71.2852 129.028C78.9513 129.099 85.1749 127.381 85.1859 125.191Z" fill="#251313"/>
<path opacity="0.779" d="M84.957 125.176C84.9679 123.006 78.8201 121.19 71.2254 121.119C63.6307 121.048 57.465 122.75 57.4541 124.92C57.4431 127.09 63.591 128.906 71.1857 128.977C78.7804 129.048 84.946 127.346 84.957 125.176Z" fill="#241313"/>
<path opacity="0.786" d="M84.7281 125.162C84.7389 123.013 78.6491 121.213 71.126 121.143C63.603 121.073 57.4955 122.759 57.4847 124.908C57.4738 127.058 63.5637 128.857 71.0867 128.927C78.6098 128.997 84.7172 127.312 84.7281 125.162Z" fill="#241313"/>
<path opacity="0.794" d="M84.4991 125.148C84.5099 123.018 78.4778 121.236 71.0262 121.167C63.5745 121.097 57.525 122.767 57.5143 124.896C57.5035 127.025 63.5356 128.808 70.9872 128.877C78.4389 128.946 84.4884 127.277 84.4991 125.148Z" fill="#241313"/>
<path opacity="0.801" d="M84.2702 125.134C84.2809 123.025 78.3068 121.26 70.9268 121.191C63.5468 121.122 57.5555 122.776 57.5448 124.884C57.5342 126.993 63.5083 128.758 70.8883 128.827C78.2683 128.896 84.2596 127.242 84.2702 125.134Z" fill="#231313"/>
<path opacity="0.809" d="M84.0422 125.119C84.0528 123.031 78.1365 121.283 70.8279 121.214C63.5193 121.146 57.5859 122.784 57.5754 124.872C57.5648 126.961 63.4811 128.709 70.7897 128.777C78.0983 128.845 84.0317 127.207 84.0422 125.119Z" fill="#231313"/>
<path opacity="0.817" d="M83.8124 125.105C83.8228 123.037 77.9646 121.306 70.7276 121.239C63.4906 121.172 57.6155 122.793 57.605 124.861C57.5946 126.929 63.4528 128.659 70.6898 128.727C77.9268 128.794 83.802 127.173 83.8124 125.105Z" fill="#221414"/>
<path opacity="0.824" d="M83.5844 125.091C83.5947 123.043 77.7942 121.329 70.6287 121.262C63.4631 121.195 57.6459 122.801 57.6355 124.849C57.6252 126.896 63.4257 128.61 70.5912 128.677C77.7568 128.744 83.574 127.138 83.5844 125.091Z" fill="#221414"/>
<path opacity="0.832" d="M83.3555 125.077C83.3657 123.05 77.6232 121.353 70.5293 121.287C63.4354 121.221 57.6763 122.81 57.6661 124.837C57.6559 126.864 63.3983 128.561 70.4923 128.627C77.5862 128.693 83.3453 127.103 83.3555 125.077Z" fill="#221414"/>
<path opacity="0.84" d="M83.1265 125.062C83.1367 123.055 77.452 121.376 70.4295 121.31C63.4069 121.245 57.7058 122.818 57.6957 124.825C57.6856 126.832 63.3703 128.511 70.3928 128.577C77.4153 128.642 83.1164 127.069 83.1265 125.062Z" fill="#211414"/>
<path opacity="0.847" d="M82.8976 125.048C82.9077 123.062 77.281 121.399 70.3301 121.334C63.3792 121.27 57.7363 122.827 57.7263 124.813C57.7163 126.799 63.3429 128.462 70.2938 128.527C77.2447 128.591 82.8876 127.034 82.8976 125.048Z" fill="#211414"/>
<path opacity="0.855" d="M82.6687 125.033C82.6786 123.068 77.1097 121.423 70.2303 121.358C63.3508 121.294 57.7658 122.836 57.7559 124.801C57.746 126.767 63.3148 128.412 70.1943 128.476C77.0738 128.54 82.6588 126.999 82.6687 125.033Z" fill="#201515"/>
<path opacity="0.863" d="M82.4407 125.019C82.4505 123.074 76.9396 121.445 70.1318 121.382C63.3239 121.318 57.7971 122.844 57.7873 124.789C57.7775 126.734 63.2884 128.363 70.0962 128.426C76.904 128.49 82.4308 126.964 82.4407 125.019Z" fill="#201515"/>
<path opacity="0.87" d="M82.2118 125.005C82.2215 123.08 76.7684 121.469 70.032 121.406C63.2955 121.343 57.8267 122.853 57.817 124.777C57.8073 126.702 63.2603 128.313 69.9968 128.376C76.7332 128.439 82.2021 126.929 82.2118 125.005Z" fill="#201515"/>
<path opacity="0.878" d="M81.9828 124.99C81.9924 123.086 76.5974 121.492 69.9326 121.43C63.2678 121.367 57.8571 122.861 57.8475 124.765C57.8379 126.67 63.233 128.264 69.8978 128.326C76.5625 128.388 81.9732 126.895 81.9828 124.99Z" fill="#1F1515"/>
<path opacity="0.885" d="M81.7539 124.976C81.7634 123.092 76.4261 121.516 69.8328 121.454C63.2394 121.393 57.8866 122.87 57.8771 124.754C57.8676 126.637 63.2049 128.214 69.7983 128.276C76.3917 128.337 81.7444 126.86 81.7539 124.976Z" fill="#1F1515"/>
<path opacity="0.893" d="M81.525 124.962C81.5344 123.098 76.2551 121.538 69.7334 121.477C63.2116 121.417 57.9171 122.878 57.9077 124.741C57.8982 126.605 63.1775 128.165 69.6993 128.226C76.221 128.287 81.5156 126.825 81.525 124.962Z" fill="#1E1515"/>
<path opacity="0.901" d="M81.297 124.948C81.3063 123.105 76.0848 121.562 69.6345 121.502C63.1841 121.442 57.9475 122.887 57.9382 124.73C57.9289 126.573 63.1504 128.116 69.6008 128.176C76.0511 128.236 81.2877 126.791 81.297 124.948Z" fill="#1E1616"/>
<path opacity="0.908" d="M81.0671 124.933C81.0763 123.11 75.9129 121.585 69.5341 121.525C63.1554 121.466 57.977 122.895 57.9678 124.718C57.9586 126.54 63.1221 128.066 69.5008 128.126C75.8795 128.185 81.0579 126.756 81.0671 124.933Z" fill="#1E1616"/>
<path opacity="0.916" d="M80.8392 124.919C80.8483 123.117 75.7426 121.608 69.4353 121.55C63.128 121.491 58.0075 122.904 57.9984 124.706C57.9893 126.508 63.095 128.017 69.4023 128.076C75.7096 128.135 80.8301 126.721 80.8392 124.919Z" fill="#1D1616"/>
<path opacity="0.924" d="M80.6102 124.905C80.6192 123.123 75.5715 121.631 69.3359 121.573C63.1002 121.515 58.0379 122.912 58.0289 124.694C58.0199 126.476 63.0676 127.968 69.3033 128.026C75.5389 128.084 80.6012 126.686 80.6102 124.905Z" fill="#1D1616"/>
<path opacity="0.931" d="M80.3813 124.89C80.3902 123.129 75.4003 121.654 69.2361 121.597C63.0718 121.539 58.0675 122.921 58.0586 124.682C58.0497 126.443 63.0396 127.918 69.2039 127.975C75.3681 128.033 80.3725 126.651 80.3813 124.89Z" fill="#1D1616"/>
<path opacity="0.939" d="M80.1524 124.876C80.1612 123.135 75.2293 121.678 69.1366 121.621C63.044 121.565 58.0979 122.93 58.0891 124.67C58.0803 126.411 63.0122 127.868 69.1048 127.925C75.1974 127.982 80.1436 126.617 80.1524 124.876Z" fill="#1C1717"/>
<path opacity="0.947" d="M79.9235 124.861C79.9322 123.141 75.0581 121.701 69.0369 121.645C63.0156 121.588 58.1274 122.938 58.1188 124.658C58.1101 126.379 62.9842 127.819 69.0054 127.875C75.0266 127.931 79.9148 126.582 79.9235 124.861Z" fill="#1C1717"/>
<path opacity="0.954" d="M79.6955 124.848C79.7041 123.148 74.8879 121.725 68.9384 121.669C62.9888 121.614 58.1588 122.947 58.1502 124.647C58.1416 126.346 62.9577 127.769 68.9073 127.825C74.8569 127.88 79.6869 126.547 79.6955 124.848Z" fill="#1B1717"/>
<path opacity="0.962" d="M79.4666 124.833C79.4751 123.153 74.7167 121.747 68.8386 121.692C62.9604 121.638 58.1883 122.955 58.1798 124.634C58.1714 126.314 62.9297 127.72 68.8079 127.775C74.686 127.83 79.4581 126.512 79.4666 124.833Z" fill="#1B1717"/>
<path opacity="0.97" d="M79.2376 124.819C79.246 123.16 74.5457 121.771 68.7391 121.717C62.9326 121.663 58.2187 122.964 58.2104 124.623C58.202 126.282 62.9023 127.671 68.7088 127.725C74.5154 127.779 79.2293 126.478 79.2376 124.819Z" fill="#1B1717"/>
<path opacity="0.977" d="M79.0088 124.804C79.017 123.166 74.3745 121.794 68.6394 121.74C62.9042 121.687 58.2483 122.972 58.24 124.611C58.2317 126.249 62.8743 127.621 68.6094 127.675C74.3445 127.728 79.0005 126.443 79.0088 124.804Z" fill="#1A1717"/>
<path opacity="0.985" d="M78.7798 124.79C78.788 123.172 74.2034 121.818 68.54 121.765C62.8765 121.712 58.2787 122.981 58.2705 124.599C58.2624 126.217 62.8469 127.572 68.5104 127.625C74.1739 127.677 78.7716 126.408 78.7798 124.79Z" fill="#1A1818"/>
<path opacity="0.992" d="M78.5518 124.776C78.5598 123.178 74.0331 121.84 68.441 121.788C62.8489 121.736 58.3091 122.989 58.301 124.587C58.293 126.185 62.8197 127.522 68.4118 127.575C74.0039 127.627 78.5437 126.374 78.5518 124.776Z" fill="#191818"/>
<path d="M78.3229 124.761C78.3308 123.184 73.8621 121.863 68.3417 121.812C62.8212 121.76 58.3396 122.997 58.3316 124.575C58.3237 126.152 62.7924 127.473 68.3128 127.524C73.8333 127.575 78.3149 126.338 78.3229 124.761Z" fill="#191818"/>
</g>
<path d="M26.2937 98.828L77.2603 127.785C78.8323 128.678 80.7338 127.62 81.0274 125.689L94.3973 37.7231C94.5866 36.4774 94.0263 35.24 93.0128 34.6642L42.0462 5.70663C40.4742 4.81362 38.5727 5.87159 38.2791 7.80298L24.9092 95.7685C24.72 97.0142 25.2803 98.2517 26.2937 98.828Z" fill="url(#paint0_linear_0_1)"/>
<path d="M24.2127 99.9815L75.1792 128.938C76.7513 129.831 78.6528 128.773 78.9464 126.842L92.3163 38.8765C92.5055 37.6309 91.9452 36.3934 90.9317 35.8177L39.9652 6.86069C38.3931 5.96767 36.4916 7.02564 36.1981 8.95703L22.8282 96.9226C22.6383 98.1676 23.1986 99.4057 24.2127 99.9815Z" fill="url(#paint1_linear_0_1)"/>
<path d="M90.9317 35.8177L39.9652 6.86068C39.341 6.50613 38.6684 6.46947 38.062 6.66223C38.6285 6.52129 39.2441 6.58196 39.8175 6.90744L90.7841 35.8644C91.7976 36.4402 92.3579 37.6783 92.1686 38.9233L78.7987 126.889C78.6214 128.054 77.8565 128.891 76.9342 129.184C77.9226 128.938 78.7599 128.069 78.9463 126.842L92.3163 38.8765C92.5055 37.6309 91.9452 36.3934 90.9317 35.8177Z" fill="url(#paint2_linear_0_1)"/>
<path d="M31.9265 6.53967L87.4234 37.9223C87.4234 37.9223 76.5866 108.194 72.8103 119.299C69.0341 130.404 60.8226 131.479 60.8226 131.479L0.566223 93.8113C0.566223 93.8113 15.6718 91.8085 19.6122 83.2525C23.5526 74.6964 31.9265 6.53967 31.9265 6.53967Z" fill="url(#paint3_linear_0_1)"/>
<path d="M31.581 9.30908L72.7647 32.2469L82.612 56.8367C82.612 56.8367 76.5677 96.369 71.8299 105.97C68.3546 113.012 59.604 118.983 55.1882 121.664C53.5933 122.633 51.6593 122.612 50.0832 121.607C42.3877 116.695 18.9977 101.644 13.0184 96.3696C5.83015 90.03 4.19653 82.5598 4.19653 82.5598C4.19653 82.5598 13.345 90.03 16.7759 83.3283C20.2061 76.6253 31.581 9.30908 31.581 9.30908Z" fill="url(#paint4_linear_0_1)"/>
<path d="M72.7647 32.2468L67.2858 50.9054L82.612 56.8367L72.7647 32.2468Z" fill="url(#paint5_linear_0_1)"/>
<path d="M48.7095 54.8977L73.4515 69.5588" stroke="#999999" stroke-miterlimit="10" stroke-linecap="round" stroke-linejoin="round"/>
<path d="M47.2321 61.2335L71.9741 75.8947" stroke="#999999" stroke-miterlimit="10" stroke-linecap="round" stroke-linejoin="round"/>
<path d="M45.7541 67.5693L70.4966 82.2305" stroke="#999999" stroke-miterlimit="10" stroke-linecap="round" stroke-linejoin="round"/>
<path d="M31.2487 66.0071L69.0186 88.5663" stroke="#999999" stroke-miterlimit="10" stroke-linecap="round" stroke-linejoin="round"/>
<path d="M29.7713 72.3428L67.5412 94.9014" stroke="#999999" stroke-miterlimit="10" stroke-linecap="round" stroke-linejoin="round"/>
<path d="M28.2933 78.6786L66.0638 101.237" stroke="#999999" stroke-miterlimit="10" stroke-linecap="round" stroke-linejoin="round"/>
<path d="M38.1942 50.0237L34.1968 48.0202L34.6471 46.3138L44.377 51.1885L43.9267 52.8949L39.9099 50.8826L36.2607 64.7196L34.545 63.8601L38.1942 50.0237Z" fill="#BCBBBB"/>
<path opacity="0.46" d="M47.3723 22.636L44.8426 31.3778C44.1119 33.9027 41.5201 35.1066 39.3843 33.9134C37.7672 33.0096 36.9755 30.9436 37.5113 29.0261L43.7044 6.85938" stroke="#808080" stroke-width="10.733" stroke-miterlimit="10"/>
<path d="M46.5618 21.848L44.0321 30.5898C43.3014 33.1146 40.7096 34.3186 38.5738 33.1254C36.9567 32.2216 36.165 30.1556 36.7008 28.2381L42.8938 6.07133C43.6981 3.19257 46.6655 1.83377 49.0675 3.2444C50.4229 4.04072 51.12 5.75344 50.7615 7.40675L50.1339 10.3013" stroke="#FE9C28" stroke-width="5" stroke-miterlimit="10"/>
<defs>
<linearGradient id="paint0_linear_0_1" x1="56.542" y1="11.7541" x2="60.285" y2="65.5689" gradientUnits="userSpaceOnUse">
<stop stop-color="#1D3D6B"/>
<stop offset="1" stop-color="#246DA8"/>
</linearGradient>
<linearGradient id="paint1_linear_0_1" x1="57.5721" y1="104.062" x2="57.5721" y2="38.5414" gradientUnits="userSpaceOnUse">
<stop stop-color="#3ABAF9"/>
<stop offset="1" stop-color="#267EBD"/>
</linearGradient>
<linearGradient id="paint2_linear_0_1" x1="65.2072" y1="104.003" x2="65.2072" y2="38.5267" gradientUnits="userSpaceOnUse">
<stop stop-color="#205488"/>
<stop offset="1" stop-color="white"/>
</linearGradient>
<linearGradient id="paint3_linear_0_1" x1="41.0301" y1="13.4667" x2="44.821" y2="67.9694" gradientUnits="userSpaceOnUse">
<stop stop-color="#CBC9CA"/>
<stop offset="1" stop-color="#E5E5E5"/>
</linearGradient>
<linearGradient id="paint4_linear_0_1" x1="31.4172" y1="113.273" x2="72.3748" y2="18.4104" gradientUnits="userSpaceOnUse">
<stop stop-color="white"/>
<stop offset="0.343" stop-color="#E5E5E5"/>
<stop offset="1" stop-color="white"/>
</linearGradient>
<linearGradient id="paint5_linear_0_1" x1="77.1436" y1="44.8662" x2="66.3104" y2="50.1113" gradientUnits="userSpaceOnUse">
<stop stop-color="#747071"/>
<stop offset="0.365" stop-color="#ACAAAB"/>
<stop offset="1" stop-color="#D1D0D0"/>
</linearGradient>
</defs>
</svg>
