<svg width="96" height="68" viewBox="0 0 96 68" fill="none" xmlns="http://www.w3.org/2000/svg">
<g clip-path="url(#clip0_1_2652)">
<path opacity="0.1" d="M59.52 0.890869C50.845 0.890869 43.155 6.05855 38.39 14.0241C35.88 12.7275 33.125 12.0141 30.23 12.0141C18.6 12.0141 9.17499 23.5716 9.17499 37.8215C9.17499 52.0714 18.6 63.6289 30.23 63.6289C35.13 63.6289 39.64 61.5755 43.22 58.1324C47.695 62.4999 53.36 65.1054 59.52 65.1054C73.985 65.1054 85.715 50.7314 85.715 32.995C85.715 15.2586 73.985 0.890869 59.52 0.890869Z" fill="#2A94F4"/>
<path opacity="0.1" d="M46.455 67.5C66.768 67.5 83.235 65.1807 83.235 62.3199C83.235 59.459 66.768 57.1398 46.455 57.1398C26.142 57.1398 9.67499 59.459 9.67499 62.3199C9.67499 65.1807 26.142 67.5 46.455 67.5Z" fill="#2A94F4"/>
<path d="M18.755 12.7772C18.755 12.7772 19.21 12.4173 19.08 11.5612C18.95 10.7051 18.605 9.60086 17.545 9.87382C16.485 10.1468 16.53 10.3701 16.12 9.8304C15.71 9.29688 14.295 10.5128 14.615 11.096C14.765 11.3751 14.83 11.9086 14.21 12.2312C13.59 12.5538 13.525 14.4894 14.73 14.2785C15.035 14.2226 15.015 14.7996 14.85 15.0229C14.485 15.5192 15.36 16.791 16.03 15.879C16.705 14.9671 18.755 12.7772 18.755 12.7772Z" fill="#0B4870"/>
<path d="M22.55 64.1935H75.315C77.22 64.1935 78.76 62.2765 78.76 59.9191V23.6833C78.76 21.3197 77.215 19.4089 75.315 19.4089H22.55C20.645 19.4089 19.105 21.3259 19.105 23.6833V59.9191C19.105 62.2765 20.65 64.1935 22.55 64.1935Z" fill="#FFBE55"/>
<path d="M78.7627 35.9155L19.1027 35.9155V25.4685L78.7627 25.4685V35.9155Z" fill="#0E538C"/>
<path d="M63.9559 44.5665L21.9809 44.5665V41.9734L63.9559 41.9734V44.5665Z" fill="#F7F7F7"/>
<path d="M52.8023 48.6946L21.9823 48.6946V46.7342L52.8023 46.7342V48.6946Z" fill="#F7F7F7"/>
<path d="M52.8023 52.8257L21.9823 52.8257V50.8653L52.8023 50.8653V52.8257Z" fill="#F7F7F7"/>
<path d="M18.455 59.3049L18.255 61.501H17.015V59.0133L18.455 59.3049ZM13.625 59.3049L13.425 61.501H12.185V59.0133L13.625 59.3049Z" fill="#FCD2B1"/>
<path d="M17.64 16.6979C17.6 17.43 17.355 18.0689 17.095 18.1H16.355C16.095 18.0689 15.845 17.4362 15.81 16.6979C15.75 15.4882 15.88 15.0602 15.815 13.8504C15.775 13.1246 17.865 12.3429 17.825 13.0688C17.765 14.2785 17.705 15.4882 17.64 16.6979ZM21.545 16.4498C21.545 16.4498 22.815 16.6979 23.335 16.8592C24.78 17.2997 25.325 18.131 25.675 18.528C26.025 18.9251 25.255 18.9747 24.865 19.3345C24.475 19.6943 21.31 18.6521 20.645 18.1744C19.985 17.6905 21.115 16.4498 21.545 16.4498Z" fill="#F7D9C1"/>
<path d="M16.885 17.7339C17.79 17.492 17.64 16.4001 17.64 16.4001C17.64 16.4001 19.865 15.8046 21.075 16.1582C22.285 16.5118 22.83 16.7041 22.945 16.7537C23.06 16.8034 22.01 16.9709 21.66 18.5404C21.31 20.1099 21.22 20.3643 21.22 20.3643L20.41 20.2154C20.41 20.2154 19.875 32.8834 19.68 34.0993C19.485 35.3152 15.4 35.7247 13.705 34.5273C13.705 34.5273 13.555 29.4713 13.555 22.5728L13.475 16.9212C13.475 16.9212 15.375 16.7041 15.805 16.7041C15.81 16.6979 15.79 18.0255 16.885 17.7339Z" fill="#2A94F4"/>
<path d="M25.465 18.2798C25.02 17.8703 24.62 17.951 23.125 18.5279C21.135 19.2972 20.475 19.6074 20.17 19.7687C19.865 19.9362 19.68 20.4697 19.525 21.0901C19.37 21.7104 19.635 22.1075 19.635 22.2377C19.635 22.3184 20.045 22.5541 20.35 22.5665C20.535 22.5727 20.61 22.2377 20.45 21.363C20.23 20.1595 23.57 20.0851 24.035 20.0044C24.485 19.9238 26.51 19.2476 25.465 18.2798ZM9.67999 27.2069C9.67999 25.6994 11.575 21.0094 11.575 21.0094C11.575 20.997 11.58 20.9908 11.58 20.9784V20.9722C11.58 20.966 11.585 20.9598 11.585 20.9536C11.585 20.9536 11.585 20.9474 11.59 20.9474C11.59 20.9412 11.595 20.9412 11.595 20.935L11.6 20.9288L11.605 20.9226C11.605 20.9226 11.61 20.9226 11.61 20.9164C11.615 20.9164 11.615 20.9102 11.62 20.9102H11.665C11.67 20.9102 11.67 20.9102 11.675 20.9164C11.68 20.9164 11.68 20.9164 11.685 20.9226C11.69 20.9226 11.695 20.9288 11.695 20.9288C11.7 20.9288 11.7 20.935 11.705 20.935C11.71 20.935 11.715 20.9412 11.72 20.9412C11.725 20.9412 11.73 20.9474 11.73 20.9474C11.735 20.9536 11.74 20.9536 11.745 20.9598C11.75 20.966 11.755 20.966 11.755 20.9722C11.76 20.9784 11.765 20.9784 11.77 20.9846C11.775 20.9908 11.78 20.9908 11.785 20.997C11.79 21.0032 11.795 21.0094 11.8 21.0094C11.805 21.0156 11.81 21.0156 11.815 21.0218L11.83 21.0404C11.835 21.0466 11.84 21.0528 11.845 21.0528L11.86 21.0714L11.875 21.0901C11.88 21.0963 11.885 21.1025 11.895 21.1087L11.91 21.1273L11.93 21.1521L11.945 21.1707L11.965 21.1955L11.98 21.2141C11.985 21.2265 11.995 21.2327 12 21.2452L12.015 21.2638C12.02 21.2762 12.03 21.2824 12.035 21.2948L12.05 21.3134C12.06 21.3258 12.065 21.3382 12.075 21.3506L12.09 21.3692C12.1 21.3816 12.105 21.394 12.115 21.4064C12.12 21.4127 12.12 21.4189 12.125 21.4251C12.135 21.4375 12.145 21.4561 12.155 21.4685C12.16 21.4747 12.16 21.4809 12.165 21.4809C12.175 21.4995 12.185 21.5119 12.195 21.5305C12.195 21.5367 12.2 21.5367 12.2 21.5429C12.21 21.5615 12.225 21.5802 12.235 21.605C12.715 22.4052 12.96 23.1931 12.775 23.5467C12.525 24.0306 11.13 26.4811 11.45 27.362C11.77 28.2491 13.72 31.8597 13.72 31.8597L13.425 32.9888C13.42 33.0012 9.67999 29.3038 9.67999 27.2069Z" fill="#FFE3CA"/>
<path d="M13.945 17.0452C13.945 17.0452 13.295 16.1643 12.375 18.3542C11.825 19.6632 11.36 21.0156 10.995 22.2191C10.995 22.2191 12.41 25.1969 13.035 23.9251C13.215 23.5591 13.69 22.6906 13.825 22.2874C14.615 19.8679 13.945 17.0452 13.945 17.0452Z" fill="#2A94F4"/>
<path d="M18.37 11.0959C18.58 11.4868 18.675 12.7461 18.605 13.2797C18.345 15.3207 17.68 16.6793 15.845 14.9609C15.45 14.5886 15.41 13.869 15.345 13.7635C15.28 13.6581 14.805 13.4968 14.85 12.6903C14.895 11.8838 15.34 12.2995 15.425 12.8702L15.655 13.3541C15.675 13.3913 15.705 13.4161 15.74 13.4223C15.81 13.4285 15.87 13.3479 15.855 13.261L15.7 12.4049C15.7 12.4049 16.35 12.7337 16.595 12.0017C16.84 11.2697 17.635 12.6469 17.965 11.6791L18.37 11.0959Z" fill="#FFE3CA"/>
<path d="M16.83 61.2839H17.015C17.015 61.2839 17.7 61.6995 18.275 61.2839H18.525L18.655 61.7554C18.655 61.7554 18.91 62.444 19.93 62.078C20.615 61.8298 20.97 62.7356 20.99 63.5917H16.83V61.2839ZM11.985 61.2839H12.17C12.17 61.2839 12.855 61.6995 13.43 61.2839H13.68L13.81 61.7554C13.81 61.7554 14.065 62.444 15.085 62.078C15.77 61.8298 16.125 62.7356 16.145 63.5917H11.985V61.2839ZM19.86 32.3746C19.86 32.3746 19.925 45.9235 19.75 49.2239C19.575 52.5243 18.625 59.795 18.625 59.795H16.805C16.805 59.795 17.305 49.6271 17.305 48.6594C17.305 47.6916 16.59 39.0374 15.9 38.8637C15.25 38.7024 15.265 45.7808 15.23 48.678C15.195 51.5751 13.71 59.7888 13.71 59.7888H11.99C11.99 59.7888 12.93 51.9473 12.77 48.2499C12.685 46.2337 12.58 42.9333 12.605 39.6144C12.625 36.8475 13.675 32.6476 13.675 32.6476L19.86 32.3746Z" fill="#0B4870"/>
<path d="M13.64 31.2332C13.8 31.3076 13.79 31.2952 13.79 31.2952C13.79 31.2952 15.31 32.4491 14.375 33.7023C14.055 34.1303 13.61 33.8139 13.445 33.3301L13.355 33.0633C13.355 33.0571 13.485 31.1526 13.64 31.2332Z" fill="#FFE3CA"/>
</g>
<defs>
<clipPath id="clip0_1_2652">
<rect width="96" height="67" fill="white" transform="translate(0 0.5)"/>
</clipPath>
</defs>
</svg>
