<svg width="141" height="121" viewBox="0 0 141 121" fill="none" xmlns="http://www.w3.org/2000/svg">
<path d="M41.6818 45.8348C41.6818 45.8348 39.2176 29.1409 36.8329 28.4105C34.4481 27.6802 37.7868 39.5746 36.8329 40.0962C35.879 40.6179 31.4275 21.5243 30.1556 22.1504C28.8838 22.7764 32.7788 35.2087 32.2224 35.3571C31.666 35.5055 25.4657 15.8902 22.9219 18.9159C20.3783 21.9417 32.6994 40.2992 31.8249 41.7106C30.9505 43.122 27.7604 33.8427 25.8631 36.9661C23.9659 40.0895 33.9712 47.1911 33.2558 48.9648C32.5403 50.7385 26.976 44.061 27.7709 48.9648C28.5658 53.8687 34.8456 52.3036 37.4688 56.7901C40.092 61.2765 40.9664 71.0841 43.4306 68.2671C45.8948 65.4501 41.6818 45.8348 41.6818 45.8348Z" fill="#8DD3AD"/>
<path d="M23.8174 48.3055C24.1794 48.2583 24.53 48.2984 24.8695 48.4145C31.3301 50.6234 32.8404 73.4333 35.2619 74.8684C37.5918 76.2493 35.3058 57.4888 40.5684 62.0155C45.8309 66.5422 39.7208 86.6094 44.1266 85.504C48.5323 84.3987 43.7883 74.2798 51.8091 77.9862C57.5155 80.6231 54.9063 101.277 53.0628 112.327C52.3875 116.374 49.6341 119.283 46.4222 119.332C41.6235 119.405 35.3023 119.5 35.0163 119.496C29.2813 119.421 9.97619 98.7268 11.5851 88.8785C13.3239 78.2347 21.4479 96.836 24.2935 94.8074C27.1391 92.7788 10.3839 67.9417 16.5442 65.8459C22.7046 63.75 25.0469 80.5377 28.4461 79.091C31.8451 77.6443 16.5664 49.2527 23.8174 48.3055Z" fill="#38A06C"/>
<path d="M40.7639 112.933C40.7805 112.933 40.7974 112.929 40.814 112.922C40.8998 112.887 40.947 112.768 40.9193 112.658L27.936 60.7442C27.9083 60.6336 27.8163 60.573 27.7306 60.6086C27.6448 60.6442 27.5976 60.7628 27.6253 60.8734L40.6086 112.787C40.6309 112.876 40.6949 112.933 40.7639 112.933Z" fill="#78CEA2"/>
<path d="M35.9766 93.5883L40.1945 72.2865C40.2168 72.1739 40.164 72.0593 40.0767 72.0306C39.9892 72.0019 39.9004 72.0699 39.8781 72.1824L35.7903 92.8273L23.1285 78.8053C23.0954 78.7689 23.0529 78.7508 23.0099 78.755C22.9669 78.7592 22.9268 78.7853 22.8983 78.8277C22.8843 78.8486 22.8737 78.8728 22.867 78.8991C22.8603 78.9254 22.8577 78.9532 22.8593 78.9809C22.8609 79.0085 22.8668 79.0355 22.8764 79.0601C22.8861 79.0848 22.8995 79.1066 22.9157 79.1244L35.9766 93.5883ZM39.1839 107.132L39.2564 107.03L51.1868 90.2582C51.2013 90.238 51.2125 90.2142 51.2199 90.1882C51.2272 90.1622 51.2305 90.1345 51.2296 90.1068C51.2286 90.0791 51.2235 90.052 51.2144 90.0269C51.2053 90.0019 51.1925 89.9795 51.1768 89.961C51.1446 89.9233 51.1025 89.9035 51.0595 89.9059C51.0164 89.9083 50.9757 89.9327 50.9462 89.9739L39.0882 106.643L20.9914 98.552C20.9061 98.5139 20.8132 98.5722 20.7837 98.6818C20.7542 98.7916 20.7992 98.9114 20.8844 98.9496L39.1839 107.132Z" fill="#78CEA2"/>
<path d="M94.3873 91.1944C94.3873 91.1944 89.6276 58.1169 99.0392 45.5374C108.451 32.9578 115.574 46.3025 114.379 58.7814C113.338 69.6503 104.97 84.4408 102.828 88.0763C102.512 88.6124 102.063 88.9857 101.558 89.1307L94.3873 91.1944Z" fill="#8DD3AD"/>
<path d="M98.1542 85.8989C98.27 84.2082 98.4245 82.5225 98.6175 80.8439L94.5013 68.4021C94.4194 68.1547 94.4585 67.8484 94.5885 67.7181C94.7186 67.5876 94.8903 67.6826 94.9722 67.9302L98.7858 79.4571C99.2033 76.1843 99.7841 72.764 100.576 68.8784L96.8492 54.8026C96.7805 54.5434 96.8364 54.248 96.974 54.1428C97.1116 54.037 97.2786 54.1623 97.3472 54.4215L100.838 67.6085C100.885 67.3865 100.932 67.1631 100.98 66.938C101.502 64.4876 102.383 61.1406 103.335 57.7345L101.068 49.3973C100.998 49.1393 101.052 48.8425 101.189 48.7344C101.326 48.6263 101.494 48.7479 101.564 49.0058L103.641 56.6467C104.382 54.0238 105.149 51.4187 105.809 49.2123L104.736 44.0327C104.68 43.7649 104.752 43.4824 104.895 43.4018C105.038 43.3212 105.199 43.4731 105.255 43.7409L106.152 48.0701C107.003 45.2426 107.609 43.3019 107.626 43.2464C107.699 43.0117 107.868 42.9446 108.003 43.0968C108.138 43.2488 108.188 43.5624 108.115 43.7971C108.098 43.853 107.481 45.8305 106.617 48.6986L109.465 48.2823C109.617 48.2601 109.759 48.4682 109.783 48.747C109.804 48.9891 109.729 49.2049 109.609 49.2721C109.591 49.2824 109.571 49.2891 109.552 49.292L106.296 49.7679C105.649 51.9319 104.9 54.4778 104.173 57.0437L109.511 54.6298C109.657 54.5637 109.814 54.7305 109.862 55.0023C109.908 55.265 109.835 55.5298 109.698 55.6067C109.693 55.6094 109.688 55.6118 109.684 55.614L103.831 58.2609C102.887 61.6355 102.017 64.9457 101.501 67.3657C101.438 67.6654 101.374 67.9652 101.312 68.2653L109.132 66.3317C109.282 66.2945 109.43 66.4891 109.462 66.7663C109.491 67.0163 109.416 67.2481 109.291 67.3185C109.277 67.3262 109.263 67.3319 109.248 67.3355L101.087 69.3534C100.284 73.3015 99.7016 76.7614 99.2885 80.0749L106.721 76.4641C106.867 76.3935 107.025 76.5557 107.075 76.8263C107.124 77.0908 107.052 77.361 106.913 77.439C106.909 77.4409 106.906 77.4426 106.903 77.4442L99.1529 81.2091C98.9675 82.8333 98.8187 84.4643 98.7068 86.1001C98.6938 86.2895 98.6234 86.4326 98.5309 86.4847C98.4884 86.5087 98.4409 86.5126 98.3965 86.4959C98.2438 86.4403 98.1354 86.1731 98.1542 85.8989Z" fill="white"/>
<path d="M124.694 67.7055C115.636 63.2134 103.15 75.8504 96.4597 96.2862C93.1822 106.298 93.6801 113.544 95.1065 118.394H110.693C116.612 107.027 132.653 71.6534 124.694 67.7055Z" fill="#388C60"/>
<path d="M102.46 113.857L112.018 105.798C112.133 105.702 112.181 105.516 112.126 105.384C112.071 105.252 111.933 105.224 111.818 105.321L102.564 113.124C102.743 111.875 102.943 110.573 103.164 109.244C103.169 109.225 103.172 109.206 103.174 109.187C103.683 106.14 104.311 102.957 105.082 99.9735L115.109 94.6459C115.233 94.5799 115.31 94.4051 115.281 94.2554C115.252 94.1056 115.127 94.0387 115.004 94.1037L105.265 99.2785C105.536 98.2717 105.824 97.2917 106.13 96.3508L106.131 96.3481C106.496 95.2247 106.886 94.1572 107.304 93.1695C108.053 91.3998 108.793 89.7726 109.514 88.28L118.901 83.3179C119.025 83.2523 119.103 83.0776 119.074 82.9278C119.045 82.778 118.922 82.7103 118.797 82.7754L109.909 87.474C112.335 82.5697 114.525 79.2032 116.095 77.0773C118.387 73.9737 119.887 72.77 119.902 72.7583C120.018 72.6661 120.071 72.482 120.02 72.3469C119.969 72.2118 119.833 72.177 119.717 72.2688C119.654 72.3184 118.153 73.5181 115.813 76.6811C114.454 78.5184 112.637 81.2705 110.607 85.1225C110.481 82.8874 110.125 76.5586 110.091 76.1877C110.077 76.0312 109.963 75.9432 109.836 75.9911C109.71 76.039 109.619 76.2045 109.633 76.3609C109.669 76.7666 110.128 84.9421 110.184 85.9351C109.849 86.5864 109.521 87.2437 109.199 87.9065C109.189 87.924 109.18 87.9427 109.172 87.9623C108.433 89.4882 107.675 91.1532 106.907 92.9664C106.551 93.8078 106.215 94.7056 105.897 95.6448L102.029 88.1649C101.965 88.0412 101.823 88.0273 101.713 88.1344C101.603 88.2413 101.566 88.4284 101.63 88.5522L105.664 96.3515C104.456 100.107 103.53 104.458 102.821 108.594L97.1143 101.306C97.0329 101.202 96.8874 101.219 96.7895 101.346C96.6916 101.472 96.6785 101.658 96.7601 101.762L102.695 109.342C102.141 112.678 101.727 115.84 101.421 118.394H101.875C102.038 117.032 102.231 115.499 102.46 113.857Z" fill="#78CEA2"/>
<path d="M77.1578 120.971C112.173 120.971 140.558 120.272 140.558 119.41C140.558 118.547 112.173 117.848 77.1578 117.848C42.1427 117.848 13.7574 118.547 13.7574 119.41C13.7574 120.272 42.1427 120.971 77.1578 120.971Z" fill="#5CBEC6"/>
<path d="M54.0712 0.368286L49.1294 4.3223L40.313 16.2992L38.8872 20.2983V119.41H100.17V0.368286H54.0712Z" fill="#3F78E0"/>
<path d="M77.8146 94.6205H88.3692V97.0852H77.8146V94.6205Z" fill="#F4B442"/>
<path d="M47.6821 33.1141V36.5262H46.5966V28.5241H48.4634C49.5714 28.5241 50.1997 29.2825 50.1997 30.7103C50.1997 31.8674 49.7275 32.367 49.4093 32.5326C49.8815 32.8226 50.1049 33.3491 50.1049 34.5309V34.8502C50.1049 35.7595 50.1377 36.0992 50.1871 36.5264H49.1312C49.0421 36.1597 49.0262 35.5263 49.0262 34.837V34.5456C49.0262 33.476 48.8392 33.1142 48.1501 33.1142H47.6821V33.1141ZM47.6821 31.9539H48.1941C48.8532 31.9539 49.111 31.5817 49.111 30.7728C49.111 30.0836 48.8601 29.6844 48.3016 29.6844H47.6821L47.6821 31.9539ZM54.0613 32.9694H52.1045V35.2931H54.3013L54.1669 36.5263H51.027V28.5241H54.1536V29.7781H52.1045V31.7258H54.0613V32.9694ZM58.6462 36.5263H57.8142C57.7882 36.2822 57.7702 36.1024 57.7623 35.8452C57.4901 36.4787 57.0665 36.664 56.5516 36.664C55.2782 36.664 54.8175 35.1753 54.8175 32.5751C54.8175 29.6538 55.5687 28.3969 56.8782 28.3969C58.5301 28.3969 58.6213 30.2551 58.6394 30.7297H57.5607C57.5427 30.4071 57.4897 29.6092 56.8454 29.6092C56.1419 29.6092 55.9459 30.8396 55.9459 32.5723C55.9459 34.438 56.1131 35.462 56.8086 35.462C57.3873 35.462 57.5618 34.8798 57.5618 33.7008V33.2522H56.7409V32.0295H58.6462V36.5263ZM60.6877 28.5241V36.5263H59.5942V28.5241H60.6877ZM62.4908 34.2852C62.5438 34.9489 62.7466 35.5335 63.3041 35.5335C63.8415 35.5335 64.0407 35.0916 64.0407 34.4962C64.0407 33.8388 63.7942 33.4565 63.0233 32.9736C61.9794 32.3226 61.5707 31.7473 61.5707 30.5585C61.5707 29.2749 62.199 28.3983 63.3016 28.3983C64.6732 28.3983 65.0113 29.6161 65.0293 30.6579H63.9596C63.9247 30.2004 63.8346 29.5273 63.2825 29.5273C62.8505 29.5273 62.6573 29.8953 62.6573 30.4383C62.6573 31.0144 62.8526 31.284 63.5673 31.7196C64.6612 32.3834 65.1522 33.0277 65.1522 34.3671C65.1522 35.6236 64.5593 36.6626 63.2713 36.6626C61.8696 36.6626 61.4424 35.4846 61.4042 34.2853L62.4908 34.2852ZM66.7656 29.7781H65.463V28.5241H69.1616V29.7781H67.8591V36.5263H66.7656L66.7656 29.7781ZM70.8359 33.1141V36.5262H69.7504V28.5241H71.6172C72.7252 28.5241 73.3535 29.2825 73.3535 30.7103C73.3535 31.8674 72.8813 32.367 72.5631 32.5326C73.0353 32.8226 73.2587 33.3491 73.2587 34.5309V34.8502C73.2587 35.7595 73.2915 36.0992 73.3409 36.5264H72.285C72.1959 36.1597 72.18 35.5263 72.18 34.837V34.5456C72.18 33.476 71.993 33.1142 71.3039 33.1142H70.8359V33.1141ZM70.8359 31.9539H71.3479C72.0071 31.9539 72.2648 31.5817 72.2648 30.7728C72.2648 30.0836 72.0139 29.6844 71.4554 29.6844H70.8359L70.8359 31.9539ZM75.1818 34.5122L74.8791 36.5262H73.7857L75.1975 28.5241H76.6143L78.0415 36.5262H76.8962L76.5924 34.5122H75.1818ZM76.3981 33.2687C76.1707 31.7371 75.9888 30.6179 75.8929 29.8538H75.867C75.7927 30.5904 75.5995 31.7928 75.3751 33.2687H76.3981ZM78.9433 29.7781H77.6408V28.5241H81.3393V29.7781H80.0368V36.5263H78.9434V29.7781H78.9433ZM83.0215 28.5241V36.5263H81.9281V28.5241H83.0215ZM87.8582 32.464C87.8582 35.3901 87.2522 36.664 85.8469 36.664C84.5341 36.664 83.8943 35.4089 83.8943 32.4474C83.8943 29.5602 84.639 28.3969 85.8966 28.3969C87.2253 28.3969 87.8582 29.6855 87.8582 32.464ZM85.0137 32.4341C85.0137 34.3328 85.2331 35.462 85.8728 35.462C86.5464 35.462 86.7388 34.4161 86.7388 32.4369C86.7388 30.5776 86.5342 29.6092 85.8717 29.6092C85.2194 29.6092 85.0137 30.6509 85.0137 32.4341ZM88.715 36.5263V28.5241H89.9548C91.2153 32.9462 91.4576 33.7898 91.5307 34.182H91.5397C91.4878 33.2208 91.4857 32.0429 91.4857 30.7315V28.5241H92.4612V36.5263H91.2722C89.9703 31.8113 89.7392 30.9616 89.6603 30.5945H89.6513C89.6963 31.5804 89.6974 32.7587 89.6974 34.1926V36.5263H88.715Z" fill="white"/>
<path d="M48.527 46.0364H76.8439V48.8674H48.527V46.0364ZM78.3702 46.0364H89.4158V48.8674H78.3702V46.0364ZM48.527 57.1503H81.9048V59.9814H48.527V57.1503ZM83.4712 57.1503H89.4158V59.9814H83.4712V57.1503ZM48.527 51.572H69.5288V54.4031H48.527V51.572ZM71.4215 51.572H89.4158V54.4031H71.4215V51.572Z" fill="#F4B442"/>
<path d="M83.0918 87.2591C79.0234 87.2591 75.7135 82.9146 75.7135 77.5746C75.7135 72.2346 79.0234 67.8901 83.0918 67.8901C87.1603 67.8901 90.4702 72.2346 90.4702 77.5746C90.4702 82.9146 87.1603 87.2591 83.0918 87.2591Z" fill="#54678C"/>
<path d="M83.0918 90.8366C83.0362 90.8366 82.9815 90.8173 82.9334 90.7807L81.2807 89.5229L79.3873 89.8579C79.332 89.8676 79.2757 89.858 79.2242 89.83C79.1727 89.8019 79.1277 89.7565 79.0939 89.6983L77.9361 87.7034L76.0895 87.0598C76.0357 87.041 75.9866 87.0039 75.9473 86.9523C75.9079 86.9006 75.8796 86.8362 75.8653 86.7655L75.375 84.3419L73.8552 82.8222C73.8108 82.7778 73.7762 82.7188 73.7548 82.6512C73.7335 82.5835 73.7262 82.5097 73.7336 82.4371L73.9888 79.9518L73.0306 77.7826C73.0027 77.7194 72.988 77.6477 72.988 77.5746C72.988 77.5016 73.0027 77.4299 73.0306 77.3667L73.9888 75.1974L73.7336 72.7121C73.7262 72.6395 73.7335 72.5657 73.7548 72.498C73.7762 72.4304 73.8108 72.3713 73.8552 72.327L75.375 70.8073L75.8654 68.3836C75.8797 68.313 75.9079 68.2485 75.9473 68.1968C75.9867 68.1452 76.0358 68.1081 76.0896 68.0893L77.9361 67.4458L79.0939 65.4509C79.1277 65.3927 79.1727 65.3472 79.2242 65.3192C79.2758 65.2912 79.332 65.2815 79.3873 65.2913L81.2808 65.6262L82.9335 64.3684C82.9816 64.3318 83.0362 64.3125 83.0919 64.3125C83.1475 64.3125 83.2022 64.3318 83.2503 64.3684L84.903 65.6262L86.7965 65.2913C86.9089 65.2715 87.021 65.3323 87.0899 65.4509L88.2477 67.4458L90.0942 68.0894C90.148 68.1081 90.1971 68.1452 90.2364 68.1969C90.2758 68.2486 90.3041 68.313 90.3183 68.3837L90.8087 70.8073L92.3285 72.327C92.3729 72.3714 92.4075 72.4304 92.4289 72.4981C92.4502 72.5657 92.4576 72.6396 92.4501 72.7122L92.1949 75.1974L93.1532 77.3667C93.1811 77.4299 93.1958 77.5016 93.1958 77.5746C93.1958 77.6477 93.1811 77.7194 93.1532 77.7826L92.1949 79.9518L92.4501 82.4371C92.4575 82.5097 92.4502 82.5836 92.4288 82.6512C92.4075 82.7189 92.3728 82.7779 92.3285 82.8223L90.8087 84.3421L90.3183 86.7656C90.304 86.8363 90.2757 86.9007 90.2364 86.9524C90.197 87.0041 90.1479 87.0412 90.0941 87.0599L88.2476 87.7035L87.0898 89.6984C87.056 89.7567 87.011 89.8021 86.9595 89.8302C86.908 89.8582 86.8517 89.8678 86.7964 89.858L84.9029 89.523L83.2503 90.7808C83.2021 90.8174 83.1475 90.8366 83.0918 90.8366ZM81.3457 88.6786C81.4011 88.6786 81.4557 88.6977 81.5041 88.7345L83.0918 89.9428L84.6796 88.7345C84.7402 88.6884 84.8108 88.67 84.8802 88.6823L86.6987 89.004L87.8107 87.088C87.8532 87.0147 87.9131 86.9621 87.9809 86.9385L89.7548 86.3201L90.226 83.9918C90.2439 83.9028 90.284 83.8243 90.3398 83.7685L91.7995 82.3088L91.5545 79.9219C91.5451 79.8308 91.5591 79.7382 91.5943 79.6586L92.5149 77.5746L91.5943 75.4906C91.5591 75.4111 91.5451 75.3185 91.5545 75.2273L91.7996 72.8405L90.3398 71.3808C90.284 71.3251 90.244 71.2465 90.226 71.1575L89.7549 68.8291L87.981 68.2108C87.9132 68.1871 87.8533 68.1345 87.8108 68.0613L86.6988 66.1453L84.8802 66.4669C84.8108 66.4793 84.7402 66.4609 84.6796 66.4148L83.0919 65.2064L81.5042 66.4148C81.4436 66.4609 81.373 66.4793 81.3036 66.4669L79.4851 66.1453L78.373 68.0613C78.3305 68.1345 78.2707 68.1871 78.2029 68.2108L76.4289 68.829L75.9578 71.1574C75.9399 71.2464 75.8998 71.325 75.844 71.3808L74.3842 72.8404L74.6293 75.2273C74.6387 75.3184 74.6247 75.411 74.5895 75.4905L73.6689 77.5746L74.5895 79.6586C74.6246 79.7381 74.6386 79.8307 74.6293 79.9219L74.3842 82.3087L75.844 83.7684C75.8998 83.8241 75.9399 83.9027 75.9578 83.9917L76.4289 86.3201L78.2028 86.9384C78.2706 86.9621 78.3305 87.0146 78.373 87.0879L79.4851 89.004L81.3036 88.6823C81.3175 88.6798 81.3317 88.6786 81.3457 88.6786Z" fill="#54678C"/>
<path d="M82.6522 83.8465C82.6125 83.8417 82.5759 83.8165 82.5504 83.7764C82.5248 83.7362 82.5125 83.6844 82.5161 83.6323C82.5179 83.6065 82.5235 83.5814 82.5327 83.5585C82.5418 83.5356 82.5544 83.5153 82.5695 83.4987C82.5847 83.4821 82.6022 83.4697 82.621 83.462C82.6398 83.4543 82.6596 83.4516 82.6793 83.4539C82.6989 83.4562 82.718 83.4636 82.7355 83.4756C82.753 83.4876 82.7685 83.5039 82.7811 83.5238C82.7937 83.5436 82.8033 83.5666 82.8092 83.5913C82.8151 83.6159 82.8172 83.6419 82.8154 83.6677C82.8121 83.7167 82.7949 83.7623 82.7672 83.7955C82.7395 83.8288 82.7034 83.8472 82.6659 83.8473C82.6616 83.8473 82.6569 83.8469 82.6522 83.8465ZM83.3738 83.6677C83.3719 83.6419 83.374 83.6159 83.3798 83.5911C83.3857 83.5663 83.3952 83.5433 83.4078 83.5234C83.4204 83.5035 83.4359 83.487 83.4534 83.4749C83.4708 83.4629 83.49 83.4554 83.5096 83.4531C83.5493 83.4484 83.5887 83.4645 83.6193 83.4979C83.6499 83.5313 83.6692 83.5793 83.6728 83.6313C83.6764 83.6834 83.6641 83.7352 83.6387 83.7753C83.6132 83.8155 83.5766 83.8407 83.537 83.8455C83.5323 83.8464 83.5276 83.8464 83.5233 83.8464C83.4859 83.8464 83.4498 83.8281 83.4221 83.7951C83.3945 83.762 83.3772 83.7166 83.3738 83.6677ZM81.7818 83.6349C81.7628 83.6278 81.7451 83.6159 81.7296 83.5999C81.7141 83.5838 81.7012 83.5639 81.6916 83.5412C81.682 83.5186 81.6759 83.4937 81.6736 83.468C81.6713 83.4423 81.6729 83.4162 81.6783 83.3913C81.6837 83.3664 81.6927 83.3432 81.7049 83.3228C81.7171 83.3025 81.7323 83.2856 81.7495 83.273C81.7667 83.2604 81.7856 83.2523 81.8052 83.2493C81.8248 83.2463 81.8446 83.2484 81.8635 83.2555C81.8825 83.2626 81.9002 83.2744 81.9157 83.2905C81.9312 83.3065 81.9441 83.3264 81.9537 83.349C81.9633 83.3715 81.9694 83.3964 81.9717 83.4221C81.974 83.4478 81.9724 83.4738 81.967 83.4987C81.9582 83.5401 81.9393 83.5765 81.9132 83.6025C81.8871 83.6284 81.8552 83.6424 81.8225 83.6424C81.8087 83.6424 81.795 83.6399 81.7818 83.6349ZM84.2218 83.4973C84.2164 83.4724 84.2148 83.4464 84.217 83.4207C84.2193 83.395 84.2254 83.3701 84.235 83.3475C84.2445 83.3249 84.2574 83.3049 84.2729 83.2889C84.2883 83.2728 84.306 83.2608 84.325 83.2537C84.3439 83.2466 84.3638 83.2445 84.3834 83.2474C84.403 83.2504 84.422 83.2584 84.4392 83.2711C84.4565 83.2837 84.4716 83.3006 84.4839 83.321C84.4961 83.3413 84.5052 83.3646 84.5105 83.3895C84.5159 83.4144 84.5175 83.4404 84.5153 83.4661C84.513 83.4917 84.5069 83.5166 84.4973 83.5391C84.4878 83.5617 84.4749 83.5816 84.4595 83.5976C84.444 83.6137 84.4263 83.6256 84.4074 83.6327C84.3937 83.6379 84.3797 83.6405 84.366 83.6405C84.3334 83.6404 84.3017 83.6264 84.2757 83.6006C84.2497 83.5747 84.2308 83.5385 84.2218 83.4973ZM80.9558 83.2156C80.9381 83.2041 80.9223 83.1881 80.9094 83.1686C80.8964 83.149 80.8865 83.1263 80.8803 83.1017C80.874 83.0771 80.8715 83.0512 80.8729 83.0253C80.8743 82.9995 80.8795 82.9742 80.8884 82.9511C80.8972 82.9279 80.9094 82.9073 80.9243 82.8903C80.9392 82.8733 80.9564 82.8604 80.9751 82.8522C80.9939 82.844 81.0136 82.8407 81.0333 82.8425C81.0529 82.8443 81.0721 82.8512 81.0898 82.8628C81.1074 82.8743 81.1231 82.8903 81.1361 82.9099C81.149 82.9294 81.1589 82.9521 81.1651 82.9767C81.1713 83.0012 81.1739 83.0271 81.1725 83.0529C81.1711 83.0788 81.1658 83.104 81.157 83.1271C81.1446 83.16 81.1254 83.1876 81.1016 83.2068C81.0779 83.2261 81.0505 83.2363 81.0225 83.2362C81.0002 83.2362 80.9771 83.2297 80.9558 83.2156ZM85.0312 83.1241C85.0224 83.1009 85.0171 83.0757 85.0157 83.0498C85.0143 83.024 85.0169 82.998 85.0231 82.9735C85.0294 82.9489 85.0393 82.9262 85.0522 82.9067C85.0652 82.8871 85.0809 82.8711 85.0986 82.8595C85.1162 82.8475 85.1356 82.8402 85.1554 82.8381C85.1752 82.836 85.1952 82.839 85.2141 82.8471C85.2331 82.8552 85.2506 82.8682 85.2657 82.8852C85.2807 82.9023 85.2931 82.9231 85.302 82.9465C85.3109 82.9698 85.3161 82.9953 85.3175 83.0214C85.3188 83.0474 85.3162 83.0736 85.3097 83.0983C85.3033 83.123 85.2932 83.1458 85.28 83.1654C85.2667 83.1849 85.2507 83.2008 85.2328 83.2121C85.2151 83.2238 85.1959 83.2307 85.1762 83.2325C85.1566 83.2344 85.1368 83.2311 85.1181 83.223C85.0993 83.2148 85.082 83.2018 85.0671 83.1849C85.0522 83.1679 85.04 83.1472 85.0312 83.1241ZM80.2032 82.6037C80.1874 82.5881 80.1741 82.5686 80.1641 82.5463C80.1541 82.524 80.1476 82.4993 80.1448 82.4737C80.1421 82.448 80.1433 82.422 80.1482 82.3969C80.1532 82.3718 80.1619 82.3483 80.1738 82.3277C80.1856 82.307 80.2005 82.2896 80.2175 82.2764C80.2345 82.2633 80.2533 82.2547 80.2728 82.2511C80.2924 82.2475 80.3122 82.249 80.3313 82.2555C80.3504 82.2621 80.3683 82.2735 80.3841 82.2892C80.3998 82.3047 80.413 82.3242 80.423 82.3466C80.433 82.3689 80.4396 82.3935 80.4423 82.4192C80.445 82.4448 80.4439 82.4709 80.4389 82.4959C80.434 82.521 80.4253 82.5445 80.4134 82.5651C80.3994 82.5895 80.3812 82.6093 80.3604 82.6229C80.3395 82.6365 80.3166 82.6436 80.2933 82.6435C80.2607 82.6435 80.2291 82.6295 80.2032 82.6037ZM85.7744 82.5612C85.7625 82.5405 85.7538 82.517 85.7488 82.492C85.7439 82.467 85.7427 82.4409 85.7454 82.4153C85.7481 82.3897 85.7546 82.365 85.7645 82.3427C85.7745 82.3203 85.7877 82.3008 85.8034 82.2852C85.8352 82.2536 85.8753 82.2399 85.9148 82.247C85.9542 82.2542 85.99 82.2816 86.014 82.3233C86.026 82.344 86.0347 82.3674 86.0396 82.3925C86.0446 82.4175 86.0458 82.4436 86.0431 82.4692C86.0404 82.4948 86.0339 82.5195 86.0239 82.5418C86.014 82.5642 86.0008 82.5837 85.985 82.5993L85.9847 82.5997C85.969 82.6153 85.951 82.6267 85.932 82.6333C85.9129 82.6398 85.893 82.6413 85.8735 82.6377C85.8539 82.6341 85.8351 82.6255 85.8181 82.6124C85.8011 82.5993 85.7863 82.5818 85.7744 82.5612ZM79.5487 81.8213H79.5483C79.5215 81.7827 79.5074 81.7316 79.5092 81.6794C79.5111 81.6271 79.5286 81.578 79.558 81.5427C79.5874 81.5075 79.6263 81.489 79.6661 81.4914C79.7059 81.4938 79.7434 81.5168 79.7703 81.5554C79.797 81.5941 79.811 81.6451 79.8092 81.6973C79.8074 81.7495 79.7899 81.7987 79.7606 81.834C79.733 81.8673 79.6969 81.8857 79.6594 81.8856C79.6386 81.8857 79.6179 81.8799 79.5989 81.8689C79.5798 81.8578 79.5627 81.8416 79.5487 81.8213ZM86.4266 81.8292C86.3971 81.794 86.3795 81.7448 86.3777 81.6926C86.3758 81.6403 86.3898 81.5893 86.4166 81.5506H86.4169C86.4302 81.5314 86.4462 81.516 86.464 81.505C86.4819 81.494 86.5012 81.4877 86.5209 81.4865C86.5406 81.4854 86.5602 81.4893 86.5788 81.4981C86.5973 81.5069 86.6143 81.5204 86.6288 81.5379C86.6583 81.5731 86.6759 81.6222 86.6778 81.6744C86.6797 81.7267 86.6657 81.7778 86.6389 81.8165C86.6247 81.8367 86.6076 81.8528 86.5884 81.8638C86.5693 81.8748 86.5486 81.8805 86.5277 81.8804C86.4903 81.8805 86.4543 81.8622 86.4266 81.8292ZM79.014 80.8952C79.0036 80.8732 78.9965 80.8488 78.9933 80.8232C78.99 80.7977 78.9906 80.7716 78.9951 80.7463C78.9996 80.7211 79.0078 80.6973 79.0193 80.6762C79.0308 80.6552 79.0453 80.6373 79.0621 80.6237C79.0959 80.5961 79.1367 80.5873 79.1755 80.5992C79.2143 80.6111 79.248 80.6427 79.269 80.6871C79.2794 80.7091 79.2864 80.7336 79.2896 80.7591C79.2928 80.7846 79.2921 80.8107 79.2876 80.8359C79.2831 80.8611 79.2749 80.8849 79.2634 80.9059C79.2519 80.9269 79.2373 80.9447 79.2206 80.9583C79.2039 80.972 79.1853 80.9813 79.1658 80.9855C79.1464 80.9898 79.1265 80.9889 79.1073 80.9831C79.0881 80.9772 79.07 80.9664 79.054 80.9513C79.038 80.9363 79.0244 80.9172 79.014 80.8952ZM86.9656 80.9531C86.9318 80.9254 86.9077 80.8813 86.8986 80.8304C86.8895 80.7795 86.8962 80.7259 86.9172 80.6814C86.9382 80.6371 86.9718 80.6054 87.0106 80.5935C87.0494 80.5816 87.0902 80.5904 87.1241 80.6179C87.1579 80.6455 87.182 80.6895 87.1911 80.7404C87.2002 80.7912 87.1935 80.8447 87.1725 80.8891V80.8895C87.159 80.918 87.1402 80.9415 87.1178 80.9578C87.0955 80.974 87.0703 80.9825 87.0447 80.9824C87.0168 80.9826 86.9893 80.9724 86.9656 80.9531ZM78.6182 79.8561C78.611 79.832 78.6075 79.8062 78.6079 79.7803C78.6083 79.7544 78.6126 79.7288 78.6205 79.7051C78.6284 79.6814 78.6399 79.6599 78.6541 79.642C78.6684 79.6241 78.6852 79.6101 78.7036 79.6007C78.7407 79.5818 78.782 79.583 78.8184 79.604C78.8548 79.6251 78.8834 79.6642 78.8979 79.7128H78.8982C78.9054 79.737 78.9088 79.7628 78.9084 79.7887C78.9079 79.8146 78.9036 79.8401 78.8956 79.8639C78.8877 79.8876 78.8762 79.909 78.8619 79.9269C78.8477 79.9448 78.8308 79.9589 78.8124 79.9682C78.7941 79.9776 78.7745 79.9822 78.7548 79.9817C78.7351 79.9811 78.7156 79.9755 78.6976 79.9651C78.6795 79.9546 78.6632 79.9397 78.6496 79.921C78.636 79.9023 78.6253 79.8802 78.6182 79.8561ZM87.3734 79.9617C87.355 79.9524 87.3382 79.9384 87.3239 79.9205C87.3096 79.9026 87.2982 79.8812 87.2902 79.8576C87.2823 79.8339 87.2779 79.8084 87.2775 79.7825C87.277 79.7566 87.2805 79.7309 87.2876 79.7067C87.2947 79.6826 87.3054 79.6605 87.319 79.6418C87.3326 79.623 87.3489 79.608 87.3669 79.5976C87.385 79.5871 87.4044 79.5814 87.4241 79.5809C87.4439 79.5803 87.4635 79.5848 87.4819 79.5942C87.519 79.6131 87.5488 79.6506 87.5649 79.6984C87.581 79.7462 87.582 79.8004 87.5676 79.8492C87.5567 79.8863 87.5374 79.9181 87.5124 79.9407C87.4874 79.9632 87.4578 79.9752 87.4275 79.9753C87.4089 79.9752 87.3906 79.9706 87.3734 79.9617ZM78.3752 78.7382C78.3681 78.6868 78.3767 78.6338 78.3992 78.5907C78.4217 78.5476 78.4563 78.5179 78.4954 78.5082C78.5345 78.4988 78.5749 78.5101 78.6078 78.5396C78.6406 78.5692 78.6632 78.6146 78.6706 78.6659C78.6742 78.6914 78.674 78.7175 78.6699 78.7429C78.6658 78.7682 78.658 78.7922 78.6468 78.8136C78.6357 78.835 78.6214 78.8532 78.6049 78.8673C78.5883 78.8815 78.5698 78.8912 78.5504 78.8959C78.5413 78.8981 78.532 78.8993 78.5227 78.8994C78.452 78.8994 78.3889 78.8333 78.3752 78.7382ZM87.6344 78.8889C87.615 78.8842 87.5965 78.8745 87.5799 78.8605C87.5634 78.8464 87.5491 78.8282 87.5379 78.8069C87.5267 78.7855 87.5188 78.7615 87.5147 78.7362C87.5106 78.7109 87.5103 78.6848 87.5139 78.6593C87.5212 78.6079 87.5437 78.5624 87.5766 78.5327C87.6094 78.5031 87.6499 78.4918 87.6891 78.5012C87.7282 78.5108 87.7629 78.5405 87.7854 78.5836C87.8079 78.6267 87.8165 78.6798 87.8092 78.7312C87.8028 78.7764 87.7846 78.8172 87.7578 78.8466C87.7309 78.876 87.697 78.8922 87.662 78.8924C87.6528 78.8924 87.6437 78.8911 87.6344 78.8889ZM78.2935 77.5817C78.2931 77.5555 78.2967 77.5295 78.3041 77.5051C78.3114 77.4808 78.3224 77.4586 78.3364 77.4399C78.3504 77.4212 78.367 77.4063 78.3854 77.3961C78.4038 77.386 78.4236 77.3807 78.4435 77.3807C78.4635 77.3807 78.4832 77.3859 78.5016 77.396C78.5201 77.4061 78.5368 77.4209 78.5507 77.4396C78.5647 77.4583 78.5758 77.4804 78.5832 77.5047C78.5906 77.5291 78.5942 77.5551 78.5939 77.5813C78.5939 77.6335 78.5781 77.6836 78.55 77.7205C78.5219 77.7575 78.4838 77.7783 78.444 77.7784C78.4243 77.7785 78.4047 77.7734 78.3865 77.7636C78.3682 77.7538 78.3516 77.7393 78.3376 77.721C78.3237 77.7027 78.3126 77.681 78.305 77.6571C78.2974 77.6332 78.2935 77.6076 78.2935 77.5817ZM87.5897 77.5743C87.5897 77.5721 87.59 77.5699 87.59 77.5677C87.59 77.5655 87.5897 77.5633 87.5897 77.5611C87.5897 77.5088 87.6054 77.4586 87.6335 77.4215C87.6616 77.3844 87.6997 77.3634 87.7396 77.3631C87.7593 77.363 87.7789 77.3681 87.7971 77.378C87.8154 77.3879 87.832 77.4024 87.8459 77.4207C87.8599 77.439 87.871 77.4607 87.8786 77.4847C87.8862 77.5086 87.8901 77.5343 87.8901 77.5602V77.5742C87.8901 77.6001 87.8862 77.6258 87.8787 77.6497C87.8712 77.6736 87.8601 77.6954 87.8461 77.7137C87.8322 77.732 87.8156 77.7465 87.7974 77.7564C87.7791 77.7663 87.7596 77.7714 87.7399 77.7714C87.7201 77.7714 87.7006 77.7663 87.6824 77.7564C87.6642 77.7465 87.6476 77.732 87.6337 77.7136C87.6197 77.6953 87.6087 77.6736 87.6011 77.6497C87.5936 77.6258 87.5897 77.6001 87.5897 77.5743ZM78.4937 76.6543C78.4546 76.6448 78.4199 76.6153 78.3973 76.5722C78.3747 76.5292 78.3661 76.4762 78.3732 76.4248C78.3805 76.3734 78.403 76.3279 78.4358 76.2982C78.4686 76.2686 78.509 76.2572 78.5481 76.2667C78.5849 76.2756 78.6179 76.3023 78.6405 76.3415C78.6631 76.3806 78.6738 76.4294 78.6704 76.4784C78.667 76.5273 78.6498 76.5728 78.6222 76.606C78.5946 76.6392 78.5586 76.6577 78.5211 76.6578C78.5121 76.6578 78.503 76.6565 78.4937 76.6543ZM87.5122 76.4765C87.5048 76.4251 87.5133 76.372 87.5357 76.3288C87.5582 76.2856 87.5928 76.2559 87.6319 76.2462C87.671 76.2365 87.7115 76.2476 87.7444 76.2771C87.7773 76.3066 87.7999 76.352 87.8073 76.4033C87.8147 76.4548 87.8062 76.5079 87.7837 76.5511C87.7613 76.5944 87.7266 76.6241 87.6875 76.6338C87.6681 76.6386 87.6482 76.6383 87.6289 76.633C87.6096 76.6277 87.5913 76.6174 87.575 76.6028C87.5587 76.5882 87.5448 76.5695 87.534 76.5478C87.5233 76.5261 87.5159 76.5019 87.5122 76.4765ZM78.6999 75.5613C78.6628 75.5425 78.6328 75.505 78.6167 75.4571C78.6006 75.4093 78.5996 75.355 78.614 75.3062C78.6284 75.2574 78.657 75.2181 78.6934 75.1969C78.7299 75.1758 78.7712 75.1745 78.8084 75.1934C78.8455 75.2123 78.8754 75.2498 78.8915 75.2976C78.9076 75.3454 78.9085 75.3996 78.8942 75.4483C78.8833 75.4855 78.864 75.5175 78.839 75.54C78.814 75.5625 78.7843 75.5745 78.754 75.5745C78.736 75.5745 78.718 75.5705 78.6999 75.5613ZM87.2836 75.4295C87.2693 75.3807 87.2702 75.3265 87.2862 75.2786C87.3022 75.2308 87.332 75.1932 87.3691 75.1741C87.3875 75.1646 87.4071 75.1601 87.4268 75.1606C87.4465 75.1611 87.466 75.1668 87.4841 75.1772C87.5021 75.1876 87.5185 75.2026 87.5321 75.2213C87.5458 75.24 87.5565 75.2621 87.5637 75.2862C87.5781 75.335 87.5772 75.3892 87.5612 75.4371C87.5452 75.485 87.5153 75.5226 87.4782 75.5416C87.4609 75.5504 87.4424 75.5549 87.4238 75.5548C87.3936 75.5548 87.364 75.5429 87.339 75.5205C87.314 75.4982 87.2947 75.4664 87.2836 75.4295ZM79.0571 74.5372C79.0403 74.5236 79.0257 74.5057 79.0141 74.4847C79.0026 74.4637 78.9943 74.4399 78.9898 74.4146C78.9853 74.3894 78.9846 74.3632 78.9878 74.3377C78.991 74.3121 78.998 74.2876 79.0084 74.2656C79.0294 74.2212 79.0629 74.1896 79.1016 74.1776C79.1403 74.1656 79.1811 74.1742 79.215 74.2016C79.2428 74.2242 79.2643 74.258 79.2762 74.298C79.288 74.3381 79.2896 74.3821 79.2806 74.4234C79.2717 74.4647 79.2527 74.501 79.2265 74.5269C79.2004 74.5527 79.1685 74.5666 79.1358 74.5665C79.108 74.5665 79.0808 74.5563 79.0571 74.5372ZM86.9118 74.4561C86.8908 74.4117 86.884 74.3582 86.893 74.3073C86.9021 74.2563 86.9261 74.2122 86.9599 74.1845C86.9937 74.1569 87.0345 74.148 87.0733 74.1599C87.1121 74.1717 87.1457 74.2032 87.1668 74.2476C87.1878 74.292 87.1946 74.3455 87.1856 74.3964C87.1766 74.4473 87.1525 74.4915 87.1188 74.5192C87.102 74.5329 87.0834 74.5421 87.0639 74.5463C87.0445 74.5506 87.0246 74.5498 87.0053 74.5439C86.9861 74.538 86.968 74.5273 86.9519 74.5122C86.9359 74.4971 86.9223 74.4781 86.9118 74.4561ZM79.5513 73.6164C79.5219 73.5811 79.5043 73.532 79.5024 73.4798C79.5005 73.4275 79.5145 73.3764 79.5413 73.3377C79.5682 73.2991 79.6056 73.276 79.6454 73.2735C79.6852 73.271 79.7241 73.2894 79.7536 73.3246C79.783 73.3598 79.8005 73.409 79.8024 73.4612C79.8042 73.5135 79.7901 73.5645 79.7633 73.6031H79.7636C79.7339 73.6461 79.6932 73.6675 79.6525 73.6675C79.6151 73.6676 79.579 73.6493 79.5513 73.6164ZM86.4099 73.5883C86.3966 73.5693 86.3862 73.5469 86.3795 73.5226C86.3728 73.4983 86.3697 73.4725 86.3706 73.4467C86.3715 73.4209 86.3762 73.3955 86.3845 73.3721C86.3929 73.3487 86.4047 73.3276 86.4192 73.3102C86.4337 73.2926 86.4508 73.279 86.4693 73.2702C86.4878 73.2613 86.5075 73.2573 86.5273 73.2585C86.547 73.2596 86.5663 73.2658 86.5842 73.2768C86.6021 73.2878 86.6182 73.3033 86.6315 73.3224C86.6448 73.3415 86.6551 73.3638 86.6618 73.3881C86.6686 73.4124 86.6716 73.4382 86.6707 73.464C86.6698 73.4899 86.6651 73.5152 86.6568 73.5387C86.6484 73.5621 86.6367 73.5832 86.6221 73.6006C86.5945 73.634 86.5583 73.6524 86.5207 73.6523C86.4998 73.6523 86.4792 73.6467 86.4601 73.6356C86.4411 73.6246 86.4239 73.6085 86.4099 73.5883ZM80.1655 72.83C80.1414 72.7883 80.131 72.7357 80.1365 72.6839C80.1419 72.6321 80.1628 72.5852 80.1946 72.5536C80.2103 72.538 80.2282 72.5266 80.2472 72.52C80.2663 72.5135 80.2862 72.5119 80.3057 72.5155C80.3252 72.519 80.344 72.5276 80.361 72.5407C80.378 72.5538 80.3929 72.5711 80.4048 72.5917C80.4168 72.6123 80.4255 72.6358 80.4306 72.6608C80.4356 72.6858 80.4368 72.7119 80.4341 72.7376C80.4315 72.7632 80.425 72.7879 80.415 72.8102C80.405 72.8326 80.3918 72.8521 80.3761 72.8677C80.35 72.8938 80.3181 72.908 80.2853 72.908C80.2399 72.908 80.1952 72.8809 80.1655 72.83ZM85.7954 72.8559C85.7797 72.8403 85.7664 72.8208 85.7564 72.7985C85.7464 72.7761 85.7398 72.7514 85.7371 72.7258C85.7343 72.7002 85.7355 72.674 85.7404 72.649C85.7453 72.6239 85.754 72.6004 85.7659 72.5797C85.7778 72.559 85.7926 72.5416 85.8096 72.5284C85.8266 72.5153 85.8454 72.5067 85.865 72.5031C85.8845 72.4995 85.9044 72.501 85.9235 72.5074C85.9426 72.5139 85.9606 72.5253 85.9763 72.5409C85.9921 72.5565 86.0053 72.576 86.0153 72.5983C86.0253 72.6206 86.0318 72.6453 86.0346 72.6709C86.0373 72.6966 86.0361 72.7226 86.0312 72.7477C86.0262 72.7728 86.0176 72.7963 86.0057 72.8169C85.9917 72.8413 85.9736 72.8611 85.9528 72.8747C85.932 72.8883 85.9091 72.8953 85.8858 72.8953C85.8532 72.8954 85.8215 72.8816 85.7954 72.8559ZM80.879 72.204C80.8612 72.1573 80.8583 72.1033 80.8709 72.0537C80.8835 72.0042 80.9105 71.9632 80.9461 71.9399C80.9637 71.9283 80.9829 71.9213 81.0026 71.9194C81.0223 71.9175 81.042 71.9207 81.0607 71.9289C81.0795 71.937 81.0968 71.9499 81.1117 71.9668C81.1266 71.9837 81.1389 72.0044 81.1477 72.0275C81.1655 72.0743 81.1685 72.1284 81.1559 72.178C81.1433 72.2276 81.1162 72.2687 81.0806 72.2921C81.063 72.3037 81.0438 72.3106 81.0241 72.3125C81.0044 72.3143 80.9846 72.3111 80.9659 72.3029C80.9472 72.2947 80.9299 72.2818 80.915 72.2648C80.9001 72.2478 80.8878 72.2272 80.879 72.204ZM85.0896 72.2833C85.0719 72.2718 85.0561 72.2559 85.0431 72.2364C85.0301 72.2169 85.0202 72.1942 85.0139 72.1697C85.0076 72.1451 85.0051 72.1192 85.0064 72.0934C85.0078 72.0676 85.013 72.0423 85.0218 72.0192C85.0305 71.9959 85.0427 71.9752 85.0575 71.9582C85.0724 71.9411 85.0897 71.9281 85.1084 71.9198C85.1271 71.9116 85.1468 71.9082 85.1665 71.91C85.1862 71.9118 85.2054 71.9187 85.223 71.9303C85.2587 71.9536 85.2858 71.9945 85.2985 72.044C85.3112 72.0935 85.3084 72.1476 85.2908 72.1944C85.2783 72.2273 85.2591 72.255 85.2352 72.2744C85.2114 72.2937 85.184 72.3039 85.156 72.3039C85.1329 72.3039 85.1102 72.2968 85.0896 72.2833ZM81.668 71.7616C81.6626 71.7367 81.6609 71.7106 81.6631 71.6849C81.6654 71.6592 81.6715 71.6343 81.681 71.6117C81.6906 71.5891 81.7035 71.5692 81.719 71.5531C81.7344 71.537 81.7521 71.5251 81.7711 71.5181C81.8094 71.5037 81.8505 71.5099 81.8853 71.5353C81.9201 71.5607 81.9457 71.6031 81.9567 71.6534C81.9676 71.7036 81.9629 71.7575 81.9436 71.8032C81.9242 71.8489 81.8919 71.8826 81.8536 71.897C81.8399 71.9022 81.8259 71.9048 81.8122 71.9048C81.7795 71.9047 81.7478 71.8907 81.7218 71.8649C81.6958 71.839 81.6769 71.8028 81.668 71.7616ZM84.3153 71.8917C84.2963 71.8847 84.2785 71.8728 84.263 71.8568C84.2475 71.8407 84.2345 71.8208 84.2249 71.7982C84.2152 71.7756 84.2091 71.7506 84.2068 71.7249C84.2045 71.6991 84.2061 71.673 84.2115 71.6481C84.2223 71.5978 84.2479 71.5552 84.2827 71.5297C84.3174 71.5042 84.3584 71.4978 84.3967 71.5119C84.4351 71.5262 84.4675 71.5599 84.4869 71.6055C84.5064 71.6512 84.5113 71.7051 84.5005 71.7554C84.4916 71.7967 84.4727 71.833 84.4466 71.8588C84.4205 71.8846 84.3887 71.8986 84.356 71.8986C84.3426 71.8986 84.3286 71.8964 84.3153 71.8917ZM82.5057 71.5185C82.5039 71.4927 82.5059 71.4667 82.5117 71.4419C82.5175 71.4172 82.527 71.3942 82.5396 71.3743C82.5521 71.3544 82.5676 71.3379 82.585 71.3258C82.6025 71.3137 82.6216 71.3062 82.6412 71.3038C82.6808 71.299 82.7203 71.315 82.751 71.3484C82.7816 71.3817 82.801 71.4297 82.8047 71.4817C82.8065 71.5075 82.8045 71.5335 82.7986 71.5583C82.7928 71.583 82.7833 71.6061 82.7707 71.626C82.7581 71.6459 82.7426 71.6624 82.7251 71.6745C82.7076 71.6866 82.6885 71.694 82.6689 71.6964C82.6642 71.6968 82.6595 71.6972 82.6548 71.6972C82.6175 71.6972 82.5815 71.6789 82.5539 71.6458C82.5263 71.6127 82.5091 71.5673 82.5057 71.5185ZM83.4993 71.6945C83.4602 71.6888 83.4244 71.6633 83.3996 71.6233C83.3747 71.5834 83.3627 71.5323 83.3662 71.4809C83.3697 71.4295 83.3884 71.382 83.4182 71.3485C83.4481 71.315 83.4868 71.2981 83.526 71.3016C83.5657 71.3063 83.6023 71.3316 83.6278 71.3717C83.6534 71.4119 83.6657 71.4637 83.6622 71.5158C83.6588 71.5648 83.6416 71.6105 83.614 71.6437C83.5863 71.6769 83.5501 71.6954 83.5126 71.6954C83.5083 71.6954 83.5036 71.695 83.4993 71.6945Z" fill="#FFD45C"/>
<path d="M38.8872 20.2983C38.8872 20.2983 41.0561 17.1691 45.7555 15.6402C47.0736 15.2113 49.3303 15.1657 51.1779 15.2184C51.1779 15.2184 51.1806 2.65217 54.0712 0.368286C54.0712 0.368286 49.9743 3.51454 46.4792 6.78318C42.9841 10.0519 39.1683 17.8918 38.8872 20.2983Z" fill="#F4B442"/>
<path d="M59.7479 77.5401C59.4898 78.0531 59.2297 78.5644 58.9674 79.0737C59.0716 79.7946 59.1215 80.155 59.2167 80.8758C58.8208 81.2189 58.4245 81.5611 58.0276 81.9024C57.8984 82.6244 57.8315 82.9853 57.6926 83.7072L56.3037 84.0741C56.0218 84.5876 55.7374 85.0989 55.4505 85.6078C54.909 85.467 54.6381 85.3965 54.0961 85.2556C53.6888 85.5986 53.281 85.9406 52.8728 86.2816C52.5042 85.9425 52.135 85.6044 51.7653 85.2673L50.372 85.6334C50.095 85.023 49.9545 84.7177 49.67 84.1074C49.2171 83.9896 48.7642 83.872 48.3113 83.7543C48.2309 83.0334 48.1882 82.673 48.0981 81.9522C47.7181 81.613 47.3376 81.2746 46.9566 80.9373C47.0802 80.2153 47.1397 79.8544 47.2544 79.1325C46.9986 78.6221 46.7408 78.1135 46.4808 77.6067C46.7381 77.0973 46.9932 76.5861 47.2464 76.0731C47.1484 75.4715 47.0467 74.8709 46.9414 74.2714C47.3983 73.8608 47.6262 73.6556 48.0808 73.245C48.1556 72.6443 48.2272 72.0428 48.2956 71.4408L49.6555 71.0741C49.8944 70.5643 50.1316 70.0533 50.3673 69.541L51.7576 69.893C52.2054 69.4828 52.4288 69.2777 52.8748 68.8676C53.3612 69.2731 53.6039 69.4758 54.0884 69.8813L55.4459 69.5155C55.7284 70.0226 56.0096 70.531 56.2892 71.0408L57.6768 71.3938C57.7912 71.9932 57.9024 72.5937 58.0104 73.1953C58.488 73.6011 58.7263 73.8041 59.2016 74.21C59.1245 74.8123 59.0438 75.4138 58.9595 76.0144C59.2243 76.5212 59.4871 77.0297 59.7479 77.5401Z" fill="#FF5F4A"/>
<path d="M51.6105 100.557C51.5694 100.557 51.5269 100.555 51.4828 100.55C51.1538 100.512 50.9044 100.229 50.7808 99.7536C50.7071 99.4701 50.6771 99.1182 50.6843 98.724C49.2321 100.029 48.4842 99.6052 48.3901 99.5421L48.6359 98.9102L48.6278 98.9051C48.6353 98.9091 49.3179 99.2618 50.7614 97.7683C50.9857 96.098 51.6662 94.1004 52.4557 93.1459C52.8234 92.7015 53.1037 92.5397 53.3381 92.6367C53.4888 92.6992 53.5972 92.8665 53.6354 93.0957C53.783 93.9827 52.9468 96.1648 51.6068 97.7572C51.4937 97.8917 51.3784 98.0229 51.2609 98.1506C51.202 98.7111 51.2073 99.1971 51.2924 99.5245C51.3703 99.8243 51.482 99.8371 51.5296 99.8425C51.9408 99.89 52.1022 99.5662 52.3526 98.9907C52.6078 98.4047 52.925 97.6744 53.723 97.7642C54.37 97.8362 54.8464 98.2822 55.2667 98.6758C55.7267 99.1064 56.0898 99.4464 56.582 99.2962C56.6151 99.2861 56.8033 99.1857 57.2531 98.2024C57.5738 97.5014 57.9412 96.5495 58.3301 95.5417C59.545 92.3939 60.9219 88.8261 62.3675 88.6885C62.7944 88.6473 63.0291 88.8868 63.1502 89.0945C63.6881 90.0167 63.1759 92.1597 62.3331 95.3239C61.8948 96.9695 61.4417 98.671 61.5212 99.3071C61.5246 99.3345 61.5281 99.3588 61.5316 99.3807C61.6563 99.2099 61.8361 98.8889 61.977 98.6374C62.5199 97.6683 63.1956 96.4617 63.9925 96.7352C65.2667 97.1717 66.2347 98.5109 66.2753 98.5677C66.3001 98.6016 66.3196 98.6416 66.3326 98.6854C66.3456 98.7292 66.3519 98.776 66.351 98.823C66.3501 98.87 66.3421 98.9163 66.3274 98.9592C66.3128 99.0021 66.2918 99.0408 66.2657 99.0729C66.2395 99.1051 66.2088 99.1301 66.1752 99.1466C66.1417 99.163 66.106 99.1705 66.0702 99.1687C66.0344 99.1668 65.9992 99.1557 65.9667 99.1358C65.9343 99.116 65.9051 99.0879 65.881 99.0531C65.8722 99.0409 64.9763 97.8056 63.856 97.4217C63.4141 97.2711 62.8112 98.346 62.4126 99.0578C61.9965 99.8006 61.7216 100.292 61.373 100.181C61.0709 100.086 61.0106 99.6038 60.9878 99.4222C60.8859 98.6077 61.3201 96.9774 61.8229 95.0898C62.3711 93.0317 63.1219 90.213 62.7211 89.5259C62.6969 89.4845 62.6328 89.3747 62.4067 89.3962C61.266 89.5049 59.8479 93.1793 58.8124 95.8624C57.8117 98.4554 57.2635 99.8164 56.7047 99.9873C55.9749 100.21 55.4553 99.7239 54.9529 99.2535C54.5537 98.8799 54.1767 98.5269 53.6773 98.4712C53.2448 98.4243 53.0784 98.7539 52.822 99.3428C52.5851 99.8872 52.2935 100.557 51.6105 100.557ZM53.1144 93.3711C53.0527 93.4172 52.9573 93.5043 52.8219 93.668C52.2314 94.3819 51.7344 95.7124 51.4576 96.9669C52.5929 95.5032 53.0902 93.8971 53.1144 93.3711Z" fill="black"/>
<path d="M54.0712 0.368287C54.0712 0.368287 49.1295 5.12251 50.0332 12.8724C50.0332 12.8724 42.2611 12.1453 38.8872 20.2983C38.8872 20.2983 39.6392 12.4004 44.7515 6.51964C50.1135 0.351362 54.0712 0.368287 54.0712 0.368287Z" fill="#FFF385"/>
<path d="M19.1785 119.918C29.5264 119.918 37.9151 119.616 37.9151 119.242C37.9151 118.868 29.5264 118.566 19.1785 118.566C8.83049 118.566 0.441818 118.868 0.441818 119.242C0.441818 119.616 8.83049 119.918 19.1785 119.918Z" fill="#5CBEC6"/>
<path d="M23.121 61.3512C23.0478 61.3512 22.9774 61.3145 22.924 61.2488C22.8706 61.1831 22.8383 61.0932 22.8336 60.9973C22.5541 55.2878 23.5099 51.455 24.3609 49.2452C25.2939 46.8222 26.2943 45.7711 26.3364 45.7276C26.3964 45.6661 26.4725 45.6384 26.5481 45.6503C26.6236 45.6622 26.6925 45.713 26.7397 45.7914C26.7869 45.8698 26.8085 45.9695 26.7999 46.0687C26.7912 46.168 26.753 46.2587 26.6936 46.3211C26.6841 46.331 25.7328 47.3399 24.8575 49.6327C24.0477 51.7537 23.139 55.4386 23.4088 60.9488C23.4114 61.0004 23.4058 61.0522 23.3925 61.1009C23.3791 61.1496 23.3583 61.1942 23.3313 61.2319C23.3044 61.2696 23.2718 61.2997 23.2356 61.3202C23.1994 61.3407 23.1604 61.3513 23.121 61.3512Z" fill="white"/>
<path d="M111.842 60.2377C111.842 60.2377 105.339 67.2394 103.859 67.8527C102.38 68.466 95.4124 65.7003 95.0597 66.2861C94.7071 66.8719 93.9064 69.7808 94.522 70.0433C95.1376 70.3058 101.212 73.3154 105.612 72.0661C110.012 70.8168 113.755 64.1996 113.755 64.1996L111.842 60.2377Z" fill="#CE4949"/>
<path d="M65.4657 92.7491C68.0079 88.8687 68.1528 86.5372 68.1528 86.5372L72.6989 83.8502L73.5476 85.4747L74.3963 87.0992L70.8486 91.6973C70.8486 91.6973 69.1395 91.0347 65.4657 92.7491Z" fill="white"/>
<path d="M75.3734 87.7673C75.1182 87.9579 74.7944 87.8609 74.6282 87.543L73.5476 85.4746L72.4669 83.4062C72.3009 83.0883 72.3487 82.6568 72.5761 82.413C81.2467 73.1154 99.146 58.5695 99.146 58.5695L101.892 63.8264C101.892 63.8264 85.1053 80.5011 75.3734 87.7673Z" fill="#434A59"/>
<path d="M98.9346 67.3473L95.578 60.9225L97.1185 59.6191L100.426 65.9501L98.9346 67.3473Z" fill="#FFE67B"/>
<path d="M97.1185 59.6191L107.323 50.9852C108.07 50.3533 109.064 50.6159 109.567 51.5777L110.693 53.7345C111.199 54.7031 111.021 56.0252 110.293 56.7075L100.426 65.9501L97.1185 59.6191Z" fill="#434A59"/>
<path d="M109.264 53.7509C109.214 53.6544 109.142 53.5803 109.059 53.5387C108.976 53.4971 108.885 53.4899 108.798 53.5181C108.711 53.5463 108.634 53.6084 108.575 53.6963C108.516 53.7842 108.479 53.8936 108.469 54.0098L108.458 54.1274C108.427 54.4836 108.338 54.8269 108.197 55.134C108.056 55.4411 107.867 55.705 107.641 55.9077L94.3793 67.8445C94.2844 67.9311 94.2195 68.0634 94.1987 68.2126C94.1779 68.3618 94.2029 68.5157 94.2682 68.6408C94.3336 68.7659 94.434 68.852 94.5475 68.8803C94.661 68.9085 94.7785 68.8767 94.8742 68.7918L108.136 56.8549C108.465 56.5593 108.741 56.1746 108.947 55.7267C109.152 55.2788 109.282 54.7782 109.328 54.2587L109.338 54.141C109.35 54.0036 109.324 53.8649 109.264 53.7509Z" fill="#FFE67B"/>
<path d="M68.5 90.7213C68.5984 90.4093 68.4855 90.0516 68.2478 89.9225C68.0101 89.7933 67.7376 89.9415 67.6392 90.2535C67.5408 90.5655 67.6537 90.9232 67.8914 91.0524C68.1291 91.1815 68.4016 91.0333 68.5 90.7213Z" fill="#434A59"/>
<path d="M65.6698 92.4325L68.0083 90.4327C68.0228 90.4215 68.04 90.418 68.0563 90.423C68.0727 90.4281 68.087 90.4412 68.0962 90.4597C68.1053 90.4782 68.1087 90.5006 68.1056 90.5223C68.1025 90.544 68.0931 90.5633 68.0794 90.5762L65.6211 92.6785C65.5692 92.7021 65.5183 92.7246 65.4656 92.7492C65.5343 92.6443 65.6024 92.5387 65.6698 92.4325Z" fill="#434A59"/>
<path d="M81.5423 74.8322C81.5268 74.8037 81.5156 74.7715 81.5096 74.7374C81.5035 74.7033 81.5027 74.6679 81.507 74.6333C81.5114 74.5988 81.5209 74.5657 81.535 74.5359C81.5492 74.5062 81.5676 74.4804 81.5893 74.4601C84.8328 71.4191 89.484 67.2101 93.2231 64.4282C93.2463 64.4108 93.2718 64.3997 93.2983 64.3954C93.3248 64.391 93.3516 64.3936 93.3773 64.4029C93.4031 64.4123 93.4271 64.4282 93.4481 64.4497C93.4691 64.4713 93.4867 64.4981 93.4998 64.5286C93.5264 64.5901 93.5332 64.6629 93.5188 64.731C93.5045 64.7991 93.4701 64.857 93.4233 64.8919C89.6996 67.6625 85.061 71.8602 81.8254 74.8938C81.7816 74.9349 81.7272 74.9514 81.6741 74.9399C81.6211 74.9283 81.5737 74.8896 81.5423 74.8322Z" fill="white"/>
<path d="M133.029 118.231C133.266 117.579 133.185 117.132 133.103 116.57C133.097 116.532 132.328 114.837 132.301 114.79C132.185 114.588 132.262 113.338 132.713 113.547C133.602 113.958 133.386 112.51 133.537 112.898C134.378 115.073 135.641 116.088 135.557 116.577C135.452 117.193 135.501 117.579 133.996 119.202C133.36 119.887 132.141 119.773 132.019 119.628C132.265 118.661 132.612 119.233 133.029 118.231ZM113.425 118.482C113.958 118.179 114.028 117.558 114.257 116.969C114.272 116.929 114.363 116.082 114.364 116.014C114.367 115.722 115.014 114.949 115.312 115.56C115.899 116.764 116.647 114.927 116.611 115.428C116.503 116.919 116.923 119.292 116.499 119.452C115.596 119.794 111.387 120.172 111.309 119.591C111.263 119.243 112.502 119.005 113.425 118.482Z" fill="#404859"/>
<path d="M110.59 94.224C110.186 99.3415 112.504 111.081 112.932 116.465C112.932 116.465 114.1 117.29 115.735 117.29C116.748 117.29 117.137 116.465 117.137 116.465C117.137 115.175 115.577 94.4836 115.577 94.4836C115.577 94.4836 119.245 83.0805 119.825 82.6676C120.389 82.2666 130.766 113.242 132.019 116.285C132.019 116.285 132.841 115.768 133.79 114.695C134.154 114.284 134.341 113.55 134.31 113.231C133.965 109.605 126.737 83.578 126.586 79.0426C126.521 77.0591 126.211 74.8628 124.711 69.754C120.822 71.6783 119.085 70.7807 118.067 70.2959C117.691 71.0802 116.246 73.5533 115.658 75.3733C114.062 80.3028 110.982 89.2531 110.59 94.224Z" fill="#54678C"/>
<path d="M126.586 79.0425C126.545 77.8079 126.41 76.4907 125.952 74.4402C123.806 74.8126 119.355 75.5874 118.679 75.7224C117.784 75.9012 115.047 78.5963 115.047 78.5963C115.047 78.5963 117.628 80.2454 121.074 80.3476C123.124 80.4085 125.229 79.7772 126.598 79.2556C126.593 79.1847 126.589 79.1137 126.586 79.0425Z" fill="#303847"/>
<path d="M114.919 78.5495C115.978 78.9462 117.068 79.1612 118.141 79.2487C118.329 79.2641 118.006 76.2512 118.192 76.259C118.557 76.2743 119.428 79.3 119.785 79.2898C123.758 79.1759 127.105 77.6141 127.105 77.6141C127.105 77.6141 125.967 67.8256 120.805 59.4607C119.581 57.4766 117.116 57.0325 115.851 57.5543C114.356 58.1714 112.707 58.5285 111.842 60.2376C111.267 61.0486 112.587 65.3531 112.622 65.5586C112.731 66.2043 114.127 69.7782 114.861 72.9349C115.264 74.6714 114.45 78.3741 114.919 78.5495Z" fill="#FF5F4A"/>
<path d="M114.572 59.0103C114.557 59.483 117.492 71.6593 117.492 71.6593C117.492 71.6593 118.146 69.6335 117.445 63.882C117.356 63.1558 116.764 57.7579 115.851 57.7134C114.837 57.664 114.588 58.5375 114.572 59.0103Z" fill="white"/>
<path d="M114.148 70.314C116.153 68.642 119.002 62.5042 119.002 62.5042L113.272 67.6012C113.536 68.3855 113.848 69.3248 114.148 70.314Z" fill="#CE4949"/>
<path d="M114.68 59.1723C114.68 59.1723 114.744 59.3908 114.857 59.4874L114.971 59.5838C114.971 59.5838 114.993 63.8614 114.857 65.7618C114.784 66.7744 113.519 74.0197 113.519 74.0197L114.317 75.4364L115.514 74.1454C115.514 74.1454 116.222 69.558 116.097 65.624C115.999 62.5142 115.243 59.3885 115.243 59.3885C115.243 59.3885 115.413 58.9986 115.311 58.8116C115.208 58.6245 115.024 58.6721 114.917 58.7634C114.809 58.8546 114.668 59.1335 114.68 59.1723Z" fill="#343A44"/>
<path d="M118.868 79.7256C118.796 79.4832 119.076 79.2952 119.149 79.5403C119.784 81.6784 119.913 81.9584 120.784 83.9514C120.884 84.1798 120.603 84.3646 120.503 84.1368C119.633 82.1438 119.503 81.8638 118.868 79.7256Z" fill="#303847"/>
<path d="M118.309 80.8774C118.679 81.0331 119.055 81.1494 119.44 81.2221C119.639 81.2597 119.622 81.6675 119.421 81.6296C119.01 81.5518 118.606 81.432 118.211 81.2656C118.018 81.1845 118.116 80.7962 118.309 80.8774Z" fill="#303847"/>
<path d="M100.115 64.5491C99.9491 63.8619 100.046 62.9053 99.7191 63.2813C99.3921 63.6573 99.601 64.3526 99.3928 64.6452C99.1845 64.9379 97.6791 63.4967 97.5578 63.9145C97.4773 64.1919 98.4272 64.7392 98.3791 64.8019C98.331 64.8645 97.4373 64.2009 97.3486 64.553C97.2399 64.9849 97.3517 65.5094 97.6737 65.8949C97.5405 65.8597 97.4252 65.8607 97.396 65.953C97.3174 66.2012 100.3 68.3208 100.447 66.1722C100.479 65.7075 100.371 65.6071 100.115 64.5491Z" fill="#FF867A"/>
<path d="M117.088 58.5422C117.088 58.5422 111.381 65.0188 109.902 65.6321C108.422 66.2454 100.659 64.0049 100.306 64.5907C99.9536 65.1765 99.153 68.0853 99.7686 68.3478C100.384 68.6104 106.458 71.62 110.858 70.3707C115.258 69.1214 119.002 62.5041 119.002 62.5041L117.088 58.5422Z" fill="#FF5F4A"/>
<path d="M114.707 95.8932C114.669 95.8932 114.631 95.8785 114.598 95.851C114.566 95.8234 114.54 95.7842 114.524 95.7379C114.508 95.6917 114.503 95.6404 114.508 95.5901C114.514 95.5399 114.53 95.4928 114.556 95.4546C115.001 94.7864 115.494 94.0192 115.553 93.8839C115.575 93.8218 115.615 93.7738 115.665 93.75C115.714 93.7262 115.768 93.7285 115.816 93.7564C115.864 93.7844 115.902 93.8357 115.921 93.8996C115.941 93.9635 115.941 94.0349 115.921 94.0986C115.862 94.2786 115.311 95.1248 114.859 95.8028C114.84 95.8312 114.817 95.854 114.791 95.8696C114.765 95.8852 114.736 95.8933 114.707 95.8932ZM115.552 93.8867C115.551 93.8883 115.551 93.8898 115.55 93.8912L115.552 93.8867Z" fill="#303847"/>
<path d="M118.193 76.4788C118.161 76.4788 118.13 76.4671 118.103 76.445C118.077 76.423 118.055 76.3915 118.042 76.3541C117.803 75.7023 117.409 71.7756 117.365 71.33C117.362 71.3014 117.363 71.2723 117.369 71.2445C117.375 71.2166 117.385 71.1905 117.398 71.1677C117.411 71.1448 117.428 71.1257 117.447 71.1113C117.466 71.0969 117.487 71.0876 117.509 71.0839C117.531 71.0801 117.553 71.082 117.574 71.0895C117.595 71.097 117.615 71.1099 117.633 71.1275C117.65 71.1451 117.665 71.1671 117.676 71.1921C117.687 71.2171 117.694 71.2447 117.697 71.2733C117.867 72.9953 118.18 75.7187 118.343 76.164C118.356 76.1975 118.361 76.2345 118.36 76.2716C118.358 76.3087 118.349 76.3446 118.334 76.376C118.319 76.4075 118.298 76.4334 118.273 76.4513C118.249 76.4693 118.221 76.4787 118.193 76.4788ZM108.701 66.205C108.616 66.205 108.57 66.1965 108.563 66.1951C108.519 66.1864 108.48 66.1552 108.453 66.1083C108.427 66.0614 108.416 66.0028 108.423 65.9452C108.429 65.8879 108.453 65.8363 108.488 65.8018C108.524 65.7672 108.568 65.7524 108.612 65.7606C108.623 65.7622 109.17 65.8465 110.175 65.2392C110.195 65.2272 110.217 65.2204 110.239 65.2193C110.261 65.2182 110.282 65.2227 110.303 65.2327C110.324 65.2428 110.343 65.258 110.359 65.2776C110.375 65.2972 110.388 65.3208 110.397 65.347C110.406 65.3732 110.411 65.4015 110.412 65.4303C110.413 65.4591 110.41 65.4879 110.402 65.5149C110.394 65.542 110.383 65.5668 110.368 65.588C110.353 65.6092 110.335 65.6263 110.315 65.6383C109.491 66.1362 108.941 66.205 108.701 66.205Z" fill="#CE4949"/>
<path d="M112.843 54.0745C112.843 54.0745 112.596 53.3919 112.68 53.0541C112.763 52.7163 112.869 52.6624 112.869 52.6624C112.869 52.6624 112.81 51.7638 113.591 51.6278C114.373 51.4919 114.784 52.1434 114.869 52.3649C114.953 52.5863 115.169 52.5513 115.209 52.719C115.249 52.8867 115.028 52.996 115.028 52.996C115.028 52.996 115.11 53.7831 115.087 54.2055C115.065 54.6279 114.854 55.4587 114.454 55.5397C114.054 55.6208 112.983 55.0031 112.843 54.0745Z" fill="#77443C"/>
<path d="M114.579 54.5356C114.579 54.5356 115.623 56.7149 115.91 57.493C116.032 57.8248 115.501 58.6457 114.957 58.8616C114.474 59.0533 114.391 58.0176 114.317 57.6141C114.153 56.7081 113.992 55.6831 113.992 55.6831L114.579 54.5356Z" fill="#FF867A"/>
<path d="M114.187 53.4619L114.687 54.8494C114.824 55.3236 114.649 55.8557 114.292 56.0481C114.006 56.2018 113.714 56.3445 113.341 56.2269C112.995 56.1179 112.942 55.6975 112.89 55.1553C112.823 54.4519 112.882 53.9496 112.945 53.593C113.09 52.7802 113.811 52.5889 114.187 53.4619Z" fill="#FF867A"/>
<path d="M112.911 53.5606C112.96 53.53 113.01 53.5051 113.061 53.4806C113.1 53.4619 113.125 53.5376 113.086 53.5564C113.035 53.5809 112.985 53.6057 112.936 53.6364C112.899 53.6598 112.874 53.5839 112.911 53.5606Z" fill="#77443C"/>
<path d="M113.628 54.6255C113.628 54.6255 113.375 54.7531 113.001 54.7543C113.001 54.7543 113.012 55.0547 113.169 55.1399C113.325 55.2253 113.577 55.016 113.628 54.6255Z" fill="white"/>
<path d="M113.468 53.3117C113.555 53.3082 113.651 53.322 113.734 53.3611C113.774 53.3796 113.751 53.4561 113.712 53.4375C113.64 53.404 113.553 53.3906 113.478 53.3936C113.437 53.3953 113.426 53.3134 113.468 53.3117Z" fill="#77443C"/>
<path d="M112.766 54.5461C112.744 54.5521 112.722 54.5558 112.7 54.5574C112.654 54.5686 112.61 54.5552 112.576 54.5196C112.541 54.4826 112.521 54.427 112.519 54.3629L112.51 53.9374C112.508 53.8122 112.581 53.6903 112.673 53.6657L112.919 53.6003C112.965 53.588 113.01 53.6012 113.045 53.6375C113.08 53.6744 113.1 53.7301 113.102 53.7941L113.106 53.9776C113.107 54.0451 113.102 54.1042 113.092 54.1582C113.036 54.4351 112.864 54.52 112.766 54.5461ZM112.685 53.7441C112.622 53.7611 112.57 53.8486 112.571 53.9353L112.58 54.3608C112.581 54.4008 112.593 54.435 112.614 54.457C112.635 54.4784 112.662 54.486 112.69 54.4784L112.696 54.4776C112.707 54.4774 112.966 54.47 113.033 54.1381C113.042 54.0915 113.046 54.0398 113.045 53.9799L113.041 53.7964C113.04 53.7564 113.028 53.7222 113.007 53.7002C112.986 53.6789 112.959 53.6713 112.931 53.6788L112.685 53.7441ZM113.779 54.2785C113.633 54.3172 113.434 54.3059 113.364 54.0749C113.35 54.027 113.342 53.9708 113.338 53.9032L113.33 53.7209C113.324 53.5958 113.395 53.4738 113.488 53.4492L113.813 53.3627C113.859 53.3503 113.904 53.3634 113.94 53.3993C113.976 53.4358 113.998 53.4906 114.001 53.5538L114.02 53.9764C114.026 54.1006 113.957 54.2215 113.865 54.2476C113.84 54.2591 113.811 54.27 113.779 54.2785ZM113.5 53.5275C113.437 53.5443 113.387 53.6307 113.391 53.716L113.399 53.8983C113.402 53.9574 113.409 54.0056 113.421 54.0456C113.506 54.3274 113.843 54.1729 113.846 54.1713L113.851 54.1697C113.914 54.1529 113.964 54.0667 113.96 53.9813L113.94 53.5587C113.938 53.5189 113.925 53.4848 113.903 53.4627C113.882 53.4411 113.854 53.4334 113.825 53.4411L113.5 53.5275Z" fill="#343A44"/>
<path d="M113.371 53.8969C113.365 53.8986 113.358 53.8976 113.352 53.8939C113.205 53.803 113.101 53.9548 113.097 53.9613C113.092 53.9689 113.084 53.9735 113.076 53.9741C113.069 53.9747 113.061 53.9712 113.055 53.9644C113.049 53.9576 113.045 53.948 113.044 53.9377C113.044 53.9273 113.046 53.917 113.051 53.9089C113.098 53.8378 113.226 53.7278 113.378 53.8215C113.384 53.8251 113.389 53.831 113.392 53.8383C113.395 53.8457 113.396 53.8542 113.395 53.8625C113.395 53.8708 113.392 53.8786 113.388 53.8848C113.383 53.891 113.377 53.8952 113.371 53.8969ZM114.643 53.705C114.599 53.6793 114.201 53.5883 113.944 53.5333L113.953 53.4618C114.019 53.4759 114.601 53.6011 114.666 53.6389L114.643 53.705Z" fill="#343A44"/>
<path d="M114.46 54.0745C114.476 53.9816 114.507 53.8954 114.521 53.8021C114.548 53.6248 114.62 53.3696 114.8 53.5516C115.063 53.8164 114.82 54.7189 114.591 54.6633C114.464 54.6323 114.404 54.4023 114.46 54.0745Z" fill="#FF867A"/>
<path d="M114.332 58.0413C114.332 58.0413 114.677 58.3363 114.805 58.2834C114.933 58.2305 115.667 56.9247 115.785 57.0267C115.903 57.1287 116.09 57.481 116.123 57.6306C116.156 57.7801 115.742 58.9231 115.557 59.0288C115.372 59.1346 114.958 58.8216 114.903 58.8967C114.848 58.9719 114.629 59.5045 114.52 59.3735C114.411 59.2426 114.059 58.4693 114.332 58.0413Z" fill="#E7F2F2"/>
<path d="M114.729 55.2881C114.481 55.6304 114.297 55.7904 113.764 56.0215C113.405 56.1771 113.157 56.0365 113.034 55.928C113.098 56.0752 113.192 56.18 113.341 56.2269C113.618 56.3142 113.85 56.258 114.069 56.1603C114.086 56.2662 114.105 56.3855 114.127 56.5136C114.136 56.5694 114.382 56.3542 114.512 56.0764C114.675 55.7264 114.729 55.2881 114.729 55.2881Z" fill="#C66C67"/>
<path d="M113.519 53.837C113.519 53.8815 113.502 53.9177 113.48 53.9177C113.459 53.9177 113.441 53.8815 113.441 53.837C113.441 53.7924 113.459 53.7562 113.48 53.7562C113.502 53.7562 113.519 53.7923 113.519 53.837ZM112.999 53.9621C112.999 54.0066 112.982 54.0428 112.96 54.0428C112.939 54.0428 112.922 54.0066 112.922 53.9621C112.922 53.9175 112.939 53.8813 112.96 53.8813C112.982 53.8813 112.999 53.9174 112.999 53.9621Z" fill="#343A44"/>
<path d="M113.311 54.3742C113.235 54.3776 113.16 54.3564 113.092 54.3125C113.039 54.279 113.009 54.3925 113.062 54.4258C113.137 54.4737 113.22 54.4971 113.304 54.4939C113.362 54.4917 113.37 54.372 113.311 54.3742Z" fill="#C66C67"/>
</svg>
