<svg width="16" height="17" viewBox="0 0 16 17" fill="none" xmlns="http://www.w3.org/2000/svg">
<g clip-path="url(#clip0_3_1032)">
<g clip-path="url(#clip1_3_1032)">
<g clip-path="url(#clip2_3_1032)">
<path d="M1 5.91016H15" stroke="black" stroke-miterlimit="10" stroke-linecap="round" stroke-linejoin="round"/>
<path d="M14 2.91016H2C1.448 2.91016 1 3.35816 1 3.91016V14.9102C1 15.4622 1.448 15.9102 2 15.9102H14C14.552 15.9102 15 15.4622 15 14.9102V3.91016C15 3.35816 14.552 2.91016 14 2.91016Z" stroke="black" stroke-miterlimit="10" stroke-linecap="round" stroke-linejoin="round"/>
<path d="M4 0.910156V2.91016" stroke="black" stroke-miterlimit="10" stroke-linecap="round" stroke-linejoin="round"/>
<path d="M12 0.910156V2.91016" stroke="black" stroke-miterlimit="10" stroke-linecap="round" stroke-linejoin="round"/>
<path d="M8 0.910156V2.91016" stroke="black" stroke-miterlimit="10" stroke-linecap="round" stroke-linejoin="round"/>
<path d="M6 7.91016V13.9102" stroke="black" stroke-miterlimit="10" stroke-linecap="round" stroke-linejoin="round"/>
<path d="M10 7.91016V13.9102" stroke="black" stroke-miterlimit="10" stroke-linecap="round" stroke-linejoin="round"/>
<path d="M3 10.9102H13" stroke="black" stroke-miterlimit="10" stroke-linecap="round" stroke-linejoin="round"/>
</g>
</g>
</g>
<defs>
<clipPath id="clip0_3_1032">
<rect width="16" height="16" fill="white" transform="translate(0 0.410156)"/>
</clipPath>
<clipPath id="clip1_3_1032">
<rect width="16" height="16" fill="white" transform="translate(0 0.410156)"/>
</clipPath>
<clipPath id="clip2_3_1032">
<rect width="16" height="16" fill="white" transform="translate(0 0.410156)"/>
</clipPath>
</defs>
</svg>
