<svg width="16" height="17" viewBox="0 0 16 17" fill="none" xmlns="http://www.w3.org/2000/svg">
<g clip-path="url(#clip0_3_1068)">
<g clip-path="url(#clip1_3_1068)">
<path d="M15 7.18623C14.7662 5.92123 14.1912 4.74416 13.3371 3.78221C12.483 2.82027 11.3822 2.11002 10.1538 1.72822C8.9253 1.34641 7.61587 1.30758 6.36694 1.6159C5.11802 1.92423 3.9771 2.56799 3.06746 3.47762C2.15783 4.38726 1.51407 5.52818 1.20574 6.7771C0.897419 8.02603 0.936256 9.33546 1.31806 10.564C1.69986 11.7924 2.41011 12.8932 3.37205 13.7473C4.334 14.6014 5.51107 15.1764 6.77607 15.4102L15 7.18623Z" stroke="black" stroke-linecap="round" stroke-linejoin="round"/>
<path d="M15.0002 7.18595C13.8738 6.97211 12.7122 7.03681 11.6164 7.37443C10.5207 7.71205 9.52413 8.31234 8.7134 9.12308C7.90267 9.93381 7.30237 10.9304 6.96476 12.0262C6.62714 13.1219 6.56244 14.2835 6.77628 15.4099" stroke="black" stroke-linecap="round" stroke-linejoin="round"/>
</g>
</g>
<defs>
<clipPath id="clip0_3_1068">
<rect width="16" height="16" fill="white" transform="translate(0 0.410156)"/>
</clipPath>
<clipPath id="clip1_3_1068">
<rect width="16" height="16" fill="white" transform="translate(0 0.410156)"/>
</clipPath>
</defs>
</svg>
