<svg width="16" height="17" viewBox="0 0 16 17" fill="none" xmlns="http://www.w3.org/2000/svg">
<g clip-path="url(#clip0_3_1046)">
<g clip-path="url(#clip1_3_1046)">
<mask id="mask0_3_1046" style="mask-type:luminance" maskUnits="userSpaceOnUse" x="0" y="0" width="16" height="17">
<path d="M16 0.410156H0V16.4102H16V0.410156Z" fill="white"/>
</mask>
<g mask="url(#mask0_3_1046)">
<path d="M12 15.4102H15V11.6917C15 11.4688 14.9255 11.2523 14.7883 11.0765C14.6512 10.9008 14.4592 10.7759 14.243 10.7217L11 9.91069L10.747 8.13669C11.2696 7.89787 11.7125 7.51402 12.0233 7.03078C12.3341 6.54754 12.4995 5.98522 12.5 5.41069V4.5367C12.5137 3.82301 12.2795 3.12665 11.8373 2.56629C11.3951 2.00594 10.7723 1.61627 10.075 1.46369C9.54877 1.36362 9.00544 1.40433 8.5 1.58169" stroke="black" stroke-linecap="round" stroke-linejoin="round"/>
<path d="M9.275 12.2037L6.5 11.4107L6.247 9.63664C6.73114 9.71334 7.22594 9.6884 7.69992 9.56341C8.17389 9.43842 8.61665 9.21611 9 8.91064C8.25816 7.90143 7.90331 6.65943 8 5.41064C8 4.61499 7.68393 3.85193 7.12132 3.28932C6.55871 2.72671 5.79565 2.41064 5 2.41064C4.20435 2.41064 3.44129 2.72671 2.87868 3.28932C2.31607 3.85193 2 4.61499 2 5.41064C2.09669 6.65943 1.74184 7.90143 1 8.91064C1.38335 9.21611 1.82611 9.43842 2.30008 9.56341C2.77406 9.6884 3.26886 9.71334 3.753 9.63664L3.5 11.4107L0.725 12.2037C0.516189 12.2634 0.332499 12.3895 0.201698 12.5629C0.0708968 12.7363 9.64852e-05 12.9475 0 13.1647V15.4102H10V13.1647C9.9999 12.9475 9.9291 12.7363 9.7983 12.5629C9.6675 12.3895 9.48381 12.2634 9.275 12.2037Z" stroke="black" stroke-linecap="round" stroke-linejoin="round"/>
</g>
</g>
</g>
<defs>
<clipPath id="clip0_3_1046">
<rect width="16" height="16" fill="white" transform="translate(0 0.410156)"/>
</clipPath>
<clipPath id="clip1_3_1046">
<rect width="16" height="16" fill="white" transform="translate(0 0.410156)"/>
</clipPath>
</defs>
</svg>
