<svg width="20" height="21" viewBox="0 0 20 21" fill="none" xmlns="http://www.w3.org/2000/svg">
<path d="M7.77344 5.27344C7.16146 5.27344 6.58854 5.39062 6.05469 5.625C5.50781 5.85938 5.03255 6.17513 4.62891 6.57227C4.22526 6.9694 3.91276 7.44141 3.69141 7.98828C3.45703 8.52214 3.33984 9.09505 3.33984 9.70703C3.33984 10.332 3.45703 10.9115 3.69141 11.4453C3.91276 11.9792 4.22526 12.4479 4.62891 12.8516C5.03255 13.2552 5.50781 13.5742 6.05469 13.8086C6.58854 14.043 7.16146 14.1602 7.77344 14.1602C8.38542 14.1602 8.96484 14.043 9.51172 13.8086C10.0456 13.5742 10.5143 13.2552 10.918 12.8516C11.3216 12.4479 11.6406 11.9792 11.875 11.4453C12.1094 10.9115 12.2266 10.332 12.2266 9.70703C12.2266 9.09505 12.1094 8.52214 11.875 7.98828C11.6406 7.44141 11.3216 6.9694 10.918 6.57227C10.5143 6.17513 10.0456 5.85938 9.51172 5.625C8.96484 5.39062 8.38542 5.27344 7.77344 5.27344ZM1.11328 9.70703C1.11328 8.79557 1.28906 7.9362 1.64062 7.12891C1.99219 6.30859 2.46745 5.59896 3.06641 5C3.66536 4.40104 4.36849 3.92578 5.17578 3.57422C5.99609 3.22266 6.86198 3.04688 7.77344 3.04688C8.69792 3.04688 9.5638 3.22266 10.3711 3.57422C11.1784 3.92578 11.8848 4.40104 12.4902 5C13.0957 5.59896 13.5742 6.30859 13.9258 7.12891C14.2773 7.9362 14.4531 8.79557 14.4531 9.70703C14.4531 10.6315 14.2773 11.4974 13.9258 12.3047C13.5742 13.112 13.0957 13.8184 12.4902 14.4238C11.8848 15.0293 11.1784 15.5078 10.3711 15.8594C9.5638 16.2109 8.69792 16.3867 7.77344 16.3867C6.86198 16.3867 5.99609 16.2109 5.17578 15.8594C4.36849 15.5078 3.66536 15.0293 3.06641 14.4238C2.46745 13.8184 1.99219 13.112 1.64062 12.3047C1.28906 11.4974 1.11328 10.6315 1.11328 9.70703ZM15.8789 19.3945L13.6523 17.168C13.444 16.9466 13.3398 16.6829 13.3398 16.377C13.3398 16.071 13.444 15.8138 13.6523 15.6055C13.8737 15.3841 14.1374 15.2734 14.4434 15.2734C14.7493 15.2734 15.013 15.3841 15.2344 15.6055L17.4609 17.8125C17.6693 18.0339 17.7734 18.2975 17.7734 18.6035C17.7734 18.9095 17.6693 19.1732 17.4609 19.3945C17.2396 19.6029 16.9759 19.707 16.6699 19.707C16.3639 19.707 16.1003 19.6029 15.8789 19.3945Z" fill="#393939"/>
</svg>
