<svg width="16" height="17" viewBox="0 0 16 17" fill="none" xmlns="http://www.w3.org/2000/svg">
<g clip-path="url(#clip0_3_1147)">
<mask id="mask0_3_1147" style="mask-type:luminance" maskUnits="userSpaceOnUse" x="0" y="0" width="16" height="17">
<path d="M16 0.410156H0V16.4102H16V0.410156Z" fill="white"/>
</mask>
<g mask="url(#mask0_3_1147)">
<path d="M12.5 15.4102H15.5V12.0781C15.501 11.8469 15.4276 11.622 15.2913 11.439C15.155 11.2561 14.9637 11.1256 14.7478 11.0684L11.5 10.2238L11.2522 8.38794C11.7746 8.14013 12.2174 7.74198 12.528 7.24081C12.8386 6.73963 13.0039 6.1565 13.0044 5.56069V4.65194C13.017 3.91225 12.7823 3.19085 12.3403 2.61023C11.8984 2.02961 11.2763 1.62556 10.5797 1.46669C10.0536 1.36203 9.51027 1.40319 9.00447 1.58603M9.78311 12.5004L7.00437 11.6742L6.74774 9.83829C7.23234 9.91652 7.72734 9.88918 8.20119 9.758C8.67504 9.62682 9.11735 9.39469 9.49993 9.0764C8.75929 8.03073 8.40451 6.74432 8.49994 5.45055C8.49994 4.62525 8.18387 3.83375 7.62126 3.25017C7.05866 2.66659 6.2956 2.33874 5.49996 2.33874C4.70432 2.33874 3.94126 2.66659 3.37866 3.25017C2.81605 3.83375 2.49998 4.62525 2.49998 5.45055C2.59541 6.74432 2.24063 8.03073 1.49999 9.0764C1.88364 9.39593 2.32743 9.62875 2.8029 9.75996C3.27838 9.89116 3.77504 9.91784 4.26103 9.83829L4.0044 11.6742L1.22566 12.5004C1.01759 12.5619 0.834377 12.6918 0.703535 12.8706C0.572692 13.0493 0.501274 13.2673 0.5 13.4917V15.4102H10.4999V13.4917C10.4992 13.2685 10.4291 13.0514 10.2999 12.8728C10.1708 12.6942 9.98954 12.5636 9.78311 12.5004Z" stroke="#F5F5F5" stroke-linecap="round" stroke-linejoin="round"/>
</g>
</g>
<defs>
<clipPath id="clip0_3_1147">
<rect width="16" height="16" fill="white" transform="translate(0 0.410156)"/>
</clipPath>
</defs>
</svg>
