<svg width="133" height="104" viewBox="0 0 133 104" fill="none" xmlns="http://www.w3.org/2000/svg">
<path d="M13.8551 46.5026C13.5602 46.6943 13.3446 46.9117 13.2082 47.155C13.0755 47.3946 13.0092 47.6526 13.0092 47.9291C13.0092 48.1318 13.0442 48.3143 13.1142 48.4765C13.1843 48.6387 13.2783 48.7769 13.3962 48.8911C13.5179 49.0017 13.6579 49.0883 13.8164 49.151C13.9786 49.21 14.15 49.2395 14.3306 49.2395C14.655 49.2395 14.9517 49.1897 15.2208 49.0902C15.4899 48.987 15.7332 48.8451 15.9506 48.6645L13.8551 46.5026ZM19.1796 50.2402H17.8416C17.7015 50.2402 17.5872 50.2236 17.4988 50.1905C17.414 50.1573 17.3237 50.0873 17.2279 49.9804L16.6749 49.4109C16.3248 49.6984 15.9322 49.9232 15.4973 50.0854C15.0623 50.2476 14.5923 50.3287 14.0873 50.3287C13.7814 50.3287 13.4792 50.2771 13.1806 50.1739C12.8857 50.067 12.6221 49.914 12.3899 49.715C12.1577 49.5159 11.9697 49.2763 11.826 48.9962C11.6859 48.7124 11.6159 48.3935 11.6159 48.0397C11.6159 47.789 11.6564 47.5531 11.7375 47.332C11.8186 47.1071 11.931 46.8988 12.0748 46.7072C12.2185 46.5155 12.3899 46.3441 12.589 46.193C12.788 46.0382 13.0055 45.9055 13.2414 45.7949C13.0424 45.5184 12.8986 45.2493 12.8101 44.9876C12.7217 44.7222 12.6774 44.4587 12.6774 44.197C12.6774 43.9205 12.7272 43.6588 12.8267 43.4119C12.9299 43.1612 13.0774 42.9437 13.269 42.7594C13.4607 42.5751 13.6966 42.4295 13.9768 42.3226C14.2569 42.212 14.5739 42.1568 14.9278 42.1568C15.2521 42.1568 15.5415 42.2065 15.7958 42.306C16.0538 42.4056 16.2732 42.5383 16.4538 42.7041C16.6381 42.87 16.7818 43.0598 16.885 43.2736C16.9919 43.4874 17.0546 43.7086 17.073 43.9371L16.205 44.1196C16.0428 44.1527 15.9248 44.0827 15.8511 43.9095C15.8179 43.8136 15.7737 43.7233 15.7184 43.6385C15.6668 43.5501 15.6042 43.4745 15.5304 43.4119C15.4567 43.3455 15.3701 43.2939 15.2706 43.257C15.171 43.2165 15.0568 43.1962 14.9278 43.1962C14.7729 43.1962 14.6347 43.2239 14.5131 43.2792C14.3914 43.3308 14.2882 43.4026 14.2035 43.4948C14.1224 43.5833 14.0597 43.6883 14.0155 43.8099C13.9712 43.9279 13.9491 44.0532 13.9491 44.1859C13.9491 44.2965 13.9602 44.4034 13.9823 44.5066C14.0044 44.6098 14.0413 44.713 14.0929 44.8162C14.1445 44.9194 14.2108 45.0263 14.2919 45.1369C14.3767 45.2438 14.4799 45.3599 14.6015 45.4852L16.7247 47.6913C16.8463 47.4591 16.944 47.214 17.0177 46.956C17.0915 46.698 17.1394 46.4362 17.1615 46.1708C17.1726 46.0861 17.202 46.0179 17.25 45.9663C17.2979 45.9147 17.3642 45.8889 17.449 45.8889H18.3005C18.2968 46.3754 18.2268 46.8399 18.0904 47.2822C17.954 47.7245 17.7586 48.1318 17.5043 48.5041L19.1796 50.2402ZM29.5333 42.2452V50.2402H28.0404V46.7459H24.2862V50.2402H22.7934V42.2452H24.2862V45.6843H28.0404V42.2452H29.5333ZM33.9544 47.8185C33.56 47.8369 33.2283 47.872 32.9592 47.9236C32.6901 47.9715 32.4745 48.0341 32.3123 48.1115C32.1501 48.189 32.034 48.2793 31.964 48.3825C31.894 48.4857 31.8589 48.5981 31.8589 48.7197C31.8589 48.9593 31.929 49.1307 32.069 49.2339C32.2128 49.3372 32.3989 49.3888 32.6275 49.3888C32.9076 49.3888 33.1491 49.339 33.3518 49.2395C33.5582 49.1363 33.7591 48.9815 33.9544 48.775V47.8185ZM30.825 45.3581C31.4774 44.7609 32.2626 44.4624 33.1804 44.4624C33.5121 44.4624 33.8089 44.5177 34.0706 44.6282C34.3323 44.7351 34.5534 44.8863 34.734 45.0816C34.9147 45.2733 35.051 45.5037 35.1432 45.7728C35.239 46.0418 35.287 46.3367 35.287 46.6574V50.2402H34.6677C34.5387 50.2402 34.4392 50.2218 34.3691 50.1849C34.2991 50.1444 34.2438 50.0651 34.2033 49.9472L34.0816 49.538C33.9379 49.6671 33.7978 49.7813 33.6614 49.8808C33.525 49.9767 33.3831 50.0578 33.2357 50.1241C33.0882 50.1905 32.9297 50.2402 32.7602 50.2734C32.5943 50.3103 32.41 50.3287 32.2073 50.3287C31.9677 50.3287 31.7465 50.2974 31.5438 50.2347C31.341 50.1684 31.166 50.0707 31.0185 49.9417C30.8711 49.8127 30.7568 49.6523 30.6757 49.4606C30.5946 49.269 30.5541 49.046 30.5541 48.7916C30.5541 48.6479 30.578 48.506 30.626 48.3659C30.6739 48.2221 30.7513 48.0857 30.8582 47.9567C30.9688 47.8277 31.1107 47.7061 31.2839 47.5918C31.4572 47.4775 31.6691 47.378 31.9198 47.2932C32.1741 47.2085 32.469 47.1403 32.8044 47.0887C33.1398 47.0334 33.5232 47.0002 33.9544 46.9892V46.6574C33.9544 46.2777 33.8734 45.9976 33.7112 45.817C33.549 45.6327 33.3149 45.5405 33.009 45.5405C32.7878 45.5405 32.6035 45.5663 32.4561 45.6179C32.3123 45.6695 32.1852 45.7285 32.0746 45.7949C31.964 45.8575 31.8626 45.9147 31.7705 45.9663C31.682 46.0179 31.5825 46.0437 31.4719 46.0437C31.3761 46.0437 31.295 46.0197 31.2286 45.9718C31.1623 45.9202 31.1088 45.8612 31.0683 45.7949L30.825 45.3581ZM40.0343 45.6732C39.9975 45.7322 39.9588 45.7746 39.9182 45.8004C39.8777 45.8225 39.8261 45.8336 39.7634 45.8336C39.6971 45.8336 39.6252 45.8151 39.5478 45.7783C39.4741 45.7414 39.3874 45.7009 39.2879 45.6566C39.1884 45.6087 39.0741 45.5663 38.9451 45.5295C38.8198 45.4926 38.6705 45.4742 38.4973 45.4742C38.2282 45.4742 38.0162 45.5313 37.8614 45.6456C37.7103 45.7599 37.6347 45.9091 37.6347 46.0934C37.6347 46.2151 37.6734 46.3183 37.7508 46.4031C37.8319 46.4842 37.937 46.556 38.066 46.6187C38.1987 46.6814 38.348 46.7385 38.5138 46.7901C38.6797 46.838 38.8474 46.8915 39.017 46.9504C39.1902 47.0094 39.3598 47.0776 39.5257 47.155C39.6915 47.2287 39.839 47.3246 39.968 47.4425C40.1007 47.5568 40.2057 47.695 40.2831 47.8572C40.3642 48.0194 40.4048 48.2148 40.4048 48.4433C40.4048 48.7161 40.355 48.9686 40.2555 49.2008C40.1597 49.4293 40.0159 49.6284 39.8242 49.7979C39.6326 49.9638 39.3948 50.0946 39.111 50.1905C38.8308 50.2826 38.5065 50.3287 38.1379 50.3287C37.9425 50.3287 37.7508 50.3103 37.5628 50.2734C37.3785 50.2402 37.1998 50.1923 37.0265 50.1297C36.857 50.067 36.6985 49.9933 36.551 49.9085C36.4073 49.8237 36.2801 49.7316 36.1695 49.632L36.4847 49.1123C36.5252 49.0496 36.5731 49.0017 36.6284 48.9686C36.6837 48.9354 36.7538 48.9188 36.8385 48.9188C36.9233 48.9188 37.0026 48.9427 37.0763 48.9907C37.1537 49.0386 37.2422 49.0902 37.3417 49.1455C37.4412 49.2008 37.5573 49.2524 37.69 49.3003C37.8264 49.3482 37.9978 49.3722 38.2042 49.3722C38.3664 49.3722 38.5046 49.3537 38.6189 49.3169C38.7369 49.2763 38.8327 49.2247 38.9064 49.1621C38.9838 49.0994 39.0391 49.0275 39.0723 48.9464C39.1091 48.8617 39.1276 48.775 39.1276 48.6866C39.1276 48.5539 39.087 48.4451 39.0059 48.3604C38.9285 48.2756 38.8235 48.2019 38.6908 48.1392C38.5618 48.0765 38.4125 48.0212 38.2429 47.9733C38.0771 47.9217 37.9057 47.8664 37.7287 47.8075C37.5555 47.7485 37.3841 47.6803 37.2145 47.6029C37.0486 47.5218 36.8994 47.4204 36.7667 47.2988C36.6377 47.1771 36.5326 47.0279 36.4515 46.8509C36.3741 46.674 36.3354 46.4602 36.3354 46.2096C36.3354 45.9773 36.3815 45.7562 36.4736 45.5461C36.5658 45.336 36.7003 45.1535 36.8772 44.9987C37.0579 44.8402 37.2809 44.7149 37.5463 44.6227C37.8153 44.5269 38.125 44.479 38.4751 44.479C38.8659 44.479 39.2216 44.5435 39.5423 44.6725C39.8629 44.8015 40.1302 44.971 40.344 45.1811L40.0343 45.6732ZM44.8939 45.6732C44.857 45.7322 44.8183 45.7746 44.7777 45.8004C44.7372 45.8225 44.6856 45.8336 44.6229 45.8336C44.5566 45.8336 44.4847 45.8151 44.4073 45.7783C44.3336 45.7414 44.247 45.7009 44.1474 45.6566C44.0479 45.6087 43.9336 45.5663 43.8046 45.5295C43.6793 45.4926 43.53 45.4742 43.3568 45.4742C43.0877 45.4742 42.8758 45.5313 42.7209 45.6456C42.5698 45.7599 42.4942 45.9091 42.4942 46.0934C42.4942 46.2151 42.533 46.3183 42.6104 46.4031C42.6915 46.4842 42.7965 46.556 42.9255 46.6187C43.0582 46.6814 43.2075 46.7385 43.3734 46.7901C43.5392 46.838 43.707 46.8915 43.8765 46.9504C44.0498 47.0094 44.2193 47.0776 44.3852 47.155C44.5511 47.2287 44.6985 47.3246 44.8275 47.4425C44.9602 47.5568 45.0653 47.695 45.1427 47.8572C45.2238 48.0194 45.2643 48.2148 45.2643 48.4433C45.2643 48.7161 45.2145 48.9686 45.115 49.2008C45.0192 49.4293 44.8754 49.6284 44.6838 49.7979C44.4921 49.9638 44.2543 50.0946 43.9705 50.1905C43.6904 50.2826 43.366 50.3287 42.9974 50.3287C42.802 50.3287 42.6104 50.3103 42.4224 50.2734C42.2381 50.2402 42.0593 50.1923 41.8861 50.1297C41.7165 50.067 41.558 49.9933 41.4106 49.9085C41.2668 49.8237 41.1396 49.7316 41.029 49.632L41.3442 49.1123C41.3848 49.0496 41.4327 49.0017 41.488 48.9686C41.5433 48.9354 41.6133 48.9188 41.6981 48.9188C41.7828 48.9188 41.8621 48.9427 41.9358 48.9907C42.0132 49.0386 42.1017 49.0902 42.2012 49.1455C42.3007 49.2008 42.4168 49.2524 42.5495 49.3003C42.6859 49.3482 42.8573 49.3722 43.0637 49.3722C43.2259 49.3722 43.3642 49.3537 43.4784 49.3169C43.5964 49.2763 43.6922 49.2247 43.7659 49.1621C43.8433 49.0994 43.8986 49.0275 43.9318 48.9464C43.9687 48.8617 43.9871 48.775 43.9871 48.6866C43.9871 48.5539 43.9465 48.4451 43.8655 48.3604C43.788 48.2756 43.683 48.2019 43.5503 48.1392C43.4213 48.0765 43.272 48.0212 43.1024 47.9733C42.9366 47.9217 42.7652 47.8664 42.5882 47.8075C42.415 47.7485 42.2436 47.6803 42.074 47.6029C41.9082 47.5218 41.7589 47.4204 41.6262 47.2988C41.4972 47.1771 41.3921 47.0279 41.311 46.8509C41.2336 46.674 41.1949 46.4602 41.1949 46.2096C41.1949 45.9773 41.241 45.7562 41.3331 45.5461C41.4253 45.336 41.5598 45.1535 41.7368 44.9987C41.9174 44.8402 42.1404 44.7149 42.4058 44.6227C42.6749 44.5269 42.9845 44.479 43.3347 44.479C43.7254 44.479 44.0811 44.5435 44.4018 44.6725C44.7225 44.8015 44.9897 44.971 45.2035 45.1811L44.8939 45.6732ZM47.6745 42.0241V50.2402H46.3088V42.0241H47.6745ZM52.6898 46.7514C52.6898 46.5745 52.664 46.4086 52.6124 46.2538C52.5645 46.0953 52.4908 45.9571 52.3913 45.8391C52.2917 45.7212 52.1646 45.629 52.0097 45.5627C51.8586 45.4926 51.6817 45.4576 51.479 45.4576C51.0846 45.4576 50.7731 45.57 50.5445 45.7949C50.3197 46.0197 50.1759 46.3386 50.1133 46.7514H52.6898ZM50.0856 47.5752C50.1078 47.8664 50.1594 48.1189 50.2405 48.3327C50.3215 48.5428 50.4284 48.7179 50.5611 48.858C50.6938 48.9944 50.8505 49.0976 51.0311 49.1676C51.2154 49.2339 51.4181 49.2671 51.6393 49.2671C51.8605 49.2671 52.0503 49.2413 52.2088 49.1897C52.371 49.1381 52.511 49.081 52.629 49.0183C52.7506 48.9557 52.8557 48.8985 52.9442 48.8469C53.0363 48.7953 53.1248 48.7695 53.2096 48.7695C53.3238 48.7695 53.4086 48.8119 53.4639 48.8967L53.8565 49.3943C53.7053 49.5712 53.5358 49.7205 53.3478 49.8421C53.1598 49.9601 52.9626 50.0559 52.7562 50.1297C52.5534 50.1997 52.3452 50.2494 52.1314 50.2789C51.9213 50.3084 51.7167 50.3232 51.5177 50.3232C51.1233 50.3232 50.7565 50.2587 50.4174 50.1297C50.0783 49.997 49.7834 49.8034 49.5327 49.5491C49.2821 49.2911 49.0849 48.9741 48.9411 48.5981C48.7974 48.2184 48.7255 47.7798 48.7255 47.2822C48.7255 46.8952 48.7882 46.5321 48.9135 46.193C49.0388 45.8502 49.2176 45.5534 49.4498 45.3028C49.6857 45.0485 49.9714 44.8476 50.3068 44.7001C50.6459 44.5527 51.0274 44.479 51.4513 44.479C51.8089 44.479 52.1388 44.5361 52.441 44.6504C52.7433 44.7646 53.0031 44.9323 53.2206 45.1535C53.4381 45.371 53.6076 45.6401 53.7293 45.9607C53.8546 46.2777 53.9173 46.6408 53.9173 47.05C53.9173 47.2564 53.8952 47.3965 53.8509 47.4702C53.8067 47.5402 53.7219 47.5752 53.5966 47.5752H50.0856ZM59.3396 43.4284V45.7949H62.3363V46.9836H59.3396V50.2402H57.8467V42.2452H62.8892V43.4284H59.3396ZM64.74 45.5516C64.9169 45.2125 65.127 44.9471 65.3703 44.7554C65.6136 44.5601 65.9011 44.4624 66.2328 44.4624C66.4945 44.4624 66.7046 44.5195 66.8631 44.6338L66.7747 45.6566C66.7562 45.723 66.7286 45.7709 66.6917 45.8004C66.6585 45.8262 66.6125 45.8391 66.5535 45.8391C66.4982 45.8391 66.4153 45.8299 66.3047 45.8115C66.1978 45.793 66.0927 45.7838 65.9895 45.7838C65.8384 45.7838 65.7039 45.8059 65.5859 45.8502C65.468 45.8944 65.3611 45.9589 65.2652 46.0437C65.1731 46.1248 65.0901 46.2243 65.0164 46.3423C64.9464 46.4602 64.88 46.5947 64.8174 46.7459V50.2402H63.4517V44.5674H64.2534C64.3935 44.5674 64.4912 44.5932 64.5465 44.6448C64.6017 44.6927 64.6386 44.7812 64.657 44.9102L64.74 45.5516ZM71.0696 46.7514C71.0696 46.5745 71.0438 46.4086 70.9922 46.2538C70.9443 46.0953 70.8706 45.9571 70.771 45.8391C70.6715 45.7212 70.5443 45.629 70.3895 45.5627C70.2384 45.4926 70.0615 45.4576 69.8587 45.4576C69.4643 45.4576 69.1529 45.57 68.9243 45.7949C68.6995 46.0197 68.5557 46.3386 68.4931 46.7514H71.0696ZM68.4654 47.5752C68.4875 47.8664 68.5391 48.1189 68.6202 48.3327C68.7013 48.5428 68.8082 48.7179 68.9409 48.858C69.0736 48.9944 69.2303 49.0976 69.4109 49.1676C69.5952 49.2339 69.7979 49.2671 70.0191 49.2671C70.2403 49.2671 70.4301 49.2413 70.5886 49.1897C70.7508 49.1381 70.8908 49.081 71.0088 49.0183C71.1304 48.9557 71.2355 48.8985 71.3239 48.8469C71.4161 48.7953 71.5046 48.7695 71.5893 48.7695C71.7036 48.7695 71.7884 48.8119 71.8437 48.8967L72.2362 49.3943C72.0851 49.5712 71.9156 49.7205 71.7276 49.8421C71.5396 49.9601 71.3424 50.0559 71.136 50.1297C70.9332 50.1997 70.725 50.2494 70.5112 50.2789C70.3011 50.3084 70.0965 50.3232 69.8975 50.3232C69.503 50.3232 69.1363 50.2587 68.7972 50.1297C68.4581 49.997 68.1632 49.8034 67.9125 49.5491C67.6619 49.2911 67.4647 48.9741 67.3209 48.5981C67.1772 48.2184 67.1053 47.7798 67.1053 47.2822C67.1053 46.8952 67.1679 46.5321 67.2933 46.193C67.4186 45.8502 67.5974 45.5534 67.8296 45.3028C68.0655 45.0485 68.3512 44.8476 68.6866 44.7001C69.0257 44.5527 69.4072 44.479 69.8311 44.479C70.1886 44.479 70.5185 44.5361 70.8208 44.6504C71.1231 44.7646 71.3829 44.9323 71.6004 45.1535C71.8179 45.371 71.9874 45.6401 72.1091 45.9607C72.2344 46.2777 72.2971 46.6408 72.2971 47.05C72.2971 47.2564 72.2749 47.3965 72.2307 47.4702C72.1865 47.5402 72.1017 47.5752 71.9764 47.5752H68.4654ZM76.9766 46.7514C76.9766 46.5745 76.9508 46.4086 76.8992 46.2538C76.8513 46.0953 76.7776 45.9571 76.6781 45.8391C76.5785 45.7212 76.4514 45.629 76.2966 45.5627C76.1454 45.4926 75.9685 45.4576 75.7658 45.4576C75.3714 45.4576 75.0599 45.57 74.8314 45.7949C74.6065 46.0197 74.4628 46.3386 74.4001 46.7514H76.9766ZM74.3724 47.5752C74.3946 47.8664 74.4462 48.1189 74.5273 48.3327C74.6083 48.5428 74.7152 48.7179 74.8479 48.858C74.9806 48.9944 75.1373 49.0976 75.3179 49.1676C75.5022 49.2339 75.7049 49.2671 75.9261 49.2671C76.1473 49.2671 76.3371 49.2413 76.4956 49.1897C76.6578 49.1381 76.7979 49.081 76.9158 49.0183C77.0374 48.9557 77.1425 48.8985 77.231 48.8469C77.3231 48.7953 77.4116 48.7695 77.4964 48.7695C77.6106 48.7695 77.6954 48.8119 77.7507 48.8967L78.1433 49.3943C77.9921 49.5712 77.8226 49.7205 77.6346 49.8421C77.4466 49.9601 77.2494 50.0559 77.043 50.1297C76.8402 50.1997 76.632 50.2494 76.4182 50.2789C76.2081 50.3084 76.0035 50.3232 75.8045 50.3232C75.4101 50.3232 75.0433 50.2587 74.7042 50.1297C74.3651 49.997 74.0702 49.8034 73.8195 49.5491C73.5689 49.2911 73.3717 48.9741 73.2279 48.5981C73.0842 48.2184 73.0123 47.7798 73.0123 47.2822C73.0123 46.8952 73.075 46.5321 73.2003 46.193C73.3256 45.8502 73.5044 45.5534 73.7366 45.3028C73.9725 45.0485 74.2582 44.8476 74.5936 44.7001C74.9327 44.5527 75.3142 44.479 75.7381 44.479C76.0957 44.479 76.4256 44.5361 76.7278 44.6504C77.0301 44.7646 77.2899 44.9323 77.5074 45.1535C77.7249 45.371 77.8945 45.6401 78.0161 45.9607C78.1414 46.2777 78.2041 46.6408 78.2041 47.05C78.2041 47.2564 78.182 47.3965 78.1377 47.4702C78.0935 47.5402 78.0087 47.5752 77.8834 47.5752H74.3724ZM29.4038 58.2648C29.6766 58.2648 29.9143 58.2317 30.1171 58.1653C30.3198 58.0953 30.4875 57.9976 30.6202 57.8723C30.7566 57.7433 30.858 57.5885 30.9243 57.4078C30.9907 57.2235 31.0238 57.019 31.0238 56.7941C31.0238 56.5803 30.9907 56.3868 30.9243 56.2136C30.858 56.0403 30.7584 55.8929 30.6257 55.7712C30.493 55.6496 30.3253 55.5575 30.1226 55.4948C29.9199 55.4284 29.6803 55.3953 29.4038 55.3953H28.2925V58.2648H29.4038ZM29.4038 54.2452C29.9383 54.2452 30.4009 54.3079 30.7916 54.4332C31.1823 54.5585 31.5049 54.7336 31.7592 54.9585C32.0135 55.1833 32.2015 55.4524 32.3232 55.7657C32.4485 56.079 32.5111 56.4218 32.5111 56.7941C32.5111 57.1811 32.4466 57.5369 32.3176 57.8612C32.1886 58.1819 31.9951 58.4584 31.7371 58.6906C31.4791 58.9228 31.1547 59.1034 30.764 59.2324C30.3769 59.3614 29.9236 59.4259 29.4038 59.4259H28.2925V62.2402H26.8052V54.2452H29.4038ZM34.6379 57.5516C34.8149 57.2125 35.025 56.9471 35.2682 56.7554C35.5115 56.5601 35.799 56.4624 36.1308 56.4624C36.3925 56.4624 36.6026 56.5195 36.7611 56.6338L36.6726 57.6566C36.6542 57.723 36.6266 57.7709 36.5897 57.8004C36.5565 57.8262 36.5104 57.8391 36.4515 57.8391C36.3962 57.8391 36.3132 57.8299 36.2027 57.8115C36.0958 57.793 35.9907 57.7838 35.8875 57.7838C35.7364 57.7838 35.6018 57.8059 35.4839 57.8502C35.3659 57.8944 35.259 57.9589 35.1632 58.0437C35.071 58.1248 34.9881 58.2243 34.9144 58.3423C34.8444 58.4602 34.778 58.5947 34.7153 58.7459V62.2402H33.3497V56.5674H34.1514C34.2914 56.5674 34.3891 56.5932 34.4444 56.6448C34.4997 56.6927 34.5366 56.7812 34.555 56.9102L34.6379 57.5516ZM39.8231 56.479C40.2433 56.479 40.6248 56.5472 40.9676 56.6835C41.3141 56.8199 41.6089 57.0134 41.8522 57.2641C42.0992 57.5147 42.289 57.8207 42.4217 58.1819C42.5544 58.5431 42.6208 58.9468 42.6208 59.3928C42.6208 59.8425 42.5544 60.2479 42.4217 60.6092C42.289 60.9704 42.0992 61.2782 41.8522 61.5325C41.6089 61.7869 41.3141 61.9822 40.9676 62.1186C40.6248 62.255 40.2433 62.3232 39.8231 62.3232C39.3992 62.3232 39.014 62.255 38.6675 62.1186C38.321 61.9822 38.0243 61.7869 37.7773 61.5325C37.534 61.2782 37.3442 60.9704 37.2078 60.6092C37.0751 60.2479 37.0088 59.8425 37.0088 59.3928C37.0088 58.9468 37.0751 58.5431 37.2078 58.1819C37.3442 57.8207 37.534 57.5147 37.7773 57.2641C38.0243 57.0134 38.321 56.8199 38.6675 56.6835C39.014 56.5472 39.3992 56.479 39.8231 56.479ZM39.8231 61.2726C40.2949 61.2726 40.6432 61.1142 40.8681 60.7972C41.0966 60.4802 41.2109 60.0157 41.2109 59.4038C41.2109 58.7919 41.0966 58.3257 40.8681 58.005C40.6432 57.6843 40.2949 57.524 39.8231 57.524C39.3439 57.524 38.9882 57.6861 38.756 58.0105C38.5274 58.3312 38.4132 58.7956 38.4132 59.4038C38.4132 60.012 38.5274 60.4765 38.756 60.7972C38.9882 61.1142 39.3439 61.2726 39.8231 61.2726ZM47.7265 57.7672C47.686 57.8188 47.6454 57.8594 47.6049 57.8889C47.568 57.9184 47.5127 57.9331 47.439 57.9331C47.369 57.9331 47.3008 57.9128 47.2344 57.8723C47.1681 57.828 47.0888 57.7801 46.9967 57.7285C46.9045 57.6732 46.7939 57.6253 46.6649 57.5848C46.5396 57.5405 46.3829 57.5184 46.195 57.5184C45.9554 57.5184 45.7453 57.5627 45.5646 57.6511C45.384 57.7359 45.2329 57.8594 45.1113 58.0216C44.9933 58.1838 44.9048 58.381 44.8459 58.6132C44.7869 58.8417 44.7574 59.1016 44.7574 59.3928C44.7574 59.695 44.7887 59.9641 44.8514 60.2C44.9177 60.4359 45.0117 60.635 45.1334 60.7972C45.255 60.9557 45.4025 61.0773 45.5757 61.1621C45.7489 61.2432 45.9443 61.2837 46.1618 61.2837C46.3793 61.2837 46.5543 61.2579 46.687 61.2063C46.8234 61.151 46.9377 61.092 47.0298 61.0294C47.122 60.963 47.2012 60.904 47.2676 60.8524C47.3376 60.7972 47.415 60.7695 47.4998 60.7695C47.6104 60.7695 47.6933 60.8119 47.7486 60.8967L48.1412 61.3943C47.9901 61.5712 47.826 61.7205 47.6491 61.8421C47.4722 61.9601 47.2879 62.0559 47.0962 62.1297C46.9082 62.1997 46.7128 62.2494 46.5101 62.2789C46.3111 62.3084 46.112 62.3232 45.913 62.3232C45.5628 62.3232 45.2329 62.2587 44.9233 62.1297C44.6136 61.997 44.3427 61.8053 44.1105 61.5546C43.8783 61.304 43.694 60.998 43.5576 60.6368C43.4249 60.2719 43.3585 59.8572 43.3585 59.3928C43.3585 58.9762 43.4175 58.5911 43.5355 58.2372C43.6571 57.8797 43.834 57.5719 44.0663 57.3138C44.2985 57.0521 44.586 56.8476 44.9288 56.7001C45.2716 56.5527 45.666 56.479 46.112 56.479C46.5359 56.479 46.9064 56.5472 47.2234 56.6835C47.544 56.8199 47.8316 57.0153 48.0859 57.2696L47.7265 57.7672ZM52.5548 58.7514C52.5548 58.5745 52.529 58.4086 52.4774 58.2538C52.4295 58.0953 52.3558 57.9571 52.2563 57.8391C52.1567 57.7212 52.0296 57.629 51.8748 57.5627C51.7236 57.4926 51.5467 57.4576 51.344 57.4576C50.9496 57.4576 50.6381 57.57 50.4096 57.7949C50.1847 58.0197 50.041 58.3386 49.9783 58.7514H52.5548ZM49.9507 59.5752C49.9728 59.8664 50.0244 60.1189 50.1055 60.3327C50.1866 60.5428 50.2935 60.7179 50.4261 60.858C50.5588 60.9944 50.7155 61.0976 50.8961 61.1676C51.0804 61.2339 51.2832 61.2671 51.5043 61.2671C51.7255 61.2671 51.9153 61.2413 52.0738 61.1897C52.236 61.1381 52.3761 61.081 52.494 61.0183C52.6157 60.9557 52.7207 60.8985 52.8092 60.8469C52.9013 60.7953 52.9898 60.7695 53.0746 60.7695C53.1888 60.7695 53.2736 60.8119 53.3289 60.8967L53.7215 61.3943C53.5703 61.5712 53.4008 61.7205 53.2128 61.8421C53.0248 61.9601 52.8276 62.0559 52.6212 62.1297C52.4185 62.1997 52.2102 62.2494 51.9964 62.2789C51.7863 62.3084 51.5817 62.3232 51.3827 62.3232C50.9883 62.3232 50.6215 62.2587 50.2824 62.1297C49.9433 61.997 49.6484 61.8034 49.3977 61.5491C49.1471 61.2911 48.9499 60.9741 48.8061 60.5981C48.6624 60.2184 48.5905 59.7798 48.5905 59.2822C48.5905 58.8952 48.6532 58.5321 48.7785 58.193C48.9038 57.8502 49.0826 57.5534 49.3148 57.3028C49.5507 57.0485 49.8364 56.8476 50.1718 56.7001C50.5109 56.5527 50.8924 56.479 51.3163 56.479C51.6739 56.479 52.0038 56.5361 52.306 56.6504C52.6083 56.7646 52.8681 56.9323 53.0856 57.1535C53.3031 57.371 53.4727 57.6401 53.5943 57.9607C53.7196 58.2777 53.7823 58.6408 53.7823 59.05C53.7823 59.2564 53.7602 59.3965 53.7159 59.4702C53.6717 59.5402 53.5869 59.5752 53.4616 59.5752H49.9507ZM58.2683 57.6732C58.2315 57.7322 58.1928 57.7746 58.1522 57.8004C58.1117 57.8225 58.0601 57.8336 57.9974 57.8336C57.9311 57.8336 57.8592 57.8151 57.7818 57.7783C57.7081 57.7414 57.6214 57.7009 57.5219 57.6566C57.4224 57.6087 57.3081 57.5663 57.1791 57.5295C57.0538 57.4926 56.9045 57.4742 56.7313 57.4742C56.4622 57.4742 56.2502 57.5313 56.0954 57.6456C55.9443 57.7599 55.8687 57.9091 55.8687 58.0934C55.8687 58.2151 55.9074 58.3183 55.9848 58.4031C56.0659 58.4842 56.171 58.556 56.3 58.6187C56.4327 58.6814 56.582 58.7385 56.7478 58.7901C56.9137 58.838 57.0814 58.8915 57.251 58.9504C57.4242 59.0094 57.5938 59.0776 57.7597 59.155C57.9255 59.2287 58.073 59.3246 58.202 59.4425C58.3347 59.5568 58.4397 59.695 58.5171 59.8572C58.5982 60.0194 58.6388 60.2148 58.6388 60.4433C58.6388 60.7161 58.589 60.9686 58.4895 61.2008C58.3937 61.4293 58.2499 61.6284 58.0582 61.7979C57.8666 61.9638 57.6288 62.0946 57.345 62.1905C57.0648 62.2826 56.7405 62.3287 56.3719 62.3287C56.1765 62.3287 55.9848 62.3103 55.7968 62.2734C55.6125 62.2402 55.4338 62.1923 55.2605 62.1297C55.091 62.067 54.9325 61.9933 54.785 61.9085C54.6413 61.8237 54.5141 61.7316 54.4035 61.632L54.7187 61.1123C54.7592 61.0496 54.8071 61.0017 54.8624 60.9686C54.9177 60.9354 54.9878 60.9188 55.0725 60.9188C55.1573 60.9188 55.2366 60.9427 55.3103 60.9907C55.3877 61.0386 55.4762 61.0902 55.5757 61.1455C55.6752 61.2008 55.7913 61.2524 55.924 61.3003C56.0604 61.3482 56.2318 61.3722 56.4382 61.3722C56.6004 61.3722 56.7386 61.3537 56.8529 61.3169C56.9709 61.2763 57.0667 61.2247 57.1404 61.1621C57.2178 61.0994 57.2731 61.0275 57.3063 60.9464C57.3431 60.8617 57.3616 60.775 57.3616 60.6866C57.3616 60.5539 57.321 60.4451 57.2399 60.3604C57.1625 60.2756 57.0575 60.2019 56.9248 60.1392C56.7958 60.0765 56.6465 60.0212 56.4769 59.9733C56.3111 59.9217 56.1396 59.8664 55.9627 59.8075C55.7895 59.7485 55.6181 59.6803 55.4485 59.6029C55.2826 59.5218 55.1334 59.4204 55.0007 59.2988C54.8717 59.1771 54.7666 59.0279 54.6855 58.8509C54.6081 58.674 54.5694 58.4602 54.5694 58.2096C54.5694 57.9773 54.6155 57.7562 54.7076 57.5461C54.7998 57.336 54.9343 57.1535 55.1112 56.9987C55.2919 56.8402 55.5149 56.7149 55.7803 56.6227C56.0493 56.5269 56.359 56.479 56.7091 56.479C57.0999 56.479 57.4556 56.5435 57.7762 56.6725C58.0969 56.8015 58.3642 56.971 58.578 57.1811L58.2683 57.6732ZM63.1279 57.6732C63.091 57.7322 63.0523 57.7746 63.0117 57.8004C62.9712 57.8225 62.9196 57.8336 62.8569 57.8336C62.7906 57.8336 62.7187 57.8151 62.6413 57.7783C62.5676 57.7414 62.481 57.7009 62.3814 57.6566C62.2819 57.6087 62.1676 57.5663 62.0386 57.5295C61.9133 57.4926 61.764 57.4742 61.5908 57.4742C61.3217 57.4742 61.1098 57.5313 60.9549 57.6456C60.8038 57.7599 60.7282 57.9091 60.7282 58.0934C60.7282 58.2151 60.7669 58.3183 60.8444 58.4031C60.9254 58.4842 61.0305 58.556 61.1595 58.6187C61.2922 58.6814 61.4415 58.7385 61.6074 58.7901C61.7732 58.838 61.941 58.8915 62.1105 58.9504C62.2838 59.0094 62.4533 59.0776 62.6192 59.155C62.7851 59.2287 62.9325 59.3246 63.0615 59.4425C63.1942 59.5568 63.2993 59.695 63.3767 59.8572C63.4578 60.0194 63.4983 60.2148 63.4983 60.4433C63.4983 60.7161 63.4485 60.9686 63.349 61.2008C63.2532 61.4293 63.1094 61.6284 62.9178 61.7979C62.7261 61.9638 62.4883 62.0946 62.2045 62.1905C61.9244 62.2826 61.6 62.3287 61.2314 62.3287C61.036 62.3287 60.8444 62.3103 60.6564 62.2734C60.4721 62.2402 60.2933 62.1923 60.12 62.1297C59.9505 62.067 59.792 61.9933 59.6446 61.9085C59.5008 61.8237 59.3736 61.7316 59.263 61.632L59.5782 61.1123C59.6187 61.0496 59.6667 61.0017 59.722 60.9686C59.7772 60.9354 59.8473 60.9188 59.9321 60.9188C60.0168 60.9188 60.0961 60.9427 60.1698 60.9907C60.2472 61.0386 60.3357 61.0902 60.4352 61.1455C60.5347 61.2008 60.6508 61.2524 60.7835 61.3003C60.9199 61.3482 61.0913 61.3722 61.2977 61.3722C61.4599 61.3722 61.5982 61.3537 61.7124 61.3169C61.8304 61.2763 61.9262 61.2247 61.9999 61.1621C62.0773 61.0994 62.1326 61.0275 62.1658 60.9464C62.2027 60.8617 62.2211 60.775 62.2211 60.6866C62.2211 60.5539 62.1805 60.4451 62.0995 60.3604C62.022 60.2756 61.917 60.2019 61.7843 60.1392C61.6553 60.0765 61.506 60.0212 61.3364 59.9733C61.1706 59.9217 60.9992 59.8664 60.8222 59.8075C60.649 59.7485 60.4776 59.6803 60.308 59.6029C60.1422 59.5218 59.9929 59.4204 59.8602 59.2988C59.7312 59.1771 59.6261 59.0279 59.545 58.8509C59.4676 58.674 59.4289 58.4602 59.4289 58.2096C59.4289 57.9773 59.475 57.7562 59.5671 57.5461C59.6593 57.336 59.7938 57.1535 59.9708 56.9987C60.1514 56.8402 60.3744 56.7149 60.6398 56.6227C60.9089 56.5269 61.2185 56.479 61.5687 56.479C61.9594 56.479 62.3151 56.5435 62.6358 56.6725C62.9565 56.8015 63.2237 56.971 63.4375 57.1811L63.1279 57.6732Z" fill="#004CD2"/>
<path d="M112.992 17.6319V12.7758C112.992 10.85 112.509 8.95507 111.587 7.26448L111.439 6.99208C110.484 5.24189 109.048 3.80137 107.302 2.8406V2.8406C105.759 1.99221 104.027 1.54736 102.267 1.54736H86.6038H11.8336C10.265 1.54736 8.71793 1.91257 7.31493 2.61407V2.61407C5.12589 3.7086 3.40852 5.56046 2.48184 7.82567L2.43447 7.94146C1.92134 9.19577 1.65741 10.538 1.65741 11.8932V17.6319V82.7921C1.65741 83.9122 1.83798 85.0249 2.19217 86.0875L2.35916 86.5885C2.88538 88.1671 3.85664 89.56 5.15603 90.5995V90.5995C6.32214 91.5324 7.71031 92.1468 9.18491 92.3828L11.7638 92.7954C12.7318 92.9503 13.7107 93.0281 14.691 93.0281H61.7231" stroke="#004CD2" stroke-width="1.50792"/>
<path d="M16.2979 25.3001H12.8975V35.1611H10.0943V25.3001H6.69391V23.0774H16.2979V25.3001ZM21.6535 28.7585C22.035 28.7585 22.3584 28.7115 22.6238 28.6175C22.8947 28.518 23.1159 28.3825 23.2873 28.2111C23.4587 28.0397 23.5831 27.8407 23.6605 27.614C23.7379 27.3818 23.7766 27.1329 23.7766 26.8676C23.7766 26.3368 23.6024 25.9221 23.2541 25.6235C22.9113 25.3249 22.3778 25.1757 21.6535 25.1757H20.5255V28.7585H21.6535ZM27.6082 35.1611H25.0704C24.6004 35.1611 24.2632 34.9842 24.0586 34.6303L22.0515 31.1222C21.9576 30.9729 21.8525 30.8651 21.7364 30.7987C21.6203 30.7268 21.4544 30.6909 21.2388 30.6909H20.5255V35.1611H17.7223V23.0774H21.6535C22.527 23.0774 23.2707 23.1686 23.8844 23.3511C24.5037 23.528 25.0068 23.7768 25.3939 24.0975C25.7864 24.4182 26.0712 24.7969 26.2481 25.2337C26.425 25.6705 26.5135 26.146 26.5135 26.6602C26.5135 27.0528 26.461 27.4232 26.3559 27.7716C26.2509 28.1199 26.0961 28.4433 25.8915 28.7419C25.6869 29.0349 25.4326 29.2976 25.1285 29.5298C24.8299 29.762 24.4843 29.9528 24.0918 30.102C24.2742 30.196 24.4456 30.3149 24.606 30.4587C24.7663 30.5969 24.9101 30.7628 25.0372 30.9563L27.6082 35.1611ZM35.0099 30.5416L33.8902 27.2325C33.8073 27.0224 33.7188 26.7763 33.6249 26.4943C33.5309 26.2068 33.4369 25.8972 33.3429 25.5655C33.2599 25.9027 33.1715 26.2151 33.0775 26.5026C32.9835 26.7901 32.895 27.039 32.8121 27.2491L31.7007 30.5416H35.0099ZM39.4635 35.1611H37.2906C37.0473 35.1611 36.8511 35.1058 36.7018 34.9953C36.5525 34.8792 36.4391 34.7326 36.3617 34.5557L35.6485 32.4491H31.0538L30.3406 34.5557C30.2798 34.7105 30.1692 34.8515 30.0088 34.9787C29.854 35.1003 29.6605 35.1611 29.4283 35.1611H27.2388L31.9164 23.0774H34.786L39.4635 35.1611ZM50.9657 23.0774V35.1611H49.506C49.2904 35.1611 49.1079 35.128 48.9586 35.0616C48.8149 34.9897 48.6711 34.8681 48.5274 34.6967L42.8297 27.4896C42.8518 27.7052 42.8656 27.9153 42.8712 28.1199C42.8822 28.3189 42.8877 28.5069 42.8877 28.6838V35.1611H40.4163V23.0774H41.8925C42.0142 23.0774 42.1164 23.0829 42.1994 23.094C42.2823 23.105 42.357 23.1271 42.4233 23.1603C42.4897 23.188 42.5532 23.2294 42.6141 23.2847C42.6749 23.34 42.744 23.4147 42.8214 23.5086L48.5689 30.7655C48.5412 30.5333 48.5219 30.3094 48.5108 30.0938C48.4997 29.8726 48.4942 29.6653 48.4942 29.4717V23.0774H50.9657ZM59.9865 25.5323C59.9036 25.665 59.8151 25.7645 59.7211 25.8309C59.6327 25.8972 59.5166 25.9304 59.3728 25.9304C59.2456 25.9304 59.1074 25.8917 58.9581 25.8143C58.8144 25.7313 58.6485 25.6401 58.4605 25.5406C58.278 25.4411 58.0679 25.3526 57.8302 25.2752C57.5924 25.1922 57.3215 25.1508 57.0174 25.1508C56.4922 25.1508 56.0996 25.2641 55.8397 25.4908C55.5854 25.712 55.4582 26.0133 55.4582 26.3948C55.4582 26.6381 55.5356 26.8399 55.6904 27.0002C55.8453 27.1606 56.0471 27.2988 56.2959 27.4149C56.5502 27.531 56.8377 27.6389 57.1584 27.7384C57.4846 27.8324 57.8164 27.9402 58.1536 28.0618C58.4909 28.1779 58.8199 28.3162 59.1406 28.4765C59.4668 28.6368 59.7543 28.8414 60.0031 29.0902C60.2574 29.339 60.462 29.6431 60.6168 30.0025C60.7716 30.3564 60.8491 30.7849 60.8491 31.288C60.8491 31.8465 60.7523 32.369 60.5588 32.8555C60.3653 33.3421 60.0833 33.7678 59.7128 34.1327C59.3479 34.4921 58.8945 34.7769 58.3527 34.987C57.8164 35.1915 57.2054 35.2938 56.5198 35.2938C56.1438 35.2938 55.7596 35.2551 55.367 35.1777C54.98 35.1003 54.604 34.9925 54.2391 34.8543C53.8742 34.7105 53.5314 34.5419 53.2107 34.3484C52.89 34.1548 52.6108 33.9392 52.373 33.7015L53.2024 32.3911C53.2687 32.2971 53.3544 32.2197 53.4595 32.1589C53.5701 32.0925 53.6889 32.0593 53.8161 32.0593C53.982 32.0593 54.1478 32.1119 54.3137 32.2169C54.4851 32.322 54.6759 32.4381 54.886 32.5652C55.1016 32.6924 55.3476 32.8085 55.6241 32.9136C55.9006 33.0186 56.2268 33.0712 56.6027 33.0712C57.1114 33.0712 57.5067 32.9606 57.7887 32.7394C58.0707 32.5127 58.2117 32.1561 58.2117 31.6695C58.2117 31.3876 58.1343 31.1581 57.9795 30.9812C57.8247 30.8042 57.6201 30.6577 57.3657 30.5416C57.1169 30.4255 56.8322 30.3232 56.5115 30.2347C56.1908 30.1463 55.8618 30.0495 55.5246 29.9445C55.1873 29.8339 54.8583 29.7012 54.5376 29.5464C54.217 29.386 53.9294 29.1787 53.6751 28.9244C53.4263 28.6645 53.2245 28.3438 53.0697 27.9623C52.9149 27.5753 52.8375 27.0998 52.8375 26.5358C52.8375 26.0824 52.9287 25.6401 53.1111 25.2088C53.2936 24.7776 53.5618 24.3933 53.9156 24.056C54.2695 23.7188 54.7035 23.4506 55.2177 23.2515C55.7319 23.047 56.3208 22.9447 56.9842 22.9447C57.3547 22.9447 57.7141 22.9751 58.0624 23.0359C58.4163 23.0912 58.7508 23.1769 59.0659 23.293C59.3811 23.4036 59.6741 23.5391 59.9451 23.6994C60.2215 23.8542 60.4675 24.0311 60.6832 24.2302L59.9865 25.5323ZM66.7576 29.0073C67.4874 29.0073 68.0127 28.8331 68.3334 28.4848C68.654 28.1365 68.8144 27.6499 68.8144 27.0251C68.8144 26.7487 68.7729 26.4971 68.69 26.2704C68.6071 26.0437 68.4799 25.8502 68.3085 25.6899C68.1426 25.524 67.9297 25.3968 67.6699 25.3084C67.4155 25.2199 67.1114 25.1757 66.7576 25.1757H65.2979V29.0073H66.7576ZM66.7576 23.0774C67.6091 23.0774 68.3389 23.1797 68.9471 23.3842C69.5608 23.5833 70.064 23.8597 70.4565 24.2136C70.8546 24.5675 71.1477 24.9849 71.3356 25.4659C71.5236 25.947 71.6176 26.4667 71.6176 27.0251C71.6176 27.6278 71.5209 28.1807 71.3273 28.6838C71.1338 29.187 70.838 29.6183 70.4399 29.9776C70.0418 30.337 69.5359 30.619 68.9222 30.8236C68.314 31.0226 67.5925 31.1222 66.7576 31.1222H65.2979V35.1611H62.4947V23.0774H66.7576ZM78.5836 30.5416L77.4639 27.2325C77.381 27.0224 77.2925 26.7763 77.1986 26.4943C77.1046 26.2068 77.0106 25.8972 76.9166 25.5655C76.8336 25.9027 76.7452 26.2151 76.6512 26.5026C76.5572 26.7901 76.4687 27.039 76.3858 27.2491L75.2744 30.5416H78.5836ZM83.0372 35.1611H80.8643C80.621 35.1611 80.4248 35.1058 80.2755 34.9953C80.1262 34.8792 80.0128 34.7326 79.9354 34.5557L79.2222 32.4491H74.6275L73.9143 34.5557C73.8535 34.7105 73.7429 34.8515 73.5826 34.9787C73.4277 35.1003 73.2342 35.1611 73.002 35.1611H70.8125L75.4901 23.0774H78.3597L83.0372 35.1611ZM87.9211 28.7585C88.3026 28.7585 88.6261 28.7115 88.8915 28.6175C89.1624 28.518 89.3836 28.3825 89.555 28.2111C89.7264 28.0397 89.8508 27.8407 89.9282 27.614C90.0056 27.3818 90.0443 27.1329 90.0443 26.8676C90.0443 26.3368 89.8701 25.9221 89.5218 25.6235C89.179 25.3249 88.6454 25.1757 87.9211 25.1757H86.7932V28.7585H87.9211ZM93.8759 35.1611H91.3381C90.8681 35.1611 90.5308 34.9842 90.3263 34.6303L88.3192 31.1222C88.2252 30.9729 88.1202 30.8651 88.0041 30.7987C87.8879 30.7268 87.7221 30.6909 87.5064 30.6909H86.7932V35.1611H83.99V23.0774H87.9211C88.7947 23.0774 89.5384 23.1686 90.1521 23.3511C90.7713 23.528 91.2745 23.7768 91.6615 24.0975C92.0541 24.4182 92.3388 24.7969 92.5158 25.2337C92.6927 25.6705 92.7812 26.146 92.7812 26.6602C92.7812 27.0528 92.7286 27.4232 92.6236 27.7716C92.5185 28.1199 92.3637 28.4433 92.1591 28.7419C91.9546 29.0349 91.7002 29.2976 91.3961 29.5298C91.0976 29.762 90.752 29.9528 90.3594 30.102C90.5419 30.196 90.7133 30.3149 90.8736 30.4587C91.034 30.5969 91.1777 30.7628 91.3049 30.9563L93.8759 35.1611ZM97.7113 25.2337V28.0535H101.51V30.1269H97.7113V33.0048H102.671V35.1611H94.8915V23.0774H102.671V25.2337H97.7113ZM114.949 23.0774V35.1611H113.49C113.274 35.1611 113.092 35.128 112.942 35.0616C112.799 34.9897 112.655 34.8681 112.511 34.6967L106.813 27.4896C106.835 27.7052 106.849 27.9153 106.855 28.1199C106.866 28.3189 106.871 28.5069 106.871 28.6838V35.1611H104.4V23.0774H105.876C105.998 23.0774 106.1 23.0829 106.183 23.094C106.266 23.105 106.341 23.1271 106.407 23.1603C106.473 23.188 106.537 23.2294 106.598 23.2847C106.659 23.34 106.728 23.4147 106.805 23.5086L112.553 30.7655C112.525 30.5333 112.506 30.3094 112.494 30.0938C112.483 29.8726 112.478 29.6653 112.478 29.4717V23.0774H114.949ZM125.977 25.3001H122.577V35.1611H119.774V25.3001H116.373V23.0774H125.977V25.3001Z" fill="#FF7300"/>
<path d="M95.9962 71.7605L95.8273 71.2387H95.2789H87.207C85.3317 71.2387 82.9761 70.5362 81.0983 68.8694C79.242 67.2215 77.8076 64.5917 77.8076 60.633V57.7931C77.8076 53.8344 79.242 51.2046 81.0983 49.5567C82.9761 47.8898 85.3317 47.1873 87.207 47.1873H113.047H113.596L113.765 46.6655C114.751 43.6183 117.295 41.5075 120.205 41.5075C121.996 41.5075 123.733 42.3026 125.028 43.7514C126.325 45.2029 127.066 47.1881 127.066 49.2733C127.066 51.3585 126.325 53.3437 125.028 54.7952C123.733 56.244 121.996 57.0391 120.205 57.0391C117.295 57.0391 114.751 54.9283 113.765 51.8811L113.596 51.3593H113.047H87.207C86.5485 51.3593 85.1046 51.4907 83.8043 52.3825C82.4536 53.3088 81.3763 54.9746 81.3763 57.7931V60.633C81.3763 63.5657 82.549 65.2357 83.948 66.1313C85.2899 66.9904 86.7295 67.0668 87.207 67.0668H95.2789H95.8273L95.9962 66.545C96.9823 63.4978 99.5267 61.387 102.437 61.387C105.347 61.387 107.892 63.4978 108.878 66.545L109.047 67.0668H109.595H117.667C119.544 67.0668 121.899 67.7632 123.776 69.426C125.632 71.0697 127.066 73.699 127.066 77.6725V80.5125C127.066 84.486 125.632 87.1153 123.776 88.759C121.899 90.4218 119.544 91.1182 117.667 91.1182H91.8267H91.2783L91.1094 91.64C90.1233 94.6872 87.5789 96.798 84.6686 96.798C82.878 96.798 81.1411 96.003 79.8461 94.5542C78.5487 93.1026 77.8076 91.1175 77.8076 89.0322C77.8076 86.947 78.5487 84.9618 79.8461 83.5103C81.1411 82.0615 82.878 81.2664 84.6686 81.2664C87.5789 81.2664 90.1233 83.3772 91.1094 86.4244L91.2783 86.9463H91.8267H117.667C118.325 86.9463 119.769 86.8149 121.07 85.9231C122.42 84.9967 123.498 83.3309 123.498 80.5125V77.6725C123.498 74.7398 122.325 73.0698 120.926 72.1742C119.584 71.3151 118.144 71.2387 117.667 71.2387H109.595H109.047L108.878 71.7605C107.892 74.8078 105.347 76.9186 102.437 76.9186C99.5267 76.9186 96.9823 74.8078 95.9962 71.7605ZM82.3116 86.5217L82.8737 87.0241L82.3116 86.5217C81.7049 87.2005 81.3763 88.1047 81.3763 89.0322C81.3763 89.9598 81.7049 90.864 82.3116 91.5428L82.8737 91.0404L82.3116 91.5428C82.9208 92.2244 83.7664 92.6261 84.6686 92.6261C85.5709 92.6261 86.4164 92.2244 87.0256 91.5428C87.6324 90.864 87.9609 89.9598 87.9609 89.0322C87.9609 88.1047 87.6324 87.2005 87.0256 86.5217C86.4164 85.8401 85.5709 85.4383 84.6686 85.4383C83.7664 85.4383 82.9208 85.8401 82.3116 86.5217ZM122.562 46.7627C121.953 46.0811 121.108 45.6794 120.205 45.6794C119.303 45.6794 118.458 46.0811 117.848 46.7627C117.242 47.4415 116.913 48.3458 116.913 49.2733C116.913 50.2008 117.242 51.1051 117.848 51.7839C118.458 52.4655 119.303 52.8672 120.205 52.8672C121.108 52.8672 121.953 52.4655 122.562 51.7839C123.169 51.1051 123.498 50.2008 123.498 49.2733C123.498 48.3458 123.169 47.4415 122.562 46.7627Z" stroke="#FF7300" stroke-width="1.50792"/>
</svg>
