<svg width="356" height="191" viewBox="0 0 356 191" fill="none" xmlns="http://www.w3.org/2000/svg">
<mask id="path-1-inside-1_0_1" fill="white">
<path d="M0 17.2759C0 12.5053 3.86736 8.63794 8.63799 8.63794H346.384C351.154 8.63794 355.022 12.5053 355.022 17.2759V182.262C355.022 187.032 351.154 190.9 346.384 190.9H8.638C3.86737 190.9 0 187.032 0 182.262V17.2759Z"/>
</mask>
<path d="M0 17.2759C0 12.5053 3.86736 8.63794 8.63799 8.63794H346.384C351.154 8.63794 355.022 12.5053 355.022 17.2759V182.262C355.022 187.032 351.154 190.9 346.384 190.9H8.638C3.86737 190.9 0 187.032 0 182.262V17.2759Z" fill="#EEEDF4"/>
<path d="M0 8.63794H355.022H0ZM355.022 182.262C355.022 190.898 348.02 197.9 339.384 197.9H15.638C7.00137 197.9 0 190.898 0 182.262C0 183.166 3.86736 183.9 8.63799 183.9H346.384C351.154 183.9 355.022 183.166 355.022 182.262ZM0 190.9V8.63794V190.9ZM355.022 8.63794V190.9V8.63794Z" fill="#3424C2" mask="url(#path-1-inside-1_0_1)"/>
<path d="M29.0066 139.06C29.0066 138.162 29.1655 137.284 29.4834 136.427C29.8151 135.557 30.2919 134.769 30.9138 134.064C31.5358 133.345 32.2959 132.779 33.1943 132.364C34.0926 131.935 35.1153 131.721 36.2625 131.721C37.6169 131.721 38.7848 132.018 39.766 132.613C40.7611 133.207 41.5006 133.981 41.9843 134.935L39.7868 136.448C39.538 135.895 39.2132 135.46 38.8124 135.142C38.4116 134.81 37.9832 134.582 37.5271 134.458C37.071 134.32 36.6218 134.25 36.1795 134.25C35.4609 134.25 34.832 134.396 34.293 134.686C33.7678 134.976 33.3256 135.356 32.9662 135.826C32.6069 136.296 32.3374 136.821 32.1577 137.402C31.9918 137.982 31.9089 138.563 31.9089 139.143C31.9089 139.793 32.0126 140.421 32.2199 141.03C32.4272 141.624 32.7174 142.156 33.0906 142.626C33.4776 143.082 33.9337 143.448 34.4589 143.725C34.9979 143.987 35.5853 144.118 36.221 144.118C36.6771 144.118 37.1401 144.042 37.61 143.89C38.0799 143.738 38.5153 143.497 38.9161 143.165C39.3169 142.833 39.6278 142.405 39.849 141.88L42.1916 143.227C41.9014 143.96 41.4245 144.581 40.7611 145.093C40.1116 145.604 39.3791 145.991 38.5636 146.254C37.7482 146.516 36.9397 146.648 36.1381 146.648C35.0877 146.648 34.1272 146.433 33.2565 146.005C32.3857 145.563 31.6325 144.982 30.9968 144.264C30.3748 143.531 29.8842 142.716 29.5248 141.817C29.1793 140.905 29.0066 139.986 29.0066 139.06ZM48.8171 146.731C47.9326 146.731 47.1379 146.586 46.4331 146.295C45.7282 145.991 45.127 145.577 44.6294 145.051C44.1457 144.526 43.7726 143.925 43.51 143.248C43.2474 142.571 43.1161 141.859 43.1161 141.112C43.1161 140.352 43.2474 139.634 43.51 138.956C43.7726 138.279 44.1457 137.678 44.6294 137.153C45.127 136.628 45.7282 136.22 46.4331 135.93C47.1379 135.626 47.9326 135.474 48.8171 135.474C49.7017 135.474 50.4895 135.626 51.1805 135.93C51.8854 136.22 52.4866 136.628 52.9841 137.153C53.4817 137.678 53.8548 138.279 54.1036 138.956C54.3662 139.634 54.4975 140.352 54.4975 141.112C54.4975 141.859 54.3662 142.571 54.1036 143.248C53.8548 143.925 53.4817 144.526 52.9841 145.051C52.5004 145.577 51.9061 145.991 51.2012 146.295C50.4964 146.586 49.7017 146.731 48.8171 146.731ZM45.977 141.112C45.977 141.748 46.1014 142.315 46.3501 142.812C46.5989 143.296 46.9375 143.676 47.366 143.953C47.7944 144.229 48.2781 144.367 48.8171 144.367C49.3423 144.367 49.8192 144.229 50.2476 143.953C50.676 143.662 51.0147 143.275 51.2634 142.792C51.526 142.294 51.6573 141.728 51.6573 141.092C51.6573 140.47 51.526 139.91 51.2634 139.413C51.0147 138.915 50.676 138.528 50.2476 138.252C49.8192 137.975 49.3423 137.837 48.8171 137.837C48.2781 137.837 47.7944 137.982 47.366 138.272C46.9375 138.549 46.5989 138.936 46.3501 139.433C46.1014 139.917 45.977 140.477 45.977 141.112ZM66.4686 146.523H63.6906V140.428C63.6906 139.558 63.5386 138.922 63.2345 138.521C62.9305 138.12 62.509 137.92 61.9699 137.92C61.5968 137.92 61.2167 138.017 60.8297 138.21C60.4566 138.404 60.118 138.673 59.8139 139.019C59.5098 139.35 59.2887 139.737 59.1505 140.18V146.523H56.3725V135.66H58.881V137.671C59.1574 137.201 59.5098 136.807 59.9383 136.489C60.3667 136.158 60.8574 135.909 61.4102 135.743C61.9769 135.563 62.5712 135.474 63.1931 135.474C63.8703 135.474 64.4231 135.598 64.8516 135.847C65.2938 136.082 65.6255 136.406 65.8467 136.821C66.0816 137.222 66.2406 137.678 66.3235 138.189C66.4202 138.701 66.4686 139.219 66.4686 139.744V146.523ZM78.9802 146.523H76.2022V140.428C76.2022 139.558 76.0502 138.922 75.7461 138.521C75.4421 138.12 75.0206 137.92 74.4815 137.92C74.1084 137.92 73.7283 138.017 73.3413 138.21C72.9682 138.404 72.6296 138.673 72.3255 139.019C72.0214 139.35 71.8003 139.737 71.6621 140.18V146.523H68.8841V135.66H71.3926V137.671C71.669 137.201 72.0214 136.807 72.4499 136.489C72.8783 136.158 73.369 135.909 73.9218 135.743C74.4885 135.563 75.0827 135.474 75.7047 135.474C76.3819 135.474 76.9347 135.598 77.3632 135.847C77.8054 136.082 78.1371 136.406 78.3583 136.821C78.5932 137.222 78.7522 137.678 78.8351 138.189C78.9318 138.701 78.9802 139.219 78.9802 139.744V146.523ZM86.4334 146.731C85.5627 146.731 84.7749 146.586 84.07 146.295C83.3652 145.991 82.764 145.584 82.2664 145.072C81.7689 144.547 81.3819 143.953 81.1055 143.289C80.8429 142.612 80.7116 141.9 80.7116 141.154C80.7116 140.117 80.9396 139.171 81.3957 138.314C81.8656 137.457 82.529 136.773 83.3859 136.261C84.2566 135.736 85.2794 135.474 86.4541 135.474C87.6427 135.474 88.6585 135.736 89.5016 136.261C90.3447 136.773 90.9873 137.457 91.4296 138.314C91.8857 139.157 92.1137 140.069 92.1137 141.05C92.1137 141.216 92.1068 141.389 92.093 141.569C92.0792 141.734 92.0654 141.873 92.0515 141.983H83.6554C83.7107 142.536 83.8696 143.02 84.1322 143.434C84.4086 143.849 84.7542 144.167 85.1688 144.388C85.5972 144.595 86.0533 144.699 86.537 144.699C87.0899 144.699 87.6082 144.568 88.0919 144.305C88.5894 144.029 88.928 143.669 89.1077 143.227L91.4918 143.89C91.2292 144.443 90.8491 144.934 90.3516 145.362C89.8679 145.791 89.2943 146.129 88.6309 146.378C87.9675 146.613 87.235 146.731 86.4334 146.731ZM83.5932 140.221H89.2736C89.2183 139.668 89.0593 139.191 88.7967 138.791C88.548 138.376 88.2163 138.058 87.8016 137.837C87.387 137.602 86.924 137.485 86.4127 137.485C85.9151 137.485 85.459 137.602 85.0444 137.837C84.6436 138.058 84.3119 138.376 84.0493 138.791C83.8005 139.191 83.6485 139.668 83.5932 140.221ZM98.8645 146.731C97.98 146.731 97.1853 146.586 96.4804 146.295C95.7755 145.991 95.1743 145.577 94.6768 145.051C94.1792 144.512 93.7923 143.904 93.5158 143.227C93.2532 142.55 93.1219 141.838 93.1219 141.092C93.1219 140.069 93.35 139.136 93.8061 138.293C94.276 137.436 94.9394 136.752 95.7963 136.241C96.6532 135.729 97.669 135.474 98.8438 135.474C100.019 135.474 101.027 135.729 101.871 136.241C102.714 136.752 103.342 137.422 103.757 138.252L101.041 139.081C100.806 138.68 100.495 138.376 100.108 138.169C99.7214 137.948 99.2929 137.837 98.823 137.837C98.2978 137.837 97.8141 137.975 97.3718 138.252C96.9434 138.514 96.6048 138.894 96.356 139.392C96.1072 139.876 95.9828 140.442 95.9828 141.092C95.9828 141.728 96.1072 142.294 96.356 142.792C96.6186 143.275 96.9641 143.662 97.3926 143.953C97.821 144.229 98.2978 144.367 98.823 144.367C99.1547 144.367 99.4657 144.312 99.7559 144.201C100.06 144.091 100.329 143.939 100.564 143.745C100.799 143.552 100.972 143.331 101.083 143.082L103.799 143.911C103.55 144.45 103.183 144.934 102.7 145.362C102.23 145.791 101.67 146.129 101.021 146.378C100.385 146.613 99.6661 146.731 98.8645 146.731ZM112.017 145.964C111.782 146.06 111.499 146.171 111.167 146.295C110.836 146.42 110.476 146.516 110.089 146.586C109.716 146.668 109.336 146.71 108.949 146.71C108.438 146.71 107.968 146.62 107.54 146.44C107.111 146.261 106.766 145.977 106.503 145.59C106.254 145.19 106.13 144.671 106.13 144.036V137.795H104.699V135.66H106.13V132.136H108.908V135.66H111.188V137.795H108.908V143.103C108.922 143.476 109.025 143.745 109.219 143.911C109.412 144.077 109.654 144.16 109.944 144.16C110.235 144.16 110.518 144.112 110.794 144.015C111.071 143.918 111.292 143.835 111.458 143.766L112.017 145.964ZM131.333 135.66H133.966L129.425 146.523H127.104L125.279 141.859L123.496 146.523H121.154L116.634 135.66H119.246L122.481 143.87L123.745 140.325L121.859 135.681H124.16L125.279 138.998L126.419 135.681H128.721L126.834 140.325L128.119 143.87L131.333 135.66ZM135.248 146.523V135.66H138.026V146.523H135.248ZM135.248 134.147V131.39H138.026V134.147H135.248ZM147.042 145.964C146.807 146.06 146.524 146.171 146.192 146.295C145.86 146.42 145.501 146.516 145.114 146.586C144.741 146.668 144.361 146.71 143.974 146.71C143.462 146.71 142.992 146.62 142.564 146.44C142.135 146.261 141.79 145.977 141.527 145.59C141.279 145.19 141.154 144.671 141.154 144.036V137.795H139.724V135.66H141.154V132.136H143.932V135.66H146.213V137.795H143.932V143.103C143.946 143.476 144.05 143.745 144.243 143.911C144.437 144.077 144.678 144.16 144.969 144.16C145.259 144.16 145.542 144.112 145.819 144.015C146.095 143.918 146.316 143.835 146.482 143.766L147.042 145.964ZM158.585 146.523H155.807V140.428C155.807 139.585 155.641 138.956 155.309 138.542C154.991 138.127 154.549 137.92 153.982 137.92C153.651 137.92 153.298 138.017 152.925 138.21C152.552 138.404 152.213 138.673 151.909 139.019C151.619 139.35 151.405 139.737 151.267 140.18V146.523H148.489V131.39H151.267V137.671C151.667 136.98 152.213 136.441 152.904 136.054C153.595 135.667 154.349 135.474 155.164 135.474C155.869 135.474 156.442 135.598 156.885 135.847C157.327 136.082 157.673 136.406 157.921 136.821C158.17 137.222 158.343 137.678 158.44 138.189C158.536 138.687 158.585 139.205 158.585 139.744V146.523ZM166.25 146.523V131.804H172.76C173.437 131.804 174.059 131.942 174.625 132.219C175.206 132.495 175.703 132.868 176.118 133.338C176.547 133.808 176.871 134.333 177.092 134.914C177.327 135.494 177.445 136.089 177.445 136.697C177.445 137.319 177.334 137.92 177.113 138.5C176.906 139.067 176.602 139.565 176.201 139.993C175.8 140.421 175.33 140.753 174.791 140.988L178.15 146.523H174.999L171.972 141.589H169.111V146.523H166.25ZM169.111 139.081H172.697C173.057 139.081 173.375 138.977 173.651 138.77C173.928 138.549 174.149 138.258 174.314 137.899C174.48 137.54 174.563 137.139 174.563 136.697C174.563 136.227 174.467 135.819 174.273 135.474C174.08 135.114 173.831 134.831 173.527 134.624C173.236 134.416 172.919 134.313 172.573 134.313H169.111V139.081ZM184.441 146.731C183.57 146.731 182.782 146.586 182.078 146.295C181.373 145.991 180.771 145.584 180.274 145.072C179.776 144.547 179.389 143.953 179.113 143.289C178.85 142.612 178.719 141.9 178.719 141.154C178.719 140.117 178.947 139.171 179.403 138.314C179.873 137.457 180.536 136.773 181.393 136.261C182.264 135.736 183.287 135.474 184.462 135.474C185.65 135.474 186.666 135.736 187.509 136.261C188.352 136.773 188.995 137.457 189.437 138.314C189.893 139.157 190.121 140.069 190.121 141.05C190.121 141.216 190.114 141.389 190.1 141.569C190.087 141.734 190.073 141.873 190.059 141.983H181.663C181.718 142.536 181.877 143.02 182.14 143.434C182.416 143.849 182.762 144.167 183.176 144.388C183.605 144.595 184.061 144.699 184.545 144.699C185.097 144.699 185.616 144.568 186.099 144.305C186.597 144.029 186.936 143.669 187.115 143.227L189.499 143.89C189.237 144.443 188.857 144.934 188.359 145.362C187.875 145.791 187.302 146.129 186.638 146.378C185.975 146.613 185.242 146.731 184.441 146.731ZM181.601 140.221H187.281C187.226 139.668 187.067 139.191 186.804 138.791C186.555 138.376 186.224 138.058 185.809 137.837C185.394 137.602 184.931 137.485 184.42 137.485C183.923 137.485 183.466 137.602 183.052 137.837C182.651 138.058 182.319 138.376 182.057 138.791C181.808 139.191 181.656 139.668 181.601 140.221ZM196.063 146.586C195.345 146.586 194.681 146.447 194.073 146.171C193.479 145.881 192.961 145.48 192.518 144.968C192.09 144.457 191.758 143.87 191.523 143.206C191.288 142.543 191.171 141.838 191.171 141.092C191.171 140.304 191.295 139.571 191.544 138.894C191.793 138.217 192.138 137.623 192.581 137.111C193.037 136.586 193.569 136.185 194.177 135.909C194.799 135.619 195.483 135.474 196.229 135.474C197.072 135.474 197.812 135.667 198.448 136.054C199.083 136.427 199.608 136.932 200.023 137.567V135.66H202.449V146.005C202.449 147.083 202.186 148.002 201.661 148.762C201.149 149.536 200.438 150.124 199.526 150.524C198.613 150.939 197.577 151.146 196.416 151.146C195.241 151.146 194.246 150.946 193.431 150.545C192.615 150.158 191.917 149.605 191.337 148.887L192.85 147.415C193.265 147.926 193.783 148.327 194.405 148.617C195.041 148.907 195.711 149.053 196.416 149.053C197.01 149.053 197.549 148.942 198.033 148.721C198.53 148.514 198.924 148.182 199.215 147.726C199.519 147.283 199.671 146.71 199.671 146.005V144.637C199.311 145.259 198.8 145.742 198.137 146.088C197.487 146.42 196.796 146.586 196.063 146.586ZM196.996 144.367C197.3 144.367 197.591 144.319 197.867 144.222C198.143 144.125 198.399 143.994 198.634 143.828C198.869 143.662 199.076 143.469 199.256 143.248C199.436 143.013 199.574 142.778 199.671 142.543V139.952C199.505 139.523 199.27 139.15 198.966 138.832C198.676 138.514 198.344 138.272 197.971 138.106C197.611 137.927 197.231 137.837 196.83 137.837C196.402 137.837 196.015 137.927 195.67 138.106C195.324 138.286 195.027 138.542 194.778 138.874C194.529 139.191 194.336 139.551 194.198 139.952C194.073 140.339 194.011 140.746 194.011 141.175C194.011 141.617 194.087 142.032 194.239 142.419C194.391 142.806 194.598 143.144 194.861 143.434C195.137 143.725 195.455 143.953 195.815 144.118C196.188 144.284 196.582 144.367 196.996 144.367ZM204.953 146.523V135.66H207.731V146.523H204.953ZM204.953 134.147V131.39H207.731V134.147H204.953ZM214.238 146.731C213.312 146.731 212.427 146.579 211.584 146.275C210.741 145.97 210.016 145.521 209.408 144.927L210.403 143.123C211.052 143.649 211.688 144.036 212.31 144.284C212.946 144.533 213.554 144.658 214.134 144.658C214.673 144.658 215.102 144.561 215.42 144.367C215.751 144.174 215.917 143.884 215.917 143.497C215.917 143.234 215.827 143.034 215.648 142.895C215.468 142.743 215.205 142.612 214.86 142.501C214.528 142.391 214.12 142.267 213.637 142.128C212.835 141.866 212.165 141.61 211.626 141.361C211.087 141.112 210.679 140.802 210.403 140.428C210.14 140.041 210.009 139.551 210.009 138.956C210.009 138.238 210.188 137.623 210.548 137.111C210.921 136.586 211.432 136.178 212.082 135.888C212.745 135.598 213.519 135.453 214.404 135.453C215.178 135.453 215.91 135.577 216.601 135.826C217.292 136.061 217.921 136.448 218.488 136.987L217.368 138.749C216.815 138.321 216.29 138.01 215.793 137.816C215.295 137.609 214.791 137.505 214.279 137.505C213.989 137.505 213.713 137.54 213.45 137.609C213.201 137.678 212.994 137.795 212.828 137.961C212.676 138.113 212.6 138.334 212.6 138.625C212.6 138.887 212.669 139.095 212.807 139.247C212.959 139.385 213.181 139.509 213.471 139.62C213.775 139.73 214.141 139.855 214.57 139.993C215.44 140.242 216.173 140.497 216.767 140.76C217.375 141.023 217.831 141.347 218.135 141.734C218.439 142.108 218.591 142.626 218.591 143.289C218.591 144.367 218.198 145.21 217.41 145.818C216.622 146.427 215.565 146.731 214.238 146.731ZM226.93 145.964C226.695 146.06 226.411 146.171 226.08 146.295C225.748 146.42 225.389 146.516 225.002 146.586C224.629 146.668 224.249 146.71 223.862 146.71C223.35 146.71 222.88 146.62 222.452 146.44C222.023 146.261 221.678 145.977 221.415 145.59C221.166 145.19 221.042 144.671 221.042 144.036V137.795H219.612V135.66H221.042V132.136H223.82V135.66H226.1V137.795H223.82V143.103C223.834 143.476 223.938 143.745 224.131 143.911C224.325 144.077 224.566 144.16 224.857 144.16C225.147 144.16 225.43 144.112 225.707 144.015C225.983 143.918 226.204 143.835 226.37 143.766L226.93 145.964ZM233.293 146.731C232.422 146.731 231.634 146.586 230.929 146.295C230.225 145.991 229.623 145.584 229.126 145.072C228.628 144.547 228.241 143.953 227.965 143.289C227.702 142.612 227.571 141.9 227.571 141.154C227.571 140.117 227.799 139.171 228.255 138.314C228.725 137.457 229.388 136.773 230.245 136.261C231.116 135.736 232.139 135.474 233.313 135.474C234.502 135.474 235.518 135.736 236.361 136.261C237.204 136.773 237.847 137.457 238.289 138.314C238.745 139.157 238.973 140.069 238.973 141.05C238.973 141.216 238.966 141.389 238.952 141.569C238.939 141.734 238.925 141.873 238.911 141.983H230.515C230.57 142.536 230.729 143.02 230.992 143.434C231.268 143.849 231.614 144.167 232.028 144.388C232.457 144.595 232.913 144.699 233.396 144.699C233.949 144.699 234.468 144.568 234.951 144.305C235.449 144.029 235.787 143.669 235.967 143.227L238.351 143.89C238.089 144.443 237.709 144.934 237.211 145.362C236.727 145.791 236.154 146.129 235.49 146.378C234.827 146.613 234.094 146.731 233.293 146.731ZM230.453 140.221H236.133C236.078 139.668 235.919 139.191 235.656 138.791C235.407 138.376 235.076 138.058 234.661 137.837C234.246 137.602 233.783 137.485 233.272 137.485C232.774 137.485 232.318 137.602 231.904 137.837C231.503 138.058 231.171 138.376 230.909 138.791C230.66 139.191 230.508 139.668 230.453 140.221ZM247.134 138.065C246.291 138.065 245.537 138.231 244.874 138.563C244.21 138.88 243.734 139.343 243.443 139.952V146.523H240.665V135.66H243.215V137.982C243.602 137.236 244.093 136.648 244.687 136.22C245.282 135.791 245.91 135.557 246.574 135.515C246.726 135.515 246.843 135.515 246.926 135.515C247.009 135.515 247.078 135.522 247.134 135.536V138.065ZM248.952 146.523V131.825H251.813V138.811L257.991 131.804H261.142L255.503 138.334L261.494 146.523H258.26L253.679 140.18L251.813 142.128V146.523H248.952ZM261.723 143.31C261.723 142.605 261.917 141.99 262.304 141.465C262.705 140.926 263.257 140.511 263.962 140.221C264.667 139.931 265.476 139.786 266.388 139.786C266.844 139.786 267.307 139.82 267.777 139.889C268.247 139.958 268.654 140.069 269 140.221V139.641C269 138.95 268.793 138.417 268.378 138.044C267.977 137.671 267.376 137.485 266.574 137.485C265.98 137.485 265.413 137.588 264.874 137.795C264.335 138.003 263.769 138.307 263.174 138.708L262.283 136.883C263.002 136.413 263.734 136.061 264.481 135.826C265.241 135.591 266.035 135.474 266.865 135.474C268.413 135.474 269.615 135.861 270.472 136.635C271.343 137.409 271.778 138.514 271.778 139.952V143.414C271.778 143.704 271.826 143.911 271.923 144.036C272.034 144.16 272.206 144.236 272.441 144.264V146.523C272.193 146.565 271.965 146.599 271.757 146.627C271.564 146.655 271.398 146.668 271.26 146.668C270.707 146.668 270.285 146.544 269.995 146.295C269.719 146.046 269.546 145.742 269.477 145.383L269.415 144.823C268.945 145.431 268.357 145.901 267.652 146.233C266.948 146.565 266.229 146.731 265.496 146.731C264.778 146.731 264.128 146.586 263.548 146.295C262.981 145.991 262.532 145.584 262.2 145.072C261.882 144.547 261.723 143.96 261.723 143.31ZM268.482 143.87C268.634 143.704 268.758 143.538 268.855 143.372C268.952 143.206 269 143.054 269 142.916V141.817C268.668 141.679 268.309 141.575 267.922 141.506C267.535 141.423 267.169 141.382 266.823 141.382C266.105 141.382 265.51 141.541 265.04 141.859C264.584 142.163 264.356 142.571 264.356 143.082C264.356 143.358 264.432 143.621 264.584 143.87C264.736 144.118 264.957 144.319 265.248 144.471C265.538 144.623 265.883 144.699 266.284 144.699C266.699 144.699 267.107 144.623 267.507 144.471C267.908 144.305 268.233 144.105 268.482 143.87ZM280.842 138.065C279.999 138.065 279.246 138.231 278.582 138.563C277.919 138.88 277.442 139.343 277.152 139.952V146.523H274.374V135.66H276.924V137.982C277.311 137.236 277.801 136.648 278.396 136.22C278.99 135.791 279.619 135.557 280.282 135.515C280.434 135.515 280.552 135.515 280.635 135.515C280.718 135.515 280.787 135.522 280.842 135.536V138.065ZM287.266 146.731C286.382 146.731 285.587 146.586 284.882 146.295C284.177 145.991 283.576 145.577 283.079 145.051C282.595 144.526 282.222 143.925 281.959 143.248C281.696 142.571 281.565 141.859 281.565 141.112C281.565 140.352 281.696 139.634 281.959 138.956C282.222 138.279 282.595 137.678 283.079 137.153C283.576 136.628 284.177 136.22 284.882 135.93C285.587 135.626 286.382 135.474 287.266 135.474C288.151 135.474 288.939 135.626 289.63 135.93C290.334 136.22 290.936 136.628 291.433 137.153C291.931 137.678 292.304 138.279 292.553 138.956C292.815 139.634 292.947 140.352 292.947 141.112C292.947 141.859 292.815 142.571 292.553 143.248C292.304 143.925 291.931 144.526 291.433 145.051C290.949 145.577 290.355 145.991 289.65 146.295C288.945 146.586 288.151 146.731 287.266 146.731ZM284.426 141.112C284.426 141.748 284.55 142.315 284.799 142.812C285.048 143.296 285.387 143.676 285.815 143.953C286.243 144.229 286.727 144.367 287.266 144.367C287.791 144.367 288.268 144.229 288.697 143.953C289.125 143.662 289.464 143.275 289.713 142.792C289.975 142.294 290.106 141.728 290.106 141.092C290.106 140.47 289.975 139.91 289.713 139.413C289.464 138.915 289.125 138.528 288.697 138.252C288.268 137.975 287.791 137.837 287.266 137.837C286.727 137.837 286.243 137.982 285.815 138.272C285.387 138.549 285.048 138.936 284.799 139.433C284.55 139.917 284.426 140.477 284.426 141.112Z" fill="#252B42"/>
<path d="M67.6173 56.2986C65.3678 56.2986 63.2083 55.9387 61.1928 55.2728C60.8764 55.1721 60.5386 55.159 60.2153 55.2351C59.8921 55.3111 59.5955 55.4734 59.3572 55.7047L55.3981 59.6638C50.2895 57.0656 46.1371 52.9133 43.5389 47.8046L47.498 43.8275C47.7363 43.6014 47.9053 43.312 47.9849 42.9932C48.0646 42.6745 48.0518 42.3396 47.9479 42.0279C47.2652 39.9549 46.9189 37.7859 46.9221 35.6034C46.9221 34.6136 46.1123 33.8038 45.1225 33.8038H38.824C37.8342 33.8038 37.0244 34.6136 37.0244 35.6034C37.0244 52.5015 50.7192 66.1963 67.6173 66.1963C68.6071 66.1963 69.4169 65.3865 69.4169 64.3967V58.0982C69.4169 57.1084 68.6071 56.2986 67.6173 56.2986ZM69.4169 39.2026H64.0181V33.8038H60.419V39.2026H55.0202V42.8017H60.419V48.2005H64.0181V42.8017H69.4169V39.2026Z" fill="#23A6F0"/>
<path d="M300.406 100C299.454 100 298.644 99.7144 297.978 99.1431C297.407 98.4766 297.121 97.6674 297.121 96.7153V16.739L273.414 35.0193C272.652 35.5905 271.843 35.8285 270.986 35.7333C270.129 35.6381 269.415 35.2097 268.844 34.448L265.13 29.7351C264.559 28.8782 264.321 28.0213 264.416 27.1644C264.607 26.3076 265.083 25.5935 265.845 25.0222L296.978 1.02934C297.645 0.553289 298.263 0.267658 298.835 0.172443C299.406 0.0772347 300.025 0.0296303 300.691 0.0296303H307.975C308.927 0.0296303 309.689 0.362866 310.26 1.02934C310.831 1.6006 311.117 2.36227 311.117 3.31437V96.7153C311.117 97.6674 310.831 98.4766 310.26 99.1431C309.689 99.7144 308.927 100 307.975 100H300.406Z" fill="white"/>
</svg>
