<svg width="356" height="191" viewBox="0 0 356 191" fill="none" xmlns="http://www.w3.org/2000/svg">
<rect x="0.0439453" y="8.63794" width="355.022" height="182.262" rx="8.63799" fill="#3424C2"/>
<path d="M37.9267 142.627C36.973 142.627 36.0678 142.433 35.2109 142.046C34.3678 141.66 33.6215 141.127 32.9719 140.45C32.3362 139.759 31.8386 138.958 31.4793 138.045C31.1199 137.133 30.9403 136.145 30.9403 135.081C30.9403 134.072 31.1199 133.125 31.4793 132.241C31.8386 131.342 32.3431 130.555 32.9926 129.877C33.6422 129.2 34.4024 128.668 35.2731 128.281C36.1438 127.894 37.0905 127.701 38.1132 127.701C39.4953 127.701 40.677 127.998 41.6583 128.592C42.6534 129.172 43.3997 129.946 43.8972 130.914L41.7619 132.489C41.3888 131.757 40.8636 131.197 40.1864 130.81C39.523 130.423 38.7974 130.23 38.0096 130.23C37.3877 130.23 36.821 130.361 36.3096 130.624C35.7983 130.886 35.356 131.246 34.9828 131.702C34.6097 132.158 34.3194 132.683 34.1121 133.277C33.9186 133.872 33.8219 134.5 33.8219 135.164C33.8219 135.869 33.9255 136.518 34.1329 137.112C34.354 137.707 34.658 138.225 35.045 138.667C35.4458 139.11 35.9088 139.462 36.434 139.725C36.9592 139.973 37.5397 140.098 38.1754 140.098C38.9218 140.098 39.6335 139.904 40.3107 139.517C41.0018 139.13 41.6445 138.564 42.2387 137.817V140.637C41.0087 141.964 39.5713 142.627 37.9267 142.627ZM42.0314 137.05H39.0669V134.956H44.3948V142.523H42.0314V137.05ZM51.6011 142.731C50.7304 142.731 49.9426 142.586 49.2378 142.295C48.5329 141.991 47.9317 141.584 47.4342 141.072C46.9366 140.547 46.5496 139.953 46.2732 139.289C46.0106 138.612 45.8793 137.9 45.8793 137.154C45.8793 136.117 46.1074 135.171 46.5635 134.314C47.0334 133.457 47.6968 132.773 48.5537 132.261C49.4244 131.736 50.4471 131.474 51.6219 131.474C52.8105 131.474 53.8263 131.736 54.6694 132.261C55.5124 132.773 56.1551 133.457 56.5974 134.314C57.0534 135.157 57.2815 136.069 57.2815 137.05C57.2815 137.216 57.2746 137.389 57.2608 137.569C57.2469 137.734 57.2331 137.873 57.2193 137.983H48.8232C48.8784 138.536 49.0374 139.02 49.3 139.434C49.5764 139.849 49.9219 140.167 50.3365 140.388C50.765 140.595 51.2211 140.699 51.7048 140.699C52.2576 140.699 52.7759 140.568 53.2596 140.305C53.7572 140.029 54.0958 139.669 54.2755 139.227L56.6596 139.89C56.397 140.443 56.0169 140.934 55.5193 141.362C55.0356 141.791 54.462 142.129 53.7986 142.378C53.1353 142.613 52.4027 142.731 51.6011 142.731ZM48.761 136.221H54.4413C54.386 135.668 54.2271 135.191 53.9645 134.791C53.7157 134.376 53.384 134.058 52.9694 133.837C52.5548 133.602 52.0918 133.485 51.5804 133.485C51.0829 133.485 50.6268 133.602 50.2122 133.837C49.8114 134.058 49.4797 134.376 49.2171 134.791C48.9683 135.191 48.8163 135.668 48.761 136.221ZM65.3822 141.964C65.1472 142.06 64.8639 142.171 64.5322 142.295C64.2005 142.42 63.8412 142.516 63.4542 142.586C63.081 142.668 62.701 142.71 62.314 142.71C61.8026 142.71 61.3327 142.62 60.9043 142.44C60.4758 142.261 60.1303 141.977 59.8677 141.59C59.6189 141.19 59.4945 140.671 59.4945 140.036V133.795H58.0641V131.66H59.4945V128.136H62.2725V131.66H64.5529V133.795H62.2725V139.103C62.2863 139.476 62.39 139.745 62.5835 139.911C62.777 140.077 63.0188 140.16 63.3091 140.16C63.5993 140.16 63.8826 140.112 64.1591 140.015C64.4355 139.918 64.6566 139.835 64.8225 139.766L65.3822 141.964ZM72.968 127.804L76.596 134.728L80.2861 127.804H83.3751L78.0264 137.382V142.523H75.1863V137.341L69.8583 127.804H72.968ZM87.8397 142.731C86.9552 142.731 86.1605 142.586 85.4557 142.295C84.7508 141.991 84.1496 141.577 83.652 141.051C83.1683 140.526 82.7951 139.925 82.5326 139.248C82.27 138.571 82.1387 137.859 82.1387 137.112C82.1387 136.352 82.27 135.634 82.5326 134.956C82.7951 134.279 83.1683 133.678 83.652 133.153C84.1496 132.628 84.7508 132.22 85.4557 131.93C86.1605 131.626 86.9552 131.474 87.8397 131.474C88.7243 131.474 89.5121 131.626 90.2031 131.93C90.908 132.22 91.5092 132.628 92.0067 133.153C92.5043 133.678 92.8774 134.279 93.1262 134.956C93.3888 135.634 93.5201 136.352 93.5201 137.112C93.5201 137.859 93.3888 138.571 93.1262 139.248C92.8774 139.925 92.5043 140.526 92.0067 141.051C91.523 141.577 90.9287 141.991 90.2238 142.295C89.519 142.586 88.7243 142.731 87.8397 142.731ZM84.9996 137.112C84.9996 137.748 85.124 138.315 85.3727 138.812C85.6215 139.296 85.9601 139.676 86.3886 139.953C86.817 140.229 87.3007 140.367 87.8397 140.367C88.3649 140.367 88.8417 140.229 89.2702 139.953C89.6986 139.662 90.0372 139.275 90.286 138.792C90.5486 138.294 90.6799 137.728 90.6799 137.092C90.6799 136.47 90.5486 135.91 90.286 135.413C90.0372 134.915 89.6986 134.528 89.2702 134.252C88.8417 133.975 88.3649 133.837 87.8397 133.837C87.3007 133.837 86.817 133.982 86.3886 134.272C85.9601 134.549 85.6215 134.936 85.3727 135.433C85.124 135.917 84.9996 136.477 84.9996 137.112ZM95.2915 138.46V131.66H98.0694V137.859C98.0694 138.688 98.2215 139.317 98.5255 139.745C98.8296 140.16 99.2788 140.367 99.8731 140.367C100.232 140.367 100.585 140.298 100.93 140.16C101.29 140.008 101.614 139.787 101.905 139.497C102.209 139.206 102.464 138.84 102.672 138.398V131.66H105.45V139.414C105.45 139.704 105.498 139.911 105.595 140.036C105.705 140.16 105.878 140.236 106.113 140.264V142.523C105.837 142.565 105.602 142.592 105.408 142.606C105.229 142.634 105.063 142.648 104.911 142.648C104.413 142.648 104.005 142.537 103.688 142.316C103.384 142.081 103.204 141.763 103.149 141.362L103.086 140.492C102.603 141.224 101.981 141.784 101.221 142.171C100.46 142.544 99.6243 142.731 98.7121 142.731C97.5926 142.731 96.7426 142.371 96.1622 141.653C95.5817 140.92 95.2915 139.856 95.2915 138.46ZM114.679 134.065C113.835 134.065 113.082 134.231 112.419 134.563C111.755 134.88 111.279 135.343 110.988 135.952V142.523H108.21V131.66H110.76V133.982C111.147 133.236 111.638 132.648 112.232 132.22C112.827 131.791 113.455 131.557 114.119 131.515C114.271 131.515 114.388 131.515 114.471 131.515C114.554 131.515 114.623 131.522 114.679 131.536V134.065ZM121.817 127.804L125.797 139.123L129.736 127.804H132.742L127.165 142.523H124.408L118.811 127.804H121.817ZM134.043 142.523V131.66H136.821V142.523H134.043ZM134.043 130.147V127.39H136.821V130.147H134.043ZM145.796 134.065C144.952 134.065 144.199 134.231 143.536 134.563C142.872 134.88 142.396 135.343 142.105 135.952V142.523H139.327V131.66H141.877V133.982C142.264 133.236 142.755 132.648 143.349 132.22C143.944 131.791 144.572 131.557 145.236 131.515C145.388 131.515 145.505 131.515 145.588 131.515C145.671 131.515 145.74 131.522 145.796 131.536V134.065ZM153.854 141.964C153.619 142.06 153.336 142.171 153.004 142.295C152.672 142.42 152.313 142.516 151.926 142.586C151.553 142.668 151.173 142.71 150.786 142.71C150.275 142.71 149.805 142.62 149.376 142.44C148.948 142.261 148.602 141.977 148.34 141.59C148.091 141.19 147.966 140.671 147.966 140.036V133.795H146.536V131.66H147.966V128.136H150.744V131.66H153.025V133.795H150.744V139.103C150.758 139.476 150.862 139.745 151.055 139.911C151.249 140.077 151.491 140.16 151.781 140.16C152.071 140.16 152.355 140.112 152.631 140.015C152.907 139.918 153.129 139.835 153.294 139.766L153.854 141.964ZM155.197 138.46V131.66H157.975V137.859C157.975 138.688 158.127 139.317 158.431 139.745C158.735 140.16 159.185 140.367 159.779 140.367C160.138 140.367 160.491 140.298 160.836 140.16C161.196 140.008 161.52 139.787 161.811 139.497C162.115 139.206 162.37 138.84 162.578 138.398V131.66H165.356V139.414C165.356 139.704 165.404 139.911 165.501 140.036C165.611 140.16 165.784 140.236 166.019 140.264V142.523C165.743 142.565 165.508 142.592 165.314 142.606C165.134 142.634 164.969 142.648 164.817 142.648C164.319 142.648 163.911 142.537 163.593 142.316C163.289 142.081 163.11 141.763 163.054 141.362L162.992 140.492C162.508 141.224 161.887 141.784 161.126 142.171C160.366 142.544 159.53 142.731 158.618 142.731C157.498 142.731 156.648 142.371 156.068 141.653C155.488 140.92 155.197 139.856 155.197 138.46ZM167.37 139.31C167.37 138.605 167.563 137.99 167.95 137.465C168.351 136.926 168.904 136.511 169.609 136.221C170.314 135.931 171.122 135.786 172.034 135.786C172.49 135.786 172.953 135.82 173.423 135.889C173.893 135.958 174.301 136.069 174.647 136.221V135.641C174.647 134.95 174.439 134.417 174.025 134.044C173.624 133.671 173.023 133.485 172.221 133.485C171.627 133.485 171.06 133.588 170.521 133.795C169.982 134.003 169.415 134.307 168.821 134.708L167.93 132.883C168.648 132.413 169.381 132.061 170.127 131.826C170.887 131.591 171.682 131.474 172.511 131.474C174.059 131.474 175.262 131.861 176.118 132.635C176.989 133.409 177.425 134.514 177.425 135.952V139.414C177.425 139.704 177.473 139.911 177.57 140.036C177.68 140.16 177.853 140.236 178.088 140.264V142.523C177.839 142.565 177.611 142.599 177.404 142.627C177.21 142.655 177.044 142.668 176.906 142.668C176.353 142.668 175.932 142.544 175.642 142.295C175.365 142.046 175.192 141.742 175.123 141.383L175.061 140.823C174.591 141.431 174.004 141.901 173.299 142.233C172.594 142.565 171.875 142.731 171.143 142.731C170.424 142.731 169.775 142.586 169.194 142.295C168.628 141.991 168.178 141.584 167.847 141.072C167.529 140.547 167.37 139.96 167.37 139.31ZM174.128 139.87C174.28 139.704 174.405 139.538 174.501 139.372C174.598 139.206 174.647 139.054 174.647 138.916V137.817C174.315 137.679 173.955 137.575 173.569 137.506C173.182 137.423 172.815 137.382 172.47 137.382C171.751 137.382 171.157 137.541 170.687 137.859C170.231 138.163 170.003 138.571 170.003 139.082C170.003 139.358 170.079 139.621 170.231 139.87C170.383 140.118 170.604 140.319 170.894 140.471C171.184 140.623 171.53 140.699 171.931 140.699C172.345 140.699 172.753 140.623 173.154 140.471C173.555 140.305 173.879 140.105 174.128 139.87ZM180 127.39H182.778V139.04C182.778 139.538 182.861 139.877 183.026 140.056C183.192 140.222 183.42 140.305 183.711 140.305C183.932 140.305 184.16 140.277 184.395 140.222C184.63 140.167 184.837 140.098 185.017 140.015L185.39 142.129C185.017 142.309 184.581 142.447 184.084 142.544C183.586 142.641 183.137 142.689 182.736 142.689C181.866 142.689 181.188 142.461 180.705 142.005C180.235 141.535 180 140.872 180 140.015V127.39ZM197.565 142.627C196.487 142.627 195.505 142.42 194.621 142.005C193.75 141.59 192.997 141.031 192.361 140.326C191.739 139.607 191.256 138.806 190.91 137.921C190.564 137.023 190.392 136.104 190.392 135.164C190.392 134.182 190.571 133.25 190.931 132.365C191.304 131.467 191.808 130.672 192.444 129.981C193.094 129.276 193.854 128.723 194.725 128.322C195.609 127.908 196.577 127.701 197.627 127.701C198.691 127.701 199.659 127.915 200.529 128.343C201.414 128.772 202.167 129.345 202.789 130.064C203.411 130.783 203.895 131.584 204.24 132.469C204.586 133.353 204.758 134.265 204.758 135.205C204.758 136.173 204.579 137.106 204.219 138.004C203.86 138.888 203.356 139.683 202.706 140.388C202.07 141.079 201.31 141.625 200.426 142.026C199.555 142.427 198.601 142.627 197.565 142.627ZM193.294 135.164C193.294 135.8 193.391 136.415 193.584 137.009C193.778 137.603 194.054 138.135 194.414 138.605C194.787 139.061 195.236 139.427 195.761 139.704C196.3 139.966 196.908 140.098 197.585 140.098C198.276 140.098 198.891 139.96 199.431 139.683C199.97 139.393 200.419 139.013 200.778 138.543C201.137 138.059 201.407 137.527 201.587 136.947C201.78 136.352 201.877 135.758 201.877 135.164C201.877 134.528 201.773 133.92 201.566 133.339C201.372 132.745 201.089 132.22 200.716 131.764C200.356 131.294 199.907 130.928 199.368 130.665C198.843 130.389 198.249 130.25 197.585 130.25C196.881 130.25 196.259 130.396 195.72 130.686C195.194 130.962 194.752 131.335 194.393 131.805C194.033 132.275 193.757 132.8 193.564 133.381C193.384 133.961 193.294 134.556 193.294 135.164ZM207.347 142.523V134.355H205.916V132.241H207.347V131.971C207.347 131.211 207.499 130.527 207.803 129.919C208.107 129.311 208.535 128.827 209.088 128.468C209.655 128.108 210.325 127.929 211.099 127.929C211.611 127.929 212.101 127.998 212.571 128.136C213.041 128.26 213.525 128.433 214.022 128.654L213.442 130.769C213.138 130.603 212.834 130.485 212.53 130.416C212.226 130.333 211.935 130.292 211.659 130.292C211.41 130.292 211.189 130.333 210.996 130.416C210.802 130.499 210.636 130.617 210.498 130.769C210.374 130.907 210.277 131.073 210.208 131.266C210.153 131.46 210.125 131.66 210.125 131.867V132.241H212.778V134.355H210.125V142.523H207.347ZM212.778 134.355H211.369V132.241H212.778V131.577C212.778 130.969 212.875 130.402 213.069 129.877C213.276 129.352 213.566 128.889 213.939 128.488C214.326 128.074 214.796 127.756 215.349 127.535C215.902 127.3 216.524 127.182 217.215 127.182C217.74 127.182 218.231 127.238 218.687 127.348C219.157 127.459 219.599 127.618 220.014 127.825C220.442 128.032 220.85 128.267 221.237 128.53L220.117 130.603C219.772 130.285 219.357 130.029 218.873 129.836C218.39 129.642 217.899 129.546 217.402 129.546C216.987 129.546 216.641 129.635 216.365 129.815C216.102 129.995 215.902 130.23 215.764 130.52C215.626 130.81 215.556 131.128 215.556 131.474V132.241H221.403V142.523H218.625V134.355H215.556V142.523H212.778V134.355ZM228.971 142.731C228.086 142.731 227.291 142.586 226.587 142.295C225.882 141.991 225.281 141.577 224.783 141.051C224.285 140.512 223.898 139.904 223.622 139.227C223.359 138.55 223.228 137.838 223.228 137.092C223.228 136.069 223.456 135.136 223.912 134.293C224.382 133.436 225.046 132.752 225.902 132.241C226.759 131.729 227.775 131.474 228.95 131.474C230.125 131.474 231.134 131.729 231.977 132.241C232.82 132.752 233.449 133.422 233.863 134.252L231.147 135.081C230.912 134.68 230.602 134.376 230.215 134.169C229.828 133.948 229.399 133.837 228.929 133.837C228.404 133.837 227.92 133.975 227.478 134.252C227.05 134.514 226.711 134.894 226.462 135.392C226.213 135.876 226.089 136.442 226.089 137.092C226.089 137.728 226.213 138.294 226.462 138.792C226.725 139.275 227.07 139.662 227.499 139.953C227.927 140.229 228.404 140.367 228.929 140.367C229.261 140.367 229.572 140.312 229.862 140.201C230.166 140.091 230.436 139.939 230.671 139.745C230.906 139.552 231.078 139.331 231.189 139.082L233.905 139.911C233.656 140.45 233.29 140.934 232.806 141.362C232.336 141.791 231.776 142.129 231.127 142.378C230.491 142.613 229.772 142.731 228.971 142.731ZM240.55 142.731C239.68 142.731 238.892 142.586 238.187 142.295C237.482 141.991 236.881 141.584 236.384 141.072C235.886 140.547 235.499 139.953 235.223 139.289C234.96 138.612 234.829 137.9 234.829 137.154C234.829 136.117 235.057 135.171 235.513 134.314C235.983 133.457 236.646 132.773 237.503 132.261C238.374 131.736 239.396 131.474 240.571 131.474C241.76 131.474 242.776 131.736 243.619 132.261C244.462 132.773 245.104 133.457 245.547 134.314C246.003 135.157 246.231 136.069 246.231 137.05C246.231 137.216 246.224 137.389 246.21 137.569C246.196 137.734 246.182 137.873 246.169 137.983H237.773C237.828 138.536 237.987 139.02 238.249 139.434C238.526 139.849 238.871 140.167 239.286 140.388C239.714 140.595 240.17 140.699 240.654 140.699C241.207 140.699 241.725 140.568 242.209 140.305C242.707 140.029 243.045 139.669 243.225 139.227L245.609 139.89C245.346 140.443 244.966 140.934 244.469 141.362C243.985 141.791 243.411 142.129 242.748 142.378C242.085 142.613 241.352 142.731 240.55 142.731ZM237.71 136.221H243.391C243.335 135.668 243.176 135.191 242.914 134.791C242.665 134.376 242.333 134.058 241.919 133.837C241.504 133.602 241.041 133.485 240.53 133.485C240.032 133.485 239.576 133.602 239.161 133.837C238.761 134.058 238.429 134.376 238.166 134.791C237.918 135.191 237.766 135.668 237.71 136.221ZM31.811 166.523V151.804H38.3206C38.9978 151.804 39.6197 151.942 40.1864 152.219C40.7668 152.495 41.2644 152.868 41.679 153.338C42.1075 153.808 42.4322 154.333 42.6534 154.914C42.8883 155.494 43.0058 156.089 43.0058 156.697C43.0058 157.319 42.8952 157.92 42.6741 158.5C42.4668 159.067 42.1627 159.565 41.7619 159.993C41.3611 160.421 40.8912 160.753 40.3522 160.988L43.7107 166.523H40.5595L37.5328 161.589H34.6719V166.523H31.811ZM34.6719 159.081H38.2584C38.6177 159.081 38.9356 158.977 39.212 158.77C39.4884 158.549 39.7095 158.258 39.8754 157.899C40.0412 157.54 40.1242 157.139 40.1242 156.697C40.1242 156.227 40.0274 155.819 39.8339 155.474C39.6404 155.114 39.3917 154.831 39.0876 154.624C38.7974 154.416 38.4795 154.313 38.134 154.313H34.6719V159.081ZM50.0018 166.731C49.1311 166.731 48.3433 166.586 47.6384 166.295C46.9336 165.991 46.3323 165.584 45.8348 165.072C45.3372 164.547 44.9503 163.953 44.6739 163.289C44.4113 162.612 44.28 161.9 44.28 161.154C44.28 160.117 44.508 159.171 44.9641 158.314C45.434 157.457 46.0974 156.773 46.9543 156.261C47.825 155.736 48.8477 155.474 50.0225 155.474C51.2111 155.474 52.2269 155.736 53.07 156.261C53.913 156.773 54.5557 157.457 54.998 158.314C55.4541 159.157 55.6821 160.069 55.6821 161.05C55.6821 161.216 55.6752 161.389 55.6614 161.569C55.6476 161.734 55.6337 161.873 55.6199 161.983H47.2238C47.2791 162.536 47.438 163.02 47.7006 163.434C47.977 163.849 48.3225 164.167 48.7372 164.388C49.1656 164.595 49.6217 164.699 50.1054 164.699C50.6583 164.699 51.1765 164.568 51.6603 164.305C52.1578 164.029 52.4964 163.669 52.6761 163.227L55.0602 163.89C54.7976 164.443 54.4175 164.934 53.92 165.362C53.4362 165.791 52.8627 166.129 52.1993 166.378C51.5359 166.613 50.8034 166.731 50.0018 166.731ZM47.1616 160.221H52.8419C52.7867 159.668 52.6277 159.191 52.3651 158.791C52.1163 158.376 51.7846 158.058 51.37 157.837C50.9554 157.602 50.4924 157.485 49.981 157.485C49.4835 157.485 49.0274 157.602 48.6128 157.837C48.212 158.058 47.8803 158.376 47.6177 158.791C47.3689 159.191 47.2169 159.668 47.1616 160.221ZM56.6281 163.31C56.6281 162.605 56.8216 161.99 57.2086 161.465C57.6094 160.926 58.1622 160.511 58.8671 160.221C59.572 159.931 60.3805 159.786 61.2926 159.786C61.7487 159.786 62.2117 159.82 62.6816 159.889C63.1515 159.958 63.5593 160.069 63.9048 160.221V159.641C63.9048 158.95 63.6975 158.417 63.2828 158.044C62.882 157.671 62.2808 157.485 61.4792 157.485C60.8849 157.485 60.3183 157.588 59.7793 157.795C59.2403 158.003 58.6736 158.307 58.0793 158.708L57.1879 156.883C57.9066 156.413 58.6391 156.061 59.3854 155.826C60.1455 155.591 60.9402 155.474 61.7695 155.474C63.3174 155.474 64.5198 155.861 65.3767 156.635C66.2474 157.409 66.6828 158.514 66.6828 159.952V163.414C66.6828 163.704 66.7311 163.911 66.8279 164.036C66.9384 164.16 67.1112 164.236 67.3462 164.264V166.523C67.0974 166.565 66.8693 166.599 66.662 166.627C66.4685 166.655 66.3027 166.668 66.1645 166.668C65.6116 166.668 65.1901 166.544 64.8999 166.295C64.6235 166.046 64.4507 165.742 64.3816 165.383L64.3194 164.823C63.8495 165.431 63.2621 165.901 62.5572 166.233C61.8524 166.565 61.1337 166.731 60.4012 166.731C59.6825 166.731 59.0329 166.586 58.4525 166.295C57.8858 165.991 57.4366 165.584 57.1049 165.072C56.7871 164.547 56.6281 163.96 56.6281 163.31ZM63.3865 163.87C63.5385 163.704 63.6629 163.538 63.7597 163.372C63.8564 163.206 63.9048 163.054 63.9048 162.916V161.817C63.5731 161.679 63.2137 161.575 62.8268 161.506C62.4398 161.423 62.0735 161.382 61.728 161.382C61.0093 161.382 60.415 161.541 59.9451 161.859C59.489 162.163 59.261 162.571 59.261 163.082C59.261 163.358 59.337 163.621 59.489 163.87C59.6411 164.118 59.8622 164.319 60.1524 164.471C60.4427 164.623 60.7882 164.699 61.189 164.699C61.6036 164.699 62.0113 164.623 62.4121 164.471C62.8129 164.305 63.1377 164.105 63.3865 163.87ZM68.6153 161.092C68.6153 160.041 68.8226 159.095 69.2372 158.252C69.6518 157.395 70.2254 156.717 70.9579 156.22C71.6904 155.722 72.5266 155.474 73.4664 155.474C74.268 155.474 74.9867 155.674 75.6224 156.075C76.272 156.462 76.7765 156.959 77.1358 157.567V151.39H79.9138V163.414C79.9138 163.704 79.9622 163.911 80.0589 164.036C80.1556 164.16 80.3215 164.236 80.5564 164.264V166.523C80.0727 166.62 79.6788 166.668 79.3748 166.668C78.8772 166.668 78.4626 166.544 78.1309 166.295C77.813 166.046 77.6334 165.722 77.5919 165.321L77.5504 164.637C77.1496 165.314 76.6037 165.832 75.9127 166.192C75.2354 166.551 74.5237 166.731 73.7774 166.731C73.031 166.731 72.34 166.586 71.7042 166.295C71.0823 166.005 70.5364 165.604 70.0665 165.093C69.6104 164.581 69.251 163.987 68.9884 163.31C68.7397 162.619 68.6153 161.88 68.6153 161.092ZM77.1358 162.543V159.952C76.9976 159.551 76.7765 159.191 76.4724 158.874C76.1683 158.556 75.8297 158.307 75.4566 158.127C75.0834 157.934 74.7103 157.837 74.3371 157.837C73.9087 157.837 73.5217 157.927 73.1761 158.106C72.8306 158.286 72.5266 158.528 72.264 158.832C72.0152 159.136 71.8217 159.489 71.6835 159.889C71.5591 160.29 71.4969 160.712 71.4969 161.154C71.4969 161.596 71.566 162.018 71.7042 162.419C71.8563 162.806 72.0705 163.144 72.3469 163.434C72.6233 163.725 72.9412 163.953 73.3005 164.118C73.6737 164.284 74.0745 164.367 74.5029 164.367C74.7655 164.367 75.0281 164.326 75.2907 164.243C75.5671 164.146 75.8228 164.022 76.0578 163.87C76.3066 163.704 76.5208 163.51 76.7004 163.289C76.8939 163.054 77.0391 162.806 77.1358 162.543ZM82.8281 168.638C83.0769 168.693 83.305 168.742 83.5123 168.783C83.7334 168.824 83.92 168.845 84.072 168.845C84.3346 168.845 84.5488 168.776 84.7147 168.638C84.8943 168.514 85.0671 168.279 85.233 167.933C85.3988 167.601 85.5716 167.131 85.7512 166.523L81.4599 155.66H84.3415L87.2646 163.683L89.8353 155.66H92.4889L87.928 168.679C87.7622 169.163 87.5065 169.598 87.161 169.985C86.8293 170.386 86.4077 170.697 85.8964 170.918C85.3988 171.153 84.8391 171.271 84.2171 171.271C83.996 171.271 83.7749 171.25 83.5537 171.209C83.3326 171.181 83.0907 171.126 82.8281 171.043V168.638ZM109.123 154.313H104.417V166.523H101.576V154.313H96.8704V151.804H109.123V154.313ZM113.652 166.731C112.768 166.731 111.973 166.586 111.268 166.295C110.564 165.991 109.962 165.577 109.465 165.051C108.981 164.526 108.608 163.925 108.345 163.248C108.083 162.571 107.951 161.859 107.951 161.112C107.951 160.352 108.083 159.634 108.345 158.956C108.608 158.279 108.981 157.678 109.465 157.153C109.962 156.628 110.564 156.22 111.268 155.93C111.973 155.626 112.768 155.474 113.652 155.474C114.537 155.474 115.325 155.626 116.016 155.93C116.721 156.22 117.322 156.628 117.819 157.153C118.317 157.678 118.69 158.279 118.939 158.956C119.202 159.634 119.333 160.352 119.333 161.112C119.333 161.859 119.202 162.571 118.939 163.248C118.69 163.925 118.317 164.526 117.819 165.051C117.336 165.577 116.741 165.991 116.037 166.295C115.332 166.586 114.537 166.731 113.652 166.731ZM110.812 161.112C110.812 161.748 110.937 162.315 111.185 162.812C111.434 163.296 111.773 163.676 112.201 163.953C112.63 164.229 113.113 164.367 113.652 164.367C114.178 164.367 114.654 164.229 115.083 163.953C115.511 163.662 115.85 163.275 116.099 162.792C116.361 162.294 116.493 161.728 116.493 161.092C116.493 160.47 116.361 159.91 116.099 159.413C115.85 158.915 115.511 158.528 115.083 158.252C114.654 157.975 114.178 157.837 113.652 157.837C113.113 157.837 112.63 157.982 112.201 158.272C111.773 158.549 111.434 158.936 111.185 159.433C110.937 159.917 110.812 160.477 110.812 161.112ZM130.767 151.846H133.42L135.099 156.717L136.799 151.846H139.432L136.903 158.542L138.769 163.227L142.936 151.804H146.045L140.158 166.523H137.691L135.099 160.345L132.529 166.523H130.062L124.195 151.804H127.263L131.451 163.227L133.275 158.542L130.767 151.846ZM150.843 166.731C149.959 166.731 149.164 166.586 148.459 166.295C147.754 165.991 147.153 165.577 146.655 165.051C146.172 164.526 145.799 163.925 145.536 163.248C145.273 162.571 145.142 161.859 145.142 161.112C145.142 160.352 145.273 159.634 145.536 158.956C145.799 158.279 146.172 157.678 146.655 157.153C147.153 156.628 147.754 156.22 148.459 155.93C149.164 155.626 149.959 155.474 150.843 155.474C151.728 155.474 152.515 155.626 153.206 155.93C153.911 156.22 154.513 156.628 155.01 157.153C155.508 157.678 155.881 158.279 156.13 158.956C156.392 159.634 156.523 160.352 156.523 161.112C156.523 161.859 156.392 162.571 156.13 163.248C155.881 163.925 155.508 164.526 155.01 165.051C154.526 165.577 153.932 165.991 153.227 166.295C152.522 166.586 151.728 166.731 150.843 166.731ZM148.003 161.112C148.003 161.748 148.127 162.315 148.376 162.812C148.625 163.296 148.963 163.676 149.392 163.953C149.82 164.229 150.304 164.367 150.843 164.367C151.368 164.367 151.845 164.229 152.274 163.953C152.702 163.662 153.041 163.275 153.289 162.792C153.552 162.294 153.683 161.728 153.683 161.092C153.683 160.47 153.552 159.91 153.289 159.413C153.041 158.915 152.702 158.528 152.274 158.252C151.845 157.975 151.368 157.837 150.843 157.837C150.304 157.837 149.82 157.982 149.392 158.272C148.963 158.549 148.625 158.936 148.376 159.433C148.127 159.917 148.003 160.477 148.003 161.112ZM164.867 158.065C164.024 158.065 163.27 158.231 162.607 158.563C161.944 158.88 161.467 159.343 161.176 159.952V166.523H158.398V155.66H160.948V157.982C161.335 157.236 161.826 156.648 162.42 156.22C163.015 155.791 163.643 155.557 164.307 155.515C164.459 155.515 164.576 155.515 164.659 155.515C164.742 155.515 164.811 155.522 164.867 155.536V158.065ZM173.837 166.523L170.666 161.838L169.194 163.289V166.523H166.416V151.39H169.194V160.553L173.568 155.681H176.512L172.469 160.283L176.802 166.523H173.837Z" fill="white"/>
<path fill-rule="evenodd" clip-rule="evenodd" d="M39.2463 33.5854C40.2588 32.5729 41.632 32.0042 43.0638 32.0042H61.0596C62.4915 32.0042 63.8647 32.5729 64.8771 33.5854C65.8896 34.5979 66.4584 35.9711 66.4584 37.4029V64.3966H68.258C69.2519 64.3966 70.0576 65.2023 70.0576 66.1962C70.0576 67.1901 69.2519 67.9958 68.258 67.9958H35.8655C34.8716 67.9958 34.0659 67.1901 34.0659 66.1962C34.0659 65.2023 34.8716 64.3966 35.8655 64.3966H37.6651V37.4029C37.6651 35.9711 38.2339 34.5979 39.2463 33.5854ZM41.2642 64.3966H46.663V57.1983C46.663 56.2437 47.0422 55.3283 47.7172 54.6533C48.3921 53.9783 49.3076 53.5991 50.2622 53.5991H53.8613C54.8159 53.5991 55.7313 53.9783 56.4063 54.6533C57.0813 55.3283 57.4605 56.2437 57.4605 57.1983V64.3966H62.8592V37.4029C62.8592 36.9256 62.6696 36.4679 62.3321 36.1304C61.9947 35.7929 61.5369 35.6033 61.0596 35.6033H43.0638C42.5865 35.6033 42.1288 35.7929 41.7913 36.1304C41.4538 36.4679 41.2642 36.9256 41.2642 37.4029V64.3966ZM53.8613 64.3966V57.1983H50.2622V64.3966H53.8613ZM44.8634 41.0021C44.8634 40.0082 45.6691 39.2025 46.663 39.2025H48.4626C49.4565 39.2025 50.2622 40.0082 50.2622 41.0021C50.2622 41.9959 49.4565 42.8016 48.4626 42.8016H46.663C45.6691 42.8016 44.8634 41.9959 44.8634 41.0021ZM53.8613 41.0021C53.8613 40.0082 54.667 39.2025 55.6609 39.2025H57.4605C58.4544 39.2025 59.2601 40.0082 59.2601 41.0021C59.2601 41.9959 58.4544 42.8016 57.4605 42.8016H55.6609C54.667 42.8016 53.8613 41.9959 53.8613 41.0021ZM44.8634 48.2004C44.8634 47.2065 45.6691 46.4008 46.663 46.4008H48.4626C49.4565 46.4008 50.2622 47.2065 50.2622 48.2004C50.2622 49.1943 49.4565 50 48.4626 50H46.663C45.6691 50 44.8634 49.1943 44.8634 48.2004ZM53.8613 48.2004C53.8613 47.2065 54.667 46.4008 55.6609 46.4008H57.4605C58.4544 46.4008 59.2601 47.2065 59.2601 48.2004C59.2601 49.1943 58.4544 50 57.4605 50H55.6609C54.667 50 53.8613 49.1943 53.8613 48.2004Z" fill="white"/>
<path d="M280.451 101.428C274.453 101.428 269.217 100.714 264.742 99.2859C260.267 97.7626 256.506 95.7632 253.459 93.2877C250.413 90.8122 248.08 88.0988 246.461 85.1473C244.938 82.1958 244.129 79.149 244.034 76.0071C244.034 75.1502 244.319 74.4838 244.89 74.0077C245.462 73.5317 246.176 73.2936 247.033 73.2936H254.031C254.887 73.2936 255.649 73.4841 256.316 73.8649C256.982 74.2457 257.553 75.055 258.029 76.2927C258.982 79.7203 260.6 82.3862 262.885 84.2904C265.265 86.1946 267.979 87.5275 271.026 88.2892C274.167 88.9557 277.309 89.2889 280.451 89.2889C287.021 89.2889 292.353 87.7179 296.447 84.576C300.541 81.4341 302.588 76.8164 302.588 70.723C302.588 64.5343 300.731 60.1071 297.018 57.4412C293.305 54.7753 288.163 53.4424 281.594 53.4424H268.026C267.074 53.4424 266.265 53.1567 265.599 52.5855C265.027 52.0142 264.742 51.2049 264.742 50.1576V46.3016C264.742 45.4447 264.885 44.7307 265.17 44.1594C265.551 43.4929 265.932 42.9217 266.313 42.4456L294.019 12.1689H251.888C250.936 12.1689 250.127 11.8833 249.461 11.312C248.889 10.7407 248.604 9.93146 248.604 8.88415V3.45718C248.604 2.40988 248.889 1.6006 249.461 1.02934C250.127 0.362866 250.936 0.0296303 251.888 0.0296303H308.871C309.919 0.0296303 310.728 0.362866 311.299 1.02934C311.966 1.6006 312.299 2.40988 312.299 3.45718V8.59852C312.299 9.26499 312.109 9.88386 311.728 10.4551C311.442 10.9312 311.109 11.4072 310.728 11.8833L283.165 42.5884L285.45 42.7313C291.734 42.9217 297.208 44.0642 301.874 46.1588C306.634 48.2534 310.3 51.3954 312.87 55.5846C315.536 59.6786 316.869 64.8676 316.869 71.1514C316.869 77.5305 315.298 83.005 312.156 87.5751C309.014 92.05 304.682 95.4775 299.16 97.8578C293.638 100.238 287.402 101.428 280.451 101.428Z" fill="white"/>
</svg>
