<svg width="356" height="193" viewBox="0 0 356 193" fill="none" xmlns="http://www.w3.org/2000/svg">
<mask id="path-1-inside-1_0_1" fill="white">
<path d="M0.0214844 19.2759C0.0214844 14.5053 3.88885 10.6379 8.65948 10.6379H346.405C351.176 10.6379 355.043 14.5053 355.043 19.2759V184.262C355.043 189.032 351.176 192.9 346.405 192.9H8.65948C3.88885 192.9 0.0214844 189.032 0.0214844 184.262V19.2759Z"/>
</mask>
<path d="M0.0214844 19.2759C0.0214844 14.5053 3.88885 10.6379 8.65948 10.6379H346.405C351.176 10.6379 355.043 14.5053 355.043 19.2759V184.262C355.043 189.032 351.176 192.9 346.405 192.9H8.65948C3.88885 192.9 0.0214844 189.032 0.0214844 184.262V19.2759Z" fill="#EEEDF4"/>
<path d="M0.0214844 10.6379H355.043H0.0214844ZM355.043 184.262C355.043 192.898 348.042 199.9 339.405 199.9H15.6595C7.02285 199.9 0.0214844 192.898 0.0214844 184.262C0.0214844 185.166 3.88885 185.9 8.65948 185.9H346.405C351.176 185.9 355.043 185.166 355.043 184.262ZM0.0214844 192.9V10.6379V192.9ZM355.043 10.6379V192.9V10.6379Z" fill="#3424C2" mask="url(#path-1-inside-1_0_1)"/>
<path d="M38.7685 144.627C37.8148 144.627 36.9096 144.433 36.0527 144.046C35.2096 143.66 34.4633 143.127 33.8137 142.45C33.1779 141.759 32.6804 140.958 32.3211 140.045C31.9617 139.133 31.7821 138.145 31.7821 137.081C31.7821 136.072 31.9617 135.125 32.3211 134.241C32.6804 133.342 33.1849 132.555 33.8344 131.877C34.484 131.2 35.2442 130.668 36.1149 130.281C36.9856 129.894 37.9323 129.701 38.955 129.701C40.3371 129.701 41.5188 129.998 42.5001 130.592C43.4952 131.172 44.2415 131.946 44.739 132.914L42.6037 134.489C42.2306 133.757 41.7054 133.197 41.0282 132.81C40.3648 132.423 39.6392 132.23 38.8514 132.23C38.2294 132.23 37.6628 132.361 37.1514 132.624C36.6401 132.886 36.1978 133.246 35.8246 133.702C35.4515 134.158 35.1612 134.683 34.9539 135.277C34.7604 135.872 34.6637 136.5 34.6637 137.164C34.6637 137.869 34.7673 138.518 34.9747 139.112C35.1958 139.707 35.4998 140.225 35.8868 140.667C36.2876 141.11 36.7506 141.462 37.2758 141.725C37.801 141.973 38.3815 142.098 39.0172 142.098C39.7636 142.098 40.4753 141.904 41.1525 141.517C41.8436 141.13 42.4863 140.564 43.0805 139.817V142.637C41.8505 143.964 40.4131 144.627 38.7685 144.627ZM42.8732 139.05H39.9087V136.956H45.2366V144.523H42.8732V139.05ZM47.4053 144.523V133.66H50.1832V144.523H47.4053ZM47.4053 132.147V129.39H50.1832V132.147H47.4053ZM55.6124 144.523L51.6113 133.66H54.4929L57.2294 141.994L59.9867 133.66H62.6195L58.6391 144.523H55.6124ZM68.7606 144.731C67.8899 144.731 67.1022 144.586 66.3973 144.295C65.6924 143.991 65.0912 143.584 64.5937 143.072C64.0961 142.547 63.7091 141.953 63.4327 141.289C63.1701 140.612 63.0388 139.9 63.0388 139.154C63.0388 138.117 63.2669 137.171 63.723 136.314C64.1929 135.457 64.8563 134.773 65.7132 134.261C66.5839 133.736 67.6066 133.474 68.7814 133.474C69.97 133.474 70.9858 133.736 71.8289 134.261C72.6719 134.773 73.3146 135.457 73.7569 136.314C74.2129 137.157 74.441 138.069 74.441 139.05C74.441 139.216 74.4341 139.389 74.4203 139.569C74.4064 139.734 74.3926 139.873 74.3788 139.983H65.9827C66.038 140.536 66.1969 141.02 66.4595 141.434C66.7359 141.849 67.0814 142.167 67.496 142.388C67.9245 142.595 68.3806 142.699 68.8643 142.699C69.4171 142.699 69.9354 142.568 70.4191 142.305C70.9167 142.029 71.2553 141.669 71.435 141.227L73.8191 141.89C73.5565 142.443 73.1764 142.934 72.6788 143.362C72.1951 143.791 71.6216 144.129 70.9582 144.378C70.2948 144.613 69.5623 144.731 68.7606 144.731ZM65.9205 138.221H71.6008C71.5455 137.668 71.3866 137.191 71.124 136.791C70.8752 136.376 70.5435 136.058 70.1289 135.837C69.7143 135.602 69.2513 135.485 68.7399 135.485C68.2424 135.485 67.7863 135.602 67.3717 135.837C66.9709 136.058 66.6392 136.376 66.3766 136.791C66.1278 137.191 65.9758 137.668 65.9205 138.221ZM91.6037 142.015V144.523H81.3832V129.804H91.4171V132.313H84.2441V135.858H90.4427V138.18H84.2441V142.015H91.6037ZM97.5252 144.731C96.5992 144.731 95.7146 144.579 94.8716 144.275C94.0285 143.97 93.3029 143.521 92.6948 142.927L93.6899 141.123C94.3395 141.649 94.9752 142.036 95.5972 142.284C96.2329 142.533 96.841 142.658 97.4215 142.658C97.9605 142.658 98.389 142.561 98.7068 142.367C99.0385 142.174 99.2044 141.884 99.2044 141.497C99.2044 141.234 99.1146 141.034 98.9349 140.895C98.7552 140.743 98.4926 140.612 98.1471 140.501C97.8154 140.391 97.4077 140.267 96.924 140.128C96.1224 139.866 95.452 139.61 94.913 139.361C94.374 139.112 93.9663 138.802 93.6899 138.428C93.4273 138.041 93.296 137.551 93.296 136.956C93.296 136.238 93.4757 135.623 93.835 135.111C94.2082 134.586 94.7195 134.178 95.3691 133.888C96.0325 133.598 96.8065 133.453 97.691 133.453C98.465 133.453 99.1975 133.577 99.8885 133.826C100.58 134.061 101.208 134.448 101.775 134.987L100.656 136.749C100.103 136.321 99.5776 136.01 99.08 135.816C98.5825 135.609 98.078 135.505 97.5666 135.505C97.2764 135.505 97 135.54 96.7374 135.609C96.4886 135.678 96.2813 135.795 96.1154 135.961C95.9634 136.113 95.8874 136.334 95.8874 136.625C95.8874 136.887 95.9565 137.095 96.0947 137.247C96.2467 137.385 96.4679 137.509 96.7581 137.62C97.0622 137.73 97.4284 137.855 97.8569 137.993C98.7276 138.242 99.4601 138.497 100.054 138.76C100.662 139.023 101.119 139.347 101.423 139.734C101.727 140.108 101.879 140.626 101.879 141.289C101.879 142.367 101.485 143.21 100.697 143.818C99.9093 144.427 98.852 144.731 97.5252 144.731ZM107.769 144.731C106.843 144.731 105.959 144.579 105.116 144.275C104.273 143.97 103.547 143.521 102.939 142.927L103.934 141.123C104.584 141.649 105.219 142.036 105.841 142.284C106.477 142.533 107.085 142.658 107.666 142.658C108.205 142.658 108.633 142.561 108.951 142.367C109.283 142.174 109.449 141.884 109.449 141.497C109.449 141.234 109.359 141.034 109.179 140.895C108.999 140.743 108.737 140.612 108.391 140.501C108.06 140.391 107.652 140.267 107.168 140.128C106.366 139.866 105.696 139.61 105.157 139.361C104.618 139.112 104.21 138.802 103.934 138.428C103.671 138.041 103.54 137.551 103.54 136.956C103.54 136.238 103.72 135.623 104.079 135.111C104.452 134.586 104.964 134.178 105.613 133.888C106.277 133.598 107.051 133.453 107.935 133.453C108.709 133.453 109.442 133.577 110.133 133.826C110.824 134.061 111.453 134.448 112.019 134.987L110.9 136.749C110.347 136.321 109.822 136.01 109.324 135.816C108.827 135.609 108.322 135.505 107.811 135.505C107.521 135.505 107.244 135.54 106.981 135.609C106.733 135.678 106.525 135.795 106.36 135.961C106.208 136.113 106.132 136.334 106.132 136.625C106.132 136.887 106.201 137.095 106.339 137.247C106.491 137.385 106.712 137.509 107.002 137.62C107.306 137.73 107.673 137.855 108.101 137.993C108.972 138.242 109.704 138.497 110.298 138.76C110.907 139.023 111.363 139.347 111.667 139.734C111.971 140.108 112.123 140.626 112.123 141.289C112.123 142.367 111.729 143.21 110.941 143.818C110.153 144.427 109.096 144.731 107.769 144.731ZM119.05 144.731C118.179 144.731 117.391 144.586 116.687 144.295C115.982 143.991 115.381 143.584 114.883 143.072C114.385 142.547 113.998 141.953 113.722 141.289C113.459 140.612 113.328 139.9 113.328 139.154C113.328 138.117 113.556 137.171 114.012 136.314C114.482 135.457 115.146 134.773 116.002 134.261C116.873 133.736 117.896 133.474 119.071 133.474C120.259 133.474 121.275 133.736 122.118 134.261C122.961 134.773 123.604 135.457 124.046 136.314C124.502 137.157 124.73 138.069 124.73 139.05C124.73 139.216 124.723 139.389 124.71 139.569C124.696 139.734 124.682 139.873 124.668 139.983H116.272C116.327 140.536 116.486 141.02 116.749 141.434C117.025 141.849 117.371 142.167 117.785 142.388C118.214 142.595 118.67 142.699 119.154 142.699C119.706 142.699 120.225 142.568 120.708 142.305C121.206 142.029 121.545 141.669 121.724 141.227L124.108 141.89C123.846 142.443 123.466 142.934 122.968 143.362C122.484 143.791 121.911 144.129 121.247 144.378C120.584 144.613 119.852 144.731 119.05 144.731ZM116.21 138.221H121.89C121.835 137.668 121.676 137.191 121.413 136.791C121.165 136.376 120.833 136.058 120.418 135.837C120.004 135.602 119.541 135.485 119.029 135.485C118.532 135.485 118.076 135.602 117.661 135.837C117.26 136.058 116.928 136.376 116.666 136.791C116.417 137.191 116.265 137.668 116.21 138.221ZM136.519 144.523H133.741V138.428C133.741 137.558 133.589 136.922 133.285 136.521C132.981 136.12 132.559 135.92 132.02 135.92C131.647 135.92 131.267 136.017 130.88 136.21C130.507 136.404 130.168 136.673 129.864 137.019C129.56 137.35 129.339 137.737 129.201 138.18V144.523H126.423V133.66H128.931V135.671C129.208 135.201 129.56 134.807 129.988 134.489C130.417 134.158 130.907 133.909 131.46 133.743C132.027 133.563 132.621 133.474 133.243 133.474C133.92 133.474 134.473 133.598 134.902 133.847C135.344 134.082 135.676 134.406 135.897 134.821C136.132 135.222 136.291 135.678 136.374 136.189C136.47 136.701 136.519 137.219 136.519 137.744V144.523ZM145.383 143.964C145.148 144.06 144.865 144.171 144.533 144.295C144.201 144.42 143.842 144.516 143.455 144.586C143.082 144.668 142.702 144.71 142.315 144.71C141.804 144.71 141.334 144.62 140.905 144.44C140.477 144.261 140.131 143.977 139.869 143.59C139.62 143.19 139.495 142.671 139.495 142.036V135.795H138.065V133.66H139.495V130.136H142.273V133.66H144.554V135.795H142.273V141.103C142.287 141.476 142.391 141.745 142.584 141.911C142.778 142.077 143.02 142.16 143.31 142.16C143.6 142.16 143.884 142.112 144.16 142.015C144.436 141.918 144.658 141.835 144.823 141.766L145.383 143.964ZM146.83 144.523V133.66H149.608V144.523H146.83ZM146.83 132.147V129.39H149.608V132.147H146.83ZM151.368 141.31C151.368 140.605 151.561 139.99 151.948 139.465C152.349 138.926 152.902 138.511 153.607 138.221C154.311 137.931 155.12 137.786 156.032 137.786C156.488 137.786 156.951 137.82 157.421 137.889C157.891 137.958 158.299 138.069 158.644 138.221V137.641C158.644 136.95 158.437 136.417 158.022 136.044C157.622 135.671 157.02 135.485 156.219 135.485C155.624 135.485 155.058 135.588 154.519 135.795C153.98 136.003 153.413 136.307 152.819 136.708L151.927 134.883C152.646 134.413 153.379 134.061 154.125 133.826C154.885 133.591 155.68 133.474 156.509 133.474C158.057 133.474 159.259 133.861 160.116 134.635C160.987 135.409 161.422 136.514 161.422 137.952V141.414C161.422 141.704 161.471 141.911 161.567 142.036C161.678 142.16 161.851 142.236 162.086 142.264V144.523C161.837 144.565 161.609 144.599 161.401 144.627C161.208 144.655 161.042 144.668 160.904 144.668C160.351 144.668 159.93 144.544 159.639 144.295C159.363 144.046 159.19 143.742 159.121 143.383L159.059 142.823C158.589 143.431 158.002 143.901 157.297 144.233C156.592 144.565 155.873 144.731 155.141 144.731C154.422 144.731 153.772 144.586 153.192 144.295C152.625 143.991 152.176 143.584 151.844 143.072C151.527 142.547 151.368 141.96 151.368 141.31ZM158.126 141.87C158.278 141.704 158.402 141.538 158.499 141.372C158.596 141.206 158.644 141.054 158.644 140.916V139.817C158.313 139.679 157.953 139.575 157.566 139.506C157.179 139.423 156.813 139.382 156.467 139.382C155.749 139.382 155.155 139.541 154.685 139.859C154.229 140.163 154 140.571 154 141.082C154 141.358 154.076 141.621 154.229 141.87C154.381 142.118 154.602 142.319 154.892 142.471C155.182 142.623 155.528 142.699 155.928 142.699C156.343 142.699 156.751 142.623 157.152 142.471C157.552 142.305 157.877 142.105 158.126 141.87ZM163.997 129.39H166.775V141.04C166.775 141.538 166.858 141.877 167.024 142.056C167.19 142.222 167.418 142.305 167.708 142.305C167.929 142.305 168.157 142.277 168.392 142.222C168.627 142.167 168.835 142.098 169.014 142.015L169.388 144.129C169.014 144.309 168.579 144.447 168.081 144.544C167.584 144.641 167.135 144.689 166.734 144.689C165.863 144.689 165.186 144.461 164.702 144.005C164.232 143.535 163.997 142.872 163.997 142.015V129.39ZM175.281 144.523V129.804H180.63C182.233 129.804 183.573 130.136 184.651 130.799C185.729 131.449 186.538 132.333 187.077 133.453C187.616 134.559 187.885 135.789 187.885 137.143C187.885 138.636 187.588 139.935 186.994 141.04C186.4 142.146 185.557 143.003 184.465 143.611C183.387 144.219 182.108 144.523 180.63 144.523H175.281ZM185.004 137.143C185.004 136.189 184.831 135.353 184.486 134.635C184.14 133.902 183.642 133.335 182.993 132.935C182.343 132.52 181.555 132.313 180.63 132.313H178.142V142.015H180.63C181.569 142.015 182.364 141.808 183.014 141.393C183.663 140.964 184.154 140.384 184.486 139.651C184.831 138.905 185.004 138.069 185.004 137.143ZM194.889 144.731C194.018 144.731 193.23 144.586 192.525 144.295C191.821 143.991 191.219 143.584 190.722 143.072C190.224 142.547 189.837 141.953 189.561 141.289C189.298 140.612 189.167 139.9 189.167 139.154C189.167 138.117 189.395 137.171 189.851 136.314C190.321 135.457 190.984 134.773 191.841 134.261C192.712 133.736 193.735 133.474 194.91 133.474C196.098 133.474 197.114 133.736 197.957 134.261C198.8 134.773 199.443 135.457 199.885 136.314C200.341 137.157 200.569 138.069 200.569 139.05C200.569 139.216 200.562 139.389 200.548 139.569C200.535 139.734 200.521 139.873 200.507 139.983H192.111C192.166 140.536 192.325 141.02 192.588 141.434C192.864 141.849 193.21 142.167 193.624 142.388C194.053 142.595 194.509 142.699 194.992 142.699C195.545 142.699 196.064 142.568 196.547 142.305C197.045 142.029 197.383 141.669 197.563 141.227L199.947 141.89C199.685 142.443 199.305 142.934 198.807 143.362C198.323 143.791 197.75 144.129 197.086 144.378C196.423 144.613 195.69 144.731 194.889 144.731ZM192.049 138.221H197.729C197.674 137.668 197.515 137.191 197.252 136.791C197.003 136.376 196.672 136.058 196.257 135.837C195.842 135.602 195.379 135.485 194.868 135.485C194.371 135.485 193.914 135.602 193.5 135.837C193.099 136.058 192.767 136.376 192.505 136.791C192.256 137.191 192.104 137.668 192.049 138.221ZM208.67 143.964C208.435 144.06 208.152 144.171 207.82 144.295C207.488 144.42 207.129 144.516 206.742 144.586C206.369 144.668 205.989 144.71 205.602 144.71C205.09 144.71 204.62 144.62 204.192 144.44C203.764 144.261 203.418 143.977 203.155 143.59C202.907 143.19 202.782 142.671 202.782 142.036V135.795H201.352V133.66H202.782V130.136H205.56V133.66H207.841V135.795H205.56V141.103C205.574 141.476 205.678 141.745 205.871 141.911C206.065 142.077 206.307 142.16 206.597 142.16C206.887 142.16 207.17 142.112 207.447 142.015C207.723 141.918 207.944 141.835 208.11 141.766L208.67 143.964ZM209.37 141.31C209.37 140.605 209.564 139.99 209.951 139.465C210.352 138.926 210.904 138.511 211.609 138.221C212.314 137.931 213.123 137.786 214.035 137.786C214.491 137.786 214.954 137.82 215.424 137.889C215.894 137.958 216.302 138.069 216.647 138.221V137.641C216.647 136.95 216.44 136.417 216.025 136.044C215.624 135.671 215.023 135.485 214.221 135.485C213.627 135.485 213.061 135.588 212.522 135.795C211.983 136.003 211.416 136.307 210.822 136.708L209.93 134.883C210.649 134.413 211.381 134.061 212.128 133.826C212.888 133.591 213.682 133.474 214.512 133.474C216.06 133.474 217.262 133.861 218.119 134.635C218.99 135.409 219.425 136.514 219.425 137.952V141.414C219.425 141.704 219.473 141.911 219.57 142.036C219.681 142.16 219.853 142.236 220.088 142.264V144.523C219.84 144.565 219.612 144.599 219.404 144.627C219.211 144.655 219.045 144.668 218.907 144.668C218.354 144.668 217.932 144.544 217.642 144.295C217.366 144.046 217.193 143.742 217.124 143.383L217.062 142.823C216.592 143.431 216.004 143.901 215.299 144.233C214.595 144.565 213.876 144.731 213.143 144.731C212.425 144.731 211.775 144.586 211.195 144.295C210.628 143.991 210.179 143.584 209.847 143.072C209.529 142.547 209.37 141.96 209.37 141.31ZM216.129 141.87C216.281 141.704 216.405 141.538 216.502 141.372C216.599 141.206 216.647 141.054 216.647 140.916V139.817C216.315 139.679 215.956 139.575 215.569 139.506C215.182 139.423 214.816 139.382 214.47 139.382C213.752 139.382 213.157 139.541 212.687 139.859C212.231 140.163 212.003 140.571 212.003 141.082C212.003 141.358 212.079 141.621 212.231 141.87C212.383 142.118 212.604 142.319 212.895 142.471C213.185 142.623 213.53 142.699 213.931 142.699C214.346 142.699 214.754 142.623 215.154 142.471C215.555 142.305 215.88 142.105 216.129 141.87ZM222.021 144.523V133.66H224.799V144.523H222.021ZM222.021 132.147V129.39H224.799V132.147H222.021ZM227.284 129.39H230.062V141.04C230.062 141.538 230.145 141.877 230.311 142.056C230.477 142.222 230.705 142.305 230.995 142.305C231.216 142.305 231.444 142.277 231.679 142.222C231.914 142.167 232.122 142.098 232.301 142.015L232.674 144.129C232.301 144.309 231.866 144.447 231.368 144.544C230.871 144.641 230.422 144.689 230.021 144.689C229.15 144.689 228.473 144.461 227.989 144.005C227.519 143.535 227.284 142.872 227.284 142.015V129.39ZM237.886 144.731C236.96 144.731 236.075 144.579 235.232 144.275C234.389 143.97 233.664 143.521 233.055 142.927L234.051 141.123C234.7 141.649 235.336 142.036 235.958 142.284C236.594 142.533 237.202 142.658 237.782 142.658C238.321 142.658 238.75 142.561 239.067 142.367C239.399 142.174 239.565 141.884 239.565 141.497C239.565 141.234 239.475 141.034 239.296 140.895C239.116 140.743 238.853 140.612 238.508 140.501C238.176 140.391 237.768 140.267 237.285 140.128C236.483 139.866 235.813 139.61 235.274 139.361C234.735 139.112 234.327 138.802 234.051 138.428C233.788 138.041 233.657 137.551 233.657 136.956C233.657 136.238 233.836 135.623 234.196 135.111C234.569 134.586 235.08 134.178 235.73 133.888C236.393 133.598 237.167 133.453 238.052 133.453C238.826 133.453 239.558 133.577 240.249 133.826C240.94 134.061 241.569 134.448 242.136 134.987L241.016 136.749C240.463 136.321 239.938 136.01 239.441 135.816C238.943 135.609 238.439 135.505 237.927 135.505C237.637 135.505 237.361 135.54 237.098 135.609C236.849 135.678 236.642 135.795 236.476 135.961C236.324 136.113 236.248 136.334 236.248 136.625C236.248 136.887 236.317 137.095 236.455 137.247C236.607 137.385 236.829 137.509 237.119 137.62C237.423 137.73 237.789 137.855 238.217 137.993C239.088 138.242 239.821 138.497 240.415 138.76C241.023 139.023 241.479 139.347 241.783 139.734C242.087 140.108 242.239 140.626 242.239 141.289C242.239 142.367 241.845 143.21 241.058 143.818C240.27 144.427 239.213 144.731 237.886 144.731ZM258.956 144.523L252.032 137.184C251.452 136.563 250.982 136.03 250.623 135.588C250.277 135.132 250.028 134.717 249.876 134.344C249.724 133.971 249.648 133.57 249.648 133.142C249.648 132.437 249.821 131.822 250.166 131.297C250.526 130.758 251.01 130.343 251.618 130.053C252.24 129.763 252.931 129.618 253.691 129.618C254.382 129.618 255.018 129.742 255.598 129.991C256.192 130.226 256.676 130.585 257.049 131.069C257.422 131.553 257.609 132.154 257.609 132.872C257.609 133.522 257.443 134.109 257.111 134.635C256.794 135.16 256.365 135.643 255.826 136.086C255.287 136.528 254.679 136.956 254.002 137.371C253.504 137.689 253.048 138 252.633 138.304C252.233 138.608 251.915 138.933 251.68 139.278C251.459 139.61 251.348 139.976 251.348 140.377C251.348 140.764 251.459 141.123 251.68 141.455C251.901 141.787 252.205 142.056 252.592 142.264C252.993 142.457 253.435 142.554 253.919 142.554C254.513 142.554 255.087 142.409 255.639 142.118C256.206 141.828 256.711 141.421 257.153 140.895C257.595 140.356 257.941 139.714 258.189 138.967C258.452 138.221 258.583 137.385 258.583 136.459H260.843C260.843 137.772 260.643 138.94 260.242 139.962C259.841 140.971 259.302 141.835 258.625 142.554C257.948 143.259 257.18 143.798 256.324 144.171C255.467 144.544 254.575 144.731 253.649 144.731C252.64 144.731 251.763 144.53 251.016 144.129C250.27 143.715 249.69 143.176 249.275 142.512C248.874 141.849 248.674 141.13 248.674 140.356C248.674 139.582 248.853 138.905 249.213 138.325C249.572 137.744 250.028 137.233 250.581 136.791C251.134 136.334 251.687 135.934 252.24 135.588C252.848 135.201 253.359 134.876 253.774 134.614C254.188 134.337 254.506 134.068 254.727 133.805C254.948 133.529 255.059 133.232 255.059 132.914C255.059 132.541 254.928 132.244 254.665 132.022C254.416 131.787 254.092 131.67 253.691 131.67C253.387 131.67 253.117 131.732 252.882 131.857C252.661 131.981 252.488 132.147 252.364 132.354C252.24 132.561 252.177 132.796 252.177 133.059C252.177 133.252 252.233 133.446 252.343 133.639C252.468 133.833 252.675 134.089 252.965 134.406C253.269 134.711 253.684 135.146 254.209 135.713L262.605 144.523H258.956ZM32.6528 168.523V153.804H38.0014C39.6046 153.804 40.9452 154.136 42.0233 154.799C43.1013 155.449 43.9098 156.333 44.4488 157.453C44.9878 158.559 45.2573 159.789 45.2573 161.143C45.2573 162.636 44.9602 163.935 44.3659 165.04C43.7716 166.146 42.9285 167.003 41.8367 167.611C40.7587 168.219 39.4802 168.523 38.0014 168.523H32.6528ZM42.3757 161.143C42.3757 160.189 42.2029 159.353 41.8574 158.635C41.5119 157.902 41.0143 157.335 40.3648 156.935C39.7152 156.52 38.9274 156.313 38.0014 156.313H35.5137V166.015H38.0014C38.9412 166.015 39.7359 165.808 40.3855 165.393C41.0351 164.964 41.5257 164.384 41.8574 163.651C42.2029 162.905 42.3757 162.069 42.3757 161.143ZM52.24 168.731C51.3555 168.731 50.5608 168.586 49.8559 168.295C49.1511 167.991 48.5499 167.577 48.0523 167.051C47.5686 166.526 47.1954 165.925 46.9328 165.248C46.6702 164.571 46.5389 163.859 46.5389 163.112C46.5389 162.352 46.6702 161.634 46.9328 160.956C47.1954 160.279 47.5686 159.678 48.0523 159.153C48.5499 158.628 49.1511 158.22 49.8559 157.93C50.5608 157.626 51.3555 157.474 52.24 157.474C53.1245 157.474 53.9123 157.626 54.6034 157.93C55.3082 158.22 55.9094 158.628 56.407 159.153C56.9045 159.678 57.2777 160.279 57.5265 160.956C57.789 161.634 57.9203 162.352 57.9203 163.112C57.9203 163.859 57.789 164.571 57.5265 165.248C57.2777 165.925 56.9045 166.526 56.407 167.051C55.9232 167.577 55.3289 167.991 54.6241 168.295C53.9192 168.586 53.1245 168.731 52.24 168.731ZM49.3998 163.112C49.3998 163.748 49.5242 164.315 49.773 164.812C50.0218 165.296 50.3604 165.676 50.7888 165.953C51.2173 166.229 51.701 166.367 52.24 166.367C52.7652 166.367 53.242 166.229 53.6705 165.953C54.0989 165.662 54.4375 165.275 54.6863 164.792C54.9489 164.294 55.0802 163.728 55.0802 163.092C55.0802 162.47 54.9489 161.91 54.6863 161.413C54.4375 160.915 54.0989 160.528 53.6705 160.252C53.242 159.975 52.7652 159.837 52.24 159.837C51.701 159.837 51.2173 159.982 50.7888 160.272C50.3604 160.549 50.0218 160.936 49.773 161.433C49.5242 161.917 49.3998 162.477 49.3998 163.112ZM64.8538 168.731C63.9693 168.731 63.1746 168.586 62.4697 168.295C61.7648 167.991 61.1636 167.577 60.6661 167.051C60.1685 166.512 59.7816 165.904 59.5051 165.227C59.2426 164.55 59.1113 163.838 59.1113 163.092C59.1113 162.069 59.3393 161.136 59.7954 160.293C60.2653 159.436 60.9287 158.752 61.7856 158.241C62.6425 157.729 63.6583 157.474 64.8331 157.474C66.0078 157.474 67.0167 157.729 67.8598 158.241C68.7029 158.752 69.3317 159.422 69.7464 160.252L67.0306 161.081C66.7956 160.68 66.4846 160.376 66.0977 160.169C65.7107 159.948 65.2822 159.837 64.8123 159.837C64.2871 159.837 63.8034 159.975 63.3611 160.252C62.9327 160.514 62.5941 160.894 62.3453 161.392C62.0965 161.876 61.9722 162.442 61.9722 163.092C61.9722 163.728 62.0965 164.294 62.3453 164.792C62.6079 165.275 62.9534 165.662 63.3819 165.953C63.8103 166.229 64.2871 166.367 64.8123 166.367C65.144 166.367 65.455 166.312 65.7452 166.201C66.0493 166.091 66.3188 165.939 66.5537 165.745C66.7887 165.552 66.9615 165.331 67.072 165.082L69.7878 165.911C69.539 166.45 69.1728 166.934 68.6891 167.362C68.2192 167.791 67.6594 168.129 67.0098 168.378C66.3741 168.613 65.6554 168.731 64.8538 168.731ZM71.3935 164.46V157.66H74.1715V163.859C74.1715 164.688 74.3235 165.317 74.6276 165.745C74.9316 166.16 75.3808 166.367 75.9751 166.367C76.3344 166.367 76.6869 166.298 77.0324 166.16C77.3917 166.008 77.7165 165.787 78.0068 165.497C78.3108 165.206 78.5665 164.84 78.7738 164.398V157.66H81.5518V165.414C81.5518 165.704 81.6002 165.911 81.6969 166.036C81.8075 166.16 81.9802 166.236 82.2152 166.264V168.523C81.9388 168.565 81.7038 168.592 81.5103 168.606C81.3307 168.634 81.1648 168.648 81.0128 168.648C80.5152 168.648 80.1075 168.537 79.7896 168.316C79.4856 168.081 79.3059 167.763 79.2506 167.362L79.1884 166.492C78.7047 167.224 78.0828 167.784 77.3226 168.171C76.5625 168.544 75.7263 168.731 74.8142 168.731C73.6947 168.731 72.8447 168.371 72.2642 167.653C71.6837 166.92 71.3935 165.856 71.3935 164.46ZM101.188 168.523H98.4096V162.428C98.4096 161.571 98.2576 160.943 97.9536 160.542C97.6633 160.127 97.2556 159.92 96.7304 159.92C96.1914 159.92 95.6731 160.134 95.1756 160.563C94.6918 160.977 94.3463 161.523 94.139 162.2V168.523H91.361V162.428C91.361 161.558 91.209 160.922 90.905 160.521C90.6147 160.12 90.207 159.92 89.6818 159.92C89.1428 159.92 88.6245 160.127 88.127 160.542C87.6432 160.956 87.2977 161.502 87.0904 162.18V168.523H84.3124V157.66H86.8209V159.671C87.2355 158.966 87.7884 158.427 88.4794 158.054C89.1704 157.667 89.9651 157.474 90.8635 157.474C91.7618 157.474 92.4598 157.695 92.9573 158.137C93.4687 158.579 93.7935 159.125 93.9317 159.775C94.374 159.028 94.9337 158.462 95.6109 158.075C96.302 157.674 97.0759 157.474 97.9328 157.474C98.61 157.474 99.156 157.598 99.5706 157.847C99.999 158.082 100.331 158.406 100.566 158.821C100.801 159.222 100.96 159.678 101.042 160.189C101.139 160.701 101.188 161.219 101.188 161.744V168.523ZM108.644 168.731C107.773 168.731 106.985 168.586 106.281 168.295C105.576 167.991 104.974 167.584 104.477 167.072C103.979 166.547 103.592 165.953 103.316 165.289C103.053 164.612 102.922 163.9 102.922 163.154C102.922 162.117 103.15 161.171 103.606 160.314C104.076 159.457 104.74 158.773 105.596 158.261C106.467 157.736 107.49 157.474 108.665 157.474C109.853 157.474 110.869 157.736 111.712 158.261C112.555 158.773 113.198 159.457 113.64 160.314C114.096 161.157 114.324 162.069 114.324 163.05C114.324 163.216 114.317 163.389 114.303 163.569C114.29 163.734 114.276 163.873 114.262 163.983H105.866C105.921 164.536 106.08 165.02 106.343 165.434C106.619 165.849 106.965 166.167 107.379 166.388C107.808 166.595 108.264 166.699 108.748 166.699C109.3 166.699 109.819 166.568 110.302 166.305C110.8 166.029 111.139 165.669 111.318 165.227L113.702 165.89C113.44 166.443 113.06 166.934 112.562 167.362C112.078 167.791 111.505 168.129 110.841 168.378C110.178 168.613 109.445 168.731 108.644 168.731ZM105.804 162.221H111.484C111.429 161.668 111.27 161.191 111.007 160.791C110.758 160.376 110.427 160.058 110.012 159.837C109.598 159.602 109.135 159.485 108.623 159.485C108.126 159.485 107.67 159.602 107.255 159.837C106.854 160.058 106.522 160.376 106.26 160.791C106.011 161.191 105.859 161.668 105.804 162.221ZM126.113 168.523H123.335V162.428C123.335 161.558 123.183 160.922 122.879 160.521C122.575 160.12 122.153 159.92 121.614 159.92C121.241 159.92 120.861 160.017 120.474 160.21C120.101 160.404 119.762 160.673 119.458 161.019C119.154 161.35 118.933 161.737 118.795 162.18V168.523H116.017V157.66H118.525V159.671C118.801 159.201 119.154 158.807 119.582 158.489C120.011 158.158 120.501 157.909 121.054 157.743C121.621 157.563 122.215 157.474 122.837 157.474C123.514 157.474 124.067 157.598 124.496 157.847C124.938 158.082 125.27 158.406 125.491 158.821C125.726 159.222 125.885 159.678 125.968 160.189C126.064 160.701 126.113 161.219 126.113 161.744V168.523ZM134.977 167.964C134.742 168.06 134.459 168.171 134.127 168.295C133.795 168.42 133.436 168.516 133.049 168.586C132.676 168.668 132.296 168.71 131.909 168.71C131.397 168.71 130.928 168.62 130.499 168.44C130.071 168.261 129.725 167.977 129.463 167.59C129.214 167.19 129.089 166.671 129.089 166.036V159.795H127.659V157.66H129.089V154.136H131.867V157.66H134.148V159.795H131.867V165.103C131.881 165.476 131.985 165.745 132.178 165.911C132.372 166.077 132.614 166.16 132.904 166.16C133.194 166.16 133.477 166.112 133.754 166.015C134.03 165.918 134.251 165.835 134.417 165.766L134.977 167.964ZM140.425 168.731C139.499 168.731 138.614 168.579 137.771 168.275C136.928 167.97 136.203 167.521 135.595 166.927L136.59 165.123C137.239 165.649 137.875 166.036 138.497 166.284C139.133 166.533 139.741 166.658 140.321 166.658C140.86 166.658 141.289 166.561 141.607 166.367C141.938 166.174 142.104 165.884 142.104 165.497C142.104 165.234 142.014 165.034 141.835 164.895C141.655 164.743 141.392 164.612 141.047 164.501C140.715 164.391 140.307 164.267 139.824 164.128C139.022 163.866 138.352 163.61 137.813 163.361C137.274 163.112 136.866 162.802 136.59 162.428C136.327 162.041 136.196 161.551 136.196 160.956C136.196 160.238 136.375 159.623 136.735 159.111C137.108 158.586 137.619 158.178 138.269 157.888C138.932 157.598 139.706 157.453 140.591 157.453C141.365 157.453 142.097 157.577 142.788 157.826C143.479 158.061 144.108 158.448 144.675 158.987L143.555 160.749C143.003 160.321 142.477 160.01 141.98 159.816C141.482 159.609 140.978 159.505 140.466 159.505C140.176 159.505 139.9 159.54 139.637 159.609C139.388 159.678 139.181 159.795 139.015 159.961C138.863 160.113 138.787 160.334 138.787 160.625C138.787 160.887 138.856 161.095 138.994 161.247C139.147 161.385 139.368 161.509 139.658 161.62C139.962 161.73 140.328 161.855 140.757 161.993C141.627 162.242 142.36 162.497 142.954 162.76C143.562 163.023 144.018 163.347 144.322 163.734C144.626 164.108 144.778 164.626 144.778 165.289C144.778 166.367 144.385 167.21 143.597 167.818C142.809 168.427 141.752 168.731 140.425 168.731Z" fill="#252B42"/>
<path d="M67.5491 49.3006H55.7393C54.6654 49.3006 53.6355 48.874 52.8762 48.1147C52.1168 47.3553 51.6902 46.3254 51.6902 45.2516V33.4418C51.6902 33.3523 51.6547 33.2665 51.5914 33.2032C51.5281 33.1399 51.4423 33.1044 51.3528 33.1044H43.5921C42.1603 33.1044 40.7871 33.6732 39.7746 34.6856C38.7622 35.6981 38.1934 37.0713 38.1934 38.5031V65.4969C38.1934 66.9287 38.7622 68.3019 39.7746 69.3144C40.7871 70.3268 42.1603 70.8956 43.5921 70.8956H62.4877C63.9196 70.8956 65.2928 70.3268 66.3052 69.3144C67.3177 68.3019 67.8865 66.9287 67.8865 65.4969V49.638C67.8865 49.5486 67.8509 49.4627 67.7877 49.3994C67.7244 49.3362 67.6386 49.3006 67.5491 49.3006ZM59.7884 62.7975H46.2915C45.9335 62.7975 45.5902 62.6553 45.3371 62.4022C45.084 62.1491 44.9418 61.8058 44.9418 61.4478C44.9418 61.0898 45.084 60.7465 45.3371 60.4934C45.5902 60.2403 45.9335 60.0981 46.2915 60.0981H59.7884C60.1463 60.0981 60.4896 60.2403 60.7427 60.4934C60.9958 60.7465 61.138 61.0898 61.138 61.4478C61.138 61.8058 60.9958 62.1491 60.7427 62.4022C60.4896 62.6553 60.1463 62.7975 59.7884 62.7975ZM59.7884 56.0491H46.2915C45.9335 56.0491 45.5902 55.9069 45.3371 55.6537C45.084 55.4006 44.9418 55.0573 44.9418 54.6994C44.9418 54.3414 45.084 53.9981 45.3371 53.745C45.5902 53.4919 45.9335 53.3497 46.2915 53.3497H59.7884C60.1463 53.3497 60.4896 53.4919 60.7427 53.745C60.9958 53.9981 61.138 54.3414 61.138 54.6994C61.138 55.0573 60.9958 55.4006 60.7427 55.6537C60.4896 55.9069 60.1463 56.0491 59.7884 56.0491Z" fill="#23A6F0"/>
<path d="M66.8085 46.3136L54.6773 34.1825C54.6537 34.159 54.6237 34.1431 54.5911 34.1366C54.5584 34.1302 54.5246 34.1335 54.4939 34.1462C54.4631 34.1589 54.4369 34.1805 54.4183 34.2081C54.3998 34.2357 54.3898 34.2682 54.3896 34.3014V45.2516C54.3896 45.6096 54.5318 45.9529 54.785 46.206C55.0381 46.4591 55.3814 46.6013 55.7393 46.6013H66.6895C66.7228 46.6012 66.7553 46.5912 66.7829 46.5726C66.8105 46.5541 66.832 46.5278 66.8447 46.4971C66.8574 46.4663 66.8608 46.4325 66.8543 46.3999C66.8479 46.3672 66.8319 46.3372 66.8085 46.3136Z" fill="#23A6F0"/>
<path d="M249.129 102C248.177 102 247.368 101.714 246.702 101.143C246.13 100.477 245.845 99.6674 245.845 98.7153V94.1452C245.845 93.2883 246.083 92.3362 246.559 91.2889C247.035 90.2416 247.987 89.0991 249.415 87.8613L279.692 57.5846C284.548 53.4906 288.356 50.0154 291.117 47.1591C293.973 44.2076 295.973 41.3989 297.115 38.733C298.353 36.0672 298.972 33.3061 298.972 30.4498C298.972 25.0228 297.449 20.7384 294.402 17.5964C291.355 14.3593 286.833 12.7407 280.834 12.7407C277.026 12.7407 273.741 13.55 270.98 15.1686C268.219 16.692 266.029 18.8342 264.411 21.5953C262.887 24.2611 261.888 27.3079 261.412 30.7354C261.221 31.9731 260.697 32.83 259.841 33.3061C259.079 33.7821 258.365 34.0202 257.698 34.0202H250.272C249.415 34.0202 248.701 33.7821 248.13 33.3061C247.559 32.7348 247.273 32.0683 247.273 31.3067C247.368 27.6887 248.13 24.0707 249.558 20.4527C250.986 16.7396 253.081 13.4072 255.842 10.4557C258.698 7.5042 262.173 5.12395 266.267 3.31496C270.457 1.41077 275.312 0.458671 280.834 0.458671C288.356 0.458671 294.497 1.83921 299.257 4.6003C304.113 7.26617 307.684 10.8365 309.969 15.3114C312.254 19.7863 313.396 24.6896 313.396 30.0213C313.396 34.2106 312.682 38.0666 311.254 41.5893C309.826 45.0169 307.731 48.3968 304.97 51.7292C302.304 54.9663 298.972 58.2987 294.973 61.7262L267.553 89.5751H312.111C313.158 89.5751 313.967 89.8607 314.539 90.432C315.205 91.0033 315.538 91.8125 315.538 92.8599V98.7153C315.538 99.6674 315.205 100.477 314.539 101.143C313.967 101.714 313.158 102 312.111 102H249.129Z" fill="white"/>
</svg>
