<svg width="16" height="17" viewBox="0 0 16 17" fill="none" xmlns="http://www.w3.org/2000/svg">
<g clip-path="url(#clip0_5_1336)">
<path d="M6.07812 9.61865V16.6187H9.1875V9.61865H11.5156L11.9531 6.72803H9.1875V4.85303C9.1875 4.45719 9.30469 4.09782 9.53906 3.7749C9.77344 3.45199 10.1979 3.29053 10.8125 3.29053H12.0781V0.821777C12.0781 0.821777 11.8411 0.787923 11.3672 0.720215C10.8932 0.652507 10.3854 0.618652 9.84375 0.618652C9.27083 0.618652 8.75521 0.707194 8.29688 0.884277C7.83854 1.05094 7.44531 1.29834 7.11719 1.62646C6.78906 1.95459 6.53125 2.36344 6.34375 2.85303C6.16667 3.34261 6.07812 3.8999 6.07812 4.5249V6.72803H3.5625V9.61865H6.07812Z" fill="white"/>
</g>
<defs>
<clipPath id="clip0_5_1336">
<rect width="16" height="16" fill="white" transform="matrix(1 0 0 -1 0 16.2905)"/>
</clipPath>
</defs>
</svg>
