<svg width="16" height="17" viewBox="0 0 16 17" fill="none" xmlns="http://www.w3.org/2000/svg">
<g clip-path="url(#clip0_5_1338)">
<path d="M8 0.618652C6.91667 0.618652 6.20312 0.621257 5.85938 0.626465C5.51562 0.631673 5.13021 0.649902 4.70312 0.681152C4.27604 0.691569 3.90885 0.730632 3.60156 0.79834C3.29427 0.866048 3.01562 0.946777 2.76562 1.04053C2.21354 1.24886 1.73698 1.55355 1.33594 1.95459C0.934896 2.35563 0.630208 2.82178 0.421875 3.35303V3.38428C0.307292 3.67594 0.21875 3.98324 0.15625 4.30615C0.09375 4.62907 0.0572917 4.96761 0.046875 5.32178C0.0260417 5.74886 0.0130208 6.13428 0.0078125 6.47803C0.00260417 6.82178 0 7.53532 0 8.61865C0 9.70199 0.00260417 10.4181 0.0078125 10.7671C0.0130208 11.116 0.0260417 11.5041 0.046875 11.9312C0.0677083 12.3478 0.109375 12.7098 0.171875 13.0171C0.234375 13.3244 0.317708 13.6082 0.421875 13.8687C0.619792 14.4103 0.921875 14.8843 1.32812 15.2905C1.73438 15.6968 2.20312 15.9989 2.73438 16.1968H2.76562C3.01562 16.3009 3.29427 16.3843 3.60156 16.4468C3.90885 16.5093 4.27604 16.5509 4.70312 16.5718C5.13021 16.5926 5.51562 16.6056 5.85938 16.6108C6.20312 16.616 6.91667 16.6187 8 16.6187C9.08333 16.6187 9.79688 16.6187 10.1406 16.6187C10.4844 16.6187 10.8698 16.603 11.2969 16.5718C11.651 16.5614 11.9922 16.5249 12.3203 16.4624C12.6484 16.3999 12.9688 16.3114 13.2812 16.1968H13.2344C13.7865 15.9989 14.263 15.6968 14.6641 15.2905C15.0651 14.8843 15.3698 14.4155 15.5781 13.8843V13.8687C15.6823 13.6187 15.7656 13.3374 15.8281 13.0249C15.8906 12.7124 15.9323 12.3478 15.9531 11.9312C15.974 11.5041 15.987 11.116 15.9922 10.7671C15.9974 10.4181 16 9.70199 16 8.61865C16 7.53532 15.9974 6.82178 15.9922 6.47803C15.987 6.13428 15.974 5.74886 15.9531 5.32178C15.9427 4.97803 15.9062 4.63949 15.8438 4.30615C15.7812 3.97282 15.6875 3.6499 15.5625 3.3374L15.5781 3.38428C15.3802 2.84261 15.0781 2.36865 14.6719 1.9624C14.2656 1.55615 13.7969 1.25407 13.2656 1.05615L13.2344 1.04053C12.9531 0.93636 12.6484 0.850423 12.3203 0.782715C11.9922 0.715007 11.6562 0.681152 11.3125 0.681152H11.2969C10.8698 0.649902 10.4844 0.631673 10.1406 0.626465C9.79688 0.621257 9.08333 0.618652 8 0.618652ZM8 2.05615C9.07292 2.05615 9.77344 2.06136 10.1016 2.07178C10.4297 2.08219 10.8073 2.09782 11.2344 2.11865C11.6198 2.12907 11.9271 2.16292 12.1562 2.22021C12.3854 2.27751 12.5729 2.33219 12.7188 2.38428C12.9062 2.45719 13.0729 2.54053 13.2188 2.63428C13.3646 2.72803 13.5052 2.84261 13.6406 2.97803C13.776 3.12386 13.8906 3.26709 13.9844 3.40771C14.0781 3.54834 14.1615 3.7124 14.2344 3.8999C14.2865 4.04574 14.3411 4.23324 14.3984 4.4624C14.4557 4.69157 14.4948 5.00407 14.5156 5.3999C14.5365 5.81657 14.5495 6.19157 14.5547 6.5249C14.5599 6.85824 14.5625 7.55615 14.5625 8.61865C14.5625 9.69157 14.5599 10.3947 14.5547 10.728C14.5495 11.0614 14.5365 11.4364 14.5156 11.853C14.4948 12.2384 14.4583 12.5457 14.4062 12.7749C14.3542 13.0041 14.2969 13.1916 14.2344 13.3374C14.1615 13.5249 14.0781 13.6916 13.9844 13.8374C13.8906 13.9832 13.776 14.1239 13.6406 14.2593C13.5052 14.4051 13.3646 14.5223 13.2188 14.6108C13.0729 14.6994 12.9062 14.7853 12.7188 14.8687C12.5833 14.9103 12.401 14.9624 12.1719 15.0249C11.9427 15.0874 11.6302 15.1239 11.2344 15.1343C10.8073 15.1551 10.4271 15.1681 10.0938 15.1733C9.76042 15.1785 9.0625 15.1812 8 15.1812C6.92708 15.1812 6.22656 15.1785 5.89844 15.1733C5.57031 15.1681 5.19271 15.1551 4.76562 15.1343C4.50521 15.1343 4.2474 15.1108 3.99219 15.064C3.73698 15.0171 3.48958 14.9468 3.25 14.853L3.28125 14.8687C3.10417 14.7957 2.9375 14.7098 2.78125 14.6108C2.625 14.5119 2.48438 14.3947 2.35938 14.2593C2.23438 14.1343 2.11979 13.9963 2.01562 13.8452C1.91146 13.6942 1.82812 13.5353 1.76562 13.3687V13.3374C1.71354 13.202 1.65885 13.0197 1.60156 12.7905C1.54427 12.5614 1.50521 12.2489 1.48438 11.853C1.46354 11.4364 1.45052 11.0614 1.44531 10.728C1.4401 10.3947 1.4375 9.69157 1.4375 8.61865C1.4375 7.55615 1.4401 6.85824 1.44531 6.5249C1.45052 6.19157 1.46354 5.81657 1.48438 5.3999C1.50521 5.00407 1.54167 4.69157 1.59375 4.4624C1.64583 4.23324 1.70312 4.04574 1.76562 3.8999C1.83854 3.7124 1.92188 3.54834 2.01562 3.40771C2.10938 3.26709 2.22396 3.12386 2.35938 2.97803C2.49479 2.84261 2.63542 2.72803 2.78125 2.63428C2.92708 2.54053 3.09375 2.45719 3.28125 2.38428C3.41667 2.33219 3.59896 2.27751 3.82812 2.22021C4.05729 2.16292 4.36979 2.12907 4.76562 2.11865C5.19271 2.09782 5.57292 2.08219 5.90625 2.07178C6.23958 2.06136 6.9375 2.05615 8 2.05615ZM8 11.2905C7.26042 11.2905 6.63021 11.0301 6.10938 10.5093C5.58854 9.98844 5.32812 9.35824 5.32812 8.61865C5.32812 7.88949 5.58854 7.26188 6.10938 6.73584C6.63021 6.2098 7.26042 5.94678 8 5.94678C8.73958 5.94678 9.36979 6.2098 9.89062 6.73584C10.4115 7.26188 10.6719 7.88949 10.6719 8.61865C10.6719 9.35824 10.4115 9.98844 9.89062 10.5093C9.36979 11.0301 8.73958 11.2905 8 11.2905ZM8 4.50928C7.4375 4.50928 6.90625 4.61865 6.40625 4.8374C5.90625 5.05615 5.46875 5.35042 5.09375 5.72021C4.71875 6.09001 4.42708 6.5249 4.21875 7.0249C4 7.5249 3.89062 8.05615 3.89062 8.61865C3.89062 9.19157 4 9.72803 4.21875 10.228C4.42708 10.728 4.71875 11.1629 5.09375 11.5327C5.46875 11.9025 5.90625 12.1968 6.40625 12.4155C6.90625 12.6239 7.4375 12.728 8 12.728C8.5625 12.728 9.09375 12.6239 9.59375 12.4155C10.0938 12.1968 10.5312 11.9025 10.9062 11.5327C11.2812 11.1629 11.5729 10.728 11.7812 10.228C12 9.72803 12.1094 9.19157 12.1094 8.61865C12.1094 8.05615 12 7.5249 11.7812 7.0249C11.5729 6.5249 11.2812 6.09001 10.9062 5.72021C10.5312 5.35042 10.0938 5.05615 9.59375 4.8374C9.09375 4.61865 8.5625 4.50928 8 4.50928ZM13.2344 4.35303C13.2344 4.62386 13.1406 4.85042 12.9531 5.03271C12.7656 5.21501 12.5365 5.30615 12.2656 5.30615C12.0052 5.30615 11.7812 5.21501 11.5938 5.03271C11.4062 4.85042 11.3125 4.62386 11.3125 4.35303C11.3125 4.09261 11.4062 3.86865 11.5938 3.68115C11.7812 3.49365 12.0052 3.3999 12.2656 3.3999C12.5365 3.3999 12.7656 3.49365 12.9531 3.68115C13.1406 3.86865 13.2344 4.09261 13.2344 4.35303Z" fill="white"/>
</g>
<defs>
<clipPath id="clip0_5_1338">
<rect width="16" height="16" fill="white" transform="matrix(1 0 0 -1 0 16.2905)"/>
</clipPath>
</defs>
</svg>
