<svg width="16" height="17" viewBox="0 0 16 17" fill="none" xmlns="http://www.w3.org/2000/svg">
<g clip-path="url(#clip0_5_1340)">
<path d="M3.3125 2.9624C3.3125 3.42074 3.15365 3.81136 2.83594 4.13428C2.51823 4.45719 2.13021 4.61865 1.67188 4.61865C1.21354 4.61865 0.822917 4.45719 0.5 4.13428C0.177083 3.81136 0.015625 3.42074 0.015625 2.9624C0.015625 2.50407 0.177083 2.11084 0.5 1.78271C0.822917 1.45459 1.21354 1.29053 1.67188 1.29053C2.13021 1.29053 2.51823 1.45459 2.83594 1.78271C3.15365 2.11084 3.3125 2.50407 3.3125 2.9624ZM3.32812 5.9624H0V16.6187H3.32812V5.9624ZM8.65625 5.9624H5.34375V16.6187H8.65625V11.0249C8.65625 10.2437 8.86458 9.6499 9.28125 9.24365C9.69792 8.82699 10.1589 8.61084 10.6641 8.59521C11.1693 8.57959 11.6302 8.76969 12.0469 9.16553C12.4635 9.56136 12.6719 10.1812 12.6719 11.0249V16.6187H16V9.86865C16 8.55615 15.6823 7.56657 15.0469 6.8999C14.4115 6.23324 13.6797 5.82959 12.8516 5.68896C12.0234 5.54834 11.2031 5.63428 10.3906 5.94678C9.57812 6.26969 9 6.75407 8.65625 7.3999V5.9624Z" fill="white"/>
</g>
<defs>
<clipPath id="clip0_5_1340">
<rect width="16" height="16" fill="white" transform="matrix(1 0 0 -1 0 16.2905)"/>
</clipPath>
</defs>
</svg>
