<svg width="24" height="24" viewBox="0 0 24 24" fill="none" xmlns="http://www.w3.org/2000/svg">
<path d="M13.67 22.0003H13.61C13.3899 21.987 13.1804 21.9014 13.014 21.7567C12.8476 21.612 12.7337 21.4164 12.69 21.2003L11.15 13.6303C11.1108 13.4381 11.016 13.2617 10.8773 13.123C10.7386 12.9843 10.5622 12.8895 10.37 12.8503L2.80001 11.3103C2.58348 11.2673 2.38727 11.1539 2.24197 10.9877C2.09666 10.8215 2.01044 10.6119 1.99674 10.3915C1.98304 10.1712 2.04264 9.95251 2.16623 9.76959C2.28983 9.58668 2.47048 9.4498 2.68001 9.3803L18.68 4.0503C18.8596 3.97615 19.0569 3.95592 19.2478 3.99209C19.4387 4.02826 19.615 4.11927 19.755 4.25399C19.895 4.3887 19.9928 4.56129 20.0363 4.75066C20.0798 4.94003 20.0672 5.13798 20 5.3203L14.67 21.3203C14.6004 21.5273 14.465 21.7058 14.2844 21.8286C14.1039 21.9514 13.8881 22.0117 13.67 22.0003Z" fill="#C2C2C2"/>
</svg>
