<svg width="24" height="24" viewBox="0 0 24 24" fill="none" xmlns="http://www.w3.org/2000/svg">
<path d="M7.97801 4C7.61294 3.99998 7.2521 4.07825 6.91986 4.22954C6.58761 4.38083 6.29167 4.60161 6.05201 4.877C4.23301 6.7 3.69901 8.751 4.15301 10.814C4.59301 12.809 5.93101 14.707 7.60901 16.386C9.28901 18.065 11.186 19.404 13.179 19.845C15.241 20.301 17.294 19.772 19.119 17.96C19.3956 17.7201 19.6174 17.4237 19.7694 17.0906C19.9215 16.7576 20.0002 16.3958 20.0003 16.0297C20.0004 15.6636 19.9219 15.3018 19.77 14.9687C19.6181 14.6356 19.3964 14.339 19.12 14.099L17.91 12.889C17.4058 12.385 16.722 12.1018 16.009 12.1018C15.296 12.1018 14.6123 12.385 14.108 12.889L13.491 13.507C13.4162 13.5819 13.3273 13.6413 13.2295 13.6818C13.1317 13.7223 13.0269 13.7431 12.921 13.7431C12.8151 13.7431 12.7103 13.7223 12.6125 13.6818C12.5147 13.6413 12.4259 13.5819 12.351 13.507L10.497 11.652C10.3461 11.5007 10.2613 11.2957 10.2613 11.082C10.2613 10.8683 10.3461 10.6633 10.497 10.512L11.115 9.892C11.6186 9.38732 11.9014 8.70347 11.9014 7.9905C11.9014 7.27753 11.6186 6.59368 11.115 6.089L9.90501 4.878C9.66524 4.6024 9.36917 4.38142 9.03675 4.22996C8.70433 4.07851 8.3433 4.00009 7.97801 4Z" fill="#C2C2C2"/>
</svg>
