<svg width="12" height="11" viewBox="0 0 12 11" fill="none" xmlns="http://www.w3.org/2000/svg">
<path fill-rule="evenodd" clip-rule="evenodd" d="M0 5.44824C0 5.25884 0.079009 5.07719 0.219646 4.94326C0.360282 4.80933 0.551026 4.73409 0.749916 4.73409H9.43845L6.21831 1.66892C6.07749 1.53482 5.99838 1.35295 5.99838 1.1633C5.99838 0.973656 6.07749 0.791778 6.21831 0.657678C6.35912 0.523579 6.5501 0.448242 6.74925 0.448242C6.94839 0.448242 7.13937 0.523579 7.28019 0.657678L11.7797 4.94262C11.8495 5.00896 11.9049 5.08777 11.9427 5.17453C11.9805 5.26129 12 5.35431 12 5.44824C12 5.54218 11.9805 5.63519 11.9427 5.72195C11.9049 5.80872 11.8495 5.88753 11.7797 5.95387L7.28019 10.2388C7.13937 10.3729 6.94839 10.4482 6.74925 10.4482C6.5501 10.4482 6.35912 10.3729 6.21831 10.2388C6.07749 10.1047 5.99838 9.92283 5.99838 9.73318C5.99838 9.54354 6.07749 9.36166 6.21831 9.22756L9.43845 6.1624H0.749916C0.551026 6.1624 0.360282 6.08716 0.219646 5.95323C0.079009 5.8193 0 5.63765 0 5.44824Z" fill="white"/>
</svg>
