<svg width="96" height="96" viewBox="0 0 96 96" fill="none" xmlns="http://www.w3.org/2000/svg">
<g clip-path="url(#clip0_68_2107)">
<g clip-path="url(#clip1_68_2107)">
<mask id="mask0_68_2107" style="mask-type:luminance" maskUnits="userSpaceOnUse" x="1" y="0" width="86" height="95">
<path d="M86.561 0.649596L1.25525 0.907959L1.53957 94.783L86.8453 94.5247L86.561 0.649596Z" fill="white"/>
</mask>
<g mask="url(#mask0_68_2107)">
<path fill-rule="evenodd" clip-rule="evenodd" d="M65.3283 31.7344C65.3112 26.0782 63.0479 20.6605 59.0363 16.6732C55.0247 12.6859 49.5934 10.4554 43.9373 10.4725C38.2811 10.4896 32.8634 12.753 28.8761 16.7646C24.8887 20.7761 22.6583 26.2074 22.6754 31.8635L22.7165 45.4349C22.7337 51.0911 24.9969 56.5087 29.0085 60.4961C33.0201 64.4835 38.4514 66.7139 44.1076 66.6967C49.7637 66.6796 55.1814 64.4164 59.1688 60.4048C63.1561 56.3932 65.3865 50.9619 65.3694 45.3057L65.3283 31.7344Z" fill="#EFEBEA"/>
<path fill-rule="evenodd" clip-rule="evenodd" d="M16.8492 28.5262C14.2783 28.534 11.8157 29.5628 10.0032 31.3863C8.19079 33.2098 7.17695 35.6784 7.18474 38.2494L7.18903 39.6647C7.19681 42.2357 8.22558 44.6983 10.0491 46.5108C11.8725 48.3231 14.3413 49.3369 16.9122 49.3291L16.8492 28.5262Z" stroke="black" stroke-width="3.87755" stroke-linejoin="round"/>
<path fill-rule="evenodd" clip-rule="evenodd" d="M71.1349 28.3618C72.4079 28.358 73.6693 28.605 74.8468 29.0885C76.0243 29.5721 77.0951 30.2829 77.998 31.1804C78.9009 32.0778 79.6182 33.1443 80.109 34.3189C80.5998 35.4935 80.8543 36.7533 80.8581 38.0263L80.8624 39.4416C80.8663 40.7146 80.6194 41.9759 80.1358 43.1535C79.6521 44.3312 78.9413 45.402 78.0438 46.3049C77.1464 47.2078 76.0799 47.9251 74.9053 48.4157C73.7308 48.9064 72.4709 49.1609 71.1979 49.1648L71.1349 28.3618Z" stroke="black" stroke-width="3.87755" stroke-linejoin="round"/>
<path fill-rule="evenodd" clip-rule="evenodd" d="M81.4656 78.6406L57.0437 68.0513C53.1156 70.3236 48.6606 71.5267 44.1225 71.5405C39.5845 71.5542 35.1223 70.3781 31.1805 68.1296L6.82313 78.8667C5.29502 79.6394 3.99892 80.8035 3.06675 82.2401C2.13458 83.6767 1.5996 85.3344 1.51624 87.0448L1.53386 92.8611C1.53542 93.3755 1.74117 93.8679 2.10586 94.2305C2.47055 94.5929 2.96431 94.7956 3.4785 94.794L84.9067 94.5474C85.4209 94.5459 85.9135 94.3402 86.2759 93.9756C86.6383 93.6108 86.8411 93.1171 86.8396 92.6028L86.822 86.7865C86.7282 85.0766 86.1832 83.4221 85.2425 81.9912C84.3015 80.5603 82.9984 79.4041 81.4656 78.6406Z" fill="#EFEBEA"/>
<g style="mix-blend-mode:multiply">
<path d="M44.1374 76.3907C50.5619 76.3713 55.7543 71.1474 55.7348 64.7229C55.7153 58.2984 50.4915 53.1061 44.067 53.1255C37.6425 53.145 32.4501 58.3689 32.4696 64.7934C32.4891 71.2179 37.7129 76.4102 44.1374 76.3907Z" fill="#4CAF50"/>
</g>
<path d="M71.1388 29.7781C71.117 22.5795 68.2364 15.6842 63.1307 10.6094C58.0251 5.53457 51.1125 2.6958 43.9138 2.7176C36.7152 2.7394 29.8199 5.61999 24.7451 10.7256C19.6703 15.8313 16.8315 22.7439 16.8533 29.9425" stroke="black" stroke-width="3.87755" stroke-linejoin="round"/>
<path d="M71.1975 49.1659C71.2445 64.676 55.7343 64.723 55.7343 64.723" stroke="black" stroke-width="3.87755" stroke-linejoin="round"/>
</g>
</g>
</g>
<defs>
<clipPath id="clip0_68_2107">
<rect width="95" height="95" fill="white" transform="translate(0.28595 0.910889) rotate(-0.173529)"/>
</clipPath>
<clipPath id="clip1_68_2107">
<rect width="93.0612" height="95" fill="white" transform="translate(1.25525 0.907959) rotate(-0.173529)"/>
</clipPath>
</defs>
</svg>
