<svg width="153" height="137" viewBox="0 0 153 137" fill="none" xmlns="http://www.w3.org/2000/svg">
<g clip-path="url(#clip0_1_2923)">
<path opacity="0.3" d="M135.033 116.268C131.961 119.167 129.056 121.037 126.76 122.514C99.7719 139.88 67.8367 134.818 61.0518 133.581C51.0297 131.756 31.6576 128.228 17.6519 113.457C-3.53753 91.1094 -0.238378 55.9024 16.1979 32.662C19.2041 28.4106 35.085 4.81577 67.3625 1.03213C86.8945 -1.25773 109.667 3.36064 126.156 15.7504C160.769 41.7569 158.306 94.2947 135.033 116.268Z" fill="#FFFDF5"/>
<path d="M112.279 32.5077C112.245 32.5108 112.21 32.5052 112.18 32.4913C112.149 32.4774 112.123 32.456 112.105 32.4294C111.984 32.2464 111.865 32.0581 111.752 31.8697C111.742 31.8511 111.735 31.8308 111.733 31.8099C111.731 31.789 111.733 31.7679 111.74 31.7479C111.748 31.7279 111.759 31.7094 111.774 31.6934C111.79 31.6774 111.808 31.6643 111.829 31.6549C112.043 31.557 112.091 31.7743 112.419 32.2694C112.431 32.2875 112.438 32.3075 112.441 32.3283C112.444 32.3491 112.443 32.3703 112.437 32.3905C112.43 32.4107 112.42 32.4297 112.406 32.4462C112.391 32.4627 112.373 32.4765 112.353 32.4867C112.33 32.498 112.305 32.5052 112.279 32.5077Z" fill="#EAC4F9"/>
<path d="M110.825 30.0486C110.662 29.6665 110.517 29.2736 110.389 28.8812C110.383 28.861 110.381 28.8399 110.384 28.8191C110.387 28.7983 110.394 28.7782 110.406 28.76C110.418 28.7418 110.433 28.7258 110.452 28.713C110.47 28.7003 110.492 28.6909 110.514 28.6855C110.776 28.6204 110.687 28.8107 111.164 29.9371C111.172 29.9569 111.176 29.978 111.175 29.9991C111.174 30.0202 111.168 30.0409 111.158 30.0599C111.148 30.079 111.133 30.0961 111.116 30.1101C111.098 30.1241 111.078 30.1348 111.055 30.1416C111.011 30.1559 110.962 30.1542 110.919 30.1369C110.877 30.1195 110.843 30.0879 110.825 30.0486ZM109.906 26.9314C109.835 26.5258 109.781 26.1104 109.747 25.7082C109.729 25.4934 110.091 25.4777 110.109 25.6837C110.142 26.082 110.194 26.4832 110.264 26.88C110.269 26.9219 110.256 26.9639 110.228 26.9974C110.199 27.0308 110.158 27.053 110.111 27.0594C110.065 27.0657 110.017 27.0557 109.979 27.0314C109.941 27.007 109.914 26.9703 109.906 26.929V26.9314ZM109.726 23.7139C109.75 23.3063 109.793 22.8943 109.854 22.4906C109.886 22.2817 110.244 22.3228 110.213 22.5308C110.153 22.9276 110.111 23.3312 110.087 23.7305C110.071 23.9389 109.71 23.9233 109.726 23.7139ZM110.425 20.7204C110.402 20.7156 110.38 20.7066 110.362 20.6939C110.343 20.6814 110.326 20.6654 110.314 20.6471C110.302 20.6289 110.295 20.6086 110.292 20.5875C110.289 20.5665 110.291 20.5451 110.297 20.5247C110.416 20.1293 110.555 19.7335 110.709 19.347C110.788 19.1488 111.13 19.2525 111.051 19.4507C110.899 19.8294 110.763 20.2174 110.647 20.6044C110.641 20.6254 110.63 20.645 110.615 20.6622C110.601 20.6794 110.583 20.6937 110.561 20.7046C110.541 20.7153 110.518 20.7223 110.494 20.725C110.47 20.7277 110.446 20.7262 110.422 20.7204H110.425ZM111.68 17.7196C111.659 17.7107 111.64 17.698 111.624 17.6823C111.609 17.6667 111.597 17.6484 111.589 17.6286C111.582 17.6087 111.579 17.5877 111.581 17.5668C111.582 17.5459 111.589 17.5255 111.599 17.5068C111.808 17.1408 112.036 16.7777 112.275 16.4269C112.399 16.2469 112.709 16.4093 112.586 16.5899C112.35 16.9324 112.127 17.289 111.923 17.6477C111.912 17.6669 111.897 17.684 111.879 17.6981C111.86 17.7121 111.839 17.7228 111.816 17.7295C111.793 17.7362 111.769 17.7387 111.745 17.737C111.721 17.7353 111.698 17.7295 111.677 17.7196H111.68ZM113.73 15.0354C113.684 15.0395 113.638 15.0276 113.601 15.0021C113.582 14.9896 113.567 14.9737 113.555 14.9555C113.544 14.9374 113.536 14.9173 113.533 14.8965C113.53 14.8758 113.532 14.8547 113.539 14.8346C113.545 14.8145 113.556 14.7957 113.571 14.7795C113.859 14.4575 114.166 14.1434 114.481 13.841C114.515 13.81 114.559 13.7917 114.607 13.7898C114.655 13.788 114.702 13.8029 114.737 13.8313C114.755 13.8453 114.769 13.8623 114.779 13.8813C114.789 13.9003 114.794 13.9208 114.795 13.9417C114.796 13.9626 114.792 13.9835 114.784 14.0031C114.776 14.0227 114.764 14.0407 114.747 14.0558C114.438 14.3494 114.138 14.6596 113.855 14.9752C113.839 14.9925 113.82 15.0067 113.798 15.017C113.776 15.0274 113.752 15.0336 113.727 15.0354H113.73ZM116.263 12.7358C116.234 12.7383 116.204 12.7347 116.178 12.7251C116.15 12.7154 116.126 12.7002 116.107 12.6805C116.091 12.6646 116.08 12.6461 116.073 12.6262C116.066 12.6062 116.063 12.5852 116.065 12.5643C116.067 12.5434 116.074 12.5231 116.085 12.5046C116.096 12.4861 116.111 12.4697 116.129 12.4564C116.485 12.1926 116.858 11.9382 117.237 11.6994C117.276 11.6747 117.324 11.6646 117.371 11.6713C117.418 11.678 117.461 11.7009 117.489 11.7352C117.503 11.7521 117.513 11.7714 117.518 11.7918C117.524 11.8122 117.524 11.8334 117.52 11.8541C117.517 11.8747 117.508 11.8944 117.495 11.9121C117.483 11.9298 117.466 11.945 117.447 11.9568C117.076 12.1907 116.711 12.4402 116.362 12.6986C116.333 12.7201 116.297 12.7332 116.26 12.7362L116.263 12.7358ZM119.097 10.852C119.086 10.8336 119.079 10.8133 119.076 10.7926C119.074 10.7717 119.077 10.7507 119.083 10.7307C119.091 10.7106 119.102 10.6921 119.117 10.6761C119.132 10.66 119.15 10.6468 119.171 10.6372C119.58 10.4415 120.004 10.26 120.431 10.0941C120.649 10.009 120.795 10.2986 120.577 10.3838C120.159 10.5467 119.743 10.7263 119.342 10.9161C119.3 10.9372 119.25 10.9423 119.203 10.9304C119.157 10.9184 119.117 10.8905 119.093 10.8525L119.097 10.852ZM131.167 9.34549C129.832 9.11259 129.62 9.22024 129.654 8.98146C129.66 8.93919 129.685 8.90093 129.722 8.8749C129.761 8.84887 129.808 8.83722 129.855 8.84251C130.317 8.89144 130.782 8.95455 131.239 9.03431C131.474 9.07247 131.402 9.38366 131.167 9.34549ZM122.445 9.60139C122.432 9.56088 122.438 9.51748 122.461 9.48078C122.484 9.44413 122.523 9.41712 122.568 9.40567C123.013 9.28874 123.471 9.1855 123.926 9.09889C124.161 9.05437 124.235 9.36457 124.001 9.4091C123.555 9.49423 123.107 9.59503 122.67 9.70952C122.647 9.71559 122.623 9.71754 122.599 9.71525C122.576 9.71299 122.553 9.70649 122.532 9.69621C122.511 9.68594 122.492 9.67204 122.478 9.65536C122.463 9.63867 122.451 9.61949 122.445 9.59894V9.60139ZM127.583 9.05192C126.224 9.06415 126.037 9.208 126.015 8.96776C126 8.81511 126.198 8.78624 126.178 8.79553C126.643 8.75933 127.114 8.73878 127.579 8.73486C127.626 8.73486 127.672 8.7516 127.704 8.7813C127.738 8.81105 127.756 8.85136 127.756 8.89339C127.756 8.93547 127.738 8.97579 127.704 9.00549C127.672 9.03524 127.626 9.05192 127.579 9.05192H127.583Z" fill="#3F78E0"/>
<path d="M134.004 10.061C133.436 9.87069 133.139 9.85258 133.218 9.64806C133.235 9.60809 133.269 9.57555 133.311 9.55725C133.354 9.53895 133.403 9.53646 133.448 9.5502C134.044 9.72635 134.321 9.77821 134.238 9.97148C134.216 10.0078 134.181 10.0365 134.139 10.0527C134.096 10.0689 134.049 10.0719 134.004 10.061Z" fill="#3F78E0"/>
<path d="M144.076 18.5296C144.038 18.533 143.999 18.5254 143.966 18.5078C143.933 18.4902 143.907 18.4635 143.892 18.4317C143.8 18.2394 143.701 18.0466 143.601 17.8588C143.591 17.8398 143.585 17.8192 143.584 17.7983C143.583 17.7773 143.587 17.7564 143.595 17.7367C143.603 17.717 143.615 17.699 143.631 17.6836C143.647 17.6683 143.666 17.6559 143.688 17.6474C143.731 17.6292 143.78 17.6269 143.825 17.641C143.87 17.6551 143.908 17.6844 143.929 17.7227C144.031 17.9145 144.131 18.1107 144.226 18.3099C144.234 18.3293 144.239 18.35 144.239 18.3709C144.239 18.3919 144.234 18.4127 144.226 18.432C144.216 18.4514 144.203 18.4689 144.186 18.4836C144.17 18.4984 144.15 18.51 144.129 18.5178C144.112 18.5238 144.094 18.5278 144.076 18.5296Z" fill="#3F78E0"/>
<path d="M128.883 40.2002C128.382 40.2325 127.874 40.2492 127.374 40.2423C127.35 40.2424 127.327 40.2382 127.305 40.2302C127.284 40.2221 127.264 40.2104 127.248 40.1954C127.231 40.1805 127.218 40.1628 127.209 40.1433C127.2 40.1238 127.195 40.1029 127.195 40.0818C127.2 39.8372 127.393 39.9786 128.858 39.8861C128.881 39.8843 128.905 39.8868 128.927 39.8932C128.95 39.8997 128.971 39.91 128.989 39.9236C129.006 39.9372 129.021 39.9539 129.032 39.9727C129.043 39.9914 129.049 40.0119 129.051 40.0329C129.063 40.1831 128.864 40.2095 128.883 40.2002ZM131.098 39.7755C131.043 39.5343 131.273 39.6351 132.673 39.2667C132.719 39.2543 132.768 39.2585 132.81 39.2785C132.852 39.2985 132.883 39.3326 132.898 39.3733C132.911 39.4138 132.905 39.4571 132.882 39.4938C132.859 39.5305 132.821 39.5575 132.775 39.569C132.296 39.6948 131.804 39.8049 131.312 39.8964C131.266 39.9055 131.217 39.8979 131.177 39.8753C131.137 39.8527 131.109 39.8168 131.098 39.7755ZM124.929 40.0725C124.435 40.0074 123.936 39.9228 123.448 39.8215C123.426 39.817 123.404 39.8085 123.385 39.7964C123.366 39.7843 123.349 39.769 123.337 39.7512C123.325 39.7334 123.316 39.7136 123.313 39.6929C123.309 39.6722 123.31 39.6511 123.315 39.6307C123.381 39.39 123.533 39.5681 124.984 39.7584C125.008 39.7611 125.03 39.768 125.051 39.7787C125.071 39.7893 125.089 39.8034 125.103 39.8202C125.117 39.837 125.127 39.8562 125.133 39.8765C125.139 39.8969 125.14 39.9182 125.136 39.9389C125.128 39.981 125.102 40.0186 125.064 40.0436C125.025 40.0685 124.977 40.0789 124.929 40.0725ZM135.016 38.8273C134.979 38.8308 134.941 38.8239 134.909 38.8074C134.877 38.7909 134.85 38.7657 134.834 38.7353C134.825 38.7162 134.819 38.6955 134.819 38.6745C134.818 38.6535 134.822 38.6327 134.83 38.6131C134.839 38.5935 134.851 38.5756 134.868 38.5605C134.884 38.5453 134.903 38.5332 134.925 38.5249C135.372 38.3458 135.817 38.1477 136.245 37.9378C136.287 37.9169 136.336 37.9116 136.382 37.9228C136.428 37.9341 136.467 37.9611 136.491 37.998C136.503 38.0162 136.51 38.0363 136.513 38.0571C136.515 38.0779 136.514 38.099 136.507 38.1191C136.501 38.1393 136.49 38.158 136.475 38.1744C136.46 38.1907 136.442 38.2043 136.422 38.2142C135.985 38.43 135.531 38.6321 135.073 38.8151C135.055 38.8218 135.036 38.8258 135.016 38.8268V38.8273ZM138.382 37.0629C138.351 37.0661 138.32 37.062 138.291 37.0513C138.262 37.0405 138.237 37.0232 138.218 37.0013C138.204 36.9847 138.194 36.9658 138.188 36.9455C138.182 36.9253 138.181 36.9042 138.184 36.8835C138.187 36.8628 138.195 36.8429 138.207 36.825C138.219 36.807 138.235 36.7915 138.254 36.7791C138.645 36.5183 139.03 36.2409 139.396 35.9508C139.432 35.9225 139.479 35.908 139.527 35.9101C139.574 35.9122 139.619 35.9308 139.651 35.962C139.667 35.9774 139.68 35.9955 139.687 36.0153C139.695 36.035 139.699 36.0559 139.697 36.0768C139.696 36.0977 139.69 36.1181 139.68 36.1369C139.669 36.1557 139.655 36.1724 139.637 36.1861C139.264 36.4797 138.873 36.7654 138.472 37.0316C138.446 37.0489 138.415 37.0596 138.382 37.0624V37.0629ZM141.229 34.6958C141.205 34.6979 141.181 34.6958 141.157 34.6895C141.134 34.6832 141.113 34.6729 141.094 34.6591C141.076 34.6459 141.061 34.6295 141.05 34.611C141.039 34.5924 141.033 34.5721 141.031 34.5512C141.029 34.5303 141.032 34.5093 141.039 34.4894C141.047 34.4696 141.058 34.4512 141.073 34.4355C141.391 34.1062 141.697 33.7607 141.983 33.408C142.011 33.3735 142.054 33.3503 142.101 33.3431C142.148 33.336 142.196 33.3456 142.235 33.3698C142.255 33.3817 142.271 33.397 142.284 33.4146C142.296 33.4323 142.305 33.452 142.308 33.4727C142.313 33.4933 142.312 33.5145 142.306 33.5349C142.301 33.5553 142.292 33.5745 142.277 33.5914C141.985 33.9501 141.673 34.3024 141.35 34.6385C141.319 34.6708 141.276 34.6912 141.229 34.6953V34.6958ZM143.421 31.8427C143.387 31.8458 143.352 31.8398 143.32 31.8256C143.299 31.8162 143.281 31.8032 143.265 31.7872C143.251 31.7713 143.239 31.7528 143.232 31.7328C143.225 31.7128 143.222 31.6918 143.225 31.6709C143.227 31.6501 143.233 31.6298 143.244 31.6113C143.473 31.2297 143.687 30.8343 143.879 30.437C143.898 30.3978 143.934 30.3669 143.978 30.3509C144.022 30.335 144.072 30.3353 144.115 30.3519C144.137 30.3596 144.157 30.3711 144.174 30.3857C144.191 30.4004 144.204 30.418 144.213 30.4373C144.222 30.4567 144.226 30.4775 144.226 30.4984C144.226 30.5194 144.221 30.5401 144.211 30.5593C144.016 30.965 143.798 31.3681 143.564 31.7581C143.55 31.7815 143.529 31.8014 143.505 31.8161C143.48 31.8307 143.451 31.8398 143.421 31.8422V31.8427ZM144.791 28.6364C144.518 28.5728 144.727 28.4442 144.989 27.1754C145.031 26.9685 145.388 27.0238 145.345 27.2307C145.255 27.6633 145.143 28.0987 145.012 28.5234C144.999 28.5645 144.969 28.5993 144.927 28.6203C144.886 28.6413 144.837 28.647 144.791 28.636V28.6364ZM145.428 25.2437C145.147 25.2349 145.316 25.071 145.254 23.7827C145.244 23.5738 145.605 23.5577 145.615 23.7681C145.637 24.2084 145.637 24.6527 145.615 25.0891C145.613 25.1318 145.592 25.172 145.557 25.2009C145.522 25.2297 145.476 25.245 145.428 25.2433V25.2437ZM145.184 21.8187C145.14 21.8231 145.095 21.8123 145.059 21.7884C145.022 21.7645 144.998 21.7292 144.989 21.6896C144.902 21.2639 144.794 20.8382 144.668 20.4248C144.662 20.4044 144.66 20.3831 144.663 20.3621C144.666 20.3412 144.674 20.321 144.686 20.3028C144.698 20.2846 144.714 20.2686 144.733 20.256C144.752 20.2433 144.773 20.2342 144.796 20.2291C144.842 20.2176 144.891 20.2229 144.932 20.2438C144.974 20.2647 145.005 20.2996 145.017 20.3406C145.146 20.7629 145.256 21.1969 145.345 21.6313C145.349 21.6521 145.348 21.6733 145.343 21.6938C145.338 21.7143 145.328 21.7337 145.315 21.7509C145.301 21.768 145.284 21.7826 145.264 21.7937C145.244 21.8048 145.222 21.8124 145.198 21.8158L145.184 21.8187Z" fill="#3F78E0"/>
<path d="M121.099 39.1792C120.512 38.9786 120.236 38.916 120.332 38.7261C120.431 38.5304 120.63 38.6772 121.231 38.8832C121.254 38.8904 121.274 38.9016 121.291 38.9159C121.308 38.9302 121.321 38.9475 121.331 38.9666C121.341 38.9858 121.345 39.0065 121.346 39.0274C121.347 39.0484 121.342 39.0692 121.333 39.0887C121.315 39.1282 121.281 39.1597 121.237 39.1766C121.193 39.1935 121.144 39.1944 121.099 39.1792Z" fill="#EAC4F9"/>
<path d="M120.875 34.7882L123.032 33.5107C124.16 33.9453 125.357 34.2151 126.579 34.3097C127.768 36.2576 127.697 36.4699 127.973 36.4352L131.06 36.0486C131.103 36.0435 131.144 36.0263 131.176 35.9995C131.209 35.9727 131.231 35.9375 131.24 35.8989L131.742 33.6634C132.888 33.2729 133.956 32.7194 134.906 32.0243L137.375 32.7225C137.417 32.7344 137.463 32.7345 137.505 32.7228C137.547 32.7111 137.584 32.6881 137.612 32.6569L139.492 30.4708C139.519 30.44 139.534 30.4023 139.536 30.3632C139.537 30.3241 139.524 30.2857 139.499 30.2535L138.052 28.3673C138.552 27.3824 138.865 26.3301 138.98 25.253L141.295 24.2143C141.335 24.1971 141.367 24.1692 141.388 24.1346C141.408 24.1 141.416 24.0605 141.41 24.0215L140.983 21.3162C140.977 21.2774 140.957 21.2413 140.927 21.2131C140.896 21.1849 140.857 21.1661 140.813 21.1592L138.266 20.7286C137.822 19.7212 137.195 18.7866 136.411 17.9627C137.149 15.8304 137.364 15.733 137.144 15.5872C134.676 14.0176 134.648 13.8028 134.412 13.9427L132.254 15.2197C131.128 14.7856 129.93 14.5159 128.708 14.4207C127.52 12.4744 127.591 12.261 127.314 12.2953C124.255 12.7268 124.102 12.5913 124.048 12.8335L123.544 15.07C122.398 15.4611 121.33 16.0145 120.379 16.7091C117.979 16.0789 117.843 15.8773 117.674 16.077C115.855 18.2695 115.629 18.2788 115.786 18.4799L117.232 20.3661C116.734 21.3511 116.42 22.4034 116.305 23.4804C114.118 24.5128 113.835 24.4653 113.875 24.7124C114.351 27.3814 114.196 27.5282 114.472 27.5747L117.018 28.0048C117.463 29.0123 118.089 29.9469 118.873 30.7707C118.137 32.8962 117.919 32.9999 118.14 33.1462C120.611 34.7134 120.637 34.9282 120.875 34.7882Z" fill="#FFA229"/>
<path d="M124.827 25.3771C124.199 24.0179 124.951 22.4585 126.503 21.9032C128.056 21.3478 129.831 21.9981 130.46 23.3573C131.089 24.7166 130.337 26.2759 128.784 26.8313C127.231 27.3886 125.456 26.7358 124.827 25.3771ZM126.707 22.3416C125.447 22.7942 124.807 24.0634 125.33 25.1961C125.847 26.3126 127.305 26.8489 128.58 26.3909C129.855 25.9329 130.473 24.652 129.956 23.5359C129.44 22.4199 127.98 21.8846 126.707 22.3416Z" fill="white"/>
<path d="M128.429 31.1135C127.984 31.1532 127.535 31.1594 127.088 31.1321C127.025 31.1288 126.966 31.1057 126.92 31.0667C126.874 31.0278 126.845 30.9755 126.838 30.9193C126.837 30.9056 126.837 30.8918 126.838 30.8782C126.845 30.8145 126.879 30.7559 126.934 30.7146C126.988 30.6734 127.058 30.6529 127.13 30.6575C127.644 30.6889 128.161 30.6724 128.672 30.6086C132.532 30.1257 135.267 27.0466 134.892 23.6774C134.882 23.5912 134.871 23.5051 134.857 23.4185C134.306 19.9285 130.638 17.5324 126.686 18.0261C122.733 18.5198 119.951 21.7349 120.499 25.2186C120.827 27.2907 122.061 28.2297 122.085 28.4479C122.111 28.6828 121.771 28.8051 121.603 28.6221C120.655 27.5921 120.07 26.332 119.925 25.0028C119.27 19.1016 126.991 15.2925 132.381 18.8501C133.194 19.3805 133.881 20.0524 134.399 20.8258C134.917 21.5991 135.256 22.4581 135.396 23.3515C135.41 23.4451 135.423 23.5385 135.434 23.6319C135.624 25.3452 135.071 27.0586 133.89 28.4161C132.633 29.8765 130.785 30.8337 128.746 31.0802C128.64 31.0933 128.535 31.1044 128.429 31.1135Z" fill="white"/>
<path d="M139.51 13.8498C140.125 14.1629 140.792 14.384 141.486 14.5045L142.026 15.7512C142.086 15.8891 142.197 15.7918 143.935 15.7585C144.095 15.7531 144.03 15.6386 144.481 14.4003C145.161 14.2312 145.805 13.9641 146.389 13.6096L147.753 14.1478C147.905 14.208 147.906 14.0685 149.108 12.9437C149.126 12.9268 149.136 12.9055 149.14 12.8828C149.143 12.8601 149.138 12.8371 149.126 12.8169L148.421 11.6377C148.77 11.0867 149.017 10.4883 149.151 9.86604C150.469 9.37676 150.624 9.4203 150.619 9.2745C150.519 7.68725 150.619 7.61093 150.462 7.56983L149.035 7.18329C148.847 6.57232 148.549 5.99291 148.153 5.46785L148.753 4.24462C148.82 4.10909 148.665 4.10762 147.411 3.02972C147.294 2.93187 147.254 3.05174 145.954 3.64622C145.34 3.33297 144.673 3.11167 143.979 2.99107L143.443 1.74339C143.383 1.60492 143.272 1.70229 141.533 1.73556C141.374 1.74094 141.44 1.84957 140.988 3.09382C140.308 3.2628 139.663 3.52985 139.078 3.88451L137.714 3.34629C137.691 3.33707 137.665 3.33461 137.64 3.33926C137.615 3.34391 137.592 3.35544 137.575 3.37222L136.357 4.55042C136.34 4.56721 136.329 4.58846 136.326 4.61119C136.322 4.63392 136.327 4.65699 136.339 4.67715L137.044 5.85635C136.695 6.40738 136.449 7.00578 136.314 7.62805C134.997 8.11734 134.841 8.07379 134.846 8.2196C134.946 9.80635 134.846 9.88317 135.003 9.92476L136.43 10.3113C136.619 10.9213 136.916 11.4997 137.312 12.0238C136.766 13.2044 136.62 13.2744 136.74 13.3737L138.054 14.4639C138.171 14.5632 138.217 14.4409 139.51 13.8498Z" fill="#FFA229"/>
<path d="M140.943 9.22033C140.838 8.90254 140.841 8.56415 140.952 8.24797C141.062 7.93175 141.274 7.65198 141.562 7.44393C141.849 7.23589 142.199 7.10897 142.567 7.07922C142.934 7.04947 143.304 7.11821 143.628 7.27679C143.952 7.43537 144.217 7.67659 144.388 7.97001C144.56 8.26344 144.63 8.59586 144.591 8.92524C144.552 9.25463 144.405 9.56621 144.168 9.82049C143.931 10.0748 143.616 10.2605 143.262 10.354C142.786 10.479 142.275 10.4298 141.84 10.2173C141.406 10.0047 141.083 9.64616 140.943 9.22033ZM141.479 9.07888C141.578 9.37783 141.804 9.62947 142.109 9.7788C142.415 9.92808 142.773 9.96287 143.107 9.87549C144.221 9.58191 144.388 8.21529 143.365 7.71475C142.342 7.21421 141.147 8.0734 141.479 9.07888Z" fill="white"/>
<path d="M134.891 13.99C134.741 13.8099 134.597 13.6215 134.463 13.4307C134.45 13.4123 134.441 13.3917 134.437 13.3702C134.433 13.3486 134.433 13.3265 134.439 13.3052C134.444 13.2839 134.454 13.2637 134.468 13.2459C134.483 13.228 134.501 13.2128 134.521 13.2012C134.739 13.0779 134.802 13.326 135.189 13.7908C135.203 13.8084 135.214 13.8283 135.22 13.8495C135.226 13.8706 135.227 13.8927 135.223 13.9143C135.22 13.9359 135.212 13.9567 135.199 13.9755C135.187 13.9943 135.171 14.0107 135.151 14.0237C135.132 14.0368 135.109 14.0463 135.086 14.0517C135.062 14.0571 135.037 14.0582 135.013 14.0551C134.989 14.052 134.966 14.0446 134.945 14.0334C134.925 14.0222 134.906 14.0075 134.891 13.99Z" fill="#3F78E0"/>
<path d="M133.418 11.4133C133.263 10.9774 133.145 10.5315 133.067 10.0795C133.029 9.86124 133.394 9.81133 133.433 10.0305C133.641 11.2312 133.946 11.4392 133.652 11.5233C133.628 11.5301 133.604 11.5327 133.579 11.5308C133.555 11.5289 133.531 11.5227 133.509 11.5124C133.487 11.5022 133.468 11.4881 133.452 11.4711C133.436 11.4541 133.425 11.4344 133.418 11.4133ZM133.168 8.03718C133.119 8.03224 133.074 8.01032 133.044 7.97612C133.013 7.94196 132.999 7.89832 133.004 7.85468C133.055 7.3993 133.146 6.94827 133.277 6.50572C133.34 6.29337 133.698 6.3785 133.635 6.59134C133.51 7.01687 133.421 7.45053 133.371 7.88844C133.366 7.93223 133.341 7.9723 133.303 8.00019C133.265 8.02808 133.217 8.04153 133.168 8.03767V8.03718ZM134.356 4.69291C134.329 4.69121 134.304 4.68419 134.28 4.67236C134.237 4.65068 134.206 4.61464 134.193 4.57216C134.179 4.52968 134.186 4.48424 134.21 4.44582C134.46 4.04694 134.744 3.66611 135.06 3.30677C135.09 3.27225 135.135 3.24998 135.184 3.24487C135.232 3.23974 135.281 3.25219 135.32 3.27945C135.359 3.30673 135.383 3.3466 135.389 3.39034C135.395 3.43407 135.381 3.4781 135.351 3.51275C135.047 3.8585 134.773 4.22494 134.533 4.60876C134.515 4.6366 134.49 4.6594 134.458 4.67441C134.427 4.68942 134.391 4.69601 134.356 4.6934V4.69291ZM136.927 2.05077C136.889 2.04783 136.854 2.03485 136.825 2.01353C136.796 1.99222 136.775 1.96355 136.764 1.93131C136.754 1.89905 136.754 1.86471 136.766 1.83277C136.778 1.80083 136.8 1.77279 136.83 1.7523C137.237 1.47602 137.667 1.22882 138.117 1.013C138.16 0.99217 138.212 0.987659 138.259 1.00046C138.305 1.01326 138.345 1.04232 138.368 1.08125C138.392 1.12018 138.397 1.16579 138.382 1.20804C138.368 1.2503 138.336 1.28574 138.292 1.30657C137.859 1.51415 137.445 1.75185 137.054 2.0175C137.017 2.04138 136.972 2.05251 136.927 2.04881V2.05077ZM140.298 0.422918C140.292 0.401682 140.291 0.379632 140.295 0.358029C140.299 0.336427 140.307 0.315695 140.32 0.297019C140.332 0.278343 140.349 0.262088 140.369 0.249185C140.389 0.236282 140.41 0.226984 140.434 0.221821C140.93 0.113765 141.435 0.0406388 141.944 0.00311057C142.187 -0.0159716 142.22 0.316253 141.974 0.334846C141.485 0.371115 140.999 0.441459 140.522 0.545242C140.498 0.550394 140.474 0.55126 140.45 0.547791C140.425 0.544327 140.402 0.536591 140.381 0.525034C140.36 0.513477 140.342 0.498329 140.328 0.480467C140.314 0.462604 140.303 0.442379 140.298 0.420961V0.422918Z" fill="#3F78E0"/>
<path d="M145.079 0.5712C144.42 0.418542 144.175 0.461109 144.219 0.239952C144.223 0.218305 144.232 0.197585 144.245 0.179011C144.257 0.160437 144.275 0.144385 144.294 0.131801C144.315 0.119217 144.338 0.110354 144.361 0.105736C144.385 0.101118 144.41 0.100837 144.434 0.10491C144.68 0.144053 144.928 0.192491 145.172 0.248759C145.22 0.259789 145.261 0.287354 145.286 0.325387C145.311 0.363421 145.318 0.40881 145.306 0.451569C145.293 0.494329 145.263 0.530952 145.22 0.553386C145.178 0.575824 145.128 0.582229 145.079 0.5712Z" fill="#3F78E0"/>
<path d="M151.089 4.85734C150.774 4.31325 150.576 4.17918 150.789 4.06078C150.831 4.03753 150.881 4.03015 150.929 4.04024C150.977 4.05032 151.019 4.07707 151.045 4.1146C151.176 4.30493 151.302 4.50358 151.418 4.70174C151.432 4.72118 151.442 4.74306 151.446 4.76598C151.45 4.7889 151.449 4.81234 151.442 4.83481C151.436 4.85727 151.424 4.87826 151.408 4.89641C151.392 4.91456 151.372 4.92949 151.349 4.94025C151.326 4.95097 151.3 4.95728 151.275 4.9588C151.249 4.96026 151.223 4.95684 151.199 4.94881C151.174 4.94079 151.152 4.92826 151.134 4.91207C151.115 4.89592 151.101 4.87642 151.091 4.85489L151.089 4.85734Z" fill="#3F78E0"/>
<path d="M142.843 17.3541C142.833 17.0781 143.143 17.264 144.461 17.0424C144.701 17.0013 144.771 17.3286 144.529 17.3697C144.035 17.453 143.535 17.502 143.034 17.5165C143.01 17.5172 142.985 17.5134 142.962 17.5056C142.939 17.4978 142.918 17.486 142.901 17.4709C142.883 17.4558 142.869 17.4377 142.859 17.4176C142.849 17.3976 142.844 17.376 142.843 17.3541ZM146.608 16.6231C146.597 16.6033 146.591 16.5818 146.59 16.56C146.589 16.5381 146.593 16.5164 146.602 16.4959C146.61 16.4753 146.623 16.4565 146.639 16.4405C146.656 16.4244 146.676 16.4115 146.698 16.4024C147.925 15.8936 148.046 15.5843 148.217 15.8153C148.244 15.852 148.254 15.8969 148.244 15.9402C148.235 15.9835 148.207 16.0216 148.166 16.0462C147.749 16.2953 147.311 16.5152 146.856 16.7043C146.834 16.7144 146.81 16.7204 146.784 16.7218C146.759 16.7231 146.734 16.72 146.71 16.7123C146.687 16.7047 146.665 16.6929 146.647 16.6775C146.628 16.6622 146.614 16.6437 146.604 16.6231H146.608ZM149.744 14.6297C149.514 14.4443 149.876 14.3758 150.611 13.3664C150.745 13.1824 151.056 13.3664 150.922 13.5484C150.647 13.9251 150.341 14.2823 150.006 14.617C149.989 14.6333 149.97 14.6466 149.948 14.6561C149.925 14.6655 149.902 14.671 149.877 14.6722C149.853 14.6734 149.829 14.6702 149.806 14.6629C149.783 14.6556 149.762 14.6444 149.744 14.6297ZM151.756 11.6867C151.463 11.5967 151.768 11.4058 152.003 10.2188C152.046 10.0026 152.412 10.0603 152.369 10.277C152.28 10.7201 152.154 11.1565 151.992 11.5824C151.975 11.6238 151.941 11.6577 151.897 11.6767C151.853 11.6958 151.803 11.6985 151.756 11.6842V11.6867ZM152.121 8.11778C152.019 6.90973 151.739 6.6989 152.039 6.63578C152.062 6.63074 152.087 6.63001 152.111 6.63353C152.136 6.63705 152.158 6.64483 152.179 6.65638C152.2 6.66793 152.218 6.683 152.232 6.70081C152.246 6.71862 152.256 6.73873 152.262 6.76001C152.376 7.19841 152.453 7.644 152.491 8.09287C152.493 8.13642 152.477 8.17928 152.445 8.21216C152.413 8.24504 152.368 8.26535 152.319 8.26858C152.271 8.27185 152.223 8.25791 152.186 8.22968C152.148 8.2015 152.125 8.16128 152.121 8.11778Z" fill="#3F78E0"/>
<path d="M140.595 17.3064C140.349 17.2574 140.104 17.1982 139.864 17.1322C139.817 17.1191 139.777 17.0898 139.755 17.0509C139.732 17.0119 139.727 16.9664 139.741 16.9242C139.817 16.7031 140.044 16.8543 140.676 16.9815C140.7 16.9863 140.722 16.9952 140.742 17.0078C140.762 17.0204 140.779 17.0364 140.792 17.0548C140.805 17.0733 140.814 17.0939 140.818 17.1154C140.822 17.137 140.822 17.159 140.817 17.1804C140.811 17.2017 140.801 17.2219 140.787 17.2398C140.773 17.2576 140.755 17.2728 140.735 17.2845C140.714 17.2962 140.691 17.3042 140.667 17.3079C140.643 17.3117 140.619 17.3111 140.595 17.3064Z" fill="#3F78E0"/>
<path d="M141.97 12.783C141.897 12.7729 141.832 12.7372 141.788 12.6838C141.744 12.6304 141.726 12.5637 141.738 12.4983C141.749 12.4329 141.789 12.3742 141.849 12.3351C141.908 12.296 141.982 12.2797 142.055 12.2898C142.338 12.334 142.627 12.3512 142.914 12.3412C143.444 12.323 143.965 12.2111 144.447 12.0121C144.929 11.813 145.363 11.5306 145.723 11.1811C148.156 8.82177 146.184 4.97353 142.6 5.09928C141.613 5.13485 140.675 5.49276 139.962 6.10559C139.249 6.71838 138.811 7.54385 138.729 8.42642C138.566 10.2402 139.796 10.7515 139.291 11.047C139.229 11.0833 139.154 11.096 139.082 11.0825C139.009 11.0689 138.946 11.0301 138.906 10.9746C138.351 10.2121 138.093 9.30635 138.172 8.39863C138.251 7.49086 138.663 6.63216 139.344 5.95646C140.025 5.2808 140.935 4.82612 141.934 4.66339C142.933 4.50065 143.964 4.639 144.866 5.05686C145.769 5.47471 146.491 6.1486 146.921 6.97334C147.351 7.79813 147.465 8.72738 147.244 9.61617C147.024 10.505 146.482 11.3034 145.702 11.8868C144.923 12.4702 143.95 12.8058 142.935 12.8412C142.612 12.8521 142.289 12.8326 141.97 12.783Z" fill="white"/>
<path d="M46.6875 20.7257L121.347 21.2791C123.33 21.2937 125.232 21.991 126.658 23.2268C128.084 24.4627 128.926 26.1427 129.011 27.9197L133.628 125.032C133.661 125.718 133.539 126.402 133.271 127.044C133.003 127.686 132.594 128.274 132.067 128.771C131.541 129.269 130.908 129.666 130.207 129.94C129.506 130.214 128.751 130.358 127.986 130.365L42.4042 131.129C41.6849 131.135 40.9714 131.013 40.3053 130.769C39.6393 130.525 39.0341 130.165 38.525 129.71C38.016 129.254 37.6133 128.712 37.3405 128.115C37.0677 127.518 36.9303 126.878 36.9363 126.233L37.836 28.5367C37.8452 27.5026 38.0815 26.4802 38.5313 25.528C38.9811 24.5757 39.6357 23.7123 40.4577 22.987C41.2796 22.2616 42.2529 21.6886 43.3218 21.3006C44.3907 20.9126 45.5344 20.7173 46.6875 20.7257Z" fill="url(#paint0_linear_1_2923)"/>
<path d="M39.9458 107.309C39.8815 107.308 39.8203 107.284 39.7754 107.243C39.7305 107.202 39.7057 107.146 39.7063 107.089L39.7254 104.989C39.7257 104.961 39.7323 104.932 39.7448 104.906C39.7573 104.879 39.7755 104.855 39.7983 104.835C39.8212 104.815 39.8483 104.799 39.8779 104.788C39.9076 104.778 39.9394 104.772 39.9714 104.773C40.0357 104.773 40.097 104.797 40.142 104.838C40.187 104.879 40.2119 104.935 40.2115 104.993L40.1924 107.092C40.1922 107.121 40.1856 107.149 40.1731 107.176C40.1607 107.203 40.1424 107.226 40.1196 107.247C40.0967 107.267 40.0696 107.282 40.0399 107.293C40.0102 107.304 39.9784 107.309 39.9463 107.309H39.9458Z" fill="white"/>
<path d="M46.9243 19.9409C57.1083 21.2561 92.1321 25.351 121.136 23.57C121.45 23.5501 121.766 23.5869 122.063 23.6779C122.361 23.769 122.635 23.9126 122.87 24.1002C123.105 24.2878 123.296 24.5157 123.431 24.7704C123.567 25.0251 123.643 25.3015 123.658 25.5834L128.538 123.13C128.571 123.772 128.319 124.4 127.836 124.876C127.354 125.352 126.681 125.637 125.965 125.67C113.768 126.227 63.5385 128.356 45.646 126.542C45.1201 126.488 44.6349 126.262 44.2831 125.907C43.9315 125.553 43.7379 125.094 43.7397 124.619L44.0125 22.2004C44.0131 21.8731 44.0921 21.5496 44.2442 21.2519C44.3962 20.9543 44.6178 20.6894 44.8938 20.4752C45.1699 20.2609 45.4941 20.1024 45.8443 20.0102C46.1947 19.918 46.563 19.8944 46.9243 19.9409Z" fill="url(#paint1_linear_1_2923)"/>
<path opacity="0.6" d="M47.9931 22.4782C57.7935 23.744 91.4987 27.6842 119.41 25.9703C119.712 25.9513 120.015 25.9868 120.302 26.0744C120.588 26.1621 120.852 26.3002 121.078 26.4808C121.305 26.6613 121.488 26.8806 121.618 27.1256C121.748 27.3707 121.822 27.6367 121.836 27.9078L126.534 121.783C126.566 122.402 126.323 123.006 125.859 123.465C125.395 123.923 124.747 124.198 124.058 124.23C112.32 124.768 63.9815 126.815 46.7628 125.068C46.2567 125.016 45.7898 124.799 45.4514 124.458C45.1129 124.116 44.9267 123.675 44.9285 123.218L45.1893 24.656C45.1896 24.3407 45.2654 24.0289 45.4117 23.7421C45.558 23.4552 45.7712 23.1999 46.0371 22.9934C46.303 22.7869 46.6152 22.634 46.9526 22.5452C47.2901 22.4563 47.6449 22.4335 47.9931 22.4782Z" fill="white"/>
<path d="M55.6128 36.9263H56.5687C56.549 37.2073 56.4628 37.4567 56.3095 37.6746C56.1584 37.8925 55.9462 38.0626 55.6734 38.1849C55.4028 38.3072 55.0765 38.3684 54.6951 38.3684C54.3968 38.3684 54.1293 38.3225 53.8928 38.2308C53.6562 38.1371 53.4537 38.0033 53.2854 37.8294C53.1191 37.6555 52.9923 37.4453 52.9049 37.1987C52.8176 36.9521 52.7739 36.6759 52.7739 36.3701V36.0806C52.7739 35.7748 52.8186 35.4986 52.9081 35.252C52.9998 35.0036 53.1298 34.7924 53.2981 34.6185C53.4686 34.4446 53.6722 34.3107 53.9087 34.2171C54.1453 34.1234 54.4095 34.0766 54.7015 34.0766C55.0896 34.0766 55.4164 34.1397 55.6832 34.2658C55.9516 34.392 56.1595 34.5659 56.3063 34.7876C56.4557 35.0093 56.5452 35.2616 56.5747 35.5445H55.6155C55.6052 35.3763 55.5681 35.2339 55.5037 35.1173C55.4399 34.9988 55.3428 34.9099 55.2129 34.8507C55.0852 34.7895 54.9146 34.7589 54.7015 34.7589C54.5417 34.7589 54.4021 34.7857 54.2827 34.8392C54.1634 34.8927 54.0633 34.974 53.9822 35.0829C53.9013 35.1918 53.8405 35.3294 53.8001 35.4957C53.7617 35.6601 53.7425 35.8532 53.7425 36.0749V36.3701C53.7425 36.5861 53.7606 36.7763 53.7968 36.9407C53.8331 37.1031 53.8885 37.2407 53.9631 37.3535C54.0398 37.4643 54.1378 37.5484 54.2572 37.6058C54.3787 37.6612 54.5247 37.6889 54.6951 37.6889C54.8955 37.6889 55.0607 37.6602 55.1905 37.6029C55.3204 37.5456 55.4197 37.4605 55.4879 37.3477C55.5583 37.235 55.5997 37.0945 55.6128 36.9263ZM56.9937 36.7916V36.7314C56.9937 36.5039 57.0297 36.2946 57.1023 36.1035C57.1748 35.9105 57.2801 35.7433 57.4187 35.6018C57.5573 35.4604 57.7281 35.3505 57.9305 35.2721C58.1329 35.1918 58.3653 35.1517 58.6272 35.1517C58.8891 35.1517 59.1226 35.1918 59.3272 35.2721C59.5318 35.3505 59.7036 35.4604 59.8422 35.6018C59.9824 35.7433 60.0893 35.9105 60.1619 36.1035C60.2339 36.2946 60.2705 36.5039 60.2705 36.7314V36.7916C60.2705 37.0171 60.2339 37.2264 60.1619 37.4194C60.0893 37.6106 59.9824 37.7778 59.8422 37.9211C59.7036 38.0626 59.5329 38.1725 59.3304 38.2509C59.128 38.3292 58.8956 38.3684 58.6337 38.3684C58.3713 38.3684 58.1383 38.3292 57.9337 38.2509C57.7308 38.1725 57.5595 38.0626 57.4187 37.9211C57.2801 37.7778 57.1748 37.6106 57.1023 37.4194C57.0297 37.2264 56.9937 37.0171 56.9937 36.7916ZM57.9141 36.7314V36.7916C57.9141 36.9216 57.9272 37.0429 57.9528 37.1557C57.9785 37.2684 58.0189 37.3678 58.074 37.4538C58.1318 37.5379 58.2065 37.6039 58.2982 37.6516C58.3893 37.6994 58.5017 37.7233 58.6337 37.7233C58.7614 37.7233 58.8711 37.6994 58.9627 37.6516C59.0544 37.6039 59.128 37.5379 59.1837 37.4538C59.2388 37.3678 59.2792 37.2684 59.3048 37.1557C59.3326 37.0429 59.3463 36.9216 59.3463 36.7916V36.7314C59.3463 36.6052 59.3326 36.4867 59.3048 36.3759C59.2792 36.2631 59.2377 36.1637 59.1804 36.0777C59.1248 35.9898 59.0511 35.921 58.9594 35.8713C58.8678 35.8216 58.757 35.7967 58.6272 35.7967C58.4973 35.7967 58.3866 35.8216 58.2949 35.8713C58.2054 35.921 58.1318 35.9898 58.074 36.0777C58.0189 36.1637 57.9785 36.2631 57.9528 36.3759C57.9272 36.4867 57.9141 36.6052 57.9141 36.7314ZM61.7567 35.8513V38.311H60.833V35.2091H61.6994L61.7567 35.8513ZM61.629 36.6511H61.3731C61.3731 36.4351 61.402 36.2364 61.4593 36.0548C61.5193 35.8713 61.6055 35.7127 61.7185 35.5789C61.8336 35.4432 61.9754 35.338 62.1435 35.2635C62.3121 35.189 62.5068 35.1517 62.7289 35.1517C62.8822 35.1517 63.023 35.1727 63.1506 35.2148C63.2783 35.2549 63.3885 35.319 63.4802 35.4069C63.5735 35.4929 63.646 35.6056 63.6973 35.7452C63.7486 35.8828 63.7742 36.0481 63.7742 36.2411V38.311H62.8533V36.3329C62.8533 36.1915 62.832 36.0825 62.7894 36.0061C62.7469 35.9296 62.6858 35.8761 62.6072 35.8455C62.5303 35.8149 62.4375 35.7996 62.329 35.7996C62.2095 35.7996 62.1053 35.8216 62.0158 35.8656C61.9285 35.9095 61.856 35.9707 61.7987 36.0491C61.7408 36.1255 61.6983 36.2153 61.6704 36.3185C61.6426 36.4218 61.629 36.5326 61.629 36.6511ZM63.6875 36.5565L63.3585 36.5937C63.3585 36.3912 63.3863 36.2029 63.4414 36.029C63.4993 35.8551 63.5833 35.7022 63.694 35.5703C63.807 35.4384 63.9466 35.3361 64.113 35.2635C64.2789 35.189 64.4709 35.1517 64.6881 35.1517C64.8545 35.1517 65.0056 35.1737 65.142 35.2176C65.2784 35.2597 65.3946 35.3275 65.4906 35.4212C65.5888 35.5129 65.6636 35.6333 65.7143 35.7824C65.7678 35.9315 65.7945 36.1141 65.7945 36.33V38.311H64.8703V36.33C64.8703 36.1867 64.849 36.0777 64.8065 36.0032C64.7661 35.9268 64.7066 35.8742 64.6275 35.8455C64.5506 35.8149 64.4589 35.7996 64.3525 35.7996C64.2418 35.7996 64.1447 35.8197 64.0618 35.8598C63.9788 35.8981 63.9095 35.9516 63.8539 36.0204C63.7988 36.0892 63.7568 36.1694 63.7295 36.2612C63.7017 36.351 63.6875 36.4495 63.6875 36.5565ZM67.428 35.8054V39.5037H66.5071V35.2091H67.3609L67.428 35.8054ZM69.618 36.7257V36.7858C69.618 37.0114 69.588 37.2207 69.528 37.4137C69.4707 37.6067 69.3856 37.7749 69.2726 37.9183C69.1597 38.0597 69.0189 38.1706 68.8504 38.2509C68.6845 38.3292 68.4924 38.3684 68.2753 38.3684C68.0642 38.3684 67.8808 38.3302 67.7254 38.2537C67.5699 38.1773 67.4384 38.0702 67.332 37.9326C67.2278 37.7931 67.1432 37.6316 67.0794 37.4481C67.0155 37.2646 66.9664 37.0678 66.9326 36.8575V36.6998C66.9664 36.4743 67.0155 36.2679 67.0794 36.0806C67.1432 35.8914 67.2278 35.728 67.332 35.5904C67.4384 35.4508 67.5688 35.3428 67.7221 35.2664C67.8776 35.1899 68.0598 35.1517 68.2688 35.1517C68.4881 35.1517 68.6812 35.189 68.8471 35.2635C69.0157 35.338 69.1564 35.4451 69.2694 35.5846C69.3845 35.7241 69.4707 35.8904 69.528 36.0835C69.588 36.2765 69.618 36.4906 69.618 36.7257ZM68.6938 36.7858V36.7257C68.6938 36.5937 68.6812 36.4724 68.6556 36.3615C68.6321 36.2488 68.5939 36.1504 68.5405 36.0662C68.4892 35.9821 68.421 35.9172 68.3359 35.8713C68.2529 35.8235 68.1515 35.7996 68.032 35.7996C67.9065 35.7996 67.799 35.8178 67.7095 35.8541C67.6217 35.8904 67.5502 35.943 67.4951 36.0118C67.4395 36.0806 67.398 36.1628 67.3702 36.2583C67.3429 36.3539 67.3254 36.4619 67.3194 36.5823V36.9808C67.3298 37.1222 67.3598 37.2493 67.4089 37.3621C67.458 37.4729 67.5333 37.5609 67.6359 37.6258C67.7379 37.6908 67.8721 37.7233 68.0385 37.7233C68.1602 37.7233 68.2622 37.6994 68.3457 37.6516C68.4286 37.602 68.4957 37.5341 68.547 37.4481C68.5999 37.3621 68.6376 37.2627 68.6589 37.15C68.6823 37.0372 68.6938 36.9158 68.6938 36.7858ZM72.0568 37.6115V36.2297C72.0568 36.1303 72.0387 36.0452 72.0027 35.9745C71.9662 35.9019 71.91 35.8455 71.8331 35.8054C71.7583 35.7652 71.6618 35.7452 71.5423 35.7452C71.4397 35.7452 71.3513 35.7614 71.2771 35.7939C71.2024 35.8245 71.1445 35.8694 71.1042 35.9287C71.0638 35.986 71.0436 36.0538 71.0436 36.1322H70.1227C70.1227 36.0003 70.157 35.8751 70.2252 35.7566C70.2934 35.6381 70.3922 35.534 70.5226 35.4441C70.6524 35.3524 70.8068 35.2807 70.9858 35.2291C71.1669 35.1775 71.3693 35.1517 71.5935 35.1517C71.862 35.1517 72.1004 35.1918 72.3094 35.2721C72.5183 35.3524 72.6825 35.4728 72.8015 35.6333C72.9231 35.7939 72.9837 35.9946 72.9837 36.2354V37.5628C72.9837 37.7329 72.9957 37.8724 73.0192 37.9814C73.0426 38.0884 73.0765 38.182 73.1212 38.2623V38.311H72.191C72.1462 38.2269 72.1124 38.1218 72.0889 37.9957C72.0677 37.8677 72.0568 37.7396 72.0568 37.6115ZM72.1784 36.4218L72.185 36.8891H71.6699C71.5488 36.8891 71.443 36.9015 71.3535 36.9263C71.264 36.9512 71.1904 36.9865 71.1331 37.0324C71.0752 37.0764 71.0327 37.1279 71.0054 37.1872C70.9798 37.2465 70.9667 37.3114 70.9667 37.3822C70.9667 37.4529 70.9847 37.5169 71.0212 37.5742C71.0572 37.6297 71.1096 37.6737 71.1778 37.7061C71.246 37.7367 71.3257 37.752 71.4173 37.752C71.5559 37.752 71.6765 37.7271 71.7785 37.6775C71.8811 37.6278 71.9602 37.5666 72.0153 37.494C72.0731 37.4213 72.1026 37.3525 72.1048 37.2876L72.3476 37.6373C72.3137 37.7157 72.2668 37.7969 72.2073 37.881C72.1495 37.9651 72.0759 38.0444 71.9864 38.1189C71.8969 38.1916 71.7894 38.2518 71.6639 38.2996C71.5379 38.3454 71.389 38.3684 71.216 38.3684C70.9967 38.3684 70.7975 38.3292 70.6186 38.2509C70.4413 38.1706 70.3011 38.0607 70.1963 37.9211C70.0943 37.7797 70.043 37.6191 70.043 37.4395C70.043 37.277 70.0768 37.1327 70.145 37.0066C70.2132 36.8805 70.3136 36.7744 70.4456 36.6884C70.5799 36.6005 70.7473 36.5345 70.9476 36.4906C71.1478 36.4447 71.3802 36.4218 71.6443 36.4218H72.1784ZM74.5954 35.8713V38.311H73.6744V35.2091H74.5375L74.5954 35.8713ZM74.4606 36.6511H74.2113C74.2113 36.4218 74.2446 36.2153 74.3106 36.0319C74.3766 35.8465 74.4693 35.6888 74.5888 35.5588C74.7083 35.4269 74.8496 35.3266 75.0138 35.2578C75.1802 35.1871 75.3657 35.1517 75.5703 35.1517C75.7324 35.1517 75.8802 35.1727 76.0144 35.2148C76.1486 35.2568 76.2638 35.3237 76.3598 35.4154C76.458 35.5072 76.5322 35.6286 76.5835 35.7796C76.6369 35.9306 76.6637 36.115 76.6637 36.3329V38.311H75.7362V36.33C75.7362 36.1924 75.7149 36.0854 75.6723 36.0089C75.6298 35.9325 75.567 35.879 75.4841 35.8484C75.4028 35.8159 75.3024 35.7996 75.1835 35.7996C75.0597 35.7996 74.9522 35.8216 74.8605 35.8656C74.771 35.9095 74.6963 35.9707 74.6368 36.0491C74.579 36.1255 74.5353 36.2153 74.5059 36.3185C74.4759 36.4218 74.4606 36.5326 74.4606 36.6511ZM78.3899 37.9613L79.307 35.2091H80.2951L78.9044 38.7784C78.8744 38.8567 78.834 38.9408 78.7827 39.0306C78.7342 39.1205 78.6665 39.2055 78.5814 39.2858C78.4985 39.368 78.3932 39.4349 78.265 39.4865C78.1395 39.5381 77.9845 39.5639 77.8018 39.5639C77.7139 39.5639 77.643 39.5591 77.5874 39.5495C77.5317 39.54 77.4657 39.5266 77.3893 39.5094V38.9045C77.4128 38.9045 77.4373 38.9045 77.4624 38.9045C77.4881 38.9064 77.5126 38.9074 77.5361 38.9074C77.6577 38.9074 77.757 38.895 77.8334 38.8701C77.9103 38.8452 77.972 38.807 78.0189 38.7554C78.0658 38.7057 78.1029 38.6407 78.1308 38.5605L78.3899 37.9613ZM78.0064 35.2091L78.7576 37.4567L78.8886 38.3311L78.2617 38.3913L77.0183 35.2091H78.0064ZM82.3503 34.1368H84.0864C84.4421 34.1368 84.7482 34.1846 85.004 34.2802C85.2616 34.3757 85.4601 34.5172 85.5987 34.7045C85.7368 34.8918 85.806 35.1221 85.806 35.3954C85.806 35.619 85.7635 35.8111 85.6784 35.9717C85.5954 36.1303 85.4771 36.2631 85.3237 36.3701C85.1721 36.4752 84.9942 36.5593 84.7896 36.6224L84.4863 36.7658H82.9772L82.9706 36.0949H84.0929C84.261 36.0949 84.4006 36.0682 84.5114 36.0146C84.6227 35.9611 84.7056 35.8866 84.7607 35.791C84.8185 35.6955 84.8475 35.5846 84.8475 35.4585C84.8475 35.3247 84.8196 35.2091 84.764 35.1116C84.7089 35.0141 84.6243 34.9396 84.5114 34.888C84.3984 34.8363 84.2571 34.8105 84.0864 34.8105H83.3095V38.311H82.3503V34.1368ZM84.9528 38.311L83.8916 36.4504L84.9047 36.4447L85.979 38.2709V38.311H84.9528ZM88.0789 38.3684C87.8105 38.3684 87.5699 38.3302 87.3566 38.2537C87.1438 38.1754 86.9627 38.0674 86.8132 37.9297C86.6664 37.7922 86.5535 37.6325 86.4744 37.451C86.3958 37.2675 86.356 37.0726 86.356 36.8661V36.7514C86.356 36.5163 86.3936 36.3013 86.4678 36.1064C86.5426 35.9114 86.649 35.7423 86.7876 35.5989C86.9283 35.4556 87.0991 35.3457 87.2993 35.2692C87.4995 35.1909 87.7254 35.1517 87.9769 35.1517C88.2219 35.1517 88.4396 35.188 88.6289 35.2606C88.8188 35.3333 88.9775 35.4365 89.1052 35.5703C89.2356 35.7041 89.3333 35.8646 89.3993 36.0519C89.4653 36.2373 89.4986 36.4437 89.4986 36.6712V37.0152H86.7494V36.4648H88.594V36.4017C88.594 36.287 88.5705 36.1848 88.5236 36.0949C88.4789 36.0032 88.4107 35.9306 88.319 35.877C88.2274 35.8235 88.1101 35.7967 87.9671 35.7967C87.846 35.7967 87.7412 35.8207 87.6539 35.8684C87.5666 35.9162 87.4952 35.9831 87.4401 36.0691C87.3866 36.1552 87.3462 36.2564 87.3184 36.373C87.2928 36.4877 87.2802 36.6138 87.2802 36.7514V36.8661C87.2802 36.9904 87.2993 37.1051 87.3375 37.2101C87.3779 37.3152 87.4346 37.4061 87.5072 37.4825C87.5814 37.559 87.6709 37.6182 87.7756 37.6602C87.882 37.7023 88.0026 37.7233 88.1368 37.7233C88.3032 37.7233 88.4576 37.6946 88.6005 37.6373C88.7451 37.5781 88.8701 37.4892 88.9743 37.3707L89.4216 37.8065C89.3496 37.9001 89.2503 37.99 89.1243 38.0759C89.001 38.162 88.8515 38.2327 88.6769 38.2881C88.5023 38.3416 88.3032 38.3684 88.0789 38.3684ZM92.2128 35.2091H93.0471V38.2079C93.0471 38.4907 92.9767 38.7306 92.8359 38.9274C92.6973 39.1262 92.5036 39.2763 92.2543 39.3775C92.005 39.4807 91.7153 39.5323 91.3846 39.5323C91.2395 39.5323 91.0862 39.5151 90.9242 39.4807C90.7643 39.4463 90.611 39.3928 90.4642 39.3202C90.3191 39.2476 90.1975 39.1558 90.0998 39.045L90.5057 38.5576C90.6121 38.6685 90.736 38.7544 90.8762 38.8156C91.0169 38.8787 91.1724 38.9102 91.3432 38.9102C91.5096 38.9102 91.6498 38.8825 91.7649 38.8271C91.88 38.7736 91.9684 38.6943 92.0306 38.5892C92.0923 38.4859 92.1234 38.3608 92.1234 38.2136V35.9258L92.2128 35.2091ZM89.8854 36.7973V36.7371C89.8854 36.5001 89.9176 36.2851 89.9814 36.092C90.0474 35.8971 90.1402 35.7299 90.2597 35.5904C90.3808 35.4508 90.5281 35.3428 90.7005 35.2664C90.8734 35.1899 91.0682 35.1517 91.2854 35.1517C91.5156 35.1517 91.7087 35.1899 91.8642 35.2664C92.0197 35.3428 92.1474 35.4518 92.2478 35.5932C92.3482 35.7328 92.4256 35.8981 92.4813 36.0892C92.5386 36.2784 92.5833 36.4858 92.6155 36.7113V36.8432C92.5833 37.0592 92.5353 37.2599 92.4715 37.4453C92.4076 37.6306 92.3236 37.7931 92.2188 37.9326C92.1146 38.0702 91.9848 38.1773 91.8288 38.2537C91.6754 38.3302 91.4921 38.3684 91.2794 38.3684C91.066 38.3684 90.8734 38.3292 90.7005 38.2509C90.5303 38.1725 90.384 38.0626 90.2624 37.9211C90.1413 37.7797 90.0474 37.6134 89.9814 37.4223C89.9176 37.2312 89.8854 37.0229 89.8854 36.7973ZM90.8058 36.7371V36.7973C90.8058 36.9254 90.82 37.0448 90.8478 37.1557C90.8751 37.2665 90.9182 37.365 90.9755 37.451C91.0349 37.5351 91.1086 37.601 91.1959 37.6488C91.2854 37.6946 91.3912 37.7176 91.5123 37.7176C91.6809 37.7176 91.8184 37.6861 91.9248 37.623C92.0317 37.558 92.1114 37.4691 92.1648 37.3563C92.2178 37.2436 92.2489 37.1136 92.2576 36.9665V36.5909C92.2532 36.4705 92.2352 36.3625 92.203 36.267C92.1708 36.1694 92.1261 36.0863 92.0688 36.0175C92.011 35.9487 91.9368 35.8952 91.8451 35.857C91.7535 35.8187 91.6449 35.7996 91.5189 35.7996C91.3972 35.7996 91.2919 35.8245 91.2024 35.8742C91.1151 35.922 91.0415 35.9879 90.982 36.072C90.9242 36.1561 90.8805 36.2555 90.8511 36.3701C90.8211 36.4829 90.8058 36.6052 90.8058 36.7371ZM94.7351 35.2091V38.311H93.8109V35.2091H94.7351ZM93.7536 34.4006C93.7536 34.2802 93.8005 34.1808 93.8943 34.1024C93.9882 34.0241 94.1137 33.9849 94.2713 33.9849C94.4268 33.9849 94.5518 34.0241 94.6456 34.1024C94.7411 34.1808 94.7891 34.2802 94.7891 34.4006C94.7891 34.521 94.7411 34.6204 94.6456 34.6987C94.5518 34.7771 94.4268 34.8163 94.2713 34.8163C94.1137 34.8163 93.9882 34.7771 93.8943 34.6987C93.8005 34.6204 93.7536 34.521 93.7536 34.4006ZM97.3659 37.4538C97.3659 37.3946 97.3468 37.3411 97.3081 37.2933C97.2699 37.2455 97.1984 37.2015 97.0942 37.1614C96.9916 37.1194 96.8438 37.0811 96.6495 37.0467C96.475 37.0123 96.3118 36.9693 96.1607 36.9177C96.0112 36.8642 95.8814 36.8002 95.7706 36.7257C95.662 36.6511 95.5769 36.5632 95.5147 36.4619C95.4531 36.3587 95.422 36.2411 95.422 36.1093C95.422 35.9793 95.4531 35.857 95.5147 35.7423C95.5791 35.6276 95.6697 35.5263 95.7864 35.4384C95.9059 35.3486 96.051 35.2788 96.2213 35.2291C96.3942 35.1775 96.5879 35.1517 96.8034 35.1517C97.1035 35.1517 97.3615 35.1947 97.577 35.2807C97.7942 35.3667 97.9606 35.4852 98.0757 35.6362C98.193 35.7853 98.2514 35.9554 98.2514 36.1465H97.3304C97.3304 36.0662 97.3113 35.9946 97.2732 35.9315C97.2371 35.8665 97.1793 35.8159 97.1007 35.7796C97.0238 35.7413 96.9234 35.7222 96.8001 35.7222C96.6976 35.7222 96.6092 35.7385 96.5344 35.771C96.4602 35.8015 96.4024 35.8436 96.362 35.8971C96.3238 35.9487 96.3047 36.0061 96.3047 36.0691C96.3047 36.1169 96.3151 36.1599 96.3364 36.1981C96.3598 36.2345 96.3975 36.2679 96.4482 36.2985C96.4995 36.329 96.5655 36.3577 96.6468 36.3845C96.7298 36.4093 96.8318 36.4323 96.9534 36.4533C97.2028 36.4992 97.4254 36.5594 97.6218 36.6339C97.8176 36.7065 97.9731 36.8059 98.0883 36.932C98.2034 37.0563 98.2612 37.2197 98.2612 37.4223C98.2612 37.5599 98.2268 37.6861 98.1586 37.8007C98.0904 37.9154 97.9922 38.0158 97.8646 38.1018C97.7369 38.1858 97.583 38.2518 97.4041 38.2996C97.2273 38.3454 97.0282 38.3684 96.8067 38.3684C96.4848 38.3684 96.212 38.3168 95.9883 38.2136C95.7662 38.1103 95.5982 37.9795 95.4831 37.8208C95.3701 37.6602 95.3134 37.4959 95.3134 37.3277H96.1863C96.1907 37.4405 96.2224 37.5312 96.2824 37.6001C96.344 37.6689 96.4215 37.7186 96.5153 37.7491C96.6114 37.7797 96.715 37.795 96.8258 37.795C96.9447 37.795 97.044 37.7807 97.1231 37.752C97.2017 37.7214 97.2617 37.6813 97.3021 37.6316C97.3446 37.58 97.3659 37.5207 97.3659 37.4538ZM100.553 35.2091V35.7939H98.5389V35.2091H100.553ZM99.0376 34.4436H99.9585V37.3764C99.9585 37.4662 99.9711 37.5351 99.9967 37.5828C100.025 37.6306 100.065 37.6641 100.118 37.6832C100.172 37.7004 100.239 37.709 100.32 37.709C100.377 37.709 100.428 37.7071 100.473 37.7033C100.52 37.6975 100.559 37.6918 100.591 37.6861L100.595 38.2938C100.516 38.3168 100.43 38.3349 100.339 38.3483C100.247 38.3617 100.146 38.3684 100.035 38.3684C99.8325 38.3684 99.6557 38.3387 99.5046 38.2795C99.3551 38.2183 99.24 38.1209 99.1592 37.9871C99.0785 37.8533 99.0376 37.6775 99.0376 37.4596V34.4436ZM102.67 38.3684C102.401 38.3684 102.16 38.3302 101.947 38.2537C101.734 38.1754 101.553 38.0674 101.403 37.9297C101.256 37.7922 101.144 37.6325 101.064 37.451C100.986 37.2675 100.946 37.0726 100.946 36.8661V36.7514C100.946 36.5163 100.984 36.3013 101.058 36.1064C101.133 35.9114 101.24 35.7423 101.378 35.5989C101.518 35.4556 101.689 35.3457 101.889 35.2692C102.09 35.1909 102.315 35.1517 102.567 35.1517C102.812 35.1517 103.03 35.188 103.219 35.2606C103.409 35.3333 103.568 35.4365 103.695 35.5703C103.826 35.7041 103.923 35.8646 103.99 36.0519C104.056 36.2373 104.089 36.4437 104.089 36.6712V37.0152H101.339V36.4648H103.184V36.4017C103.184 36.287 103.161 36.1848 103.114 36.0949C103.069 36.0032 103.001 35.9306 102.909 35.877C102.817 35.8235 102.7 35.7967 102.558 35.7967C102.436 35.7967 102.331 35.8207 102.244 35.8684C102.157 35.9162 102.085 35.9831 102.03 36.0691C101.977 36.1552 101.936 36.2564 101.908 36.373C101.883 36.4877 101.87 36.6138 101.87 36.7514V36.8661C101.87 36.9904 101.889 37.1051 101.928 37.2101C101.968 37.3152 102.025 37.4061 102.097 37.4825C102.172 37.559 102.261 37.6182 102.366 37.6602C102.472 37.7023 102.593 37.7233 102.727 37.7233C102.893 37.7233 103.048 37.6946 103.191 37.6373C103.335 37.5781 103.46 37.4892 103.564 37.3707L104.012 37.8065C103.94 37.9001 103.84 37.99 103.715 38.0759C103.591 38.162 103.442 38.2327 103.267 38.2881C103.092 38.3416 102.893 38.3684 102.67 38.3684ZM105.534 35.8857V38.311H104.613V35.2091H105.479L105.534 35.8857ZM106.576 35.189L106.56 35.9544C106.515 35.9487 106.461 35.9439 106.397 35.9401C106.335 35.9344 106.279 35.9315 106.227 35.9315C106.097 35.9315 105.985 35.9468 105.888 35.9774C105.795 36.0061 105.716 36.0491 105.652 36.1064C105.59 36.1637 105.543 36.2335 105.511 36.3157C105.481 36.3978 105.465 36.4915 105.46 36.5966L105.275 36.545C105.275 36.3444 105.297 36.1599 105.342 35.9917C105.387 35.8216 105.451 35.6735 105.537 35.5474C105.624 35.4212 105.731 35.3237 105.856 35.2549C105.982 35.1861 106.126 35.1517 106.288 35.1517C106.339 35.1517 106.392 35.1555 106.445 35.1632C106.498 35.1689 106.542 35.1775 106.576 35.189ZM108.538 38.3684C108.27 38.3684 108.029 38.3302 107.816 38.2537C107.603 38.1754 107.422 38.0674 107.273 37.9297C107.126 37.7922 107.013 37.6325 106.934 37.451C106.855 37.2675 106.815 37.0726 106.815 36.8661V36.7514C106.815 36.5163 106.853 36.3013 106.927 36.1064C107.002 35.9114 107.108 35.7423 107.247 35.5989C107.388 35.4556 107.559 35.3457 107.759 35.2692C107.959 35.1909 108.185 35.1517 108.436 35.1517C108.681 35.1517 108.899 35.188 109.088 35.2606C109.278 35.3333 109.437 35.4365 109.565 35.5703C109.695 35.7041 109.793 35.8646 109.859 36.0519C109.925 36.2373 109.958 36.4437 109.958 36.6712V37.0152H107.209V36.4648H109.053V36.4017C109.053 36.287 109.03 36.1848 108.983 36.0949C108.938 36.0032 108.87 35.9306 108.778 35.877C108.687 35.8235 108.569 35.7967 108.427 35.7967C108.305 35.7967 108.201 35.8207 108.113 35.8684C108.026 35.9162 107.955 35.9831 107.9 36.0691C107.846 36.1552 107.806 36.2564 107.778 36.373C107.752 36.4877 107.74 36.6138 107.74 36.7514V36.8661C107.74 36.9904 107.759 37.1051 107.797 37.2101C107.837 37.3152 107.894 37.4061 107.967 37.4825C108.041 37.559 108.13 37.6182 108.235 37.6602C108.341 37.7023 108.462 37.7233 108.596 37.7233C108.763 37.7233 108.917 37.6946 109.06 37.6373C109.205 37.5781 109.329 37.4892 109.434 37.3707L109.881 37.8065C109.809 37.9001 109.71 37.99 109.584 38.0759C109.46 38.162 109.311 38.2327 109.136 38.2881C108.962 38.3416 108.763 38.3684 108.538 38.3684ZM112.525 37.6345V33.9075H113.452V38.311H112.618L112.525 37.6345ZM110.338 36.7973V36.7371C110.338 36.5001 110.368 36.2851 110.428 36.092C110.488 35.8971 110.575 35.7299 110.69 35.5904C110.805 35.4508 110.947 35.3428 111.115 35.2664C111.284 35.1899 111.475 35.1517 111.691 35.1517C111.893 35.1517 112.07 35.1899 112.221 35.2664C112.375 35.3428 112.505 35.4518 112.611 35.5932C112.72 35.7328 112.808 35.8981 112.874 36.0892C112.94 36.2784 112.988 36.4858 113.017 36.7113V36.8432C112.988 37.0592 112.94 37.2599 112.874 37.4453C112.808 37.6306 112.72 37.7931 112.611 37.9326C112.505 38.0702 112.375 38.1773 112.221 38.2537C112.068 38.3302 111.889 38.3684 111.684 38.3684C111.469 38.3684 111.277 38.3292 111.109 38.2509C110.943 38.1725 110.802 38.0626 110.687 37.9211C110.574 37.7797 110.488 37.6134 110.428 37.4223C110.368 37.2312 110.338 37.0229 110.338 36.7973ZM111.259 36.7371V36.7973C111.259 36.9254 111.27 37.0448 111.291 37.1557C111.314 37.2665 111.352 37.365 111.403 37.451C111.456 37.5351 111.524 37.601 111.607 37.6488C111.693 37.6946 111.796 37.7176 111.918 37.7176C112.075 37.7176 112.205 37.6861 112.308 37.623C112.41 37.558 112.488 37.4691 112.541 37.3563C112.596 37.2436 112.629 37.1136 112.637 36.9665V36.5909C112.63 36.4705 112.611 36.3625 112.58 36.267C112.55 36.1694 112.505 36.0863 112.445 36.0175C112.388 35.9487 112.315 35.8952 112.228 35.857C112.143 35.8187 112.041 35.7996 111.924 35.7996C111.805 35.7996 111.702 35.8245 111.617 35.8742C111.532 35.922 111.463 35.9879 111.409 36.072C111.358 36.1561 111.32 36.2555 111.294 36.3701C111.271 36.4829 111.259 36.6052 111.259 36.7371Z" fill="#1C4670"/>
<g opacity="0.6">
<path d="M52.0969 49.3332C51.6904 49.3332 51.4825 49.6082 51.6353 49.9463L52.7717 52.4622C52.9245 52.8008 53.3823 53.0733 53.7887 53.0684L116.841 52.3139C116.937 52.3134 117.032 52.2948 117.119 52.2606C117.208 52.2258 117.287 52.1759 117.353 52.1133C117.419 52.0502 117.47 51.9763 117.503 51.8956C117.536 51.8144 117.551 51.7282 117.547 51.6421L117.471 50.1581C117.459 49.9805 117.373 49.8132 117.23 49.6899C117.086 49.5666 116.896 49.4966 116.698 49.4937L52.0969 49.3332Z" fill="white"/>
</g>
<g opacity="0.6">
<path d="M51.9732 58.5411C51.5668 58.5411 51.3589 58.8161 51.5117 59.1542L52.6481 61.6701C52.8009 62.0082 53.2586 62.2807 53.6651 62.2758L116.717 61.5213C116.813 61.5203 116.908 61.5022 116.996 61.468C117.084 61.4332 117.163 61.3833 117.229 61.3207C117.295 61.2576 117.346 61.1837 117.379 61.103C117.412 61.0222 117.427 60.9361 117.422 60.85L117.347 59.3655C117.335 59.1879 117.249 59.0201 117.106 58.8968C116.962 58.774 116.772 58.704 116.573 58.7011L51.9732 58.5411Z" fill="white"/>
</g>
<g opacity="0.6">
<path d="M52.1238 67.7573C51.7168 67.7573 51.5089 68.0322 51.6617 68.3703L52.7981 70.8862C52.9509 71.2243 53.4087 71.4969 53.8157 71.4925L116.867 70.7375C116.963 70.737 117.058 70.7184 117.146 70.6842C117.234 70.6494 117.314 70.5995 117.379 70.5369C117.445 70.4743 117.496 70.3999 117.53 70.3192C117.563 70.2384 117.578 70.1523 117.573 70.0662L117.497 68.5817C117.485 68.4041 117.399 68.2363 117.256 68.1135C117.113 67.9902 116.922 67.9197 116.724 67.9173L52.1238 67.7573Z" fill="white"/>
</g>
<g opacity="0.6">
<path d="M52.0815 76.2963C51.6751 76.2963 51.4672 76.5708 51.62 76.9089L52.7564 79.4253C52.9092 79.7633 53.3669 80.0359 53.7734 80.031L116.825 79.2765C116.921 79.276 117.016 79.2574 117.104 79.2232C117.192 79.1884 117.272 79.138 117.337 79.0754C117.403 79.0128 117.454 78.9389 117.488 78.8577C117.52 78.7769 117.535 78.6908 117.53 78.6047L117.455 77.1207C117.443 76.9431 117.357 76.7758 117.214 76.6525C117.07 76.5292 116.88 76.4592 116.681 76.4563L52.0815 76.2963Z" fill="white"/>
</g>
<g opacity="0.6">
<path d="M52.3305 85.4004C51.9235 85.4004 51.7157 85.6754 51.8684 86.0135L53.0049 88.5294C53.1576 88.868 53.6154 89.1405 54.0224 89.1356L117.074 88.3811C117.17 88.3806 117.264 88.362 117.353 88.3278C117.441 88.293 117.52 88.2431 117.586 88.1805C117.652 88.1174 117.703 88.0435 117.736 87.9628C117.77 87.8816 117.784 87.7954 117.78 87.7093L117.704 86.2253C117.693 86.0477 117.607 85.8804 117.463 85.7571C117.32 85.6338 117.129 85.5638 116.931 85.5609L52.3305 85.4004Z" fill="white"/>
</g>
<g opacity="0.6">
<path d="M51.9203 108.103C51.5138 108.095 51.2579 108.38 51.3518 108.735L52.0065 111.203C52.1008 111.558 52.5106 111.846 52.917 111.844L89.5106 111.605C89.6071 111.604 89.7026 111.587 89.791 111.552C89.8799 111.518 89.9601 111.469 90.0272 111.406C90.0943 111.344 90.1467 111.271 90.1816 111.19C90.2166 111.109 90.2335 111.023 90.2307 110.937L90.1871 109.452C90.1795 109.275 90.0965 109.106 89.9558 108.981C89.815 108.855 89.6262 108.782 89.4282 108.776L51.9203 108.103Z" fill="white"/>
</g>
<g opacity="0.6">
<path d="M51.9483 115.961C51.5419 115.953 51.286 116.238 51.3798 116.592L52.0345 119.061C52.1284 119.416 52.5381 119.704 52.9446 119.701L89.5378 119.463C89.6344 119.462 89.7299 119.444 89.8188 119.41C89.9072 119.376 89.9874 119.327 90.0545 119.264C90.1216 119.202 90.1745 119.129 90.2095 119.048C90.2444 118.967 90.2607 118.881 90.258 118.795L90.2144 117.31C90.2073 117.133 90.1243 116.964 89.9836 116.838C89.8428 116.713 89.6541 116.64 89.4555 116.634L51.9483 115.961Z" fill="white"/>
</g>
<path d="M98.7108 120.851C98.3027 120.851 97.8924 120.678 97.4625 120.323C95.8721 119.012 95.4634 116.996 95.3527 115.081C94.6172 115.82 93.8649 116.539 93.1212 117.25L92.7164 116.907C93.5894 116.075 94.471 115.23 95.3232 114.359C95.2523 111.727 95.3865 109.096 95.7237 106.481C95.9305 104.884 96.2278 103.194 96.9993 101.653C97.2453 101.163 97.654 100.457 98.3556 100.017C99.0872 99.5584 100.047 99.508 100.689 99.895C101.41 100.33 101.605 101.154 101.689 101.737C102.18 105.164 100.689 108.305 99.3518 110.336C98.3589 111.845 97.1569 113.225 95.8835 114.538C95.949 116.498 96.2518 118.648 97.8378 119.953C98.1728 120.229 98.4691 120.356 98.7375 120.35C99.186 120.335 99.5482 119.945 99.8434 119.567C101.176 117.856 102.224 115.981 102.953 114C103.037 113.403 103.224 112.821 103.506 112.276L104.027 112.44C103.874 113.004 103.697 113.561 103.497 114.11C103.421 114.672 103.445 115.241 103.569 115.797C103.635 116.091 103.912 117.067 104.714 117.204C105.315 117.306 105.938 116.9 106.624 115.961L109.429 112.137L109.079 113.492C108.952 113.979 108.741 115.14 109.5 115.42C109.931 115.58 110.387 115.35 110.914 115.083C111.442 114.816 111.978 114.545 112.591 114.619L112.877 114.653L112.828 114.908C112.799 115.055 112.571 116.36 113.327 116.51C113.672 116.578 113.962 116.363 114.397 116.003C114.738 115.721 115.09 115.429 115.553 115.328L115.683 115.812C115.361 115.882 115.076 116.118 114.774 116.369C114.346 116.723 113.862 117.125 113.208 116.996C112.352 116.826 112.143 115.959 112.237 115.115C111.897 115.158 111.549 115.333 111.187 115.516C110.616 115.805 109.969 116.132 109.289 115.881C108.724 115.672 108.42 115.168 108.4 114.445L107.087 116.235C106.561 116.953 105.731 117.884 104.609 117.693C103.837 117.561 103.245 116.889 103.021 115.895C102.99 115.752 102.964 115.607 102.944 115.462C102.249 117.011 101.36 118.483 100.294 119.852C99.9422 120.303 99.4489 120.825 98.7533 120.847L98.7108 120.851ZM99.6928 100.133C99.3284 100.138 98.9743 100.24 98.6753 100.426C98.0861 100.796 97.7265 101.42 97.5078 101.858C96.7669 103.338 96.4782 104.983 96.2769 106.54C95.9665 108.947 95.8295 111.371 95.8677 113.794C96.9736 112.626 98.0086 111.403 98.8761 110.084C100.169 108.12 101.612 105.089 101.14 101.802C101.031 101.029 100.788 100.555 100.381 100.309C100.176 100.19 99.9351 100.128 99.6906 100.133H99.6928Z" fill="url(#paint2_linear_1_2923)"/>
<path d="M88.7691 7.80182C86.0881 6.09911 83.7426 6.11525 82.0879 6.53995C81.3557 6.72916 80.719 7.14026 80.2875 7.70318C79.8554 8.2661 79.6546 8.94597 79.719 9.62686L80.3666 16.6002L88.8313 17.337C88.8313 17.337 94.0275 11.1402 88.7691 7.80182ZM84.992 13.3958C84.5741 13.3931 84.1666 13.2793 83.8207 13.0688C83.4748 12.8583 83.2063 12.5605 83.0498 12.2132C82.8926 11.8659 82.8539 11.4846 82.9385 11.1176C83.023 10.7506 83.2276 10.4144 83.525 10.1514C83.8228 9.88848 84.2009 9.71062 84.6112 9.64041C85.022 9.5702 85.4465 9.61076 85.8311 9.75691C86.2163 9.90311 86.5437 10.1484 86.7734 10.4617C87.0025 10.775 87.1231 11.1422 87.1198 11.517C87.1149 12.0191 86.8885 12.4991 86.4897 12.8513C86.0903 13.2036 85.5518 13.3995 84.992 13.3958Z" fill="url(#paint3_linear_1_2923)"/>
<path d="M81.0955 13.8468C81.0207 13.8219 80.9558 13.7784 80.9072 13.7215C80.8592 13.6646 80.8298 13.5966 80.8227 13.5253L80.7196 12.4147C80.7152 12.3654 80.7217 12.3158 80.7381 12.2688C80.755 12.2217 80.7823 12.1781 80.8178 12.1404C80.8532 12.1027 80.8969 12.0716 80.946 12.049C80.9951 12.0264 81.0485 12.0126 81.1031 12.0086C81.1582 12.0045 81.2133 12.0101 81.2662 12.0252C81.3186 12.0403 81.3672 12.0645 81.4092 12.0964C81.4512 12.1284 81.4861 12.1674 81.5112 12.2114C81.5363 12.2553 81.5516 12.3033 81.5559 12.3525L81.6591 13.4632C81.6683 13.5624 81.6334 13.6609 81.5619 13.737C81.4905 13.8131 81.3879 13.8607 81.2771 13.8693C81.2155 13.8734 81.1538 13.8657 81.0955 13.8468ZM80.8936 11.6705C80.8189 11.6456 80.7539 11.6022 80.7054 11.5453C80.6574 11.4883 80.6279 11.4202 80.6208 11.349L80.5422 10.506C80.4784 9.81314 80.683 9.12173 81.1227 8.54902C81.5619 7.97631 82.209 7.55753 82.9532 7.36377C83.9953 7.09511 85.0951 7.06267 86.1541 7.26934C86.2627 7.29107 86.3571 7.34998 86.4177 7.43355C86.4782 7.51707 86.4995 7.6185 86.4771 7.71606C86.4657 7.76435 86.4438 7.8102 86.4127 7.85086C86.3811 7.89157 86.3413 7.92631 86.2949 7.95317C86.2491 7.98003 86.1972 7.99843 86.1427 8.00738C86.0887 8.01629 86.033 8.01555 85.979 8.00523C85.0542 7.82463 84.094 7.85272 83.184 8.08694C82.6264 8.2326 82.1414 8.54687 81.8124 8.97646C81.4834 9.40605 81.3301 9.92445 81.3786 10.4438L81.4572 11.2869C81.4665 11.386 81.4315 11.4844 81.3601 11.5606C81.2881 11.6367 81.186 11.6843 81.0753 11.693C81.0136 11.6964 80.952 11.6879 80.8936 11.668V11.6705Z" fill="white"/>
<path d="M68.7652 21.018L68.7974 17.5142C68.8002 17.2273 68.8673 16.9439 68.9949 16.6807C69.1221 16.4176 69.3076 16.1801 69.5394 15.9825C69.7713 15.7848 70.0452 15.6311 70.3447 15.5303C70.6442 15.4296 70.9634 15.3839 71.2826 15.3961L98.2088 16.4236C98.7855 16.4455 99.3327 16.6597 99.7425 17.0241C100.153 17.3885 100.396 17.877 100.426 18.3939L100.62 21.7617L68.7652 21.018Z" fill="url(#paint4_linear_1_2923)"/>
<path d="M77.6877 16.7995C77.6228 16.7987 77.5612 16.7749 77.5164 16.7333C77.4711 16.6918 77.446 16.6358 77.4471 16.5779C77.4482 16.5198 77.4744 16.4645 77.5208 16.424C77.5672 16.3836 77.6294 16.3613 77.6943 16.3621L78.8526 16.3704C78.8848 16.3703 78.9164 16.376 78.9464 16.3871C78.9759 16.3982 79.0026 16.4145 79.025 16.4351C79.0479 16.4556 79.0653 16.48 79.0773 16.5068C79.0894 16.5336 79.0948 16.5622 79.0943 16.5911C79.0937 16.6198 79.0872 16.6482 79.0746 16.6746C79.0621 16.7011 79.0441 16.725 79.0212 16.7451C78.9982 16.7653 78.9715 16.7812 78.9415 16.7919C78.912 16.8027 78.8804 16.8081 78.8482 16.8078L77.6899 16.7995H77.6877Z" fill="white"/>
<path d="M70.0877 20.0976C70.007 20.0706 69.9377 20.022 69.8886 19.9583C69.84 19.8947 69.8144 19.8191 69.8149 19.7419L69.828 18.323C69.8335 17.7451 70.0943 17.1927 70.5537 16.7875C71.0131 16.3822 71.6334 16.1571 72.2777 16.1618L76.5333 16.1936C76.6419 16.1979 76.7444 16.2398 76.8197 16.3106C76.8945 16.3814 76.9359 16.4755 76.9348 16.5732C76.9343 16.6708 76.8912 16.7643 76.8148 16.834C76.7384 16.9037 76.6348 16.944 76.5262 16.9466L72.2706 16.9143C71.8489 16.9117 71.443 17.0593 71.1424 17.3245C70.8417 17.5898 70.671 17.9511 70.6672 18.3294L70.6541 19.7483C70.6535 19.8089 70.6366 19.8684 70.605 19.9218C70.5728 19.9753 70.5275 20.0211 70.4718 20.0554C70.4162 20.0897 70.3518 20.1114 70.2847 20.1188C70.2181 20.1261 70.1499 20.1189 70.0867 20.0976H70.0877Z" fill="white"/>
<path d="M60.3387 19.6728L107.435 20.0207C108.255 20.0267 109.047 20.2923 109.67 20.7707C110.293 21.2491 110.708 21.9095 110.841 22.6354L110.879 22.8424C110.95 23.2281 110.926 23.6229 110.809 23.9993C110.691 24.3757 110.484 24.7245 110.2 25.0214C109.917 25.3183 109.565 25.5561 109.168 25.7181C108.771 25.88 108.34 25.9623 107.904 25.9591L59.5869 25.601C59.3239 25.599 59.0636 25.5492 58.823 25.4545C58.5819 25.3598 58.3647 25.2222 58.1847 25.0501C58.0047 24.8779 57.8655 24.6748 57.7761 24.453C57.686 24.2312 57.6473 23.9954 57.662 23.7598L57.7837 21.8213C57.8202 21.2374 58.1061 20.6886 58.5819 20.2886C59.0576 19.8886 59.6867 19.6681 60.3387 19.6728Z" fill="url(#paint5_linear_1_2923)"/>
<path d="M49.272 130.844C49.272 130.844 48.9359 132.458 48.7624 134.061C48.7469 134.21 48.765 134.359 48.8158 134.502C48.8665 134.644 48.9488 134.775 49.0576 134.887C49.1665 135 49.2996 135.092 49.4491 135.157C49.5985 135.222 49.7611 135.26 49.9272 135.267C52.306 135.377 57.3947 135.593 59.2219 135.536C59.2857 135.534 59.3479 135.518 59.4035 135.49C59.4592 135.462 59.5067 135.422 59.5416 135.374C59.577 135.326 59.5983 135.271 59.6049 135.214C59.612 135.157 59.6032 135.1 59.5798 135.046C59.4968 134.854 59.3343 134.697 59.1258 134.609L50.7543 131.071L49.272 130.844Z" fill="url(#paint6_linear_1_2923)"/>
<path d="M49.0204 129.89L49.2561 131.829C49.2561 131.829 50.7226 132.456 51.7358 131.772L51.1487 129.612L49.0204 129.89Z" fill="url(#paint7_linear_1_2923)"/>
<path d="M49.6024 93.4863C49.4868 93.9913 48.7399 118.717 51.5698 129.824C51.5931 129.911 51.5806 130.003 51.5346 130.083C51.4887 130.163 51.4123 130.226 51.3194 130.26C50.5495 130.519 49.7362 130.66 48.9139 130.676C48.7542 130.679 48.5979 130.634 48.4695 130.549C48.3412 130.464 48.248 130.343 48.2046 130.205C47.3863 127.627 43.4886 114.71 43.0931 102.399C42.6511 88.6424 43.098 101.93 43.098 101.93L43.5344 93.4335L49.6024 93.4863Z" fill="url(#paint8_linear_1_2923)"/>
<path d="M39.5904 131.606C39.5904 131.606 39.0743 132.418 38.5598 134.586C38.5374 134.678 38.5369 134.774 38.5584 134.867C38.58 134.959 38.623 135.047 38.6848 135.123C38.7466 135.2 38.8257 135.264 38.9169 135.311C39.0082 135.359 39.1096 135.389 39.2145 135.399C39.9996 135.474 41.2086 135.574 42.1776 135.576C42.283 135.577 42.3874 135.558 42.4839 135.519C42.5804 135.481 42.6669 135.425 42.7377 135.355C42.8084 135.285 42.8619 135.202 42.8946 135.112C42.9272 135.023 42.9383 134.927 42.9272 134.833C42.8279 134.04 42.5077 132.736 41.4852 131.714L39.5904 131.606Z" fill="url(#paint9_linear_1_2923)"/>
<path d="M39.1709 129.111L39.7389 132.045C39.7389 132.045 40.3265 132.444 41.5 132.168L41.2479 129.015L39.1709 129.111Z" fill="url(#paint10_linear_1_2923)"/>
<path d="M37.927 94.1454C35.3775 107.173 38.107 126.398 39.0563 130.165C39.0844 130.277 39.149 130.38 39.242 130.46C39.335 130.54 39.4522 130.594 39.579 130.614C40.0198 130.683 40.7466 130.743 41.4656 130.563C41.5862 130.532 41.6931 130.469 41.7714 130.381C41.8497 130.293 41.8954 130.186 41.9021 130.074C42.0658 127.037 42.027 108.383 44.3518 101.031C44.4693 100.658 44.7273 100.334 45.0818 100.113L49.471 97.3732L49.8529 92.8831L37.927 94.1454Z" fill="url(#paint11_linear_1_2923)"/>
<path d="M53.5499 69.5539C46.3269 69.3851 38.3362 71.125 38.3362 71.125C36.0628 82.3752 37.7012 95.3882 37.7012 95.3882C43.2803 96.7514 49.6124 94.6856 49.6124 94.6856C50.5944 89.9836 55.0683 76.765 55.0683 76.765C58.6021 76.4025 61.5199 75.5139 63.927 74.3269C62.1206 72.4123 61.2853 69.9889 60.9263 68.5577C58.3669 69.2476 55.7781 69.6058 53.5499 69.5539Z" fill="url(#paint12_linear_1_2923)"/>
<path d="M74.9909 60.1939C74.2893 59.4189 73.3874 59.7746 73.3874 59.7746C72.2815 63.7931 66.6724 67.0111 60.9285 68.5582C61.2869 69.9894 62.1222 72.4128 63.9292 74.3274C73.484 69.6161 74.9909 60.1939 74.9909 60.1939Z" fill="url(#paint13_linear_1_2923)"/>
<path d="M74.8174 60.3876C74.8894 60.6 74.0258 60.9151 73.5287 60.0451C73.5157 59.6302 73.2527 57.8497 73.5331 57.514C75.0247 55.7262 77.9043 53.4936 77.9043 53.4936C78.3823 53.9247 77.9802 54.3405 77.9802 54.3405L76.5813 55.623C76.8661 56.0946 77.2153 56.4944 77.3746 57.0634C77.4913 57.4979 77.4171 57.9559 77.1673 58.3429C76.9201 58.7343 76.5829 59.2412 76.2654 59.6385C75.6636 60.3891 74.8174 60.3876 74.8174 60.3876Z" fill="url(#paint14_linear_1_2923)"/>
<path d="M75.9664 56.4562L74.6941 57.405L74.2876 58.3571L75.4012 59.4864C75.4012 59.4864 75.7995 57.5938 76.0854 57.1867C76.3712 56.7797 76.2272 56.5786 75.9664 56.4562Z" fill="url(#paint15_linear_1_2923)"/>
<path d="M41.0401 77.4226L38.3362 71.1255C38.3362 71.1255 31.5442 75.1797 30.3789 80.3833C31.6533 80.4787 33.9704 80.7957 36.2303 81.8438C36.7557 79.3861 41.0401 77.4226 41.0401 77.4226Z" fill="url(#paint16_linear_1_2923)"/>
<path d="M46.8744 83.3743C46.8744 83.3743 39.2569 87.1496 36.7358 83.8489C36.212 83.1639 36.0925 82.4858 36.23 81.8428C33.9702 80.7948 31.6531 80.4777 30.3786 80.3823C30.0273 81.9515 30.1866 83.6243 31.197 85.3241C35.5966 92.7084 47.8575 85.0609 47.8575 85.0609L46.8744 83.3743Z" fill="url(#paint17_linear_1_2923)"/>
<path d="M46.288 64.231L43.9283 70.1733C43.9094 70.2213 43.91 70.2736 43.9299 70.3211C43.9499 70.3686 43.988 70.4082 44.0374 70.4331C44.6605 70.7487 46.9083 71.6661 49.6455 70.1425C49.7867 70.0647 49.9072 69.9605 49.9983 69.8362C50.0894 69.7124 50.1488 69.5715 50.1725 69.4247L50.9663 64.2711L46.288 64.231Z" fill="url(#paint18_linear_1_2923)"/>
<path d="M51.3483 58.7534C51.3483 58.7534 53.8274 63.0361 53.4853 64.7545C53.1432 66.4729 50.0165 66.3202 47.2995 64.9013L45.4396 60.2839L51.3483 58.7534Z" fill="url(#paint19_linear_1_2923)"/>
<path d="M47.4447 62.6433C47.4708 62.633 47.4942 62.6178 47.5133 62.5992C47.5323 62.5801 47.5465 62.5576 47.5549 62.5332C47.5633 62.5087 47.5656 62.4828 47.5617 62.4578C47.5579 62.4324 47.5479 62.4084 47.5325 62.3869C47.3334 62.1085 46.9602 61.5399 46.8445 61.0438C46.8445 61.0438 46.3933 60.7796 48.0061 60.4478C49.6188 60.1161 52.0232 59.6009 52.5404 58.3772C53.0451 57.1838 51.7853 54.162 49.6985 56.5433C49.6802 56.5644 49.6568 56.5815 49.6299 56.5937C49.603 56.6055 49.5735 56.6118 49.5435 56.6118C49.5136 56.6118 49.484 56.6055 49.4572 56.5937C49.4303 56.5815 49.4068 56.5644 49.3886 56.5433C49.0547 56.146 48.1752 55.3201 46.9367 55.8055C45.7779 56.26 45.6399 57.017 45.6513 57.3996C45.6524 57.4255 45.6468 57.4519 45.635 57.4759C45.6232 57.4999 45.6054 57.5214 45.583 57.5385C45.5606 57.5552 45.5342 57.5674 45.5058 57.5742C45.4774 57.5806 45.4476 57.5811 45.4189 57.5762C44.8368 57.4715 43.4373 57.3741 42.7701 58.6565C42.2207 59.7129 42.5638 60.3162 42.8792 60.6137C42.9027 60.6352 42.9194 60.6621 42.9279 60.6915C42.9363 60.7208 42.9362 60.7512 42.9274 60.7805C42.9187 60.8099 42.9017 60.8363 42.878 60.8579C42.8544 60.8799 42.8249 60.8955 42.7924 60.9038C42.4105 61.0056 41.9097 61.2953 41.9506 62.0992C42.0052 63.2138 43.397 63.1267 43.7925 63.0777C43.8244 63.0733 43.8568 63.0763 43.8871 63.0861C43.9173 63.0963 43.9444 63.1125 43.966 63.134C44.3015 63.4736 45.8134 64.915 47.4648 65.1014C47.4978 65.1048 47.5313 65.1004 47.562 65.0892C47.5928 65.0779 47.6198 65.0598 47.6407 65.0368C47.6616 65.0133 47.6757 64.9859 47.6815 64.9566C47.6874 64.9272 47.6849 64.8969 47.6743 64.869L46.9787 62.998C46.9633 62.9559 46.9659 62.9104 46.9861 62.8698C47.0063 62.8297 47.0426 62.7974 47.0878 62.7803L47.4447 62.6433Z" fill="url(#paint20_linear_1_2923)"/>
<path d="M47.7293 62.9104C47.7293 62.9104 45.9436 61.7895 45.8023 62.7196C45.661 63.6497 47.4063 64.0822 48.2766 63.7427L47.7293 62.9104Z" fill="url(#paint21_linear_1_2923)"/>
<path d="M45.3182 89.3441L49.4647 76.3486C49.4875 76.2762 49.5336 76.2121 49.5972 76.1632C49.6608 76.1148 49.7391 76.0844 49.822 76.0756C50.5739 75.9968 52.7523 75.7762 55.2675 75.5863C58.2971 75.3564 61.8145 75.1704 63.9183 75.329C63.987 75.3339 64.0536 75.3539 64.1119 75.3872C64.1703 75.4205 64.2189 75.466 64.2533 75.5198C64.2871 75.5741 64.3062 75.6348 64.3084 75.6964C64.31 75.7586 64.2953 75.8202 64.2647 75.876C63.0693 78.045 58.1542 86.8688 55.6887 89.7595C55.6488 89.8065 55.597 89.8446 55.5375 89.871C55.4781 89.897 55.4126 89.9107 55.3466 89.9102L45.7192 89.8299C45.654 89.829 45.5899 89.8148 45.5319 89.7879C45.4738 89.7609 45.4235 89.7228 45.3847 89.6758C45.3459 89.6288 45.3197 89.5745 45.3081 89.5168C45.2966 89.4591 45.3001 89.3999 45.3182 89.3441Z" fill="url(#paint22_linear_1_2923)"/>
<path d="M46.3201 86.2023C46.3201 86.2023 45.7424 84.071 45.9753 83.3155C46.2083 82.5601 46.66 81.5869 48.1659 81.8032C49.6717 82.0194 51.448 82.586 51.448 82.586C51.448 82.586 51.3586 83.571 50.2139 83.2534L50.9232 83.7456C50.9232 83.7456 50.8218 84.5344 49.855 84.1131L50.5151 84.7663C50.5151 84.7663 50.0999 85.4141 49.3885 84.9987C48.677 84.5833 48.3371 86.4592 46.3201 86.2023Z" fill="url(#paint23_linear_1_2923)"/>
<path d="M54.9933 79.4629C54.9933 79.6792 55.0645 79.8906 55.1987 80.0701C55.3324 80.2497 55.5228 80.3896 55.7454 80.4723C55.968 80.555 56.213 80.577 56.4492 80.535C56.6854 80.4924 56.9026 80.3887 57.0728 80.2355C57.2436 80.0829 57.3592 79.8881 57.4067 79.6763C57.4536 79.4644 57.4296 79.2447 57.3369 79.0451C57.2447 78.8455 57.0886 78.6747 56.8884 78.5548C56.6882 78.4345 56.4525 78.3704 56.2113 78.3704C56.0515 78.3704 55.8932 78.3987 55.7454 78.4535C55.5975 78.5083 55.4633 78.5891 55.3498 78.6904C55.2369 78.7921 55.1469 78.9125 55.0858 79.0451C55.0247 79.1777 54.9932 79.3196 54.9933 79.4629Z" fill="url(#paint24_linear_1_2923)"/>
<path d="M49.9473 80.1856L50.7924 77.6159C50.8409 77.4642 50.9345 77.3272 51.063 77.2195C51.1916 77.1119 51.3504 77.0375 51.5224 77.0043C54.1685 76.5091 61.4162 76.4039 61.4893 76.4029L61.4833 76.0922C61.1849 76.0961 54.1303 76.1989 51.4515 76.6999C51.2182 76.7449 51.0028 76.8452 50.8283 76.991C50.6537 77.1368 50.5265 77.3223 50.4602 77.5278L49.615 80.096L49.9473 80.1856Z" fill="white"/>
<path d="M121.777 59.619C121.777 59.619 123.707 60.461 124.061 61.4293C124.346 62.2048 126.479 62.3046 126.69 63.8307C126.799 64.6185 127.449 65.2497 128.324 65.3695C130.503 65.669 133.861 66.6838 134.397 70.0765C134.808 72.6658 133.336 73.6482 131.791 73.9878C130.656 74.2373 129.902 75.2272 130.132 76.2547C130.35 77.2396 130.022 78.3791 128.12 79.2799C123.855 81.2982 119.595 74.4976 119.595 74.4976L118.722 62.6232L121.777 59.619Z" fill="url(#paint25_linear_1_2923)"/>
<path d="M139.31 134.076L139.587 136.111C139.612 136.298 139.707 136.473 139.856 136.606C140.005 136.739 140.2 136.823 140.409 136.845C141.136 136.919 142.304 136.996 143.446 136.887C143.564 136.876 143.677 136.84 143.778 136.784C143.879 136.728 143.964 136.653 144.029 136.564C144.093 136.474 144.135 136.373 144.15 136.268C144.166 136.162 144.156 136.055 144.12 135.954C143.842 135.168 143.332 133.989 142.598 133.295H140.08C139.97 133.295 139.862 133.316 139.762 133.356C139.661 133.397 139.572 133.456 139.499 133.53C139.426 133.604 139.372 133.691 139.339 133.785C139.307 133.879 139.297 133.978 139.31 134.076Z" fill="url(#paint26_linear_1_2923)"/>
<path d="M119.594 110.236L119.169 112.478C119.169 112.478 120.592 125.402 120.845 130.572C120.884 131.383 120.651 132.184 120.176 132.874L117.703 136.477L123.99 133.15L124.115 132.462L123.086 131.193L124.434 116.714C124.514 115.863 124.318 115.01 123.87 114.257L122.57 112.066L119.594 110.236Z" fill="url(#paint27_linear_1_2923)"/>
<path d="M117.288 137H119.295C119.481 137 119.663 136.963 119.829 136.889C119.996 136.817 120.141 136.71 120.254 136.578C120.88 135.85 122.175 134.425 122.795 134.39C123.629 134.341 123.522 137 123.522 137H123.99L124.582 133.695C124.655 133.29 124.584 132.874 124.378 132.507C124.172 132.14 123.843 131.84 123.437 131.65C123.437 131.65 123.246 132.915 122.212 133.474C121.178 134.033 118.004 136.037 118.004 136.037C117.732 136.009 117.457 136.016 117.186 136.057C116.556 136.159 116.645 137 117.288 137Z" fill="url(#paint28_linear_1_2923)"/>
<path d="M128.207 111.302C128.207 111.302 136.542 125.481 137.867 128.72C139.192 131.959 139.656 134.658 139.674 134.914C139.702 135.314 140.256 135.697 141.784 135.697C142.572 135.697 142.958 135.414 143.148 135.139C143.226 135.023 143.27 134.891 143.276 134.756C143.281 134.621 143.249 134.487 143.181 134.365C142.699 133.49 141.169 130.696 140.602 129.423C139.925 127.907 138.47 121.046 137.672 118.659C136.874 116.272 135.971 113.685 132.496 111.301C132.496 111.302 130.11 109.206 128.207 111.302Z" fill="url(#paint29_linear_1_2923)"/>
<path d="M122.941 88.067C120.791 79.896 126.238 75.2746 126.238 75.2746C122.801 72.3164 116.539 70.9689 116.539 70.9689C116.539 70.9689 110.564 74.8866 111.272 77.953C111.688 79.7501 115.473 88.7173 115.473 88.7173C115.473 88.7173 118.972 90.2047 122.941 88.067Z" fill="url(#paint30_linear_1_2923)"/>
<path d="M127.708 92.1119C126.835 89.7482 122.941 88.067 122.941 88.067C118.972 90.2047 115.473 88.7192 115.473 88.7192C115.473 88.7192 114.688 91.4103 115.229 93.9096C115.771 96.4088 119.17 112.478 119.17 112.478C124.525 113.451 132.76 111.499 132.76 111.499C129.349 106.068 128.583 94.4762 127.708 92.1119Z" fill="url(#paint31_linear_1_2923)"/>
<path d="M120.445 65.5706L122.191 72.6129C122.359 73.2328 121.728 73.1316 121.029 73.0132C119.883 72.8174 118.41 72.4206 117.914 71.6216C117.866 71.5389 117.836 71.4489 117.825 71.3564L117.074 66.4734C117.045 66.2845 117.085 66.0927 117.188 65.9263C117.291 65.76 117.452 65.6284 117.646 65.5515L119.096 64.9752C119.227 64.9223 119.369 64.8964 119.513 64.8988C119.656 64.9013 119.798 64.9321 119.926 64.9889C120.055 65.0456 120.168 65.1273 120.258 65.2276C120.348 65.3284 120.411 65.4454 120.445 65.5706Z" fill="url(#paint32_linear_1_2923)"/>
<path d="M126.238 75.2747C126.238 75.2747 138.439 83.1032 127.798 91.3291C127.798 91.3291 127.393 91.7406 126.595 91.9549C126.191 92.0625 124.999 92.8713 124.395 93.2931C124.349 93.3249 124.297 93.3479 124.24 93.3601C124.184 93.3728 124.125 93.3743 124.068 93.365C124.011 93.3557 123.957 93.3362 123.909 93.3068C123.861 93.2774 123.82 93.2393 123.79 93.1952C123.739 93.1233 123.71 93.0406 123.704 92.956C123.699 92.8708 123.717 92.7857 123.757 92.7089L125.268 89.8441C125.471 89.6743 125.735 89.575 126.012 89.5642C126.29 89.5535 126.562 89.6323 126.781 89.7854C126.848 89.8334 126.927 89.8671 127.01 89.8838C127.094 89.9009 127.181 89.9014 127.264 89.8842C127.349 89.8671 127.427 89.8338 127.494 89.7859C127.561 89.7384 127.616 89.6778 127.654 89.6088C128.476 88.1062 130.03 83.6884 123.671 78.6943C123.556 78.6028 123.478 78.479 123.45 78.3425C123.422 78.2065 123.447 78.066 123.519 77.9437C123.966 77.1746 124.987 75.6465 126.238 75.2747Z" fill="url(#paint33_linear_1_2923)"/>
<path d="M117.096 59.1507C117.096 59.1507 115.235 60.281 114.436 63.158C113.636 66.035 114.935 67.0669 116.268 67.0037C117.6 66.9406 119.531 66.5712 121.205 64.5084C122.879 62.4456 119.535 57.7704 117.096 59.1507Z" fill="url(#paint34_linear_1_2923)"/>
<path d="M119.517 63.3468C119.517 63.3468 120.199 59.2241 116.382 59.8543L115.611 60.5736C115.611 60.5736 113.743 58.6869 115.81 57.2606C117.877 55.8343 120.746 56.1994 122.334 58.796C123.921 61.3926 124.497 63.2172 123.167 64.8304C121.836 66.4435 120.835 65.0603 120.835 65.0603C120.835 65.0603 121.445 63.6639 120.939 63.0645C120.433 62.4651 119.78 63.4129 119.78 63.4129L119.517 63.3468Z" fill="url(#paint35_linear_1_2923)"/>
<path d="M120.038 63.6996C120.038 63.6996 120.374 61.5786 121.582 62.1828C122.79 62.7871 121.146 64.1644 120.488 64.6322L120.038 63.6996Z" fill="url(#paint36_linear_1_2923)"/>
</g>
<defs>
<linearGradient id="paint0_linear_1_2923" x1="118.588" y1="31.2496" x2="30.0538" y2="182.992" gradientUnits="userSpaceOnUse">
<stop stop-color="#2B3582"/>
<stop offset="1" stop-color="#150E42"/>
</linearGradient>
<linearGradient id="paint1_linear_1_2923" x1="96.296" y1="58.634" x2="17.013" y2="197.508" gradientUnits="userSpaceOnUse">
<stop stop-color="#53D8FF"/>
<stop offset="1" stop-color="#3840F7"/>
</linearGradient>
<linearGradient id="paint2_linear_1_2923" x1="92.7164" y1="110.245" x2="115.688" y2="110.245" gradientUnits="userSpaceOnUse">
<stop stop-color="#2B3582"/>
<stop offset="1" stop-color="#150E42"/>
</linearGradient>
<linearGradient id="paint3_linear_1_2923" x1="102.961" y1="4.87513" x2="54.7747" y2="28.9872" gradientUnits="userSpaceOnUse">
<stop stop-color="#2B3582"/>
<stop offset="1" stop-color="#150E42"/>
</linearGradient>
<linearGradient id="paint4_linear_1_2923" x1="100.908" y1="0.45904" x2="70.7765" y2="43.8965" gradientUnits="userSpaceOnUse">
<stop stop-color="#2B3582"/>
<stop offset="1" stop-color="#150E42"/>
</linearGradient>
<linearGradient id="paint5_linear_1_2923" x1="96.5579" y1="2.90405" x2="76.2568" y2="43.6539" gradientUnits="userSpaceOnUse">
<stop stop-color="#2B3582"/>
<stop offset="1" stop-color="#150E42"/>
</linearGradient>
<linearGradient id="paint6_linear_1_2923" x1="59.0113" y1="128.638" x2="31.4763" y2="161.41" gradientUnits="userSpaceOnUse">
<stop stop-color="#2B3582"/>
<stop offset="1" stop-color="#150E42"/>
</linearGradient>
<linearGradient id="paint7_linear_1_2923" x1="48.9944" y1="130.784" x2="51.7292" y2="130.813" gradientUnits="userSpaceOnUse">
<stop stop-color="#F9B776"/>
<stop offset="1" stop-color="#F47960"/>
</linearGradient>
<linearGradient id="paint8_linear_1_2923" x1="30.5064" y1="143.584" x2="52.4268" y2="92.6334" gradientUnits="userSpaceOnUse">
<stop stop-color="#53D8FF"/>
<stop offset="1" stop-color="#3840F7"/>
</linearGradient>
<linearGradient id="paint9_linear_1_2923" x1="52.1644" y1="122.884" x2="24.6279" y2="155.657" gradientUnits="userSpaceOnUse">
<stop stop-color="#2B3582"/>
<stop offset="1" stop-color="#150E42"/>
</linearGradient>
<linearGradient id="paint10_linear_1_2923" x1="39.139" y1="130.575" x2="41.5002" y2="130.6" gradientUnits="userSpaceOnUse">
<stop stop-color="#F9B776"/>
<stop offset="1" stop-color="#F47960"/>
</linearGradient>
<linearGradient id="paint11_linear_1_2923" x1="24.487" y1="140.994" x2="46.4072" y2="90.0441" gradientUnits="userSpaceOnUse">
<stop stop-color="#53D8FF"/>
<stop offset="1" stop-color="#3840F7"/>
</linearGradient>
<linearGradient id="paint12_linear_1_2923" x1="80.3109" y1="108.495" x2="116.431" y2="146.924" gradientUnits="userSpaceOnUse">
<stop stop-color="#FDF53F"/>
<stop offset="1" stop-color="#D93C65"/>
</linearGradient>
<linearGradient id="paint13_linear_1_2923" x1="60.923" y1="66.8937" x2="74.8951" y2="67.0409" gradientUnits="userSpaceOnUse">
<stop stop-color="#F9B776"/>
<stop offset="1" stop-color="#F47960"/>
</linearGradient>
<linearGradient id="paint14_linear_1_2923" x1="71.7812" y1="64.9825" x2="63.8046" y2="84.6823" gradientUnits="userSpaceOnUse">
<stop stop-color="#F9B776"/>
<stop offset="1" stop-color="#F47960"/>
</linearGradient>
<linearGradient id="paint15_linear_1_2923" x1="74.9178" y1="58.5401" x2="78.3129" y2="52.8376" gradientUnits="userSpaceOnUse">
<stop stop-color="#F9B776"/>
<stop offset="1" stop-color="#F47960"/>
</linearGradient>
<linearGradient id="paint16_linear_1_2923" x1="76.6462" y1="111.94" x2="112.767" y2="150.369" gradientUnits="userSpaceOnUse">
<stop stop-color="#FDF53F"/>
<stop offset="1" stop-color="#D93C65"/>
</linearGradient>
<linearGradient id="paint17_linear_1_2923" x1="30.1629" y1="84.3822" x2="47.8436" y2="84.5678" gradientUnits="userSpaceOnUse">
<stop stop-color="#F9B776"/>
<stop offset="1" stop-color="#F47960"/>
</linearGradient>
<linearGradient id="paint18_linear_1_2923" x1="42.5747" y1="75.7169" x2="49.7652" y2="61.7728" gradientUnits="userSpaceOnUse">
<stop stop-color="#F9B776"/>
<stop offset="1" stop-color="#F47960"/>
</linearGradient>
<linearGradient id="paint19_linear_1_2923" x1="52.6219" y1="62.7426" x2="45.459" y2="57.7937" gradientUnits="userSpaceOnUse">
<stop stop-color="#F9B776"/>
<stop offset="1" stop-color="#F47960"/>
</linearGradient>
<linearGradient id="paint20_linear_1_2923" x1="48.9827" y1="52.4969" x2="45.6853" y2="70.547" gradientUnits="userSpaceOnUse">
<stop stop-color="#CB236D"/>
<stop offset="1" stop-color="#4C246D"/>
</linearGradient>
<linearGradient id="paint21_linear_1_2923" x1="50.5925" y1="64.2966" x2="44.1475" y2="59.844" gradientUnits="userSpaceOnUse">
<stop stop-color="#F9B776"/>
<stop offset="1" stop-color="#F47960"/>
</linearGradient>
<linearGradient id="paint22_linear_1_2923" x1="52.6062" y1="74.3543" x2="60.5381" y2="111.206" gradientUnits="userSpaceOnUse">
<stop stop-color="#2B3582"/>
<stop offset="1" stop-color="#150E42"/>
</linearGradient>
<linearGradient id="paint23_linear_1_2923" x1="45.9202" y1="83.9991" x2="51.448" y2="83.9991" gradientUnits="userSpaceOnUse">
<stop stop-color="#F9B776"/>
<stop offset="1" stop-color="#F47960"/>
</linearGradient>
<linearGradient id="paint24_linear_1_2923" x1="56.5376" y1="78.2422" x2="55.3525" y2="83.75" gradientUnits="userSpaceOnUse">
<stop stop-color="#53D8FF"/>
<stop offset="1" stop-color="#3840F7"/>
</linearGradient>
<linearGradient id="paint25_linear_1_2923" x1="134.334" y1="78.5054" x2="115.047" y2="56.999" gradientUnits="userSpaceOnUse">
<stop stop-color="#CB236D"/>
<stop offset="1" stop-color="#4C246D"/>
</linearGradient>
<linearGradient id="paint26_linear_1_2923" x1="159.768" y1="112.251" x2="135.424" y2="150.573" gradientUnits="userSpaceOnUse">
<stop stop-color="#53D8FF"/>
<stop offset="1" stop-color="#3840F7"/>
</linearGradient>
<linearGradient id="paint27_linear_1_2923" x1="118.798" y1="152.282" x2="124.423" y2="78.978" gradientUnits="userSpaceOnUse">
<stop stop-color="#F9B776"/>
<stop offset="1" stop-color="#F47960"/>
</linearGradient>
<linearGradient id="paint28_linear_1_2923" x1="146.385" y1="103.749" x2="122.041" y2="142.071" gradientUnits="userSpaceOnUse">
<stop stop-color="#53D8FF"/>
<stop offset="1" stop-color="#3840F7"/>
</linearGradient>
<linearGradient id="paint29_linear_1_2923" x1="132.847" y1="153.372" x2="138.473" y2="80.0476" gradientUnits="userSpaceOnUse">
<stop stop-color="#F9B776"/>
<stop offset="1" stop-color="#F47960"/>
</linearGradient>
<linearGradient id="paint30_linear_1_2923" x1="118.971" y1="78.4643" x2="121.786" y2="107.585" gradientUnits="userSpaceOnUse">
<stop stop-color="#CB236D"/>
<stop offset="1" stop-color="#4C246D"/>
</linearGradient>
<linearGradient id="paint31_linear_1_2923" x1="138.207" y1="79.8906" x2="123.347" y2="106.402" gradientUnits="userSpaceOnUse">
<stop stop-color="#53D8FF"/>
<stop offset="1" stop-color="#3840F7"/>
</linearGradient>
<linearGradient id="paint32_linear_1_2923" x1="118.033" y1="80.1293" x2="119.091" y2="71.4913" gradientUnits="userSpaceOnUse">
<stop stop-color="#F9B776"/>
<stop offset="1" stop-color="#F47960"/>
</linearGradient>
<linearGradient id="paint33_linear_1_2923" x1="123.439" y1="84.323" x2="132.154" y2="84.323" gradientUnits="userSpaceOnUse">
<stop stop-color="#F9B776"/>
<stop offset="1" stop-color="#F47960"/>
</linearGradient>
<linearGradient id="paint34_linear_1_2923" x1="115.684" y1="69.7609" x2="121.646" y2="49.4612" gradientUnits="userSpaceOnUse">
<stop stop-color="#F9B776"/>
<stop offset="1" stop-color="#F47960"/>
</linearGradient>
<linearGradient id="paint35_linear_1_2923" x1="137.234" y1="75.9044" x2="117.947" y2="54.3979" gradientUnits="userSpaceOnUse">
<stop stop-color="#CB236D"/>
<stop offset="1" stop-color="#4C246D"/>
</linearGradient>
<linearGradient id="paint36_linear_1_2923" x1="118.341" y1="70.5413" x2="124.302" y2="50.2416" gradientUnits="userSpaceOnUse">
<stop stop-color="#F9B776"/>
<stop offset="1" stop-color="#F47960"/>
</linearGradient>
<clipPath id="clip0_1_2923">
<rect width="152" height="137" fill="white" transform="translate(0.5)"/>
</clipPath>
</defs>
</svg>
