<svg width="16" height="17" viewBox="0 0 16 17" fill="none" xmlns="http://www.w3.org/2000/svg">
<g clip-path="url(#clip0_1_3216)">
<g clip-path="url(#clip1_1_3216)">
<g clip-path="url(#clip2_1_3216)">
<mask id="mask0_1_3216" style="mask-type:luminance" maskUnits="userSpaceOnUse" x="0" y="0" width="16" height="17">
<path d="M15.9387 0.56665H0.0690918V16.4362H15.9387V0.56665Z" fill="white"/>
</mask>
<g mask="url(#mask0_1_3216)">
<path d="M15.3044 12.7552C15.0142 13.4074 14.2659 13.9979 13.5632 14.1284C13.4913 14.1418 11.7739 14.4517 8.00837 14.4517H7.99842C4.23337 14.4517 2.51449 14.1418 2.44308 14.1289C1.74035 13.9979 0.991508 13.4073 0.700899 12.7546C0.67511 12.6966 0.0690918 11.3011 0.0690918 8.50065C0.0690918 5.70017 0.67511 4.30414 0.700899 4.24611C0.991508 3.59348 1.74035 3.00333 2.44308 2.8729C2.51449 2.85951 4.23337 2.54956 7.99842 2.54956C11.7739 2.54956 13.4913 2.85951 13.5627 2.87241C14.2659 3.00333 15.0142 3.59348 15.3049 4.24562C15.3307 4.30414 15.9382 5.70017 15.9382 8.50065C15.9382 11.3011 15.3307 12.6966 15.3044 12.7552ZM14.3973 4.64732C14.2426 4.29968 13.7576 3.91782 13.3816 3.84789C13.3658 3.84491 11.6663 3.54141 8.00837 3.54141C4.34098 3.54141 2.63996 3.84491 2.6236 3.84789C2.24769 3.91782 1.76317 4.29968 1.60795 4.6493C1.60299 4.65972 1.06144 5.93623 1.06144 8.50065C1.06144 11.0645 1.60299 12.3411 1.60894 12.354C1.76317 12.7016 2.24769 13.0835 2.62409 13.1534C2.63996 13.1564 4.34098 13.4599 7.99842 13.4599H8.00837C11.6663 13.4599 13.3658 13.1564 13.3822 13.1534C13.7581 13.0835 14.2426 12.7016 14.3979 12.352C14.4028 12.3411 14.9454 11.0645 14.9454 8.50065C14.9454 5.93672 14.4028 4.65971 14.3973 4.64732ZM6.7839 11.3999C6.70356 11.4509 6.61132 11.4762 6.51958 11.4762C6.43725 11.4762 6.35493 11.4559 6.28004 11.4142C6.12185 11.3269 6.02365 11.1608 6.02365 10.9803V6.02103C6.02365 5.84101 6.12085 5.67536 6.27806 5.58808C6.43527 5.50031 6.62818 5.50428 6.78043 5.599L10.7572 8.05679C10.9026 8.14656 10.9918 8.30525 10.9923 8.47635C10.9928 8.64744 10.9055 8.80709 10.7607 8.89786L6.7839 11.3999ZM7.01599 6.91072V10.0821L9.55907 8.4823L7.01599 6.91072Z" fill="#F2F3FE"/>
</g>
</g>
</g>
</g>
<defs>
<clipPath id="clip0_1_3216">
<rect width="15.8696" height="15.8696" fill="white" transform="translate(0.0651855 0.565186)"/>
</clipPath>
<clipPath id="clip1_1_3216">
<rect width="15.8696" height="15.8696" fill="white" transform="translate(0.065979 0.56543)"/>
</clipPath>
<clipPath id="clip2_1_3216">
<rect width="15.8696" height="15.8696" fill="white" transform="translate(0.0667725 0.565674)"/>
</clipPath>
</defs>
</svg>
