<svg width="237" height="82" viewBox="0 0 237 82" fill="none" xmlns="http://www.w3.org/2000/svg">
<g clip-path="url(#clip0_1_3033)">
<path d="M26.1109 0H0V82L26.1109 0Z" fill="#FA0C00"/>
<path d="M44.4824 0H70.5593V82L44.4824 0Z" fill="#FA0C00"/>
<path d="M35.2977 30.2223L51.9168 82H41.0132L36.0462 65.5151H23.8837L35.2977 30.2223Z" fill="#FA0C00"/>
<path d="M107.494 52.147L110.573 63.74C110.675 64.0304 110.828 64.1644 111.1 64.1644H117.02C117.343 64.1644 117.394 63.9633 117.343 63.539L105.112 18.9315C105.061 18.5741 105.01 18.5071 104.738 18.5071H97.3895C97.1854 18.5071 97.0663 18.7081 97.0663 18.9985C96.9642 21.3439 96.8112 22.0587 96.59 22.7512L85.6864 63.4719C85.6353 63.9634 85.7544 64.1644 86.0606 64.1644H91.3508C91.674 64.1644 91.8271 64.0304 91.9462 63.6059L94.855 52.147H107.494ZM96.539 44.5746C98.138 38.2309 100.247 30.1001 101.098 25.454H101.149C102.203 30.3235 104.687 39.9732 105.81 44.5746H96.539Z" fill="#FA0C00"/>
<path d="M133.065 64.8569C136.246 64.8569 139.631 64.0974 143.067 62.1541C143.34 62.02 143.391 61.8637 143.391 61.5286C143.288 60.2777 143.169 58.4684 143.169 57.0835V15.0895C143.169 14.8215 143.169 14.6874 142.914 14.6874H137.148C136.927 14.6874 136.825 14.8215 136.825 15.1789V29.4077C135.923 29.2737 135.294 29.2066 134.545 29.2066C125.24 29.2066 119.525 37.2704 119.525 47.3445C119.525 59.0269 125.394 64.8569 133.065 64.8569ZM136.825 57.0835C135.872 57.4856 134.817 57.642 133.746 57.642C129.527 57.642 126.074 54.5147 126.074 46.9201C126.074 40.1966 129.629 36.2205 134.341 36.2205C135.294 36.2205 136.127 36.3546 136.825 36.712V57.0835Z" fill="#FA0C00"/>
<path d="M161.778 29.2067C153.835 29.2067 148.919 37.2034 148.919 47.0765C148.919 55.8997 152.831 64.8569 161.659 64.8569C169.127 64.8569 174.366 57.642 174.366 46.8531C174.366 37.3374 169.926 29.2067 161.778 29.2067ZM161.455 36.2206C165.946 36.2206 167.851 41.2911 167.851 47.0765C167.851 54.2244 165.044 57.776 161.778 57.776C157.747 57.776 155.365 53.3309 155.365 46.9201C155.365 40.3306 157.9 36.2206 161.455 36.2206Z" fill="#FA0C00"/>
<path d="M180.337 14.6874C180.116 14.6874 179.963 14.8215 179.963 15.1789V62.7125C179.963 62.9136 180.116 63.271 180.337 63.338C182.872 64.3655 185.525 64.8569 188.264 64.8569C196.106 64.8569 203.726 58.4684 203.726 45.6022C203.726 36.2876 198.861 29.2066 191.241 29.2066C189.489 29.2066 187.856 29.564 186.427 30.1895L186.359 15.2459C186.359 14.7545 186.257 14.6874 185.883 14.6874H180.337ZM197.211 46.451C197.211 54.1573 193.197 57.776 188.859 57.776C187.958 57.776 187.158 57.709 186.427 57.4186V37.1364C187.26 36.712 188.264 36.3546 190.118 36.3546C194.303 36.3546 197.211 39.8392 197.211 46.451Z" fill="#FA0C00"/>
<path d="M225.246 48.9528C227.831 48.9528 229.957 48.8858 230.689 48.6624C230.961 48.5954 231.063 48.4614 231.114 48.171C231.267 47.4115 231.335 45.8256 231.335 43.8822C231.335 37.2704 228.307 29.2067 220.483 29.2067C212.488 29.2067 208.048 37.7618 208.048 47.4115C208.048 55.9667 211.484 64.8569 221.112 64.8569C224.718 64.8569 227.049 64.0974 229.056 62.8465C229.26 62.7125 229.362 62.4891 229.362 62.0871V56.3017C229.362 55.9667 229.209 55.8997 229.056 56.0337C227.049 57.1505 224.871 57.709 222.49 57.709C217.098 57.709 214.648 53.8 214.495 48.9528H225.246ZM214.495 42.9664C214.92 39.5711 216.553 35.8855 220.21 35.8855C224.242 35.8855 225.297 40.3306 225.297 42.341C225.297 42.408 225.297 42.6984 225.297 42.8994C225.075 42.9664 224.395 42.9664 222.388 42.9664H214.495Z" fill="#FA0C00"/>
</g>
<defs>
<clipPath id="clip0_1_3033">
<rect width="237" height="82" fill="white"/>
</clipPath>
</defs>
</svg>
