<svg width="281" height="84" viewBox="0 0 281 84" fill="none" xmlns="http://www.w3.org/2000/svg">
<path d="M25.5893 28.2967L18.1572 67.2793H0L3.68176 48.1014L25.5893 28.2967Z" fill="#072654"/>
<path d="M64.2389 15.9191C68.4924 15.9504 71.4881 17.2352 73.1803 19.8361C74.8726 22.4371 75.2842 26.1348 74.3466 30.9919C73.7291 34.3136 72.4714 37.3532 70.7106 39.7661C68.8811 42.2731 66.6401 44.0906 64.1474 45.0307C66.0455 45.6261 67.2118 47.4749 67.5776 50.6399L67.6462 51.3293L69.0183 67.2796H60.5572L59.1393 50.1072C59.1165 49.5431 59.0021 48.9791 58.7963 48.4777C58.5905 47.9763 58.2932 47.5689 57.9502 47.2556C57.2413 46.7542 56.4638 46.5035 55.6634 46.4721H55.1832H49.9692L45.9902 67.2482H38.0779L47.9111 15.9191H64.2389ZM281.005 29.3624L270.943 49.2298L259.075 72.7948L258.983 72.9202L256.331 78.1847L256.239 78.3727L256.125 78.6234L253.838 83.1358H245.971L255.164 65.3681L251.002 30.6159H259.166L261.224 53.2722L271.195 33.8749L271.332 33.5928L271.492 33.2795L271.652 32.9975L272.887 29.3938H281.005V29.3624ZM211.303 32.12C212.813 33.8749 213.796 36.2878 214.139 38.9827C214.551 42.3357 214.368 45.8141 213.659 49.0731C212.996 52.6768 211.875 56.0611 210.32 59.0694C208.902 61.827 207.073 64.1146 204.946 65.7441C202.934 67.2482 200.715 68.0317 198.429 68.0317C196.805 68.1257 195.204 67.5616 193.809 66.4335C192.734 65.5561 191.911 64.2086 191.454 62.6104L191.317 61.9837L187.269 83.1358H179.425L187.452 41.1449L187.498 40.9569L187.521 40.7689L189.487 30.5845H197.148L195.845 36.4758L195.822 36.7265C196.942 34.5329 198.452 32.7468 200.189 31.5873C201.927 30.3339 203.848 29.7071 205.792 29.7071C207.736 29.5504 209.703 30.4279 211.303 32.12ZM201.836 37.9486C200.921 37.9173 200.007 38.168 199.138 38.638C198.291 39.1081 197.514 39.8288 196.851 40.7062C195.296 42.8998 194.221 45.6887 193.741 48.6657C193.055 52.1441 193.1 54.7763 193.786 56.5938C194.472 58.4114 195.776 59.3514 197.72 59.3514C199.572 59.4141 201.356 58.4427 202.705 56.6565C204.214 54.4943 205.266 51.7994 205.746 48.8537C206.41 45.438 206.364 42.7118 205.678 40.8002C204.992 38.8887 203.711 37.9486 201.836 37.9486ZM237.053 31.3053C238.105 32.214 238.928 33.5615 239.385 35.1597L239.545 35.7551L240.552 30.5532H248.235L241.192 67.2169H233.485L234.514 61.7957C233.348 63.7072 231.885 65.2114 230.238 66.2455C228.637 67.2482 226.922 67.781 225.184 67.781C223.172 67.9063 221.159 67.1229 219.513 65.4621C218.004 63.8326 216.998 61.451 216.677 58.8501C216.266 55.5284 216.403 52.1441 217.112 48.9164C217.798 45.3127 218.941 41.897 220.519 38.8574C221.96 36.0684 223.812 33.7182 225.962 32.026C227.928 30.4592 230.169 29.6131 232.433 29.6131C234.08 29.5504 235.681 30.1145 237.053 31.3053ZM233.074 38.0426C232.136 38.0426 231.199 38.2933 230.352 38.7947C229.483 39.2961 228.706 40.0168 228.043 40.9256C226.511 43.1505 225.413 45.9081 224.933 48.9164C224.292 52.3007 224.292 54.8703 225.024 56.7192C225.733 58.568 227.059 59.4455 229.026 59.4455C229.941 59.4768 230.856 59.2261 231.725 58.7561C232.593 58.286 233.348 57.5653 234.011 56.6878C235.361 54.7136 236.344 52.3634 236.893 49.7311L237.076 48.7597C237.762 45.2814 237.739 42.6178 237.007 40.8316C236.298 38.9827 234.995 38.0426 233.074 38.0426ZM185.531 30.1772L186.034 30.4592L184.067 40.4555C182.947 39.6408 181.712 39.2334 180.477 39.2334C178.602 39.1394 176.773 39.9855 175.286 41.5837C174.006 43.0878 173.068 45.0933 172.588 47.2869L172.428 48.133L168.769 67.2796H160.948L168.037 30.6159H175.744L174.737 36.0058C175.698 34.1882 176.933 32.7154 178.328 31.6187C179.883 30.3965 181.621 29.7698 183.404 29.7698C184.113 29.7071 184.845 29.8325 185.531 30.1772ZM156.649 31.932C158.387 33.4362 159.644 35.8177 160.125 38.5754C160.696 41.897 160.605 45.4067 159.873 48.6657C159.187 52.3634 157.975 55.8104 156.26 58.7561C154.636 61.6077 152.578 63.8639 150.223 65.3994C147.822 66.9349 145.215 67.7183 142.562 67.687C139.772 67.687 137.485 66.9349 135.702 65.3994C133.941 63.8952 132.683 61.5137 132.18 58.7561C131.631 55.4344 131.723 51.9247 132.431 48.6657C133.117 44.9993 134.329 41.5523 136.045 38.5754C137.668 35.7551 139.749 33.4675 142.127 31.932C144.552 30.3965 147.204 29.5818 149.88 29.6445C152.235 29.4878 154.591 30.3025 156.649 31.932ZM148.279 37.9173C146.427 37.886 144.643 38.8574 143.294 40.6122C141.899 42.4297 140.847 45.0933 140.184 48.6657C138.812 55.8418 140.138 59.4141 144.163 59.4141C145.992 59.4768 147.753 58.5054 149.079 56.7505C150.451 54.9643 151.458 52.2694 152.144 48.6657C152.83 45.1247 152.853 42.4611 152.167 40.6122C151.503 38.7634 150.2 37.9173 148.279 37.9173ZM132.386 30.5845L131.014 37.8546L113.748 58.7561H127.606L125.96 67.3109H103.023L104.464 59.7588L121.455 39.1707H108.534L110.181 30.6159H132.386V30.5845ZM93.6701 31.3053C94.722 32.214 95.5453 33.5615 96.0026 35.1597L96.1627 35.7551L97.1689 30.5532H104.875L97.8549 67.2169H90.1484L91.1775 61.7957C90.0112 63.6759 88.5705 65.18 86.9469 66.2141C85.3233 67.2482 83.5624 67.781 81.7558 67.781C79.7435 67.9063 77.7768 67.0916 76.1532 65.4621C74.6439 63.8326 73.6377 61.451 73.3175 58.8501C72.9059 55.5284 73.0431 52.1441 73.752 48.9164C74.4152 45.3127 75.5815 41.897 77.1594 38.8574C78.6001 36.0684 80.4524 33.7182 82.5791 32.026C84.5457 30.4592 86.7868 29.6445 89.0507 29.6445C90.6972 29.5818 92.298 30.1458 93.6701 31.3053ZM89.7139 38.0426C88.7763 38.0426 87.8616 38.2933 86.9926 38.7947C86.1236 39.2961 85.3461 40.0168 84.6829 40.9256C83.1279 43.1505 82.0531 45.9081 81.5729 48.9164C80.9326 52.3007 80.9555 54.8703 81.6644 56.7192C82.3733 58.568 83.6996 59.4455 85.6663 59.4455C86.581 59.4768 87.4957 59.2261 88.3647 58.7561C89.2108 58.286 90.0112 57.5653 90.6515 56.6878C92.0007 54.745 93.0069 52.3634 93.5329 49.7311L93.7158 48.7597C94.379 45.2814 94.3104 42.6804 93.6472 40.8316C92.9383 38.9827 91.612 38.0426 89.7139 38.0426ZM61.4033 24.4739H54.0626L51.4785 37.886H58.8192C61.1289 37.886 62.9583 37.3532 64.1932 36.2565C65.4967 35.097 66.4342 33.2795 66.7773 31.1486C67.2346 28.8924 67.0288 27.1689 66.1598 26.0721C65.2908 25.038 63.7129 24.4739 61.4033 24.4739Z" fill="#072654"/>
<path d="M42.0752 0L29.1776 67.2794H20.3277L29.0404 21.7162L15.6854 33.7807L18.0637 21.7789L42.0752 0Z" fill="#3395FF"/>
</svg>
