<svg width="201" height="66" viewBox="0 0 201 66" fill="none" xmlns="http://www.w3.org/2000/svg">
<path d="M64.6954 51.9179L67.1896 44.371C69.8849 46.9915 73.4652 48.3541 77.0054 48.3541C79.6202 48.3541 81.2696 47.0439 81.2696 45.0524C81.2294 39.497 65.6207 43.847 65.5 29.9062C65.4598 22.831 70.2872 17.3805 77.126 17.3805C81.1891 17.3805 85.2522 18.6908 88.1487 21.6781L85.8154 29.3821C83.1603 27.181 79.8616 25.6087 76.7238 25.6087C74.5916 25.6087 73.1836 26.9189 73.1836 28.596C73.2239 34.0465 88.9532 31.0592 89.1142 44.371C89.1142 51.6034 84.4074 56.6871 77.649 56.6871C72.7009 56.6871 68.1551 55.1672 64.6954 51.9179ZM160.399 41.6458C159.152 44.4759 156.819 46.415 154.124 46.415C150.141 46.415 146.923 42.2223 146.923 37.0338C146.923 31.8453 150.141 27.6526 154.124 27.6526C156.819 27.6526 159.152 29.5918 160.399 32.4218L167.278 27.443C164.704 21.4684 159.756 17.3805 154.124 17.3805C145.796 17.3805 139.038 26.1852 139.038 37.0338C139.038 47.8824 145.796 56.6871 154.124 56.6871C159.796 56.6871 164.704 52.6516 167.278 46.6246L160.399 41.6458ZM92.5738 1.08142H101.183V55.9534H92.5738V1.08142ZM170.657 1.08142V55.9534H179.266V39.497L189.484 55.9534H200.507L187.513 36.4049L199.542 18.1667H189.002L179.266 33.3128V1.08142H170.657ZM126.768 41.7506C125.521 44.4234 122.946 46.415 120.05 46.415C116.067 46.415 112.849 42.2223 112.849 37.0338C112.849 31.8453 116.067 27.6526 120.05 27.6526C122.946 27.6526 125.521 29.749 126.768 32.4743V41.7506ZM126.768 18.1667V22.6214C125.36 19.5293 121.86 17.3805 118.199 17.3805C110.636 17.3805 104.683 26.0804 104.683 36.9814C104.683 47.8824 110.636 56.6871 118.199 56.6871C121.86 56.6871 125.36 54.5383 126.768 51.4462V55.901H135.377V18.1667H126.768Z" fill="black"/>
<path d="M11.4651 41.6979C11.4651 45.5237 9.09163 48.6158 6.15495 48.6158C3.21826 48.6158 0.84478 45.5237 0.84478 41.6979C0.84478 37.872 3.21826 34.7799 6.15495 34.7799H11.4651V41.6979ZM14.1202 41.6979C14.1202 37.872 16.4937 34.7799 19.4304 34.7799C22.3671 34.7799 24.7405 37.872 24.7405 41.6979V58.9927C24.7405 62.8186 22.3671 65.9107 19.4304 65.9107C16.4937 65.9107 14.1202 62.8186 14.1202 58.9927V41.6979Z" fill="#E01E5A"/>
<path d="M19.4395 13.9215C16.5028 13.9215 14.1293 10.8294 14.1293 7.00353C14.1293 3.17769 16.5028 0.0855713 19.4395 0.0855713C22.3762 0.0855713 24.7497 3.17769 24.7497 7.00353V13.9215H19.4395ZM19.4395 17.4329C22.3762 17.4329 24.7497 20.525 24.7497 24.3508C24.7497 28.1767 22.3762 31.2688 19.4395 31.2688H6.12384C3.18715 31.2688 0.813667 28.1767 0.813667 24.3508C0.813667 20.525 3.18715 17.4329 6.12384 17.4329H19.4395Z" fill="#36C5F0"/>
<path d="M40.7235 24.3508C40.7235 20.525 43.097 17.4329 46.0336 17.4329C48.9703 17.4329 51.3438 20.525 51.3438 24.3508C51.3438 28.1767 48.9703 31.2688 46.0336 31.2688H40.7235V24.3508ZM38.0684 24.3508C38.0684 28.1767 35.6949 31.2688 32.7582 31.2688C29.8215 31.2688 27.4481 28.1767 27.4481 24.3508V7.00353C27.4481 3.17769 29.8215 0.0855713 32.7582 0.0855713C35.6949 0.0855713 38.0684 3.17769 38.0684 7.00353V24.3508Z" fill="#2EB67D"/>
<path d="M32.7582 52.0748C35.6949 52.0748 38.0684 55.1669 38.0684 58.9927C38.0684 62.8186 35.6949 65.9107 32.7582 65.9107C29.8215 65.9107 27.4481 62.8186 27.4481 58.9927V52.0748H32.7582ZM32.7582 48.6158C29.8215 48.6158 27.4481 45.5237 27.4481 41.6979C27.4481 37.872 29.8215 34.7799 32.7582 34.7799H46.0739C49.0106 34.7799 51.384 37.872 51.384 41.6979C51.384 45.5237 49.0106 48.6158 46.0739 48.6158H32.7582Z" fill="#ECB22E"/>
</svg>
