<svg width="17" height="16" viewBox="0 0 17 16" fill="none" xmlns="http://www.w3.org/2000/svg">
<path d="M8.20108 1.27248C8.32335 1.02473 8.67664 1.02473 8.79891 1.27248L10.5777 4.87661C10.6262 4.97499 10.7201 5.04318 10.8286 5.05896L14.806 5.63691C15.0794 5.67663 15.1886 6.01262 14.9908 6.20547L12.1127 9.01089C12.0341 9.08747 11.9983 9.19781 12.0168 9.30594L12.6962 13.2673C12.7429 13.5396 12.4571 13.7472 12.2126 13.6187L8.65511 11.7484C8.558 11.6973 8.44199 11.6973 8.34488 11.7484L4.78739 13.6187C4.54285 13.7472 4.25704 13.5396 4.30374 13.2673L4.98316 9.30594C5.00171 9.19781 4.96586 9.08747 4.8873 9.01089L2.00923 6.20547C1.81139 6.01262 1.92056 5.67663 2.19397 5.63691L6.17136 5.05896C6.27993 5.04318 6.37379 4.97499 6.42234 4.87661L8.20108 1.27248Z" fill="white" stroke="white" stroke-width="1.33333"/>
</svg>
