<svg width="129" height="99" viewBox="0 0 129 99" fill="none" xmlns="http://www.w3.org/2000/svg">
<path d="M17.6249 46.8159C16.4521 46.8159 15.4075 46.6143 14.4912 46.2111C13.5802 45.8027 12.8603 45.2425 12.3314 44.5304C11.8079 43.8131 11.5382 42.9858 11.5225 42.0486H14.9468C14.9677 42.4413 15.096 42.7869 15.3316 43.0853C15.5724 43.3785 15.8918 43.6063 16.2897 43.7686C16.6877 43.9309 17.1353 44.0121 17.6327 44.0121C18.1511 44.0121 18.6092 43.9204 19.0072 43.7372C19.4051 43.5539 19.7166 43.3 19.9418 42.9754C20.1669 42.6507 20.2795 42.2764 20.2795 41.8523C20.2795 41.4229 20.159 41.0433 19.9182 40.7135C19.6826 40.3784 19.3422 40.1166 18.8972 39.9281C18.4574 39.7396 17.9338 39.6454 17.3264 39.6454H15.8264V37.1479H17.3264C17.8396 37.1479 18.2925 37.0589 18.6851 36.8808C19.0831 36.7028 19.392 36.4567 19.6119 36.1426C19.8318 35.8232 19.9418 35.4514 19.9418 35.0273C19.9418 34.6242 19.8449 34.2708 19.6512 33.9671C19.4627 33.6582 19.1956 33.4173 18.8501 33.2445C18.5097 33.0718 18.1118 32.9854 17.6563 32.9854C17.1955 32.9854 16.7741 33.0691 16.3918 33.2367C16.0096 33.399 15.7033 33.632 15.473 33.9357C15.2426 34.2393 15.1195 34.5954 15.1038 35.0038H11.8445C11.8602 34.077 12.1246 33.2602 12.6377 32.5534C13.1509 31.8466 13.842 31.2942 14.7111 30.8963C15.5855 30.4931 16.5725 30.2915 17.672 30.2915C18.782 30.2915 19.7533 30.4931 20.5858 30.8963C21.4183 31.2994 22.0649 31.8439 22.5256 32.5298C22.9916 33.2105 23.222 33.9749 23.2168 34.8231C23.222 35.7237 22.9419 36.4751 22.3764 37.0772C21.8162 37.6793 21.0858 38.0615 20.1852 38.2238V38.3495C21.3685 38.5013 22.2691 38.9123 22.8869 39.5825C23.51 40.2475 23.8189 41.08 23.8137 42.08C23.8189 42.9963 23.5545 43.8105 23.0204 44.5226C22.4916 45.2346 21.7612 45.7949 20.8292 46.2033C19.8972 46.6117 18.8291 46.8159 17.6249 46.8159ZM32.5647 46.9494C31.2139 46.9441 30.0515 46.6117 29.0777 45.9519C28.109 45.2922 27.3629 44.3367 26.8393 43.0853C26.321 41.8339 26.0644 40.3286 26.0697 38.5694C26.0697 36.8154 26.3288 35.3205 26.8472 34.0849C27.3708 32.8492 28.1169 31.9094 29.0855 31.2654C30.0594 30.6161 31.2191 30.2915 32.5647 30.2915C33.9103 30.2915 35.0675 30.6161 36.0361 31.2654C37.01 31.9146 37.7587 32.8571 38.2823 34.0927C38.8059 35.3232 39.065 36.8154 39.0598 38.5694C39.0598 40.3339 38.798 41.8418 38.2744 43.0932C37.7561 44.3445 37.0126 45.3001 36.0439 45.9598C35.0753 46.6195 33.9156 46.9494 32.5647 46.9494ZM32.5647 44.1299C33.4862 44.1299 34.2219 43.6665 34.7716 42.7397C35.3214 41.813 35.5937 40.4229 35.5884 38.5694C35.5884 37.3494 35.4628 36.3337 35.2114 35.5221C34.9654 34.7106 34.6146 34.1006 34.159 33.6922C33.7088 33.2838 33.1773 33.0796 32.5647 33.0796C31.6485 33.0796 30.9154 33.5377 30.3657 34.454C29.8159 35.3703 29.5384 36.7421 29.5332 38.5694C29.5332 39.8051 29.6562 40.8365 29.9023 41.6638C30.1536 42.4858 30.507 43.1036 30.9626 43.5173C31.4181 43.9257 31.9521 44.1299 32.5647 44.1299ZM44.5044 44.3969L44.418 45.2608C44.35 45.9519 44.2191 46.6405 44.0253 47.3263C43.8368 48.0175 43.6379 48.6432 43.4285 49.2034C43.2243 49.7636 43.0593 50.2034 42.9337 50.5228H40.766C40.8446 50.2139 40.9519 49.782 41.088 49.227C41.2242 48.6772 41.3524 48.0594 41.4729 47.3735C41.5933 46.6876 41.6692 45.9886 41.7006 45.2765L41.7399 44.3969H44.5044ZM53.1907 46.9494C51.8398 46.9441 50.6775 46.6117 49.7036 45.9519C48.735 45.2922 47.9889 44.3367 47.4653 43.0853C46.9469 41.8339 46.6904 40.3286 46.6956 38.5694C46.6956 36.8154 46.9548 35.3205 47.4731 34.0849C47.9967 32.8492 48.7428 31.9094 49.7115 31.2654C50.6853 30.6161 51.8451 30.2915 53.1907 30.2915C54.5363 30.2915 55.6934 30.6161 56.6621 31.2654C57.6359 31.9146 58.3847 32.8571 58.9082 34.0927C59.4318 35.3232 59.691 36.8154 59.6858 38.5694C59.6858 40.3339 59.424 41.8418 58.9004 43.0932C58.382 44.3445 57.6385 45.3001 56.6699 45.9598C55.7013 46.6195 54.5415 46.9494 53.1907 46.9494ZM53.1907 44.1299C54.1122 44.1299 54.8478 43.6665 55.3976 42.7397C55.9474 41.813 56.2196 40.4229 56.2144 38.5694C56.2144 37.3494 56.0887 36.3337 55.8374 35.5221C55.5913 34.7106 55.2405 34.1006 54.785 33.6922C54.3347 33.2838 53.8033 33.0796 53.1907 33.0796C52.2744 33.0796 51.5414 33.5377 50.9916 34.454C50.4419 35.3703 50.1644 36.7421 50.1591 38.5694C50.1591 39.8051 50.2822 40.8365 50.5283 41.6638C50.7796 42.4858 51.133 43.1036 51.5885 43.5173C52.044 43.9257 52.5781 44.1299 53.1907 44.1299ZM68.4172 46.9494C67.0663 46.9441 65.904 46.6117 64.9301 45.9519C63.9615 45.2922 63.2154 44.3367 62.6918 43.0853C62.1734 41.8339 61.9169 40.3286 61.9221 38.5694C61.9221 36.8154 62.1813 35.3205 62.6996 34.0849C63.2232 32.8492 63.9693 31.9094 64.938 31.2654C65.9118 30.6161 67.0716 30.2915 68.4172 30.2915C69.7628 30.2915 70.9199 30.6161 71.8886 31.2654C72.8624 31.9146 73.6111 32.8571 74.1347 34.0927C74.6583 35.3232 74.9175 36.8154 74.9123 38.5694C74.9123 40.3339 74.6505 41.8418 74.1269 43.0932C73.6085 44.3445 72.865 45.3001 71.8964 45.9598C70.9278 46.6195 69.768 46.9494 68.4172 46.9494ZM68.4172 44.1299C69.3387 44.1299 70.0743 43.6665 70.6241 42.7397C71.1739 41.813 71.4461 40.4229 71.4409 38.5694C71.4409 37.3494 71.3152 36.3337 71.0639 35.5221C70.8178 34.7106 70.467 34.1006 70.0115 33.6922C69.5612 33.2838 69.0298 33.0796 68.4172 33.0796C67.5009 33.0796 66.7679 33.5377 66.2181 34.454C65.6684 35.3703 65.3909 36.7421 65.3856 38.5694C65.3856 39.8051 65.5087 40.8365 65.7548 41.6638C66.0061 42.4858 66.3595 43.1036 66.815 43.5173C67.2705 43.9257 67.8046 44.1299 68.4172 44.1299ZM83.6437 46.9494C82.2928 46.9441 81.1305 46.6117 80.1566 45.9519C79.188 45.2922 78.4419 44.3367 77.9183 43.0853C77.3999 41.8339 77.1434 40.3286 77.1486 38.5694C77.1486 36.8154 77.4078 35.3205 77.9261 34.0849C78.4497 32.8492 79.1958 31.9094 80.1645 31.2654C81.1383 30.6161 82.2981 30.2915 83.6437 30.2915C84.9893 30.2915 86.1464 30.6161 87.1151 31.2654C88.0889 31.9146 88.8377 32.8571 89.3612 34.0927C89.8848 35.3232 90.144 36.8154 90.1388 38.5694C90.1388 40.3339 89.877 41.8418 89.3534 43.0932C88.835 44.3445 88.0915 45.3001 87.1229 45.9598C86.1543 46.6195 84.9945 46.9494 83.6437 46.9494ZM83.6437 44.1299C84.5652 44.1299 85.3008 43.6665 85.8506 42.7397C86.4004 41.813 86.6726 40.4229 86.6674 38.5694C86.6674 37.3494 86.5417 36.3337 86.2904 35.5221C86.0443 34.7106 85.6935 34.1006 85.238 33.6922C84.7877 33.2838 84.2563 33.0796 83.6437 33.0796C82.7274 33.0796 81.9944 33.5377 81.4446 34.454C80.8949 35.3703 80.6174 36.7421 80.6121 38.5694C80.6121 39.8051 80.7352 40.8365 80.9813 41.6638C81.2326 42.4858 81.586 43.1036 82.0415 43.5173C82.497 43.9257 83.0311 44.1299 83.6437 44.1299Z" fill="#FF7300"/>
<path d="M112.104 19.3025V12.1845C112.104 10.2587 111.621 8.36377 110.699 6.67317L110.55 6.40078C109.596 4.65058 108.16 3.21006 106.413 2.2493V2.2493C104.871 1.4009 103.139 0.956055 101.378 0.956055H85.7155H10.9453C9.37668 0.956055 7.82962 1.32127 6.42663 2.02276V2.02276C4.23758 3.11729 2.52021 4.96915 1.59353 7.23436L1.54617 7.35015C1.03304 8.60447 0.769104 9.94671 0.769104 11.3019V17.0406V82.2008C0.769104 83.3209 0.949674 84.4336 1.30387 85.4962L1.47086 85.9971C1.99707 87.5758 2.96833 88.9687 4.26772 90.0082V90.0082C5.43384 90.9411 6.82201 91.5555 8.2966 91.7915L10.8755 92.2041C11.8435 92.359 12.8224 92.4368 13.8027 92.4368H38.4672" stroke="#004CD2" stroke-width="1.50792"/>
<path d="M128.943 36.8263V44.4819H116.184V57.2412H108.528V44.4819H95.7691V36.8263H108.528V24.0669H116.184V36.8263H128.943Z" fill="#FF7300"/>
<path d="M19.2194 72.7439V70.7203H21.9728C22.4815 70.7203 22.8796 70.571 23.1671 70.2724C23.4546 69.9738 23.5984 69.6089 23.5984 69.1777C23.5984 68.8791 23.532 68.6137 23.3993 68.3815C23.2666 68.1493 23.0786 67.9668 22.8354 67.8341C22.6031 67.7014 22.3156 67.635 21.9728 67.635H19.2194V65.6612H21.7572C22.1885 65.6612 22.5368 65.5561 22.8022 65.346C23.0676 65.1249 23.2003 64.7931 23.2003 64.3508C23.2003 63.9195 23.0676 63.5988 22.8022 63.3887C22.5368 63.1676 22.1885 63.057 21.7572 63.057H19.2194V61.0334H22.2548C23.0068 61.0334 23.6426 61.1716 24.1623 61.448C24.6931 61.7245 25.0967 62.0949 25.3732 62.5594C25.6496 63.0238 25.7879 63.538 25.7879 64.102C25.7879 64.8208 25.5557 65.429 25.0912 65.9266C24.6268 66.4242 23.9412 66.767 23.0344 66.955L23.1008 66.0759C24.0849 66.2638 24.8424 66.6453 25.3732 67.2204C25.915 67.7954 26.186 68.5031 26.186 69.3435C26.186 69.9849 26.0256 70.5654 25.7049 71.0852C25.3953 71.5939 24.9419 71.9975 24.3448 72.296C23.7587 72.5946 23.051 72.7439 22.2216 72.7439H19.2194ZM17.2289 72.7439V61.0334H19.7999V72.7439H17.2289ZM32.5658 72.9264C31.6037 72.9264 30.7523 72.7218 30.0114 72.3126C29.2815 71.9035 28.7065 71.3395 28.2863 70.6207C27.8772 69.8909 27.6726 69.0615 27.6726 68.1327V61.0334H30.2934V68.2819C30.2934 68.7464 30.3929 69.15 30.5919 69.4928C30.791 69.8356 31.0619 70.101 31.4047 70.289C31.7586 70.4659 32.1456 70.5544 32.5658 70.5544C33.0081 70.5544 33.3952 70.4659 33.7269 70.289C34.0586 70.101 34.3185 69.8411 34.5065 69.5094C34.7055 69.1666 34.8051 68.763 34.8051 68.2985V61.0334H37.4258V68.1493C37.4258 69.0781 37.2213 69.902 36.8121 70.6207C36.403 71.3395 35.8335 71.9035 35.1036 72.3126C34.3738 72.7218 33.5279 72.9264 32.5658 72.9264ZM42.8886 72.9264C41.9265 72.9264 41.0972 72.7715 40.4005 72.4619C39.7149 72.1412 39.0846 71.6602 38.5096 71.0188L40.2015 69.3435C40.5774 69.7748 40.9921 70.1121 41.4455 70.3553C41.9099 70.5876 42.4463 70.7037 43.0545 70.7037C43.6074 70.7037 44.0331 70.6042 44.3317 70.4051C44.6413 70.2061 44.7961 69.9296 44.7961 69.5757C44.7961 69.2551 44.6966 68.9952 44.4975 68.7962C44.2985 68.5971 44.0331 68.4257 43.7014 68.2819C43.3807 68.1382 43.0213 68 42.6232 67.8673C42.2362 67.7346 41.8491 67.5853 41.4621 67.4194C41.0751 67.2425 40.7157 67.0269 40.3839 66.7725C40.0632 66.5071 39.8034 66.1809 39.6043 65.7939C39.4053 65.3958 39.3058 64.8982 39.3058 64.301C39.3058 63.5823 39.4772 62.963 39.82 62.4433C40.1738 61.9235 40.6604 61.531 41.2796 61.2656C41.8989 60.9891 42.6121 60.8509 43.4194 60.8509C44.2377 60.8509 44.9841 60.9947 45.6586 61.2822C46.3442 61.5697 46.9082 61.9622 47.3505 62.4599L45.6586 64.1352C45.3048 63.7702 44.9454 63.4993 44.5805 63.3224C44.2266 63.1455 43.823 63.057 43.3696 63.057C42.9162 63.057 42.5568 63.1455 42.2915 63.3224C42.0261 63.4883 41.8934 63.7315 41.8934 64.0522C41.8934 64.3508 41.9929 64.5941 42.1919 64.7821C42.391 64.959 42.6508 65.1138 42.9715 65.2465C43.3033 65.3792 43.6627 65.5119 44.0497 65.6446C44.4478 65.7773 44.8403 65.9321 45.2274 66.109C45.6144 66.286 45.9683 66.5127 46.289 66.7891C46.6207 67.0545 46.8861 67.3973 47.0851 67.8175C47.2842 68.2267 47.3837 68.7353 47.3837 69.3435C47.3837 70.4604 46.9856 71.3395 46.1894 71.9809C45.3933 72.6112 44.293 72.9264 42.8886 72.9264ZM49.0426 72.7439V61.0334H51.6467V72.7439H49.0426ZM53.9021 72.7439V61.0334H55.7267L56.5063 63.3721V72.7439H53.9021ZM61.98 72.7439L55.0798 63.9029L55.7267 61.0334L62.6269 69.8743L61.98 72.7439ZM61.98 72.7439L61.2834 70.4051V61.0334H63.8876V72.7439H61.98ZM66.1481 72.7439V61.0334H68.7523V72.7439H66.1481ZM68.1385 72.7439V70.488H74.5578V72.7439H68.1385ZM68.1385 67.8507V65.6778H73.9772V67.8507H68.1385ZM68.1385 63.2726V61.0334H74.4748V63.2726H68.1385ZM79.578 72.9264C78.6159 72.9264 77.7866 72.7715 77.0899 72.4619C76.4043 72.1412 75.774 71.6602 75.199 71.0188L76.8908 69.3435C77.2668 69.7748 77.6815 70.1121 78.1349 70.3553C78.5993 70.5876 79.1356 70.7037 79.7438 70.7037C80.2967 70.7037 80.7225 70.6042 81.0211 70.4051C81.3307 70.2061 81.4855 69.9296 81.4855 69.5757C81.4855 69.2551 81.386 68.9952 81.1869 68.7962C80.9879 68.5971 80.7225 68.4257 80.3907 68.2819C80.0701 68.1382 79.7107 68 79.3126 67.8673C78.9255 67.7346 78.5385 67.5853 78.1515 67.4194C77.7644 67.2425 77.4051 67.0269 77.0733 66.7725C76.7526 66.5071 76.4928 66.1809 76.2937 65.7939C76.0947 65.3958 75.9951 64.8982 75.9951 64.301C75.9951 63.5823 76.1665 62.963 76.5093 62.4433C76.8632 61.9235 77.3498 61.531 77.969 61.2656C78.5883 60.9891 79.3015 60.8509 80.1088 60.8509C80.9271 60.8509 81.6735 60.9947 82.348 61.2822C83.0336 61.5697 83.5976 61.9622 84.0399 62.4599L82.348 64.1352C81.9942 63.7702 81.6348 63.4993 81.2699 63.3224C80.916 63.1455 80.5124 63.057 80.059 63.057C79.6056 63.057 79.2462 63.1455 78.9808 63.3224C78.7154 63.4883 78.5827 63.7315 78.5827 64.0522C78.5827 64.3508 78.6823 64.5941 78.8813 64.7821C79.0804 64.959 79.3402 65.1138 79.6609 65.2465C79.9926 65.3792 80.352 65.5119 80.7391 65.6446C81.1372 65.7773 81.5297 65.9321 81.9168 66.109C82.3038 66.286 82.6577 66.5127 82.9783 66.7891C83.3101 67.0545 83.5755 67.3973 83.7745 67.8175C83.9736 68.2267 84.0731 68.7353 84.0731 69.3435C84.0731 70.4604 83.675 71.3395 82.8788 71.9809C82.0826 72.6112 80.9823 72.9264 79.578 72.9264ZM88.9568 72.9264C87.9948 72.9264 87.1654 72.7715 86.4688 72.4619C85.7832 72.1412 85.1529 71.6602 84.5778 71.0188L86.2697 69.3435C86.6457 69.7748 87.0604 70.1121 87.5138 70.3553C87.9782 70.5876 88.5145 70.7037 89.1227 70.7037C89.6756 70.7037 90.1014 70.6042 90.3999 70.4051C90.7096 70.2061 90.8644 69.9296 90.8644 69.5757C90.8644 69.2551 90.7648 68.9952 90.5658 68.7962C90.3668 68.5971 90.1014 68.4257 89.7696 68.2819C89.4489 68.1382 89.0895 68 88.6915 67.8673C88.3044 67.7346 87.9174 67.5853 87.5303 67.4194C87.1433 67.2425 86.7839 67.0269 86.4522 66.7725C86.1315 66.5071 85.8716 66.1809 85.6726 65.7939C85.4735 65.3958 85.374 64.8982 85.374 64.301C85.374 63.5823 85.5454 62.963 85.8882 62.4433C86.2421 61.9235 86.7286 61.531 87.3479 61.2656C87.9671 60.9891 88.6804 60.8509 89.4876 60.8509C90.3059 60.8509 91.0524 60.9947 91.7269 61.2822C92.4125 61.5697 92.9765 61.9622 93.4188 62.4599L91.7269 64.1352C91.373 63.7702 91.0137 63.4993 90.6487 63.3224C90.2949 63.1455 89.8913 63.057 89.4379 63.057C88.9845 63.057 88.6251 63.1455 88.3597 63.3224C88.0943 63.4883 87.9616 63.7315 87.9616 64.0522C87.9616 64.3508 88.0611 64.5941 88.2602 64.7821C88.4592 64.959 88.7191 65.1138 89.0398 65.2465C89.3715 65.3792 89.7309 65.5119 90.1179 65.6446C90.516 65.7773 90.9086 65.9321 91.2956 66.109C91.6827 66.286 92.0365 66.5127 92.3572 66.7891C92.689 67.0545 92.9544 67.3973 93.1534 67.8175C93.3524 68.2267 93.452 68.7353 93.452 69.3435C93.452 70.4604 93.0539 71.3395 92.2577 71.9809C91.4615 72.6112 90.3612 72.9264 88.9568 72.9264ZM95.1108 72.7439V61.0334H97.715V72.7439H95.1108ZM97.1013 72.7439V70.488H103.521V72.7439H97.1013ZM97.1013 67.8507V65.6778H102.94V67.8507H97.1013ZM97.1013 63.2726V61.0334H103.438V63.2726H97.1013ZM108.541 72.9264C107.579 72.9264 106.749 72.7715 106.053 72.4619C105.367 72.1412 104.737 71.6602 104.162 71.0188L105.854 69.3435C106.23 69.7748 106.644 70.1121 107.098 70.3553C107.562 70.5876 108.098 70.7037 108.707 70.7037C109.259 70.7037 109.685 70.6042 109.984 70.4051C110.293 70.2061 110.448 69.9296 110.448 69.5757C110.448 69.2551 110.349 68.9952 110.15 68.7962C109.951 68.5971 109.685 68.4257 109.353 68.2819C109.033 68.1382 108.673 68 108.275 67.8673C107.888 67.7346 107.501 67.5853 107.114 67.4194C106.727 67.2425 106.368 67.0269 106.036 66.7725C105.715 66.5071 105.456 66.1809 105.256 65.7939C105.057 65.3958 104.958 64.8982 104.958 64.301C104.958 63.5823 105.129 62.963 105.472 62.4433C105.826 61.9235 106.313 61.531 106.932 61.2656C107.551 60.9891 108.264 60.8509 109.072 60.8509C109.89 60.8509 110.636 60.9947 111.311 61.2822C111.996 61.5697 112.56 61.9622 113.003 62.4599L111.311 64.1352C110.957 63.7702 110.598 63.4993 110.233 63.3224C109.879 63.1455 109.475 63.057 109.022 63.057C108.568 63.057 108.209 63.1455 107.944 63.3224C107.678 63.4883 107.545 63.7315 107.545 64.0522C107.545 64.3508 107.645 64.5941 107.844 64.7821C108.043 64.959 108.303 65.1138 108.624 65.2465C108.955 65.3792 109.315 65.5119 109.702 65.6446C110.1 65.7773 110.492 65.9321 110.88 66.109C111.267 66.286 111.62 66.5127 111.941 66.7891C112.273 67.0545 112.538 67.3973 112.737 67.8175C112.936 68.2267 113.036 68.7353 113.036 69.3435C113.036 70.4604 112.638 71.3395 111.842 71.9809C111.045 72.6112 109.945 72.9264 108.541 72.9264Z" fill="#004CD2"/>
<path d="M46.8524 92.3469V80.6364H49.4566V92.3469H46.8524ZM48.8428 87.7523V85.513H54.6981V87.7523H48.8428ZM48.8428 82.8757V80.6364H54.9635V82.8757H48.8428ZM62.0965 92.546C61.2119 92.546 60.3936 92.3912 59.6416 92.0815C58.9007 91.7719 58.2483 91.3406 57.6843 90.7877C57.1204 90.2348 56.6836 89.5935 56.3739 88.8636C56.0643 88.1227 55.9095 87.3265 55.9095 86.4751C55.9095 85.6125 56.0643 84.8164 56.3739 84.0865C56.6836 83.3567 57.1148 82.7208 57.6677 82.179C58.2206 81.6261 58.8675 81.2003 59.6084 80.9018C60.3604 80.5922 61.1787 80.4373 62.0633 80.4373C62.9369 80.4373 63.7442 80.5922 64.4851 80.9018C65.237 81.2003 65.8894 81.6261 66.4423 82.179C67.0063 82.7208 67.4431 83.3622 67.7527 84.1031C68.0624 84.8329 68.2172 85.6291 68.2172 86.4917C68.2172 87.3431 68.0624 88.1393 67.7527 88.8802C67.4431 89.61 67.0118 90.2514 66.4589 90.8043C65.906 91.3462 65.2536 91.7719 64.5016 92.0815C63.7608 92.3912 62.959 92.546 62.0965 92.546ZM62.0633 90.174C62.76 90.174 63.3682 90.0192 63.8879 89.7096C64.4187 89.3999 64.8279 88.9687 65.1154 88.4158C65.4029 87.8518 65.5466 87.2049 65.5466 86.4751C65.5466 85.9222 65.4637 85.4245 65.2978 84.9822C65.132 84.5288 64.8942 84.1418 64.5846 83.8211C64.275 83.4894 63.9045 83.2406 63.4732 83.0747C63.053 82.8978 62.5831 82.8093 62.0633 82.8093C61.3667 82.8093 60.7529 82.9641 60.2222 83.2737C59.7024 83.5723 59.2988 83.9981 59.0113 84.551C58.7238 85.0928 58.58 85.7342 58.58 86.4751C58.58 87.028 58.663 87.5311 58.8288 87.9845C58.9947 88.4379 59.2269 88.8304 59.5255 89.1622C59.8351 89.4829 60.2056 89.7317 60.6368 89.9086C61.0681 90.0855 61.5436 90.174 62.0633 90.174ZM71.8608 87.5201V85.5959H74.3323C74.852 85.5959 75.2501 85.4633 75.5265 85.1979C75.814 84.9325 75.9578 84.5731 75.9578 84.1197C75.9578 83.6995 75.8196 83.3512 75.5431 83.0747C75.2667 82.7982 74.8686 82.66 74.3488 82.66H71.8608V80.6364H74.6474C75.4215 80.6364 76.1016 80.7857 76.6876 81.0842C77.2737 81.3717 77.7326 81.7754 78.0644 82.2951C78.3961 82.8148 78.562 83.412 78.562 84.0865C78.562 84.7721 78.3961 85.3748 78.0644 85.8945C77.7326 86.4032 77.2682 86.8013 76.6711 87.0888C76.0739 87.3763 75.3717 87.5201 74.5645 87.5201H71.8608ZM69.8703 92.3469V80.6364H72.4745V92.3469H69.8703ZM76.2398 92.3469L72.5906 87.3044L74.9792 86.6575L79.325 92.3469H76.2398ZM80.4641 92.3469V80.6364H82.3218L86.9331 87.8186H85.9876L90.5822 80.6364H92.4566V92.3469H89.8524V85.032L90.3168 85.1481L87.3146 89.8257H85.5895L82.6038 85.1481L83.0517 85.032V92.3469H80.4641ZM94.7025 92.3469V80.6364H97.3066V92.3469H94.7025ZM96.6929 92.3469V90.0911H103.112V92.3469H96.6929ZM96.6929 87.4537V85.2808H102.532V87.4537H96.6929ZM96.6929 82.8757V80.6364H103.029V82.8757H96.6929ZM106.666 92.3469V90.0579H109.568C110.276 90.0579 110.895 89.9197 111.426 89.6432C111.957 89.3557 112.366 88.941 112.654 88.3992C112.941 87.8573 113.085 87.216 113.085 86.4751C113.085 85.7342 112.936 85.0983 112.637 84.5675C112.35 84.0368 111.94 83.6276 111.41 83.3401C110.89 83.0526 110.276 82.9088 109.568 82.9088H106.583V80.6364H109.602C110.486 80.6364 111.299 80.7801 112.04 81.0677C112.792 81.3441 113.444 81.7477 113.997 82.2785C114.561 82.7982 114.992 83.4175 115.291 84.1363C115.601 84.844 115.755 85.6291 115.755 86.4917C115.755 87.3431 115.601 88.1283 115.291 88.847C114.992 89.5658 114.567 90.1851 114.014 90.7048C113.461 91.2245 112.808 91.6281 112.057 91.9157C111.316 92.2032 110.508 92.3469 109.635 92.3469H106.666ZM104.907 92.3469V80.6364H107.512V92.3469H104.907Z" fill="#004CD2"/>
</svg>
