<svg width="100" height="100" viewBox="0 0 100 100" fill="none" xmlns="http://www.w3.org/2000/svg">
<rect x="16.5138" y="14.2856" width="69.7248" height="72.381" rx="34.8624" fill="#FF9925"/>
<g opacity="0.5">
<path d="M6.83999 50.5334C6.69999 38.3534 11.5 26.1534 21.12 17.2401C30.74 8.33341 43.2667 4.47341 55.4067 5.54674L55.7333 5.24674C54.8867 5.16674 54.04 5.10674 53.1867 5.07341C41.1867 4.61341 29.7267 8.85341 20.92 17.0201C12.1133 25.1801 7.00665 36.2867 6.54665 48.2867C6.51332 49.1401 6.50665 49.9934 6.51999 50.8401L6.83999 50.5334Z" fill="#A7A9AC"/>
<path d="M90.0067 27.4535L90.2467 27.2335C88.6133 24.4668 86.68 21.8601 84.4467 19.4468C81.2733 16.0201 77.6467 13.1535 73.7 10.9001L73.4467 11.1335C77.36 13.3468 81.0067 16.1868 84.22 19.6535C86.4667 22.0868 88.3933 24.7068 90.0067 27.4535Z" fill="#A7A9AC"/>
<path d="M95.7467 44.4402C97.46 58.2268 92.7534 72.6202 81.8067 82.7602C63.7467 99.4935 35.44 98.4068 18.7067 80.3468C15.4934 76.8735 12.94 73.0268 11.0334 68.9535L10.78 69.1868C12.72 73.2935 15.3 77.1268 18.48 80.5535C26.64 89.3668 37.7467 94.4668 49.7467 94.9268C61.7467 95.3868 73.2067 91.1468 82.0134 82.9802C90.82 74.8202 95.9267 63.7135 96.3867 51.7202C96.4867 49.1668 96.3667 46.6402 96.0467 44.1602L95.7467 44.4402Z" fill="#A7A9AC"/>
</g>
<g opacity="0.5">
<path d="M19.0132 32.2134C20.3799 29.7267 22.0466 27.3534 24.0332 25.1601C37.4532 10.3467 60.2199 8.92672 75.3666 21.7534L75.5666 21.5334C68.3199 15.3867 59.1599 12.2734 49.6199 12.7467C39.6666 13.2401 30.5066 17.5801 23.8132 24.9667C21.7866 27.2001 20.0666 29.6334 18.6599 32.2201H19.0132V32.2134Z" fill="#A7A9AC"/>
<path d="M14.5333 47.8667H14.22C14.1466 49.18 14.14 50.5067 14.2066 51.8467C14.68 61.38 18.6866 70.1934 25.5133 76.7934L25.7133 76.5734C17.72 68.84 13.9466 58.2667 14.5333 47.8667Z" fill="#A7A9AC"/>
<path d="M84.2733 32.2133C83.9 31.52 83.5 30.8467 83.08 30.1733L82.86 30.4133C83.2267 31.0067 83.58 31.6067 83.9066 32.2133H84.2733Z" fill="#A7A9AC"/>
<path d="M88.7066 47.8667H88.3933C88.9467 57.4267 85.82 67.2 78.9 74.84C67.56 87.3667 49.5333 90.3067 35.08 83.18L34.86 83.42C40.5133 86.24 46.8267 87.58 53.3133 87.26C63.2667 86.7667 72.4267 82.4267 79.12 75.0467C85.8067 67.66 89.22 58.1134 88.7267 48.16C88.7133 48.06 88.7066 47.96 88.7066 47.8667Z" fill="#A7A9AC"/>
</g>
<g opacity="0.5">
<path d="M66.5667 87.0733C67.1133 86.8467 67.66 86.6067 68.1867 86.3533L68.06 86.0867C67.5333 86.3333 66.9867 86.58 66.4467 86.8L66.5667 87.0733Z" fill="#A7A9AC"/>
<path d="M19.08 73.8135L18.8467 73.9868C19.2 74.4601 19.5667 74.9268 19.94 75.3868L20.1667 75.2001C19.7933 74.7535 19.4267 74.2868 19.08 73.8135Z" fill="#A7A9AC"/>
<path d="M17.1066 70.9067L16.8533 71.0601C17.1599 71.5601 17.4866 72.0601 17.8133 72.5467L18.0599 72.3801C17.7333 71.9001 17.4133 71.4001 17.1066 70.9067Z" fill="#A7A9AC"/>
<path d="M12.82 61.2734L12.5333 61.3534C12.7 61.9201 12.88 62.4868 13.0733 63.0468L13.3533 62.9534C13.1667 62.4001 12.9867 61.8334 12.82 61.2734Z" fill="#A7A9AC"/>
<path d="M23.7667 79.0667L23.5667 79.28C23.9933 79.68 24.44 80.08 24.8866 80.4667L25.08 80.24C24.6333 79.86 24.1933 79.4667 23.7667 79.0667Z" fill="#A7A9AC"/>
<path d="M15.3934 67.8267L15.1267 67.96C15.3934 68.4867 15.6667 69.0133 15.9534 69.5333L16.2134 69.3867C15.9334 68.8733 15.6534 68.3533 15.3934 67.8267Z" fill="#A7A9AC"/>
<path d="M13.96 64.6067L13.6866 64.7134C13.9 65.26 14.1333 65.8134 14.3733 66.3534L14.64 66.2334C14.4066 65.7 14.1733 65.1534 13.96 64.6067Z" fill="#A7A9AC"/>
<path d="M63.2267 88.2933C63.7867 88.1133 64.3533 87.9199 64.9067 87.7199L64.8067 87.4399C64.26 87.6399 63.6933 87.8333 63.14 88.0066L63.2267 88.2933Z" fill="#A7A9AC"/>
<path d="M56.2666 89.5399L56.3066 89.8333C56.8933 89.7533 57.4799 89.6666 58.0599 89.5599L58.0066 89.2666C57.4333 89.3733 56.8466 89.4599 56.2666 89.5399Z" fill="#A7A9AC"/>
<path d="M59.7333 88.9266L59.7999 89.2133C60.3733 89.0866 60.9533 88.9399 61.5266 88.7933L61.4533 88.5066C60.8866 88.6599 60.3066 88.7999 59.7333 88.9266Z" fill="#A7A9AC"/>
<path d="M26.44 81.3601L26.26 81.5934C26.7267 81.9601 27.2 82.3134 27.68 82.6601L27.8533 82.4201C27.3733 82.0801 26.9 81.7268 26.44 81.3601Z" fill="#A7A9AC"/>
<path d="M29.3067 83.4133L29.1467 83.66C29.6401 83.98 30.1467 84.3 30.6534 84.6L30.8067 84.3467C30.3001 84.0467 29.7934 83.7333 29.3067 83.4133Z" fill="#A7A9AC"/>
<path d="M36.6333 87.1801C36.26 87.0334 35.8933 86.8867 35.5267 86.7334L35.4133 87.0067C35.8267 87.1867 36.2533 87.3534 36.68 87.5134L36.6333 87.1801Z" fill="#A7A9AC"/>
<path d="M32.34 85.2134L32.2 85.4734C32.72 85.7534 33.2533 86.02 33.7866 86.2734L33.9133 86.0067C33.3866 85.7534 32.86 85.4867 32.34 85.2134Z" fill="#A7A9AC"/>
<path d="M21.3067 76.5466L21.0867 76.7466C21.48 77.1866 21.8867 77.62 22.3 78.0466L22.5133 77.84C22.1 77.4133 21.6933 76.98 21.3067 76.5466Z" fill="#A7A9AC"/>
<path d="M20.2599 24.7267L20.0333 24.54C19.6599 24.9934 19.2866 25.4667 18.9399 25.94L19.1733 26.12C19.5199 25.6467 19.8866 25.18 20.2599 24.7267Z" fill="#A7A9AC"/>
<path d="M25.0001 19.4734C24.5534 19.8534 24.1067 20.2534 23.6801 20.6534L23.8801 20.8667C24.3067 20.4667 24.7467 20.0734 25.1934 19.6934L25.0001 19.4734Z" fill="#A7A9AC"/>
<path d="M22.4067 21.8933C21.9934 22.3133 21.5867 22.7466 21.1934 23.1866L21.4134 23.3866C21.8067 22.9533 22.2134 22.52 22.62 22.1L22.4067 21.8933Z" fill="#A7A9AC"/>
<path d="M27.54 17.4734C27.1466 17.7601 26.7533 18.0534 26.3733 18.3467L26.5533 18.5801C26.8933 18.3134 27.24 18.0601 27.5866 17.8067L27.54 17.4734Z" fill="#A7A9AC"/>
<path d="M44.08 10.7801L44.0267 10.4868C43.5 10.5801 42.9734 10.6868 42.4534 10.8001L42.4934 11.0935C43.02 10.9801 43.5534 10.8735 44.08 10.7801Z" fill="#A7A9AC"/>
<path d="M52.7666 89.8467L52.8066 90.1401C53.3799 90.1134 53.9666 90.0734 54.5399 90.0267L54.5133 89.7334C53.9333 89.7801 53.3466 89.8201 52.7666 89.8467Z" fill="#A7A9AC"/>
<path d="M17.9 27.3801C17.5666 27.8668 17.24 28.3668 16.9266 28.8668L17.18 29.0201C17.4866 28.5201 17.8133 28.0268 18.14 27.5401L17.9 27.3801Z" fill="#A7A9AC"/>
<path d="M16.0267 30.4001C15.74 30.9135 15.46 31.4401 15.1934 31.9668L15.46 32.1001C15.7267 31.5735 16 31.0535 16.2867 30.5401L16.0267 30.4001Z" fill="#A7A9AC"/>
<path d="M12.1 40.2866C11.96 40.86 11.8267 41.4466 11.7067 42.02L11.9933 42.08C12.1133 41.5066 12.24 40.9266 12.3867 40.3533L12.1 40.2866Z" fill="#A7A9AC"/>
<path d="M14.4266 33.5735C14.1866 34.1135 13.9533 34.6602 13.7333 35.2135L14.0066 35.3202C14.2199 34.7735 14.4533 34.2268 14.6933 33.6935L14.4266 33.5735Z" fill="#A7A9AC"/>
<path d="M13.1133 36.8733C12.92 37.4333 12.7333 38 12.5667 38.5666L12.8467 38.6533C13.0133 38.0933 13.1933 37.5266 13.3867 36.9733L13.1133 36.8733Z" fill="#A7A9AC"/>
<path d="M89.5466 61.5135C89.7133 60.9468 89.8733 60.3668 90.0199 59.8001L89.7333 59.7268C89.5933 60.2935 89.4333 60.8668 89.2666 61.4335L89.5466 61.5135Z" fill="#A7A9AC"/>
<path d="M87.5067 33.8468L87.78 33.7268C87.54 33.1868 87.2867 32.6468 87.0267 32.1201L86.76 32.2535C87.0133 32.7735 87.2667 33.3135 87.5067 33.8468Z" fill="#A7A9AC"/>
<path d="M81.9934 24.8667L82.22 24.68C81.8467 24.22 81.46 23.7667 81.0667 23.3267L80.8467 23.52C81.24 23.9667 81.6267 24.4133 81.9934 24.8667Z" fill="#A7A9AC"/>
<path d="M69.78 85.5601C70.3 85.2868 70.82 84.9934 71.3267 84.7001L71.18 84.4468C70.6733 84.7401 70.16 85.0268 69.64 85.3001L69.78 85.5601Z" fill="#A7A9AC"/>
<path d="M84.0934 27.6934L84.34 27.5267C84.0134 27.0401 83.6667 26.5534 83.3134 26.0801L83.0734 26.2534C83.4267 26.7267 83.7667 27.2134 84.0934 27.6934Z" fill="#A7A9AC"/>
<path d="M51.1867 10.16V9.8667C50.6 9.8667 50 9.88003 49.4133 9.90003L49.4267 10.1934C50.0067 10.1667 50.6 10.1534 51.1867 10.16Z" fill="#A7A9AC"/>
<path d="M45.82 10.5068L45.9067 10.4934C46.4867 10.4201 47.08 10.3534 47.66 10.3068L47.6334 10.0134C47.0467 10.0668 46.4534 10.1268 45.8667 10.2068L45.78 10.2201L45.82 10.5068Z" fill="#A7A9AC"/>
<path d="M54.7067 10.3201L54.7333 10.0267C54.1467 9.9734 53.5533 9.9334 52.96 9.90674L52.9467 10.2001C53.5333 10.2267 54.12 10.2667 54.7067 10.3201Z" fill="#A7A9AC"/>
<path d="M65 12.6667L65.1067 12.3867C64.5534 12.18 63.9867 11.98 63.4267 11.8L63.3334 12.08C63.8934 12.2667 64.4534 12.4667 65 12.6667Z" fill="#A7A9AC"/>
<path d="M61.6467 11.5801L61.7267 11.2934C61.16 11.1401 60.58 10.9934 60 10.8601L59.9333 11.1468C60.5 11.2801 61.08 11.4268 61.6467 11.5801Z" fill="#A7A9AC"/>
<path d="M58.2 10.7933L58.2533 10.5C57.6733 10.3933 57.08 10.3 56.5 10.22L56.46 10.5133C57.0333 10.5933 57.62 10.6866 58.2 10.7933Z" fill="#A7A9AC"/>
<path d="M85.9333 30.6934L86.1933 30.5468C85.9066 30.0334 85.6066 29.5201 85.3 29.0134L85.0466 29.1668C85.3533 29.6668 85.6533 30.1801 85.9333 30.6934Z" fill="#A7A9AC"/>
<path d="M80.9133 76.88C81.3066 76.44 81.6999 75.9867 82.0733 75.5333L81.8466 75.3467C81.4733 75.8 81.0866 76.2467 80.7 76.68L80.9133 76.88Z" fill="#A7A9AC"/>
<path d="M83.1666 74.1399C83.52 73.6666 83.8666 73.1866 84.2 72.6933L83.9533 72.5266C83.62 73.0133 83.2733 73.4933 82.9266 73.9599L83.1666 74.1399Z" fill="#A7A9AC"/>
<path d="M85.1734 71.2068C85.4867 70.7068 85.7867 70.1934 86.08 69.6801L85.82 69.5334C85.5334 70.0468 85.2334 70.5535 84.92 71.0535L85.1734 71.2068Z" fill="#A7A9AC"/>
<path d="M72.8333 83.7734C73.3266 83.4534 73.82 83.12 74.3 82.78L74.1266 82.54C73.6466 82.88 73.16 83.2134 72.6666 83.5267L72.8333 83.7734Z" fill="#A7A9AC"/>
<path d="M86.9133 68.1134C87.18 67.5867 87.44 67.0467 87.68 66.5067L87.4133 66.3867C87.1733 66.9201 86.9133 67.4534 86.6533 67.9801L86.9133 68.1134Z" fill="#A7A9AC"/>
<path d="M75.7267 81.72C76.1934 81.36 76.6534 80.98 77.1 80.6L76.9067 80.3733C76.46 80.7533 76 81.1266 75.54 81.4866L75.7267 81.72Z" fill="#A7A9AC"/>
<path d="M78.4267 79.4135C78.86 79.0135 79.2867 78.5935 79.7 78.1735L79.4867 77.9668C79.08 78.3868 78.6534 78.8001 78.2267 79.1935L78.4267 79.4135Z" fill="#A7A9AC"/>
<path d="M90.46 43.9733L90.7533 43.9266C90.6667 43.3399 90.56 42.7533 90.4466 42.1799L90.1533 42.2399C90.2733 42.8066 90.3733 43.3933 90.46 43.9733Z" fill="#A7A9AC"/>
<path d="M88.38 64.8734C88.6 64.3267 88.8066 63.7667 89 63.2067L88.72 63.1067C88.5266 63.66 88.32 64.22 88.1 64.76L88.38 64.8734Z" fill="#A7A9AC"/>
<path d="M88.7866 37.1267L89.0666 37.0334C88.8733 36.4734 88.6733 35.9134 88.46 35.3667L88.1866 35.4734C88.4 36.02 88.6 36.5734 88.7866 37.1267Z" fill="#A7A9AC"/>
<path d="M89.7801 40.5135L90.0667 40.4401C89.9267 39.8668 89.7734 39.2935 89.6067 38.7268L89.3201 38.8068C89.4867 39.3735 89.6401 39.9468 89.7801 40.5135Z" fill="#A7A9AC"/>
<path d="M91.14 47.46C91.1 46.8734 91.0534 46.28 90.9867 45.6934L90.6934 45.7267C90.76 46.3134 90.8067 46.9 90.8467 47.48L91.14 47.46Z" fill="#A7A9AC"/>
<path d="M90.4134 58.0599C90.5334 57.4799 90.64 56.8933 90.7334 56.3133L90.44 56.2666C90.3467 56.8466 90.24 57.4266 90.1267 57.9999L90.4134 58.0599Z" fill="#A7A9AC"/>
<path d="M90.9733 54.5533C91.0399 53.9666 91.0933 53.3733 91.1333 52.7866L90.8399 52.7666C90.7999 53.3533 90.7466 53.9399 90.6799 54.5199L90.9733 54.5533Z" fill="#A7A9AC"/>
<path d="M91.2134 51.0067C91.2267 50.4201 91.2267 49.8201 91.2134 49.2334L90.92 49.2401C90.9334 49.8267 90.9334 50.4201 90.92 51.0001L91.2134 51.0067Z" fill="#A7A9AC"/>
</g>
<path d="M30.2358 45.2856V38.2556H31.5958V45.2856H30.2358ZM31.2358 42.4056V41.1956H34.7758V42.4056H31.2358ZM31.2358 39.4556V38.2556H34.9458V39.4556H31.2358ZM35.877 45.2856V40.4556H37.187V45.2856H35.877ZM37.187 42.6156L36.677 42.2756C36.737 41.6823 36.9103 41.2156 37.197 40.8756C37.4837 40.529 37.897 40.3556 38.437 40.3556C38.6703 40.3556 38.8803 40.3956 39.067 40.4756C39.2537 40.549 39.4237 40.6723 39.577 40.8456L38.757 41.7856C38.6837 41.7056 38.5937 41.6456 38.487 41.6056C38.387 41.5656 38.2703 41.5456 38.137 41.5456C37.857 41.5456 37.627 41.6356 37.447 41.8156C37.2737 41.989 37.187 42.2556 37.187 42.6156ZM42.2104 45.3856C41.7038 45.3856 41.2538 45.279 40.8604 45.0656C40.4671 44.8456 40.1538 44.5456 39.9204 44.1656C39.6938 43.7856 39.5804 43.3523 39.5804 42.8656C39.5804 42.3856 39.6904 41.959 39.9104 41.5856C40.1371 41.2056 40.4438 40.9056 40.8304 40.6856C41.2171 40.459 41.6471 40.3456 42.1204 40.3456C42.5871 40.3456 42.9971 40.4523 43.3504 40.6656C43.7104 40.8723 43.9904 41.159 44.1904 41.5256C44.3971 41.8856 44.5004 42.2956 44.5004 42.7556C44.5004 42.8423 44.4938 42.9323 44.4804 43.0256C44.4738 43.1123 44.4571 43.2123 44.4304 43.3256L40.3704 43.3356V42.3556L43.8204 42.3456L43.2904 42.7556C43.2771 42.469 43.2238 42.229 43.1304 42.0356C43.0438 41.8423 42.9138 41.6956 42.7404 41.5956C42.5738 41.489 42.3671 41.4356 42.1204 41.4356C41.8604 41.4356 41.6338 41.4956 41.4404 41.6156C41.2471 41.729 41.0971 41.8923 40.9904 42.1056C40.8904 42.3123 40.8404 42.559 40.8404 42.8456C40.8404 43.139 40.8938 43.3956 41.0004 43.6156C41.1138 43.829 41.2738 43.9956 41.4804 44.1156C41.6871 44.229 41.9271 44.2856 42.2004 44.2856C42.4471 44.2856 42.6704 44.2456 42.8704 44.1656C43.0704 44.079 43.2438 43.9523 43.3904 43.7856L44.1604 44.5556C43.9271 44.829 43.6404 45.0356 43.3004 45.1756C42.9671 45.3156 42.6038 45.3856 42.2104 45.3856ZM47.6206 45.3856C47.1139 45.3856 46.6639 45.279 46.2706 45.0656C45.8773 44.8456 45.5639 44.5456 45.3306 44.1656C45.1039 43.7856 44.9906 43.3523 44.9906 42.8656C44.9906 42.3856 45.1006 41.959 45.3206 41.5856C45.5473 41.2056 45.8539 40.9056 46.2406 40.6856C46.6273 40.459 47.0573 40.3456 47.5306 40.3456C47.9973 40.3456 48.4073 40.4523 48.7606 40.6656C49.1206 40.8723 49.4006 41.159 49.6006 41.5256C49.8073 41.8856 49.9106 42.2956 49.9106 42.7556C49.9106 42.8423 49.9039 42.9323 49.8906 43.0256C49.8839 43.1123 49.8673 43.2123 49.8406 43.3256L45.7806 43.3356V42.3556L49.2306 42.3456L48.7006 42.7556C48.6873 42.469 48.6339 42.229 48.5406 42.0356C48.4539 41.8423 48.3239 41.6956 48.1506 41.5956C47.9839 41.489 47.7773 41.4356 47.5306 41.4356C47.2706 41.4356 47.0439 41.4956 46.8506 41.6156C46.6573 41.729 46.5073 41.8923 46.4006 42.1056C46.3006 42.3123 46.2506 42.559 46.2506 42.8456C46.2506 43.139 46.3039 43.3956 46.4106 43.6156C46.5239 43.829 46.6839 43.9956 46.8906 44.1156C47.0973 44.229 47.3373 44.2856 47.6106 44.2856C47.8573 44.2856 48.0806 44.2456 48.2806 44.1656C48.4806 44.079 48.6539 43.9523 48.8006 43.7856L49.5706 44.5556C49.3373 44.829 49.0506 45.0356 48.7106 45.1756C48.3773 45.3156 48.0139 45.3856 47.6206 45.3856ZM56.0639 45.3856C55.5639 45.3856 55.0939 45.2956 54.6539 45.1156C54.2205 44.929 53.8372 44.669 53.5039 44.3356C53.1772 44.0023 52.9205 43.619 52.7339 43.1856C52.5539 42.7456 52.4639 42.2723 52.4639 41.7656C52.4639 41.2523 52.5572 40.779 52.7439 40.3456C52.9305 39.9056 53.1905 39.5223 53.5239 39.1956C53.8572 38.8623 54.2472 38.6056 54.6939 38.4256C55.1405 38.239 55.6239 38.1456 56.1439 38.1456C56.7239 38.1456 57.2572 38.2556 57.7439 38.4756C58.2305 38.689 58.6339 38.9923 58.9539 39.3856L58.0339 40.3056C57.8139 40.019 57.5405 39.799 57.2139 39.6456C56.8872 39.4923 56.5272 39.4156 56.1339 39.4156C55.6872 39.4156 55.2905 39.5156 54.9439 39.7156C54.6039 39.909 54.3372 40.1823 54.1439 40.5356C53.9505 40.8823 53.8539 41.289 53.8539 41.7556C53.8539 42.2223 53.9472 42.6356 54.1339 42.9956C54.3272 43.349 54.5872 43.6256 54.9139 43.8256C55.2472 44.0256 55.6272 44.1256 56.0539 44.1256C56.4939 44.1256 56.8705 44.0456 57.1839 43.8856C57.4972 43.719 57.7372 43.479 57.9039 43.1656C58.0705 42.8456 58.1539 42.4556 58.1539 41.9956L59.0439 42.6056L55.9739 42.5756V41.3956H59.5539V41.5856C59.5539 42.4256 59.4039 43.129 59.1039 43.6956C58.8039 44.2556 58.3905 44.679 57.8639 44.9656C57.3439 45.2456 56.7439 45.3856 56.0639 45.3856ZM62.5004 45.3856C61.9337 45.3856 61.447 45.289 61.0404 45.0956C60.6404 44.9023 60.277 44.6123 59.9504 44.2256L60.8504 43.3256C61.057 43.599 61.297 43.8123 61.5704 43.9656C61.8437 44.1123 62.177 44.1856 62.5704 44.1856C62.9237 44.1856 63.2037 44.1156 63.4104 43.9756C63.6237 43.8356 63.7304 43.6423 63.7304 43.3956C63.7304 43.1823 63.6704 43.009 63.5504 42.8756C63.4304 42.7423 63.2704 42.629 63.0704 42.5356C62.877 42.4423 62.6604 42.359 62.4204 42.2856C62.187 42.2056 61.9504 42.1156 61.7104 42.0156C61.477 41.9156 61.2604 41.7923 61.0604 41.6456C60.867 41.4923 60.7104 41.299 60.5904 41.0656C60.4704 40.8256 60.4104 40.5256 60.4104 40.1656C60.4104 39.739 60.5137 39.3756 60.7204 39.0756C60.927 38.7756 61.2104 38.5456 61.5704 38.3856C61.9304 38.2256 62.337 38.1456 62.7904 38.1456C63.2704 38.1456 63.7037 38.2356 64.0904 38.4156C64.477 38.5956 64.7937 38.829 65.0404 39.1156L64.1404 40.0156C63.9337 39.789 63.7204 39.6223 63.5004 39.5156C63.287 39.409 63.0437 39.3556 62.7704 39.3556C62.457 39.3556 62.2104 39.4156 62.0304 39.5356C61.8504 39.6556 61.7604 39.829 61.7604 40.0556C61.7604 40.249 61.8204 40.4056 61.9404 40.5256C62.0604 40.6456 62.217 40.749 62.4104 40.8356C62.6104 40.9223 62.827 41.0056 63.0604 41.0856C63.3004 41.1656 63.537 41.2556 63.7704 41.3556C64.0104 41.4556 64.227 41.5856 64.4204 41.7456C64.6204 41.9056 64.7804 42.1123 64.9004 42.3656C65.0204 42.6123 65.0804 42.919 65.0804 43.2856C65.0804 43.939 64.8504 44.4523 64.3904 44.8256C63.9304 45.199 63.3004 45.3856 62.5004 45.3856ZM67.6105 45.2856V38.4056H68.9805V45.2856H67.6105ZM65.3705 39.4656V38.2556H71.2205V39.4656H65.3705ZM25.2397 55.3456V54.2856H26.8697C27.203 54.2856 27.4597 54.2023 27.6397 54.0356C27.8263 53.8623 27.9197 53.6256 27.9197 53.3256C27.9197 53.0523 27.8263 52.8256 27.6397 52.6456C27.4597 52.459 27.203 52.3656 26.8697 52.3656H25.2397V51.2556H26.9897C27.443 51.2556 27.8397 51.3456 28.1797 51.5256C28.5263 51.699 28.793 51.939 28.9797 52.2456C29.173 52.5523 29.2697 52.9056 29.2697 53.3056C29.2697 53.719 29.173 54.079 28.9797 54.3856C28.793 54.6856 28.5263 54.9223 28.1797 55.0956C27.833 55.2623 27.4297 55.3456 26.9697 55.3456H25.2397ZM24.2397 58.2856V51.2556H25.5997V58.2856H24.2397ZM28.0797 58.2856L25.7597 55.2456L27.0097 54.8556L29.7297 58.2856H28.0797ZM32.5327 58.3856C32.026 58.3856 31.576 58.279 31.1827 58.0656C30.7894 57.8456 30.476 57.5456 30.2427 57.1656C30.016 56.7856 29.9027 56.3523 29.9027 55.8656C29.9027 55.3856 30.0127 54.959 30.2327 54.5856C30.4594 54.2056 30.766 53.9056 31.1527 53.6856C31.5394 53.459 31.9694 53.3456 32.4427 53.3456C32.9094 53.3456 33.3194 53.4523 33.6727 53.6656C34.0327 53.8723 34.3127 54.159 34.5127 54.5256C34.7194 54.8856 34.8227 55.2956 34.8227 55.7556C34.8227 55.8423 34.816 55.9323 34.8027 56.0256C34.796 56.1123 34.7794 56.2123 34.7527 56.3256L30.6927 56.3356V55.3556L34.1427 55.3456L33.6127 55.7556C33.5994 55.469 33.546 55.229 33.4527 55.0356C33.366 54.8423 33.236 54.6956 33.0627 54.5956C32.896 54.489 32.6894 54.4356 32.4427 54.4356C32.1827 54.4356 31.956 54.4956 31.7627 54.6156C31.5694 54.729 31.4194 54.8923 31.3127 55.1056C31.2127 55.3123 31.1627 55.559 31.1627 55.8456C31.1627 56.139 31.216 56.3956 31.3227 56.6156C31.436 56.829 31.596 56.9956 31.8027 57.1156C32.0094 57.229 32.2494 57.2856 32.5227 57.2856C32.7694 57.2856 32.9927 57.2456 33.1927 57.1656C33.3927 57.079 33.566 56.9523 33.7127 56.7856L34.4827 57.5556C34.2494 57.829 33.9627 58.0356 33.6227 58.1756C33.2894 58.3156 32.926 58.3856 32.5327 58.3856ZM37.6529 60.4256C37.1395 60.4256 36.6862 60.3323 36.2929 60.1456C35.8995 59.9656 35.5862 59.709 35.3529 59.3756L36.1829 58.5456C36.3695 58.7656 36.5762 58.9323 36.8029 59.0456C37.0362 59.1656 37.3162 59.2256 37.6429 59.2256C38.0495 59.2256 38.3695 59.1223 38.6029 58.9156C38.8429 58.709 38.9629 58.4223 38.9629 58.0556V56.8456L39.1829 55.7856L38.9729 54.7256V53.4556H40.2729V58.0356C40.2729 58.5156 40.1595 58.9323 39.9329 59.2856C39.7129 59.6456 39.4062 59.9256 39.0129 60.1256C38.6195 60.3256 38.1662 60.4256 37.6529 60.4256ZM37.5929 58.1556C37.1595 58.1556 36.7695 58.0523 36.4229 57.8456C36.0762 57.6323 35.8029 57.3423 35.6029 56.9756C35.4095 56.609 35.3129 56.199 35.3129 55.7456C35.3129 55.2923 35.4095 54.8856 35.6029 54.5256C35.8029 54.1656 36.0762 53.8823 36.4229 53.6756C36.7695 53.4623 37.1595 53.3556 37.5929 53.3556C37.9529 53.3556 38.2695 53.4256 38.5429 53.5656C38.8229 53.7056 39.0429 53.899 39.2029 54.1456C39.3629 54.3856 39.4495 54.669 39.4629 54.9956V56.5156C39.4495 56.8356 39.3595 57.1223 39.1929 57.3756C39.0329 57.6223 38.8129 57.8156 38.5329 57.9556C38.2595 58.089 37.9462 58.1556 37.5929 58.1556ZM37.8529 56.9656C38.0929 56.9656 38.2995 56.9156 38.4729 56.8156C38.6529 56.709 38.7929 56.5656 38.8929 56.3856C38.9929 56.199 39.0429 55.989 39.0429 55.7556C39.0429 55.5156 38.9929 55.3056 38.8929 55.1256C38.7929 54.9456 38.6529 54.8056 38.4729 54.7056C38.2995 54.599 38.0929 54.5456 37.8529 54.5456C37.6129 54.5456 37.4029 54.599 37.2229 54.7056C37.0429 54.8056 36.9029 54.949 36.8029 55.1356C36.7029 55.3156 36.6529 55.5223 36.6529 55.7556C36.6529 55.9823 36.7029 56.189 36.8029 56.3756C36.9029 56.5556 37.0429 56.699 37.2229 56.8056C37.4029 56.9123 37.6129 56.9656 37.8529 56.9656ZM41.4239 58.2856V53.4556H42.7439V58.2856H41.4239ZM42.0839 52.6756C41.8705 52.6756 41.6939 52.6056 41.5539 52.4656C41.4139 52.319 41.3439 52.139 41.3439 51.9256C41.3439 51.719 41.4139 51.5423 41.5539 51.3956C41.6939 51.249 41.8705 51.1756 42.0839 51.1756C42.3039 51.1756 42.4805 51.249 42.6139 51.3956C42.7539 51.5423 42.8239 51.719 42.8239 51.9256C42.8239 52.139 42.7539 52.319 42.6139 52.4656C42.4805 52.6056 42.3039 52.6756 42.0839 52.6756ZM45.5643 58.3956C45.291 58.3956 45.021 58.359 44.7543 58.2856C44.4943 58.2123 44.2543 58.1123 44.0343 57.9856C43.8143 57.8523 43.6243 57.6923 43.4643 57.5056L44.2443 56.7156C44.411 56.9023 44.6043 57.0423 44.8243 57.1356C45.0443 57.229 45.2877 57.2756 45.5543 57.2756C45.7677 57.2756 45.9277 57.2456 46.0343 57.1856C46.1477 57.1256 46.2043 57.0356 46.2043 56.9156C46.2043 56.7823 46.1443 56.679 46.0243 56.6056C45.911 56.5323 45.761 56.4723 45.5743 56.4256C45.3877 56.3723 45.191 56.3156 44.9843 56.2556C44.7843 56.189 44.591 56.1056 44.4043 56.0056C44.2177 55.899 44.0643 55.7556 43.9443 55.5756C43.831 55.389 43.7743 55.149 43.7743 54.8556C43.7743 54.549 43.8477 54.2823 43.9943 54.0556C44.1477 53.829 44.3643 53.6523 44.6443 53.5256C44.9243 53.399 45.2543 53.3356 45.6343 53.3356C46.0343 53.3356 46.3943 53.4056 46.7143 53.5456C47.041 53.6856 47.311 53.8956 47.5243 54.1756L46.7343 54.9656C46.5877 54.7856 46.421 54.6556 46.2343 54.5756C46.0543 54.4956 45.8577 54.4556 45.6443 54.4556C45.451 54.4556 45.301 54.4856 45.1943 54.5456C45.0943 54.6056 45.0443 54.689 45.0443 54.7956C45.0443 54.9156 45.101 55.009 45.2143 55.0756C45.3343 55.1423 45.4877 55.2023 45.6743 55.2556C45.861 55.3023 46.0543 55.359 46.2543 55.4256C46.461 55.4856 46.6543 55.5723 46.8343 55.6856C47.021 55.799 47.171 55.949 47.2843 56.1356C47.4043 56.3223 47.4643 56.5623 47.4643 56.8556C47.4643 57.329 47.2943 57.7056 46.9543 57.9856C46.6143 58.259 46.151 58.3956 45.5643 58.3956ZM49.0577 58.2856V51.4456H50.3677V58.2856H49.0577ZM47.9277 54.6056V53.4556H51.4977V54.6056H47.9277ZM52.2344 58.2856V53.4556H53.5444V58.2856H52.2344ZM53.5444 55.6156L53.0344 55.2756C53.0944 54.6823 53.2678 54.2156 53.5544 53.8756C53.8411 53.529 54.2544 53.3556 54.7944 53.3556C55.0278 53.3556 55.2378 53.3956 55.4244 53.4756C55.6111 53.549 55.7811 53.6723 55.9344 53.8456L55.1144 54.7856C55.0411 54.7056 54.9511 54.6456 54.8444 54.6056C54.7444 54.5656 54.6278 54.5456 54.4944 54.5456C54.2144 54.5456 53.9844 54.6356 53.8044 54.8156C53.6311 54.989 53.5444 55.2556 53.5444 55.6156ZM58.2779 58.3856C57.8379 58.3856 57.4412 58.2756 57.0879 58.0556C56.7345 57.8356 56.4579 57.5356 56.2579 57.1556C56.0579 56.7756 55.9579 56.349 55.9579 55.8756C55.9579 55.3956 56.0579 54.9656 56.2579 54.5856C56.4579 54.2056 56.7345 53.9056 57.0879 53.6856C57.4412 53.4656 57.8379 53.3556 58.2779 53.3556C58.6245 53.3556 58.9345 53.4256 59.2079 53.5656C59.4812 53.7056 59.6979 53.9023 59.8579 54.1556C60.0245 54.4023 60.1145 54.6823 60.1279 54.9956V56.7356C60.1145 57.0556 60.0245 57.339 59.8579 57.5856C59.6979 57.8323 59.4812 58.029 59.2079 58.1756C58.9345 58.3156 58.6245 58.3856 58.2779 58.3856ZM58.5179 57.1756C58.8845 57.1756 59.1812 57.0556 59.4079 56.8156C59.6345 56.569 59.7479 56.2523 59.7479 55.8656C59.7479 55.6123 59.6945 55.389 59.5879 55.1956C59.4879 54.9956 59.3445 54.8423 59.1579 54.7356C58.9779 54.6223 58.7645 54.5656 58.5179 54.5656C58.2779 54.5656 58.0645 54.6223 57.8779 54.7356C57.6979 54.8423 57.5545 54.9956 57.4479 55.1956C57.3479 55.389 57.2979 55.6123 57.2979 55.8656C57.2979 56.1256 57.3479 56.3556 57.4479 56.5556C57.5545 56.749 57.6979 56.9023 57.8779 57.0156C58.0645 57.1223 58.2779 57.1756 58.5179 57.1756ZM59.6779 58.2856V56.9856L59.8879 55.8056L59.6779 54.6456V53.4556H60.9779V58.2856H59.6779ZM62.8468 58.2856V51.4456H64.1568V58.2856H62.8468ZM61.7168 54.6056V53.4556H65.2868V54.6056H61.7168ZM66.0235 58.2856V53.4556H67.3435V58.2856H66.0235ZM66.6835 52.6756C66.4702 52.6756 66.2935 52.6056 66.1535 52.4656C66.0135 52.319 65.9435 52.139 65.9435 51.9256C65.9435 51.719 66.0135 51.5423 66.1535 51.3956C66.2935 51.249 66.4702 51.1756 66.6835 51.1756C66.9035 51.1756 67.0802 51.249 67.2135 51.3956C67.3535 51.5423 67.4235 51.719 67.4235 51.9256C67.4235 52.139 67.3535 52.319 67.2135 52.4656C67.0802 52.6056 66.9035 52.6756 66.6835 52.6756ZM70.774 58.3856C70.2873 58.3856 69.8473 58.2756 69.454 58.0556C69.0673 57.829 68.7573 57.5256 68.524 57.1456C68.2973 56.759 68.184 56.329 68.184 55.8556C68.184 55.3823 68.2973 54.959 68.524 54.5856C68.7506 54.2056 69.0606 53.9056 69.454 53.6856C69.8473 53.459 70.284 53.3456 70.764 53.3456C71.2573 53.3456 71.6973 53.459 72.084 53.6856C72.4773 53.9056 72.7873 54.2056 73.014 54.5856C73.2406 54.959 73.354 55.3823 73.354 55.8556C73.354 56.329 73.2406 56.759 73.014 57.1456C72.7873 57.5256 72.4773 57.829 72.084 58.0556C71.6973 58.2756 71.2606 58.3856 70.774 58.3856ZM70.764 57.1656C71.0106 57.1656 71.2273 57.1123 71.414 57.0056C71.6073 56.8923 71.754 56.739 71.854 56.5456C71.9606 56.3456 72.014 56.119 72.014 55.8656C72.014 55.6123 71.9606 55.389 71.854 55.1956C71.7473 55.0023 71.6006 54.8523 71.414 54.7456C71.2273 54.6323 71.0106 54.5756 70.764 54.5756C70.524 54.5756 70.3106 54.6323 70.124 54.7456C69.9373 54.8523 69.7906 55.0023 69.684 55.1956C69.5773 55.389 69.524 55.6123 69.524 55.8656C69.524 56.119 69.5773 56.3456 69.684 56.5456C69.7906 56.739 69.9373 56.8923 70.124 57.0056C70.3106 57.1123 70.524 57.1656 70.764 57.1656ZM77.4473 58.2856V55.5156C77.4473 55.229 77.3573 54.9956 77.1773 54.8156C76.9973 54.6356 76.764 54.5456 76.4773 54.5456C76.2907 54.5456 76.124 54.5856 75.9773 54.6656C75.8307 54.7456 75.714 54.859 75.6273 55.0056C75.5473 55.1523 75.5073 55.3223 75.5073 55.5156L74.9973 55.2556C74.9973 54.8756 75.0773 54.5456 75.2373 54.2656C75.404 53.979 75.6307 53.7556 75.9173 53.5956C76.2107 53.4356 76.5407 53.3556 76.9073 53.3556C77.2607 53.3556 77.5773 53.4456 77.8573 53.6256C78.1373 53.799 78.3573 54.029 78.5173 54.3156C78.6773 54.5956 78.7573 54.899 78.7573 55.2256V58.2856H77.4473ZM74.1973 58.2856V53.4556H75.5073V58.2856H74.1973Z" fill="#004CD2"/>
<path d="M90.7733 30.98H79.9933V49.4466H95.0066V35.6666L90.7733 30.98Z" fill="#B0B1B1"/>
<path d="M90.7733 30.98H79.9933V51.2466H95.0066V35.6666H90.7733V30.98Z" fill="white"/>
<path d="M90.7733 30.98H79.9933V32.3066H90.7733V30.98Z" fill="#F26135"/>
<path d="M86.9466 45.8667H81.7V46.3934H86.9466V45.8667Z" fill="#B0B1B1"/>
<path d="M93.3 47.1533H81.7V47.68H93.3V47.1533Z" fill="#B0B1B1"/>
<path d="M93.3 48.3401H81.7V48.8668H93.3V48.3401Z" fill="#B0B1B1"/>
<path d="M82.4733 39.8601H82.3266H81.7V42.2734H82.3266H82.4733H82.8399V39.8601H82.4733Z" fill="#F26135"/>
<path d="M83.7133 36.9934H83.5666H83.2V42.2734H83.5666H83.7133H84.3399V36.9934H83.7133Z" fill="#F26135"/>
<path d="M85.1667 41.1467H85.02H84.6533V42.2734H85.02H85.1667H85.8V41.1467H85.1667Z" fill="#F26135"/>
<path d="M86.6667 38.6599H86.52H86.1533V42.2732H86.52H86.6667H87.3V38.6599H86.6667Z" fill="#F26135"/>
<path d="M88.0867 39.6333H87.94H87.5734V42.2733H87.94H88.0867H88.7134V39.6333H88.0867Z" fill="#FFD221"/>
<path d="M89.5399 38.04H89.3933H89.0266V42.2734H89.3933H89.5399H90.1733V38.04H89.5399Z" fill="#FFD221"/>
<path d="M91.0534 36.9934H90.9067H90.54V42.2734H90.9067H91.0534H91.6867V36.9934H91.0534Z" fill="#FFD221"/>
<path d="M92.5333 37.5066H92.3867H92.02V42.2733H92.3867H92.5333H93.16V37.5066H92.5333Z" fill="#FFD221"/>
<path d="M87.22 43.2266H81.7V45.0132H87.22V43.2266Z" fill="#B0B1B1"/>
<path d="M93.16 43.2266H87.64V45.0132H93.16V43.2266Z" fill="#B0B1B1"/>
<path d="M69.1133 3.37988H59.3267V17.5865H69.1133V3.37988Z" fill="#171E21"/>
<path d="M61.3533 7.6731H59.9667V9.05976H61.3533V7.6731Z" fill="#2FBEBD"/>
<path d="M61.3533 10.1465H59.9667V11.5332H61.3533V10.1465Z" fill="white"/>
<path d="M61.3533 12.6199H59.9667V14.0065H61.3533V12.6199Z" fill="white"/>
<path d="M61.3533 15.0933H59.9667V16.4799H61.3533V15.0933Z" fill="white"/>
<path d="M63.7266 7.6731H62.34V9.05976H63.7266V7.6731Z" fill="#2FBEBD"/>
<path d="M63.7266 10.1465H62.34V11.5332H63.7266V10.1465Z" fill="white"/>
<path d="M63.7266 12.6199H62.34V14.0065H63.7266V12.6199Z" fill="white"/>
<path d="M63.7266 15.093H62.34V16.4797H63.7266V15.093Z" fill="white"/>
<path d="M66.1066 7.6731H64.72V9.05976H66.1066V7.6731Z" fill="#2FBEBD"/>
<path d="M61.3533 7.05981H59.9667V7.24648H61.3533V7.05981Z" fill="white"/>
<path d="M63.7266 7.05981H62.34V7.24648H63.7266V7.05981Z" fill="white"/>
<path d="M66.1066 7.05981H64.72V7.24648H66.1066V7.05981Z" fill="white"/>
<path d="M66.1066 10.1465H64.72V11.5332H66.1066V10.1465Z" fill="white"/>
<path d="M66.1066 12.6199H64.72V14.0065H66.1066V12.6199Z" fill="white"/>
<path d="M66.1066 15.0933H64.72V16.4799H66.1066V15.0933Z" fill="white"/>
<path d="M68.48 7.6731H67.0934V9.05976H68.48V7.6731Z" fill="#2FBEBD"/>
<path d="M68.48 10.1465H67.0934V11.5332H68.48V10.1465Z" fill="#2FBEBD"/>
<path d="M68.48 12.6199H67.0934V16.4799H68.48V12.6199Z" fill="#2FBEBD"/>
<path d="M68.6134 3.93311H59.8334V6.51311H68.6134V3.93311Z" fill="white"/>
<path d="M67.9933 7.15326C67.9933 7.27992 67.8866 7.38659 67.7599 7.38659C67.6333 7.38659 67.5266 7.27992 67.5266 7.15326C67.5266 7.02659 67.6333 6.91992 67.7599 6.91992C67.8933 6.91992 67.9933 7.02659 67.9933 7.15326Z" fill="white"/>
<path d="M3.57996 36.9668C3.57996 36.3201 4.10662 35.7935 4.75329 35.7935H14.5C15.1466 35.7935 15.6733 36.3201 15.6733 36.9668V53.0535C15.6733 53.7001 15.1466 54.2268 14.5 54.2268H4.75329C4.10662 54.2268 3.57996 53.7001 3.57996 53.0535V36.9668Z" fill="#171E21"/>
<path d="M14.5333 37.1536H4.71997V52.8736H14.5333V37.1536Z" fill="white"/>
<path d="M14.5333 37.0269H4.71997V37.7669H14.5333V37.0269Z" fill="#FFD221"/>
<path d="M9.62665 54.0402C9.36665 54.0402 9.15332 53.8268 9.15332 53.5668C9.15332 53.3068 9.36665 53.0935 9.62665 53.0935C9.88665 53.0935 10.1 53.3068 10.1 53.5668C10.1 53.8335 9.88665 54.0402 9.62665 54.0402Z" fill="white"/>
<path d="M10.4066 50.4268H8.83997V51.9601H10.4066V50.4268Z" fill="#B0B1B1"/>
<path d="M12.2067 50.4268H10.6733V51.9601H12.2067V50.4268Z" fill="#FFD221"/>
<path d="M14.0266 50.4268H12.4933V51.9601H14.0266V50.4268Z" fill="#B0B1B1"/>
<path d="M8.57996 50.4268H7.04663V51.9601H8.57996V50.4268Z" fill="#B0B1B1"/>
<path d="M6.7599 50.4268H5.22656V51.9601H6.7599V50.4268Z" fill="#B0B1B1"/>
<path d="M11.4533 36.5735C11.4533 36.6335 11.4066 36.6802 11.3466 36.6802H7.90659C7.84659 36.6802 7.79993 36.6335 7.79993 36.5735V36.2668C7.79993 36.2068 7.84659 36.1602 7.90659 36.1602H11.3466C11.4066 36.1602 11.4533 36.2068 11.4533 36.2668V36.5735Z" fill="white"/>
<path opacity="0.2" d="M14.4999 35.8003H9.55994V54.2336H14.4999C15.1466 54.2336 15.6733 53.707 15.6733 53.0603V36.967C15.6733 36.3203 15.1466 35.8003 14.4999 35.8003Z" fill="white"/>
<path d="M47.6508 98.1806C47.6508 98.1806 47.4041 98.634 49.1374 99.014H85.4241C85.4241 99.014 86.6375 98.934 86.9575 98.3673V98.054L47.6508 98.1806Z" fill="#B0B1B1"/>
<path d="M47.6573 97.2607H86.9707V98.2674C86.9707 98.2674 87.0307 98.4007 86.564 98.3674H48.0307C48.0307 98.3674 47.6707 98.4674 47.6373 98.2341L47.6573 97.2607Z" fill="white"/>
<path d="M85.144 97.8541C85.144 97.8941 85.1173 97.9274 85.084 97.9274H83.744C83.7106 97.9274 83.684 97.8941 83.684 97.8541C83.684 97.8141 83.7106 97.7808 83.744 97.7808H85.084C85.1173 97.7808 85.144 97.8141 85.144 97.8541Z" fill="#B0B1B1"/>
<path d="M64.644 97.2673C64.644 97.2673 64.4907 97.774 64.9973 97.8207H69.5573C69.5573 97.8207 70.044 97.8807 69.9773 97.2807L64.644 97.2673Z" fill="#B0B1B1"/>
<path d="M83.104 97.254V79.334C83.104 78.5207 82.4373 77.854 81.624 77.854H52.9773C52.164 77.854 51.4973 78.5207 51.4973 79.334V97.254H83.104Z" fill="#171E21"/>
<path d="M82.0907 78.9673H52.5173V96.1539H82.0907V78.9673Z" fill="white"/>
<path d="M58.604 78.9673L59.884 95.4939H74.724L76.004 78.9673H58.604Z" fill="#D7D4D4"/>
<path d="M74.7307 76.7207H59.884V95.5007H74.7307V76.7207Z" fill="#2FBEBD"/>
<path d="M62.9107 79.2141C62.9107 79.4541 62.7174 79.6474 62.4774 79.6474C62.2374 79.6474 62.0441 79.4541 62.0441 79.2141C62.0441 78.9741 62.2374 78.7808 62.4774 78.7808C62.7174 78.7808 62.9107 78.9741 62.9107 79.2141Z" fill="#171E21"/>
<path d="M72.544 79.2141C72.544 79.4541 72.3507 79.6474 72.1107 79.6474C71.8707 79.6474 71.6774 79.4541 71.6774 79.2141C71.6774 78.9741 71.8707 78.7808 72.1107 78.7808C72.3507 78.7808 72.544 78.9741 72.544 79.2141Z" fill="#171E21"/>
<path d="M62.6706 79.2207V77.114C62.6706 74.6074 64.7106 72.5607 67.2173 72.5607H67.3906C69.8973 72.5607 71.9373 74.6007 71.9373 77.114V79.2207H72.284V77.114C72.284 74.414 70.0906 72.2207 67.3906 72.2207H67.2173C64.5173 72.2207 62.324 74.414 62.324 77.114V79.2207H62.6706Z" fill="#171E21"/>
<path d="M79.8106 92.5339C79.8106 93.3273 79.1706 93.9673 78.3773 93.9673C77.584 93.9673 76.944 93.3273 76.944 92.5339C76.944 91.7406 77.584 91.1006 78.3773 91.1006C79.1706 91.1006 79.8106 91.7473 79.8106 92.5339Z" fill="white"/>
<path fill-rule="evenodd" clip-rule="evenodd" d="M27.8534 71.2803C30.1334 71.2803 32.1134 72.9736 32.1067 75.4136C32.1001 78.5003 29.7267 79.8003 29.9667 81.4403C29.7401 81.9869 29.5801 82.3336 29.5801 82.3336H26.1201C26.1201 82.3336 25.5801 81.9803 25.6934 81.3403C26.0001 79.6336 23.5934 78.5469 23.5934 75.4136C23.6001 73.1269 25.5734 71.2803 27.8534 71.2803Z" fill="#FFD221"/>
<path d="M27.22 76.4868H27.0333V81.5401H27.22V76.4868Z" fill="white"/>
<path d="M29.5333 76.3936H26.1733V76.5802H29.5333V76.3936Z" fill="white"/>
<path d="M28.6734 76.4868H28.4867V81.5401H28.6734V76.4868Z" fill="white"/>
<path d="M29.1 83.9802H26.5333V84.6336H29.1V83.9802Z" fill="#171E21"/>
<path d="M30.1067 81.4268H25.5934V84.1734H30.1067V81.4268Z" fill="white"/>
<path fill-rule="evenodd" clip-rule="evenodd" d="M30.1667 82.3202L30.2 81.5735H25.5067L25.54 82.3202H30.1667Z" fill="#171E21"/>
<path fill-rule="evenodd" clip-rule="evenodd" d="M30.1667 83.1668L30.2 82.4202H25.5067L25.54 83.1668H30.1667Z" fill="#171E21"/>
<path fill-rule="evenodd" clip-rule="evenodd" d="M30.1667 84.0068L30.2 83.2668H25.5067L25.54 84.0068H30.1667Z" fill="#171E21"/>
<path opacity="0.2" fill-rule="evenodd" clip-rule="evenodd" d="M30.1667 82.3201L30.2 81.5734H30.1067V81.4268H29.9667C29.74 79.7934 32.1067 78.4868 32.1067 75.4068C32.1134 72.9668 30.1334 71.2734 27.8534 71.2734C27.8267 71.2734 27.8067 71.2734 27.78 71.2801V84.6268H29.1V84.1734H30.1067V84.0068H30.16L30.1934 83.2601H30.1V83.1601H30.1534L30.1867 82.4134H30.0934V82.3134H30.1667V82.3201Z" fill="white"/>
<path d="M40.0733 5.23999H27.2733V6.23332H40.0733V5.23999Z" fill="#F26526"/>
<path d="M40.0733 6.2334H27.2733V24.1134H40.0733V6.2334Z" fill="white"/>
<path d="M33.1666 11.1733H28.3733V11.5933H33.1666V11.1733Z" fill="#B0B1B1"/>
<path d="M38.9733 12.8999H28.3733V13.3199H38.9733V12.8999Z" fill="#B0B1B1"/>
<path d="M38.9733 13.8601H28.3733V14.2801H38.9733V13.8601Z" fill="#B0B1B1"/>
<path d="M38.9733 14.8201H28.3733V15.2401H38.9733V14.8201Z" fill="#B0B1B1"/>
<path d="M38.9733 15.78H28.3733V16.2H38.9733V15.78Z" fill="#B0B1B1"/>
<path d="M38.9733 16.74H28.3733V17.16H38.9733V16.74Z" fill="#B0B1B1"/>
<path d="M38.9733 17.7H28.3733V18.12H38.9733V17.7Z" fill="#B0B1B1"/>
<path d="M38.9733 18.6599H28.3733V19.0799H38.9733V18.6599Z" fill="#B0B1B1"/>
<path d="M38.9733 19.6133H28.3733V20.0333H38.9733V19.6133Z" fill="#B0B1B1"/>
<path d="M38.9733 20.5732H28.3733V20.9932H38.9733V20.5732Z" fill="#B0B1B1"/>
<path d="M38.9733 21.5266H28.3733V21.9466H38.9733V21.5266Z" fill="#B0B1B1"/>
<path d="M38.9733 22.4866H28.3733V22.9066H38.9733V22.4866Z" fill="#B0B1B1"/>
<path d="M34.9067 7.71338V8.12671H34.3867V9.81338H33.8867V8.13338H33.36V7.72005H34.9067V7.71338Z" fill="#B0B1B1"/>
<path d="M36.0067 7.71338L36.6667 9.82005H36.1333L36.0067 9.38671H35.3267L35.1933 9.82005H34.76L35.4333 7.71338H36.0067ZM35.4467 9.00005H35.8933L35.6733 8.26005L35.4467 9.00005Z" fill="#B0B1B1"/>
<path d="M38.4934 7.71338L37.92 8.69338L38.5734 9.82005H38L37.58 9.05338L37.16 9.82005H36.6934L37.3467 8.70005L36.7667 7.72005H37.34L37.68 8.36005L38.04 7.72005H38.4934V7.71338Z" fill="#B0B1B1"/>
</svg>
