<svg width="107" height="133" viewBox="0 0 107 133" fill="none" xmlns="http://www.w3.org/2000/svg">
<path d="M32.9999 69.7854V111.785H89.9782H89.9999V72.682C89.9999 71.0821 88.6815 69.7854 87.0541 69.7854H32.9999Z" fill="#0962FF"/>
<path d="M61.4999 132.785L89.9999 111.785H32.9999L61.4999 132.785Z" fill="#175FDE"/>
<path d="M14.8827 8.63843V76.4574H105.966H106V13.3152C106 10.7326 103.892 8.63843 101.292 8.63843H14.8827Z" fill="#004CD2"/>
<path d="M60.403 106.541L105.962 76.4575H14.8436L60.403 106.541Z" fill="#004CD2"/>
<path d="M53.6643 21.1155C53.2854 21.1155 60.7334 13.7854 60.7334 13.7854L67.1711 21.1155L76.6383 16.614L80.2991 25.3585H90.1451V33.3205L98.9808 39.5042C98.9808 39.5042 94.6886 47.4782 95.1937 47.8634C95.6988 48.2487 101 55.5802 101 55.5802L94.5623 62.1385L97.2129 71.6547L88.5034 74.8699L87.1143 83.8717H77.3244L72.976 91.8456L64.3928 87.6014L56.82 92.7854C56.82 92.7854 51.0137 85.1567 50.6349 85.1567C50.256 85.1567 41.1677 87.2148 41.1677 87.2148L39.0223 77.6985L29.4288 75.3831L31.3217 65.7376L24 59.6938L29.4274 51.9771L25.0089 43.7471L32.8343 39.2456C32.8343 39.2456 32.4555 28.571 32.0766 28.8283C31.6977 29.0855 41.5438 27.6712 41.5438 27.6712L44.6995 18.4122L53.6643 21.1155Z" fill="#FEC200"/>
<path d="M48.9999 0.7854V34.5708L31.4999 20.694L13.9999 34.5708V0.7854H48.9999Z" fill="#FF7300"/>
<path d="M48.7889 0.7854L67.225 9.42372H48.7889V0.7854Z" fill="#FF7300"/>
<path d="M39.1035 48.9294C38.4315 48.9294 37.7875 48.8414 37.1715 48.6654C36.5555 48.4814 36.0595 48.2454 35.6835 47.9574L36.3435 46.4934C36.7035 46.7494 37.1275 46.9614 37.6155 47.1294C38.1115 47.2894 38.6115 47.3694 39.1155 47.3694C39.4995 47.3694 39.8075 47.3334 40.0395 47.2614C40.2795 47.1814 40.4555 47.0734 40.5675 46.9374C40.6795 46.8014 40.7355 46.6454 40.7355 46.4694C40.7355 46.2454 40.6475 46.0694 40.4715 45.9414C40.2955 45.8054 40.0635 45.6974 39.7755 45.6174C39.4875 45.5294 39.1675 45.4494 38.8155 45.3774C38.4715 45.2974 38.1235 45.2014 37.7715 45.0894C37.4275 44.9774 37.1115 44.8334 36.8235 44.6574C36.5355 44.4814 36.2995 44.2494 36.1155 43.9614C35.9395 43.6734 35.8515 43.3054 35.8515 42.8574C35.8515 42.3774 35.9795 41.9414 36.2355 41.5494C36.4995 41.1494 36.8915 40.8334 37.4115 40.6014C37.9395 40.3614 38.5995 40.2414 39.3915 40.2414C39.9195 40.2414 40.4395 40.3054 40.9515 40.4334C41.4635 40.5534 41.9155 40.7374 42.3075 40.9854L41.7075 42.4614C41.3155 42.2374 40.9235 42.0734 40.5315 41.9694C40.1395 41.8574 39.7555 41.8014 39.3795 41.8014C39.0035 41.8014 38.6955 41.8454 38.4555 41.9334C38.2155 42.0214 38.0435 42.1374 37.9395 42.2814C37.8355 42.4174 37.7835 42.5774 37.7835 42.7614C37.7835 42.9774 37.8715 43.1534 38.0475 43.2894C38.2235 43.4174 38.4555 43.5214 38.7435 43.6014C39.0315 43.6814 39.3475 43.7614 39.6915 43.8414C40.0435 43.9214 40.3915 44.0134 40.7355 44.1174C41.0875 44.2214 41.4075 44.3614 41.6955 44.5374C41.9835 44.7134 42.2155 44.9454 42.3915 45.2334C42.5755 45.5214 42.6675 45.8854 42.6675 46.3254C42.6675 46.7974 42.5355 47.2294 42.2715 47.6214C42.0075 48.0134 41.6115 48.3294 41.0835 48.5694C40.5635 48.8094 39.9035 48.9294 39.1035 48.9294ZM47.7279 48.9294C46.5359 48.9294 45.6039 48.5974 44.9319 47.9334C44.2599 47.2694 43.9239 46.3214 43.9239 45.0894V40.3854H45.8679V45.0174C45.8679 45.8174 46.0319 46.3934 46.3599 46.7454C46.6879 47.0974 47.1479 47.2734 47.7399 47.2734C48.3319 47.2734 48.7919 47.0974 49.1199 46.7454C49.4479 46.3934 49.6119 45.8174 49.6119 45.0174V40.3854H51.5319V45.0894C51.5319 46.3214 51.1959 47.2694 50.5239 47.9334C49.8519 48.5974 48.9199 48.9294 47.7279 48.9294ZM53.4529 48.7854V40.3854H55.0609L58.6369 46.3134H57.7849L61.3009 40.3854H62.8969L62.9209 48.7854H61.0969L61.0849 43.1814H61.4209L58.6129 47.8974H57.7369L54.8689 43.1814H55.2769V48.7854H53.4529ZM64.9138 48.7854V40.3854H66.5218L70.0978 46.3134H69.2458L72.7618 40.3854H74.3578L74.3818 48.7854H72.5578L72.5458 43.1814H72.8818L70.0738 47.8974H69.1978L66.3298 43.1814H66.7378V48.7854H64.9138ZM78.1628 43.7694H82.2068V45.2814H78.1628V43.7694ZM78.3068 47.2254H82.8788V48.7854H76.3748V40.3854H82.7228V41.9454H78.3068V47.2254ZM84.4256 48.7854V40.3854H88.0616C88.8136 40.3854 89.4616 40.5094 90.0056 40.7574C90.5496 40.9974 90.9696 41.3454 91.2656 41.8014C91.5616 42.2574 91.7096 42.8014 91.7096 43.4334C91.7096 44.0574 91.5616 44.5974 91.2656 45.0534C90.9696 45.5014 90.5496 45.8454 90.0056 46.0854C89.4616 46.3254 88.8136 46.4454 88.0616 46.4454H85.5056L86.3696 45.5934V48.7854H84.4256ZM89.7656 48.7854L87.6656 45.7374H89.7416L91.8656 48.7854H89.7656ZM86.3696 45.8094L85.5056 44.8974H87.9536C88.5536 44.8974 89.0016 44.7694 89.2976 44.5134C89.5936 44.2494 89.7416 43.8894 89.7416 43.4334C89.7416 42.9694 89.5936 42.6094 89.2976 42.3534C89.0016 42.0974 88.5536 41.9694 87.9536 41.9694H85.5056L86.3696 41.0454V45.8094ZM47.7126 63.9294C47.0486 63.9294 46.4326 63.8214 45.8646 63.6054C45.3046 63.3894 44.8166 63.0854 44.4006 62.6934C43.9926 62.3014 43.6726 61.8414 43.4406 61.3134C43.2166 60.7854 43.1046 60.2094 43.1046 59.5854C43.1046 58.9614 43.2166 58.3854 43.4406 57.8574C43.6726 57.3294 43.9966 56.8694 44.4126 56.4774C44.8286 56.0854 45.3166 55.7814 45.8766 55.5654C46.4366 55.3494 47.0446 55.2414 47.7006 55.2414C48.3646 55.2414 48.9726 55.3494 49.5246 55.5654C50.0846 55.7814 50.5686 56.0854 50.9766 56.4774C51.3926 56.8694 51.7166 57.3294 51.9486 57.8574C52.1806 58.3774 52.2966 58.9534 52.2966 59.5854C52.2966 60.2094 52.1806 60.7894 51.9486 61.3254C51.7166 61.8534 51.3926 62.3134 50.9766 62.7054C50.5686 63.0894 50.0846 63.3894 49.5246 63.6054C48.9726 63.8214 48.3686 63.9294 47.7126 63.9294ZM47.7006 62.2734C48.0766 62.2734 48.4206 62.2094 48.7326 62.0814C49.0526 61.9534 49.3326 61.7694 49.5726 61.5294C49.8126 61.2894 49.9966 61.0054 50.1246 60.6774C50.2606 60.3494 50.3286 59.9854 50.3286 59.5854C50.3286 59.1854 50.2606 58.8214 50.1246 58.4934C49.9966 58.1654 49.8126 57.8814 49.5726 57.6414C49.3406 57.4014 49.0646 57.2174 48.7446 57.0894C48.4246 56.9614 48.0766 56.8974 47.7006 56.8974C47.3246 56.8974 46.9766 56.9614 46.6566 57.0894C46.3446 57.2174 46.0686 57.4014 45.8286 57.6414C45.5886 57.8814 45.4006 58.1654 45.2646 58.4934C45.1366 58.8214 45.0726 59.1854 45.0726 59.5854C45.0726 59.9774 45.1366 60.3414 45.2646 60.6774C45.4006 61.0054 45.5846 61.2894 45.8166 61.5294C46.0566 61.7694 46.3366 61.9534 46.6566 62.0814C46.9766 62.2094 47.3246 62.2734 47.7006 62.2734ZM55.5576 59.1654H59.5896V60.7254H55.5576V59.1654ZM55.7016 63.7854H53.7576V55.3854H60.1056V56.9454H55.7016V63.7854ZM63.2217 59.1654H67.2537V60.7254H63.2217V59.1654ZM63.3657 63.7854H61.4217V55.3854H67.7697V56.9454H63.3657V63.7854ZM70.8737 58.7694H74.9177V60.2814H70.8737V58.7694ZM71.0177 62.2254H75.5897V63.7854H69.0857V55.3854H75.4337V56.9454H71.0177V62.2254ZM77.1365 63.7854V55.3854H80.7725C81.5245 55.3854 82.1725 55.5094 82.7165 55.7574C83.2605 55.9974 83.6805 56.3454 83.9765 56.8014C84.2725 57.2574 84.4205 57.8014 84.4205 58.4334C84.4205 59.0574 84.2725 59.5974 83.9765 60.0534C83.6805 60.5014 83.2605 60.8454 82.7165 61.0854C82.1725 61.3254 81.5245 61.4454 80.7725 61.4454H78.2165L79.0805 60.5934V63.7854H77.1365ZM82.4765 63.7854L80.3765 60.7374H82.4525L84.5765 63.7854H82.4765ZM79.0805 60.8094L78.2165 59.8974H80.6645C81.2645 59.8974 81.7125 59.7694 82.0085 59.5134C82.3045 59.2494 82.4525 58.8894 82.4525 58.4334C82.4525 57.9694 82.3045 57.6094 82.0085 57.3534C81.7125 57.0974 81.2645 56.9694 80.6645 56.9694H78.2165L79.0805 56.0454V60.8094ZM53.1895 78.9294C52.5175 78.9294 51.8735 78.8414 51.2575 78.6654C50.6415 78.4814 50.1455 78.2454 49.7695 77.9574L50.4295 76.4934C50.7895 76.7494 51.2135 76.9614 51.7015 77.1294C52.1975 77.2894 52.6975 77.3694 53.2015 77.3694C53.5855 77.3694 53.8935 77.3334 54.1255 77.2614C54.3655 77.1814 54.5415 77.0734 54.6535 76.9374C54.7655 76.8014 54.8215 76.6454 54.8215 76.4694C54.8215 76.2454 54.7335 76.0694 54.5575 75.9414C54.3815 75.8054 54.1495 75.6974 53.8615 75.6174C53.5735 75.5294 53.2535 75.4494 52.9015 75.3774C52.5575 75.2974 52.2095 75.2014 51.8575 75.0894C51.5135 74.9774 51.1975 74.8334 50.9095 74.6574C50.6215 74.4814 50.3855 74.2494 50.2015 73.9614C50.0255 73.6734 49.9375 73.3054 49.9375 72.8574C49.9375 72.3774 50.0655 71.9414 50.3215 71.5494C50.5855 71.1494 50.9775 70.8334 51.4975 70.6014C52.0255 70.3614 52.6855 70.2414 53.4775 70.2414C54.0055 70.2414 54.5255 70.3054 55.0375 70.4334C55.5495 70.5534 56.0015 70.7374 56.3935 70.9854L55.7935 72.4614C55.4015 72.2374 55.0095 72.0734 54.6175 71.9694C54.2255 71.8574 53.8415 71.8014 53.4655 71.8014C53.0895 71.8014 52.7815 71.8454 52.5415 71.9334C52.3015 72.0214 52.1295 72.1374 52.0255 72.2814C51.9215 72.4174 51.8695 72.5774 51.8695 72.7614C51.8695 72.9774 51.9575 73.1534 52.1335 73.2894C52.3095 73.4174 52.5415 73.5214 52.8295 73.6014C53.1175 73.6814 53.4335 73.7614 53.7775 73.8414C54.1295 73.9214 54.4775 74.0134 54.8215 74.1174C55.1735 74.2214 55.4935 74.3614 55.7815 74.5374C56.0695 74.7134 56.3015 74.9454 56.4775 75.2334C56.6615 75.5214 56.7535 75.8854 56.7535 76.3254C56.7535 76.7974 56.6215 77.2294 56.3575 77.6214C56.0935 78.0134 55.6975 78.3294 55.1695 78.5694C54.6495 78.8094 53.9895 78.9294 53.1895 78.9294ZM56.9778 78.7854L60.7218 70.3854H62.6418L66.3978 78.7854H64.3578L61.2858 71.3694H62.0538L58.9698 78.7854H56.9778ZM58.8498 76.9854L59.3658 75.5094H63.6858L64.2138 76.9854H58.8498ZM67.2693 78.7854V70.3854H69.2133V77.2014H73.4253V78.7854H67.2693ZM76.2995 73.7694H80.3435V75.2814H76.2995V73.7694ZM76.4435 77.2254H81.0155V78.7854H74.5115V70.3854H80.8595V71.9454H76.4435V77.2254Z" fill="#212529"/>
</svg>
