<svg width="132" height="96" viewBox="0 0 132 96" fill="none" xmlns="http://www.w3.org/2000/svg">
<path d="M56.1844 34.3289V67.0562H49.265V40.8967H49.0732L41.5786 45.5949V39.4585L49.6805 34.3289H56.1844ZM76.1715 67.5036C73.7106 67.5036 71.5213 67.1041 69.6037 66.3051C67.6967 65.4954 66.1999 64.3928 65.1133 62.9972C64.0266 61.6016 63.4833 60.0196 63.4833 58.2511C63.4833 56.8875 63.7922 55.6357 64.4101 54.4958C65.0387 53.3452 65.891 52.3917 66.967 51.6353C68.043 50.8683 69.2468 50.3782 70.5785 50.1652V49.9415C68.8313 49.5899 67.4144 48.7429 66.3278 47.4006C65.2411 46.0476 64.6978 44.4763 64.6978 42.6865C64.6978 40.9926 65.1932 39.4851 66.1839 38.1641C67.1747 36.8324 68.533 35.7884 70.2589 35.032C71.9954 34.265 73.9662 33.8814 76.1715 33.8814C78.3768 33.8814 80.3423 34.265 82.0682 35.032C83.8047 35.799 85.1683 36.8484 86.1591 38.1801C87.1498 39.5011 87.6506 41.0032 87.6612 42.6865C87.6506 44.4869 87.0966 46.0583 85.9993 47.4006C84.902 48.7429 83.4957 49.5899 81.7805 49.9415V50.1652C83.0909 50.3782 84.2787 50.8683 85.3441 51.6353C86.4201 52.3917 87.2724 53.3452 87.9009 54.4958C88.5401 55.6357 88.865 56.8875 88.8757 58.2511C88.865 60.0196 88.3164 61.6016 87.2297 62.9972C86.1431 64.3928 84.641 65.4954 82.7234 66.3051C80.8164 67.1041 78.6324 67.5036 76.1715 67.5036ZM76.1715 62.4219C77.2688 62.4219 78.2276 62.2248 79.0479 61.8307C79.8682 61.4258 80.5074 60.8718 80.9655 60.1687C81.4343 59.4549 81.6687 58.6346 81.6687 57.7078C81.6687 56.7596 81.429 55.9233 80.9496 55.1989C80.4702 54.4638 79.8203 53.8885 79 53.4731C78.1797 53.0469 77.2368 52.8339 76.1715 52.8339C75.1168 52.8339 74.174 53.0469 73.343 53.4731C72.5121 53.8885 71.8569 54.4638 71.3775 55.1989C70.9087 55.9233 70.6743 56.7596 70.6743 57.7078C70.6743 58.6346 70.9034 59.4549 71.3615 60.1687C71.8196 60.8718 72.4641 61.4258 73.2951 61.8307C74.126 62.2248 75.0849 62.4219 76.1715 62.4219ZM76.1715 47.8001C77.0877 47.8001 77.9027 47.6137 78.6165 47.2408C79.3302 46.8679 79.8895 46.3513 80.2944 45.6907C80.6992 45.0302 80.9016 44.2685 80.9016 43.4056C80.9016 42.5533 80.6992 41.8076 80.2944 41.1684C79.8895 40.5185 79.3356 40.0125 78.6324 39.6503C77.9293 39.2774 77.109 39.091 76.1715 39.091C75.2447 39.091 74.4243 39.2774 73.7106 39.6503C72.9968 40.0125 72.4375 40.5185 72.0327 41.1684C71.6385 41.8076 71.4414 42.5533 71.4414 43.4056C71.4414 44.2685 71.6438 45.0302 72.0486 45.6907C72.4535 46.3513 73.0128 46.8679 73.7265 47.2408C74.4403 47.6137 75.2553 47.8001 76.1715 47.8001Z" fill="#FF7300"/>
<path d="M112.887 25.5801V12.1791C112.887 10.2534 112.404 8.3584 111.482 6.6678L111.333 6.3954C110.379 4.64521 108.943 3.20469 107.196 2.24392V2.24392C105.654 1.39553 103.922 0.950684 102.161 0.950684H86.4986H11.7284C10.1598 0.950684 8.6127 1.31589 7.20971 2.01739V2.01739C5.02066 3.11192 3.30329 4.96378 2.37662 7.22899L2.32925 7.34478C1.81612 8.5991 1.55219 9.94134 1.55219 11.2966V17.0352V82.1955C1.55219 83.3155 1.73276 84.4282 2.08695 85.4908L2.25394 85.9918C2.78015 87.5704 3.75141 88.9633 5.0508 90.0028V90.0028C6.21692 90.9357 7.60509 91.5502 9.07968 91.7861L11.6586 92.1987C12.6266 92.3536 13.6054 92.4314 14.5858 92.4314H39.2503" stroke="#004CD2" stroke-width="1.50792"/>
<path d="M131.196 43.4993V52.1988H116.696V66.6981H107.997V52.1988H93.4975V43.4993H107.997V29H116.696V43.4993H131.196Z" fill="#FF7300"/>
<path d="M9.816 25V16.528H11.7V25H9.816ZM17.0156 25V21.676C17.0156 21.372 16.9196 21.128 16.7276 20.944C16.5436 20.752 16.3076 20.656 16.0196 20.656C15.8196 20.656 15.6436 20.7 15.4916 20.788C15.3396 20.868 15.2196 20.988 15.1316 21.148C15.0436 21.3 14.9996 21.476 14.9996 21.676L14.2916 21.328C14.2916 20.872 14.3916 20.472 14.5916 20.128C14.7916 19.784 15.0676 19.52 15.4196 19.336C15.7796 19.144 16.1836 19.048 16.6316 19.048C17.0636 19.048 17.4436 19.152 17.7716 19.36C18.1076 19.56 18.3716 19.828 18.5636 20.164C18.7556 20.5 18.8516 20.868 18.8516 21.268V25H17.0156ZM13.1636 25V19.168H14.9996V25H13.1636ZM22.5148 25.12C21.9628 25.12 21.4708 24.988 21.0388 24.724C20.6148 24.46 20.2788 24.1 20.0308 23.644C19.7908 23.188 19.6708 22.668 19.6708 22.084C19.6708 21.5 19.7908 20.98 20.0308 20.524C20.2788 20.068 20.6148 19.708 21.0388 19.444C21.4708 19.18 21.9628 19.048 22.5148 19.048C22.9148 19.048 23.2748 19.124 23.5948 19.276C23.9228 19.428 24.1908 19.64 24.3988 19.912C24.6148 20.176 24.7348 20.48 24.7588 20.824V23.284C24.7348 23.628 24.6188 23.94 24.4108 24.22C24.2028 24.492 23.9348 24.712 23.6068 24.88C23.2788 25.04 22.9148 25.12 22.5148 25.12ZM22.8388 23.464C23.1028 23.464 23.3308 23.408 23.5228 23.296C23.7148 23.176 23.8668 23.012 23.9788 22.804C24.0908 22.596 24.1468 22.356 24.1468 22.084C24.1468 21.812 24.0908 21.576 23.9788 21.376C23.8748 21.168 23.7228 21.004 23.5228 20.884C23.3308 20.764 23.1068 20.704 22.8508 20.704C22.5948 20.704 22.3668 20.764 22.1668 20.884C21.9748 21.004 21.8188 21.168 21.6988 21.376C21.5868 21.584 21.5308 21.82 21.5308 22.084C21.5308 22.348 21.5868 22.584 21.6988 22.792C21.8108 23 21.9668 23.164 22.1668 23.284C22.3668 23.404 22.5908 23.464 22.8388 23.464ZM25.8748 25H24.0748V23.428L24.3508 22.012L24.0388 20.596V16.288H25.8748V25ZM29.7595 25.132C29.2235 25.132 28.7475 25.024 28.3315 24.808C27.9235 24.584 27.6035 24.28 27.3715 23.896C27.1395 23.504 27.0235 23.056 27.0235 22.552V19.168H28.8595V22.528C28.8595 22.728 28.8915 22.9 28.9555 23.044C29.0275 23.188 29.1315 23.3 29.2675 23.38C29.4035 23.46 29.5675 23.5 29.7595 23.5C30.0315 23.5 30.2475 23.416 30.4075 23.248C30.5675 23.072 30.6475 22.832 30.6475 22.528V19.168H32.4835V22.54C32.4835 23.052 32.3675 23.504 32.1355 23.896C31.9035 24.28 31.5835 24.584 31.1755 24.808C30.7675 25.024 30.2955 25.132 29.7595 25.132ZM35.7603 25.144C35.4163 25.144 35.0763 25.1 34.7403 25.012C34.4123 24.924 34.1043 24.8 33.8163 24.64C33.5363 24.472 33.2963 24.28 33.0963 24.064L34.1403 23.008C34.3323 23.216 34.5603 23.38 34.8243 23.5C35.0883 23.612 35.3763 23.668 35.6883 23.668C35.9043 23.668 36.0683 23.636 36.1803 23.572C36.3003 23.508 36.3603 23.42 36.3603 23.308C36.3603 23.164 36.2883 23.056 36.1443 22.984C36.0083 22.904 35.8323 22.836 35.6163 22.78C35.4003 22.716 35.1723 22.648 34.9323 22.576C34.6923 22.504 34.4643 22.404 34.2483 22.276C34.0323 22.148 33.8563 21.972 33.7203 21.748C33.5843 21.516 33.5163 21.224 33.5163 20.872C33.5163 20.496 33.6123 20.172 33.8043 19.9C33.9963 19.62 34.2683 19.4 34.6203 19.24C34.9723 19.08 35.3843 19 35.8563 19C36.3523 19 36.8083 19.088 37.2243 19.264C37.6483 19.432 37.9923 19.684 38.2563 20.02L37.2123 21.076C37.0283 20.86 36.8203 20.708 36.5883 20.62C36.3643 20.532 36.1443 20.488 35.9283 20.488C35.7203 20.488 35.5643 20.52 35.4603 20.584C35.3563 20.64 35.3043 20.724 35.3043 20.836C35.3043 20.956 35.3723 21.052 35.5083 21.124C35.6443 21.196 35.8203 21.26 36.0363 21.316C36.2523 21.372 36.4803 21.44 36.7203 21.52C36.9603 21.6 37.1883 21.708 37.4043 21.844C37.6203 21.98 37.7963 22.164 37.9323 22.396C38.0683 22.62 38.1363 22.916 38.1363 23.284C38.1363 23.852 37.9203 24.304 37.4883 24.64C37.0643 24.976 36.4883 25.144 35.7603 25.144ZM39.9604 25V16.756H41.7964V25H39.9604ZM38.6404 20.728V19.168H43.1164V20.728H38.6404ZM43.9253 25V19.168H45.7613V25H43.9253ZM45.7613 21.796L44.9933 21.196C45.1453 20.516 45.4013 19.988 45.7613 19.612C46.1213 19.236 46.6213 19.048 47.2613 19.048C47.5413 19.048 47.7853 19.092 47.9933 19.18C48.2093 19.26 48.3973 19.388 48.5573 19.564L47.4653 20.944C47.3853 20.856 47.2853 20.788 47.1653 20.74C47.0453 20.692 46.9093 20.668 46.7573 20.668C46.4533 20.668 46.2093 20.764 46.0253 20.956C45.8493 21.14 45.7613 21.42 45.7613 21.796ZM50.7996 25.024L48.3996 19.168H50.3796L51.9036 23.812H51.1716L52.7316 19.168H54.7116L52.2156 25.024H50.7996ZM49.2996 27.46L51.0516 23.68L52.2156 25.024L51.1836 27.46H49.2996ZM57.8629 25V16.528H59.7469V25H57.8629ZM59.3149 25V23.344H63.5029V25H59.3149ZM67.2077 25.132C66.5757 25.132 66.0117 25.004 65.5157 24.748C65.0277 24.484 64.6437 24.12 64.3637 23.656C64.0837 23.192 63.9437 22.668 63.9437 22.084C63.9437 21.5 64.0797 20.98 64.3517 20.524C64.6317 20.06 65.0077 19.696 65.4797 19.432C65.9517 19.168 66.4837 19.036 67.0757 19.036C67.6517 19.036 68.1597 19.16 68.5997 19.408C69.0397 19.656 69.3837 20 69.6317 20.44C69.8877 20.88 70.0157 21.384 70.0157 21.952C70.0157 22.056 70.0077 22.168 69.9917 22.288C69.9837 22.4 69.9637 22.532 69.9317 22.684L64.9037 22.696V21.436L69.1517 21.424L68.3597 21.952C68.3517 21.616 68.2997 21.34 68.2037 21.124C68.1077 20.9 67.9637 20.732 67.7717 20.62C67.5877 20.5 67.3597 20.44 67.0877 20.44C66.7997 20.44 66.5477 20.508 66.3317 20.644C66.1237 20.772 65.9597 20.956 65.8397 21.196C65.7277 21.436 65.6717 21.728 65.6717 22.072C65.6717 22.416 65.7317 22.712 65.8517 22.96C65.9797 23.2 66.1557 23.388 66.3797 23.524C66.6117 23.652 66.8837 23.716 67.1957 23.716C67.4837 23.716 67.7437 23.668 67.9757 23.572C68.2077 23.468 68.4117 23.316 68.5877 23.116L69.5957 24.124C69.3077 24.46 68.9597 24.712 68.5517 24.88C68.1437 25.048 67.6957 25.132 67.2077 25.132ZM73.3379 25.12C72.8019 25.12 72.3219 24.988 71.8979 24.724C71.4819 24.46 71.1499 24.1 70.9019 23.644C70.6619 23.188 70.5419 22.668 70.5419 22.084C70.5419 21.5 70.6619 20.98 70.9019 20.524C71.1499 20.068 71.4819 19.708 71.8979 19.444C72.3219 19.18 72.8019 19.048 73.3379 19.048C73.7299 19.048 74.0819 19.124 74.3939 19.276C74.7139 19.428 74.9739 19.64 75.1739 19.912C75.3739 20.176 75.4859 20.48 75.5099 20.824V23.344C75.4859 23.688 75.3739 23.996 75.1739 24.268C74.9819 24.532 74.7259 24.74 74.4059 24.892C74.0859 25.044 73.7299 25.12 73.3379 25.12ZM73.7099 23.464C74.1019 23.464 74.4179 23.336 74.6579 23.08C74.8979 22.816 75.0179 22.484 75.0179 22.084C75.0179 21.812 74.9619 21.572 74.8499 21.364C74.7459 21.156 74.5939 20.996 74.3939 20.884C74.2019 20.764 73.9779 20.704 73.7219 20.704C73.4659 20.704 73.2379 20.764 73.0379 20.884C72.8459 20.996 72.6899 21.156 72.5699 21.364C72.4579 21.572 72.4019 21.812 72.4019 22.084C72.4019 22.348 72.4579 22.584 72.5699 22.792C72.6819 23 72.8379 23.164 73.0379 23.284C73.2379 23.404 73.4619 23.464 73.7099 23.464ZM74.9459 25V23.428L75.2219 22.012L74.9459 20.596V19.168H76.7459V25H74.9459ZM80.5226 25.12C79.9706 25.12 79.4786 24.988 79.0466 24.724C78.6226 24.46 78.2866 24.1 78.0386 23.644C77.7986 23.188 77.6786 22.668 77.6786 22.084C77.6786 21.5 77.7986 20.98 78.0386 20.524C78.2866 20.068 78.6226 19.708 79.0466 19.444C79.4786 19.18 79.9706 19.048 80.5226 19.048C80.9226 19.048 81.2826 19.124 81.6026 19.276C81.9306 19.428 82.1986 19.64 82.4066 19.912C82.6226 20.176 82.7426 20.48 82.7666 20.824V23.284C82.7426 23.628 82.6266 23.94 82.4186 24.22C82.2106 24.492 81.9426 24.712 81.6146 24.88C81.2866 25.04 80.9226 25.12 80.5226 25.12ZM80.8466 23.464C81.1106 23.464 81.3386 23.408 81.5306 23.296C81.7226 23.176 81.8746 23.012 81.9866 22.804C82.0986 22.596 82.1546 22.356 82.1546 22.084C82.1546 21.812 82.0986 21.576 81.9866 21.376C81.8826 21.168 81.7306 21.004 81.5306 20.884C81.3386 20.764 81.1146 20.704 80.8586 20.704C80.6026 20.704 80.3746 20.764 80.1746 20.884C79.9826 21.004 79.8266 21.168 79.7066 21.376C79.5946 21.584 79.5386 21.82 79.5386 22.084C79.5386 22.348 79.5946 22.584 79.7066 22.792C79.8186 23 79.9746 23.164 80.1746 23.284C80.3746 23.404 80.5986 23.464 80.8466 23.464ZM83.8826 25H82.0826V23.428L82.3586 22.012L82.0466 20.596V16.288H83.8826V25ZM88.0553 25.132C87.4233 25.132 86.8593 25.004 86.3633 24.748C85.8753 24.484 85.4913 24.12 85.2113 23.656C84.9313 23.192 84.7913 22.668 84.7913 22.084C84.7913 21.5 84.9273 20.98 85.1993 20.524C85.4793 20.06 85.8553 19.696 86.3273 19.432C86.7993 19.168 87.3313 19.036 87.9233 19.036C88.4993 19.036 89.0073 19.16 89.4473 19.408C89.8873 19.656 90.2313 20 90.4793 20.44C90.7353 20.88 90.8633 21.384 90.8633 21.952C90.8633 22.056 90.8553 22.168 90.8393 22.288C90.8313 22.4 90.8113 22.532 90.7793 22.684L85.7513 22.696V21.436L89.9993 21.424L89.2073 21.952C89.1993 21.616 89.1473 21.34 89.0513 21.124C88.9553 20.9 88.8113 20.732 88.6193 20.62C88.4353 20.5 88.2073 20.44 87.9353 20.44C87.6473 20.44 87.3953 20.508 87.1793 20.644C86.9713 20.772 86.8073 20.956 86.6873 21.196C86.5753 21.436 86.5193 21.728 86.5193 22.072C86.5193 22.416 86.5793 22.712 86.6993 22.96C86.8273 23.2 87.0033 23.388 87.2273 23.524C87.4593 23.652 87.7313 23.716 88.0433 23.716C88.3313 23.716 88.5913 23.668 88.8233 23.572C89.0553 23.468 89.2593 23.316 89.4353 23.116L90.4433 24.124C90.1553 24.46 89.8073 24.712 89.3993 24.88C88.9913 25.048 88.5433 25.132 88.0553 25.132ZM91.7496 25V19.168H93.5856V25H91.7496ZM93.5856 21.796L92.8176 21.196C92.9696 20.516 93.2256 19.988 93.5856 19.612C93.9456 19.236 94.4456 19.048 95.0856 19.048C95.3656 19.048 95.6096 19.092 95.8176 19.18C96.0336 19.26 96.2216 19.388 96.3816 19.564L95.2896 20.944C95.2096 20.856 95.1096 20.788 94.9896 20.74C94.8696 20.692 94.7336 20.668 94.5816 20.668C94.2776 20.668 94.0336 20.764 93.8496 20.956C93.6736 21.14 93.5856 21.42 93.5856 21.796ZM98.8658 25.144C98.5218 25.144 98.1818 25.1 97.8458 25.012C97.5178 24.924 97.2098 24.8 96.9218 24.64C96.6418 24.472 96.4018 24.28 96.2018 24.064L97.2458 23.008C97.4378 23.216 97.6658 23.38 97.9298 23.5C98.1938 23.612 98.4818 23.668 98.7938 23.668C99.0098 23.668 99.1738 23.636 99.2858 23.572C99.4058 23.508 99.4658 23.42 99.4658 23.308C99.4658 23.164 99.3938 23.056 99.2498 22.984C99.1138 22.904 98.9378 22.836 98.7218 22.78C98.5058 22.716 98.2778 22.648 98.0378 22.576C97.7977 22.504 97.5698 22.404 97.3538 22.276C97.1378 22.148 96.9618 21.972 96.8258 21.748C96.6898 21.516 96.6218 21.224 96.6218 20.872C96.6218 20.496 96.7178 20.172 96.9098 19.9C97.1018 19.62 97.3738 19.4 97.7258 19.24C98.0778 19.08 98.4898 19 98.9618 19C99.4578 19 99.9138 19.088 100.33 19.264C100.754 19.432 101.098 19.684 101.362 20.02L100.318 21.076C100.134 20.86 99.9258 20.708 99.6938 20.62C99.4698 20.532 99.2498 20.488 99.0338 20.488C98.8258 20.488 98.6698 20.52 98.5658 20.584C98.4618 20.64 98.4098 20.724 98.4098 20.836C98.4098 20.956 98.4778 21.052 98.6138 21.124C98.7498 21.196 98.9258 21.26 99.1418 21.316C99.3578 21.372 99.5858 21.44 99.8258 21.52C100.066 21.6 100.294 21.708 100.51 21.844C100.726 21.98 100.902 22.164 101.038 22.396C101.174 22.62 101.242 22.916 101.242 23.284C101.242 23.852 101.026 24.304 100.594 24.64C100.17 24.976 99.5938 25.144 98.8658 25.144ZM10.392 40V33.664C10.392 33.192 10.496 32.768 10.704 32.392C10.92 32.008 11.22 31.708 11.604 31.492C11.988 31.268 12.444 31.156 12.972 31.156C13.372 31.156 13.72 31.224 14.016 31.36C14.32 31.488 14.584 31.668 14.808 31.9L13.656 33.052C13.576 32.972 13.484 32.912 13.38 32.872C13.284 32.824 13.168 32.8 13.032 32.8C12.784 32.8 12.588 32.872 12.444 33.016C12.3 33.16 12.228 33.356 12.228 33.604V40H10.392ZM9.108 35.728V34.168H13.908V35.728H9.108ZM14.6636 40V34.168H16.4996V40H14.6636ZM16.4996 36.796L15.7316 36.196C15.8836 35.516 16.1396 34.988 16.4996 34.612C16.8596 34.236 17.3596 34.048 17.9996 34.048C18.2796 34.048 18.5236 34.092 18.7316 34.18C18.9476 34.26 19.1356 34.388 19.2956 34.564L18.2036 35.944C18.1236 35.856 18.0236 35.788 17.9036 35.74C17.7836 35.692 17.6476 35.668 17.4956 35.668C17.1916 35.668 16.9476 35.764 16.7636 35.956C16.5876 36.14 16.4996 36.42 16.4996 36.796ZM22.4287 40.132C21.8287 40.132 21.2847 40 20.7967 39.736C20.3167 39.464 19.9367 39.096 19.6567 38.632C19.3767 38.168 19.2367 37.648 19.2367 37.072C19.2367 36.496 19.3767 35.98 19.6567 35.524C19.9367 35.068 20.3167 34.708 20.7967 34.444C21.2767 34.172 21.8207 34.036 22.4287 34.036C23.0367 34.036 23.5807 34.168 24.0607 34.432C24.5407 34.696 24.9207 35.06 25.2007 35.524C25.4807 35.98 25.6207 36.496 25.6207 37.072C25.6207 37.648 25.4807 38.168 25.2007 38.632C24.9207 39.096 24.5407 39.464 24.0607 39.736C23.5807 40 23.0367 40.132 22.4287 40.132ZM22.4287 38.464C22.6927 38.464 22.9247 38.408 23.1247 38.296C23.3247 38.176 23.4767 38.012 23.5807 37.804C23.6927 37.588 23.7487 37.344 23.7487 37.072C23.7487 36.8 23.6927 36.564 23.5807 36.364C23.4687 36.156 23.3127 35.996 23.1127 35.884C22.9207 35.764 22.6927 35.704 22.4287 35.704C22.1727 35.704 21.9447 35.764 21.7447 35.884C21.5447 35.996 21.3887 36.156 21.2767 36.364C21.1647 36.572 21.1087 36.812 21.1087 37.084C21.1087 37.348 21.1647 37.588 21.2767 37.804C21.3887 38.012 21.5447 38.176 21.7447 38.296C21.9447 38.408 22.1727 38.464 22.4287 38.464ZM26.5347 40V34.168H28.3707V40H26.5347ZM30.2667 40V36.592C30.2667 36.296 30.1747 36.068 29.9907 35.908C29.8147 35.74 29.5947 35.656 29.3307 35.656C29.1467 35.656 28.9827 35.696 28.8387 35.776C28.6947 35.848 28.5787 35.952 28.4907 36.088C28.4107 36.224 28.3707 36.392 28.3707 36.592L27.6627 36.28C27.6627 35.816 27.7627 35.42 27.9627 35.092C28.1627 34.756 28.4347 34.5 28.7787 34.324C29.1227 34.14 29.5107 34.048 29.9427 34.048C30.3507 34.048 30.7147 34.14 31.0347 34.324C31.3627 34.508 31.6227 34.764 31.8147 35.092C32.0067 35.42 32.1027 35.812 32.1027 36.268V40H30.2667ZM33.9987 40V36.592C33.9987 36.296 33.9067 36.068 33.7227 35.908C33.5467 35.74 33.3267 35.656 33.0627 35.656C32.8787 35.656 32.7147 35.696 32.5707 35.776C32.4267 35.848 32.3107 35.952 32.2227 36.088C32.1427 36.224 32.1027 36.392 32.1027 36.592L31.0467 36.448C31.0627 35.952 31.1787 35.528 31.3947 35.176C31.6187 34.816 31.9107 34.54 32.2707 34.348C32.6387 34.148 33.0507 34.048 33.5067 34.048C33.9547 34.048 34.3507 34.144 34.6947 34.336C35.0467 34.52 35.3227 34.788 35.5227 35.14C35.7307 35.484 35.8347 35.9 35.8347 36.388V40H33.9987Z" fill="#004CD2"/>
<path d="M53.1644 86.0384L47.1487 76.2409H51.1739L55.7962 84.1585H53.2086L57.8309 76.2409H61.7676L55.7077 86.0384H53.1644ZM52.7441 91.855V84.446H56.2164V91.855H52.7441ZM63.0085 91.855V76.2409H66.4807V91.855H63.0085ZM65.6624 91.855V88.8472H74.2214V91.855H65.6624ZM65.6624 85.3307V82.4335H73.4473V85.3307H65.6624ZM65.6624 79.2266V76.2409H74.1108V79.2266H65.6624ZM75.443 91.855L81.6355 76.2409H84.776L90.9022 91.855H87.2309L82.5423 78.8949H83.8029L79.0479 91.855H75.443ZM78.9595 89.0241V86.1932H87.4742V89.0241H78.9595ZM95.2083 85.4192V82.8537H98.5036C99.1966 82.8537 99.7274 82.6767 100.096 82.3229C100.479 81.969 100.671 81.4898 100.671 80.8853C100.671 80.3251 100.487 79.8606 100.118 79.492C99.7495 79.1234 99.2187 78.9391 98.5258 78.9391H95.2083V76.2409H98.9238C99.9559 76.2409 100.863 76.44 101.644 76.8381C102.426 77.2214 103.037 77.7596 103.48 78.4526C103.922 79.1455 104.143 79.9417 104.143 80.8411C104.143 81.7552 103.922 82.5588 103.48 83.2518C103.037 83.93 102.418 84.4608 101.622 84.8441C100.826 85.2275 99.8896 85.4192 98.8133 85.4192H95.2083ZM92.5544 91.855V76.2409H96.0266V91.855H92.5544ZM101.047 91.855L96.1814 85.1316L99.3662 84.2691L105.161 91.855H101.047ZM110.979 92.0983C109.697 92.0983 108.591 91.8918 107.662 91.479C106.748 91.0514 105.907 90.4101 105.141 89.5549L107.396 87.3212C107.898 87.8962 108.451 88.3459 109.055 88.6702C109.674 88.9799 110.389 89.1347 111.2 89.1347C111.938 89.1347 112.505 89.002 112.903 88.7366C113.316 88.4712 113.523 88.1026 113.523 87.6308C113.523 87.2032 113.39 86.8567 113.125 86.5913C112.859 86.3259 112.505 86.0974 112.063 85.9057C111.635 85.714 111.156 85.5297 110.625 85.3528C110.109 85.1759 109.593 84.9768 109.077 84.7557C108.561 84.5198 108.082 84.2323 107.64 83.8931C107.212 83.5393 106.866 83.1043 106.6 82.5883C106.335 82.0575 106.202 81.394 106.202 80.5978C106.202 79.6395 106.431 78.8138 106.888 78.1208C107.36 77.4278 108.008 76.9044 108.834 76.5506C109.66 76.182 110.611 75.9977 111.687 75.9977C112.778 75.9977 113.773 76.1893 114.673 76.5727C115.587 76.956 116.339 77.4794 116.929 78.1429L114.673 80.3767C114.201 79.8901 113.722 79.5289 113.235 79.293C112.763 79.0571 112.225 78.9391 111.621 78.9391C111.016 78.9391 110.537 79.0571 110.183 79.293C109.829 79.5141 109.652 79.8385 109.652 80.2661C109.652 80.6642 109.785 80.9885 110.05 81.2392C110.316 81.4751 110.662 81.6815 111.09 81.8584C111.532 82.0354 112.011 82.2123 112.527 82.3892C113.058 82.5662 113.582 82.7726 114.098 83.0085C114.614 83.2444 115.086 83.5467 115.513 83.9153C115.955 84.2691 116.309 84.7262 116.575 85.2865C116.84 85.832 116.973 86.5102 116.973 87.3212C116.973 88.8103 116.442 89.9825 115.38 90.8376C114.319 91.6781 112.852 92.0983 110.979 92.0983Z" fill="#004CD2"/>
</svg>
